<?xml version="1.0" standalone="no"?>
<!DOCTYPE svg PUBLIC "-//W3C//DTD SVG 20010904//EN"
 "http://www.w3.org/TR/2001/REC-SVG-20010904/DTD/svg10.dtd">
<svg version="1.0" xmlns="http://www.w3.org/2000/svg"
 width="2362.000000pt" height="2362.000000pt" viewBox="0 0 2362.000000 2362.000000"
 preserveAspectRatio="xMidYMid meet">
<metadata>
Created by potrace 1.16, written by Peter Selinger 2001-2019
</metadata>
<g transform="translate(0.000000,2362.000000) scale(0.100000,-0.100000)"
fill="#000000" stroke="none">
<path d="M290 12095 l0 -11235 10655 0 10655 0 0 290 0 290 -575 0 -575 0 0
575 0 575 -1440 0 -1440 0 0 -285 0 -285 1155 0 1155 0 0 -290 0 -290 -1445 0
-1445 0 0 865 0 865 580 0 580 0 0 285 0 285 -865 0 -865 0 0 -1150 0 -1150
-2015 0 -2015 0 0 290 0 290 575 0 575 0 0 285 0 285 -575 0 -575 0 0 290 0
290 863 0 862 0 -3 -575 -2 -575 865 0 865 0 0 285 0 285 -575 0 -575 0 0 575
0 575 -575 0 -575 0 0 290 0 290 865 0 865 0 0 -575 0 -575 285 0 285 0 0 865
0 865 -1437 -2 -1438 -3 -3 -577 -2 -578 -285 0 -285 0 -2 578 -3 577 -287 3
-288 2 0 -1730 0 -1730 -290 0 -290 0 0 1730 0 1730 -285 0 -285 0 0 -1730 0
-1730 -290 0 -290 0 0 2595 0 2595 290 0 290 0 0 -580 0 -580 863 2 862 3 0
285 0 285 -577 3 -578 2 0 575 0 575 -1440 0 -1440 0 0 -285 0 -285 580 0 580
0 0 -865 0 -865 -290 0 -290 0 0 575 0 575 -290 0 -290 0 0 -575 0 -575 -285
0 -285 0 0 1150 0 1150 -865 0 -865 0 0 -285 0 -285 575 0 575 0 0 -1730 0
-1730 290 0 290 0 0 575 0 575 865 0 865 0 0 -290 0 -290 -580 0 -580 0 0
-285 0 -285 580 0 580 0 0 -290 0 -290 -1155 0 -1155 0 0 -285 0 -285 1155 0
1155 0 0 -290 0 -290 -3170 0 -3170 0 0 290 0 290 1150 0 1150 0 0 285 0 285
-575 0 -575 0 0 290 0 290 865 0 865 0 0 -575 0 -575 285 0 285 0 0 1440 0
1440 -285 0 -285 0 0 -580 0 -580 -865 0 -865 0 0 290 0 290 575 0 575 0 0
290 0 290 -860 0 -860 0 0 -1155 0 -1155 -290 0 -290 0 0 575 0 575 -865 0
-865 0 0 -285 0 -285 575 0 575 0 0 -865 0 -865 -865 0 -865 0 0 290 0 290
580 0 580 0 0 285 0 285 -580 0 -580 0 0 1440 0 1440 290 0 290 0 0 -575 0
-575 290 0 290 0 0 1440 0 1440 -290 0 -290 0 0 -575 0 -575 -290 0 -290 0 0
865 0 865 1155 0 1155 0 0 285 0 285 -1155 0 -1155 0 0 290 0 290 580 0 580 0
-2 288 -3 287 -285 2 c-157 2 -417 3 -577 3 l-293 0 0 285 0 285 578 2 577 3
0 285 0 285 -577 3 -578 2 0 285 0 285 578 2 577 3 3 288 2 287 -580 0 -580 0
0 2015 0 2015 865 0 865 0 0 -285 0 -285 -287 0 c-159 0 -417 0 -575 0 l-288
1 0 -1441 0 -1440 575 0 575 0 0 -1155 0 -1155 1440 0 1440 0 0 290 0 290
-1150 0 -1150 0 0 285 0 285 288 0 c158 0 675 0 1150 0 l862 0 0 290 0 290
-1150 0 -1150 0 0 865 0 865 290 0 290 0 0 -575 0 -575 860 0 860 0 0 285 0
285 -575 0 -575 0 0 290 0 290 865 0 865 0 0 -2595 0 -2595 -290 0 -290 0 0
580 0 580 -285 0 -285 0 0 -580 0 -580 -290 0 -290 0 0 580 0 580 -862 -3
-863 -2 -3 -288 -2 -287 580 0 580 0 0 -865 0 -865 -580 0 -580 0 0 -1440 0
-1440 290 0 290 0 0 1155 0 1155 865 0 865 0 0 -290 0 -290 -575 0 -575 0 0
-290 0 -290 1435 0 1435 0 0 290 0 290 -575 0 -575 0 0 575 0 575 -575 0 -575
0 0 290 0 290 1150 0 1150 0 0 2880 0 2880 865 0 865 0 0 -575 0 -575 580 0
580 0 0 -865 0 -865 -577 -2 -578 -3 -2 -862 -3 -863 290 0 290 0 0 575 0 575
2305 0 2305 0 0 290 0 290 -1730 0 -1730 0 0 1150 0 1150 -575 0 -575 0 0 575
0 575 -575 0 -575 0 0 1155 0 1155 -290 0 -290 0 0 -575 0 -575 -287 0 c-159
0 -417 0 -575 0 l-288 1 0 -291 0 -290 575 0 575 0 0 -290 0 -290 -1440 0
-1440 0 0 580 0 580 -285 0 -285 0 -2 -577 -3 -578 -577 -3 -578 -2 0 -575 0
-575 -285 0 -285 0 -2 578 c-2 317 -2 706 0 865 l2 287 575 0 575 0 0 575 0
575 575 0 575 0 0 290 0 290 -1730 0 -1730 0 0 290 0 290 2305 0 2305 0 0 860
0 860 -285 0 -285 0 0 -575 0 -575 -290 0 -290 0 0 575 0 575 -285 0 -285 0 0
-575 0 -575 -1445 0 -1445 0 0 290 0 290 1155 0 1155 0 0 285 0 285 -1155 0
-1155 0 0 290 0 290 580 0 580 0 0 285 0 285 -577 2 -578 3 -3 288 -2 287
2305 0 2305 0 0 575 0 575 578 2 c317 2 706 2 865 0 l287 -2 0 -575 0 -575
290 0 290 0 0 865 0 865 -1440 0 -1440 0 0 -575 0 -575 -2020 0 -2020 0 0
1150 0 1150 -285 0 -285 0 0 -11235z M1440 23045 l0 -285 575 0 575 0 0 -290
0 -290 -575 0 -575 0 0 -290 0 -290 1440 0 1440 0 0 290 0 290 -575 0 -575 0
0 290 0 290 2590 0 2590 0 0 -577 c0 -318 0 -838 0 -1155 l0 -578 290 0 290 0
0 575 0 575 290 0 290 0 0 -1150 0 -1150 860 0 860 0 0 285 0 285 -575 0 -575
0 0 865 0 865 575 0 575 0 0 290 0 290 -1150 0 -1150 0 0 290 0 290 1440 0
1440 0 0 -865 0 -865 -575 0 -575 0 0 -290 0 -290 863 2 862 3 2 575 c2 316 3
835 3 1153 l0 577 2015 0 2015 0 0 -290 0 -290 -575 0 -575 0 0 -290 0 -290
863 0 c474 0 991 0 1150 0 l287 0 0 -285 0 -285 -575 0 -575 0 0 -290 0 -290
1150 0 1150 0 0 -290 0 -290 -575 0 -575 0 0 -285 0 -285 575 0 575 0 0 -865
0 -865 -575 0 -575 0 0 -285 0 -285 575 0 575 0 2 -577 3 -578 288 -3 287 -2
0 1155 0 1155 575 0 575 0 0 285 0 285 -575 0 -575 0 0 1730 0 1730 -290 0
-290 0 0 -575 0 -575 -285 0 -285 0 0 575 0 575 -580 0 -580 0 0 290 0 290
1445 0 1445 0 0 -1730 0 -1730 285 0 285 0 0 1730 0 1730 865 0 865 0 0 -865
0 -865 -290 0 -290 0 0 575 0 575 -285 0 -285 0 0 -1440 0 -1440 285 0 285 0
0 575 0 575 290 0 290 0 0 -865 0 -865 -575 0 -575 0 0 -285 0 -285 575 0 575
0 0 -290 0 -290 -1150 0 -1150 0 0 -1730 0 -1730 -290 0 -290 0 0 580 0 580
-865 0 -865 0 0 -290 0 -290 575 0 575 0 0 -290 0 -290 -1150 0 -1150 0 0
-285 0 -285 575 0 575 0 0 -290 0 -290 -865 0 -865 0 0 575 0 575 -285 0 -285
0 0 -575 0 -575 -290 0 -290 0 0 865 0 865 1150 0 1150 0 0 290 0 290 -575 0
-575 0 0 285 0 285 1153 2 1152 3 3 288 2 287 -580 0 -580 0 0 865 0 865 580
0 580 0 0 285 0 285 -580 0 -580 0 0 575 0 575 -575 0 -575 0 0 580 0 580
-575 0 -575 0 0 575 0 575 -865 0 -865 0 0 -865 0 -865 290 0 290 0 0 575 0
575 285 0 285 0 0 -287 c0 -159 1 -416 3 -573 l2 -285 578 -3 577 -2 0 -1150
0 -1150 285 0 285 0 0 575 0 575 290 0 290 0 0 -865 0 -865 -575 0 -575 0 0
-285 0 -285 575 0 575 0 0 -290 0 -290 -575 0 -575 0 0 -575 0 -575 -290 0
-290 0 0 575 0 575 -575 0 -575 0 0 290 0 290 575 0 575 0 0 1435 0 1435 -290
0 -290 0 3 -1150 2 -1150 -1152 0 -1153 0 0 -285 0 -285 575 0 575 0 0 -580 0
-580 575 0 575 0 0 -285 c0 -157 0 -415 0 -575 0 -159 0 -420 0 -580 l0 -290
-2015 0 -2015 0 0 865 0 865 290 0 290 0 0 -575 0 -575 285 0 285 0 0 575 0
575 290 0 290 0 0 -575 0 -575 865 0 865 0 -2 288 -3 287 -572 3 -573 2 0 288
c0 158 -1 415 -3 572 l-2 285 -1437 3 -1438 2 0 -575 0 -575 -290 0 -290 0 0
1440 0 1440 290 0 290 0 0 -575 0 -575 285 0 285 0 0 575 0 575 290 0 290 0 0
-575 0 -575 285 0 285 0 0 575 0 575 1155 0 1155 0 0 285 0 285 -575 0 -575 0
0 290 0 290 575 0 575 0 0 285 0 285 -865 0 -865 0 0 -575 0 -575 -1440 0
-1440 0 0 575 0 575 -1152 2 -1153 3 -3 578 -2 577 -285 0 -285 0 0 -580 0
-580 -1730 0 -1730 0 0 -285 0 -285 2880 0 2880 0 0 -290 0 -290 -1150 0
-1150 0 0 -285 0 -285 1150 0 1150 0 0 -290 0 -290 -1150 0 -1150 0 0 -575 0
-575 -575 0 -575 0 0 -865 0 -865 285 0 285 0 0 575 0 575 575 0 575 0 2 578
3 577 863 3 862 2 0 -1155 0 -1155 580 0 580 0 0 -575 0 -575 1150 0 1150 0 0
-290 0 -290 -575 0 -575 0 0 -285 0 -285 575 0 575 0 0 -290 0 -290 -575 0
-575 0 0 -290 0 -290 863 3 862 2 3 578 2 577 575 0 575 0 0 285 0 285 -575 0
-575 0 0 290 0 290 863 0 862 0 -3 -575 -2 -575 580 0 580 0 0 -290 0 -290
-1155 0 -1155 0 2 -287 3 -288 575 -2 c316 -2 835 -3 1153 -3 l577 0 0 -285 0
-285 -577 -2 -578 -3 -2 -863 -3 -862 290 0 290 0 0 575 0 575 575 0 575 0 0
1155 0 1155 290 0 290 0 0 -1730 0 -1730 285 0 285 0 0 1730 0 1730 580 0 580
0 0 575 0 575 285 0 285 0 0 -575 0 -575 290 0 290 0 0 575 0 575 290 0 290 0
0 -575 0 -575 285 0 285 0 0 2305 0 2305 865 0 865 0 0 -1445 0 -1445 -290 0
-290 0 0 1155 0 1155 -285 0 -285 0 0 -1440 0 -1440 575 0 575 0 0 -2017 0
-2018 -290 3 -290 3 0 1724 0 1725 -285 0 -285 0 0 -1150 0 -1150 -290 0 -290
0 0 575 0 575 -285 0 -285 0 0 -865 0 -865 575 0 575 0 0 -287 0 -288 -582 2
c-321 2 -710 3 -865 3 l-283 0 0 1150 0 1150 -865 0 -865 0 2 -287 3 -288 285
-2 c157 -2 414 -3 573 -3 l287 0 0 -860 0 -860 -285 0 -285 0 -2 572 -3 573
-287 3 -288 2 0 -865 0 -865 575 0 575 0 0 -865 0 -865 -285 0 -285 0 0 575 0
575 -290 0 -290 0 0 -575 0 -575 -290 0 -290 0 0 575 0 575 -285 0 -285 0 0
-575 0 -575 -290 0 -290 0 0 1155 0 1155 -285 0 -285 0 0 -1730 0 -1730 -290
0 -290 0 0 1150 0 1150 -290 0 -290 0 0 -862 c0 -475 0 -992 0 -1150 l0 -288
-285 0 -285 0 -2 1727 -3 1728 -285 0 -285 0 -3 -1152 -2 -1153 -285 0 -285 0
0 288 c0 158 -1 676 -3 1152 l-2 865 -287 3 -288 2 0 -580 0 -580 -290 0 -290
0 0 580 0 580 -285 0 -285 0 0 -580 0 -580 -290 0 -290 0 0 580 0 580 -285 0
-285 0 0 -580 0 -580 -865 0 -865 0 0 1440 0 1440 288 0 c158 0 416 0 575 0
l287 -1 0 291 0 290 -575 0 -575 0 0 575 0 575 -290 0 -290 0 0 -2590 0 -2590
2305 0 2305 0 0 -575 0 -575 575 0 575 0 2 -577 3 -578 1438 -3 1437 -2 0 580
0 580 290 0 290 0 0 -1155 0 -1155 865 0 865 0 -2 288 -3 287 -577 3 -578 2 0
285 0 285 1155 0 1155 0 0 290 0 290 -1155 0 -1155 0 2 288 3 287 1152 3 1153
2 0 575 0 575 290 0 290 0 0 -1440 0 -1440 -577 -2 -578 -3 -3 -862 -2 -863
865 0 865 0 0 285 0 285 -575 0 -575 0 0 290 0 290 575 0 575 0 0 2015 0 2015
-575 0 -575 0 0 290 0 290 865 0 865 0 0 -575 0 -575 285 0 285 0 0 575 0 575
290 0 290 0 0 -2015 0 -2015 -290 0 -290 0 0 1150 0 1150 -285 0 -285 0 0
-1440 0 -1440 575 0 575 0 0 -290 0 -290 -575 0 -575 0 0 -285 0 -285 575 0
575 0 0 -290 0 -290 -575 0 -575 0 0 -285 0 -285 575 0 575 0 0 -580 0 -580
288 2 287 3 2 11233 3 11232 -10660 0 -10660 0 0 -285z"/>
</g>
</svg>
