<?xml version="1.0" standalone="no"?>
<!DOCTYPE svg PUBLIC "-//W3C//DTD SVG 20010904//EN"
 "http://www.w3.org/TR/2001/REC-SVG-20010904/DTD/svg10.dtd">
<svg version="1.0" xmlns="http://www.w3.org/2000/svg"
 width="2362.000000pt" height="2362.000000pt" viewBox="0 0 2362.000000 2362.000000"
 preserveAspectRatio="xMidYMid meet">
<metadata>
Created by potrace 1.16, written by Peter Selinger 2001-2019
</metadata>
<g transform="translate(0.000000,2362.000000) scale(0.100000,-0.100000)"
fill="#000000" stroke="none">
<path d="M290 12095 l0 -11235 10655 0 10655 0 0 290 0 290 -4030 0 -4030 0 0
1150 0 1150 -290 0 -290 0 0 -575 0 -575 -575 0 -575 0 0 -285 0 -285 575 0
575 0 0 -290 0 -290 -865 0 -865 0 0 865 0 865 580 0 580 0 0 285 0 285 -865
0 -865 0 0 -575 0 -575 -575 0 -575 0 0 -285 0 -285 575 0 575 0 0 -290 0
-290 -865 0 -865 0 0 575 0 575 -865 0 -865 0 0 -285 0 -285 575 0 575 0 0
-290 0 -290 -865 0 -865 0 0 865 0 865 1730 0 1730 0 0 285 0 285 -575 0 -575
0 0 580 0 580 -287 -2 -288 -3 -3 -578 -2 -577 -863 2 -862 3 -3 288 -2 287
580 0 580 0 -2 288 -3 287 -862 3 -863 2 0 -1155 0 -1155 -575 0 -575 0 0
-285 0 -285 575 0 575 0 0 -290 0 -290 -2595 0 -2595 0 0 290 0 290 1730 0
1730 0 0 860 0 860 -285 0 -285 0 0 -575 0 -575 -290 0 -290 0 0 1440 0 1440
290 0 290 0 0 -575 0 -575 575 0 575 0 0 -575 0 -575 285 0 285 0 0 865 0 865
-575 0 -575 0 0 575 0 575 -865 0 -865 0 0 -1730 0 -1730 -285 0 -285 0 0 575
0 575 -290 0 -290 0 0 -575 0 -575 -290 0 -290 0 0 1440 0 1440 290 0 290 0 0
-575 0 -575 290 0 290 0 0 865 0 865 -580 0 -580 0 0 290 0 290 1730 0 1730 0
0 575 0 575 290 0 290 0 0 -1155 0 -1155 285 0 285 0 0 580 0 580 290 0 290 0
0 -580 0 -580 863 2 862 3 3 288 2 287 -580 0 -580 0 0 865 0 865 290 0 290 0
0 -575 0 -575 575 0 575 0 2 -577 3 -578 287 -3 288 -2 0 2595 0 2595 -287 -2
-288 -3 -2 -575 c-2 -316 -3 -1094 -3 -1727 l0 -1153 -285 0 -285 0 0 575 0
575 -580 0 -580 0 0 290 0 290 580 0 580 0 0 1150 0 1150 288 0 c158 0 416 0
575 0 l287 -1 0 291 0 290 -575 0 -575 0 0 290 0 290 865 0 865 0 0 -580 0
-580 285 0 285 0 0 1155 0 1155 290 0 290 0 0 -575 0 -575 285 0 285 0 0 575
0 575 865 0 865 0 0 -575 0 -575 575 0 575 0 2 -577 3 -578 288 -3 287 -2 0
580 0 580 575 0 575 0 0 1150 0 1150 575 0 575 0 0 290 0 290 -575 0 -575 0 0
575 0 575 -285 0 -285 0 0 -1730 0 -1730 -865 0 -865 0 0 575 0 575 -1155 0
-1155 0 0 580 0 580 -285 0 -285 0 0 -580 0 -580 -290 0 -290 0 0 865 0 865
575 0 575 0 0 290 0 290 -575 0 -575 0 0 575 0 575 -285 0 -285 0 0 -575 0
-575 -1155 0 -1155 0 0 -1155 0 -1155 -1150 0 -1150 0 0 -285 0 -285 575 0
575 0 0 -290 0 -290 -575 0 -575 0 0 -285 0 -285 860 0 860 0 0 575 0 575
1155 0 1155 0 0 285 0 285 -575 0 -575 0 0 290 0 290 575 0 575 0 0 290 0 290
-575 0 -575 0 0 285 0 285 865 0 865 0 0 -1440 0 -1440 -1155 0 -1155 0 0
-1150 0 -1150 -290 0 -290 0 0 575 0 575 -1435 0 -1435 0 0 -290 0 -290 863 0
c474 0 991 0 1150 0 l287 0 0 -575 0 -575 575 0 575 0 0 -285 0 -285 -287 0
c-159 0 -417 0 -575 0 l-288 1 0 -1156 0 -1155 -290 0 -290 0 0 1730 0 1730
-285 0 -285 0 0 -1155 0 -1155 -575 0 -575 0 0 -575 0 -575 -1445 0 -1445 0 0
290 0 290 1155 0 1155 0 0 285 0 285 -1155 0 -1155 0 0 865 0 865 290 0 290 0
0 -575 0 -575 1440 0 1440 0 0 865 0 865 -575 0 -575 0 0 575 0 575 -865 0
-865 0 0 -290 0 -291 288 1 c158 0 416 0 575 0 l287 0 0 -575 0 -575 580 0
580 0 0 -285 0 -285 -290 0 c-159 0 -420 0 -580 0 -159 0 -418 0 -575 0 l-285
0 -2 573 -3 572 -577 3 -578 2 0 865 0 865 1730 0 1730 0 0 285 0 285 -575 0
-575 0 0 290 0 290 575 0 575 0 0 285 0 285 -575 0 -575 0 0 290 0 290 1725 0
1725 0 0 1440 0 1440 -285 0 -285 0 0 -1150 0 -1150 -1152 0 c-634 0 -1672 0
-2305 0 l-1153 0 0 -865 0 -865 290 0 291 0 -1 288 c0 158 0 416 0 575 l0 287
285 0 285 0 0 -865 0 -865 -865 0 -865 0 0 5185 0 5185 -285 0 -285 0 0
-11235z M1440 23045 l0 -285 1153 -2 1152 -3 3 -287 2 -288 -580 0 -580 0 2
-287 3 -288 578 -3 577 -2 0 -575 0 -575 285 0 285 0 0 575 0 575 288 0 c158
0 675 0 1150 0 l862 0 0 290 0 290 -1150 0 -1150 0 0 290 0 290 2595 0 2595 0
0 -580 0 -580 1438 0 c790 0 1566 0 1725 0 l287 0 0 -575 0 -575 290 0 290 0
0 865 0 865 -1730 0 -1730 0 0 290 0 290 3170 0 3170 0 0 -290 0 -290 -575 0
-575 0 0 -575 0 -575 -290 0 -290 0 0 575 0 575 -287 -2 -288 -3 -2 -860 c-2
-473 -3 -992 -3 -1152 l0 -293 -575 0 -575 0 0 -285 0 -285 578 0 577 0 0
-290 0 -290 -577 0 -578 0 0 -575 0 -575 -285 0 -285 0 0 288 c0 158 0 675 0
1150 l0 862 -1155 0 -1155 0 0 290 0 290 1153 2 1152 3 0 285 0 285 -2302 3
-2303 2 0 285 0 285 288 0 c158 0 416 0 575 0 l287 -1 0 291 0 290 -865 0
-865 0 0 -865 0 -865 1155 0 1155 0 -2 -287 -3 -288 -577 -3 -578 -2 0 -575 0
-575 -2015 0 -2015 0 0 290 0 290 575 0 575 0 0 575 0 575 290 0 290 0 0 -575
0 -575 865 0 865 0 0 285 0 285 -577 2 -578 3 -3 578 -2 577 -860 0 -860 0 0
-580 0 -580 -865 0 -865 0 0 580 0 580 -575 0 -575 0 0 288 c0 158 0 416 0
575 l1 287 -291 0 -290 0 0 -865 0 -865 575 0 575 0 0 -290 0 -290 -575 0
-575 0 0 -2015 0 -2015 865 0 865 0 0 290 0 290 -575 0 -575 0 0 283 c0 597 0
2035 0 2310 l0 287 865 0 865 0 0 -290 0 -290 -580 0 -580 0 0 -285 0 -285
1155 0 1155 0 0 -865 0 -865 -290 0 -290 0 0 575 0 575 -865 0 -865 0 0 -285
0 -285 578 -2 577 -3 3 -577 2 -578 860 0 860 0 0 1155 0 1155 865 0 865 0 0
-575 0 -575 290 0 290 0 0 575 0 575 285 0 285 0 0 -575 0 -575 290 0 290 0 0
1150 0 1150 1440 0 1440 0 0 -865 0 -865 -290 0 -290 0 0 575 0 575 -860 0
-860 0 0 -285 0 -285 575 0 575 0 0 -575 0 -575 1150 0 1150 0 0 -290 0 -290
-575 0 -575 0 0 -865 0 -865 1150 0 1150 0 0 -287 c0 -159 0 -417 0 -575 l-1
-288 291 0 290 0 0 865 0 866 -287 -1 c-159 0 -676 0 -1150 0 l-863 0 0 285 0
285 1150 0 1150 0 0 290 0 290 -575 0 -575 0 0 865 0 865 575 0 575 0 0 1150
0 1150 575 0 575 0 0 575 0 575 575 0 575 0 0 580 0 580 1445 0 1445 0 0 -290
0 -290 -580 0 -580 0 2 -287 3 -288 1438 -2 1437 -3 0 290 0 290 -575 0 -575
0 0 290 0 290 865 0 865 0 0 -865 0 -865 -575 0 -575 0 0 -290 0 -290 575 0
575 0 0 -2015 0 -2015 -575 0 -575 0 0 -290 0 -290 575 0 575 0 0 -1440 0
-1440 -290 0 -290 0 0 1155 0 1155 -285 0 -285 0 0 -1155 0 -1155 -290 0 -290
0 0 1155 0 1155 -285 0 -285 0 0 -2305 0 -2305 -290 0 -290 0 0 575 0 575
-575 0 -575 0 0 290 0 290 575 0 575 0 0 285 0 285 -575 0 -575 0 0 290 0 290
575 0 575 0 0 865 0 865 -287 -2 -288 -3 -3 -577 -2 -578 -285 0 -285 0 0 865
0 865 1150 0 1150 0 0 290 0 290 -575 0 -575 0 0 290 0 290 575 0 575 0 0
1150 0 1150 290 0 290 0 0 -1150 0 -1150 285 0 285 0 0 1435 0 1435 -575 0
-575 0 0 580 0 580 -285 0 -285 0 0 -1155 0 -1155 -290 0 -290 0 0 1155 0
1155 -575 0 -575 0 0 575 0 575 -290 0 -290 0 0 -575 0 -575 -575 0 -575 0 0
-865 0 -865 865 0 865 0 0 285 0 285 -577 2 -578 3 -3 288 -2 287 865 0 865 0
0 -1150 0 -1150 580 0 580 0 0 -290 0 -290 -580 0 -580 0 0 -575 0 -575 -285
0 -285 0 0 1150 0 1150 -1155 0 -1155 0 0 575 0 575 -285 0 -285 0 0 -1150 0
-1150 -580 0 -580 0 0 -285 0 -285 865 0 865 0 0 575 0 575 865 0 865 0 0
-865 0 -865 -290 0 -290 0 0 575 0 575 -285 0 -285 0 0 -865 0 -865 575 0 575
0 0 -865 0 -865 -575 0 -575 0 0 -860 0 -860 285 0 285 0 0 575 0 575 290 0
290 0 0 -865 0 -865 -1150 0 -1150 0 0 -290 0 -291 288 1 c158 0 416 0 575 0
l287 0 0 -862 0 -863 -290 0 -290 0 0 578 0 577 -1150 0 -1150 0 0 575 0 575
-575 0 -575 0 0 288 c0 158 0 416 0 575 l1 287 -291 0 -290 0 0 -865 0 -866
288 1 c158 0 416 0 575 0 l287 0 0 -285 0 -285 -865 0 -865 0 0 575 0 575
-285 0 -285 0 0 -575 0 -575 -575 0 -575 0 0 -2595 0 -2595 575 0 575 0 0
-285 0 -285 -575 0 -575 0 0 -290 0 -290 860 0 860 0 0 865 0 865 -575 0 -575
0 0 865 0 865 290 0 290 0 0 -575 0 -575 575 0 575 0 0 -1155 0 -1155 1150 0
1150 0 0 -287 c0 -159 0 -676 0 -1150 l0 -863 290 0 290 0 0 575 0 575 290 0
290 0 0 -575 0 -575 1440 0 1440 0 0 285 0 285 -580 0 -580 0 0 575 0 575
-285 0 -285 0 0 -575 0 -575 -290 0 -290 0 0 1155 0 1155 -285 0 -285 0 0
-580 0 -580 -290 0 -290 0 0 865 0 865 865 0 865 0 0 -575 0 -575 285 0 285 0
0 865 0 865 -575 0 -575 0 0 290 0 290 865 0 865 0 0 -1730 0 -1730 290 0 290
0 0 1150 0 1150 285 0 285 0 0 -1725 0 -1725 865 0 865 0 0 285 0 285 -575 0
-575 0 0 1730 0 1730 -575 0 -575 0 -2 2303 -3 2302 -287 3 -288 2 0 -1730 0
-1730 -1730 0 -1730 0 0 -285 0 -285 580 0 580 0 0 -290 0 -290 -577 -2 -578
-3 -2 -285 c-2 -157 -3 -414 -3 -572 l0 -288 -285 0 -285 0 0 1440 0 1440
1150 0 1150 0 0 285 0 285 -1440 0 -1440 0 0 -1725 0 -1725 -285 0 -285 0 0
288 c0 158 0 934 0 1725 l0 1437 -290 0 -290 0 0 -575 0 -575 -290 0 -290 0 0
575 0 575 -575 0 -575 0 0 865 0 865 1440 0 1440 0 0 -285 0 -285 -287 0
c-159 0 -676 0 -1150 0 l-863 0 0 -290 0 -290 1440 0 1440 0 0 575 0 575 865
0 865 0 0 -285 0 -285 -287 0 c-159 0 -418 -1 -578 -3 l-290 -2 -3 -287 -2
-288 1155 0 1155 0 0 -575 0 -575 285 0 285 0 0 1725 0 1725 578 2 c317 2 706
2 865 0 l287 -2 0 -575 0 -575 580 0 580 0 0 -285 0 -285 -292 0 c-161 0 -421
-1 -578 -3 l-285 -2 -3 -287 -2 -288 580 0 580 0 0 -290 0 -290 -580 0 -580 0
0 -285 0 -285 580 0 580 0 0 -290 0 -290 -580 0 -580 0 0 -285 0 -285 1440 0
1440 0 0 860 0 860 -285 0 -285 0 0 -575 0 -575 -290 0 -290 0 0 2595 0 2595
290 0 290 0 0 -1155 0 -1155 285 0 285 0 0 1155 0 1155 290 0 290 0 0 -1442 0
-1443 -575 3 -575 2 0 -290 0 -290 575 0 575 0 0 -1440 0 -1440 -1150 0 -1150
0 0 -1440 0 -1440 860 0 860 0 0 285 0 285 -575 0 -575 0 0 290 0 290 575 0
575 0 0 290 0 290 -575 0 -575 0 0 285 0 285 865 0 865 0 0 -1440 0 -1440
-575 0 -575 0 0 -285 0 -285 575 0 575 0 0 -580 0 -580 288 2 287 3 2 11233 3
11232 -10660 0 -10660 0 0 -285z"/>
</g>
</svg>
