<?xml version="1.0" standalone="no"?>
<!DOCTYPE svg PUBLIC "-//W3C//DTD SVG 20010904//EN"
 "http://www.w3.org/TR/2001/REC-SVG-20010904/DTD/svg10.dtd">
<svg version="1.0" xmlns="http://www.w3.org/2000/svg"
 width="2362.000000pt" height="2362.000000pt" viewBox="0 0 2362.000000 2362.000000"
 preserveAspectRatio="xMidYMid meet">
<metadata>
Created by potrace 1.16, written by Peter Selinger 2001-2019
</metadata>
<g transform="translate(0.000000,2362.000000) scale(0.100000,-0.100000)"
fill="#000000" stroke="none">
<path d="M290 12095 l0 -11235 10655 0 10655 0 0 865 0 865 -285 0 -285 0 0
-575 0 -575 -865 0 -865 0 0 290 0 290 575 0 575 0 0 285 0 285 -575 0 -575 0
0 290 0 290 1150 0 1150 0 0 865 0 865 -285 0 -285 0 0 -580 0 -580 -1730 0
-1730 0 0 -285 0 -285 575 0 575 0 0 -290 0 -290 -865 0 -865 0 0 1155 0 1155
-285 0 -285 0 0 -1155 0 -1155 -575 0 -575 0 0 -285 0 -285 1725 0 1725 0 0
-290 0 -290 -8930 0 -8930 0 0 2015 0 2015 290 0 290 0 0 -1150 0 -1150 575 0
575 0 0 -290 0 -290 -575 0 -575 0 0 -285 0 -285 865 0 865 0 0 1150 0 1150
290 0 290 0 0 -1150 0 -1150 285 0 285 0 0 1150 0 1150 290 0 290 0 0 -1150 0
-1150 4895 0 4895 0 0 285 0 285 -575 0 -575 0 0 575 0 575 -290 0 -290 0 0
-575 0 -575 -2590 0 -2590 0 0 290 0 290 1725 0 1725 0 0 1150 0 1150 290 0
290 0 0 -1150 0 -1150 290 0 291 0 -1 287 c0 159 0 417 0 576 l0 287 575 0
575 0 0 290 0 290 -575 0 -575 0 0 285 0 285 1150 0 1150 0 0 865 0 865 -290
0 -291 0 1 -288 c0 -158 0 -416 0 -574 l0 -288 -285 0 -285 0 0 865 0 865 575
0 575 0 0 285 0 285 -1730 0 -1730 0 0 290 0 290 580 0 580 0 0 862 c0 475 0
992 0 1151 l0 287 285 0 285 0 0 -1150 0 -1150 865 0 865 0 0 290 0 291 -287
-1 c-159 0 -417 0 -575 0 l-288 0 0 285 0 285 575 0 575 0 0 290 0 290 -575 0
-575 0 0 285 0 285 283 0 c597 0 2035 0 2310 0 l287 0 0 -285 0 -285 -575 0
-575 0 0 -290 0 -290 1150 0 1150 0 0 -285 0 -285 -287 0 c-159 0 -676 0
-1150 0 l-863 0 0 -865 0 -865 575 0 575 0 0 -290 0 -290 -575 0 -575 0 0
-285 0 -285 575 0 575 0 0 -290 0 -290 -575 0 -575 0 0 -575 0 -575 -577 -2
-578 -3 0 -285 0 -285 578 -3 577 -2 0 -290 0 -290 -580 0 -580 0 0 -285 0
-285 865 0 865 0 0 1150 0 1150 575 0 575 0 2 577 3 578 288 3 287 2 0 -1155
0 -1155 290 0 290 0 0 1440 0 1440 -580 0 -580 0 0 575 0 575 -575 0 -575 0 0
290 0 290 1440 0 1440 0 0 -290 0 -290 -575 0 -575 0 0 -285 0 -285 575 0 575
0 2 -1152 3 -1153 288 -3 287 -2 0 1155 0 1155 290 0 290 0 0 -1440 0 -1440
-577 -2 -578 -3 -3 -287 -2 -288 865 0 865 0 0 1730 0 1730 575 0 575 0 0 865
0 865 -285 0 -285 0 0 -580 0 -580 -290 0 -290 0 0 1155 0 1155 -862 -2 -863
-3 -3 -287 -2 -288 580 0 580 0 0 -865 0 -865 -290 0 -290 0 -2 577 -3 578
-285 2 c-157 2 -414 3 -572 3 l-288 0 -2 573 -3 572 -577 3 -578 2 0 285 0
285 578 0 c317 0 1096 0 1730 0 l1152 0 0 1155 0 1155 575 0 575 0 0 285 0
285 -575 0 -575 0 0 290 0 290 575 0 575 0 0 290 0 290 -575 0 -575 0 0 1150
0 1150 -285 0 -285 0 0 -575 0 -575 -580 0 -580 0 2 -287 3 -288 578 -3 577
-2 0 -285 0 -285 -1445 0 -1445 0 0 285 0 285 578 2 577 3 3 1438 2 1437 -290
0 -290 0 0 -575 0 -575 -290 0 -290 0 0 865 0 865 865 0 865 0 0 -1150 0
-1150 290 0 290 0 0 1150 0 1150 290 0 290 0 0 -575 0 -575 575 0 575 0 0
-575 0 -575 285 0 285 0 0 860 0 860 -575 0 -575 0 0 290 0 290 575 0 575 0 0
285 0 285 -575 0 -575 0 0 580 0 580 -285 0 -285 0 -2 -577 -3 -578 -287 -3
-288 -2 0 865 0 865 288 0 c158 0 416 0 575 0 l287 -1 0 291 0 290 -865 0
-865 0 0 -1155 0 -1155 -285 0 -285 0 0 1155 0 1155 -1440 0 -1440 0 0 -290 0
-290 863 0 c474 0 991 0 1150 0 l287 0 0 -865 0 -865 -2590 0 -2590 0 0 290 0
290 575 0 575 0 0 290 0 290 -1155 0 -1155 0 0 285 0 285 578 0 c317 0 836 1
1152 3 l575 2 3 288 2 287 -1440 0 -1440 0 0 -865 0 -865 575 0 575 0 0 -865
0 -865 -290 0 -290 0 0 575 0 575 -860 0 -860 0 0 -285 0 -285 575 0 575 0 0
-575 0 -575 1440 0 1440 0 0 285 0 285 -575 0 -575 0 0 290 0 290 1440 0 1440
0 0 -290 0 -290 -580 0 -580 0 0 -860 0 -860 290 0 290 0 0 575 0 575 575 0
575 0 0 575 0 575 290 0 290 0 0 -865 0 -865 -575 0 -575 0 0 -285 0 -285
1150 0 1150 0 0 -290 0 -290 -1150 0 -1150 0 0 -290 0 -290 575 0 575 0 0
-285 0 -285 -1152 -2 c-634 -2 -1282 -2 -1440 0 l-288 2 0 285 0 285 575 0
575 0 0 290 0 290 -575 0 -575 0 0 575 0 575 -3170 0 -3170 0 0 -865 0 -865
288 2 287 3 3 578 2 577 285 0 285 0 0 -865 0 -865 -575 0 -575 0 0 -290 0
-290 575 0 575 0 0 -287 c0 -159 0 -417 0 -575 l-1 -288 866 0 865 0 0 285 0
285 -575 0 -575 0 0 1445 0 1445 2015 0 2015 0 0 -290 0 -290 -575 0 -575 0 0
-290 0 -290 575 0 575 0 0 -575 0 -575 575 0 575 0 0 -290 0 -290 -575 0 -575
0 0 -285 0 -285 865 0 865 0 0 575 0 575 865 0 865 0 0 -575 0 -575 285 0 285
0 0 575 0 575 290 0 290 0 0 -865 0 -865 -865 0 -865 0 0 575 0 575 -285 0
-285 0 0 -575 0 -575 -580 0 -580 0 0 -285 0 -285 2020 0 2020 0 0 575 0 575
575 0 575 0 0 285 0 285 -575 0 -575 0 0 290 0 290 865 0 865 0 0 -1440 0
-1440 -290 0 -290 0 0 575 0 575 -290 0 -290 0 0 -575 0 -575 -3165 0 -3165 0
0 290 0 290 575 0 575 0 0 285 0 285 -865 0 -865 0 0 -1150 0 -1150 -290 0
-290 0 0 1440 0 1440 580 0 580 0 0 285 0 285 -580 0 -580 0 0 290 0 290 580
0 580 0 -2 288 -3 287 -577 3 -578 2 0 575 0 575 -285 0 -285 0 0 -575 0 -575
-290 0 -290 0 0 575 0 575 -285 0 -285 0 0 -865 0 -865 575 0 575 0 0 -1440 0
-1440 -865 0 -865 0 0 290 0 290 575 0 575 0 0 285 0 285 -1150 0 -1150 0 0
575 0 575 -290 0 -290 0 0 -575 0 -575 -290 0 -290 0 0 2305 0 2305 -285 0
-285 0 0 -575 0 -575 -290 0 -290 0 0 575 0 575 -575 0 -575 0 0 1440 0 1440
290 0 290 0 0 -1150 0 -1150 2590 0 2590 0 0 285 0 285 -575 0 -575 0 0 575 0
575 -290 0 -290 0 0 -575 0 -575 -1440 0 -1440 0 0 865 0 865 290 0 290 0 0
-575 0 -575 285 0 285 0 0 865 0 865 -575 0 -575 0 0 285 0 285 578 0 c317 0
836 1 1152 3 l575 2 3 288 2 287 -1440 0 -1440 0 0 -575 0 -575 -290 0 -290 0
0 575 0 575 -285 0 -285 0 0 -1730 0 -1730 -1155 0 -1155 0 0 -285 0 -285
1155 0 1155 0 0 -1730 0 -1730 860 0 860 0 0 290 0 290 -575 0 -575 0 0 865 0
865 290 0 290 0 0 -580 0 -580 575 0 575 0 0 -1440 0 -1440 -575 0 -575 0 0
-285 0 -285 1150 0 1150 0 0 -290 0 -290 -1150 0 -1150 0 0 -865 0 -865 1150
0 1150 0 0 -285 0 -285 -282 0 c-156 0 -804 -1 -1441 -3 l-1157 -2 0 578 0
577 -285 0 -285 0 0 -575 0 -575 -290 0 -290 0 0 575 0 575 -865 0 -865 0 0
-2015 0 -2015 290 0 290 0 0 1438 c0 790 0 1566 0 1725 l0 287 285 0 285 0 0
-575 0 -575 580 0 580 0 0 -290 0 -290 -580 0 -580 0 0 -860 0 -860 865 0 865
0 0 285 0 285 -575 0 -575 0 0 290 0 290 575 0 575 0 0 575 0 575 290 0 290 0
0 -575 0 -575 860 0 860 0 0 285 0 285 -575 0 -575 0 0 290 0 290 865 0 865 0
0 -865 0 -865 -1150 0 -1150 0 0 -865 0 -865 285 0 285 0 0 580 0 580 1155 0
1155 0 0 575 0 575 1150 0 1150 0 0 285 0 285 -1150 0 -1150 0 0 1155 0 1155
-1155 0 -1155 0 0 285 0 285 578 0 c317 0 836 1 1152 3 l575 2 3 578 2 577
285 0 285 0 2 -577 3 -578 865 -2 c476 -2 994 -3 1153 -3 l287 0 0 -575 0
-575 575 0 575 0 0 -285 0 -285 -282 0 c-156 0 -545 -1 -866 -3 l-582 -2 0
578 0 577 -862 -2 -863 -3 -2 -862 -3 -863 290 0 290 0 0 575 0 575 290 0 290
0 0 -575 0 -575 575 0 575 0 0 -1150 0 -1150 285 0 285 0 0 575 0 575 290 0
290 0 0 -575 0 -575 290 0 290 0 0 575 0 575 285 0 285 0 0 -865 0 -865 -1150
0 -1150 0 0 -575 0 -575 -290 0 -290 0 0 1150 0 1150 -285 0 -285 0 0 -1440 0
-1440 575 0 575 0 0 -290 0 -290 -865 0 -865 0 0 1730 0 1730 -290 0 -291 0 1
-288 c0 -158 0 -416 0 -574 l0 -288 -1150 0 -1150 0 0 -865 0 -865 285 0 285
0 0 575 0 575 865 0 865 0 0 -865 0 -865 -285 0 -285 0 -2 578 -3 577 -287 3
-288 2 0 -1155 0 -1155 -865 0 -865 0 0 290 0 290 575 0 575 0 0 285 0 285
-575 0 -575 0 0 580 0 580 -575 0 -575 0 0 575 0 575 -285 0 -285 0 0 -575 0
-575 -577 -2 -578 -3 -3 -577 -2 -578 -285 0 -285 0 -2 578 c-2 317 -2 706 0
865 l2 287 575 0 575 0 0 290 0 290 -1155 0 -1155 0 0 2590 0 2590 578 0 c317
0 1096 0 1730 0 l1152 0 0 290 0 290 -1150 0 -1150 0 0 290 0 290 1150 0 1150
0 0 285 0 285 -1150 0 -1150 0 0 575 0 575 -290 0 -290 0 0 -1150 0 -1150
-290 0 -290 0 0 2015 0 2015 290 0 290 0 0 -575 0 -575 290 0 291 0 -1 288 c0
158 0 416 0 575 l0 287 285 0 285 0 0 -1150 0 -1150 1440 0 1440 0 0 285 0
285 -1150 0 -1150 0 0 1155 0 1155 -1155 0 -1155 0 0 290 0 290 1155 0 1155 0
0 285 0 285 -1155 0 -1155 0 0 865 0 865 1155 0 1155 0 0 285 0 285 -1153 2
-1152 3 -3 288 -2 287 1155 0 1155 0 0 290 0 290 -1155 0 -1155 0 0 285 0 285
578 2 577 3 3 288 2 287 -580 0 -580 0 0 575 0 575 -285 0 -285 0 0 -11235z
M1440 23045 l0 -285 575 0 575 0 2 -577 3 -578 285 0 285 0 3 578 2 577 2590
0 2590 0 2 -577 3 -578 288 -3 287 -2 0 580 0 580 290 0 290 0 0 -865 0 -865
-1155 0 -1155 0 0 -865 0 -865 290 0 290 0 0 575 0 575 1150 0 1150 0 0 1155
0 1155 2015 0 2015 0 0 -292 c0 -161 1 -680 3 -1153 l2 -860 1438 -3 1437 -2
0 290 0 290 -1150 0 -1150 0 0 865 0 865 3170 0 3170 0 0 -1155 0 -1155 285 0
285 0 0 1155 0 1155 290 0 290 0 0 -3170 0 -3170 -575 0 -575 0 0 -290 0 -290
575 0 575 0 0 -1440 0 -1440 -575 0 -575 0 0 -285 0 -285 575 0 575 0 0 -865
0 -865 -290 0 -290 0 0 575 0 575 -285 0 -285 0 0 -865 0 -865 575 0 575 0 0
-1440 0 -1440 -575 0 -575 0 0 -285 0 -285 575 0 575 0 0 -290 0 -290 -575 0
-575 0 0 -290 0 -290 575 0 575 0 0 -2305 0 -2305 288 2 287 3 2 11233 3
11232 -10660 0 -10660 0 0 -285z"/>
</g>
</svg>
