<?xml version="1.0" standalone="no"?>
<!DOCTYPE svg PUBLIC "-//W3C//DTD SVG 20010904//EN"
 "http://www.w3.org/TR/2001/REC-SVG-20010904/DTD/svg10.dtd">
<svg version="1.0" xmlns="http://www.w3.org/2000/svg"
 width="2362.000000pt" height="2362.000000pt" viewBox="0 0 2362.000000 2362.000000"
 preserveAspectRatio="xMidYMid meet">
<metadata>
Created by potrace 1.16, written by Peter Selinger 2001-2019
</metadata>
<g transform="translate(0.000000,2362.000000) scale(0.100000,-0.100000)"
fill="#000000" stroke="none">
<path d="M290 12095 l0 -11235 10655 0 10655 0 0 290 0 290 -575 0 -575 0 0
575 0 575 -285 0 -285 0 0 -575 0 -575 -290 0 -290 0 0 575 0 575 -865 0 -865
0 0 -285 0 -285 575 0 575 0 0 -290 0 -290 -1440 0 -1440 0 0 290 0 290 575 0
575 0 0 860 0 860 -285 0 -285 0 0 -575 0 -575 -575 0 -575 0 0 -575 0 -575
-290 0 -290 0 0 575 0 575 -290 0 -290 0 2 -575 3 -575 -862 0 -863 0 0 290 0
290 575 0 575 0 0 575 0 575 575 0 575 0 0 285 0 285 -575 0 -575 0 0 290 0
290 575 0 575 0 0 290 0 290 -862 -2 -863 -3 -3 -1152 -2 -1153 -575 0 -575 0
0 -575 0 -575 -290 0 -290 0 0 575 0 575 -285 0 -285 0 0 -575 0 -575 -290 0
-290 0 0 575 0 575 -285 0 -285 0 0 -575 0 -575 -2020 0 -2020 0 0 865 0 865
290 0 290 0 0 -575 0 -575 1440 0 1440 0 0 285 0 285 -1155 0 -1155 0 0 575 0
575 -860 0 -860 0 0 -575 0 -575 -290 0 -290 0 0 1730 0 1730 -285 0 -285 0
-2 -1152 -3 -1153 -287 -3 -288 -2 0 580 0 580 -287 -2 -288 -3 -3 -577 -2
-578 -575 0 -575 0 0 -285 0 -285 575 0 575 0 0 -575 0 -575 290 0 290 0 0
575 0 575 290 0 290 0 0 -575 0 -575 575 0 575 0 0 -290 0 -290 -1440 0 -1440
0 0 288 c0 158 0 416 0 575 l1 287 -291 0 -290 0 0 -575 0 -575 -290 0 -290 0
0 1440 0 1440 580 0 580 0 -2 287 -3 288 -577 3 -578 2 0 285 0 285 1155 0
1155 0 0 1155 0 1155 290 0 290 0 0 -575 0 -575 860 0 860 0 0 285 0 285 -575
0 -575 0 0 290 0 290 865 0 865 0 0 -865 0 -865 -575 0 -575 0 0 -290 0 -290
575 0 575 0 0 -285 0 -285 -575 0 -575 0 0 -290 0 -290 860 0 860 0 0 575 0
575 290 0 290 0 0 -575 0 -575 290 0 290 0 0 575 0 575 285 0 285 0 0 -865 0
-865 -575 0 -575 0 0 -285 0 -285 2015 0 2015 0 0 285 0 285 -1150 0 -1150 0
0 1445 0 1445 865 0 865 0 0 -290 0 -290 -575 0 -575 0 0 -865 0 -865 285 0
285 0 0 575 0 575 575 0 575 0 0 580 0 580 290 0 290 0 0 -865 0 -865 -575 0
-575 0 0 -290 0 -290 575 0 575 0 0 -575 0 -575 290 0 290 0 0 863 c0 474 0
991 0 1150 l0 287 1440 0 1440 0 0 -1150 0 -1150 285 0 285 0 0 575 0 575 865
0 865 0 0 -575 0 -575 1730 0 1730 0 0 -575 0 -575 285 0 285 0 0 1440 0 1440
-285 0 -285 0 0 -580 0 -580 -1440 0 -1440 0 0 290 0 290 1150 0 1150 0 0 290
0 290 -575 0 -575 0 0 285 0 285 575 0 575 0 0 580 0 580 290 0 290 0 0 -580
0 -580 285 0 285 0 0 1440 0 1440 -285 0 -285 0 0 -575 0 -575 -290 0 -290 0
0 1155 0 1155 -285 0 -285 0 0 -1730 0 -1730 -580 0 -580 0 0 -575 0 -575
-865 0 -865 0 0 285 0 285 578 2 577 3 3 578 2 577 575 0 575 0 0 285 0 285
-575 0 -575 0 0 290 0 290 575 0 575 0 0 285 0 285 -865 0 -865 0 0 -1150 0
-1150 -290 0 -290 0 0 1440 0 1440 580 0 580 0 0 1440 0 1440 -290 0 -290 0 0
-1150 0 -1150 -290 0 -290 0 0 575 0 575 -860 0 -860 0 0 -290 0 -290 575 0
575 0 0 -2590 0 -2590 -290 0 -290 0 0 575 0 575 -1725 0 -1725 0 0 288 c0
158 0 416 0 574 l1 288 -581 0 -580 0 0 575 0 575 -285 0 -285 0 0 -575 0
-575 -865 0 -865 0 0 290 0 290 575 0 575 0 0 575 0 575 1155 0 1155 0 -2 288
-3 287 -1437 2 -1438 3 0 -580 0 -580 -290 0 -290 0 -2 577 -3 578 -285 0
-285 0 -3 -1152 -2 -1153 -575 0 -575 0 0 -285 0 -285 575 0 575 0 0 -290 0
-290 -865 0 -865 0 0 1150 0 1150 -575 0 -575 0 0 580 0 580 -285 0 -285 0 0
-580 0 -580 -1155 0 -1155 0 0 -1150 0 -1150 -285 0 -285 0 0 288 c0 158 0
416 0 575 l1 287 -291 0 -290 0 0 -575 0 -575 -290 0 -290 0 0 865 0 865 580
0 580 0 -3 863 -2 862 -285 0 -285 0 -3 -577 -2 -578 -290 0 -290 0 0 865 0
865 578 2 577 3 0 285 0 285 -577 3 -578 2 0 3745 0 3745 290 0 290 0 0 -575
0 -575 290 0 290 0 0 575 0 575 865 0 865 0 0 -290 0 -290 -580 0 -580 0 0
-575 0 -575 -575 0 -575 0 0 -290 0 -290 865 0 865 0 0 580 0 580 865 0 865 0
0 -290 0 -290 -575 0 -575 0 0 -290 0 -290 575 0 575 0 0 -285 0 -285 -577 0
c-318 0 -837 -1 -1153 -3 l-575 -2 -3 -862 -2 -863 290 0 290 0 0 575 0 575
290 0 290 0 0 -1150 0 -1150 1150 0 1150 0 0 -290 0 -290 -575 0 -575 0 0
-290 0 -291 288 1 c158 0 416 0 575 0 l287 0 0 -285 0 -285 -865 0 -865 0 0
575 0 575 -575 0 -575 0 0 575 0 575 -290 0 -290 0 0 -575 0 -575 -285 0 -285
0 0 288 c0 158 -1 935 -3 1727 l-2 1440 -287 3 -288 2 0 -2020 0 -2020 863 0
c474 0 994 0 1155 0 l292 0 0 -860 0 -860 -290 0 -290 0 0 575 0 575 -290 0
-290 0 0 -865 0 -865 865 0 865 0 0 575 0 575 865 0 865 0 0 -575 0 -575 285
0 285 0 0 2305 0 2305 580 0 580 0 -2 863 -3 862 -287 3 -288 2 0 -580 0 -580
-1150 0 -1150 0 0 -285 0 -285 575 0 575 0 0 -290 0 -290 -865 0 -865 0 0 865
0 865 1150 0 1150 0 0 290 0 290 -575 0 -575 0 0 285 0 285 2595 0 2595 0 0
-865 0 -865 -865 0 -865 0 0 290 0 290 575 0 575 0 0 290 0 290 -862 -3 -863
-2 -2 -862 -3 -863 1155 0 1155 0 0 -290 0 -290 -575 0 -575 0 0 -285 0 -285
1150 0 1150 0 0 -290 0 -290 -1440 0 -1440 0 0 575 0 575 -865 0 -865 0 2
-862 3 -863 285 0 285 0 3 578 2 577 285 0 285 0 2 -577 c2 -318 2 -707 0
-865 l-2 -288 -575 0 -575 0 0 -1440 0 -1440 290 0 290 0 0 1150 0 1150 575 0
575 0 0 575 0 575 290 0 290 0 0 -575 0 -575 1725 0 1725 0 0 -865 0 -865
-575 0 -575 0 0 -285 0 -285 575 0 575 0 0 -575 0 -575 865 0 865 0 0 285 0
285 -575 0 -575 0 0 290 0 290 865 0 865 0 0 -575 0 -575 285 0 285 0 0 1440
0 1440 -285 0 -285 0 0 -580 0 -580 -865 0 -865 0 0 290 0 290 575 0 575 0 0
290 0 291 -287 -1 c-159 0 -417 0 -575 0 l-288 0 0 285 0 285 575 0 575 0 0
575 0 575 288 0 c158 0 416 0 575 0 l287 -1 0 581 0 580 290 0 290 0 0 -580 0
-580 285 0 285 0 0 1155 0 1155 290 0 290 0 0 -575 0 -575 575 0 575 0 0
-1730 0 -1730 290 0 290 0 0 1730 0 1730 290 0 290 0 0 -1155 0 -1155 575 0
575 0 0 -575 0 -575 285 0 285 0 0 865 0 865 -575 0 -575 0 0 285 0 285 288 0
c158 0 416 0 575 0 l287 -1 0 2021 0 2020 -285 0 -285 0 0 -1730 0 -1730 -290
0 -290 0 0 575 0 575 -1150 0 -1150 0 0 290 0 290 1150 0 1150 0 0 1730 0
1730 290 0 290 0 0 -580 0 -580 285 0 285 0 0 865 0 865 -575 0 -575 0 0 2305
0 2305 -2015 0 -2015 0 0 -290 0 -290 1153 0 c633 0 1412 0 1730 0 l577 0 0
-2015 0 -2015 -580 0 -580 0 0 -285 0 -285 578 -2 577 -3 3 -1442 2 -1443
-290 0 -290 0 0 1155 0 1155 -290 0 -290 0 0 -575 0 -575 -285 0 -285 0 0
1150 0 1150 -290 0 -290 0 0 -1150 0 -1150 -290 0 -290 0 0 2300 0 2300 -285
0 -285 0 0 -2300 0 -2300 -290 0 -290 0 0 575 0 575 -862 -2 -863 -3 0 -285 0
-285 578 -3 577 -2 0 -1150 0 -1150 285 0 285 0 0 575 0 575 1440 0 1440 0 0
-290 0 -290 -1150 0 -1150 0 0 -575 0 -575 -575 0 -575 0 0 -575 0 -575 -580
0 -581 0 1 -287 c0 -159 0 -417 0 -575 l0 -288 -2015 0 -2015 0 0 285 0 285
288 0 c158 0 935 1 1727 3 l1440 2 3 288 2 287 -575 0 -575 0 0 288 c0 158 0
416 0 575 l1 287 -581 0 -580 0 0 290 0 290 580 0 580 0 -3 863 -2 862 -287 3
-288 2 0 -580 0 -580 -290 0 -290 0 0 1155 0 1155 -575 0 -575 0 0 290 0 290
865 0 865 0 0 -580 0 -580 288 2 287 3 3 578 2 577 285 0 285 0 0 -1730 0
-1730 290 0 290 0 0 575 0 575 285 0 285 0 0 -282 c0 -156 1 -545 3 -866 l2
-582 -577 0 -578 0 0 -285 0 -285 865 0 865 0 0 1440 0 1441 -287 -1 c-159 0
-417 0 -575 0 l-288 0 0 1150 0 1150 -575 0 -575 0 0 288 c0 274 0 1712 0
2310 l0 282 1150 0 1150 0 0 865 0 865 -287 -2 -288 -3 -2 -285 c-2 -157 -3
-414 -3 -572 l0 -288 -2300 0 -2300 0 0 -290 0 -290 1150 0 1150 0 0 -1440 0
-1440 -1150 0 -1150 0 0 -575 0 -575 -865 0 -865 0 0 290 0 290 575 0 575 0 0
285 0 285 -1155 0 -1155 0 0 865 0 865 290 0 290 0 0 -575 0 -575 865 0 865 0
0 285 0 285 -575 0 -575 0 0 575 0 575 -1155 0 -1155 0 0 580 0 580 -285 0
-285 0 0 -865 0 -865 575 0 575 0 0 -290 0 -290 -575 0 -575 0 0 -285 0 -285
575 0 575 0 0 -575 0 -575 575 0 575 0 0 -290 0 -290 -865 0 -865 0 0 575 0
575 -575 0 -575 0 0 575 0 575 -1730 0 -1730 0 0 2305 0 2305 -285 0 -285 0 0
-11235z M1440 21315 l0 -2015 290 0 291 0 -1 288 c0 158 0 416 0 575 l0 287
285 0 285 0 0 -575 0 -575 865 0 865 0 0 865 0 865 -285 0 -285 0 -2 -577 -3
-578 -287 -3 -288 -2 0 580 0 580 -575 0 -575 0 0 285 0 285 288 0 c158 0 415
1 572 3 l285 2 3 288 2 287 -575 0 -575 0 0 290 0 290 863 -2 862 -3 3 -577 2
-578 1435 0 1435 0 0 290 0 290 -1150 0 -1150 0 0 290 0 290 1440 0 1440 0 0
-865 0 -865 -575 0 -575 0 0 -290 0 -290 1150 0 1150 0 0 -287 c0 -159 0 -417
0 -575 l-1 -288 1156 0 1155 0 0 -290 0 -290 -575 0 -575 0 0 -285 0 -285 860
0 860 0 0 860 0 860 -1150 0 -1150 0 0 580 0 580 -575 0 -575 0 0 865 0 865
285 0 285 0 2 -577 3 -578 288 -3 287 -2 0 580 0 580 2015 0 2015 0 0 -290 0
-290 -1725 0 -1725 0 0 -290 0 -290 2013 3 2012 2 3 578 2 577 865 0 865 0 0
-1445 0 -1445 -1155 0 -1155 0 0 -285 0 -285 1155 0 1155 0 0 -865 0 -865
-290 0 -290 0 0 575 0 575 -865 0 -865 0 0 -285 0 -285 578 0 577 0 -3 -575
-2 -575 865 0 865 0 0 1725 0 1725 865 0 865 0 0 -1150 0 -1150 290 0 290 0 0
575 0 575 285 0 285 0 0 -575 0 -575 290 0 290 0 0 1440 0 1440 -287 -2 -288
-3 -3 -577 -2 -578 -285 0 -285 0 -2 578 -3 577 -1152 3 -1153 2 0 865 0 865
2595 0 2595 0 0 -580 0 -580 285 0 285 0 0 580 0 580 290 0 290 0 0 -2020 0
-2020 -290 0 -290 0 0 1155 0 1155 -285 0 -285 0 0 -1440 0 -1440 575 0 575 0
0 -8645 0 -8645 288 2 287 3 2 11233 3 11232 -10660 0 -10660 0 0 -2015z"/>
</g>
</svg>
