<?xml version="1.0" standalone="no"?>
<!DOCTYPE svg PUBLIC "-//W3C//DTD SVG 20010904//EN"
 "http://www.w3.org/TR/2001/REC-SVG-20010904/DTD/svg10.dtd">
<svg version="1.0" xmlns="http://www.w3.org/2000/svg"
 width="2362.000000pt" height="2362.000000pt" viewBox="0 0 2362.000000 2362.000000"
 preserveAspectRatio="xMidYMid meet">
<metadata>
Created by potrace 1.16, written by Peter Selinger 2001-2019
</metadata>
<g transform="translate(0.000000,2362.000000) scale(0.100000,-0.100000)"
fill="#000000" stroke="none">
<path d="M290 12095 l0 -11235 10655 0 10655 0 0 290 0 290 -1150 0 -1150 0 0
290 0 290 1150 0 1150 0 0 2590 0 2590 -860 0 -860 0 0 -285 0 -285 575 0 575
0 0 -290 0 -290 -575 0 -575 0 0 -865 0 -865 285 0 285 0 0 575 0 575 290 0
290 0 0 -1440 0 -1440 -290 0 -290 0 0 575 0 575 -575 0 -575 0 0 2020 0 2020
575 0 575 0 0 1150 0 1150 290 0 290 0 0 -1150 0 -1150 285 0 285 0 0 1440 0
1440 -1437 -2 -1438 -3 -3 -287 -2 -288 580 0 580 0 0 -865 0 -865 -1445 0
-1445 0 0 290 0 290 1155 0 1155 0 -2 288 -3 287 -285 2 c-157 2 -414 3 -572
3 l-288 0 0 1150 0 1150 -580 0 -580 0 0 575 0 575 -575 0 -575 0 0 865 0 865
290 0 290 0 0 -575 0 -575 575 0 575 0 0 -575 0 -575 865 0 865 0 0 285 0 285
-575 0 -575 0 0 290 0 290 865 0 865 0 0 -865 0 -865 -580 0 -580 0 2 -287 3
-288 1438 -2 1437 -3 0 290 0 290 -575 0 -575 0 0 1150 0 1150 -1150 0 -1150
0 0 1155 0 1155 -865 0 -865 0 0 -290 0 -290 575 0 575 0 0 -865 0 -865 -290
0 -290 0 0 580 0 580 -1150 0 -1150 0 0 575 0 575 -287 -2 -288 -3 0 -860 0
-860 578 -3 577 -2 0 -865 0 -865 -290 0 -290 0 0 575 0 575 -290 0 -290 0 2
-575 3 -575 -287 0 -288 0 -2 1153 -3 1152 -285 0 -285 0 -3 -577 -2 -578
-865 0 -865 0 0 580 0 580 -1437 -2 -1438 -3 -3 -287 -2 -288 1155 0 1155 0 0
-290 0 -290 -575 0 -575 0 0 -285 0 -285 1725 0 1725 0 0 -575 0 -575 1730 0
1730 0 0 -865 0 -865 -865 0 -865 0 0 285 0 285 288 0 c158 0 416 0 575 0
l287 -1 0 291 0 290 -1440 0 -1440 0 2 -287 3 -288 569 -2 c313 -2 571 -4 573
-6 2 -2 4 -260 6 -573 l2 -569 578 -3 577 -2 0 -285 0 -285 -287 0 c-159 0
-418 -1 -578 -3 l-290 -2 -2 -290 c-2 -159 -3 -419 -3 -577 l0 -288 -285 0
-285 0 0 1155 0 1155 -290 0 -290 0 0 -1730 0 -1730 -285 0 -285 0 0 288 c0
158 0 1195 0 2305 l0 2017 -1440 0 -1440 0 0 -575 0 -575 -577 -2 -578 -3 0
-285 0 -285 578 -3 577 -2 0 -1150 0 -1150 860 0 860 0 0 285 0 285 -575 0
-575 0 0 865 0 865 290 0 290 0 0 -575 0 -575 285 0 285 0 0 865 0 865 -575 0
-575 0 0 285 0 285 285 0 c157 0 418 0 580 0 162 0 423 0 580 0 l285 0 0
-2015 0 -2015 -575 0 -575 0 0 -285 0 -285 1440 0 1440 0 0 575 0 575 1150 0
1150 0 0 285 0 285 -575 0 -575 0 0 290 0 290 575 0 575 0 0 575 0 575 575 0
575 0 0 575 0 575 290 0 290 0 0 -860 0 -860 -287 0 c-159 0 -417 0 -575 0
l-288 1 0 -866 0 -865 1150 0 1150 0 0 -290 0 -290 -575 0 -575 0 0 -865 0
-865 288 2 287 3 3 578 2 577 285 0 285 0 0 -1730 0 -1730 580 0 580 0 0 -290
0 -290 -1155 0 -1155 0 0 -285 0 -285 575 0 575 0 0 -290 0 -290 -865 0 -865
0 0 575 0 575 -285 0 -285 0 0 -575 0 -575 -865 0 -865 0 0 290 0 290 575 0
575 0 0 285 0 285 -1150 0 -1150 0 0 290 0 290 2305 0 2305 0 0 285 0 285
-580 0 -580 0 0 290 0 290 580 0 580 0 -2 288 -3 287 -1153 3 -1152 2 0 865 0
865 290 0 290 0 0 -580 0 -580 285 0 285 0 0 865 0 865 -860 0 -860 0 0 -575
0 -575 -290 0 -290 0 0 575 0 575 -290 0 -290 0 3 -863 2 -862 578 -3 577 -2
0 -285 0 -285 -577 -2 -578 -3 0 -285 0 -285 1153 -3 1152 -2 0 -290 0 -290
-1440 0 -1440 0 0 1155 0 1155 -1440 0 -1440 0 0 -290 0 -290 1150 0 1150 0 0
-865 0 -865 -285 0 -285 0 -2 578 -3 577 -287 3 -288 2 0 -865 0 -865 575 0
575 0 0 -575 0 -575 575 0 574 0 3 -290 3 -290 -862 0 -863 0 0 288 c0 158 0
416 0 574 l1 288 -291 0 -290 0 0 -575 0 -575 -1440 0 -1440 0 0 2015 0 2015
290 0 290 0 0 -1725 0 -1725 860 0 860 0 0 285 0 285 -575 0 -575 0 0 865 0
865 290 0 290 0 0 -575 0 -575 285 0 285 0 0 865 0 865 -575 0 -575 0 0 575 0
575 -865 0 -865 0 0 -575 0 -575 -1150 0 -1150 0 0 -290 0 -290 1150 0 1150 0
2 -287 c2 -159 2 -548 0 -865 l-2 -578 -575 0 -575 0 0 -285 0 -285 575 0 575
0 0 -290 0 -290 -865 0 -865 0 0 865 0 865 580 0 580 0 0 285 0 285 -1155 0
-1155 0 0 580 0 580 -285 0 -285 0 0 -865 0 -865 575 0 575 0 0 -865 0 -865
-290 0 -290 0 0 575 0 575 -860 0 -860 0 0 -285 0 -285 575 0 575 0 0 -290 0
-290 -865 0 -865 0 0 1150 0 1150 -290 0 -290 0 0 -575 0 -575 -575 0 -575 0
0 -285 0 -285 575 0 575 0 0 -290 0 -290 -865 0 -865 0 0 1440 0 1440 290 0
290 0 0 -575 0 -575 290 0 290 0 0 1440 0 1440 -290 0 -290 0 0 -575 0 -575
-290 0 -290 0 0 865 0 865 2595 0 2595 0 0 -290 0 -290 -1150 0 -1150 0 0
-575 0 -575 -290 0 -290 0 0 575 0 575 -290 0 -290 0 0 -865 0 -865 580 0 580
0 0 -575 0 -575 285 0 285 0 0 1150 0 1150 1150 0 1150 0 0 865 0 865 -575 0
-575 0 0 575 0 575 -285 0 -285 0 0 -575 0 -575 -290 0 -290 0 0 865 0 865
865 0 865 0 0 -575 0 -575 285 0 285 0 0 575 0 575 865 0 865 0 0 -290 0 -290
-575 0 -575 0 0 -1440 0 -1440 288 2 287 3 3 578 2 577 1150 0 1150 0 0 285 0
285 -1150 0 -1150 0 0 290 0 290 575 0 575 0 -2 862 -3 863 -1728 0 -1727 0 0
288 0 287 575 0 575 0 0 865 0 865 -285 0 -285 0 0 -575 0 -575 -290 0 -290 0
0 575 0 575 -285 0 -285 0 0 -1152 0 -1153 -290 0 -290 0 0 1153 0 1152 -575
0 -575 0 0 575 0 575 -865 0 -865 0 0 -865 0 -865 288 2 287 3 3 578 2 577
285 0 285 0 2 -577 3 -578 285 -2 c157 -2 417 -3 578 -3 l292 0 0 -2015 0
-2015 -290 0 -290 0 0 575 0 575 -290 0 -290 0 0 -575 0 -575 -865 0 -865 0 0
290 0 290 580 0 581 0 -1 288 c0 158 0 416 0 575 l0 287 575 0 575 0 0 865 0
865 -290 0 -290 0 0 -575 0 -575 -287 0 c-159 0 -416 -1 -573 -3 l-285 -2 -3
-577 -2 -578 -290 0 -290 0 0 865 0 865 578 2 577 3 0 285 0 285 -577 3 -578
2 0 3170 0 3170 865 0 865 0 2 -577 3 -578 288 -3 287 -2 0 580 0 580 575 0
575 0 0 285 0 285 -575 0 -575 0 0 575 0 575 -290 0 -290 0 0 -575 0 -575
-865 0 -865 0 0 2880 0 2880 -285 0 -285 0 0 -11235z M1440 23045 l0 -285 575
0 575 0 0 -865 0 -865 -285 0 -285 0 0 288 c0 158 0 416 0 575 l1 287 -291 0
-290 0 0 -2015 0 -2015 290 0 290 0 0 863 c0 474 0 991 0 1150 l0 287 285 0
285 0 0 -575 0 -575 290 0 290 0 0 1150 0 1150 290 0 290 0 0 -1150 0 -1150
285 0 285 0 0 1440 0 1440 -575 0 -575 0 0 290 0 290 865 0 865 0 0 -580 0
-580 285 0 285 0 0 580 0 580 290 0 290 0 0 -1155 0 -1155 285 0 285 0 0 1155
0 1155 290 0 290 0 0 -1445 0 -1445 -865 0 -865 0 0 580 0 580 -285 0 -285 0
0 -1155 0 -1155 -575 0 -575 0 0 -285 0 -285 860 0 860 0 0 575 0 575 1155 0
1155 0 0 1730 0 1730 2590 0 2590 0 0 -290 0 -290 -2305 0 -2305 0 2 -287 3
-288 575 -2 c316 -2 835 -3 1153 -3 l577 0 0 -285 0 -285 -1152 -2 -1153 -3
-2 -575 c-2 -316 -3 -835 -3 -1152 l0 -578 -1150 0 -1150 0 0 -285 0 -285 575
0 575 0 0 -290 0 -290 -575 0 -575 0 0 -285 0 -285 575 0 575 0 0 -290 0 -290
-865 0 -865 0 0 575 0 575 -285 0 -285 0 0 -575 0 -575 -575 0 -575 0 0 -290
0 -290 575 0 575 0 0 -575 0 -575 285 0 285 0 0 575 0 575 290 0 290 0 0 -575
0 -575 285 0 285 0 0 575 0 575 290 0 290 0 0 -865 0 -865 -1440 0 -1440 0 0
580 0 580 -1147 0 c-630 0 -1148 2 -1150 3 -2 2 -4 260 -6 573 l-2 569 -287 3
-288 2 0 -1440 0 -1440 865 0 865 0 0 285 0 285 -575 0 -575 0 0 290 0 290
865 0 865 0 0 -1150 0 -1150 860 0 860 0 0 285 0 285 -575 0 -575 0 0 290 0
290 865 0 865 0 0 -575 0 -575 285 0 285 0 0 575 0 575 290 0 290 0 0 -575 0
-575 290 0 290 0 0 575 0 575 285 0 285 0 2 -577 c2 -318 2 -707 0 -865 l-2
-288 -575 0 -575 0 0 -865 0 -865 290 0 290 0 0 575 0 575 288 0 c158 0 416 0
575 0 l287 -1 0 581 0 580 1730 0 1730 0 0 285 0 285 -1730 0 -1730 0 0 575 0
575 -575 0 -575 0 0 865 0 865 575 0 575 0 0 290 0 290 -575 0 -575 0 0 865 0
865 285 0 285 0 0 -575 0 -575 1440 0 1440 0 0 860 0 860 -285 0 -285 0 0
-575 0 -575 -290 0 -290 0 0 575 0 575 -285 0 -285 0 0 -575 0 -575 -290 0
-290 0 0 865 0 865 575 0 575 0 0 285 0 285 -575 0 -575 0 0 290 0 290 1150 0
1150 0 0 575 0 575 578 2 c317 2 706 2 865 0 l287 -2 0 -1150 0 -1150 290 0
290 0 0 1730 0 1730 285 0 285 0 0 -292 c0 -161 0 -940 0 -1730 l0 -1438 865
0 865 0 0 285 0 285 -575 0 -575 0 0 1445 0 1445 290 0 290 0 0 -1155 0 -1155
575 0 575 0 0 -865 0 -865 -1155 0 -1155 0 2 -575 3 -575 -287 0 -288 0 0 575
0 575 -575 0 -575 0 0 578 c0 317 -1 836 -3 1152 l-2 575 -287 3 -288 2 0
-580 0 -580 -575 0 -575 0 0 -285 0 -285 575 0 575 0 0 -575 0 -575 575 0 575
0 0 -290 0 -290 -575 0 -575 0 0 -575 0 -575 -1150 0 -1150 0 0 -290 0 -290
1150 0 1150 0 0 -575 0 -575 290 0 291 0 -1 288 c0 158 0 416 0 575 l0 287
575 0 575 0 0 290 0 290 -575 0 -575 0 0 290 0 290 1440 0 1440 0 0 -580 0
-580 285 0 285 0 0 580 0 580 575 0 575 0 0 285 0 285 -1150 0 -1150 0 0 290
0 290 1440 0 1440 0 0 -575 0 -575 290 0 290 0 0 575 0 575 575 0 575 0 0 285
0 285 -1155 0 -1155 0 0 1155 0 1155 -575 0 -575 0 0 865 0 865 290 0 290 0 0
-580 0 -580 285 0 285 0 0 580 0 580 1445 0 1445 0 0 -290 0 -290 -580 0 -580
0 0 -575 0 -575 -285 0 -285 0 0 575 0 575 -290 0 -290 0 0 -1440 0 -1440 290
0 290 0 0 575 0 575 285 0 285 0 0 -575 0 -575 290 0 290 0 0 575 0 575 575 0
575 0 0 290 0 290 -575 0 -575 0 0 285 0 285 288 0 c158 0 675 0 1150 0 l862
0 0 290 0 290 -575 0 -575 0 0 290 0 290 865 0 865 0 0 -2020 0 -2020 -290 0
-290 0 0 1155 0 1155 -285 0 -285 0 0 -580 0 -580 -575 0 -575 0 0 -285 0
-285 575 0 575 0 0 -290 0 -290 -575 0 -575 0 0 -575 0 -575 -580 0 -580 0 0
-285 0 -285 865 0 865 0 0 575 0 575 865 0 865 0 0 -865 0 -865 -290 0 -290 0
0 575 0 575 -285 0 -285 0 0 -1150 0 -1150 -290 0 -290 0 0 575 0 575 -285 0
-285 0 0 -575 0 -575 -290 0 -290 0 0 575 0 575 -290 0 -290 0 0 -865 0 -865
1440 0 1440 0 0 575 0 575 290 0 290 0 0 -1440 0 -1440 -290 0 -290 0 0 575 0
575 -285 0 -285 0 0 -860 0 -860 575 0 575 0 0 -5765 0 -5765 288 2 287 3 2
11233 3 11232 -10660 0 -10660 0 0 -285z"/>
</g>
</svg>
