<?xml version="1.0" standalone="no"?>
<!DOCTYPE svg PUBLIC "-//W3C//DTD SVG 20010904//EN"
 "http://www.w3.org/TR/2001/REC-SVG-20010904/DTD/svg10.dtd">
<svg version="1.0" xmlns="http://www.w3.org/2000/svg"
 width="2362.000000pt" height="2362.000000pt" viewBox="0 0 2362.000000 2362.000000"
 preserveAspectRatio="xMidYMid meet">
<metadata>
Created by potrace 1.16, written by Peter Selinger 2001-2019
</metadata>
<g transform="translate(0.000000,2362.000000) scale(0.100000,-0.100000)"
fill="#000000" stroke="none">
<path d="M290 12095 l0 -11235 10655 0 10655 0 0 2595 0 2595 -575 0 -575 0 0
290 0 290 575 0 575 0 0 4895 0 4895 -285 0 -285 0 0 -575 0 -575 -575 0 -575
0 0 -290 0 -290 575 0 575 0 0 -2015 0 -2015 -575 0 -575 0 0 -290 0 -290 575
0 575 0 0 -865 0 -865 -290 0 -290 0 0 580 0 581 -287 -1 c-159 0 -417 0 -575
0 l-288 0 0 860 0 860 288 0 c158 0 416 0 575 0 l287 -1 0 1441 0 1440 -285 0
-285 0 0 -575 0 -575 -580 0 -580 0 0 -285 0 -285 580 0 580 0 0 -290 0 -290
-1155 0 -1155 0 2 -287 3 -288 285 -2 c157 -2 414 -3 573 -3 l287 0 0 -860 0
-860 -287 0 c-159 0 -416 -1 -573 -3 l-285 -2 -3 -287 -2 -288 575 0 575 0 0
-290 0 -290 -575 0 -575 0 0 -1150 0 -1150 -575 0 -575 0 0 -865 0 -865 285 0
285 0 0 575 0 575 1155 0 1155 0 0 290 0 290 -575 0 -575 0 0 865 0 865 285 0
285 0 0 -575 0 -575 290 0 290 0 0 1150 0 1150 290 0 290 0 0 -575 0 -575 575
0 575 0 0 -290 0 -290 -575 0 -575 0 0 -2590 0 -2590 285 0 285 0 0 1725 0
1725 290 0 290 0 0 -2015 0 -2015 -865 0 -865 0 0 575 0 575 -575 0 -575 0 0
290 0 290 575 0 575 0 0 865 0 865 -287 -2 -288 -3 -3 -578 -2 -577 -285 0
-285 0 -2 578 -3 577 -287 3 -288 2 0 -1440 0 -1440 575 0 575 0 0 -290 0
-290 -865 0 -865 0 0 575 0 575 -575 0 -575 0 0 290 0 290 575 0 575 0 0 285
0 285 -575 0 -575 0 0 1445 0 1445 575 0 575 0 0 285 0 285 -575 0 -575 0 0
865 0 865 290 0 290 0 0 -575 0 -575 285 0 285 0 0 1150 0 1150 580 0 580 0
-2 288 -3 287 -862 3 -863 2 0 -577 0 -578 -575 3 -575 2 0 -1155 0 -1155
-290 0 -290 0 0 575 0 575 -290 0 -290 0 2 -575 3 -575 -287 0 -288 0 0 575 0
575 -290 0 -290 0 0 -575 0 -575 -285 0 -285 0 0 288 c0 158 -1 935 -3 1727
l-2 1440 -287 3 -288 2 0 -1155 0 -1155 -290 0 -290 0 0 580 0 580 -285 0
-285 0 0 -580 0 -580 -1155 0 -1155 0 0 -285 0 -285 1155 0 1155 0 0 -290 0
-290 -1730 0 -1730 0 0 -285 0 -285 575 0 575 0 0 -290 0 -290 -865 0 -865 0
0 575 0 575 -575 0 -575 0 0 290 0 290 1155 0 1155 0 0 575 0 575 1150 0 1150
0 0 575 0 575 575 0 575 0 0 290 0 290 -860 0 -860 0 0 -575 0 -575 -290 0
-290 0 0 860 0 860 288 0 c158 0 416 0 575 0 l287 -1 0 1156 0 1155 290 0 290
0 0 -1155 0 -1155 863 3 862 2 2 863 3 862 -290 0 -290 0 0 -575 0 -575 -290
0 -290 0 0 865 0 865 580 0 580 0 0 285 0 285 -580 0 -580 0 0 865 0 865 290
0 290 0 0 -575 0 -575 1730 0 1730 0 0 -290 0 -290 -1155 0 -1155 0 0 -285 0
-285 1440 0 1440 0 0 575 0 575 290 0 290 0 0 -575 0 -575 285 0 285 0 0 865
0 865 -2297 0 c-1263 0 -2298 1 -2299 3 -4 3 -5 285 -4 1150 l0 577 860 0 860
0 0 -290 0 -290 -575 0 -575 0 0 -290 0 -290 1440 0 1440 0 0 1155 0 1155
1155 0 1155 0 0 285 0 285 -2020 0 -2020 0 0 -285 0 -285 580 0 580 0 0 -865
0 -865 -290 0 -290 0 0 575 0 575 -575 0 -575 0 0 575 0 575 -575 0 -575 0 0
575 0 575 -290 0 -290 0 0 -860 0 -860 575 0 575 0 0 -290 0 -290 -575 0 -575
0 0 -575 0 -575 -290 0 -290 0 0 1150 0 1150 -285 0 -285 0 0 -575 0 -575
-290 0 -290 0 0 575 0 575 -285 0 -285 0 0 -575 0 -575 -580 0 -580 0 0 -285
0 -285 578 -2 577 -3 3 -1152 2 -1153 285 0 285 0 0 1155 0 1155 290 0 290 0
0 -1445 0 -1445 -1155 0 -1155 0 0 -285 0 -285 580 0 580 0 0 -290 0 -290
-1155 0 -1155 0 0 -285 0 -285 1155 0 1155 0 0 -290 0 -290 -1155 0 -1155 0 2
-287 3 -288 285 -2 c157 -2 414 -3 573 -3 l287 0 0 -285 0 -285 -575 0 -575 0
0 -290 0 -290 575 0 575 0 0 -285 0 -285 -287 0 c-159 0 -676 0 -1150 0 l-863
0 0 -290 0 -290 575 0 575 0 0 -290 0 -290 -2305 0 -2305 0 0 -285 0 -285 580
0 580 0 0 -575 0 -575 285 0 285 0 0 575 0 575 290 0 290 0 0 -1730 0 -1730
1440 0 1440 0 -2 288 -3 287 -1152 3 -1153 2 0 865 0 865 290 0 290 0 0 -580
0 -580 1150 0 1150 0 0 -575 0 -575 290 0 290 0 0 575 0 575 1150 0 1150 0 0
290 0 290 -1150 0 -1150 0 0 290 0 290 1150 0 1150 0 0 575 0 575 290 0 290 0
0 -575 0 -575 575 0 575 0 0 -1730 0 -1730 290 0 290 0 0 1730 0 1730 865 0
865 0 0 -290 0 -290 -577 -2 -578 -3 0 -285 0 -285 578 -3 577 -2 0 -285 0
-285 -577 -2 -578 -3 0 -285 0 -285 578 -3 577 -2 0 -290 0 -290 -580 0 -580
0 0 -285 0 -285 580 0 580 0 0 -575 0 -575 575 0 575 0 0 -290 0 -290 -865 0
-865 0 0 575 0 575 -290 0 -290 0 2 -575 3 -575 -287 0 -288 0 0 575 0 575
-290 0 -290 0 0 -575 0 -575 -285 0 -285 0 0 288 c0 158 -1 1194 -3 2302 l-2
2015 -287 3 -288 2 0 -575 0 -575 -1150 0 -1150 0 0 -865 0 -865 285 0 285 0
0 575 0 575 290 0 290 0 0 -575 0 -575 285 0 285 0 0 575 0 575 290 0 290 0 0
-865 0 -865 -575 0 -575 0 0 -285 0 -285 575 0 575 0 0 -290 0 -290 -865 0
-865 0 0 575 0 575 -865 0 -865 0 0 -285 0 -285 580 0 580 0 0 -290 0 -290
-865 0 -865 0 0 865 0 865 575 0 575 0 0 285 0 285 -865 0 -865 0 0 -1150 0
-1150 -290 0 -290 0 0 575 0 575 -285 0 -285 0 0 -575 0 -575 -1440 0 -1440 0
0 290 0 290 1150 0 1150 0 0 575 0 575 575 0 575 0 0 285 0 285 -860 0 -860 0
0 -575 0 -575 -1730 0 -1730 0 0 -285 0 -285 575 0 575 0 0 -290 0 -290 -865
0 -865 0 0 865 0 865 1730 0 1730 0 0 1440 0 1440 -285 0 -285 0 0 -575 0
-575 -290 0 -290 0 0 1150 0 1150 -290 0 -290 0 0 -575 0 -575 -575 0 -575 0
0 -290 0 -290 575 0 575 0 0 -575 0 -575 580 0 580 0 -2 -287 -3 -288 -862 -3
-863 -2 -2 577 -3 578 -287 3 -288 2 0 -580 0 -580 -290 0 -290 0 0 1445 0
1445 580 0 580 0 0 860 0 860 -290 0 -290 0 0 -575 0 -575 -290 0 -290 0 0
1440 0 1440 290 0 290 0 0 -575 0 -575 290 0 290 0 -3 863 -2 862 -577 3 -578
2 0 865 0 865 290 0 290 0 0 -580 0 -580 288 2 287 3 2 863 3 862 -580 0 -580
0 0 865 0 865 290 0 290 0 0 -575 0 -575 290 0 291 0 -1 288 c0 158 0 416 0
575 l0 287 1150 0 1150 0 0 575 0 575 290 0 290 0 0 -865 0 -865 -1155 0
-1155 0 0 -285 0 -285 580 0 580 0 0 -865 0 -865 -290 0 -290 0 0 575 0 575
-290 0 -290 0 2 -862 3 -863 285 -2 c157 -2 417 -3 578 -3 l292 0 0 -575 0
-575 285 0 285 0 0 1155 0 1155 290 0 290 0 0 -1442 0 -1443 -582 2 c-321 2
-710 3 -865 3 l-283 0 0 575 0 575 -290 0 -290 0 0 -865 0 -865 1440 0 1440 0
0 2015 0 2015 -575 0 -575 0 0 290 0 290 575 0 575 0 0 1150 0 1150 290 0 290
0 0 -2880 0 -2880 285 0 285 0 0 2880 0 2880 865 0 865 0 0 -285 0 -285 -575
0 -575 0 0 -865 0 -865 290 0 290 0 0 575 0 575 575 0 575 0 0 865 0 865 -575
0 -575 0 0 575 0 575 -290 0 -290 0 0 -575 0 -575 -865 0 -865 0 0 290 0 290
575 0 575 0 0 285 0 285 -860 0 -860 0 0 -575 0 -575 -290 0 -290 0 0 2305 0
2305 -285 0 -285 0 -2 -577 -3 -578 -287 -3 -288 -2 0 580 0 580 -290 0 -290
0 0 -1440 0 -1440 290 0 290 0 0 575 0 575 290 0 290 0 0 -865 0 -865 -580 0
-580 0 0 -575 0 -575 -285 0 -285 0 0 288 c0 158 0 934 0 1725 l0 1437 -290 0
-290 0 0 -2015 0 -2015 865 0 865 0 0 580 0 580 288 -2 287 -3 3 -862 2 -863
-867 -2 c-478 -2 -1128 -2 -1445 0 l-578 2 0 2590 0 2590 578 2 577 3 0 285 0
285 -577 3 -578 2 0 285 0 285 578 0 c317 0 1096 0 1730 0 l1152 0 0 290 0
290 -1730 0 -1730 0 0 575 0 575 -285 0 -285 0 0 -11235z M1440 23045 l0 -285
2305 0 2305 0 0 -290 0 -290 -575 0 -575 0 0 -290 0 -291 288 1 c158 0 416 0
575 0 l287 0 0 -285 0 -285 -575 0 -575 0 0 -290 0 -290 860 0 860 0 0 1155 0
1155 3745 0 3745 0 0 -290 0 -290 -1725 0 -1725 0 0 -290 0 -290 863 0 c474 0
991 0 1150 0 l287 0 0 -285 0 -285 -1150 0 -1150 0 0 -580 0 -580 -290 0 -290
0 0 580 0 580 -1150 0 -1150 0 0 285 0 285 288 0 c158 0 675 0 1150 0 l862 0
0 290 0 290 -1440 0 -1440 0 0 -865 0 -865 575 0 575 0 2 -287 c2 -159 2 -548
0 -865 l-2 -578 -285 0 -285 0 0 575 0 575 -1440 0 -1440 0 0 -285 0 -285
1150 0 1150 0 0 -290 0 -290 -1150 0 -1150 0 0 -285 0 -285 2015 0 2015 0 0
1150 0 1150 290 0 290 0 0 -575 0 -575 860 0 860 0 0 575 0 575 865 0 865 0 0
-575 0 -575 290 0 290 0 0 1150 0 1150 288 2 c158 2 547 2 865 0 l577 -2 0
-285 0 -285 -577 -2 -578 -3 -2 -862 -3 -863 290 0 290 0 0 575 0 575 290 0
290 0 0 -575 0 -575 285 0 285 0 0 1440 0 1440 -575 0 -575 0 0 290 0 290
1440 0 1440 0 0 -290 0 -290 -575 0 -575 0 0 -290 0 -291 288 1 c158 0 416 0
575 0 l287 0 0 -285 0 -285 -575 0 -575 0 0 -865 0 -865 865 0 865 0 0 285 0
285 -577 2 -578 3 -3 288 -2 287 580 0 580 0 0 575 0 575 288 0 c158 0 416 0
575 0 l287 -1 0 291 0 290 -575 0 -575 0 0 290 0 290 1440 0 1440 0 0 -1445 0
-1445 -290 0 -290 0 0 1155 0 1155 -285 0 -285 0 0 -575 0 -575 -577 -2 -578
-3 -3 -287 -2 -288 580 0 580 0 0 -865 0 -865 -290 0 -290 0 0 575 0 575 -290
0 -290 0 0 -1725 0 -1725 -865 0 -865 0 2 288 3 287 578 3 577 2 0 285 0 285
-865 0 -865 0 0 -865 0 -865 575 0 575 0 0 -1440 0 -1440 -575 0 -575 0 0
-575 0 -575 -290 0 -290 0 0 575 0 575 -285 0 -285 0 0 -1150 0 -1150 -865 0
-865 0 0 285 0 285 288 0 c158 0 416 0 575 0 l287 -1 0 866 0 865 -290 0 -291
0 1 -287 c0 -159 0 -417 0 -575 l0 -288 -285 0 -285 0 0 575 0 575 -290 0
-290 0 0 -2015 0 -2015 290 0 290 0 0 575 0 575 285 0 285 0 0 -287 c0 -159 0
-417 0 -576 l-1 -287 291 0 290 0 0 575 0 575 575 0 575 0 0 575 0 575 575 0
575 0 0 580 0 580 580 0 580 0 0 1725 0 1725 285 0 285 0 0 -1150 0 -1150 290
0 290 0 0 1150 0 1150 575 0 575 0 0 580 0 580 575 0 575 0 0 860 0 860 -285
0 -285 0 0 -575 0 -575 -575 0 -575 0 0 -575 0 -575 -290 0 -290 0 0 865 0
865 575 0 575 0 0 575 0 575 575 0 575 0 0 1730 0 1730 290 0 290 0 0 -10950
0 -10950 288 2 287 3 2 11233 3 11232 -10660 0 -10660 0 0 -285z"/>
</g>
</svg>
