<?xml version="1.0" standalone="no"?>
<!DOCTYPE svg PUBLIC "-//W3C//DTD SVG 20010904//EN"
 "http://www.w3.org/TR/2001/REC-SVG-20010904/DTD/svg10.dtd">
<svg version="1.0" xmlns="http://www.w3.org/2000/svg"
 width="2362.000000pt" height="2362.000000pt" viewBox="0 0 2362.000000 2362.000000"
 preserveAspectRatio="xMidYMid meet">
<metadata>
Created by potrace 1.16, written by Peter Selinger 2001-2019
</metadata>
<g transform="translate(0.000000,2362.000000) scale(0.100000,-0.100000)"
fill="#000000" stroke="none">
<path d="M290 12095 l0 -11235 10655 0 10655 0 0 290 0 290 -5760 0 -5760 0 0
575 0 575 -285 0 -285 0 0 -575 0 -575 -865 0 -865 0 0 290 0 290 575 0 575 0
0 285 0 285 -865 0 -865 0 0 -575 0 -575 -290 0 -290 0 0 575 0 575 -285 0
-285 0 0 -575 0 -575 -290 0 -290 0 0 575 0 575 -285 0 -285 0 0 -575 0 -575
-865 0 -865 0 0 575 0 575 -290 0 -290 0 0 -575 0 -575 -865 0 -865 0 0 2015
0 2015 578 2 577 3 3 288 2 287 -580 0 -580 0 0 1440 0 1440 865 0 865 0 0
-575 0 -575 290 0 290 0 0 575 0 575 575 0 575 0 0 290 0 290 -1437 0 c-791 0
-1570 0 -1730 0 l-293 0 0 860 0 860 578 0 c317 0 1096 0 1730 0 l1152 0 0
290 0 290 -1730 0 -1730 0 0 865 0 865 1155 0 1155 0 0 865 0 865 -575 0 -575
0 0 285 0 285 575 0 575 0 0 290 0 290 -865 0 -865 0 0 -865 0 -865 575 0 575
0 0 -290 0 -290 -865 0 -865 0 0 2020 0 2020 865 0 865 0 0 -290 0 -290 -575
0 -575 0 0 -285 0 -285 865 0 865 0 0 575 0 575 290 0 290 0 0 -1155 0 -1155
860 0 860 0 0 290 0 290 -575 0 -575 0 0 1725 0 1725 -285 0 -285 0 0 -575 0
-575 -290 0 -290 0 0 575 0 575 -290 0 -290 0 0 -575 0 -575 -865 0 -865 0 0
1440 0 1440 578 0 c317 0 836 1 1152 3 l575 2 3 288 2 287 -1155 0 -1155 0 0
575 0 575 -285 0 -285 0 0 -11235z M1440 23045 l0 -285 1730 0 1730 0 0 -290
0 -290 -575 0 -575 0 0 -290 0 -290 860 0 860 0 0 580 0 580 290 0 290 0 0
-580 0 -580 285 0 285 0 0 580 0 580 865 0 865 0 0 -290 0 -290 -575 0 -575 0
2 -287 3 -288 285 -2 c157 -2 414 -3 573 -3 l287 0 0 -285 0 -285 -575 0 -575
0 0 -580 0 -580 -865 0 -865 0 0 290 0 290 575 0 575 0 0 290 0 290 -2590 0
-2590 0 0 -865 0 -865 290 0 291 0 -1 288 c0 158 0 416 0 575 l0 287 1440 0
1440 0 0 -1725 0 -1725 575 0 575 0 0 -1155 0 -1155 285 0 285 0 0 575 0 575
578 2 577 3 3 288 2 287 -580 0 -580 0 0 1150 0 1150 -285 0 -285 0 0 -575 0
-575 -290 0 -290 0 0 865 0 865 865 0 865 0 0 -1150 0 -1150 290 0 290 0 0
575 0 575 575 0 575 0 0 285 0 285 -575 0 -575 0 0 290 0 290 575 0 575 0 0
285 0 285 -575 0 -575 0 0 290 0 290 1725 0 1725 0 0 290 0 290 -1150 0 -1150
0 0 865 0 865 290 0 290 0 0 -580 0 -580 860 0 860 0 0 290 0 290 -575 0 -575
0 0 290 0 290 2595 0 2595 0 0 -290 0 -290 -1730 0 -1730 0 0 -865 0 -865
1440 0 1440 0 0 290 0 290 -1150 0 -1150 0 0 285 0 285 863 0 c474 0 1250 0
1725 0 l862 0 0 580 0 580 290 0 290 0 0 -580 0 -580 285 0 285 0 0 580 0 580
290 0 290 0 0 -580 0 -580 288 2 287 3 3 578 2 577 865 0 865 0 0 -290 0 -290
-580 0 -580 0 0 -575 0 -575 -575 0 -575 0 0 -580 0 -580 -287 2 -288 3 -3
578 -2 577 -860 0 -860 0 0 -290 0 -290 575 0 575 0 0 -290 0 -290 -575 0
-575 0 0 -860 0 -860 285 0 285 0 0 575 0 575 290 0 290 0 0 -575 0 -575 285
0 285 0 0 575 0 575 580 0 580 0 0 575 0 575 575 0 575 0 0 575 0 575 288 0
c158 0 416 0 575 0 l287 -1 0 581 0 580 290 0 290 0 0 -1155 0 -1155 285 0
285 0 0 1155 0 1155 290 0 290 0 0 -2020 0 -2020 -290 0 -290 0 0 575 0 575
-575 0 -575 0 0 580 0 580 -285 0 -285 0 0 -865 0 -865 575 0 575 0 0 -575 0
-575 575 0 575 0 0 -290 0 -290 -1440 0 -1440 0 0 290 0 290 575 0 575 0 0
285 0 285 -575 0 -575 0 0 575 0 575 -290 0 -290 0 0 -575 0 -575 -575 0 -575
0 0 -1150 0 -1150 -290 0 -290 0 0 575 0 575 -860 0 -860 0 0 -285 0 -285 575
0 575 0 0 -580 0 -580 863 2 862 3 3 1153 2 1152 285 0 285 0 0 -575 0 -575
1155 0 1155 0 0 -580 0 -580 285 0 285 0 0 580 0 580 290 0 290 0 0 -865 0
-865 -287 -2 c-159 -2 -548 -2 -865 0 l-578 2 0 575 0 575 -865 0 -865 0 2
-287 3 -288 578 -3 577 -2 0 -285 0 -285 -1442 0 c-794 0 -1572 0 -1730 0
l-288 1 0 -291 0 -290 575 0 575 0 0 -865 0 -865 -290 0 -290 0 0 575 0 575
-285 0 -285 0 0 -575 0 -575 -575 0 -575 0 0 -575 0 -575 -580 0 -580 0 2
-287 3 -288 863 -2 862 -3 0 580 0 580 290 0 290 0 0 -580 0 -580 285 0 285 0
0 580 0 580 290 0 290 0 2 -577 3 -578 1438 -2 1437 -3 0 290 0 290 -1150 0
-1150 0 0 1440 0 1440 285 0 285 0 0 -1150 0 -1150 290 0 290 0 0 1150 0 1150
1440 0 1440 0 0 -290 0 -290 -1150 0 -1150 0 0 -860 0 -860 285 0 285 0 0 575
0 575 865 0 865 0 0 -2595 0 -2595 -865 0 -865 0 0 290 0 290 575 0 575 0 0
290 0 290 -575 -2 -575 -3 0 288 0 287 575 0 575 0 0 1440 0 1440 -285 0 -285
0 0 -1150 0 -1150 -575 0 -575 0 0 -2015 0 -2015 285 0 285 0 0 575 0 575 865
0 865 0 0 -290 0 -290 -575 0 -575 0 0 -285 0 -285 575 0 575 0 0 -2020 0
-2020 -290 0 -290 0 0 575 0 575 -1150 0 -1150 0 0 290 0 290 575 0 575 0 0
290 0 290 -575 0 -575 0 0 285 0 285 865 0 865 0 0 -575 0 -575 285 0 285 0 0
865 0 865 -1150 0 -1150 0 -2 1727 -3 1728 -285 0 -285 0 -3 -1152 -2 -1153
-865 0 -865 0 0 290 0 290 580 0 580 0 -2 862 -3 863 -1153 0 -1152 0 0 288 0
287 1730 0 1730 0 0 290 0 290 -2592 -2 -2593 -3 -2 -569 c-2 -313 -4 -571 -6
-573 -2 -2 -260 -4 -573 -6 l-569 -2 -3 -577 -2 -578 -285 0 -285 0 -2 578 -3
577 -862 2 -863 3 0 -290 0 -290 575 0 575 0 0 -865 0 -865 -290 0 -290 0 0
575 0 575 -575 0 -575 0 0 580 0 581 -287 -1 c-159 0 -417 0 -575 0 l-288 0 0
285 0 285 1728 2 1727 3 2 285 c2 157 3 414 3 573 l0 287 285 0 285 0 0 -575
0 -575 290 0 290 0 0 1440 0 1440 -290 0 -290 0 0 -575 0 -575 -285 0 -285 0
0 285 c0 157 0 677 0 1155 0 479 0 998 0 1155 l0 285 285 0 285 0 0 -575 0
-575 578 0 577 0 -3 -575 -2 -575 290 0 290 0 0 1150 0 1150 290 0 290 0 0
-575 0 -575 285 0 285 0 0 1440 0 1440 -575 0 -575 0 0 575 0 575 -290 0 -291
0 1 -287 c0 -159 0 -417 0 -575 l0 -288 -1440 0 -1440 0 0 575 0 575 -575 0
-575 0 0 290 0 290 1155 0 1156 0 -1 288 c0 158 0 416 0 575 l0 287 285 0 285
0 0 -865 0 -865 -575 0 -575 0 0 -285 0 -285 865 0 865 0 0 575 0 575 575 0
575 0 0 860 0 860 -290 0 -290 0 2 -575 3 -575 -287 0 -288 0 0 575 0 575
-2015 0 -2015 0 0 -285 0 -285 1150 0 1150 0 0 -290 0 -290 -1150 0 -1150 0 0
-860 0 -860 575 0 575 0 0 -290 0 -290 -865 0 -865 0 0 575 0 575 -290 0 -291
0 1 -287 c0 -159 0 -676 0 -1150 l0 -863 -575 0 -575 0 0 -580 0 -580 -1440 0
-1440 0 0 290 0 290 575 0 575 0 0 290 0 290 -860 0 -860 0 0 -865 0 -865
1150 0 1150 0 0 -575 0 -575 285 0 285 0 0 575 0 575 1155 0 1155 0 0 285 0
285 -575 0 -575 0 0 290 0 290 575 0 575 0 0 575 0 575 290 0 290 0 0 -2305 0
-2305 860 0 860 0 0 290 0 290 -575 0 -575 0 0 865 0 865 575 0 575 0 0 865 0
865 -285 0 -285 0 0 -580 0 -580 -290 0 -290 0 0 865 0 865 2595 0 2595 0 0
-285 0 -285 -577 -2 -578 -3 -2 -285 c-2 -157 -3 -417 -3 -577 l0 -293 -285 0
-285 0 -2 578 -3 577 -862 2 -863 3 0 -1155 0 -1155 -575 0 -575 0 0 -285 0
-285 575 0 575 0 0 -865 0 -865 -1440 0 -1440 0 0 1150 0 1150 -865 0 -865 0
0 -285 0 -285 575 0 575 0 0 -290 0 -290 -1440 0 -1440 0 0 575 0 575 -2015 0
-2015 0 0 -285 0 -285 1730 0 1730 0 0 -580 0 -580 1438 0 c790 0 1566 0 1725
0 l287 0 0 -285 0 -285 -1150 0 -1150 0 0 -290 0 -290 575 0 575 0 0 -285 0
-285 -282 0 c-156 0 -545 -1 -866 -3 l-582 -2 0 578 0 577 -2015 0 -2015 0 0
-290 0 -290 1730 0 1730 0 0 -865 0 -865 -575 0 -575 0 0 -575 0 -575 -865 0
-865 0 0 288 c0 158 0 416 0 575 l1 287 -291 0 -290 0 0 -860 0 -860 1440 0
1440 0 0 575 0 575 575 0 575 0 0 575 0 575 865 0 865 0 0 -290 0 -290 -575 0
-575 0 0 -285 0 -285 1440 0 1440 0 0 285 0 285 -575 0 -575 0 0 865 0 865
285 0 285 0 0 -287 c0 -159 0 -417 0 -576 l-1 -287 581 0 580 0 0 -1150 0
-1150 285 0 285 0 0 575 0 575 290 0 290 0 0 -1155 0 -1155 285 0 285 0 0 580
0 580 580 0 580 0 0 575 0 575 285 0 285 0 0 -865 0 -865 -575 0 -575 0 0
-865 0 -865 290 0 291 0 -1 287 c0 159 0 417 0 576 l0 287 285 0 285 0 0 -865
0 -865 -575 0 -575 0 0 -575 0 -575 -290 0 -290 0 0 575 0 575 -1150 0 -1150
0 0 290 0 290 1150 0 1150 0 0 290 0 290 -575 0 -575 0 0 575 0 575 -865 0
-865 0 2 -287 3 -288 578 -3 577 -2 0 -285 0 -285 -577 -2 -578 -3 -3 -578 -2
-577 -863 2 -862 3 -3 288 -2 287 580 0 580 0 0 1155 0 1155 575 0 575 0 0
285 0 285 -2015 0 -2015 0 0 -865 0 -865 860 0 860 0 0 290 0 290 -575 0 -575
0 0 290 0 290 865 0 865 0 0 -865 0 -865 -575 0 -575 0 0 -580 0 -580 -290 0
-290 0 0 580 0 580 -575 0 -575 0 0 575 0 575 -865 0 -865 0 0 -575 0 -575
-575 0 -575 0 0 -1440 0 -1440 290 0 290 0 0 863 c0 474 0 991 0 1150 l0 287
285 0 285 0 0 -575 0 -575 290 0 290 0 0 1150 0 1150 290 0 290 0 0 -1725 0
-1725 285 0 285 0 0 1150 0 1150 290 0 290 0 0 -575 0 -575 2880 0 2880 0 0
-575 0 -575 865 0 866 0 -1 287 c0 159 0 417 0 576 l0 287 285 0 285 0 0 -575
0 -575 1440 0 1440 0 0 285 0 285 -1150 0 -1150 0 0 2020 0 2020 285 0 285 0
0 -292 c0 -161 1 -680 3 -1153 l2 -860 578 -3 577 -2 0 -290 0 -290 -580 0
-580 0 0 -285 0 -285 865 0 865 0 0 575 0 575 575 0 575 0 0 290 0 290 -1150
0 -1150 0 0 1150 0 1150 -575 0 -575 0 0 865 0 865 288 0 287 0 -3 -575 -2
-575 580 0 580 0 0 -575 0 -575 285 0 285 0 0 860 0 860 -575 0 -575 0 0 865
0 865 290 0 290 0 0 -575 0 -575 1150 0 1150 0 0 -290 0 -290 -575 0 -575 0 0
-1150 0 -1150 -575 0 -575 0 0 -290 0 -290 860 0 860 0 2 578 3 577 288 3 287
2 0 -580 0 -580 288 2 287 3 3 578 2 577 285 0 285 0 0 -865 0 -865 -575 0
-575 0 0 -290 0 -290 575 0 575 0 0 -290 0 -290 -575 0 -575 0 0 -575 0 -575
-290 0 -290 0 0 575 0 575 -285 0 -285 0 0 -860 0 -860 865 0 865 0 0 575 0
575 865 0 865 0 0 -290 0 -290 -580 0 -580 0 0 -285 0 -285 865 0 865 0 0 575
0 575 290 0 290 0 0 -575 0 -575 575 0 575 0 0 -580 0 -580 288 2 287 3 2
11233 3 11232 -10660 0 -10660 0 0 -285z"/>
</g>
</svg>
