<?xml version="1.0" standalone="no"?>
<!DOCTYPE svg PUBLIC "-//W3C//DTD SVG 20010904//EN"
 "http://www.w3.org/TR/2001/REC-SVG-20010904/DTD/svg10.dtd">
<svg version="1.0" xmlns="http://www.w3.org/2000/svg"
 width="2362.000000pt" height="2362.000000pt" viewBox="0 0 2362.000000 2362.000000"
 preserveAspectRatio="xMidYMid meet">
<metadata>
Created by potrace 1.16, written by Peter Selinger 2001-2019
</metadata>
<g transform="translate(0.000000,2362.000000) scale(0.100000,-0.100000)"
fill="#000000" stroke="none">
<path d="M290 12095 l0 -11235 10655 0 10655 0 0 290 0 290 -4030 0 -4030 0 0
290 0 290 1150 0 1150 0 0 285 0 285 -1440 0 -1440 0 0 -575 0 -575 -285 0
-285 0 0 288 c0 158 0 416 0 574 l1 288 -1156 0 -1155 0 0 290 0 290 1730 0
1730 0 0 285 0 285 -575 0 -575 0 -2 578 -3 577 -287 3 -288 2 0 -580 0 -580
-290 0 -290 0 0 865 0 865 578 2 577 3 3 578 2 577 575 0 575 0 0 1150 0 1150
575 0 575 0 0 290 0 291 -287 -1 c-159 0 -417 0 -575 0 l-288 0 0 860 0 860
288 0 c158 0 675 0 1150 0 l862 0 0 580 0 580 575 0 575 0 0 285 0 285 -575 0
-575 0 0 290 0 290 575 0 575 0 0 575 0 575 1155 0 1155 0 0 290 0 290 -1440
0 -1440 0 0 -580 0 -580 -290 0 -290 0 0 580 0 580 -862 -2 -863 -3 0 -285 0
-285 578 -3 577 -2 0 -290 0 -290 -865 0 -865 0 0 2305 0 2305 -865 0 -865 0
0 -285 0 -285 575 0 575 0 0 -290 0 -290 -575 0 -575 0 0 -575 0 -575 -575 0
-575 0 0 -575 0 -575 -290 0 -290 0 0 575 0 575 -575 0 -575 0 0 290 0 290
1150 0 1150 0 0 285 0 285 -575 0 -575 0 0 290 0 290 575 0 575 0 0 575 0 575
1155 0 1155 0 0 1440 0 1440 -865 0 -865 0 0 -290 0 -291 288 1 c158 0 416 0
575 0 l287 0 0 -865 0 -865 -1150 0 -1150 0 0 -575 0 -575 -290 0 -290 0 0
575 0 575 -285 0 -285 0 0 -1150 0 -1150 -580 0 -581 0 1 -287 c0 -159 0 -417
0 -575 l0 -288 -285 0 -285 0 0 865 0 865 575 0 575 0 0 1150 0 1150 575 0
575 0 0 865 0 865 -285 0 -285 0 0 -575 0 -575 -865 0 -865 0 0 575 0 575
-290 0 -290 0 0 -1440 0 -1440 290 0 290 0 0 575 0 575 285 0 285 0 2 -287 c2
-159 2 -548 0 -865 l-2 -578 -575 0 -575 0 0 -1150 0 -1150 -290 0 -290 0 0
575 0 575 -1435 0 -1435 0 0 -1440 0 -1440 285 0 285 0 0 1155 0 1155 290 0
290 0 0 -580 0 -580 285 0 285 0 0 580 0 580 290 0 290 0 0 -1155 0 -1155 285
0 285 0 0 575 0 575 1445 0 1445 0 0 -285 0 -285 -577 -2 -578 -3 -3 -287 -2
-288 1730 0 1730 0 0 -290 0 -290 -575 0 -575 0 0 -285 0 -285 865 0 865 0 -3
863 -2 862 -577 3 -578 2 0 285 0 285 578 2 577 3 3 578 2 577 285 0 285 0 0
-2305 0 -2305 290 0 290 0 0 575 0 575 865 0 865 0 0 -290 0 -290 -580 0 -580
0 0 -285 0 -285 580 0 580 0 0 -290 0 -290 -1155 0 -1155 0 0 -1150 0 -1150
-287 -2 c-159 -2 -548 -2 -865 0 l-578 2 0 285 0 285 578 2 577 3 2 863 3 862
-290 0 -290 0 0 -575 0 -575 -290 0 -290 0 0 865 0 865 580 0 580 0 0 285 0
285 -865 0 -865 0 0 -575 0 -575 -290 0 -290 0 0 1150 0 1150 -865 0 -865 0 2
-1437 3 -1438 288 -3 287 -2 0 1155 0 1155 290 0 290 0 0 -1155 0 -1156 288 1
c158 0 416 0 575 0 l287 0 0 -285 0 -285 -1440 0 -1440 0 0 575 0 575 -290 0
-290 0 0 -1440 0 -1440 290 0 290 0 0 575 0 575 285 0 285 0 0 -287 c0 -159 0
-417 0 -576 l-1 -287 291 0 290 0 0 575 0 575 290 0 290 0 0 -575 0 -575 285
0 285 0 0 575 0 575 290 0 290 0 0 -1725 0 -1725 285 0 285 0 0 1150 0 1150
865 0 865 0 0 -290 0 -290 -575 0 -575 0 0 -285 0 -285 575 0 575 0 0 -290 0
-290 -575 0 -575 0 0 -575 0 -575 -575 0 -575 0 0 -575 0 -575 -575 0 -575 0
0 -290 0 -290 575 0 575 0 0 -290 0 -290 -865 0 -865 0 0 865 0 865 575 0 575
0 0 290 0 290 -575 0 -575 0 0 575 0 575 -290 0 -291 0 1 -288 c0 -158 0 -675
0 -1149 l0 -863 -575 0 -575 0 0 -290 0 -290 575 0 575 0 0 -290 0 -290 -575
0 -575 0 0 -285 0 -285 1155 0 1155 0 0 -290 0 -290 -580 0 -580 0 0 -285 0
-285 1730 0 1730 0 0 -290 0 -290 -2015 0 -2015 0 0 575 0 575 -290 0 -290 0
0 -575 0 -575 -3170 0 -3170 0 0 3170 0 3170 290 0 290 0 0 -575 0 -575 290 0
290 0 0 860 0 860 -580 0 -580 0 0 290 0 290 580 0 581 0 -1 288 c0 158 0 416
0 575 l0 287 285 0 285 0 0 -575 0 -575 580 0 580 0 0 -865 0 -865 -290 0
-290 0 0 575 0 575 -290 0 -290 0 2 -1437 3 -1438 288 -3 287 -2 0 580 0 580
288 -2 287 -3 3 -577 2 -578 285 0 285 0 0 580 0 580 290 0 290 0 0 -865 0
-865 -1152 -2 -1153 -3 -3 -577 -2 -578 -285 0 -285 0 0 578 c0 317 0 837 0
1155 l0 577 -290 0 -290 0 0 -2015 0 -2015 865 0 865 0 0 285 0 285 -575 0
-575 0 0 290 0 290 1150 0 1150 0 0 285 0 285 -575 0 -575 0 0 290 0 290 865
0 865 0 0 -865 0 -865 -575 0 -575 0 0 -285 0 -285 860 0 860 0 0 575 0 575
290 0 290 0 0 -575 0 -575 285 0 285 0 0 860 0 860 -575 0 -575 0 0 1445 0
1445 290 0 290 0 0 -1155 0 -1155 285 0 285 0 0 575 0 575 578 2 577 3 3 288
2 287 -580 0 -580 0 2 288 3 287 578 3 577 2 0 575 0 575 865 0 865 0 0 -575
0 -575 285 0 285 0 0 860 0 860 -2590 0 -2590 0 0 -285 0 -285 1150 0 1150 0
0 -290 0 -290 -1440 0 -1440 0 0 1155 0 1156 -287 -1 c-159 0 -417 0 -575 0
l-288 0 0 1150 0 1150 -290 0 -290 0 0 -575 0 -575 -575 0 -575 0 0 -575 0
-575 -290 0 -290 0 0 860 0 860 578 2 577 3 3 288 2 287 -580 0 -580 0 0 1440
0 1440 290 0 290 0 0 -575 0 -575 575 0 575 0 0 -290 0 -290 -575 0 -575 0 0
-285 0 -285 1440 0 1440 0 0 575 0 575 290 0 290 0 0 -865 0 -865 -575 0 -575
0 0 -290 0 -290 575 0 575 0 0 -285 0 -285 -575 0 -575 0 0 -290 0 -290 860 0
860 0 0 1155 0 1155 290 0 290 0 0 -1442 0 -1443 -575 3 -575 2 0 -290 0 -290
860 0 860 0 0 2015 0 2015 -575 0 -575 0 0 290 0 290 865 0 865 0 0 -575 0
-575 290 0 290 0 -2 1438 -3 1437 -287 3 -288 2 0 -580 0 -580 -865 0 -865 0
0 580 0 580 -285 0 -285 0 0 -580 0 -580 -575 0 -575 0 0 -575 0 -575 -290 0
-290 0 0 575 0 575 -575 0 -575 0 0 290 0 290 575 0 575 0 0 865 0 865 -290 0
-290 0 0 -575 0 -575 -287 -2 c-159 -2 -548 -2 -865 0 l-578 2 0 285 0 285
578 2 577 3 0 285 0 285 -577 3 -578 2 0 2015 0 2015 290 0 290 0 0 -1150 0
-1150 575 0 575 0 0 -290 0 -290 -575 0 -575 0 0 -285 0 -285 865 0 865 0 0
575 0 575 575 0 575 0 0 860 0 860 -285 0 -285 0 0 -575 0 -575 -865 0 -865 0
0 290 0 290 575 0 575 0 0 285 0 285 -575 0 -575 0 -2 578 -3 577 -577 3 -578
2 0 1150 0 1150 -285 0 -285 0 0 -11235z M1440 23045 l0 -285 575 0 575 0 0
-290 0 -290 -575 0 -575 0 0 -290 0 -290 863 3 862 2 3 578 2 577 288 -2 287
-3 3 -862 2 -863 -580 0 -580 0 0 -290 0 -290 865 0 865 0 0 1155 0 1155 865
0 865 0 0 -290 0 -290 -575 0 -575 0 0 -1440 0 -1440 285 0 285 0 0 575 0 575
290 0 290 0 0 -865 0 -865 -575 0 -575 0 0 -285 0 -285 860 0 860 0 0 1440 0
1440 -575 0 -575 0 0 285 0 285 575 0 575 0 0 580 0 580 865 0 865 0 2 -577 3
-578 288 -3 287 -2 0 580 0 580 865 0 865 0 0 -1155 0 -1155 863 2 862 3 0
285 0 285 -577 3 -578 2 0 865 0 865 2020 0 2020 0 0 -290 0 -290 -577 -2
-578 -3 0 -285 0 -285 865 -2 c476 -2 994 -3 1153 -3 l287 0 0 -575 0 -575
285 0 285 0 0 865 0 865 -575 0 -575 0 0 290 0 290 865 0 865 0 0 -580 0 -580
288 2 287 3 3 578 2 577 285 0 285 0 0 -865 0 -865 -575 0 -575 0 0 -290 0
-290 1440 0 1440 0 0 290 0 290 -575 0 -575 0 0 285 0 285 288 0 c158 0 416 0
575 0 l287 -1 0 291 0 290 -575 0 -575 0 0 290 0 290 1440 0 1440 0 0 -1445 0
-1445 -290 0 -290 0 0 1155 0 1155 -285 0 -285 0 0 -1440 0 -1440 575 0 575 0
0 -290 0 -290 -865 0 -865 0 0 575 0 575 -285 0 -285 0 0 -860 0 -860 1150 0
1150 0 0 -2020 0 -2020 -290 0 -290 0 0 1730 0 1730 -285 0 -285 0 0 -1730 0
-1730 -290 0 -290 0 0 1730 0 1730 -1150 0 -1150 0 0 290 0 290 575 0 575 0 0
285 0 285 -575 0 -575 0 0 290 0 290 575 0 575 0 0 285 0 285 -865 0 -865 0 0
-1150 0 -1150 -290 0 -290 0 0 1150 0 1150 -1150 0 -1150 0 0 290 0 290 575 0
575 0 0 290 0 290 -862 -2 -863 -3 -2 -862 -3 -863 1155 0 1155 0 0 -1440 0
-1440 -865 0 -865 0 0 290 0 290 575 0 575 0 0 285 0 285 -575 0 -575 0 0 290
0 290 575 0 575 0 0 285 0 285 -865 0 -865 0 3 -1437 2 -1438 2015 0 2015 0 3
288 2 287 -580 0 -580 0 2 288 3 287 1440 0 1440 0 3 -287 2 -288 -580 0 -580
0 2 -287 3 -288 578 -3 577 -2 0 -865 0 -865 -1155 0 -1155 0 0 -285 0 -285
575 0 575 0 0 -290 0 -290 -575 0 -575 0 0 -1440 0 -1440 865 0 865 0 0 575 0
575 288 0 c158 0 416 0 575 0 l287 -1 0 291 0 290 -865 0 -865 0 0 -575 0
-575 -285 0 -285 0 0 865 0 865 575 0 575 0 0 575 0 575 290 0 290 0 0 -575 0
-575 575 0 575 0 0 -1442 0 -1443 -290 0 -290 0 0 578 0 577 -285 0 -285 0 0
-865 0 -865 575 0 575 0 0 -290 0 -290 -865 0 -865 0 -2 578 -3 577 -860 0
-860 0 -3 -577 -2 -578 -290 0 -290 0 0 1730 0 1730 -285 0 -285 0 0 -1152 0
-1153 -290 0 -290 0 0 578 0 577 -862 -2 -863 -3 0 -285 0 -285 578 -3 577 -2
0 -1150 0 -1150 285 0 285 0 0 575 0 575 290 0 290 0 0 -1730 0 -1730 285 0
285 0 0 1155 0 1155 580 0 580 0 0 575 0 575 285 0 285 0 0 -575 0 -575 580 0
580 0 0 -290 0 -290 -580 0 -580 0 0 -575 0 -575 -285 0 -285 0 0 575 0 575
-290 0 -290 0 0 -865 0 -865 575 0 575 0 0 -285 0 -285 -575 0 -575 0 0 -580
0 -580 -290 0 -290 0 0 580 0 580 -575 0 -575 0 0 1150 0 1150 -285 0 -285 0
0 -575 0 -575 -290 0 -290 0 0 1150 0 1150 -290 0 -290 0 3 -1437 2 -1438 578
-3 577 -2 0 -285 0 -285 -865 0 -865 0 0 575 0 575 -290 0 -290 0 0 -865 0
-865 575 0 575 0 0 -287 c0 -159 0 -417 0 -576 l-1 -287 291 0 290 0 0 575 0
575 290 0 290 0 0 -575 0 -575 285 0 285 0 0 575 0 575 290 0 290 0 0 -1150 0
-1150 285 0 285 0 0 575 0 575 290 0 290 0 0 -575 0 -575 290 0 290 0 0 575 0
575 285 0 285 0 0 -575 0 -575 290 0 290 0 0 860 0 860 -575 0 -575 0 0 290 0
290 865 0 865 0 0 -575 0 -575 860 0 860 0 0 285 0 285 -575 0 -575 0 0 1155
0 1155 -285 0 -285 0 0 -575 0 -575 -290 0 -290 0 0 865 0 865 575 0 575 0 0
575 0 575 575 0 575 0 0 2590 0 2590 -575 0 -575 0 0 290 0 290 865 0 865 0 0
-3170 0 -3170 -575 0 -575 0 0 -1440 0 -1440 285 0 285 0 0 1155 0 1155 290 0
290 0 0 -2020 0 -2020 -1150 0 -1150 0 0 -285 0 -285 1150 0 1150 0 0 -580 0
-580 288 2 287 3 2 11233 3 11232 -10660 0 -10660 0 0 -285z"/>
</g>
</svg>
