<?xml version="1.0" standalone="no"?>
<!DOCTYPE svg PUBLIC "-//W3C//DTD SVG 20010904//EN"
 "http://www.w3.org/TR/2001/REC-SVG-20010904/DTD/svg10.dtd">
<svg version="1.0" xmlns="http://www.w3.org/2000/svg"
 width="2362.000000pt" height="2362.000000pt" viewBox="0 0 2362.000000 2362.000000"
 preserveAspectRatio="xMidYMid meet">
<metadata>
Created by potrace 1.16, written by Peter Selinger 2001-2019
</metadata>
<g transform="translate(0.000000,2362.000000) scale(0.100000,-0.100000)"
fill="#000000" stroke="none">
<path d="M290 12095 l0 -11235 10655 0 10655 0 0 290 0 290 -6335 0 -6335 0 0
1150 0 1150 -1152 2 -1153 3 -3 578 -2 577 -285 0 -285 0 0 -865 0 -865 1150
0 1150 0 2 -578 c2 -317 2 -706 0 -864 l-2 -288 -285 0 -285 0 0 575 0 575
-1155 0 -1155 0 0 575 0 575 -575 0 -575 0 0 290 0 290 575 0 575 0 0 575 0
575 575 0 575 0 0 290 0 290 -575 0 -575 0 0 290 0 290 575 0 575 0 0 285 0
285 -1435 0 -1435 0 0 -285 0 -285 575 0 575 0 0 -865 0 -865 -290 0 -290 0 0
575 0 575 -575 0 -575 0 0 1150 0 1150 -290 0 -290 0 2 -1437 3 -1438 578 -3
577 -2 -2 -863 -3 -862 -862 -3 -863 -2 0 290 0 290 575 0 575 0 0 290 0 290
-865 0 -865 0 0 -865 0 -865 1730 0 1730 0 0 -575 0 -575 1150 0 1150 0 0
-290 0 -290 -2015 0 -2015 0 0 290 0 290 575 0 575 0 0 285 0 285 -865 0 -865
0 0 -575 0 -575 -865 0 -865 0 0 290 0 290 580 0 580 0 0 285 0 285 -580 0
-580 0 0 1440 0 1440 578 2 577 3 2 863 3 862 -290 0 -290 0 0 -575 0 -575
-290 0 -290 0 0 865 0 865 580 0 580 0 0 285 0 285 -580 0 -580 0 0 290 0 290
2020 0 2020 0 0 -290 0 -290 -575 0 -575 0 0 -285 0 -285 2015 0 2015 0 0 575
0 575 575 0 575 0 -2 288 -3 287 -860 0 -860 0 -3 -578 -2 -577 -865 0 -865 0
0 290 0 290 575 0 575 0 0 290 0 290 -1150 -3 -1150 -2 0 288 0 287 2880 0
2880 0 0 290 0 290 -575 0 -575 0 0 865 0 865 575 0 575 0 0 575 0 575 575 0
575 0 0 285 0 285 -575 0 -575 0 0 580 0 581 -287 -1 c-159 0 -676 0 -1150 0
l-863 0 0 1150 0 1150 -290 0 -290 0 0 -1150 0 -1150 -287 0 c-159 0 -417 0
-575 0 l-288 1 0 -866 0 -865 285 0 285 0 0 575 0 575 1445 0 1445 0 0 -865 0
-865 -580 0 -580 0 0 -862 c0 -475 0 -992 0 -1150 l0 -288 -865 0 -865 0 0
285 0 285 578 2 577 3 3 288 2 287 -865 0 -865 0 0 -575 0 -575 -1150 0 -1150
0 0 -575 0 -575 -290 0 c-159 0 -420 0 -580 0 -159 0 -418 0 -575 0 l-285 0 0
285 0 285 575 0 575 0 0 290 0 290 -865 0 -865 0 0 -575 0 -575 -290 0 -290 0
0 1440 0 1440 580 0 580 0 0 285 0 285 -580 0 -580 0 0 290 0 290 865 0 865 0
0 -865 0 -865 -575 0 -575 0 0 -290 0 -290 863 3 862 2 3 1438 2 1437 -575 0
-575 0 0 578 c0 317 -1 836 -3 1152 l-2 575 -287 3 -288 2 0 -1155 0 -1155
-290 0 -290 0 0 4610 0 4610 -285 0 -285 0 0 -11235z M1440 22465 l0 -866 288
1 c158 0 416 0 575 0 l287 0 0 -285 0 -285 -575 0 -575 0 0 -865 0 -865 290 0
291 0 -1 288 c0 158 0 416 0 575 l0 287 285 0 285 0 0 -865 0 -865 -575 0
-575 0 0 -860 0 -860 290 0 290 0 0 575 0 575 575 0 575 0 0 575 0 575 290 0
290 0 0 -1150 0 -1150 285 0 285 0 0 575 0 575 290 0 290 0 0 -575 0 -575 285
0 285 0 0 575 0 575 290 0 290 0 0 -865 0 -865 -1440 0 -1440 0 0 575 0 575
-290 0 -290 0 0 -1440 0 -1440 290 0 290 0 0 575 0 575 290 0 290 0 0 -1150 0
-1150 285 0 285 0 0 1150 0 1150 290 0 290 0 0 -1440 0 -1440 -575 0 -575 0 0
-865 0 -865 860 0 860 0 0 290 0 290 -575 0 -575 0 0 290 0 290 1730 0 1730 0
0 575 0 575 575 0 575 0 0 285 0 285 -865 0 -865 0 0 -575 0 -575 -865 0 -865
0 0 1440 0 1440 575 0 575 0 0 1730 0 1730 580 0 580 0 0 285 0 285 -865 0
-865 0 0 -575 0 -575 -865 0 -865 0 0 290 0 290 575 0 575 0 0 575 0 575 1155
0 1155 0 -2 288 -3 287 -577 3 -578 2 0 575 0 575 -285 0 -285 0 0 -575 0
-575 -575 0 -575 0 0 -580 0 -580 -290 0 -290 0 0 580 0 580 -285 0 -285 0 -2
-577 -3 -578 -287 -3 -288 -2 0 1155 0 1155 -575 0 -575 0 0 290 0 290 863 -2
862 -3 3 -577 2 -578 860 0 860 0 0 290 0 290 -575 0 -575 0 0 290 0 290 2015
0 2015 0 0 -290 0 -290 -575 0 -575 0 2 -287 3 -288 285 -2 c157 -2 414 -3
573 -3 l287 0 0 -575 0 -575 290 0 290 0 0 575 0 575 288 0 c158 0 416 0 575
0 l287 -1 0 291 0 290 -575 0 -575 0 0 290 0 290 865 0 865 0 0 -580 0 -580
285 0 285 0 0 580 0 580 290 0 290 0 0 -1155 0 -1155 575 0 575 0 0 -865 0
-865 -285 0 -285 0 0 575 0 575 -577 2 -578 3 -3 578 -2 577 -860 0 -860 0 0
-290 0 -290 575 0 575 0 0 -1440 0 -1440 -290 0 -290 0 0 575 0 575 -575 0
-575 0 0 290 0 290 575 0 575 0 0 285 0 285 -865 0 -865 0 0 -575 0 -575 -575
0 -575 0 0 -285 0 -285 1155 0 1155 0 0 -290 0 -290 -580 0 -580 0 3 -862 2
-863 863 -3 862 -2 0 290 0 290 -575 0 -575 0 0 290 0 290 865 0 865 0 0
-1155 0 -1155 1725 0 1725 0 0 -290 0 -290 -1150 0 -1150 0 0 -285 0 -285
1153 0 1152 0 0 -290 0 -290 -1727 0 -1728 0 0 -575 0 -575 -575 0 -575 0 0
-290 0 -291 288 1 c158 0 416 0 575 0 l287 0 0 -1440 0 -1440 -290 0 -290 0 0
580 0 580 -285 0 -285 0 0 -580 0 -580 -580 0 -580 0 0 -575 0 -575 -575 0
-575 0 0 -285 0 -285 575 0 575 0 0 -290 0 -290 -575 0 -575 0 0 -290 0 -290
575 0 575 0 0 -285 0 -285 -575 0 -575 0 0 -290 0 -290 865 0 865 0 0 1730 0
1730 290 0 290 0 0 -575 0 -575 285 0 285 0 0 575 0 575 1440 0 1440 0 0 -865
0 -865 -285 0 -285 0 0 288 c0 158 0 416 0 574 l1 288 -866 0 -865 0 0 -285 0
-285 575 0 575 0 0 -865 0 -865 -290 0 -290 0 0 575 0 575 -860 0 -860 0 0
-290 0 -290 575 0 575 0 0 -285 0 -285 -575 0 -575 0 0 -290 0 -290 1150 0
1150 0 0 -290 0 -290 -575 0 -575 0 0 -575 0 -575 -290 0 -290 0 0 575 0 575
-285 0 -285 0 0 -860 0 -860 2015 0 2015 0 0 285 0 285 -1155 0 -1155 0 0 290
0 290 1155 0 1155 0 0 285 0 285 -575 0 -575 0 -2 577 c-2 318 -2 707 0 866
l2 287 285 0 285 0 0 -575 0 -575 1730 0 1730 0 0 -290 0 -290 -575 0 -575 0
0 -575 0 -575 -290 0 -290 0 0 575 0 575 -290 0 -290 0 0 -860 0 -860 865 0
865 0 0 575 0 575 290 0 290 0 0 -575 0 -575 865 0 865 0 0 285 0 285 -580 0
-580 0 2 2018 3 2017 1152 3 1153 2 0 575 0 575 290 0 290 0 0 -575 0 -575
285 0 285 0 0 860 0 860 -1440 0 -1440 0 0 -285 0 -285 575 0 575 0 0 -290 0
-290 -1440 0 -1440 0 0 290 0 290 575 0 575 0 0 575 0 575 1730 0 1730 0 0
290 0 291 -287 -1 c-159 0 -417 0 -575 0 l-288 0 0 860 0 860 290 0 290 0 0
-575 0 -575 860 0 860 0 0 290 0 290 -575 0 -575 0 0 575 0 575 -865 0 -865 0
0 -575 0 -575 -575 0 -575 0 0 -290 0 -290 575 0 575 0 0 -285 0 -285 -287 0
c-159 0 -676 0 -1150 0 l-863 0 0 -580 0 -580 -290 0 -290 0 0 865 0 865 575
0 575 0 0 865 0 865 -285 0 -285 0 0 -575 0 -575 -290 0 -290 0 0 575 0 575
-865 0 -865 0 2 -287 3 -288 578 -3 577 -2 0 -285 0 -285 -1155 0 -1155 0 0
-290 0 -290 575 0 575 0 0 -287 c0 -159 0 -417 0 -576 l-1 -287 291 0 290 0 0
575 0 575 290 0 290 0 0 -865 0 -865 -580 0 -580 0 3 -1437 2 -1438 863 -3
862 -2 0 290 0 290 -575 0 -575 0 0 865 0 865 290 0 290 0 0 -575 0 -575 575
0 575 0 0 -865 0 -865 -1440 0 -1440 0 -2 2303 -3 2302 -285 0 -285 0 -3 -577
-2 -578 -865 0 -865 0 0 290 0 290 580 0 580 0 -2 287 -3 288 -577 3 -578 2 0
285 0 285 578 2 577 3 0 285 0 285 -577 3 -578 2 0 865 0 865 290 0 290 0 0
-580 0 -580 863 3 862 2 3 288 2 287 -575 0 -575 0 0 290 0 290 2590 0 2590 0
2 -577 3 -578 285 0 285 0 3 1153 2 1152 285 0 285 0 0 -575 0 -575 290 0 290
0 0 1440 0 1440 -287 -2 -288 -3 -3 -577 -2 -578 -1150 0 -1150 0 0 -285 0
-285 575 0 575 0 0 -290 0 -290 -865 0 -865 0 0 575 0 575 -285 0 -285 0 0
-575 0 -575 -290 0 -290 0 0 1155 0 1155 -1152 0 c-634 0 -1413 0 -1730 0
l-578 0 0 2015 0 2015 290 0 290 0 0 -575 0 -575 575 0 575 0 0 -290 0 -290
-575 0 -575 0 0 -865 0 -865 288 2 287 3 3 578 2 577 2590 0 2590 0 0 -865 0
-865 -290 0 -290 0 0 575 0 575 -285 0 -285 0 0 -575 0 -575 -290 0 -290 0 0
575 0 575 -1440 0 -1440 0 0 -290 0 -290 1155 0 1155 0 0 -575 0 -575 1440 0
1440 0 0 1155 0 1155 285 0 285 0 2 -577 3 -578 288 -3 287 -2 0 580 0 580
288 -2 287 -3 3 -1152 2 -1153 285 0 285 0 0 575 0 575 290 0 290 0 0 -575 0
-575 285 0 285 0 0 865 0 865 -575 0 -575 0 0 290 0 290 575 0 575 0 0 285 0
285 -575 0 -575 0 0 575 0 575 -285 0 -285 0 0 -575 0 -575 -865 0 -865 0 0
575 0 575 -290 0 -290 0 0 -575 0 -575 -2015 0 -2015 0 0 290 0 290 575 0 575
0 0 575 0 575 865 0 865 0 0 -290 0 -290 -575 0 -575 0 0 -285 0 -285 860 0
860 0 0 575 0 575 865 0 865 0 0 -575 0 -575 290 0 290 0 0 860 0 860 -2595 0
-2595 0 2 -575 3 -575 -287 0 -288 0 0 1155 0 1155 -575 0 -575 0 0 285 0 285
573 2 572 3 3 288 2 287 -575 0 -575 0 0 290 0 290 860 0 860 0 0 -292 c0
-161 1 -680 3 -1153 l2 -860 1438 -3 1437 -2 0 865 0 865 -285 0 -285 0 0
-575 0 -575 -865 0 -865 0 0 285 0 285 288 0 c158 0 416 0 575 0 l287 -1 0
291 0 290 -575 0 -575 0 0 290 0 290 1440 0 1440 0 0 -1155 0 -1155 865 0 865
0 0 290 0 290 -575 0 -575 0 0 865 0 865 865 0 865 0 0 -290 0 -290 -580 0
-580 0 2 -287 3 -288 578 -3 577 -2 0 -1150 0 -1150 860 0 860 0 0 285 0 285
-575 0 -575 0 0 290 0 290 575 0 575 0 0 290 0 290 -575 0 -575 0 0 285 0 285
288 0 c158 0 416 0 575 0 l287 -1 0 291 0 290 -575 0 -575 0 0 290 0 290 865
0 865 0 0 -2020 0 -2020 -575 0 -575 0 0 -285 0 -285 575 0 575 0 0 -2595 0
-2595 -290 0 -290 0 0 575 0 575 -860 0 -860 0 0 -285 0 -285 575 0 575 0 0
-290 0 -290 -575 0 -575 0 0 -285 0 -285 1150 0 1150 0 0 -290 0 -290 -575 0
-575 0 0 -290 0 -291 288 1 c158 0 416 0 575 0 l287 0 0 -862 0 -863 -575 3
-575 2 0 -290 0 -290 575 0 575 0 0 -290 0 -290 -575 0 -575 0 0 -285 0 -285
575 0 575 0 0 -865 0 -865 -290 0 -290 0 0 575 0 575 -285 0 -285 0 0 -575 0
-575 -1730 0 -1730 0 0 -1440 0 -1440 575 0 575 0 0 -575 0 -575 290 0 290 0
0 575 0 575 290 0 290 0 0 -575 0 -575 285 0 285 0 0 860 0 860 -1150 0 -1150
0 0 290 0 290 1150 0 1150 0 0 290 0 290 -1150 0 -1150 0 0 285 0 285 1440 0
1440 0 0 -575 0 -575 285 0 285 0 0 575 0 575 290 0 290 0 0 -865 0 -865 -575
0 -575 0 0 -285 0 -285 575 0 575 0 0 -290 0 -290 -575 0 -575 0 0 -285 0
-285 575 0 575 0 0 -580 0 -580 288 2 287 3 2 11233 3 11232 -10660 0 -10660
0 0 -865z"/>
</g>
</svg>
