<?xml version="1.0" standalone="no"?>
<!DOCTYPE svg PUBLIC "-//W3C//DTD SVG 20010904//EN"
 "http://www.w3.org/TR/2001/REC-SVG-20010904/DTD/svg10.dtd">
<svg version="1.0" xmlns="http://www.w3.org/2000/svg"
 width="2362.000000pt" height="2362.000000pt" viewBox="0 0 2362.000000 2362.000000"
 preserveAspectRatio="xMidYMid meet">
<metadata>
Created by potrace 1.16, written by Peter Selinger 2001-2019
</metadata>
<g transform="translate(0.000000,2362.000000) scale(0.100000,-0.100000)"
fill="#000000" stroke="none">
<path d="M290 12095 l0 -11235 10655 0 10655 0 0 290 0 290 -575 0 -575 0 0
290 0 290 575 0 575 0 0 285 0 285 -860 0 -860 0 0 -575 0 -575 -290 0 -290 0
0 575 0 575 -575 0 -575 0 0 290 0 290 575 0 575 0 0 575 0 575 290 0 290 0 0
-575 0 -575 860 0 860 0 0 285 0 285 -575 0 -575 0 0 290 0 290 575 0 575 0 0
290 0 290 -575 0 -575 0 0 285 0 285 575 0 575 0 0 2020 0 2020 -285 0 -285 0
0 -1155 0 -1155 -290 0 -290 0 0 575 0 575 -285 0 -285 0 0 -860 0 -860 575 0
575 0 0 -290 0 -290 -1155 0 -1155 0 2 -287 3 -288 578 -3 577 -2 0 -285 0
-285 -577 -2 -578 -3 -3 -578 -2 -577 -575 0 -575 0 0 -860 0 -860 575 0 575
0 0 -290 0 -290 -1440 0 -1440 0 0 575 0 575 -575 0 -575 0 0 290 0 290 865 0
865 0 0 -575 0 -575 285 0 285 0 0 1150 0 1150 580 0 580 0 -2 288 -3 287
-577 3 -578 2 0 285 0 285 578 2 577 3 3 288 2 287 -580 0 -580 0 2 288 3 287
1153 3 1152 2 0 285 0 285 -575 0 -575 0 0 865 0 865 285 0 285 0 0 -575 0
-575 290 0 290 0 0 575 0 575 575 0 575 0 0 290 0 290 -862 0 c-475 0 -992 0
-1150 0 l-288 0 0 1150 0 1150 -580 0 -580 0 0 865 0 865 290 0 290 0 0 -575
0 -575 290 0 290 0 0 860 0 860 -865 0 -865 0 0 -1150 0 -1150 -575 0 -575 0
0 -290 0 -291 288 1 c158 0 416 0 575 0 l287 0 0 -285 0 -285 -865 0 -865 0 0
575 0 575 -865 0 -865 0 2 -287 3 -288 569 -2 c313 -2 571 -4 573 -6 2 -2 4
-260 6 -573 l2 -569 1438 -3 1437 -2 0 575 0 575 290 0 290 0 0 -2015 0 -2015
-290 0 -290 0 0 575 0 575 -285 0 -285 0 0 -1150 0 -1150 -290 0 -290 0 0
1440 0 1440 575 0 575 0 0 290 0 290 -1437 -3 -1438 -2 -2 -290 c-2 -159 -3
-419 -3 -577 l0 -288 -285 0 -285 0 -2 577 -3 578 -285 0 -285 0 -3 -577 -2
-578 -285 0 -285 0 -2 578 -3 577 -862 2 -863 3 0 -580 0 -580 -290 0 -290 0
0 865 0 865 1730 0 1730 0 0 290 0 290 -575 0 -575 0 0 288 c0 158 0 416 0
574 l1 288 -291 0 -290 0 0 -575 0 -575 -290 0 -290 0 0 575 0 575 -285 0
-285 0 0 -575 0 -575 -290 0 -290 0 0 575 0 575 -285 0 -285 0 0 -2590 0
-2590 575 0 575 0 0 -1155 0 -1155 285 0 285 0 0 1440 0 1440 -575 0 -575 0 0
290 0 290 575 0 575 0 0 575 0 575 290 0 290 0 0 -575 0 -575 575 0 575 0 0
-1730 0 -1730 290 0 290 0 0 575 0 575 575 0 575 0 0 290 0 290 -575 0 -575 0
0 290 0 290 575 0 575 0 0 285 0 285 -575 0 -575 0 0 290 0 290 575 0 575 0 0
575 0 575 290 0 290 0 0 -2305 0 -2305 285 0 285 0 0 575 0 575 290 0 290 0 0
-865 0 -865 -865 0 -865 0 0 580 0 580 -287 -2 -288 -3 -2 -285 c-2 -157 -3
-417 -3 -577 l0 -293 -860 0 -860 0 0 578 c0 317 0 1096 0 1730 l0 1152 -290
0 -290 0 0 -1730 0 -1730 -865 0 -865 0 0 1155 0 1155 -575 0 -575 0 -2 1727
-3 1728 -285 2 c-157 2 -414 3 -572 3 l-288 0 0 285 0 285 575 0 575 0 0 290
0 290 -575 0 -575 0 0 285 0 285 288 0 c158 0 416 0 575 0 l287 -1 0 291 0
290 -1155 0 -1155 0 0 290 0 290 2305 0 2305 0 0 1150 0 1150 865 0 865 0 0
-575 0 -575 290 0 290 0 0 1150 0 1150 1150 0 1150 0 0 290 0 290 -575 0 -575
0 0 575 0 575 -575 0 -575 0 0 575 0 575 -865 0 -865 0 0 -285 0 -285 575 0
575 0 0 -575 0 -575 575 0 575 0 0 -290 0 -290 -575 0 -575 0 0 -575 0 -575
-287 -2 c-159 -2 -548 -2 -865 0 l-578 2 0 575 0 575 -285 0 -285 0 0 -1730 0
-1730 -290 0 -290 0 0 1155 0 1155 -285 0 -285 0 0 -1155 0 -1155 -290 0 -290
0 0 1155 0 1155 -1440 0 -1440 0 0 -865 0 -865 285 0 285 0 0 575 0 575 290 0
290 0 0 -575 0 -575 290 0 290 0 0 575 0 575 285 0 285 0 2 -287 c2 -159 2
-548 0 -865 l-2 -578 -1150 0 -1150 0 0 -865 0 -866 288 1 c158 0 416 0 575 0
l287 0 0 -2300 0 -2300 290 0 290 0 0 1150 0 1150 285 0 285 0 0 -1152 c0
-634 1 -1412 3 -1728 l2 -575 578 -3 577 -2 0 -285 0 -285 -577 -2 -578 -3 -3
-577 -2 -578 -575 0 -575 0 0 -285 0 -285 865 0 865 0 0 575 0 575 290 0 290
0 0 -575 0 -575 575 0 575 0 0 -290 0 -290 -1730 0 -1730 0 0 -285 0 -285
3170 0 3170 0 0 285 0 285 -1155 0 -1155 0 0 290 0 290 1443 0 1442 0 -3 -575
-2 -575 580 0 580 0 0 -290 0 -290 -4900 0 -4900 0 0 290 0 290 575 0 575 0 0
285 0 285 -860 0 -860 0 0 -575 0 -575 -1440 0 -1440 0 0 290 0 290 1150 0
1150 0 0 285 0 285 -575 0 -575 0 0 2020 0 2020 288 -2 287 -3 3 -1152 2
-1153 285 0 285 0 0 575 0 575 290 0 290 0 0 -865 0 -865 -575 0 -575 0 0
-285 0 -285 860 0 860 0 0 575 0 575 290 0 290 0 0 -575 0 -575 285 0 285 0 0
575 0 575 580 0 580 0 0 865 0 865 -290 0 -290 0 0 -575 0 -575 -290 0 -290 0
0 2305 0 2305 -575 -2 -575 -3 0 288 0 287 575 0 575 0 0 290 0 290 -575 0
-575 0 0 1725 0 1725 -1440 0 -1440 0 0 -285 0 -285 1155 0 1155 0 0 -2880 0
-2880 285 0 285 0 0 575 0 575 290 0 290 0 0 -2015 0 -2015 -290 0 -290 0 0
1150 0 1150 -285 0 -285 0 0 -575 0 -575 -290 0 -290 0 0 1150 0 1150 -285 0
-285 0 0 -575 0 -575 -290 0 -290 0 0 575 0 575 -290 0 -290 0 0 -575 0 -575
-575 0 -575 0 0 -285 0 -285 575 0 575 0 0 -1445 0 -1445 -285 0 -285 0 -2
577 -3 578 -287 3 -288 2 0 -865 0 -865 575 0 575 0 0 -290 0 -290 -575 0
-575 0 0 -575 0 -575 -290 0 -290 0 0 2015 0 2015 578 2 577 3 3 288 2 287
-580 0 -580 0 0 865 0 865 580 0 580 0 0 285 0 285 -580 0 -580 0 0 290 0 290
580 0 580 0 -2 288 -3 287 -285 2 c-157 2 -417 3 -577 3 l-293 0 0 1440 0
1440 290 0 290 0 0 -1155 0 -1155 865 0 865 0 0 290 0 290 -575 0 -575 0 0
285 0 285 285 0 c157 0 416 0 575 0 160 0 421 0 580 0 l290 0 0 -860 0 -860
-292 0 c-161 0 -421 -1 -578 -3 l-285 -2 -3 -288 -2 -287 865 0 865 0 0 1440
0 1440 -575 0 -575 0 0 290 0 290 575 0 575 0 0 285 0 285 -865 0 -865 0 0
-575 0 -575 -285 0 -285 0 0 288 c0 158 0 416 0 575 l1 287 -581 0 -580 0 0
290 0 290 580 0 580 0 0 285 0 285 -580 0 -580 0 0 290 0 290 580 0 580 0 -2
288 -3 287 -577 3 -578 2 0 1440 0 1440 290 0 290 0 0 -1155 0 -1155 1440 0
1440 0 0 865 0 865 -865 0 -865 0 0 -285 0 -285 578 -2 577 -3 3 -287 2 -288
-865 0 -865 0 0 288 c0 158 0 675 0 1150 l0 862 -580 0 -580 0 0 865 0 865
290 0 290 0 0 -575 0 -575 290 0 291 0 -1 288 c0 158 0 416 0 575 l0 287 575
0 575 0 0 290 0 290 -1155 0 -1155 0 0 1150 0 1150 -285 0 -285 0 0 -11235z
M1440 22465 l0 -865 288 2 287 3 3 578 2 577 285 0 285 0 2 -577 3 -578 578
-3 577 -2 -2 -863 -3 -862 -577 -3 -578 -2 0 -285 0 -285 580 0 580 0 0 -290
0 -290 -580 0 -580 0 0 -285 0 -285 1155 0 1155 0 0 -1440 0 -1440 -577 0
c-318 0 -837 -1 -1153 -3 l-575 -2 -3 -287 -2 -288 1440 0 1440 0 0 1730 0
1730 290 0 290 0 0 -1155 0 -1155 285 0 285 0 0 1730 0 1730 865 0 865 0 0
-290 0 -290 -575 0 -575 0 0 -860 0 -860 290 0 290 0 0 575 0 575 865 0 865 0
0 -290 0 -290 -580 0 -581 0 1 -287 c0 -159 0 -417 0 -575 l0 -288 -575 0
-575 0 0 -290 0 -290 1440 0 1440 0 0 290 0 290 -575 0 -575 0 0 290 0 290
575 0 575 0 0 575 0 575 290 0 290 0 0 -575 0 -575 575 0 575 0 0 -580 0 -580
288 2 287 3 2 863 3 862 -580 0 -580 0 0 865 0 865 1155 0 1155 0 0 285 0 285
-1440 0 -1440 0 0 -575 0 -575 -865 0 -865 0 0 575 0 575 -575 0 -575 0 -2
578 -3 577 -577 3 -578 2 0 285 0 285 575 0 c316 0 708 0 870 0 162 0 554 0
870 0 l575 0 0 -285 0 -285 -577 -2 -578 -3 -3 -287 -2 -288 580 0 580 0 0
-575 0 -575 285 0 285 0 0 1440 0 1440 -2015 0 -2015 0 0 -865 0 -865 575 0
575 0 0 -290 0 -290 -575 0 -575 0 0 -575 0 -575 -865 0 -865 0 0 290 0 290
575 0 575 0 0 1440 0 1440 -285 0 -285 0 0 -1155 0 -1155 -290 0 -290 0 0
1155 0 1155 -575 0 -575 0 0 290 0 290 3745 0 3745 0 0 -1155 0 -1155 285 0
285 0 0 1155 0 1155 290 0 290 0 0 -1155 0 -1155 288 2 287 3 2 575 c2 316 3
835 3 1153 l0 577 285 0 285 0 2 -577 3 -578 285 0 285 0 3 578 2 577 865 0
865 0 0 -290 0 -290 -577 -2 -578 -3 -2 -285 c-2 -157 -3 -414 -3 -572 l0
-288 -575 0 -575 0 0 -290 0 -290 865 0 865 0 0 575 0 575 288 0 c158 0 416 0
575 0 l287 -1 0 581 0 580 290 0 290 0 0 -580 0 -580 285 0 285 0 0 580 0 580
290 0 290 0 0 -865 0 -865 -1150 0 -1150 0 0 -290 0 -290 575 0 575 0 0 -290
0 -290 -1155 0 -1155 0 0 -285 0 -285 580 0 580 0 0 -290 0 -290 -580 0 -580
0 0 -285 0 -285 865 0 865 0 0 575 0 575 575 0 575 0 0 575 0 575 865 0 865 0
0 -290 0 -290 -575 0 -575 0 0 -285 0 -285 1155 0 1155 0 0 -290 0 -290 -1730
0 -1730 0 0 -285 0 -285 1730 0 1730 0 0 -290 0 -290 -580 0 -580 0 0 -285 0
-285 578 -2 577 -3 3 -287 2 -288 -865 0 -865 0 0 575 0 575 -1440 0 -1440 0
0 -285 0 -285 1150 0 1150 0 0 -290 0 -290 -575 0 -575 0 0 -290 0 -290 2015
0 2015 0 0 580 0 580 575 0 575 0 0 285 0 285 -575 0 -575 0 0 1150 0 1150
-575 0 -575 0 0 580 0 580 -575 0 -575 0 0 865 0 865 285 0 285 0 2 -577 3
-578 288 -3 287 -2 0 580 0 580 865 0 865 0 0 -290 0 -290 -575 0 -575 0 0
-290 0 -290 575 0 575 0 0 -285 0 -285 -575 0 -575 0 0 -290 0 -290 575 0 575
0 0 -575 0 -575 285 0 285 0 0 1730 0 1730 290 0 290 0 0 -2020 0 -2020 -575
0 -575 0 0 -285 0 -285 575 0 575 0 0 -865 0 -865 -575 0 -575 0 0 -290 0
-290 575 0 575 0 0 -285 0 -285 -287 0 c-159 0 -676 0 -1150 0 l-863 0 0 -865
0 -865 285 0 285 0 0 575 0 575 290 0 290 0 0 -1150 0 -1150 285 0 285 0 0
1150 0 1150 290 0 290 0 0 -2015 0 -2015 -290 0 -290 0 0 575 0 575 -575 0
-575 0 0 575 0 575 -285 0 -285 0 0 -865 0 -866 288 1 c158 0 416 0 575 0
l287 0 0 -285 0 -285 -865 0 -865 0 0 2305 0 2305 -2015 0 -2015 0 0 -1155 0
-1155 -290 0 -290 0 0 1155 0 1155 -287 -2 -288 -3 0 -1153 0 -1152 -862 0
-863 0 0 288 c0 158 0 416 0 575 l1 287 -291 0 -290 0 0 -860 0 -860 2015 0
2015 0 0 1150 0 1150 1440 0 1440 0 0 -2305 0 -2305 1730 0 1730 0 0 -4610 0
-4610 288 2 287 3 2 11233 3 11232 -10660 0 -10660 0 0 -865z"/>
</g>
</svg>
