<?xml version="1.0" standalone="no"?>
<!DOCTYPE svg PUBLIC "-//W3C//DTD SVG 20010904//EN"
 "http://www.w3.org/TR/2001/REC-SVG-20010904/DTD/svg10.dtd">
<svg version="1.0" xmlns="http://www.w3.org/2000/svg"
 width="2362.000000pt" height="2362.000000pt" viewBox="0 0 2362.000000 2362.000000"
 preserveAspectRatio="xMidYMid meet">
<metadata>
Created by potrace 1.16, written by Peter Selinger 2001-2019
</metadata>
<g transform="translate(0.000000,2362.000000) scale(0.100000,-0.100000)"
fill="#000000" stroke="none">
<path d="M290 12095 l0 -11235 10655 0 10655 0 0 1440 0 1440 -285 0 -285 0 0
-1150 0 -1150 -290 0 -290 0 0 1150 0 1150 -285 0 -285 0 0 -1150 0 -1150
-290 0 -290 0 0 2015 0 2015 290 0 290 0 0 -575 0 -575 860 0 860 0 0 290 0
290 -575 0 -575 0 0 285 0 285 575 0 575 0 0 290 0 290 -1150 0 -1150 0 0 290
0 290 1150 0 1150 0 0 1440 0 1440 -862 0 c-475 0 -992 0 -1150 0 l-288 0 0
575 0 575 -287 -2 -288 -3 -3 -1152 -2 -1153 -285 0 -285 0 -2 1153 -3 1152
-862 3 -863 2 0 -865 0 -865 285 0 285 0 0 575 0 575 290 0 290 0 0 -1150 0
-1150 865 0 865 0 0 575 0 575 865 0 865 0 0 -290 0 -290 -575 0 -575 0 0
-285 0 -285 575 0 575 0 0 -290 0 -290 -2020 0 -2020 0 0 575 0 575 -575 0
-575 0 0 580 0 580 -285 0 -285 0 0 -580 0 -580 -290 0 -290 0 0 1440 0 1440
290 0 290 0 0 -575 0 -575 285 0 285 0 0 1155 0 1155 290 0 290 0 0 -580 0
-580 1440 0 1440 0 0 290 0 290 -1155 0 -1155 0 0 575 0 575 -1150 0 -1150 0
0 290 0 290 1150 0 1150 0 0 575 0 575 290 0 290 0 0 -575 0 -575 290 0 290 0
0 575 0 575 865 0 865 0 0 -865 0 -865 -290 0 -290 0 0 575 0 575 -290 0 -290
0 0 -575 0 -575 -575 0 -575 0 0 -285 0 -285 1730 0 1730 0 0 -865 0 -865
-290 0 -290 0 0 575 0 575 -285 0 -285 0 0 -865 0 -865 860 0 860 0 0 1440 0
1440 -575 0 -575 0 0 290 0 290 575 0 575 0 0 865 0 865 -285 0 -285 0 0 -580
0 -580 -290 0 -290 0 0 580 0 581 -287 -1 c-159 0 -937 0 -1730 0 l-1443 0 0
285 0 285 578 2 577 3 3 288 2 287 -865 0 -865 0 0 -1155 0 -1155 -865 0 -865
0 0 865 0 865 290 0 290 0 0 -575 0 -575 285 0 285 0 0 865 0 865 -1150 0
-1150 0 0 865 0 865 575 0 575 0 0 285 0 285 -575 0 -575 0 0 865 0 865 1440
0 1440 0 0 -865 0 -865 -290 0 -290 0 0 575 0 575 -865 0 -865 0 0 -285 0
-285 580 0 580 0 0 -575 0 -575 860 0 860 0 0 1150 0 1150 1445 0 1445 0 0
-1725 0 -1725 285 0 285 0 0 2015 0 2015 -1150 0 -1150 0 0 575 0 575 -865 0
-865 0 0 -290 0 -291 288 1 c158 0 416 0 575 0 l287 0 0 -285 0 -285 -865 0
-865 0 0 575 0 575 -285 0 -285 0 0 -575 0 -575 -865 0 -865 0 0 575 0 575
-290 0 -290 0 0 -1730 0 -1730 -575 0 -575 0 0 -285 0 -285 575 0 575 0 0
-2020 0 -2020 -285 0 -285 0 0 578 c0 317 0 1096 0 1730 l0 1152 -580 0 -580
0 0 1440 0 1440 290 0 290 0 0 -575 0 -575 290 0 290 0 -3 863 -2 862 -1152 3
-1153 2 0 285 0 285 575 0 575 0 0 290 0 290 -860 0 -860 0 0 -1440 0 -1440
285 0 285 0 0 575 0 575 290 0 290 0 0 -865 0 -865 -575 0 -575 0 0 -1150 0
-1150 -865 0 -865 0 0 290 0 290 575 0 575 0 0 1435 0 1435 -575 0 -575 0 -2
578 -3 577 -577 3 -578 2 0 285 0 285 578 2 577 3 3 288 2 287 -865 0 -865 0
0 -575 0 -575 -575 0 -575 0 0 -865 0 -865 285 0 285 0 0 575 0 575 865 0 865
0 0 -290 0 -290 -575 0 -575 0 0 -285 0 -285 1150 0 1150 0 0 -865 0 -865
-575 0 -575 0 0 -1150 0 -1150 -290 0 -290 0 0 1440 0 1440 580 0 580 0 0 285
0 285 -865 0 -865 0 0 -1150 0 -1150 -575 0 -575 0 0 -290 0 -290 575 0 575 0
0 -1150 0 -1150 285 0 285 0 0 575 0 575 580 0 580 0 0 575 0 575 1440 0 1440
0 0 -285 0 -285 -577 0 c-318 0 -837 -1 -1153 -3 l-575 -2 -3 -287 -2 -288
580 0 580 0 0 -865 0 -865 -290 0 -290 0 0 575 0 575 -290 0 -290 0 0 -575 0
-575 -285 0 -285 0 0 575 0 575 -290 0 -290 0 0 -1150 0 -1150 -1150 0 -1150
0 0 -575 0 -575 -290 0 -290 0 0 865 0 865 1150 0 1150 0 0 285 0 285 -575 0
-575 0 0 1155 0 1155 -285 0 -285 0 0 -580 0 -580 -290 0 -290 0 0 580 0 581
-287 -1 c-159 0 -417 0 -575 0 l-288 0 0 285 0 285 575 0 575 0 0 290 0 290
-575 0 -575 0 0 865 0 865 290 0 290 0 0 -575 0 -575 860 0 860 0 0 285 0 285
-575 0 -575 0 0 290 0 290 575 0 575 0 0 285 0 285 -575 0 -575 0 0 575 0 575
-285 0 -285 0 0 -575 0 -575 -290 0 -290 0 0 575 0 575 -575 0 -575 0 0 290 0
290 1150 0 1150 0 0 865 0 865 -285 0 -285 0 0 -575 0 -575 -865 0 -865 0 0
288 c0 158 0 416 0 575 l1 287 -291 0 -290 0 0 -1440 0 -1440 575 0 575 0 0
-865 0 -865 -575 0 -575 0 0 -285 0 -285 575 0 575 0 0 -865 0 -865 -285 0
-285 0 0 288 c0 158 -1 415 -3 572 l-2 285 -287 3 -288 2 0 -865 0 -865 575 0
575 0 0 -575 0 -575 290 0 290 0 0 575 0 575 290 0 290 0 0 -575 0 -575 575 0
575 0 0 -290 0 -290 -575 0 -575 0 0 -1440 0 -1440 575 0 575 0 0 -865 0 -865
-865 0 -865 0 0 290 0 290 575 0 575 0 0 290 0 290 -862 -3 -863 -2 -3 -862
-2 -863 1155 0 1155 0 0 -865 0 -865 -290 0 -290 0 0 575 0 575 -285 0 -285 0
0 -865 0 -865 1435 0 1435 0 0 290 0 290 -575 0 -575 0 0 865 0 865 290 0 290
0 0 -575 0 -575 285 0 285 0 0 575 0 575 580 0 580 0 0 285 0 285 -580 0 -580
0 0 580 0 580 -285 0 -285 0 0 -580 0 -580 -290 0 -290 0 0 1440 0 1440 290 0
290 0 0 -575 0 -575 285 0 285 0 0 575 0 575 578 2 c317 2 706 2 864 0 l288
-2 2 -573 3 -572 288 -3 287 -2 0 865 0 865 -575 0 -575 0 0 290 0 290 2880 0
2880 0 0 285 0 285 -1730 0 -1730 0 0 865 0 865 290 0 290 0 0 -575 0 -575
285 0 285 0 0 1440 0 1440 -575 0 -575 0 0 865 0 865 290 0 290 0 0 -575 0
-575 575 0 575 0 0 -1730 0 -1730 865 0 865 0 0 1150 0 1150 285 0 285 0 0
-287 c0 -159 0 -935 0 -1725 l0 -1438 580 0 580 0 0 -290 0 -290 -580 0 -581
0 1 -287 c0 -159 0 -417 0 -575 l0 -288 -575 0 -575 0 0 -290 0 -290 575 0
575 0 0 -285 0 -285 -287 0 c-897 -1 -1427 1 -1430 3 -2 2 -4 260 -6 573 l-2
569 -577 3 -578 2 0 285 0 285 578 0 c317 0 836 1 1152 3 l575 2 3 288 2 287
-2015 0 -2015 0 0 -290 0 -291 288 1 c158 0 416 0 575 0 l287 0 0 -285 0 -285
-575 0 -575 0 0 -290 0 -290 575 0 575 0 0 -287 0 -288 -1157 2 c-637 2 -1285
3 -1440 3 l-283 0 0 575 0 575 -290 0 -290 0 0 -865 0 -865 1155 0 1155 0 0
-575 0 -575 285 0 285 0 0 575 0 575 575 0 575 0 0 575 0 575 290 0 290 0 0
-575 0 -575 575 0 575 0 0 -575 0 -575 290 0 290 0 0 575 0 575 288 0 287 0
-3 -575 -2 -575 1155 0 1155 0 0 -575 0 -575 1150 0 1150 0 0 -1445 0 -1445
-285 0 -285 0 0 1155 0 1155 -290 0 -290 0 0 -1440 0 -1440 575 0 575 0 0
-290 0 -290 -1150 0 -1150 0 0 -285 0 -285 1150 0 1150 0 0 -290 0 -290 -1440
0 -1440 0 0 2015 0 2015 290 0 290 0 0 -1150 0 -1150 285 0 285 0 0 1440 0
1440 -575 0 -575 0 0 575 0 575 -2305 0 -2305 0 0 290 0 290 580 0 580 0 0
285 0 285 -865 0 -865 0 0 -1150 0 -1150 -575 0 -575 0 0 -290 0 -290 860 0
860 0 0 580 0 580 865 0 865 0 0 -290 0 -290 -575 0 -575 0 0 -575 0 -575
-575 0 -575 0 0 -580 0 -580 -290 0 -290 0 0 580 0 580 -1150 0 -1150 0 0 285
0 285 575 0 575 0 0 290 0 290 -575 0 -575 0 0 290 0 290 1150 0 1150 0 0 285
0 285 -575 0 -575 0 0 575 0 575 -290 0 -290 0 0 -575 0 -575 -575 0 -575 0 0
-1440 0 -1440 1155 0 1155 0 0 -575 0 -575 575 0 575 0 0 -290 0 -290 -575 0
-575 0 0 -285 0 -285 860 0 860 0 0 1150 0 1150 580 0 581 0 -1 287 c0 159 0
417 0 576 l0 287 1150 0 1150 0 0 290 0 290 -575 0 -575 0 0 290 0 290 865 0
865 0 0 -2595 0 -2595 -290 0 -290 0 0 1730 0 1730 -287 -2 -288 -3 -2 -285
c-2 -157 -3 -417 -3 -577 l0 -293 -285 0 -285 0 0 580 0 580 -287 -2 -288 -3
-3 -577 -2 -578 -575 0 -575 0 0 -285 0 -285 1153 0 1152 0 0 -290 0 -290
-577 0 -578 0 0 -285 0 -285 575 0 574 0 3 -290 3 -290 -862 0 -863 0 0 288
c0 158 0 416 0 574 l1 288 -291 0 -290 0 0 -575 0 -575 -1440 0 -1440 0 0 575
0 575 -290 0 -291 0 1 -288 c0 -158 0 -416 0 -574 l0 -288 -285 0 -285 0 0
575 0 575 -290 0 -290 0 0 -575 0 -575 -865 0 -865 0 0 575 0 575 -860 0 -860
0 0 -285 0 -285 575 0 575 0 0 -290 0 -290 -2020 0 -2020 0 0 290 0 290 1155
0 1155 0 0 285 0 285 -1155 0 -1155 0 0 2020 0 2020 290 0 290 0 0 -580 0
-580 575 0 575 0 0 -285 0 -285 -575 0 -575 0 0 -290 0 -290 575 0 575 0 0
-290 0 -290 -575 0 -575 0 0 -285 0 -285 2015 0 2015 0 0 285 0 285 -575 0
-575 0 0 290 0 290 865 0 865 0 0 -1150 0 -1150 285 0 285 0 0 575 0 575 1155
0 1155 0 0 285 0 285 -1152 2 -1153 3 -3 578 -2 577 -1435 0 -1435 0 -2 -577
-3 -578 -287 -3 -288 -2 0 1730 0 1730 -290 0 -290 0 0 -575 0 -575 -285 0
-285 0 0 288 c0 158 0 416 0 575 l1 287 -581 0 -580 0 0 290 0 290 580 0 580
0 -3 863 -2 862 -285 0 -285 0 -3 -577 -2 -578 -290 0 -290 0 0 865 0 865
1155 0 1155 0 0 290 0 290 -575 0 -575 0 0 285 0 285 288 0 c158 0 415 1 572
3 l285 2 3 288 2 287 -865 0 -865 0 0 -575 0 -575 -290 0 -290 0 0 865 0 865
1155 0 1155 0 0 285 0 285 -575 0 -575 0 0 575 0 575 -290 0 -290 0 0 -575 0
-575 -290 0 -290 0 0 2595 0 2595 580 0 580 0 0 285 0 285 -580 0 -580 0 0
2305 0 2305 -285 0 -285 0 0 -11235z M1440 23045 l0 -285 575 0 575 0 2 -577
3 -578 285 0 285 0 3 578 2 577 865 0 865 0 0 -580 0 -580 285 0 285 0 0 580
0 580 1440 0 1440 0 0 -577 c0 -318 0 -838 0 -1155 l0 -578 290 0 290 0 0
1155 0 1155 1440 0 1440 0 0 -580 0 -580 288 2 287 3 3 578 2 577 860 0 860 0
0 -292 c0 -161 1 -421 3 -578 l2 -285 288 -3 287 -2 0 580 0 580 2015 0 2015
0 2 -577 3 -578 1438 -2 1437 -3 0 290 0 290 -1150 0 -1150 0 0 290 0 290
1440 0 1440 0 0 -865 0 -865 -575 0 -575 0 0 -290 0 -290 575 0 575 0 0 -865
0 -865 -290 0 -290 0 0 575 0 575 -285 0 -285 0 0 -1725 0 -1725 -865 0 -865
0 0 1725 0 1725 -865 0 -865 0 0 -860 0 -860 290 0 290 0 0 575 0 575 285 0
285 0 0 -865 0 -865 -2305 0 -2305 0 0 -285 0 -285 2305 0 2305 0 2 -577 3
-578 1438 -3 1437 -2 0 1155 0 1155 290 0 290 0 0 -8645 0 -8645 288 2 287 3
2 11233 3 11232 -10660 0 -10660 0 0 -285z"/>
</g>
</svg>
