<?xml version="1.0" standalone="no"?>
<!DOCTYPE svg PUBLIC "-//W3C//DTD SVG 20010904//EN"
 "http://www.w3.org/TR/2001/REC-SVG-20010904/DTD/svg10.dtd">
<svg version="1.0" xmlns="http://www.w3.org/2000/svg"
 width="2362.000000pt" height="2362.000000pt" viewBox="0 0 2362.000000 2362.000000"
 preserveAspectRatio="xMidYMid meet">
<metadata>
Created by potrace 1.16, written by Peter Selinger 2001-2019
</metadata>
<g transform="translate(0.000000,2362.000000) scale(0.100000,-0.100000)"
fill="#000000" stroke="none">
<path d="M290 12095 l0 -11235 10655 0 10655 0 0 290 0 290 -2305 0 -2305 0 0
290 0 290 580 0 580 0 0 860 0 860 -290 0 -290 0 0 -575 0 -575 -290 0 -290 0
0 575 0 575 -575 0 -575 0 0 1155 0 1155 -285 0 -285 0 0 -575 0 -575 -577 -2
-578 -3 -2 -863 -3 -862 290 0 290 0 0 575 0 575 290 0 290 0 0 -575 0 -575
575 0 575 0 0 -865 0 -865 -865 0 -865 0 0 290 0 290 575 0 575 0 0 285 0 285
-865 0 -865 0 2 -575 3 -575 -2592 0 -2593 0 0 575 0 575 -1155 0 -1155 0 0
290 0 290 580 0 580 0 0 285 0 285 -577 2 -578 3 -3 288 -2 287 1445 0 1445 0
0 -290 0 -290 -580 0 -580 0 0 -285 0 -285 580 0 580 0 0 -575 0 -575 285 0
285 0 0 575 0 575 290 0 290 0 0 -575 0 -575 285 0 285 0 0 1150 0 1150 290 0
290 0 0 -1150 0 -1150 290 0 290 0 0 863 c0 474 0 991 0 1150 l0 287 285 0
285 0 0 -1150 0 -1150 290 0 290 0 0 1440 0 1440 -1440 0 -1440 0 0 -580 0
-580 -290 0 -290 0 0 865 0 865 1730 0 1730 0 0 580 0 580 285 0 285 0 0 -292
c0 -161 1 -421 3 -578 l2 -285 288 -3 287 -2 0 865 0 865 -865 0 -865 0 0
-575 0 -575 -285 0 -285 0 -2 288 c-2 158 -2 547 0 864 l2 578 1440 0 1440 0
0 -575 0 -575 285 0 285 0 0 2015 0 2015 -1150 0 -1150 0 0 285 0 285 285 0
c157 0 935 0 1730 0 795 0 1573 0 1730 0 l285 0 0 -575 0 -575 575 0 575 0 0
-575 0 -575 290 0 290 0 0 865 0 865 -575 0 -575 0 0 285 0 285 288 0 c158 0
416 0 575 0 l287 -1 0 291 0 290 -2305 0 -2305 0 0 575 0 575 -290 0 -291 0 1
-287 c0 -159 0 -417 0 -575 l0 -288 -1725 0 -1725 0 0 -290 0 -291 288 1 c158
0 416 0 575 0 l287 0 0 -575 0 -575 288 2 287 3 2 285 c2 157 3 414 3 573 l0
287 285 0 285 0 0 -575 0 -575 575 0 575 0 0 -285 0 -285 -287 0 c-159 0 -935
0 -1725 0 l-1438 0 0 -290 0 -290 2015 0 2015 0 0 575 0 575 290 0 290 0 0
-865 0 -865 -1730 0 -1730 0 0 -575 0 -575 -290 0 -290 0 0 575 0 575 -285 0
-285 0 0 -575 0 -575 -290 0 -290 0 0 575 0 575 -285 0 -285 0 0 -575 0 -575
-290 0 -290 0 0 865 0 865 575 0 575 0 0 290 0 290 -862 -3 -863 -2 -3 -577
-2 -578 -575 0 -575 0 0 -860 0 -860 290 0 290 0 0 575 0 575 285 0 285 0 0
-577 c0 -318 1 -837 3 -1153 l2 -575 287 -3 288 -2 0 580 0 580 1440 0 1440 0
0 -290 0 -290 -1150 0 -1150 0 0 -575 0 -575 -865 0 -865 0 0 575 0 575 -290
0 -290 0 0 -575 0 -575 -290 0 -290 0 0 1725 0 1725 -285 0 -285 0 0 -575 0
-575 -575 0 -575 0 0 -285 0 -285 575 0 575 0 0 -290 0 -290 -575 0 -575 0 0
-290 0 -290 575 0 575 0 0 -865 0 -865 -290 0 -290 0 0 580 0 580 -860 0 -860
0 0 -290 0 -290 575 0 575 0 0 -290 0 -290 -575 0 -575 0 0 -285 0 -285 1150
0 1150 0 0 -575 0 -575 1150 0 1150 0 0 -290 0 -290 -1440 0 -1440 0 0 575 0
575 -285 0 -285 0 0 -575 0 -575 -290 0 -290 0 0 575 0 575 -285 0 -285 0 0
-575 0 -575 -1445 0 -1445 0 0 865 0 865 580 0 581 0 -1 287 c0 159 0 417 0
576 l0 287 285 0 285 0 0 -865 0 -865 -575 0 -575 0 0 -285 0 -285 865 0 865
0 0 1440 0 1440 -865 0 -865 0 0 -580 0 -580 -290 0 -290 0 0 865 0 865 1730
0 1730 0 0 290 0 290 -1730 0 -1730 0 0 865 0 865 580 0 580 0 -3 863 -2 862
-285 0 -285 0 -3 -577 -2 -578 -290 0 -290 0 0 1440 0 1440 290 0 290 0 0
-575 0 -575 288 2 287 3 2 863 3 862 -580 0 -580 0 0 290 0 290 865 0 865 0 0
-1155 0 -1155 290 0 290 0 0 575 0 575 290 0 290 0 0 -575 0 -575 285 0 285 0
0 575 0 575 290 0 290 0 0 -862 0 -863 -1152 0 -1153 0 -3 -862 -2 -863 580 0
580 0 0 -290 0 -290 -1155 0 -1155 0 0 -285 0 -285 1440 0 1440 0 0 575 0 575
575 0 575 0 0 285 0 285 -1150 0 -1150 0 0 290 0 290 1725 0 1725 0 0 290 0
290 -575 -2 -575 -3 0 863 0 862 290 0 290 0 0 -575 0 -575 575 0 575 0 0
-575 0 -575 290 0 290 0 0 575 0 575 575 0 575 0 0 1730 0 1730 290 0 290 0 0
-1730 0 -1730 860 0 860 0 0 290 0 290 -575 0 -575 0 0 865 0 865 1155 0 1155
0 0 285 0 285 -580 0 -580 0 0 575 0 575 -285 0 -285 0 0 -575 0 -575 -290 0
-290 0 0 1155 0 1155 -285 0 -285 0 0 -580 0 -580 -290 0 -290 0 0 580 0 580
-287 -2 -288 -3 -2 -575 c-2 -316 -3 -835 -3 -1152 l0 -578 -285 0 -285 0 0
575 0 575 -865 0 -865 0 0 -860 0 -860 285 0 285 0 0 575 0 575 290 0 290 0 0
-575 0 -575 575 0 575 0 2 -577 c2 -318 2 -707 0 -865 l-2 -288 -865 0 -865 0
0 285 0 285 578 2 577 3 3 288 2 287 -1730 0 -1730 0 0 290 0 290 575 0 575 0
0 285 0 285 -860 0 -860 0 0 -575 0 -575 -290 0 -290 0 0 865 0 865 1150 0
1150 0 0 285 0 285 -575 0 -575 0 0 290 0 290 575 0 575 0 0 575 0 575 290 0
290 0 0 -575 0 -575 865 0 865 0 -2 288 -3 287 -577 3 -578 2 0 285 0 285
1155 0 1155 0 0 1440 0 1440 -290 0 -290 0 0 -575 0 -575 -575 0 -575 0 0
-285 0 -285 575 0 575 0 0 -290 0 -290 -865 0 -865 0 0 575 0 575 -575 0 -575
0 0 290 0 290 575 0 575 0 0 285 0 285 -860 0 -860 0 0 -860 0 -860 575 0 575
0 0 -290 0 -290 -575 0 -575 0 0 -575 0 -575 -290 0 -290 0 0 575 0 575 -285
0 -285 0 0 -575 0 -575 -577 -2 -578 -3 -3 -287 -2 -288 580 0 580 0 -2 -287
-3 -288 -577 -3 -578 -2 0 -575 0 -575 -285 0 -285 0 0 578 c0 317 -1 836 -3
1152 l-2 575 -287 3 -288 2 0 -1155 0 -1155 -290 0 -290 0 0 1440 0 1440 578
2 577 3 0 285 0 285 -577 3 -578 2 0 290 0 290 865 0 865 0 2 -577 3 -578 288
-3 287 -2 0 580 0 580 575 0 575 0 0 285 0 285 -575 0 -575 0 0 290 0 290 575
0 575 0 0 575 0 575 575 0 575 0 0 575 0 575 290 0 290 0 0 -575 0 -575 575 0
575 0 0 -575 0 -575 290 0 290 0 0 575 0 575 865 0 865 0 0 -1730 0 -1730 285
0 285 0 0 580 0 580 290 0 290 0 0 -580 0 -580 285 0 285 0 0 865 0 865 -575
0 -575 0 0 865 0 865 290 0 290 0 0 -575 0 -575 575 0 575 0 0 -1440 0 -1440
-287 0 c-159 0 -417 0 -575 0 l-288 1 0 -291 0 -290 575 0 575 0 0 -575 0
-575 290 0 291 0 -1 288 c0 158 0 416 0 575 l0 287 285 0 285 0 0 -1150 0
-1150 290 0 290 0 0 1150 0 1150 285 0 285 0 0 -287 c0 -159 0 -417 0 -575
l-1 -288 291 0 290 0 0 575 0 575 290 0 290 0 0 -575 0 -575 1440 0 1440 0 0
285 0 285 -580 0 -580 0 0 865 0 865 1155 0 1155 0 0 865 0 865 -290 0 -290 0
0 -575 0 -575 -865 0 -865 0 0 575 0 575 -285 0 -285 0 0 -1730 0 -1730 -290
0 -290 0 0 2020 0 2020 575 0 575 0 0 285 0 285 -575 0 -575 0 0 290 0 290
575 0 575 0 0 575 0 575 290 0 290 0 0 -575 0 -575 290 0 290 0 0 1150 0 1150
285 0 285 0 0 -1440 0 -1440 -575 0 -575 0 0 -860 0 -860 290 0 290 0 0 575 0
575 575 0 575 0 0 2015 0 2015 -3170 0 -3170 0 2 -287 3 -288 2015 -2 c1108
-2 2144 -3 2303 -3 l287 0 0 -285 0 -285 -575 0 -575 0 0 -580 0 -580 -290 0
-290 0 0 580 0 580 -862 -2 -863 -3 0 -285 0 -285 578 -3 577 -2 0 -290 0
-290 -580 0 -580 0 0 -285 0 -285 580 0 580 0 0 -2015 0 -2015 -290 0 -290 0
0 575 0 575 -287 -2 -288 -3 -2 -285 c-2 -157 -3 -414 -3 -572 l0 -288 -285 0
-285 0 0 575 0 575 -290 0 -290 0 0 -575 0 -575 -285 0 -285 0 -2 288 c-2 158
-2 547 0 865 l2 577 575 0 575 0 0 285 0 285 -575 0 -575 0 0 290 0 290 863 0
862 0 -3 -575 -2 -575 290 0 290 0 0 860 0 860 -575 0 -575 0 0 575 0 575
-290 0 -290 0 0 -575 0 -575 -865 0 -865 0 0 290 0 290 580 0 580 0 0 285 0
285 -1155 0 -1155 0 0 865 0 865 290 0 290 0 0 -575 0 -575 285 0 285 0 0 865
0 865 -1440 0 -1441 0 1 -287 c0 -159 0 -417 0 -575 l0 -288 -575 0 -575 0 0
-290 0 -290 865 0 865 0 0 575 0 575 290 0 290 0 -2 -862 -3 -863 -1440 0
-1440 0 -3 578 -2 577 -575 0 -575 0 0 285 0 285 575 0 575 0 0 290 0 290
-2015 0 -2015 0 2 -287 3 -288 575 -2 c316 -2 835 -3 1153 -3 l577 0 0 -865 0
-865 -290 0 -290 0 0 580 0 580 -285 0 -285 0 -2 -577 -3 -578 -577 -3 -578
-2 0 -285 0 -285 580 0 580 0 0 -290 0 -290 -580 0 -580 0 0 -575 0 -575 -865
0 -865 0 0 290 0 290 580 0 580 0 0 860 0 860 -290 0 -290 0 0 -575 0 -575
-290 0 -290 0 0 865 0 865 1155 0 1155 0 0 290 0 290 -1155 0 -1155 0 0 1150
0 1150 -285 0 -285 0 0 -11235z M1440 22465 l0 -865 288 2 287 3 3 578 2 577
2590 0 2590 0 2 -577 3 -578 285 0 285 0 3 578 2 577 2015 0 2015 0 0 -1155 0
-1155 865 0 865 0 0 290 0 290 -575 0 -575 0 -2 288 c-2 158 -2 547 0 865 l2
577 4895 0 4895 0 0 -2020 0 -2020 -290 0 -290 0 0 1155 0 1155 -575 0 -575 0
0 285 0 285 288 0 c158 0 416 0 575 0 l287 -1 0 291 0 290 -860 0 -860 0 0
-865 0 -865 575 0 575 0 0 -865 0 -865 -290 0 -290 0 0 575 0 575 -285 0 -285
0 0 -1435 0 -1435 285 0 285 0 0 575 0 575 865 0 865 0 0 -290 0 -290 -575 0
-575 0 0 -575 0 -575 -575 0 -575 0 0 -290 0 -290 860 0 860 0 0 580 0 580
290 0 290 0 0 -865 0 -865 -287 0 c-159 0 -417 0 -575 0 l-288 1 0 -291 0
-290 575 0 575 0 0 -290 0 -290 -575 0 -575 0 0 -575 0 -575 -290 0 -290 0 0
575 0 575 -285 0 -285 0 0 -575 0 -575 -290 0 -290 0 0 865 0 865 575 0 575 0
0 290 0 290 -1440 0 -1440 0 0 -290 0 -290 575 0 575 0 0 -865 0 -865 -1725 0
-1725 0 0 -285 0 -285 2305 0 2305 0 0 -2020 0 -2020 -865 0 -865 0 -2 578 -3
577 -285 2 c-157 2 -417 3 -577 3 l-293 0 0 575 0 575 -285 0 -285 0 0 -865 0
-865 575 0 575 0 0 -290 0 -290 -575 0 -575 0 0 -1440 0 -1440 1150 0 1150 0
0 -285 0 -285 -1150 0 -1150 0 0 -290 0 -290 1150 0 1150 0 0 -575 0 -575 290
0 290 0 0 1440 0 1440 -1155 0 -1155 0 0 865 0 865 1730 0 1730 0 0 575 0 575
575 0 575 0 0 290 0 290 -575 -2 -575 -3 0 1443 0 1442 290 0 290 0 0 -1155 0
-1155 285 0 285 0 0 1730 0 1730 290 0 290 0 0 -3170 0 -3170 -290 0 -290 0 0
575 0 575 -285 0 -285 0 0 -1440 0 -1440 285 0 285 0 0 580 0 580 290 0 290 0
0 -1445 0 -1445 -290 0 -290 0 0 580 0 580 -285 0 -285 0 0 -580 0 -580 -290
0 -290 0 0 1730 0 1730 -1440 0 -1440 0 0 -285 0 -285 1155 0 1155 0 0 -1730
0 -1730 575 0 575 0 0 -290 0 -290 -1155 0 -1155 0 0 -285 0 -285 1440 0 1440
0 0 575 0 575 290 0 290 0 0 -1155 0 -1155 288 2 287 3 2 11233 3 11232
-10660 0 -10660 0 0 -865z"/>
</g>
</svg>
