<?xml version="1.0" standalone="no"?>
<!DOCTYPE svg PUBLIC "-//W3C//DTD SVG 20010904//EN"
 "http://www.w3.org/TR/2001/REC-SVG-20010904/DTD/svg10.dtd">
<svg version="1.0" xmlns="http://www.w3.org/2000/svg"
 width="2362.000000pt" height="2362.000000pt" viewBox="0 0 2362.000000 2362.000000"
 preserveAspectRatio="xMidYMid meet">
<metadata>
Created by potrace 1.16, written by Peter Selinger 2001-2019
</metadata>
<g transform="translate(0.000000,2362.000000) scale(0.100000,-0.100000)"
fill="#000000" stroke="none">
<path d="M290 12095 l0 -11235 10655 0 10655 0 0 290 0 290 -6335 0 -6335 0 0
575 0 575 -290 0 -291 0 1 -288 c0 -158 0 -416 0 -574 l0 -288 -285 0 -285 0
0 575 0 575 -1440 0 -1440 0 0 -285 0 -285 1150 0 1150 0 0 -290 0 -290 -2015
0 -2015 0 0 290 0 290 575 0 575 0 0 285 0 285 -575 0 -575 0 0 575 0 575
-290 0 -290 0 0 -575 0 -575 -285 0 -285 0 0 575 0 575 -290 0 -290 0 0 -860
0 -860 575 0 575 0 0 -290 0 -290 -865 0 -865 0 0 1440 0 1440 2020 0 2020 0
0 -290 0 -290 -575 0 -575 0 0 -285 0 -285 860 0 860 0 0 865 0 865 -1150 0
-1150 0 0 575 0 575 -290 0 -290 0 0 -575 0 -575 -285 0 -285 0 0 288 c0 158
0 416 0 574 l1 288 -291 0 -290 0 0 -575 0 -575 -290 0 -290 0 0 1440 0 1440
290 0 290 0 0 -575 0 -575 1440 0 1440 0 0 285 0 285 -1150 0 -1150 0 0 290 0
290 1440 0 1440 0 0 -865 0 -865 -575 0 -575 0 0 -290 0 -290 860 0 860 0 0
1440 0 1440 -1150 0 -1150 0 -2 578 -3 577 -285 0 -285 0 -3 -578 -2 -577
-285 0 -285 0 -2 577 -3 578 -285 0 -285 0 -3 -577 -2 -578 -290 0 -290 0 0
5475 0 5475 290 0 290 0 0 -1730 0 -1730 288 2 287 3 3 578 2 577 285 0 285 0
2 -577 3 -578 288 -3 287 -2 0 580 0 580 288 -2 287 -3 3 -862 2 -863 -577 -2
-578 -3 -3 -862 -2 -863 865 0 865 0 0 285 0 285 -575 0 -575 0 0 290 0 290
1440 0 1440 0 0 -575 0 -575 865 0 865 0 -2 863 -3 862 -287 3 -288 2 0 -580
0 -580 -287 2 -288 3 -3 578 -2 577 -1150 0 -1150 0 0 865 0 865 575 0 575 0
0 575 0 575 865 0 865 0 0 -575 0 -575 290 0 290 0 0 1150 0 1150 865 0 865 0
0 -1150 0 -1150 285 0 285 0 0 1435 0 1435 -1150 0 -1150 0 -2 578 -3 577
-1437 3 -1438 2 0 -290 0 -290 1150 0 1150 0 0 -865 0 -865 -1150 0 -1150 0 0
-575 0 -575 -1440 0 -1440 0 0 288 c0 158 0 675 0 1149 l0 863 -577 2 -578 3
-3 862 -2 863 577 2 578 3 3 288 2 287 -580 0 -580 0 0 575 0 575 -285 0 -285
0 0 -11235z M1440 23045 l0 -285 1153 -2 1152 -3 3 -287 2 -288 -580 0 -580 0
0 -575 0 -575 -575 0 -575 0 0 -290 0 -290 575 0 575 0 0 -1150 0 -1150 290 0
290 0 0 1150 0 1150 290 0 290 0 0 -1150 0 -1150 285 0 285 0 0 575 0 575
1150 0 1150 0 0 285 0 285 -1150 0 -1150 0 0 580 0 580 -575 0 -575 0 0 285 0
285 288 0 c158 0 416 0 575 0 l287 -1 0 581 0 580 290 0 290 0 0 -580 0 -580
285 0 285 0 0 580 0 580 3170 0 3170 0 0 -290 0 -290 -575 0 -575 0 0 -575 0
-575 -290 0 -290 0 0 575 0 575 -2015 0 -2015 0 0 -290 0 -290 1153 0 c633 0
1412 0 1730 0 l577 0 0 -285 0 -285 -577 -2 -578 -3 -3 -287 -2 -288 1155 0
1155 0 0 -2015 0 -2015 -575 0 -575 0 0 -575 0 -575 -290 0 -290 0 0 1725 0
1725 -290 0 -290 0 0 -862 c0 -475 0 -992 0 -1150 l0 -288 -865 0 -865 0 0
575 0 575 -285 0 -285 0 0 -575 0 -575 -575 0 -575 0 0 -290 0 -290 1725 0
1725 0 0 -862 c0 -475 1 -1511 3 -2303 l2 -1440 288 -3 287 -2 0 580 0 580
290 0 290 0 0 -580 0 -580 285 0 285 0 0 865 0 865 -575 0 -575 0 0 290 0 290
575 0 575 0 0 285 0 285 -575 0 -575 0 0 290 0 290 575 0 575 0 0 575 0 575
290 0 290 0 0 -1150 0 -1150 1150 0 1150 0 0 -290 0 -290 -1150 0 -1150 0 0
-285 0 -285 1725 0 1725 0 0 -577 c0 -318 1 -837 3 -1153 l2 -575 288 -3 287
-2 0 575 0 575 288 0 c158 0 675 0 1150 0 l862 0 0 580 0 580 290 0 290 0 2
-577 3 -578 285 0 285 0 3 1153 2 1152 575 0 575 0 0 285 0 285 -1440 0 -1440
0 0 -285 0 -285 575 0 575 0 0 -290 0 -290 -575 0 -575 0 0 -575 0 -575 -865
0 -865 0 0 575 0 575 -575 0 -575 0 0 290 0 290 865 0 865 0 0 -575 0 -575
285 0 285 0 0 1440 0 1440 -285 0 -285 0 0 -580 0 -580 -2020 0 -2020 0 0 865
0 865 290 0 290 0 0 -575 0 -575 865 0 865 0 0 575 0 575 285 0 285 0 0 -287
c0 -159 1 -416 3 -573 l2 -285 288 -3 287 -2 0 575 0 575 575 0 575 0 0 290 0
290 -575 0 -575 0 0 290 0 290 1730 0 1730 0 0 285 0 285 -1730 0 -1730 0 0
290 0 290 1150 0 1150 0 0 1725 0 1725 578 2 577 3 3 288 2 287 -1440 0 -1440
0 0 -290 0 -291 288 1 c158 0 416 0 575 0 l287 0 0 -285 0 -285 -1152 -2
-1153 -3 0 -285 0 -285 578 -3 577 -2 0 -290 0 -290 -580 0 -580 0 0 -285 0
-285 865 0 865 0 0 575 0 575 290 0 290 0 0 -865 0 -865 -1155 0 -1155 0 0
-862 c0 -475 0 -992 0 -1150 l0 -288 -285 0 -285 0 0 575 0 575 -290 0 -290 0
0 -1150 0 -1150 -285 0 -285 0 0 288 c0 158 0 675 0 1150 l0 862 -290 0 -290
0 0 -575 0 -575 -290 0 -290 0 0 865 0 865 1155 0 1155 0 0 1440 0 1440 -290
0 -290 0 0 -1155 0 -1155 -865 0 -865 0 0 290 0 290 580 0 580 0 -3 863 -2
862 -287 3 -288 2 0 -580 0 -580 -287 2 -288 3 -3 862 -2 863 577 2 578 3 3
578 2 577 285 0 285 0 2 -577 3 -578 863 -2 862 -3 0 290 0 290 -575 0 -575 0
0 290 0 290 2590 0 2590 0 0 -865 0 -865 -575 0 -575 0 0 -290 0 -290 865 0
865 0 0 1155 0 1155 1440 0 1440 0 0 -290 0 -290 -1150 0 -1150 0 0 -1440 0
-1440 860 0 860 0 0 285 0 285 -575 0 -575 0 0 865 0 865 290 0 290 0 0 -575
0 -575 285 0 285 0 0 575 0 575 290 0 290 0 0 -1440 0 -1440 -1150 0 -1150 0
0 -575 0 -575 -290 0 -290 0 0 575 0 575 -575 0 -575 0 0 290 0 290 575 0 575
0 0 285 0 285 -865 0 -865 0 0 -860 0 -860 575 0 575 0 0 -575 0 -575 1440 0
1440 0 0 285 0 285 -575 0 -575 0 0 290 0 290 865 0 865 0 0 -865 0 -865
-1150 0 -1150 0 0 -575 0 -575 -290 0 -290 0 0 575 0 575 -290 0 -290 0 0
-575 0 -575 -285 0 -285 0 0 575 0 575 -865 0 -865 0 0 -865 0 -865 285 0 285
0 0 575 0 575 290 0 290 0 0 -575 0 -575 1440 0 1440 0 0 575 0 575 290 0 290
0 0 -865 0 -865 -575 0 -575 0 0 -285 0 -285 575 0 575 0 0 -865 0 -865 -290
0 -290 0 0 575 0 575 -285 0 -285 0 0 -575 0 -575 -290 0 -290 0 0 575 0 575
-290 0 -290 0 2 -862 3 -863 578 -3 577 -2 0 -1150 0 -1150 285 0 285 0 0
1150 0 1150 290 0 290 0 0 -1150 0 -1150 285 0 285 0 0 3455 0 3455 290 0 290
0 0 -3745 0 -3745 -1440 0 -1440 0 0 1155 0 1155 -287 -2 -288 -3 -3 -572 -2
-573 -285 0 -285 0 -2 572 -3 573 -862 3 -863 2 0 -1155 0 -1155 -1155 0
-1155 0 0 -285 0 -285 580 0 580 0 0 -1155 0 -1155 285 0 285 0 0 1155 0 1155
290 0 290 0 0 -1155 0 -1155 285 0 285 0 0 2305 0 2305 290 0 290 0 0 -575 0
-575 575 0 575 0 0 -575 0 -575 1730 0 1730 0 0 -290 0 -290 -2015 0 -2015 0
0 575 0 575 -290 0 -290 0 0 -860 0 -860 575 0 575 0 0 -290 0 -290 -575 0
-575 0 0 -290 0 -290 865 0 865 0 0 580 0 580 290 0 290 0 0 -580 0 -580 860
0 860 0 0 290 0 290 -575 0 -575 0 0 290 0 290 865 0 865 0 0 -865 0 -865
-2880 0 -2880 0 0 -865 0 -865 285 0 285 0 0 575 0 575 290 0 290 0 0 -865 0
-865 -865 0 -865 0 0 1155 0 1155 -575 0 -575 0 0 1150 0 1150 -1150 0 -1150
0 0 285 c0 157 0 418 0 580 0 162 0 423 0 580 l0 285 285 0 285 0 0 -575 0
-575 290 0 290 0 0 575 0 575 1150 0 1150 0 0 865 0 865 -285 0 -285 0 0 -575
0 -575 -287 0 c-159 0 -937 0 -1730 0 l-1443 0 0 -1155 0 -1155 -865 0 -865 0
0 865 0 865 290 0 290 0 0 -575 0 -575 285 0 285 0 0 1725 0 1725 290 0 290 0
0 -575 0 -575 865 0 865 0 0 865 0 865 -290 0 -290 0 0 -575 0 -575 -285 0
-285 0 0 288 c0 158 0 416 0 575 l1 287 -866 0 -865 0 0 -575 0 -575 -1152 -2
-1153 -3 -2 -862 -3 -863 290 0 290 0 0 575 0 575 865 0 865 0 0 -287 0 -288
-575 3 -575 2 0 -580 0 -580 -865 0 -865 0 0 2305 0 2305 -290 0 -290 0 0
-575 0 -575 -290 0 -290 0 0 575 0 575 -285 0 -285 0 0 -575 0 -575 -865 0
-865 0 0 290 0 290 575 0 575 0 0 860 0 860 -285 0 -285 0 0 -575 0 -575
-1155 0 -1155 0 0 -285 0 -285 578 -2 577 -3 3 -862 2 -863 -865 0 -865 0 0
285 0 285 288 0 c158 0 415 1 572 3 l285 2 3 288 2 287 -575 0 -575 0 0 288
c0 158 -1 935 -3 1727 l-2 1440 -287 3 -288 2 0 -2595 0 -2595 1155 0 1155 0
0 -575 0 -575 860 0 860 0 0 290 0 290 -575 -2 -575 -3 0 863 0 862 290 0 290
0 0 -575 0 -575 285 0 285 0 0 575 0 575 578 2 c317 2 706 2 865 0 l287 -2 0
-2590 0 -2590 -290 0 -290 0 0 2305 0 2305 -285 0 -285 0 0 -3745 0 -3745
1440 0 1440 0 0 575 0 575 290 0 290 0 0 -1150 0 -1150 285 0 285 0 0 1440 0
1440 -862 -2 -863 -3 -3 -578 -2 -577 -285 0 -285 0 -2 578 -3 577 -287 3
-288 2 0 -580 0 -580 -287 2 -288 3 -3 862 -2 863 1155 0 1155 0 0 865 0 865
-290 0 -291 0 1 -288 c0 -158 0 -416 0 -574 l0 -288 -285 0 -285 0 0 865 0
865 865 0 865 0 0 -1155 0 -1155 860 0 860 0 0 290 0 290 -575 0 -575 0 0 290
0 290 2015 0 2015 0 0 -292 c0 -161 1 -680 3 -1153 l2 -860 578 -3 577 -2 0
-290 0 -290 -1440 0 -1440 0 0 290 0 290 575 0 575 0 0 865 0 865 -865 0 -865
0 0 -290 0 -290 575 0 575 0 0 -285 0 -285 -575 0 -575 0 0 -580 0 -580 -290
0 -290 0 0 580 0 580 -285 0 -285 0 0 -1440 0 -1440 285 0 285 0 0 575 0 575
290 0 290 0 0 -575 0 -575 865 0 865 0 0 285 0 285 -575 0 -575 0 0 290 0 290
1440 0 1440 0 0 -290 0 -290 -580 0 -580 0 0 -285 0 -285 2020 0 2020 0 0
1150 0 1150 285 0 285 0 0 -1150 0 -1150 865 0 865 0 0 860 0 860 -285 0 -285
0 0 -575 0 -575 -290 0 -290 0 0 865 0 865 1440 0 1440 0 0 -290 0 -290 -575
0 -575 0 0 -285 0 -285 575 0 575 0 0 -290 0 -290 -575 0 -575 0 0 -285 0
-285 575 0 575 0 0 -580 0 -580 288 2 287 3 2 11233 3 11232 -10660 0 -10660
0 0 -285z"/>
</g>
</svg>
