<?xml version="1.0" standalone="no"?>
<!DOCTYPE svg PUBLIC "-//W3C//DTD SVG 20010904//EN"
 "http://www.w3.org/TR/2001/REC-SVG-20010904/DTD/svg10.dtd">
<svg version="1.0" xmlns="http://www.w3.org/2000/svg"
 width="2362.000000pt" height="2362.000000pt" viewBox="0 0 2362.000000 2362.000000"
 preserveAspectRatio="xMidYMid meet">
<metadata>
Created by potrace 1.16, written by Peter Selinger 2001-2019
</metadata>
<g transform="translate(0.000000,2362.000000) scale(0.100000,-0.100000)"
fill="#000000" stroke="none">
<path d="M290 12095 l0 -11235 10655 0 10655 0 0 290 0 290 -10370 0 -10370 0
0 290 0 290 1155 0 1155 0 0 285 0 285 -575 0 -575 0 0 290 0 290 1150 0 1150
0 0 285 0 285 -1440 0 -1440 0 0 -575 0 -575 -290 0 -290 0 0 865 0 865 580 0
580 0 -2 287 -3 288 -577 3 -578 2 0 285 0 285 578 2 577 3 3 288 2 287 -580
0 -580 0 0 1440 0 1440 290 0 290 0 0 -1150 0 -1150 290 0 290 0 0 575 0 575
575 0 575 0 0 285 0 285 -575 0 -575 0 0 290 0 290 865 0 865 0 0 -1440 0
-1440 -290 0 -290 0 0 575 0 575 -290 0 -290 0 2 -862 3 -863 578 -3 577 -2 0
-285 0 -285 -577 -2 -578 -3 -3 -287 -2 -288 865 0 865 0 0 1730 0 1730 290 0
290 0 0 -1155 0 -1155 575 0 575 0 0 -285 0 -285 -575 0 -575 0 0 -1155 0
-1155 -575 0 -575 0 0 -285 0 -285 860 0 860 0 0 1150 0 1150 575 0 575 0 0
575 0 575 578 2 577 3 3 288 2 287 -1155 0 -1155 0 0 1150 0 1150 -575 0 -575
0 0 290 0 290 865 0 865 0 0 -1150 0 -1150 285 0 285 0 0 1725 0 1725 290 0
290 0 0 -1150 0 -1150 290 0 290 0 0 575 0 575 575 0 575 0 -2 288 -3 287
-285 2 c-157 2 -414 3 -572 3 l-288 0 0 285 0 285 575 0 575 0 0 575 0 575
290 0 290 0 0 -1725 0 -1725 1150 0 1150 0 0 -290 0 -290 -575 0 -575 0 0
-285 0 -285 2015 0 2015 0 0 285 0 285 -575 0 -575 0 0 575 0 575 -290 0 -290
0 0 -575 0 -575 -285 0 -285 0 0 288 c0 274 0 1712 0 2310 l0 282 575 0 575 0
0 290 0 290 -1440 0 -1440 0 0 -290 0 -290 575 0 575 0 0 -865 0 -865 -290 0
-290 0 0 580 0 580 -285 0 -285 0 0 -580 0 -580 -290 0 -290 0 0 1730 0 1730
-575 0 -575 0 0 290 0 290 1730 0 1730 0 0 285 0 285 -1155 0 -1155 0 0 575 0
575 -285 0 -285 0 0 -575 0 -575 -1155 0 -1155 0 0 -285 0 -285 575 0 575 0 2
-577 c2 -318 2 -707 0 -865 l-2 -288 -1150 0 -1150 0 0 -577 0 -578 -290 0
-290 0 0 578 0 577 -575 0 -575 0 0 865 0 865 290 0 290 0 0 -580 0 -580 1438
3 1437 2 3 288 2 287 -1155 0 -1155 0 0 290 0 290 575 0 575 0 0 285 0 285
-575 0 -575 0 0 290 0 290 1730 0 1730 0 0 1440 0 1440 -290 0 -290 0 0 -1155
0 -1155 -862 2 -863 3 -3 288 -2 287 580 0 580 0 0 865 0 865 -290 0 -290 0 0
-575 0 -575 -287 0 c-159 0 -417 0 -575 0 l-288 1 0 -581 0 -580 -1150 0
-1150 0 0 -285 0 -285 575 0 575 0 0 -290 0 -290 -575 0 -575 0 0 -575 0 -575
-290 0 -290 0 0 1150 0 1150 -865 0 -865 0 0 -285 0 -285 575 0 575 0 2 -1152
3 -1153 285 -2 c157 -2 417 -3 578 -3 l292 0 0 -575 0 -575 575 0 575 0 0
-287 0 -288 -1732 2 c-953 2 -1862 3 -2020 3 l-288 0 0 860 0 860 290 0 290 0
0 -575 0 -575 865 0 865 0 0 290 0 290 -575 0 -575 0 0 288 c0 158 0 675 0
1150 l0 862 -290 0 -290 0 0 -575 0 -575 -290 0 -290 0 0 1440 0 1440 1155 0
1155 0 0 290 0 290 -577 0 c-318 0 -838 0 -1155 0 l-578 0 0 865 0 865 580 0
580 0 0 285 0 285 -580 0 -580 0 0 2880 0 2880 -285 0 -285 0 0 -11235z M1440
23045 l0 -285 1153 -2 1152 -3 3 -862 2 -863 -865 0 -865 0 0 285 0 285 288 0
c158 0 415 1 572 3 l285 2 3 288 2 287 -865 0 -865 0 0 -2015 0 -2015 575 0
575 0 0 -865 0 -865 -575 0 -575 0 0 -290 0 -290 1155 0 1155 0 0 -575 0 -575
860 0 860 0 0 290 0 290 -575 0 -575 0 0 285 0 285 1150 0 1150 0 0 290 0 290
-1725 0 -1725 0 0 865 0 865 575 0 575 0 0 285 0 285 -1150 0 -1150 0 0 290 0
290 1150 0 1150 0 0 285 0 285 -1150 0 -1150 0 0 290 0 290 1150 0 1150 0 0
1155 0 1155 290 0 290 0 0 -580 0 -580 860 0 860 0 0 290 0 290 -575 0 -575 0
0 290 0 290 2020 0 2020 0 0 -2305 0 -2305 1150 0 1150 0 0 -290 0 -290 -575
0 -575 0 0 -575 0 -575 -290 0 -290 0 0 575 0 575 -575 0 -575 0 0 575 0 575
-290 0 -290 0 0 -575 0 -575 -285 0 -285 0 0 865 0 865 575 0 575 0 0 1440 0
1440 -865 0 -865 0 2 -287 3 -288 285 -2 c157 -2 414 -3 573 -3 l287 0 0 -285
0 -285 -575 0 -575 0 0 -290 0 -290 575 0 575 0 0 -290 0 -290 -862 2 -863 3
-3 578 -2 577 -285 0 -285 0 0 -865 0 -865 575 0 575 0 0 -290 0 -290 -575 0
-575 0 0 -575 0 -575 -290 0 -290 0 0 1730 0 1730 -285 0 -285 0 0 -1730 0
-1730 -575 0 -575 0 0 -285 0 -285 1435 0 1435 0 0 575 0 575 290 0 290 0 0
-575 0 -575 1153 -2 1152 -3 3 -577 2 -578 575 0 575 0 0 -285 0 -285 -575 0
-575 0 0 -290 0 -290 575 0 575 0 0 -575 0 -575 285 0 285 0 0 575 0 575 290
0 290 0 0 -575 0 -575 290 0 290 0 -3 863 -2 862 -577 3 -578 2 0 285 0 285
865 0 865 0 0 -1150 0 -1150 290 0 290 0 0 575 0 575 575 0 575 0 0 865 0 865
-287 -2 -288 -3 -2 -285 c-2 -157 -3 -414 -3 -572 l0 -288 -285 0 -285 0 0
865 0 865 575 0 575 0 0 285 0 285 -865 0 -865 0 0 -575 0 -575 -865 0 -865 0
0 290 0 290 580 0 580 0 0 575 0 575 1150 0 1150 0 0 860 0 860 -290 0 -290 0
2 -575 3 -575 -287 0 -288 0 0 1155 0 1155 -290 0 -290 0 0 -1155 0 -1155
-285 0 -285 0 0 578 c0 317 0 1096 0 1730 l0 1152 -290 0 -290 0 0 -1155 0
-1155 -575 0 -575 0 0 -285 0 -285 575 0 575 0 0 -290 0 -290 -865 0 -865 0 0
865 0 865 575 0 575 0 0 290 0 290 -575 0 -575 0 0 865 0 865 290 0 290 0 0
-580 0 -580 285 0 285 0 0 580 0 580 1440 0 1440 0 0 -290 0 -290 -575 0 -575
0 2 -287 3 -288 863 -2 862 -3 0 580 0 580 290 0 290 0 0 -580 0 -580 285 0
285 0 0 580 0 580 1440 0 1440 0 0 -290 0 -290 -1150 0 -1150 0 0 -290 0 -291
288 1 c158 0 416 0 575 0 l287 0 0 -865 0 -865 -287 2 -288 3 -3 578 -2 577
-1438 -2 -1437 -3 0 -285 0 -285 578 -3 577 -2 0 -575 0 -575 285 0 285 0 0
575 0 575 290 0 290 0 0 -575 0 -575 865 0 865 0 0 1150 0 1150 285 0 285 0 0
-575 0 -575 290 0 290 0 0 1155 0 1155 290 0 290 0 0 -2020 0 -2020 -290 0
-290 0 0 575 0 575 -290 0 -290 0 0 -860 0 -860 865 0 865 0 0 1725 0 1725
288 0 c158 0 416 0 575 0 l287 -1 0 291 0 290 -575 0 -575 0 0 290 0 290 865
0 865 0 0 -5475 0 -5475 -290 0 -290 0 0 1150 0 1150 -285 0 -285 0 0 -1440 0
-1441 288 1 c158 0 416 0 575 0 l287 0 0 -285 0 -285 -575 0 -575 0 0 -577 0
-578 -1152 0 -1153 0 -3 -287 -2 -288 580 0 580 0 0 -290 0 -290 -865 0 -865
0 0 865 0 865 1150 0 1150 0 0 290 0 290 -575 0 -575 0 0 285 0 285 288 0
c158 0 416 0 575 0 l287 -1 0 2306 0 2305 290 0 290 0 0 -575 0 -575 285 0
285 0 0 3170 0 3170 -285 0 -285 0 0 -2305 0 -2305 -290 0 -290 0 0 575 0 575
-865 0 -865 0 0 -575 0 -575 -285 0 -285 0 0 1150 0 1150 -290 0 -290 0 0
-1725 0 -1725 -287 -2 c-159 -2 -548 -2 -865 0 l-578 2 0 865 0 865 290 0 290
0 0 -580 0 -580 285 0 285 0 0 1440 0 1440 -285 0 -285 0 0 -575 0 -575 -290
0 -290 0 0 575 0 575 -285 0 -285 0 0 -2590 0 -2590 285 0 285 0 0 575 0 575
290 0 290 0 0 -575 0 -575 285 0 285 0 0 575 0 575 1155 0 1155 0 0 290 0 290
-575 0 -575 0 0 285 0 285 575 0 575 0 0 580 0 580 288 -2 287 -3 3 -2592 2
-2593 -290 0 -290 0 0 1150 0 1150 -865 0 -865 0 0 -285 0 -285 575 0 575 0 0
-290 0 -290 -1150 0 -1150 0 0 -285 0 -285 575 0 575 0 2 -577 3 -578 285 0
285 0 3 578 2 577 285 0 285 0 0 -865 0 -865 -865 0 -865 0 0 575 0 575 -285
0 -285 0 0 -1152 0 -1153 -575 3 -575 2 0 -580 0 -580 -290 0 -290 0 0 865 0
865 575 0 575 0 0 290 0 290 -575 0 -575 0 0 285 0 285 288 0 c158 0 416 0
575 0 l287 -1 0 866 0 865 -285 0 -285 0 0 -575 0 -575 -290 0 -290 0 0 1150
0 1150 -290 0 -290 0 0 -862 c0 -475 0 -992 0 -1150 l0 -288 -285 0 -285 0 0
575 0 575 -290 0 -290 0 0 -575 0 -575 -1150 0 -1150 0 0 -290 0 -290 1722 0
c946 0 1723 -1 1725 -3 4 -5 4 -1709 0 -1714 -2 -1 -260 -4 -573 -6 l-569 -2
-3 -287 -2 -288 577 0 578 0 -3 -575 -2 -575 580 0 580 0 0 -865 0 -865 -3170
0 -3170 0 0 290 0 290 575 0 575 0 0 285 0 285 -575 0 -575 0 0 575 0 575
-290 0 -290 0 0 -575 0 -575 -575 0 -575 0 0 -285 0 -285 575 0 575 0 0 -865
0 -865 -575 0 -575 0 0 -290 0 -290 575 0 575 0 0 -290 0 -290 -1150 0 -1150
0 0 -285 0 -285 1150 0 1150 0 0 -290 0 -290 -1150 0 -1150 0 0 -285 0 -285
1440 0 1440 0 0 575 0 575 290 0 290 0 0 -575 0 -575 285 0 285 0 0 575 0 575
290 0 290 0 0 -575 0 -575 285 0 285 0 0 575 0 575 865 0 865 0 0 -290 0 -290
-575 0 -575 0 0 -285 0 -285 2590 0 2590 0 0 285 0 285 -575 0 -575 0 0 575 0
575 -575 0 -575 0 0 290 0 290 575 0 575 0 0 290 0 290 -1437 -2 -1438 -3 -3
-287 -2 -288 575 0 575 0 0 -287 c0 -159 0 -417 0 -576 l-1 -287 581 0 580 0
0 -290 0 -290 -865 0 -865 0 0 575 0 575 -1155 0 -1155 0 0 290 0 290 580 0
580 0 -2 288 -3 287 -862 3 -863 2 0 -580 0 -580 -290 0 -290 0 0 580 0 580
-285 0 -285 0 0 -580 0 -580 -290 0 -290 0 0 865 0 865 4030 0 4030 0 0 865 0
865 -285 0 -285 0 0 -575 0 -575 -290 0 -290 0 0 1440 0 1440 290 0 290 0 0
-575 0 -575 285 0 285 0 0 1150 0 1150 290 0 290 0 0 -1150 0 -1150 1440 0
1440 0 0 575 0 575 575 0 575 0 0 575 0 575 290 0 290 0 0 -865 0 -865 -575 0
-575 0 0 -285 0 -285 575 0 575 0 0 -290 0 -290 -2305 0 -2305 0 0 -865 0
-865 288 2 287 3 3 578 2 577 2015 0 2015 0 0 -290 0 -290 -1730 0 -1730 0 0
-865 0 -865 290 0 290 0 0 575 0 575 1440 0 1440 0 0 -285 0 -285 -1150 0
-1150 0 0 -290 0 -290 575 0 575 0 0 -290 0 -290 -1155 0 -1155 0 0 -285 0
-285 1440 0 1440 0 0 575 0 575 290 0 290 0 0 -865 0 -865 -2015 0 -2015 0 -2
1153 -3 1152 -862 3 -863 2 0 -865 0 -865 285 0 285 0 0 575 0 575 290 0 290
0 0 -1150 0 -1150 2305 0 2305 0 0 -580 0 -580 288 2 287 3 2 11233 3 11232
-10660 0 -10660 0 0 -285z"/>
</g>
</svg>
