<?xml version="1.0" standalone="no"?>
<!DOCTYPE svg PUBLIC "-//W3C//DTD SVG 20010904//EN"
 "http://www.w3.org/TR/2001/REC-SVG-20010904/DTD/svg10.dtd">
<svg version="1.0" xmlns="http://www.w3.org/2000/svg"
 width="2362.000000pt" height="2362.000000pt" viewBox="0 0 2362.000000 2362.000000"
 preserveAspectRatio="xMidYMid meet">
<metadata>
Created by potrace 1.16, written by Peter Selinger 2001-2019
</metadata>
<g transform="translate(0.000000,2362.000000) scale(0.100000,-0.100000)"
fill="#000000" stroke="none">
<path d="M290 12095 l0 -11235 10655 0 10655 0 0 290 0 290 -3455 0 -3455 0 0
290 0 290 1150 0 1150 0 0 285 0 285 -1440 0 -1440 0 2 -575 3 -575 -287 0
-288 0 0 575 0 575 -290 0 -290 0 0 -575 0 -575 -285 0 -285 0 0 288 c0 158 0
416 0 574 l1 288 -291 0 -290 0 0 -575 0 -575 -865 0 -865 0 0 290 0 290 575
0 575 0 0 285 0 285 -575 0 -575 0 0 575 0 575 -285 0 -285 0 0 -1150 0 -1150
-865 0 -865 0 0 2015 0 2015 285 0 285 0 0 -862 c0 -475 0 -1251 0 -1726 l0
-862 290 0 290 0 0 1150 0 1150 575 0 575 0 0 865 0 865 -285 0 -285 0 0 -575
0 -575 -290 0 -290 0 0 575 0 575 -865 0 -865 0 0 -575 0 -575 -290 0 -290 0
0 575 0 575 -285 0 -285 0 0 -865 0 -865 575 0 575 0 0 -290 0 -290 -865 0
-865 0 0 580 0 580 -285 0 -285 0 0 -865 0 -865 1150 0 1150 0 0 -290 0 -290
-1150 0 -1150 0 0 -285 0 -285 1150 0 1150 0 0 -290 0 -290 -1440 0 -1440 0 0
2015 0 2015 575 0 575 0 0 290 0 290 -1150 0 -1150 0 0 865 0 865 290 0 290 0
0 -575 0 -575 285 0 285 0 0 1440 0 1440 -285 0 -285 0 0 -580 0 -580 -580 0
-580 0 0 -2015 0 -2015 290 0 290 0 0 575 0 575 290 0 290 0 0 -2015 0 -2015
-1445 0 -1445 0 0 290 0 290 580 0 580 0 0 285 0 285 -580 0 -580 0 0 290 0
290 865 0 865 0 0 -575 0 -575 290 0 290 0 0 860 0 860 -575 0 -575 0 0 578
c0 317 -1 1614 -3 2882 l-2 2305 -285 0 -285 0 -3 -2882 -2 -2883 -290 0 -290
0 0 3745 0 3745 578 2 577 3 3 288 2 287 -580 0 -580 0 0 865 0 865 1445 0
1445 0 0 -1155 0 -1155 285 0 285 0 0 1155 0 1155 575 0 575 0 0 285 0 285
-1725 0 -1725 0 -2 578 -3 577 -287 3 -288 2 0 -580 0 -580 -290 0 -290 0 0
1445 0 1445 865 0 865 0 0 -290 0 -290 -575 0 -575 0 0 -290 0 -290 2015 0
2015 0 0 290 0 290 -1150 0 -1150 0 0 290 0 290 1150 0 1150 0 0 575 0 575
575 0 575 0 0 860 0 860 -285 0 -285 0 0 -575 0 -575 -575 0 -575 0 0 -575 0
-575 -2020 0 -2020 0 0 1440 0 1440 578 2 577 3 0 285 0 285 -577 3 -578 2 0
1150 0 1150 -285 0 -285 0 0 -11235z M1440 23045 l0 -285 575 0 575 0 0 -290
0 -290 -575 0 -575 0 0 -290 0 -290 578 0 c317 0 837 0 1155 0 l577 0 0 -285
0 -285 -580 0 -580 0 0 -290 0 -290 580 0 580 0 -2 -287 -3 -288 -1152 -3
-1153 -2 0 -860 0 -860 1440 0 1440 0 0 285 0 285 -1150 0 -1150 0 0 290 0
290 1725 0 1725 0 0 285 0 285 -575 0 -575 0 0 1155 0 1155 -575 0 -575 0 0
290 0 290 1440 0 1440 0 0 -290 0 -290 -575 0 -575 0 0 -290 0 -291 288 1
c158 0 416 0 575 0 l287 0 0 -285 0 -285 -575 0 -575 0 0 -290 0 -290 860 0
860 0 0 1155 0 1155 1445 0 1445 0 0 -290 0 -290 -1155 0 -1155 0 0 -2015 0
-2015 290 0 290 0 0 575 0 575 575 0 575 0 0 865 0 865 -287 -2 -288 -3 -3
-577 -2 -578 -285 0 -285 0 0 865 0 865 288 2 c158 2 547 2 865 0 l577 -2 0
-575 0 -575 575 0 575 0 0 -290 0 -290 -575 0 -575 0 0 -575 0 -575 -580 0
-580 0 0 -285 0 -285 865 0 865 0 0 575 0 575 290 0 290 0 0 -865 0 -865
-2305 0 -2305 0 0 -865 0 -865 575 0 575 0 0 -285 0 -285 -287 0 c-159 0
-1195 -1 -2303 -3 l-2015 -2 -3 -287 -2 -288 2595 0 2595 0 0 865 0 865 -580
0 -580 0 2 288 3 287 2018 3 2017 2 0 -290 0 -290 -575 0 -575 0 0 -575 0
-575 -290 0 -290 0 0 575 0 575 -290 0 -290 0 0 -865 0 -865 580 0 580 0 0
-290 0 -290 -1155 0 -1155 0 0 -1150 0 -1150 -290 0 -290 0 0 1150 0 1150
-285 0 -285 0 0 -1150 0 -1150 -290 0 -290 0 0 575 0 575 -285 0 -285 0 0
-1150 0 -1150 -865 0 -865 0 0 1150 0 1150 -865 0 -865 0 0 -285 0 -285 575 0
575 0 0 -865 0 -865 -575 0 -575 0 0 -290 0 -290 575 0 575 0 0 -575 0 -575
290 0 290 0 0 575 0 575 865 0 865 0 0 -575 0 -575 285 0 285 0 0 1150 0 1150
290 0 290 0 0 -575 0 -575 575 0 575 0 0 -285 0 -285 -287 0 c-159 0 -417 0
-575 0 l-288 1 0 -581 0 -580 -575 0 -575 0 0 -285 0 -285 575 0 575 0 0 -290
0 -290 -575 0 -575 0 0 -285 0 -285 860 0 860 0 0 1150 0 1150 290 0 290 0 0
-575 0 -575 290 0 290 0 0 1440 0 1440 -580 0 -580 0 0 285 0 285 578 2 c317
2 706 2 864 0 l288 -2 2 -573 3 -572 578 -3 577 -2 0 -285 0 -285 -292 0
c-161 0 -421 -1 -578 -3 l-285 -2 -3 -287 -2 -288 580 0 580 0 0 -865 0 -865
-290 0 -290 0 0 575 0 575 -290 0 -290 0 0 -575 0 -575 -575 0 -575 0 0 -285
0 -285 2305 0 2305 0 0 -290 0 -290 -575 0 -575 0 0 -290 0 -290 575 0 575 0
0 -285 0 -285 -575 0 -575 0 0 -290 0 -290 865 0 866 0 -1 287 c0 159 0 417 0
576 l0 287 285 0 285 0 0 -865 0 -865 -1150 0 -1150 0 0 -285 0 -285 1440 0
1440 0 0 1150 0 1150 285 0 285 0 0 -287 c0 -159 0 -676 0 -1150 l0 -863 865
0 865 0 0 285 0 285 -575 0 -575 0 0 1155 0 1155 -1150 0 -1150 0 0 288 c0
158 0 416 0 574 l1 288 -1156 0 -1155 0 0 290 0 290 1440 0 1440 0 0 -575 0
-575 865 0 865 0 0 285 0 285 -575 0 -575 0 0 575 0 575 -575 0 -575 0 -2 578
-3 577 -577 3 -578 2 0 860 0 860 578 2 c317 2 706 2 865 0 l287 -2 0 -285 0
-285 -575 0 -575 0 0 -290 0 -290 865 0 865 0 0 865 0 865 -575 0 -575 0 0
285 c0 157 0 418 0 580 0 162 0 423 0 580 l0 285 285 0 285 0 0 -575 0 -575
290 0 290 0 0 575 0 575 865 0 865 0 0 -290 0 -290 -580 0 -580 0 0 -285 0
-285 580 0 580 0 0 -580 0 -580 285 0 285 0 0 1155 0 1155 575 0 575 0 0 1150
0 1150 578 2 577 3 3 288 2 287 -580 0 -580 0 0 865 0 865 580 0 580 0 0 285
0 285 -1155 0 -1155 0 0 290 0 290 1155 0 1155 0 0 285 0 285 -1155 0 -1155 0
0 290 0 290 575 0 575 0 0 575 0 575 290 0 290 0 0 -575 0 -575 290 0 290 0 0
865 0 865 -865 0 -865 0 0 -575 0 -575 -290 0 -290 0 0 575 0 575 -285 0 -285
0 0 -2015 0 -2015 575 0 575 0 0 -2020 0 -2020 -865 0 -865 0 0 580 0 580
-287 -2 -288 -3 -2 -285 c-2 -157 -3 -417 -3 -577 l0 -293 -1150 0 -1150 0 0
-1150 0 -1150 -865 0 -865 0 0 290 0 290 575 0 575 0 0 860 0 860 -285 0 -285
0 0 -575 0 -575 -575 0 -575 0 0 -865 0 -866 288 1 c158 0 416 0 575 0 l287 0
0 -1150 0 -1150 575 0 575 0 0 -290 0 -290 -865 0 -865 0 0 1155 0 1155 -575
0 -575 0 0 575 0 575 -575 0 -575 0 0 865 0 865 285 0 285 0 0 -575 0 -575
290 0 290 0 0 575 0 575 575 0 575 0 0 1150 0 1150 290 0 290 0 0 -575 0 -575
1440 0 1440 0 -2 288 -3 287 -572 3 -573 2 0 288 c0 158 -1 415 -3 572 l-2
285 -287 3 -288 2 0 -575 0 -575 -290 0 -290 0 0 865 0 865 1155 0 1155 0 0
285 0 285 -1155 0 -1155 0 0 2305 0 2305 -285 0 -285 0 0 -575 0 -575 -290 0
-290 0 0 865 0 865 1440 0 1440 0 0 -290 0 -290 -575 0 -575 0 0 -865 0 -865
288 2 287 3 2 285 c2 157 3 414 3 573 l0 287 285 0 285 0 0 -575 0 -575 575 0
575 0 0 -290 0 -290 -1150 0 -1150 0 0 -860 0 -860 290 0 291 0 -1 288 c0 158
0 416 0 575 l0 287 285 0 285 0 0 -575 0 -575 578 0 577 0 -3 -575 -2 -575
580 0 580 0 0 -290 0 -290 -1155 0 -1155 0 0 -290 0 -290 1155 0 1155 0 0
-575 0 -575 285 0 285 0 0 1440 0 1440 -575 0 -575 0 0 575 0 575 -575 0 -575
0 0 290 0 290 575 0 575 0 0 865 0 865 -575 0 -575 0 0 865 0 865 285 0 285 0
0 -292 c0 -161 1 -421 3 -578 l2 -285 288 -3 287 -2 0 580 0 580 3170 0 3170
0 0 -290 0 -290 -1155 0 -1155 0 2 -287 3 -288 578 -3 577 -2 0 -285 0 -285
-577 -2 -578 -3 -3 -862 -2 -863 290 0 290 0 0 575 0 575 575 0 575 0 0 575 0
575 290 0 290 0 0 -575 0 -575 285 0 285 0 0 1155 0 1155 290 0 290 0 0 -1445
0 -1445 -575 0 -575 0 0 -285 0 -285 575 0 575 0 0 -290 0 -290 -575 0 -575 0
0 -285 0 -285 575 0 575 0 0 -2020 0 -2020 -575 0 -575 0 0 -285 0 -285 575 0
575 0 0 -290 0 -290 -865 0 -865 0 0 575 0 575 -285 0 -285 0 0 -1150 0 -1150
-290 0 -290 0 0 1440 0 1440 575 0 575 0 0 1155 0 1155 290 0 290 0 0 -1155 0
-1155 285 0 285 0 0 1440 0 1440 -1150 0 -1150 0 0 290 0 290 575 0 575 0 0
860 0 860 -285 0 -285 0 0 -575 0 -575 -580 0 -580 0 0 -575 0 -575 -575 0
-575 0 0 -285 0 -285 575 0 575 0 2 -577 3 -578 288 -3 287 -2 0 580 0 580
288 -2 287 -3 3 -862 2 -863 -577 -2 -578 -3 0 -2015 0 -2015 1438 -2 1437 -3
0 290 0 290 -575 0 -575 0 0 290 0 290 865 0 865 0 0 -865 0 -865 -575 0 -575
0 0 -290 0 -290 575 0 575 0 0 -865 0 -865 -290 0 -290 0 0 580 0 580 -862 0
c-475 0 -992 0 -1150 0 l-288 0 0 285 0 285 575 0 575 0 0 290 0 290 -1150 0
-1150 0 -2 2303 -3 2302 -287 3 -288 2 0 -1155 0 -1155 -575 0 -575 0 0 -865
0 -865 285 0 285 0 0 580 0 580 290 0 290 0 0 -865 0 -865 -575 0 -575 0 0
-290 0 -290 1150 0 1150 0 0 -285 0 -285 -282 0 c-156 0 -804 -1 -1441 -3
l-1157 -2 0 578 0 577 -575 0 -575 0 0 575 0 575 -290 0 -290 0 3 -862 2 -863
578 -3 577 -2 0 -285 0 -285 -287 0 c-159 0 -677 -1 -1153 -3 l-865 -2 -3
-287 -2 -288 1155 0 1155 0 0 -290 0 -290 -580 0 -580 0 0 -285 0 -285 580 0
580 0 0 -575 0 -575 285 0 285 0 0 575 0 575 290 0 290 0 0 -575 0 -575 285 0
285 0 0 860 0 860 -575 0 -575 0 0 290 0 290 865 0 865 0 0 -1150 0 -1150 290
0 290 0 0 1150 0 1150 865 0 865 0 0 -290 0 -290 -580 0 -580 0 0 -1150 0
-1150 -1150 0 -1150 0 0 -290 0 -290 575 0 575 0 0 -285 0 -285 -865 0 -865 0
0 575 0 575 -285 0 -285 0 0 -865 0 -865 575 0 575 0 0 -575 0 -575 285 0 285
0 0 575 0 575 290 0 290 0 0 -1150 0 -1150 290 0 290 0 0 575 0 575 285 0 285
0 0 -575 0 -575 290 0 290 0 0 575 0 575 575 0 575 0 0 285 0 285 -1150 0
-1150 0 0 865 0 865 285 0 285 0 0 -575 0 -575 865 0 865 0 0 1155 0 1155 290
0 290 0 0 -580 0 -580 285 0 285 0 0 865 0 865 -860 0 -860 0 0 -1150 0 -1150
-290 0 -290 0 0 1440 0 1440 575 0 575 0 0 575 0 575 290 0 290 0 0 -575 0
-575 575 0 575 0 0 -2020 0 -2020 -290 0 -290 0 0 580 0 580 -285 0 -285 0 0
-865 0 -865 575 0 575 0 0 -290 0 -290 -1150 0 -1150 0 0 -285 0 -285 1150 0
1150 0 0 -580 0 -580 288 2 287 3 2 11233 3 11232 -10660 0 -10660 0 0 -285z"/>
</g>
</svg>
