<?xml version="1.0" standalone="no"?>
<!DOCTYPE svg PUBLIC "-//W3C//DTD SVG 20010904//EN"
 "http://www.w3.org/TR/2001/REC-SVG-20010904/DTD/svg10.dtd">
<svg version="1.0" xmlns="http://www.w3.org/2000/svg"
 width="2362.000000pt" height="2362.000000pt" viewBox="0 0 2362.000000 2362.000000"
 preserveAspectRatio="xMidYMid meet">
<metadata>
Created by potrace 1.16, written by Peter Selinger 2001-2019
</metadata>
<g transform="translate(0.000000,2362.000000) scale(0.100000,-0.100000)"
fill="#000000" stroke="none">
<path d="M290 12095 l0 -11235 10655 0 10655 0 0 290 0 290 -6910 0 -6910 0 0
575 0 575 -865 0 -865 0 0 -285 0 -285 575 0 575 0 0 -290 0 -290 -865 0 -865
0 0 575 0 575 -285 0 -285 0 0 -575 0 -575 -290 0 -290 0 0 1150 0 1150 -865
0 -865 0 0 -285 0 -285 580 0 580 0 0 -865 0 -865 -865 0 -865 0 0 290 0 290
575 0 575 0 0 285 0 285 -575 0 -575 0 -2 577 c-2 318 -2 707 0 865 l2 288
575 0 575 0 0 290 0 290 -865 0 -865 0 0 -1730 0 -1730 -290 0 -290 0 0 2015
0 2015 578 2 577 3 3 288 2 287 -580 0 -580 0 0 290 0 290 865 0 865 0 2 -577
3 -578 288 -3 287 -2 0 865 0 865 -1155 0 -1155 0 0 1440 0 1440 290 0 290 0
0 -1150 0 -1150 865 0 865 0 -2 863 -3 862 -285 0 -285 0 -3 -578 -2 -577
-285 0 -285 0 0 578 c0 317 -1 836 -3 1152 l-2 575 -577 3 -578 2 0 285 0 285
578 2 c317 2 706 2 865 0 l287 -2 0 -575 0 -575 290 0 290 0 0 575 0 575 288
0 c158 0 416 0 575 0 l287 -1 0 291 0 290 -575 0 -575 0 0 290 0 290 575 0
575 0 0 285 0 285 -865 0 -865 0 0 -575 0 -575 -865 0 -865 0 0 290 0 290 580
0 580 0 0 285 0 285 -580 0 -580 0 0 865 0 865 290 0 290 0 0 -575 0 -575
1730 0 1730 0 0 -575 0 -575 285 0 285 0 0 575 0 575 865 0 865 0 0 -290 0
-290 -575 0 -575 0 0 -575 0 -575 -575 0 -575 0 0 -1440 0 -1440 285 0 285 0
0 1150 0 1150 575 0 575 0 0 580 0 580 865 0 865 0 2 -577 3 -578 863 -2 862
-3 0 290 0 290 -575 0 -575 0 0 575 0 575 -575 0 -575 0 0 865 0 865 1440 0
1440 0 0 -575 0 -575 285 0 285 0 0 865 0 865 -862 0 c-475 0 -1251 0 -1725 0
l-863 0 0 575 0 575 -290 0 -290 0 0 -575 0 -575 -287 -2 c-159 -2 -807 -2
-1440 0 l-1153 2 0 285 0 285 575 0 575 0 0 1155 0 1155 575 0 575 0 0 285 0
285 -575 0 -575 0 0 290 0 290 575 0 575 0 0 1440 0 1440 -285 0 -285 0 0
-575 0 -575 -575 0 -575 0 0 -290 0 -290 575 0 575 0 0 -290 0 -290 -575 0
-575 0 0 -1150 0 -1150 -575 0 -575 0 0 -285 0 -285 575 0 575 0 0 -290 0
-290 -575 0 -575 0 0 -865 0 -865 1725 0 1725 0 0 -290 0 -290 -2590 0 -2590
0 0 290 0 290 575 0 575 0 0 1730 0 1730 575 0 575 0 0 285 0 285 -865 0 -865
0 0 -1725 0 -1725 -285 0 -285 0 0 288 c0 158 -1 415 -3 572 l-2 285 -287 3
-288 2 0 -575 0 -575 -290 0 -290 0 0 865 0 865 580 0 580 0 0 285 0 285 -580
0 -580 0 0 1440 0 1440 578 2 577 3 0 285 0 285 -577 3 -578 2 0 285 0 285
578 2 c317 2 706 2 865 0 l287 -2 0 -575 0 -575 290 0 290 0 0 865 0 865
-1155 0 -1155 0 0 575 0 575 -285 0 -285 0 0 -11235z M1440 23045 l0 -285
1730 0 1730 0 0 -290 0 -290 -575 0 -575 0 -2 -1152 -3 -1153 -1152 -3 -1153
-2 0 -860 0 -860 290 0 291 0 -1 288 c0 158 0 416 0 575 l0 287 1150 0 1150 0
0 1150 0 1150 288 0 c158 0 416 0 575 0 l287 -1 0 581 0 580 3170 0 3170 0 0
-290 0 -290 -1150 0 -1150 0 0 -575 0 -575 -865 0 -865 0 0 285 0 285 288 0
c158 0 416 0 575 0 l287 -1 0 291 0 290 -865 0 -865 0 0 -865 0 -865 1440 0
1440 0 0 575 0 575 575 0 c316 0 836 0 1155 0 319 0 708 0 865 0 l285 0 0
-285 0 -285 -1150 0 -1150 0 0 -580 0 -580 -1155 0 -1155 0 0 -575 0 -575
-285 0 -285 0 0 575 0 575 -290 0 -290 0 0 -1150 0 -1150 -575 0 -575 0 0
-865 0 -865 285 0 285 0 2 578 3 577 578 3 577 2 0 575 0 575 285 0 285 0 0
-577 c0 -318 1 -837 3 -1153 l2 -575 2303 -3 2302 -2 0 -285 0 -285 -287 0
c-159 0 -417 0 -575 0 l-288 1 0 -866 0 -865 575 0 575 0 0 -290 0 -290 -1440
0 -1440 0 0 575 0 575 -865 0 -865 0 0 -285 0 -285 580 0 580 0 0 -575 0 -575
575 0 575 0 0 -580 0 -580 285 0 285 0 0 580 0 580 290 0 290 0 0 -1440 0
-1440 -290 0 -290 0 0 575 0 575 -860 0 -860 0 0 -290 0 -290 575 0 575 0 0
-575 0 -575 575 0 575 0 0 -1440 0 -1440 -290 0 -290 0 0 575 0 575 -285 0
-285 0 0 -575 0 -575 -865 0 -865 0 0 290 0 290 575 0 575 0 0 575 0 575 575
0 575 0 0 285 0 285 -1150 0 -1150 0 0 290 0 290 575 0 575 0 0 290 0 291
-287 -1 c-159 0 -417 0 -575 0 l-288 0 0 575 0 575 -287 -2 -288 -3 -3 -572
-2 -573 -285 0 -285 0 0 1150 0 1150 -290 0 -290 0 0 -575 0 -575 -575 0 -575
0 0 -290 0 -290 575 0 575 0 0 -285 0 -285 -287 0 c-159 0 -417 0 -575 0
l-288 1 0 -291 0 -290 1150 0 1150 0 0 -290 0 -290 -1150 0 -1150 0 0 -285 0
-285 1730 0 1730 0 0 -290 0 -290 -580 0 -581 0 1 -288 c0 -158 0 -416 0 -574
l0 -288 -285 0 -285 0 0 575 0 575 -865 0 -865 0 0 -285 0 -285 575 0 575 0 0
-290 0 -290 -575 0 -575 0 0 -290 0 -290 1150 0 1150 0 0 -285 0 -285 -1440 0
-1440 0 0 1150 0 1150 -285 0 -285 0 0 -575 0 -575 -290 0 -290 0 0 865 0 865
575 0 575 0 0 285 0 285 -575 0 -575 0 0 1155 0 1155 -285 0 -285 0 0 -2595 0
-2595 575 0 575 0 0 -285 0 -285 -575 0 -575 0 0 -290 0 -290 575 0 575 0 0
-575 0 -575 285 0 285 0 0 575 0 575 865 0 865 0 0 -290 0 -290 -575 0 -575 0
0 -285 0 -285 1150 0 1150 0 0 -575 0 -575 290 0 290 0 0 575 0 575 575 0 575
0 0 285 0 285 -1150 0 -1150 0 0 290 0 290 1150 0 1150 0 0 290 0 290 -575 0
-575 0 0 285 0 285 1440 0 1440 0 0 -285 0 -285 -575 0 -575 0 0 -865 0 -865
285 0 285 0 0 575 0 575 580 0 580 0 0 578 c0 317 0 837 0 1155 l0 577 285 0
285 0 2 -577 3 -578 288 -3 287 -2 0 1155 0 1155 288 0 287 0 0 -1152 0 -1153
578 -3 577 -2 0 -285 0 -285 -1152 -2 -1153 -3 -3 -287 -2 -288 575 0 575 0 0
-290 0 -290 -1150 0 -1150 0 0 -285 0 -285 1153 0 1152 0 0 -290 0 -290 -2302
0 -2303 0 0 -285 0 -285 2590 0 2590 0 0 1150 0 1150 1150 0 1150 0 0 290 0
290 -575 0 -575 0 0 285 0 285 1153 2 1152 3 3 288 2 287 -580 0 -580 0 2 288
3 287 1728 3 1727 2 0 860 0 860 -285 0 -285 0 0 -575 0 -575 -290 0 -290 0 0
575 0 575 -290 0 -290 0 0 -575 0 -575 -865 0 -865 0 0 290 0 290 580 0 580 0
0 285 0 285 -1440 0 -1440 0 0 -860 0 -860 285 0 285 0 0 575 0 575 290 0 290
0 0 -865 0 -865 -865 0 -865 0 0 1150 0 1150 -865 0 -865 0 0 -575 0 -575
-285 0 -285 0 0 285 c0 157 0 418 0 580 0 162 0 423 0 580 l0 285 1150 0 1150
0 0 575 0 575 290 0 290 0 0 -575 0 -575 285 0 285 0 0 575 0 575 575 0 575 0
0 865 0 865 -860 0 -860 0 0 -290 0 -291 288 1 c158 0 416 0 575 0 l287 0 0
-285 0 -285 -865 0 -865 0 0 575 0 575 -290 0 -290 0 0 -862 c0 -475 0 -992 0
-1150 l0 -288 -285 0 -285 0 0 575 0 575 -290 0 -290 0 0 -575 0 -575 -285 0
-285 0 0 288 c-1 896 1 1426 3 1429 2 2 260 4 573 6 l569 2 3 288 2 287 -575
0 -575 0 0 290 0 290 575 0 575 0 0 860 0 860 -575 0 -575 0 0 290 0 290 2300
0 2300 0 0 865 0 865 -285 0 -285 0 0 -575 0 -575 -865 0 -865 0 0 285 0 285
575 0 575 0 0 290 0 290 -575 0 -575 0 0 290 0 290 1150 0 1150 0 0 575 0 575
290 0 290 0 0 -575 0 -575 290 0 290 0 0 1150 0 1150 285 0 285 0 0 -575 0
-575 290 0 290 0 0 575 0 575 290 0 290 0 0 -575 0 -575 860 0 860 0 0 285 0
285 -575 0 -575 0 0 575 0 575 -1440 0 -1440 0 0 -575 0 -575 -575 0 -575 0 0
-575 0 -575 -290 0 -290 0 0 575 0 575 -285 0 -285 0 0 -575 0 -575 -865 0
-865 0 0 575 0 575 -290 0 -290 0 0 -860 0 -860 575 0 575 0 0 -290 c0 -159 0
-420 0 -580 0 -159 0 -418 0 -575 l0 -285 -285 0 -285 0 0 575 0 575 -1155 0
-1155 0 0 1150 0 1150 -285 0 -285 0 0 -1150 0 -1150 -865 0 -865 0 0 290 0
290 575 0 575 0 0 860 0 860 -285 0 -285 0 0 -575 0 -575 -290 0 -290 0 0 865
0 865 1150 0 1150 0 0 575 0 575 290 0 290 0 0 -1725 0 -1725 290 0 290 0 0
1438 c0 790 0 1566 0 1725 l0 287 285 0 285 0 0 -575 0 -575 578 0 577 0 -3
-575 -2 -575 290 0 290 0 0 860 0 860 -575 0 -575 0 0 1155 0 1155 -575 0
-575 0 0 290 0 290 1440 0 1440 0 0 -580 0 -581 288 1 c158 0 416 0 575 0
l287 0 0 -285 0 -285 -865 0 -865 0 0 575 0 575 -287 -2 -288 -3 0 -860 0
-860 1153 -3 1152 -2 0 -290 0 -290 -575 0 -575 0 0 -285 0 -285 860 0 860 0
0 1150 0 1150 290 0 290 0 0 -575 0 -575 865 0 865 0 0 290 0 290 -575 0 -575
0 0 575 0 575 -1155 0 -1155 0 0 290 0 290 1440 0 1440 0 2 -577 3 -578 288
-3 287 -2 0 580 0 580 865 0 865 0 0 -290 0 -290 -575 0 -575 0 0 -865 0 -865
575 0 575 0 0 -575 0 -575 285 0 285 0 0 865 0 865 -575 0 -575 0 0 285 0 285
288 0 c158 0 416 0 575 0 l287 -1 0 581 0 580 290 0 290 0 0 -3170 0 -3170
-865 0 -865 0 0 290 0 290 575 0 575 0 0 285 0 285 -1440 0 -1440 0 0 -575 0
-575 -575 0 -575 0 0 -865 0 -865 290 0 290 0 0 575 0 575 575 0 575 0 0 580
0 580 288 -2 287 -3 3 -2882 2 -2883 285 0 285 0 0 580 0 580 575 0 575 0 0
285 0 285 -575 0 -575 0 0 290 0 290 575 0 575 0 0 285 0 285 -575 0 -575 0 0
865 0 865 290 0 290 0 0 -575 0 -575 285 0 285 0 0 575 0 575 290 0 290 0 0
-2015 0 -2015 -575 0 -575 0 0 -290 0 -291 288 1 c158 0 416 0 575 0 l287 0 0
-285 0 -285 -575 0 -575 0 0 -290 0 -290 575 0 575 0 0 -287 0 -288 -865 0
-865 0 0 578 0 577 -575 0 -575 0 0 2305 0 2305 -287 -2 -288 -3 -3 -577 -2
-578 -2305 0 -2305 0 0 -860 0 -860 865 0 865 0 0 285 0 285 -575 0 -575 0 0
290 0 290 865 0 865 0 0 -575 0 -575 285 0 285 0 0 575 0 575 865 0 865 0 0
-290 0 -290 -575 0 -575 0 0 -285 0 -285 575 0 575 0 0 -290 0 -290 -575 0
-575 0 0 -1150 0 -1150 -287 0 c-159 0 -417 0 -575 0 l-288 1 0 -291 0 -290
1440 0 1440 0 -2 288 -3 287 -285 2 c-157 2 -414 3 -572 3 l-288 0 0 860 0
860 285 0 285 0 0 -575 0 -575 580 0 580 0 0 -575 0 -575 575 0 575 0 0 -575
0 -575 285 0 285 0 0 575 0 575 290 0 290 0 0 -865 0 -865 -575 0 -575 0 0
-285 0 -285 575 0 575 0 0 -865 0 -865 -290 0 -290 0 0 575 0 575 -285 0 -285
0 0 -575 0 -575 -865 0 -865 0 0 285 0 285 575 0 575 0 0 290 0 290 -865 0
-865 0 0 -575 0 -575 -575 0 -575 0 0 -580 0 -580 -1150 0 -1150 0 0 -285 0
-285 1440 0 1440 0 0 575 0 575 285 0 285 0 0 -865 0 -865 -1725 0 -1725 0 0
-285 0 -285 2015 0 2015 0 0 1150 0 1150 290 0 290 0 0 -1150 0 -1150 860 0
860 0 0 285 0 285 -575 0 -575 0 0 865 0 865 290 0 290 0 0 -575 0 -575 285 0
285 0 0 575 0 575 290 0 290 0 0 -1730 0 -1730 288 2 287 3 2 11233 3 11232
-10660 0 -10660 0 0 -285z"/>
</g>
</svg>
