<?xml version="1.0" standalone="no"?>
<!DOCTYPE svg PUBLIC "-//W3C//DTD SVG 20010904//EN"
 "http://www.w3.org/TR/2001/REC-SVG-20010904/DTD/svg10.dtd">
<svg version="1.0" xmlns="http://www.w3.org/2000/svg"
 width="2362.000000pt" height="2362.000000pt" viewBox="0 0 2362.000000 2362.000000"
 preserveAspectRatio="xMidYMid meet">
<metadata>
Created by potrace 1.16, written by Peter Selinger 2001-2019
</metadata>
<g transform="translate(0.000000,2362.000000) scale(0.100000,-0.100000)"
fill="#000000" stroke="none">
<path d="M290 12095 l0 -11235 10655 0 10655 0 0 865 0 865 -285 0 -285 0 0
-575 0 -575 -290 0 -290 0 0 865 0 865 575 0 575 0 0 865 0 865 -285 0 -285 0
0 -580 0 -580 -290 0 -290 0 0 865 0 865 575 0 575 0 0 290 0 290 -575 0 -575
0 0 290 0 290 575 0 575 0 0 285 0 285 -575 0 -575 0 0 290 0 290 575 0 575 0
0 285 0 285 -575 0 -575 0 0 290 0 290 575 0 575 0 0 290 0 290 -860 0 -860 0
0 -580 0 -580 -580 0 -580 0 0 -285 0 -285 580 0 580 0 0 -2020 0 -2020 -290
0 -290 0 0 580 0 580 -575 0 -575 0 0 285 0 285 575 0 575 0 0 865 0 865 -290
0 -290 0 0 -575 0 -575 -285 0 -285 0 0 1150 0 1150 -580 0 -580 0 0 290 0
290 1155 0 1155 0 0 865 0 865 -865 0 -865 0 0 -290 0 -290 575 0 575 0 0
-285 0 -285 -285 0 c-157 0 -415 0 -575 0 -159 0 -420 0 -580 0 l-290 0 0 575
0 575 -285 0 -285 0 0 -1155 0 -1155 -575 0 -575 0 0 -860 0 -860 285 0 285 0
0 575 0 575 865 0 865 0 0 -290 0 -290 -575 0 -575 0 0 -865 0 -865 285 0 285
0 2 577 3 578 288 3 287 2 0 -1155 0 -1155 575 0 575 0 0 -865 0 -865 -285 0
-285 0 0 575 0 575 -580 0 -580 0 0 580 0 580 -285 0 -285 0 0 -865 0 -865
575 0 575 0 0 -290 0 -290 -575 0 -575 0 0 -285 0 -285 1440 0 1440 0 0 575 0
575 290 0 290 0 0 -865 0 -865 -2595 0 -2595 0 0 575 0 575 -2015 0 -2015 0 0
-285 0 -285 1725 0 1724 0 3 -290 3 -290 -2592 0 -2593 0 0 290 0 290 575 0
575 0 0 285 0 285 -865 0 -866 0 1 -288 c0 -158 0 -416 0 -574 l0 -288 -285 0
-285 0 0 575 0 575 -865 0 -865 0 0 -285 0 -285 575 0 575 0 0 -290 0 -290
-865 0 -865 0 0 575 0 575 -285 0 -285 0 0 -575 0 -575 -290 0 -290 0 0 575 0
575 -285 0 -285 0 0 -575 0 -575 -290 0 -290 0 0 575 0 575 -290 0 -290 0 0
-575 0 -575 -865 0 -865 0 0 865 0 865 290 0 290 0 0 -575 0 -575 290 0 290 0
0 860 0 860 -580 0 -580 0 0 1445 0 1445 290 0 290 0 0 -1155 0 -1155 290 0
290 0 0 1440 0 1440 -580 0 -580 0 0 290 0 290 1155 0 1155 0 0 285 0 285
-1155 0 -1155 0 0 290 0 290 1445 0 1445 0 0 -575 0 -575 1150 0 1150 0 0
-1155 0 -1155 575 0 575 0 0 -285 0 -285 -1725 0 -1725 0 -2 -577 -3 -578
-287 -3 -288 -2 0 1445 0 1445 865 0 865 0 0 -290 0 -290 -575 0 -575 0 0
-290 0 -290 860 0 860 0 0 865 0 865 -1440 0 -1440 0 0 -2015 0 -2015 1440 0
1440 0 0 285 0 285 -575 0 -575 0 0 290 0 290 2015 0 2015 0 0 -290 0 -290
-1150 0 -1150 0 0 -285 0 -285 1440 0 1440 0 0 575 0 575 290 0 290 0 0 -575
0 -575 285 0 285 0 0 865 0 865 -575 0 -575 0 0 1150 0 1150 -290 0 -291 0 1
-288 c0 -158 0 -675 0 -1149 l0 -863 -285 0 -285 0 0 1440 0 1440 575 0 575 0
0 285 0 285 -865 0 -865 0 0 -1150 0 -1150 -290 0 -290 0 0 1440 0 1440 1445
0 1445 0 0 -1730 0 -1730 285 0 285 0 0 580 0 580 575 0 575 0 0 285 0 285
-575 0 -575 0 0 290 0 290 865 0 865 0 0 -865 0 -865 -575 0 -575 0 0 -865 0
-865 285 0 285 0 0 575 0 575 290 0 290 0 0 -865 0 -865 -575 0 -575 0 0 -285
0 -285 865 0 865 0 0 1728 c0 950 0 1987 0 2305 l0 577 863 0 862 0 0 -290 0
-290 -577 0 -578 0 0 -2015 0 -2015 290 0 290 0 0 1730 0 1730 285 0 285 0 0
-292 c0 -161 0 -940 0 -1730 l0 -1438 580 0 580 0 0 -575 0 -575 285 0 285 0
0 860 0 860 -575 0 -575 0 0 290 0 290 575 0 575 0 0 865 0 865 -285 0 -285 0
0 -575 0 -575 -290 0 -290 0 0 2015 0 2015 575 0 575 0 0 1440 0 1440 -865 0
-865 0 2 -287 3 -288 578 -3 577 -2 0 -285 0 -285 -577 -2 -578 -3 0 -285 0
-285 578 -3 577 -2 0 -285 0 -285 -287 0 c-159 0 -418 -1 -578 -3 l-290 -2 -2
-290 c-2 -159 -3 -419 -3 -577 l0 -288 -2015 0 -2015 0 0 290 0 290 1730 0
1730 0 -2 288 -3 287 -1728 0 -1727 0 0 288 0 287 1730 0 1730 0 0 290 0 290
-575 0 -575 0 0 285 0 285 288 0 c158 0 415 1 572 3 l285 2 3 863 2 862 -290
0 -290 0 0 -575 0 -575 -865 0 -865 0 0 290 0 290 580 0 580 0 0 285 0 285
-580 0 -580 0 0 290 0 290 1443 0 1442 0 -3 -575 -2 -575 865 0 865 0 0 285 0
285 -575 0 -575 0 0 1155 0 1156 -287 -1 c-159 0 -417 0 -575 0 l-288 0 0 575
0 575 -290 0 -290 0 0 -575 0 -575 -287 0 c-159 0 -417 0 -575 0 l-288 1 0
-291 0 -290 1150 0 1150 0 0 -290 0 -290 -1440 0 -1440 0 0 865 0 865 578 2
577 3 3 578 2 577 575 0 575 0 0 575 0 575 575 0 575 0 0 285 0 285 -865 0
-865 0 0 -575 0 -575 -865 0 -865 0 0 1440 0 1440 578 2 577 3 0 285 0 285
-1152 3 -1153 2 0 575 0 575 -1440 0 -1440 0 0 -865 0 -865 290 0 290 0 0 575
0 575 288 2 c158 2 547 2 865 0 l577 -2 0 -575 0 -575 575 0 575 0 0 -1440 0
-1440 -290 0 -290 0 0 575 0 575 -285 0 -285 0 0 -575 0 -575 -290 0 -290 0 0
575 0 575 -865 0 -865 0 0 -285 0 -285 575 0 575 0 0 -290 0 -290 -575 0 -575
0 0 -285 0 -285 575 0 575 0 2 -577 3 -578 288 -3 287 -2 0 580 0 580 1440 0
1440 0 0 -290 0 -290 -575 0 -575 0 0 -575 0 -575 -290 0 -290 0 0 575 0 575
-285 0 -285 0 0 -575 0 -575 -577 -2 -578 -3 -3 -287 -2 -288 1155 0 1155 0 0
-290 0 -290 -1730 0 -1730 0 0 -285 0 -285 575 0 575 0 0 -290 0 -290 -865 0
-865 0 0 575 0 575 -285 0 -285 0 0 -860 0 -860 1440 0 1440 0 0 575 0 575
865 0 865 0 0 -290 0 -290 -575 0 -575 0 0 -285 0 -285 575 0 575 0 0 -580 0
-581 288 1 c158 0 416 0 575 0 l287 0 0 -285 0 -285 -1440 0 -1440 0 0 285 0
285 288 0 c158 0 416 0 575 0 l287 -1 0 291 0 290 -865 0 -865 0 3 -862 2
-863 578 -3 577 -2 0 -285 0 -285 -287 0 c-159 0 -1068 -1 -2021 -3 l-1732 -2
0 578 0 577 -285 0 -285 0 0 -865 0 -865 575 0 575 0 0 -290 0 -290 -865 0
-865 0 0 1155 0 1155 -1440 0 -1440 0 0 -290 0 -290 1155 0 1155 0 0 -285 0
-285 -290 0 c-159 0 -679 0 -1155 0 -476 0 -995 0 -1155 0 l-290 0 0 860 0
860 578 2 577 3 3 288 2 287 -580 0 -580 0 0 2015 0 2015 865 0 865 0 0 -285
0 -285 -287 0 c-159 0 -417 0 -575 0 l-288 1 0 -291 0 -290 575 0 575 0 0
-290 0 -290 -575 0 -575 0 0 -860 0 -860 575 0 575 0 2 -577 3 -578 1440 -2
c792 -2 1569 -3 1728 -3 l287 0 0 -575 0 -575 285 0 285 0 0 575 0 575 290 0
290 0 0 -575 0 -575 290 0 290 0 0 865 0 865 -1730 0 -1730 0 0 290 0 290 575
0 575 0 0 285 0 285 -860 0 -860 0 0 -575 0 -575 -290 0 -290 0 0 575 0 575
-575 0 -575 0 0 290 0 290 1150 0 1150 0 0 865 0 865 -285 0 -285 0 -2 -577
-3 -578 -287 -3 -288 -2 0 865 0 865 575 0 575 0 0 290 0 290 -575 0 -575 0 0
575 0 575 -865 0 -865 0 0 -285 0 -285 575 0 575 0 0 -290 0 -290 -865 0 -865
0 0 1440 0 1440 865 0 865 0 0 -290 0 -290 -575 0 -575 0 0 -285 0 -285 1155
0 1155 0 0 -575 0 -575 1150 0 1150 0 0 -290 0 -290 -575 0 -575 0 0 -290 0
-290 575 0 575 0 0 -285 0 -285 -575 0 -575 0 0 -865 0 -865 285 0 285 0 0
575 0 575 575 0 575 0 0 575 0 575 290 0 290 0 0 -575 0 -575 290 0 290 0 0
865 0 865 -580 0 -580 0 0 575 0 575 -1150 0 -1150 0 0 290 0 290 575 0 575 0
0 285 0 285 -575 0 -575 0 0 290 0 290 575 0 575 0 0 285 0 285 -860 0 -860 0
0 -575 0 -575 -290 0 -290 0 0 1440 0 1440 288 0 c158 0 675 0 1150 0 l862 0
0 290 0 290 -1440 0 -1440 0 0 -575 0 -575 -575 0 -575 0 0 -290 0 -290 575 0
575 0 0 -290 0 -290 -862 2 -863 3 -3 1728 -2 1727 -285 0 -285 0 0 -11235z
M1440 22465 l0 -865 288 2 287 3 3 578 2 577 2015 0 2015 0 0 -865 0 -865
-1150 0 -1150 0 0 -290 0 -290 1150 0 1150 0 0 -1150 0 -1150 285 0 285 0 0
575 0 575 1730 0 1730 0 0 285 0 285 -575 0 -575 0 0 580 0 580 -287 -2 -288
-3 -3 -578 -2 -577 -863 2 -862 3 -3 1443 -2 1442 2595 0 2595 0 0 -290 0
-290 -575 0 -575 0 0 -290 0 -290 863 0 c474 0 991 0 1150 0 l287 0 0 -865 0
-865 -575 0 -575 0 0 -860 0 -860 290 0 291 0 -1 288 c0 158 0 416 0 575 l0
287 1150 0 1150 0 0 285 0 285 -575 0 -575 0 0 290 0 290 575 0 575 0 0 290 0
290 -575 0 -575 0 0 575 0 575 -575 0 -575 0 0 290 0 290 1440 0 1440 0 0
-290 0 -290 -577 -2 -578 -3 0 -285 0 -285 863 -2 862 -3 0 580 0 580 865 0
865 0 0 -580 0 -580 288 2 287 3 3 578 2 577 865 0 865 0 -2 -1442 -3 -1443
-287 -3 -288 -2 0 1155 0 1155 -290 0 -290 0 0 -1440 0 -1440 580 0 580 0 0
-290 0 -290 -580 0 -580 0 0 -285 0 -285 865 0 865 0 0 2305 0 2305 865 0 865
0 0 -290 0 -290 -575 0 -575 0 0 -1440 0 -1440 285 0 285 0 0 1150 0 1150 290
0 290 0 0 -2015 0 -2015 -290 0 -290 0 0 575 0 575 -285 0 -285 0 0 -860 0
-860 575 0 575 0 0 -290 0 -290 -575 0 -575 0 0 -290 0 -290 575 0 575 0 0
-865 0 -865 -290 0 -290 0 0 580 0 580 -575 0 -575 0 0 1150 0 1150 -1150 0
-1150 0 0 1150 0 1150 -290 0 -290 0 0 -575 0 -575 -290 0 -290 0 0 865 0 865
580 0 580 0 -2 288 -3 287 -577 3 -578 2 0 575 0 575 -285 0 -285 0 0 -575 0
-575 -575 0 -575 0 0 -290 0 -290 575 0 575 0 0 -290 0 -290 -575 0 -575 0 0
-1150 0 -1150 -580 0 -580 0 3 -862 2 -863 288 -3 287 -2 0 580 0 580 575 0
575 0 0 1150 0 1150 290 0 290 0 0 -575 0 -575 575 0 575 0 0 -290 0 -290
-575 0 -575 0 0 -285 0 -285 1728 -2 1727 -3 3 -287 2 -288 -2305 0 -2305 0 0
-290 0 -290 575 0 575 0 0 -285 0 -285 -575 0 -575 0 0 -865 0 -865 285 0 285
0 0 575 0 575 865 0 865 0 0 -290 0 -290 -575 0 -575 0 0 -1440 0 -1440 285 0
285 0 0 580 0 580 290 0 290 0 2 -577 3 -578 285 0 285 0 3 863 2 862 -580 0
-580 0 0 290 0 290 580 0 580 0 0 575 0 575 285 0 285 0 2 -1727 3 -1728 288
-3 287 -2 0 2020 0 2020 -1155 0 -1155 0 0 285 0 285 1445 0 1445 0 0 -575 0
-575 575 0 575 0 0 -575 0 -575 575 0 575 0 0 -865 0 -865 -290 0 -290 0 0
575 0 575 -575 0 -575 0 0 575 0 575 -285 0 -285 0 0 -2015 0 -2015 860 0 860
0 0 290 0 290 -575 0 -575 0 0 865 0 865 290 0 290 0 0 -580 0 -581 288 1
c158 0 416 0 575 0 l287 0 0 -5185 0 -5185 288 2 287 3 2 11233 3 11232
-10660 0 -10660 0 0 -865z"/>
</g>
</svg>
