<?xml version="1.0" standalone="no"?>
<!DOCTYPE svg PUBLIC "-//W3C//DTD SVG 20010904//EN"
 "http://www.w3.org/TR/2001/REC-SVG-20010904/DTD/svg10.dtd">
<svg version="1.0" xmlns="http://www.w3.org/2000/svg"
 width="2362.000000pt" height="2362.000000pt" viewBox="0 0 2362.000000 2362.000000"
 preserveAspectRatio="xMidYMid meet">
<metadata>
Created by potrace 1.16, written by Peter Selinger 2001-2019
</metadata>
<g transform="translate(0.000000,2362.000000) scale(0.100000,-0.100000)"
fill="#000000" stroke="none">
<path d="M290 12095 l0 -11235 10655 0 10655 0 0 290 0 290 -1725 0 -1725 0 0
290 0 290 575 0 575 0 0 575 0 575 290 0 290 0 0 -575 0 -575 285 0 285 0 0
575 0 575 290 0 290 0 0 -575 0 -575 285 0 285 0 0 860 0 860 -575 0 -575 0 0
580 0 580 -285 0 -285 0 0 -580 0 -580 -1155 0 -1155 0 0 -285 0 -285 575 0
575 0 0 -290 0 -290 -575 0 -575 0 0 -575 0 -575 -1440 0 -1440 0 0 290 0 290
1150 0 1150 0 0 860 0 860 -285 0 -285 0 0 -575 0 -575 -1155 0 -1155 0 2
-575 3 -575 -862 0 -863 0 0 290 0 290 575 0 575 0 0 285 0 285 -575 0 -575 0
0 290 0 290 1150 0 1150 0 0 285 0 285 -575 0 -575 0 0 290 0 290 575 0 575 0
0 865 0 865 -865 0 -865 0 2 -287 3 -288 573 -3 572 -2 0 -285 0 -285 -860 0
-860 0 0 288 c0 158 -1 415 -3 572 l-2 285 -287 3 -288 2 0 -575 0 -575 -290
0 -290 0 0 865 0 865 580 0 580 0 0 575 0 575 575 0 575 0 0 575 0 575 288 0
287 0 -3 -575 -2 -575 290 0 290 0 0 575 0 575 575 0 575 0 0 290 0 290 -575
-2 -575 -3 0 288 0 287 865 0 865 0 0 -575 0 -575 285 0 285 0 0 575 0 575
865 0 865 0 0 -285 0 -285 -287 0 c-159 0 -416 -1 -573 -3 l-285 -2 -3 -577
-2 -578 -575 0 -575 0 0 -285 0 -285 575 0 575 0 0 -575 0 -575 290 0 290 0 0
575 0 575 865 0 865 0 0 -865 0 -865 -290 0 -290 0 0 575 0 575 -290 0 -290 0
0 -1150 0 -1150 -285 0 -285 0 0 575 0 575 -580 0 -580 0 0 575 0 575 -575 0
-575 0 0 575 0 575 -285 0 -285 0 0 -575 0 -575 -1155 0 -1155 0 0 -285 0
-285 1730 0 1730 0 0 -290 0 -290 -575 0 -575 0 0 -1440 0 -1440 285 0 285 0
0 1150 0 1150 290 0 290 0 0 -575 0 -575 285 0 285 0 0 575 0 575 290 0 290 0
0 -575 0 -575 865 0 865 0 0 575 0 575 575 0 575 0 0 1440 0 1440 -1150 0
-1150 0 0 290 0 290 1150 0 1150 0 0 290 0 291 -287 -1 c-159 0 -417 0 -575 0
l-288 0 0 575 0 575 -575 0 -575 0 0 285 0 285 288 0 c158 0 416 0 575 0 l287
-1 0 291 0 290 -575 0 -575 0 0 290 0 290 575 0 575 0 0 860 0 860 -575 0
-575 0 0 865 0 865 575 0 575 0 0 290 0 290 -575 0 -575 0 0 575 0 575 -290 0
-290 0 0 -2015 0 -2015 575 0 575 0 0 -290 0 -290 -575 0 -575 0 0 -1150 0
-1150 -290 0 -290 0 0 575 0 575 -285 0 -285 0 0 -575 0 -575 -865 0 -865 0 0
285 0 285 288 0 c158 0 416 0 575 0 l287 -1 0 291 0 290 -1150 0 -1150 0 0
865 0 865 288 0 287 0 -3 -575 -2 -575 290 0 290 0 0 1150 0 1150 290 0 290 0
0 -575 0 -575 285 0 285 0 0 575 0 575 290 0 290 0 0 -865 0 -865 -575 0 -575
0 0 -285 0 -285 860 0 860 0 0 1440 0 1440 -1437 -2 -1438 -3 -2 -285 c-2
-157 -3 -417 -3 -577 l0 -293 -285 0 -285 0 -2 578 -3 577 -285 0 -285 0 -3
-577 -2 -578 -285 0 -285 0 0 575 c0 316 0 708 0 870 0 162 0 554 0 870 l0
575 285 0 285 0 0 -580 0 -580 290 0 290 0 0 580 0 580 285 0 285 0 0 -292 c0
-161 1 -421 3 -578 l2 -285 288 -3 287 -2 0 865 0 865 -575 0 -575 0 0 865 0
865 575 0 575 0 0 285 0 285 -1440 0 -1440 0 0 -285 0 -285 575 0 575 0 0
-865 0 -865 -1150 0 -1150 0 0 -285 0 -285 575 0 575 0 0 -1730 0 -1730 575 0
575 0 0 -290 0 -290 -575 0 -575 0 0 -285 0 -285 575 0 575 0 0 -290 0 -290
-575 0 -575 0 0 -575 0 -575 -290 0 -290 0 0 575 0 575 -575 0 -575 0 0 290 0
290 575 0 575 0 0 285 0 285 -575 0 -575 0 0 1155 0 1155 -285 0 -285 0 0
-580 0 -580 -580 0 -580 0 0 -285 0 -285 580 0 580 0 0 -1155 0 -1156 288 1
c158 0 416 0 575 0 l287 0 0 -1150 0 -1150 865 0 865 0 -2 288 -3 287 -577 3
-578 2 0 285 0 285 1155 0 1155 0 0 290 0 290 -575 0 -575 0 0 285 0 285 288
0 c904 1 1426 -1 1429 -4 4 -4 4 -1708 0 -1713 -2 -1 -260 -4 -573 -6 l-569
-2 -3 -577 -2 -578 -1440 0 -1440 0 0 1155 0 1155 -285 0 -285 0 0 -575 0
-575 -290 0 -290 0 0 1725 0 1725 -290 0 -291 0 1 -287 c0 -159 0 -417 0 -575
l0 -288 -865 0 -865 0 0 1150 0 1150 -285 0 -285 0 0 -575 0 -575 -290 0 -290
0 0 575 0 575 -2015 0 -2015 0 0 -285 0 -285 1730 0 1730 0 0 -290 0 -290
-1730 0 -1730 0 0 -285 0 -285 1730 0 1730 0 0 -290 0 -290 -575 0 -575 0 0
-575 0 -575 -1155 0 -1155 0 0 -290 0 -290 575 0 575 0 0 -285 0 -285 -287 0
c-159 0 -416 -1 -573 -3 l-285 -2 -3 -287 -2 -288 575 0 575 0 0 -575 0 -575
290 0 290 0 0 1150 0 1150 290 0 290 0 0 -1150 0 -1150 285 0 285 0 0 575 0
575 575 0 575 0 0 865 0 865 -285 0 -285 0 0 -577 0 -578 -290 0 -290 0 0 863
0 862 288 0 c158 0 416 0 575 0 l287 -1 0 581 0 580 290 0 290 0 0 -580 0
-581 288 1 c158 0 416 0 575 0 l287 0 0 -285 0 -285 -575 0 -575 0 0 -290 0
-290 575 0 575 0 0 -285 0 -285 -287 0 c-159 0 -417 0 -575 0 l-288 1 0 -291
0 -290 865 0 865 0 0 1150 0 1150 285 0 285 0 0 -862 c0 -475 0 -992 0 -1151
l-1 -287 581 0 580 0 0 -575 0 -575 1150 0 1150 0 0 -290 0 -290 -575 0 -575
0 0 -1440 0 -1440 1150 0 1150 0 0 -290 0 -290 -575 0 -575 0 0 -1150 0 -1150
-290 0 -290 0 0 575 0 575 -285 0 -285 0 0 -575 0 -575 -2595 0 -2595 0 0 290
0 290 1155 0 1155 0 0 285 0 285 -580 0 -580 0 0 290 0 290 580 0 580 0 0 285
0 285 -865 0 -865 0 0 -575 0 -575 -575 0 -575 0 0 -575 0 -575 -290 0 -290 0
0 865 0 865 575 0 575 0 0 1730 0 1730 290 0 290 0 0 -1155 0 -1155 285 0 285
0 0 575 0 575 578 2 577 3 3 578 2 577 285 0 285 0 0 -865 0 -865 -575 0 -575
0 0 -290 0 -290 1155 0 1155 0 0 -865 0 -865 -290 0 -290 0 0 575 0 575 -290
0 -290 0 0 -860 0 -860 865 0 865 0 0 575 0 575 575 0 575 0 0 285 0 285 -575
0 -575 0 0 1730 0 1730 -285 0 -285 0 0 -1150 0 -1150 -290 0 -290 0 0 1725 0
1725 -290 0 -290 0 0 -575 0 -575 -285 0 -285 0 0 575 0 575 -1440 0 -1440 0
0 -285 0 -285 1150 0 1150 0 0 -865 0 -865 -290 0 -290 0 0 575 0 575 -1435 0
-1435 0 0 -1440 0 -1440 285 0 285 0 0 1155 0 1155 290 0 290 0 0 -1445 0
-1445 -575 0 -575 0 0 -1150 0 -1150 -290 0 -290 0 0 575 0 575 -290 0 -290 0
0 -575 0 -575 -285 0 -285 0 0 288 c0 158 0 416 0 575 l1 287 -291 0 -290 0 0
-575 0 -575 -290 0 -290 0 0 1440 0 1440 290 0 290 0 0 -575 0 -575 865 0 865
0 0 2015 0 2015 -865 0 -865 0 0 -865 0 -865 288 2 287 3 3 578 2 577 285 0
285 0 0 -1445 0 -1445 -285 0 -285 0 -2 577 -3 578 -577 3 -578 2 0 1440 0
1440 580 0 580 0 0 285 0 285 -580 0 -580 0 0 1440 0 1440 578 0 c317 0 836 1
1152 3 l575 2 3 288 2 287 -1155 0 -1155 0 0 3170 0 3170 290 0 290 0 0 -1730
0 -1730 865 0 865 0 0 290 0 290 -575 0 -575 0 0 288 c0 158 0 934 0 1725 l0
1437 -580 0 -580 0 0 1440 0 1440 578 2 577 3 3 288 2 287 -580 0 -580 0 0
575 0 575 -285 0 -285 0 0 -11235z M1440 23045 l0 -285 575 0 575 0 0 -1445 0
-1445 -285 0 -285 0 -2 578 -3 577 -287 3 -288 2 0 -865 0 -865 865 0 865 0 0
1730 0 1730 865 0 865 0 0 -290 0 -290 -575 0 -575 0 0 -1440 0 -1440 575 0
575 0 0 -290 0 -290 -575 0 -575 0 0 -575 0 -575 -290 0 -290 0 0 575 0 575
-290 0 -290 0 0 -860 0 -860 578 -2 577 -3 3 -287 2 -288 -580 0 -580 0 2
-287 3 -288 578 -3 577 -2 0 -575 0 -575 285 0 285 0 0 575 0 575 290 0 290 0
0 -575 0 -575 285 0 285 0 0 865 0 865 -575 0 -575 0 0 865 0 865 290 0 290 0
0 -575 0 -575 285 0 285 0 0 575 0 575 290 0 290 0 0 -1155 0 -1155 575 0 575
0 0 -285 0 -285 -287 0 c-159 0 -417 0 -575 0 l-288 1 0 -291 0 -290 575 0
575 0 0 -1150 0 -1150 290 0 290 0 0 2880 0 2880 575 0 575 0 0 1150 0 1150
290 0 290 0 0 -1440 0 -1440 -580 0 -580 0 0 -285 0 -285 578 -2 577 -3 3
-287 2 -288 -580 0 -580 0 0 -865 0 -865 290 0 290 0 0 575 0 575 865 0 865 0
0 -1150 0 -1150 285 0 285 0 0 1440 0 1440 -575 0 -575 0 0 1440 0 1440 290 0
290 0 0 -575 0 -575 865 0 865 0 0 285 0 285 -580 0 -580 0 0 575 0 575 -575
0 -575 0 0 290 0 290 1730 0 1730 0 0 290 0 290 -1155 0 -1155 0 0 285 0 285
578 2 577 3 3 288 2 287 -865 0 -865 0 0 -575 0 -575 -1152 -2 -1153 -3 -2
-575 c-2 -316 -3 -835 -3 -1152 l0 -578 -575 0 -575 0 0 -1150 0 -1150 -290 0
-290 0 0 1440 0 1440 580 0 580 0 -2 863 -3 862 -287 3 -288 2 0 -580 0 -580
-287 2 -288 3 -3 578 -2 577 -285 0 -285 0 0 -1155 0 -1155 -290 0 -290 0 0
575 0 575 -575 0 -575 0 0 865 0 865 290 0 290 0 0 -575 0 -575 285 0 285 0 0
575 0 575 578 0 c317 0 836 1 1152 3 l575 2 3 288 2 287 -1155 0 -1155 0 0
290 0 290 2020 0 2020 0 0 -290 0 -290 -580 0 -580 0 2 -287 3 -288 863 -2
862 -3 0 580 0 580 1440 0 1440 0 2 -577 3 -578 285 0 285 0 3 578 2 577 285
0 285 0 0 -292 c0 -161 1 -680 3 -1153 l2 -860 288 -3 287 -2 0 575 0 575 288
0 c158 0 416 0 575 0 l287 -1 0 291 0 290 -575 0 -575 0 0 290 0 290 865 0
865 0 0 -580 0 -581 288 1 c158 0 416 0 575 0 l287 0 0 -865 0 -865 -287 2
-288 3 -3 578 -2 577 -285 0 -285 0 0 -580 0 -580 -290 0 -290 0 0 580 0 580
-285 0 -285 0 0 -1155 0 -1155 -580 0 -580 0 0 -285 0 -285 580 0 580 0 0
-1155 0 -1155 285 0 285 0 0 1730 0 1730 290 0 290 0 0 -1730 0 -1730 285 0
285 0 0 1730 0 1730 290 0 290 0 0 -575 0 -575 865 0 865 0 0 285 0 285 -575
0 -575 0 0 865 0 865 285 0 285 0 0 -575 0 -575 290 0 290 0 0 575 0 575 290
0 290 0 0 -575 0 -575 285 0 285 0 0 865 0 865 -1150 0 -1150 0 0 285 0 285
285 0 c157 0 546 0 865 0 319 0 839 0 1155 0 l575 0 0 -1150 0 -1150 285 0
285 0 0 1440 0 1440 -2305 0 -2305 0 0 290 0 290 2595 0 2595 0 0 -2020 0
-2020 -575 0 -575 0 0 -285 0 -285 575 0 575 0 0 -290 0 -290 -865 0 -865 0 0
575 0 575 -285 0 -285 0 0 -575 0 -575 -580 0 -580 0 0 -285 0 -285 1730 0
1730 0 0 -290 0 -290 -1150 0 -1150 0 0 -575 0 -575 -577 -2 -578 -3 -3 -287
-2 -288 865 0 865 0 0 575 0 575 865 0 865 0 0 -285 0 -285 -287 0 c-159 0
-417 0 -575 0 l-288 1 0 -291 0 -290 575 0 575 0 0 -290 0 -290 -1150 0 -1150
0 0 -860 0 -860 285 0 285 0 0 575 0 575 865 0 865 0 0 -290 0 -290 -575 0
-575 0 0 -285 0 -285 575 0 575 0 0 -290 0 -290 -1150 0 -1150 0 0 -290 0
-291 288 1 c158 0 416 0 575 0 l287 0 0 -285 0 -285 -575 0 -575 0 0 -290 0
-290 860 0 860 0 0 575 0 575 290 0 290 0 0 -862 0 -863 -575 3 -575 2 0 -290
0 -290 575 0 575 0 0 -2015 0 -2015 -290 0 -290 0 0 1725 0 1725 -285 0 -285
0 0 -2015 0 -2015 575 0 575 0 0 -1730 0 -1730 288 2 287 3 2 11233 3 11232
-10660 0 -10660 0 0 -285z"/>
</g>
</svg>
