<?xml version="1.0" standalone="no"?>
<!DOCTYPE svg PUBLIC "-//W3C//DTD SVG 20010904//EN"
 "http://www.w3.org/TR/2001/REC-SVG-20010904/DTD/svg10.dtd">
<svg version="1.0" xmlns="http://www.w3.org/2000/svg"
 width="2362.000000pt" height="2362.000000pt" viewBox="0 0 2362.000000 2362.000000"
 preserveAspectRatio="xMidYMid meet">
<metadata>
Created by potrace 1.16, written by Peter Selinger 2001-2019
</metadata>
<g transform="translate(0.000000,2362.000000) scale(0.100000,-0.100000)"
fill="#000000" stroke="none">
<path d="M290 12095 l0 -11235 10655 0 10655 0 0 290 0 290 -8065 0 -8065 0 0
575 0 575 -285 0 -285 0 0 -575 0 -575 -290 0 -290 0 0 575 0 575 -285 0 -285
0 0 -575 0 -575 -865 0 -865 0 0 290 0 290 575 0 575 0 0 285 0 285 -865 0
-865 0 0 -575 0 -575 -290 0 -290 0 0 5475 0 5475 1443 -2 1442 -3 3 -862 2
-863 -580 0 -580 0 0 -865 0 -865 290 0 290 0 0 575 0 575 1150 0 1150 0 0
290 0 290 -575 0 -575 0 0 1150 0 1150 -1150 0 -1150 0 -2 578 c-2 317 -2 706
0 865 l2 287 285 0 285 0 0 -575 0 -575 290 0 290 0 0 575 0 575 290 0 290 0
0 -575 0 -575 1435 0 1435 0 2 1728 3 1727 1440 0 1440 0 3 -1442 2 -1443
-580 0 -580 0 0 -285 0 -285 865 0 865 0 0 1730 0 1730 575 0 575 0 0 860 0
860 -285 0 -285 0 0 -575 0 -575 -2020 0 -2020 0 0 290 0 290 580 0 580 0 0
860 0 860 -290 0 -290 0 0 -575 0 -575 -575 0 -575 0 0 -2305 0 -2305 -290 0
-290 0 0 580 0 580 -285 0 -285 0 0 -580 0 -580 -290 0 -290 0 0 1155 0 1155
-285 0 -285 0 0 -575 0 -575 -865 0 -865 0 -2 288 c-2 158 -2 547 0 865 l2
577 285 0 285 0 2 -577 3 -578 288 -3 287 -2 0 1440 0 1440 -290 0 -290 0 0
-575 0 -575 -575 0 -575 0 0 -2305 0 -2305 -290 0 -290 0 0 2595 0 2595 580 0
580 0 0 285 0 285 -580 0 -580 0 0 290 0 290 580 0 580 0 0 285 0 285 -577 2
-578 3 -3 1728 -2 1727 -285 0 -285 0 0 -11235z M1440 23045 l0 -285 575 0
575 0 0 -290 0 -290 -575 0 -575 0 0 -865 0 -865 288 2 287 3 2 285 c2 157 3
414 3 573 l0 287 285 0 285 0 0 -1150 0 -1150 1155 0 1155 0 0 -290 0 -290
-575 0 -575 0 0 -285 0 -285 575 0 575 0 0 -290 0 -290 -575 0 -575 0 0 -285
0 -285 575 0 575 0 0 -580 0 -580 285 0 285 0 0 1730 0 1730 575 0 575 0 0
865 0 865 -285 0 -285 0 0 -580 0 -580 -290 0 -290 0 0 1155 0 1155 -285 0
-285 0 0 -1155 0 -1155 -865 0 -865 0 0 1445 0 1445 288 -2 287 -3 3 -1152 2
-1153 285 0 285 0 0 1155 0 1155 865 0 865 0 0 -580 0 -580 285 0 285 0 0 580
0 580 290 0 290 0 0 -1155 0 -1155 290 0 290 0 0 1155 0 1155 285 0 285 0 2
-577 3 -578 288 -3 287 -2 0 580 0 580 290 0 290 0 0 -865 0 -865 -577 -2
-578 -3 -3 -287 -2 -288 580 0 580 0 -2 -287 -3 -288 -577 -3 -578 -2 0 -860
0 -860 290 0 290 0 0 575 0 575 290 0 290 0 0 -575 0 -575 285 0 285 0 0 575
0 575 865 0 865 0 0 -575 0 -575 290 0 290 0 0 863 c0 474 0 991 0 1150 l0
287 285 0 285 0 0 -1440 0 -1440 -575 0 -575 0 0 -575 0 -575 -575 0 -575 0 0
-1440 0 -1440 285 0 285 0 0 1150 0 1150 1155 0 1155 0 0 290 0 290 -575 0
-575 0 0 290 0 290 1150 0 1150 0 0 860 0 860 -290 0 -290 0 2 -575 3 -575
-287 0 -288 0 0 1730 0 1730 -865 0 -865 0 0 -580 0 -580 -865 0 -865 0 0
1445 0 1445 290 0 290 0 0 -1155 0 -1155 285 0 285 0 0 575 0 575 578 2 577 3
3 288 2 287 -580 0 -580 0 0 290 0 290 2020 0 2020 0 0 -290 0 -290 -1155 0
-1155 0 2 -287 3 -288 1438 -2 1437 -3 0 580 0 580 865 0 865 0 0 -290 0 -290
-575 0 -575 0 0 -290 0 -291 288 1 c158 0 416 0 575 0 l287 0 0 -285 0 -285
-1150 0 -1150 0 0 -290 0 -290 575 0 575 0 0 -290 0 -290 -865 0 -865 0 0 580
0 580 -287 -2 -288 -3 -2 -862 -3 -863 580 0 580 0 0 -1150 0 -1150 860 0 860
0 0 285 0 285 -575 0 -575 0 0 865 0 865 1440 0 1440 0 0 -290 0 -290 -1150 0
-1150 0 0 -285 0 -285 575 0 575 0 0 -575 0 -575 865 0 865 0 0 285 0 285
-575 0 -575 0 0 290 0 290 575 0 575 0 0 575 0 575 290 0 290 0 0 -575 0 -575
860 0 860 0 0 285 0 285 -575 0 -575 0 0 575 0 575 -575 0 -575 0 0 290 0 290
1150 0 1150 0 0 865 0 865 -285 0 -285 0 0 -575 0 -575 -1152 -2 -1153 -3 -3
-578 -2 -577 -863 2 -862 3 -3 288 -2 287 580 0 580 0 0 575 0 575 288 0 c158
0 675 0 1150 0 l862 0 0 290 0 290 -1150 0 -1150 0 0 290 0 290 2015 0 2015 0
0 -1445 0 -1445 -575 0 -575 0 0 -285 0 -285 575 0 575 0 0 -865 0 -865 -1150
0 -1150 0 0 -285 0 -285 575 0 575 0 0 -580 0 -580 285 0 285 0 0 580 0 580
290 0 290 0 0 -1445 0 -1445 -290 0 -290 0 0 580 0 580 -285 0 -285 0 0 -865
0 -865 575 0 575 0 0 -290 0 -290 -2015 0 -2015 0 0 290 0 290 1150 0 1150 0
0 285 0 285 -575 0 -575 0 0 290 0 290 575 0 575 0 0 865 0 865 -285 0 -285 0
0 -575 0 -575 -290 0 -290 0 0 575 0 575 -2015 0 -2015 0 0 -290 0 -290 575 0
575 0 0 -285 0 -285 -865 0 -865 0 0 575 0 575 -287 -2 -288 -3 -2 -569 c-2
-313 -4 -571 -6 -573 -2 -1 -520 -3 -1150 -3 l-1147 0 0 -1440 0 -1440 575 0
575 0 0 -865 0 -865 -285 0 -285 0 0 288 c0 158 0 416 0 575 l1 287 -581 0
-580 0 0 575 0 575 -860 0 -860 0 0 -285 0 -285 575 0 575 0 0 -290 0 -290
-575 0 -575 0 0 -290 0 -291 288 1 c158 0 416 0 575 0 l287 0 0 -285 0 -285
-865 0 -865 0 0 1150 0 1150 -290 0 -291 0 1 -287 c0 -159 0 -417 0 -575 l0
-288 -575 0 -575 0 0 -575 0 -575 -290 0 -290 0 0 865 0 865 580 0 580 0 0
1150 0 1150 575 0 575 0 0 865 0 865 -865 0 -865 0 0 -290 0 -290 575 0 575 0
0 -285 0 -285 -575 0 -575 0 0 -1155 0 -1155 -575 0 -575 0 0 -575 0 -575
-290 0 -290 0 0 575 0 575 -285 0 -285 0 0 -865 0 -866 288 1 c158 0 416 0
575 0 l287 0 0 -575 0 -575 865 0 865 0 0 575 0 575 285 0 285 0 2 -862 c2
-475 2 -1123 0 -1441 l-2 -577 -285 0 -285 0 -2 577 -3 578 -2012 2 -2013 3 0
-290 0 -290 575 0 575 0 0 -1440 0 -1440 -290 0 -290 0 0 1150 0 1150 -865 0
-865 0 0 -285 0 -285 580 0 580 0 0 -290 0 -290 -865 0 -865 0 0 288 c-1 1988
1 3736 3 3739 2 2 260 4 573 6 l569 2 3 288 2 287 -865 0 -865 0 0 -2590 0
-2590 1153 -2 1152 -3 3 -287 2 -288 -1155 0 -1155 0 0 -290 0 -290 1730 0
1730 0 0 -285 0 -285 -575 0 -575 0 -2 -577 -3 -578 -287 -3 -288 -2 0 580 0
580 -865 0 -865 0 0 -290 0 -290 575 0 575 0 0 -290 0 -290 -575 0 -575 0 0
-285 0 -285 2015 0 2015 0 0 285 0 285 -575 0 -575 0 0 290 0 290 1440 0 1440
0 0 -290 0 -290 -575 0 -575 0 0 -285 0 -285 575 0 575 0 0 -290 0 -290 -575
0 -575 0 0 -285 0 -285 2590 0 2590 0 0 285 0 285 -575 0 -575 0 0 575 0 575
-285 0 -285 0 0 -575 0 -575 -290 0 -290 0 0 575 0 575 -290 0 -290 0 0 -575
0 -575 -285 0 -285 0 -2 1153 -3 1152 -1152 3 -1153 2 0 2015 0 2015 290 0
290 0 0 -1150 0 -1150 865 0 865 0 0 285 0 285 -580 0 -580 0 0 865 0 865 290
0 290 0 0 -575 0 -575 575 0 575 0 0 -575 0 -575 580 0 580 0 0 -290 0 -290
-1730 0 -1730 0 0 -290 0 -290 1150 0 1150 0 0 -575 0 -575 290 0 290 0 0 575
0 575 290 0 290 0 0 -575 0 -575 285 0 285 0 0 1155 0 1155 575 0 575 0 0 285
0 285 -1150 0 -1150 0 0 865 0 865 290 0 290 0 0 -575 0 -575 285 0 285 0 0
865 0 866 -287 -1 c-159 0 -417 0 -575 0 l-288 0 0 285 0 285 1150 0 1150 0 0
575 0 575 290 0 290 0 0 -860 0 -860 -287 0 c-159 0 -417 0 -575 0 l-288 1 0
-866 0 -865 865 0 865 0 0 285 0 285 -580 0 -580 0 0 290 0 290 580 0 581 0
-1 287 c0 159 0 417 0 576 l0 287 575 0 575 0 0 575 0 575 285 0 285 0 0 -287
c1 -897 -1 -1427 -3 -1430 -2 -2 -260 -4 -573 -6 l-569 -2 -3 -1728 -2 -1727
-285 0 -285 0 0 288 c0 158 0 416 0 574 l1 288 -291 0 -290 0 0 -865 0 -865
1150 0 1150 0 0 -285 0 -285 -572 -2 -573 -3 -3 -578 -2 -577 -865 0 -865 0 0
290 0 290 580 0 580 0 -2 288 -3 287 -577 3 -578 2 0 575 0 575 -285 0 -285 0
0 -1440 0 -1440 575 0 575 0 0 -575 0 -575 290 0 291 0 -1 287 c0 159 0 417 0
576 l0 287 575 0 575 0 0 575 0 575 865 0 865 0 0 -290 0 -290 -580 0 -580 0
0 -285 0 -285 865 0 865 0 0 575 0 575 290 0 290 0 0 -865 0 -865 -1730 0
-1730 0 0 -285 0 -285 2015 0 2015 0 0 575 0 575 290 0 290 0 0 -575 0 -575
1440 0 1440 0 0 285 0 285 -1150 0 -1150 0 0 290 0 290 575 0 575 0 0 285 0
285 -1155 0 -1155 0 0 290 0 290 1155 0 1155 0 0 290 0 290 -1730 0 -1730 0 0
285 0 285 1730 0 1730 0 0 290 0 290 -2015 0 -2015 0 0 -575 0 -575 -290 0
-290 0 0 575 0 575 -575 0 -575 0 0 865 0 865 575 0 575 0 0 285 0 285 -575 0
-575 0 0 290 0 290 575 0 575 0 0 2015 0 2015 -290 0 -291 0 1 -287 c0 -159 0
-417 0 -575 l0 -288 -285 0 -285 0 0 575 0 575 -575 0 -575 0 0 285 c0 157 0
418 0 580 0 162 0 423 0 580 l0 285 285 0 285 0 0 -575 0 -575 290 0 290 0 0
575 0 575 285 0 285 0 0 -287 c0 -159 0 -417 0 -575 l-1 -288 291 0 290 0 0
575 0 575 290 0 290 0 0 -2880 0 -2880 285 0 285 0 0 1150 0 1150 290 0 290 0
0 -1440 0 -1440 -575 0 -575 0 0 -575 0 -575 -580 0 -580 0 0 -285 0 -285 865
0 865 0 0 575 0 575 290 0 290 0 0 -575 0 -575 1440 0 1440 0 0 285 0 285
-1155 0 -1155 0 0 290 0 290 1155 0 1155 0 -2 863 -3 862 -285 2 c-157 2 -414
3 -572 3 l-288 0 0 285 0 285 575 0 575 0 0 865 0 865 -290 0 -290 0 0 -575 0
-575 -575 0 -575 0 0 -865 0 -865 575 0 575 0 0 -290 0 -290 -865 0 -865 0 0
1730 0 1730 -575 0 -575 0 0 865 0 865 290 0 290 0 0 -575 0 -575 285 0 285 0
0 860 0 860 -575 0 -575 0 0 290 0 290 575 0 575 0 0 575 0 575 865 0 865 0 0
-865 0 -865 -285 0 -285 0 -2 578 -3 577 -288 3 -287 2 2 -2017 3 -2018 285 0
285 0 3 578 2 577 2015 0 2015 0 0 -290 0 -290 -575 0 -575 0 0 -1152 0 -1153
-290 0 -290 0 0 1153 0 1152 -285 0 -285 0 0 -3745 0 -3745 285 0 285 0 0
1155 0 1155 575 0 575 0 0 285 0 285 -575 0 -575 0 0 865 0 865 575 0 575 0 0
1150 0 1150 290 0 290 0 0 -1440 0 -1440 -575 0 -575 0 0 -285 0 -285 575 0
575 0 0 -865 0 -865 -575 0 -575 0 0 -290 0 -290 575 0 575 0 0 -865 0 -865
-290 0 -290 0 0 580 0 580 -285 0 -285 0 0 -580 0 -580 -575 0 -575 0 0 -285
0 -285 575 0 575 0 0 -575 0 -575 285 0 285 0 0 575 0 575 290 0 290 0 0
-1155 0 -1155 288 2 287 3 2 11233 3 11232 -10660 0 -10660 0 0 -285z"/>
</g>
</svg>
