<?xml version="1.0" standalone="no"?>
<!DOCTYPE svg PUBLIC "-//W3C//DTD SVG 20010904//EN"
 "http://www.w3.org/TR/2001/REC-SVG-20010904/DTD/svg10.dtd">
<svg version="1.0" xmlns="http://www.w3.org/2000/svg"
 width="2362.000000pt" height="2362.000000pt" viewBox="0 0 2362.000000 2362.000000"
 preserveAspectRatio="xMidYMid meet">
<metadata>
Created by potrace 1.16, written by Peter Selinger 2001-2019
</metadata>
<g transform="translate(0.000000,2362.000000) scale(0.100000,-0.100000)"
fill="#000000" stroke="none">
<path d="M290 12095 l0 -11235 10655 0 10655 0 0 290 0 290 -5185 0 -5185 0 0
290 0 290 580 0 580 0 0 285 0 285 -865 0 -865 0 0 -575 0 -575 -290 0 -290 0
0 575 0 575 -285 0 -285 0 0 -575 0 -575 -1445 0 -1445 0 0 290 0 290 1155 0
1155 0 0 285 0 285 -575 0 -575 0 0 575 0 575 -290 0 -290 0 0 -575 0 -575
-575 0 -575 0 0 -575 0 -575 -290 0 -290 0 0 575 0 575 -1150 0 -1150 0 0 290
0 290 575 0 575 0 0 575 0 575 290 0 290 0 0 -575 0 -575 860 0 860 0 0 285 0
285 -575 0 -575 0 0 580 0 580 -575 0 -575 0 0 575 0 575 -865 0 -865 0 2
-288 3 -287 578 -3 577 -2 -2 -863 -3 -862 -577 -3 -578 -2 0 -575 0 -575
-285 0 -285 0 0 575 0 575 -290 0 -290 0 0 -860 0 -860 1730 0 1730 0 0 -290
0 -290 -2020 0 -2020 0 0 2595 0 2595 290 0 290 0 0 -1155 0 -1155 865 0 865
0 0 290 0 290 -575 0 -575 0 -2 287 c-2 159 -2 548 0 866 l2 577 1150 0 1150
0 0 1150 0 1150 1440 0 1440 0 0 -290 0 -290 -1150 0 -1150 0 0 -860 0 -860
575 0 575 0 0 -290 0 -290 -575 0 -575 0 0 -290 0 -290 860 0 860 0 0 865 0
865 -575 0 -575 0 0 290 0 290 865 0 865 0 0 -1155 0 -1155 865 0 865 0 0 290
0 290 -575 0 -575 0 0 290 0 290 575 0 575 0 0 860 0 860 -290 0 -290 0 0
-575 0 -575 -285 0 -285 0 0 865 0 865 575 0 575 0 0 1150 0 1150 288 0 c158
0 416 0 575 0 l287 -1 0 866 0 865 -285 0 -285 0 0 -575 0 -575 -580 0 -581 0
1 -287 c0 -159 0 -417 0 -575 l0 -288 -575 0 -575 0 0 -290 0 -290 575 0 575
0 0 -285 0 -285 -285 0 c-157 0 -415 0 -575 0 -159 0 -420 0 -580 0 l-290 0 0
575 0 575 -575 0 -575 0 0 285 0 285 575 0 575 0 0 290 0 290 -860 0 -860 0 0
-865 0 -865 575 0 575 0 0 -287 0 -288 -1150 2 -1150 3 0 -1155 0 -1155 -1445
0 -1445 0 0 865 0 865 290 0 290 0 0 -575 0 -575 865 0 865 0 -2 863 -3 862
-285 0 -285 0 -3 -578 -2 -577 -285 0 -285 0 -2 577 -3 578 -285 2 c-157 2
-417 3 -577 3 l-293 0 0 2015 0 2015 1730 0 1730 0 0 1150 0 1150 1150 0 1150
0 0 290 0 290 -1725 0 -1725 0 0 290 0 290 575 0 575 0 0 285 0 285 -865 0
-865 0 2 -862 3 -863 578 -3 577 -2 -2 -863 -3 -862 -1442 -3 -1443 -2 0 4610
0 4610 -285 0 -285 0 0 -11235z M1440 19010 l0 -4320 865 0 865 0 0 290 0 290
-575 0 -575 0 0 285 c0 157 0 546 0 865 0 319 0 839 0 1155 l0 575 575 0 575
0 0 285 0 285 -575 0 -575 0 0 290 0 290 575 0 575 0 0 285 0 285 -575 0 -575
0 0 575 c0 316 0 708 0 870 0 162 0 554 0 870 l0 575 3745 0 3745 0 0 -290 0
-290 -580 0 -580 0 2 -287 3 -288 578 -3 577 -2 0 -285 0 -285 -865 0 -865 0
0 575 0 575 -290 0 -290 0 0 -575 0 -575 -865 0 -865 0 0 285 0 285 575 0 575
0 0 290 0 290 -2015 0 -2015 0 2 -287 3 -288 575 -2 c316 -2 835 -3 1153 -3
l577 0 0 -285 0 -285 -1155 0 -1155 0 0 -290 0 -290 1155 0 1155 0 0 -290 0
-290 -575 0 -575 0 0 -285 0 -285 575 0 575 0 0 -290 0 -290 -575 0 -575 0 0
-285 0 -285 575 0 575 0 0 -575 0 -575 860 0 860 0 0 285 0 285 -575 0 -575 0
0 1440 0 1440 290 0 290 0 0 -1150 0 -1150 285 0 285 0 0 575 0 575 865 0 865
0 0 -290 0 -290 -575 0 -575 0 0 -285 0 -285 1155 0 1155 0 0 -2020 0 -2020
-290 0 -290 0 0 1730 0 1730 -290 0 -291 0 1 -287 c0 -159 0 -417 0 -575 l0
-288 -285 0 -285 0 0 575 0 575 -290 0 -290 0 0 -865 0 -865 575 0 575 0 0
-285 0 -285 -575 0 -575 0 0 -580 0 -580 -865 0 -865 0 0 290 0 290 575 0 575
0 0 290 0 290 -860 0 -860 0 0 -865 0 -865 1150 0 1150 0 0 -290 0 -290 -2880
0 -2880 0 0 -1440 0 -1440 865 0 865 0 0 290 0 290 -575 0 -575 0 -2 288 c-2
158 -2 547 0 865 l2 577 285 0 285 0 2 -577 3 -578 285 0 285 0 3 578 2 577
288 -2 287 -3 3 -1152 2 -1153 285 0 285 0 0 1155 0 1155 1440 0 1440 0 2
-577 3 -578 285 0 285 0 3 1728 2 1727 285 0 285 0 0 -287 c0 -159 0 -676 0
-1150 l0 -863 290 0 290 0 0 575 0 575 575 0 575 0 0 1150 0 1150 290 0 290 0
0 -575 0 -575 285 0 285 0 0 865 0 865 -575 0 -575 0 0 1150 0 1150 -575 0
-575 0 0 575 0 575 -1152 2 -1153 3 -3 288 -2 287 1730 0 1730 0 0 1155 0
1155 865 0 865 0 0 -290 0 -290 -575 0 -575 0 0 -1155 0 -1155 -575 0 -575 0
0 -285 0 -285 860 0 860 0 0 1150 0 1150 290 0 290 0 0 -575 0 -575 1150 0
1150 0 0 -287 c0 -159 0 -417 0 -575 l-1 -288 2306 0 2305 0 0 -290 0 -290
-1725 0 -1725 0 0 -285 0 -285 575 0 575 0 0 -290 0 -290 -575 0 -575 0 0
-575 0 -575 -290 0 -290 0 0 575 0 575 -290 0 -290 0 0 -862 c0 -475 0 -992 0
-1150 l0 -288 -860 0 -860 0 0 285 0 285 575 0 575 0 0 1155 0 1155 575 0 575
0 0 285 0 285 -575 0 -575 0 0 575 0 575 -290 0 -290 0 0 -1725 0 -1725 -285
0 -285 0 0 288 c0 158 0 416 0 575 l1 287 -581 0 -580 0 0 290 0 290 580 0
580 0 0 860 0 860 -290 0 -290 0 0 -575 0 -575 -575 0 -575 0 0 -860 0 -860
575 0 575 0 0 -1445 0 -1445 -575 0 -575 0 0 -285 0 -285 1150 0 1150 0 0
-290 0 -290 -575 0 -575 0 0 -285 0 -285 575 0 575 0 0 -290 0 -290 -865 0
-865 0 0 575 0 575 -285 0 -285 0 0 -865 0 -865 1438 3 1437 2 3 1153 2 1152
288 0 287 0 -3 -575 -2 -575 290 0 290 0 0 575 0 575 575 0 575 0 0 575 0 575
290 0 290 0 0 -865 0 -865 -575 0 -575 0 0 -285 0 -285 860 0 860 0 0 575 0
575 580 0 580 0 -2 863 -3 862 -287 3 -288 2 0 -580 0 -580 -290 0 -290 0 0
580 0 580 -860 0 -860 0 0 -580 0 -580 -1440 0 -1440 0 0 290 0 290 1150 0
1150 0 0 575 0 575 1150 0 1150 0 0 290 0 290 -575 0 -575 0 0 290 0 290 575
0 575 0 0 575 0 575 1445 0 1445 0 0 -290 0 -290 -580 0 -580 0 0 -285 0 -285
578 -2 577 -3 3 -1442 2 -1443 -290 0 -290 0 0 1155 0 1155 -575 0 -575 0 0
575 0 575 -290 0 -290 0 0 -865 0 -865 575 0 575 0 0 -1150 0 -1150 865 0 865
0 0 1730 0 1730 575 0 575 0 0 285 0 285 -575 0 -575 0 0 290 0 290 575 0 575
0 0 1440 0 1440 -860 0 -860 0 0 -290 0 -290 575 0 575 0 0 -865 0 -865 -290
0 -290 0 0 575 0 575 -285 0 -285 0 0 -575 0 -575 -290 0 -290 0 0 1440 0
1440 288 0 c158 0 416 0 575 0 l287 -1 0 291 0 290 -2015 0 -2015 0 0 -575 0
-575 -290 0 -290 0 0 575 0 575 -862 -2 -863 -3 0 -285 0 -285 578 -3 577 -2
0 -575 0 -575 1440 0 1440 0 -2 288 -3 287 -577 3 -578 2 0 285 0 285 578 2
c317 2 706 2 865 0 l287 -2 0 -865 0 -865 -2015 0 -2015 0 0 580 0 580 -1150
0 -1150 0 0 285 0 285 573 2 572 3 3 288 2 287 -575 0 -575 0 0 290 0 290
4320 0 4320 0 0 -580 0 -580 285 0 285 0 0 580 0 580 290 0 290 0 0 -3170 0
-3170 -575 0 -575 0 0 -290 0 -290 575 0 575 0 0 -285 0 -285 -287 0 c-159 0
-417 0 -575 0 l-288 1 0 -1156 0 -1155 -1730 0 -1730 0 0 -575 0 -575 -575 0
-575 0 0 -575 0 -575 -290 0 -290 0 0 575 0 575 -285 0 -285 0 0 -575 0 -575
-290 0 -290 0 0 575 0 575 -290 0 -290 0 0 -862 c0 -475 0 -992 0 -1150 l0
-288 -285 0 -285 0 0 575 0 575 -865 0 -865 0 0 -1155 0 -1155 -865 0 -865 0
0 865 0 865 290 0 290 0 0 -575 0 -575 285 0 285 0 0 865 0 865 -860 0 -860 0
0 -2015 0 -2015 575 0 575 0 0 -290 0 -290 -575 0 -575 0 0 -290 0 -290 575 0
575 0 0 -285 0 -285 -2305 0 -2305 0 0 -290 0 -290 1150 0 1150 0 0 -287 c0
-159 0 -417 0 -575 l-1 -288 2596 0 2595 0 0 285 0 285 -2305 0 -2305 0 0 290
0 290 1150 0 1150 0 0 575 0 575 865 0 865 0 0 -285 0 -285 -575 0 -575 0 0
-290 0 -290 1730 0 1730 0 0 -290 0 -290 -580 0 -580 0 0 -285 0 -285 1155 0
1155 0 0 -290 0 -290 -1730 0 -1730 0 0 -285 0 -285 2595 0 2595 0 0 285 0
285 -580 0 -580 0 0 575 0 575 -575 0 -575 0 0 1155 0 1155 -862 -2 -863 -3 0
-285 0 -285 578 -3 577 -2 0 -285 0 -285 -865 0 -865 0 0 575 0 575 -1155 0
-1155 0 0 290 0 290 1155 0 1155 0 0 285 0 285 -1730 0 -1730 0 0 290 0 290
1155 0 1155 0 0 863 c0 474 0 991 0 1150 l0 287 285 0 285 0 0 -1150 0 -1150
290 0 290 0 0 575 0 575 288 0 287 0 -3 -575 -2 -575 290 0 290 0 0 575 0 575
575 0 575 0 0 290 0 290 -575 -2 -575 -3 0 288 0 287 2015 0 2015 0 0 -285 0
-285 -287 0 c-159 0 -676 0 -1150 0 l-863 0 0 -290 0 -290 575 0 575 0 0
-1440 0 -1440 -290 0 -290 0 0 1150 0 1150 -860 0 -860 0 0 -285 0 -285 575 0
575 0 0 -290 0 -290 -1155 0 -1155 0 0 -285 0 -285 1155 0 1155 0 0 -1155 0
-1155 575 0 575 0 0 -575 0 -575 575 0 575 0 0 -575 0 -575 1440 0 1440 0 0
285 0 285 -1150 0 -1150 0 0 290 0 290 1150 0 1150 0 0 285 0 285 -1725 0
-1725 0 -2 578 -3 577 -577 3 -578 2 0 285 0 285 865 0 865 0 0 -575 0 -575
865 0 865 0 0 290 0 290 -575 0 -575 0 0 1150 0 1150 -290 0 -290 0 0 -575 0
-575 -285 0 -285 0 0 1440 0 1440 285 0 285 0 0 -575 0 -575 290 0 290 0 0
1440 0 1440 -1155 0 -1155 0 0 285 0 285 578 2 577 3 3 578 2 577 865 0 865 0
0 -290 0 -290 -580 0 -580 0 2 -287 3 -288 863 -2 862 -3 0 580 0 580 290 0
290 0 0 -1155 0 -1155 285 0 285 0 0 2305 0 2305 290 0 290 0 0 -2592 0 -2593
-575 3 -575 2 0 -290 0 -290 575 0 575 0 0 -865 0 -865 -865 0 -865 0 0 290 0
290 575 0 575 0 0 285 0 285 -575 0 -575 0 0 1155 0 1155 -285 0 -285 0 0
-2015 0 -2015 1150 0 1150 0 0 -290 0 -290 -1150 0 -1150 0 0 -290 0 -290 575
0 575 0 0 -575 0 -575 285 0 285 0 0 575 0 575 290 0 290 0 0 -2305 0 -2305
288 2 287 3 2 11233 3 11232 -10660 0 -10660 0 0 -4320z"/>
</g>
</svg>
