<?xml version="1.0" standalone="no"?>
<!DOCTYPE svg PUBLIC "-//W3C//DTD SVG 20010904//EN"
 "http://www.w3.org/TR/2001/REC-SVG-20010904/DTD/svg10.dtd">
<svg version="1.0" xmlns="http://www.w3.org/2000/svg"
 width="2362.000000pt" height="2362.000000pt" viewBox="0 0 2362.000000 2362.000000"
 preserveAspectRatio="xMidYMid meet">
<metadata>
Created by potrace 1.16, written by Peter Selinger 2001-2019
</metadata>
<g transform="translate(0.000000,2362.000000) scale(0.100000,-0.100000)"
fill="#000000" stroke="none">
<path d="M290 12095 l0 -11235 10655 0 10655 0 0 865 0 865 -860 0 -860 0 0
-285 0 -285 575 0 575 0 0 -290 0 -290 -1440 0 -1440 0 0 290 0 290 575 0 575
0 0 285 0 285 -1440 0 -1440 0 0 -285 0 -285 575 0 575 0 0 -290 0 -290 -865
0 -865 0 0 1150 0 1150 -285 0 -285 0 0 -1150 0 -1150 -290 0 -290 0 0 575 0
575 -575 0 -575 0 0 575 0 575 -290 0 -290 0 0 -575 0 -575 -285 0 -285 0 0
288 c0 158 0 416 0 574 l1 288 -291 0 -290 0 0 -860 0 -860 1150 0 1149 0 3
-290 3 -290 -1442 0 -1443 0 0 575 0 575 -575 0 -575 0 0 290 0 290 575 0 575
0 0 285 0 285 -860 0 -860 0 0 -860 0 -860 575 0 575 0 0 -290 0 -290 -865 0
-865 0 0 575 0 575 -290 0 -291 0 1 -288 c0 -158 0 -416 0 -574 l0 -288 -1440
0 -1440 0 0 575 0 575 -575 0 -575 0 0 1730 0 1730 -575 0 -575 0 0 865 0 865
865 0 865 0 0 -290 0 -290 -575 0 -575 0 0 -285 0 -285 1150 0 1150 0 0 -580
0 -580 575 0 575 0 0 -285 0 -285 -865 0 -865 0 0 575 0 575 -285 0 -285 0 0
-1440 0 -1440 285 0 285 0 0 575 0 575 290 0 290 0 0 -575 0 -575 575 0 575 0
0 -290 0 -290 -575 0 -575 0 0 -285 0 -285 865 0 865 0 0 860 0 860 -577 2
-578 3 -3 288 -2 287 580 0 580 0 0 575 0 575 285 0 285 0 0 -862 c0 -475 0
-992 0 -1151 l-1 -287 291 0 290 0 0 1440 0 1440 -575 0 -575 0 0 290 0 290
865 0 865 0 0 -1155 0 -1155 1440 0 1440 0 0 578 c0 317 0 837 0 1155 l0 577
575 0 575 0 0 285 0 285 -575 0 -575 0 0 290 0 290 863 0 862 0 -3 -575 -2
-575 290 0 290 0 0 575 0 575 575 0 575 0 0 285 0 285 -1150 0 -1150 0 0 290
0 290 2015 0 2015 0 0 -1730 0 -1730 288 2 287 3 3 578 2 577 1440 0 1440 0 0
-290 0 -290 -1155 0 -1155 0 0 -865 0 -865 580 0 580 0 0 -290 0 -290 -865 0
-865 0 -2 578 -3 577 -577 3 -578 2 0 1725 0 1725 -285 0 -285 0 0 -1150 0
-1150 -290 0 -290 0 0 575 0 575 -285 0 -285 0 0 -1150 0 -1150 -290 0 -290 0
0 575 0 575 -865 0 -865 0 2 -287 3 -288 573 -3 572 -2 0 -285 0 -285 -572 -2
-573 -3 -3 -287 -2 -288 575 0 575 0 0 -287 c0 -159 0 -417 0 -576 l-1 -287
291 0 290 0 0 575 0 575 575 0 575 0 0 575 0 575 290 0 290 0 0 -1150 0 -1150
285 0 285 0 0 575 0 575 290 0 290 0 0 -575 0 -575 1440 0 1440 0 0 865 0 865
-575 0 -575 0 0 285 0 285 865 0 865 0 0 -1150 0 -1150 285 0 285 0 0 2015 0
2015 -1150 0 -1150 0 0 575 0 575 -290 0 -290 0 0 -575 0 -575 -285 0 -285 0
0 1440 0 1440 285 0 285 0 0 -575 0 -575 580 0 580 0 0 -575 0 -575 285 0 285
0 0 865 0 866 -287 -1 c-159 0 -417 0 -575 0 l-288 0 0 285 0 285 575 0 575 0
0 575 0 575 290 0 290 0 0 -1725 0 -1725 285 0 285 0 0 2015 0 2015 -575 0
-575 0 0 290 0 290 575 0 575 0 0 1440 0 1440 -285 0 -285 0 0 -1155 0 -1155
-290 0 -290 0 0 1155 0 1155 -285 0 -285 0 0 -580 0 -580 -290 0 -290 0 0
1155 0 1155 -865 0 -865 0 0 -290 0 -290 575 0 575 0 0 -285 0 -285 -862 -2
c-475 -2 -1123 -2 -1440 0 l-578 2 0 285 0 285 575 0 575 0 0 290 0 290 -575
0 -575 0 0 290 0 290 575 0 575 0 0 285 0 285 -575 0 -575 0 0 290 0 290 575
0 575 0 0 285 0 285 -2300 0 -2300 0 0 290 0 290 575 0 575 0 0 1440 0 1440
-1440 0 -1440 0 0 -290 0 -290 863 0 c474 0 991 0 1150 0 l287 0 0 -865 0
-865 -575 0 -575 0 0 -860 0 -860 575 0 575 0 0 -1155 0 -1155 290 0 290 0 0
1155 0 1155 865 0 865 0 0 -865 0 -865 -290 0 -290 0 0 575 0 575 -290 0 -290
0 3 -862 2 -863 578 -3 577 -2 0 -285 0 -285 -577 -2 -578 -3 -2 -285 c-2
-157 -3 -417 -3 -577 l0 -293 -575 0 -575 0 0 -575 0 -575 -865 0 -865 0 0
575 0 575 -575 0 -575 0 0 580 0 580 -285 0 -285 0 0 -1440 0 -1440 285 0 285
0 0 575 0 575 290 0 290 0 0 -865 0 -865 -575 0 -575 0 0 -575 0 -575 -290 0
-290 0 0 575 0 575 -290 0 -291 0 1 -287 c0 -159 0 -417 0 -575 l0 -288 -285
0 -285 0 0 865 0 865 575 0 575 0 0 285 0 285 -575 0 -575 0 0 290 0 290 575
0 575 0 0 865 0 865 -575 0 -575 0 0 285 0 285 575 0 575 0 0 580 0 580 575 0
575 0 0 285 0 285 -865 0 -866 0 1 -287 c0 -159 0 -417 0 -575 l0 -288 -575 0
-575 0 0 -865 0 -865 575 0 575 0 0 -290 0 -290 -862 2 -863 3 -3 578 -2 577
-285 0 -285 0 0 -1155 0 -1155 -1730 0 -1730 0 0 -285 0 -285 1730 0 1730 0 0
-1730 0 -1730 865 0 865 0 -2 288 -3 287 -285 2 c-157 2 -417 3 -577 3 l-293
0 0 2015 0 2015 290 0 290 0 0 -1730 0 -1730 575 0 575 0 0 -287 c0 -159 0
-417 0 -576 l-1 -287 291 0 290 0 0 575 0 575 575 0 575 0 0 575 0 575 290 0
290 0 0 -862 0 -863 -575 3 -575 2 0 -290 0 -290 860 0 860 0 0 1730 0 1730
290 0 290 0 0 -580 0 -580 288 2 287 3 3 578 2 577 575 0 575 0 0 575 0 575
1150 0 1150 0 0 285 0 285 -575 0 -575 0 0 290 0 290 865 0 865 0 0 -575 0
-575 285 0 285 0 0 575 0 575 865 0 865 0 0 -290 0 -290 -575 0 -575 0 0 -860
0 -860 290 0 290 0 0 575 0 575 285 0 285 0 0 -575 0 -575 290 0 290 0 0 575
0 575 290 0 290 0 0 -1440 0 -1440 -1155 0 -1155 0 0 -575 0 -575 -290 0 -290
0 0 860 0 860 578 0 c317 0 837 0 1155 0 l577 0 0 290 0 290 -1155 0 -1155 0
0 575 0 575 -860 0 -860 0 0 -285 0 -285 575 0 575 0 0 -290 0 -290 -575 0
-575 0 0 -290 0 -291 288 1 c158 0 416 0 575 0 l287 0 0 -285 0 -285 -575 0
-575 0 0 -290 0 -290 575 0 575 0 0 -287 0 -288 -865 0 -865 0 0 1728 0 1727
-290 0 -290 0 0 -862 c0 -475 0 -992 0 -1150 l0 -288 -285 0 -285 0 0 575 0
575 -290 0 -290 0 0 -575 0 -575 -575 0 -575 0 0 -290 0 -290 1150 0 1150 0 0
-285 0 -285 -287 0 c-159 0 -416 -1 -573 -3 l-285 -2 -3 -577 -2 -578 -285 0
-285 0 -2 578 -3 577 -288 3 -287 2 0 -2305 0 -2305 -865 0 -865 0 0 285 0
285 575 0 575 0 0 290 0 290 -575 0 -575 0 0 290 0 290 575 0 575 0 0 860 0
860 -285 0 -285 0 0 -575 0 -575 -865 0 -865 0 0 290 0 290 575 0 575 0 0 285
0 285 -865 0 -865 0 0 -575 0 -575 -285 0 -285 0 0 575 0 575 -865 0 -865 0 0
-285 0 -285 575 0 575 0 0 -865 0 -865 -290 0 -290 0 0 575 0 575 -575 0 -575
0 0 575 0 575 -1150 0 -1150 0 0 290 0 290 575 0 575 0 0 865 0 865 -285 0
-285 0 0 -575 0 -575 -292 0 c-161 0 -680 -1 -1153 -3 l-860 -2 -3 -287 -2
-288 575 0 575 0 2 -1728 3 -1727 578 -3 577 -2 0 -1440 0 -1440 -580 0 -580
0 0 -285 0 -285 1155 0 1155 0 0 -290 0 -290 -2020 0 -2020 0 0 865 0 865 290
0 290 0 0 -575 0 -575 290 0 290 0 0 860 0 860 -580 0 -580 0 0 290 0 290 865
0 865 0 0 -575 0 -575 290 0 290 0 0 865 0 865 -1155 0 -1155 0 0 285 0 285
578 2 577 3 3 288 2 287 -580 0 -580 0 0 290 0 290 580 0 580 0 0 860 0 860
-290 0 -290 0 0 -575 0 -575 -290 0 -290 0 0 2015 0 2015 290 0 290 0 0 -575
0 -575 288 2 287 3 3 573 2 572 285 0 285 0 0 -575 0 -575 290 0 290 0 0 575
0 575 288 2 c158 2 547 2 865 0 l577 -2 0 -1150 0 -1150 285 0 285 0 0 1440 0
1440 -2305 0 -2305 0 0 2015 0 2015 578 2 577 3 0 285 0 285 -577 3 -578 2 0
1440 0 1440 290 0 290 0 0 -1150 0 -1150 290 0 290 0 0 575 0 575 1150 0 1150
0 0 285 0 285 -575 0 -575 0 0 290 0 290 575 0 575 0 0 285 0 285 -865 0 -865
0 0 -575 0 -575 -285 0 -285 0 0 578 c0 317 -1 836 -3 1152 l-2 575 -287 3
-288 2 0 -580 0 -580 -287 2 -288 3 -3 1728 -2 1727 -285 0 -285 0 0 -11235z
M1440 23045 l0 -285 575 0 575 0 0 -290 0 -290 -575 0 -575 0 0 -290 0 -291
288 1 c158 0 416 0 575 0 l287 0 0 -575 0 -575 865 0 865 0 0 290 0 290 -575
0 -575 0 0 865 0 865 1440 0 1440 0 0 -865 0 -865 -290 0 -290 0 0 575 0 575
-860 0 -860 0 0 -290 0 -290 575 0 575 0 0 -1725 0 -1725 285 0 285 0 0 1150
0 1150 290 0 290 0 0 -575 0 -575 865 0 865 0 0 285 0 285 -577 2 -578 3 -3
1443 -2 1442 1445 0 1445 0 0 -290 0 -290 -580 0 -580 0 2 -287 3 -288 578 -3
577 -2 0 -285 0 -285 -865 0 -865 0 0 575 0 575 -290 0 -290 0 0 -865 0 -865
575 0 575 0 0 -287 c0 -159 0 -417 0 -575 l-1 -288 291 0 290 0 0 575 0 575
865 0 865 0 0 -290 0 -290 -575 0 -575 0 0 -285 0 -285 575 0 575 0 0 -290 0
-290 -2305 0 -2305 0 0 -1150 0 -1150 -290 0 -290 0 0 575 0 575 -1440 0
-1440 0 0 -285 0 -285 1155 0 1155 0 0 -290 0 -290 -575 0 -575 0 0 -575 0
-575 -290 0 -290 0 0 575 0 575 -290 0 -290 0 0 -575 0 -575 -287 0 c-159 0
-417 0 -575 0 l-288 1 0 -1441 0 -1440 290 0 290 0 0 863 c0 474 0 991 0 1150
l0 287 285 0 285 0 0 -575 0 -575 1440 0 1440 0 0 285 0 285 -1150 0 -1150 0
0 290 0 290 575 0 575 0 0 575 0 575 290 0 290 0 0 -575 0 -575 285 0 285 0 0
575 0 575 575 0 575 0 2 578 3 577 578 3 577 2 0 285 0 285 -580 0 -580 0 0
290 0 290 2020 0 2020 0 0 -575 0 -575 575 0 575 0 0 -865 0 -865 -290 0 -290
0 0 575 0 575 -860 0 -860 0 0 -290 0 -290 575 0 575 0 0 -575 0 -575 575 0
575 0 0 -575 0 -575 290 0 291 0 -1 288 c0 158 0 416 0 575 l0 287 575 0 575
0 -2 288 -3 287 -572 3 -573 2 0 288 c0 158 0 675 0 1150 l0 862 -580 0 -580
0 0 1440 0 1440 578 2 577 3 0 285 0 285 -1152 3 -1153 2 0 865 0 865 2595 0
2595 0 0 -290 0 -290 -577 -2 -578 -3 0 -285 0 -285 865 -2 c476 -2 994 -3
1153 -3 l287 0 0 -865 0 -865 -290 0 -290 0 0 580 0 580 -862 -2 -863 -3 -2
-862 -3 -863 290 0 290 0 0 575 0 575 290 0 290 0 0 -575 0 -575 1150 0 1150
0 0 -575 0 -575 290 0 290 0 0 575 0 575 575 0 575 0 0 285 0 285 -575 0 -575
0 0 1155 0 1155 -290 0 -290 0 0 -1155 0 -1155 -287 2 -288 3 -3 1153 -2 1152
-575 0 -575 0 0 290 0 290 1440 0 1440 0 2 -577 3 -578 578 -3 577 -2 0 -285
0 -285 -577 -2 -578 -3 -3 -287 -2 -288 580 0 580 0 0 -1150 0 -1150 285 0
285 0 0 575 0 575 575 0 575 0 0 865 0 865 -285 0 -285 0 0 -580 0 -580 -290
0 -290 0 0 1155 0 1155 -575 0 -575 0 0 290 0 290 865 0 865 0 0 -580 0 -580
285 0 285 0 0 580 0 580 290 0 290 0 0 -2020 0 -2020 -575 0 -575 0 0 -285 0
-285 575 0 575 0 0 -290 0 -290 -1440 0 -1440 0 0 575 0 575 -290 0 -290 0 0
-575 0 -575 -575 0 -575 0 0 -285 0 -285 1153 -2 1152 -3 3 -577 2 -578 285 0
285 0 0 580 0 580 865 0 865 0 0 -290 0 -290 -575 0 -575 0 0 -290 0 -290 575
0 575 0 0 -7490 0 -7490 288 2 287 3 2 11233 3 11232 -10660 0 -10660 0 0
-285z"/>
</g>
</svg>
