<?xml version="1.0" standalone="no"?>
<!DOCTYPE svg PUBLIC "-//W3C//DTD SVG 20010904//EN"
 "http://www.w3.org/TR/2001/REC-SVG-20010904/DTD/svg10.dtd">
<svg version="1.0" xmlns="http://www.w3.org/2000/svg"
 width="2362.000000pt" height="2362.000000pt" viewBox="0 0 2362.000000 2362.000000"
 preserveAspectRatio="xMidYMid meet">
<metadata>
Created by potrace 1.16, written by Peter Selinger 2001-2019
</metadata>
<g transform="translate(0.000000,2362.000000) scale(0.100000,-0.100000)"
fill="#000000" stroke="none">
<path d="M290 12095 l0 -11235 10655 0 10655 0 0 290 0 290 -2880 0 -2880 0 0
575 0 575 -865 0 -865 0 0 -285 0 -285 580 0 580 0 0 -290 0 -290 -2595 0
-2595 0 0 575 0 575 -285 0 -285 0 0 -575 0 -575 -1445 0 -1445 0 0 865 0 865
290 0 290 0 0 -575 0 -575 290 0 290 0 0 860 0 860 -577 2 -578 3 -3 288 -2
287 580 0 580 0 0 1440 0 1440 -290 0 -290 0 0 -1150 0 -1150 -1725 0 -1725 0
0 -290 0 -290 575 0 575 0 0 -290 0 -290 -865 0 -865 0 0 580 0 580 -287 -2
-288 -3 -3 -1152 -2 -1153 -575 0 -575 0 0 -285 0 -285 865 0 865 0 0 575 0
575 290 0 290 0 0 -575 0 -575 285 0 285 0 0 575 0 575 575 0 575 0 0 575 0
575 290 0 290 0 0 -1440 0 -1440 -290 0 -290 0 0 575 0 575 -285 0 -285 0 0
-575 0 -575 -2020 0 -2020 0 0 865 0 865 580 0 580 0 0 863 c0 474 0 991 0
1150 l0 287 575 0 575 0 0 580 0 580 288 -2 287 -3 3 -577 2 -578 285 0 285 0
0 865 0 865 -865 0 -865 0 0 -575 0 -575 -575 0 -575 0 0 -1155 0 -1155 -290
0 -290 0 0 1445 0 1445 580 0 580 0 0 285 0 285 -580 0 -580 0 0 290 0 290
2020 0 2020 0 0 -1155 0 -1155 285 0 285 0 0 580 0 580 290 0 290 0 0 -580 0
-580 285 0 285 0 0 1440 0 1440 -285 0 -285 0 0 -575 0 -575 -290 0 -290 0 0
575 0 575 -575 0 -575 0 0 580 0 581 -287 -1 c-159 0 -417 0 -575 0 l-288 0 0
285 0 285 1150 0 1150 0 0 575 0 575 290 0 290 0 0 -862 0 -863 -575 3 -575 2
0 -290 0 -290 1440 0 1440 0 -2 288 -3 287 -285 2 c-157 2 -417 3 -577 3
l-293 0 0 285 0 285 580 0 580 0 0 575 0 575 288 2 c158 2 547 2 865 0 l577
-2 0 -860 0 -860 -290 0 -290 0 0 575 0 575 -287 -2 -288 -3 -2 -862 -3 -863
580 0 580 0 0 -290 0 -290 -1155 0 -1155 0 0 -285 0 -285 575 0 575 0 0 -575
0 -575 580 0 580 0 0 -290 0 -290 -580 0 -580 0 0 -2015 0 -2015 290 0 290 0
0 1725 0 1725 1440 0 1440 0 0 -1150 0 -1150 290 0 291 0 -1 287 c0 159 0 417
0 576 l0 287 285 0 285 0 0 -865 0 -865 -865 0 -865 0 0 1155 0 1155 -860 0
-860 0 0 -290 0 -290 575 0 575 0 0 -290 0 -290 -575 0 -575 0 0 -285 0 -285
575 0 575 0 0 -575 0 -575 1440 0 1440 0 0 1725 0 1725 575 0 575 0 0 2020 0
2020 -287 -2 -288 -3 -2 -290 c-2 -159 -3 -419 -3 -577 l0 -288 -575 0 -575 0
0 -285 0 -285 578 0 577 0 -2 -582 c-2 -321 -3 -710 -3 -865 l0 -283 -575 0
-575 0 0 -575 0 -575 -285 0 -285 0 0 288 c0 158 -1 415 -3 572 l-2 285 -577
3 -578 2 0 290 0 290 1155 0 1155 0 0 285 0 285 -1155 0 -1155 0 0 575 0 575
-285 0 -285 0 0 -1150 0 -1150 -290 0 -290 0 0 575 0 575 -575 0 -575 0 0 290
0 290 575 0 575 0 0 575 0 575 575 0 575 0 0 575 0 575 290 0 290 0 0 -1150 0
-1150 290 0 290 0 0 863 c0 474 0 991 0 1150 l0 287 285 0 285 0 0 -575 0
-575 290 0 290 0 0 575 0 575 575 0 575 0 0 290 0 290 -575 0 -575 0 0 575 0
575 -865 0 -865 0 0 -290 0 -291 288 1 c158 0 416 0 575 0 l287 0 0 -285 0
-285 -865 0 -865 0 0 575 0 575 -285 0 -285 0 0 -1152 0 -1153 -290 0 -290 0
0 1153 0 1152 -1440 0 -1440 0 0 -575 0 -575 -290 0 -290 0 0 1150 0 1150
-285 0 -285 0 0 -575 0 -575 -865 0 -865 0 0 1150 0 1150 -575 0 -575 0 0 290
0 290 865 0 865 0 0 -1150 0 -1150 285 0 285 0 0 575 0 575 575 0 575 0 0 285
0 285 -575 0 -575 0 0 290 0 290 575 0 575 0 0 575 0 575 290 0 290 0 0 -575
0 -575 1155 0 1155 0 0 -290 0 -290 -580 0 -580 0 0 -285 0 -285 580 0 580 0
0 -290 0 -290 -865 0 -865 0 0 575 0 575 -290 0 -290 0 0 -860 0 -860 2015 0
2015 0 0 575 0 575 290 0 290 0 0 -575 0 -575 1150 0 1150 0 2 -577 3 -578
288 -3 287 -2 0 865 0 865 -575 0 -575 0 0 575 0 575 -290 0 -290 0 0 -575 0
-575 -285 0 -285 0 0 288 c0 158 0 416 0 575 l1 287 -866 0 -865 0 0 -575 0
-575 -290 0 -290 0 0 865 0 865 575 0 575 0 0 290 0 290 -862 0 c-475 0 -1251
0 -1725 0 l-863 0 0 285 0 285 575 0 575 0 0 290 0 290 -1730 0 -1730 0 0 290
0 290 2018 -2 2017 -3 3 -577 2 -578 285 0 285 0 0 865 0 865 -1730 0 -1730 0
0 865 0 865 290 0 290 0 0 -575 0 -575 1730 0 1730 0 0 -1155 0 -1155 575 0
575 0 0 -575 0 -575 290 0 290 0 -3 863 -2 862 -577 3 -578 2 0 1150 0 1150
-1725 0 -1725 0 0 290 0 290 2590 0 2590 0 0 -575 0 -575 290 0 290 0 0 1440
0 1440 -290 0 -290 0 0 -580 0 -580 -862 2 -863 3 -3 578 -2 577 -575 0 -575
0 0 575 0 575 -285 0 -285 0 0 -575 0 -575 -577 -2 -578 -3 -3 -287 -2 -288
1155 0 1155 0 0 -290 0 -290 -2595 0 -2595 0 0 290 0 290 1155 0 1155 0 -2
288 -3 287 -577 3 -578 2 0 285 0 285 578 2 577 3 3 288 2 287 -865 0 -865 0
0 -575 0 -575 -290 0 -290 0 0 575 0 575 -285 0 -285 0 0 -2015 0 -2015 285 0
285 0 0 575 0 575 290 0 290 0 0 -865 0 -865 -865 0 -865 0 0 575 0 575 -865
0 -865 0 0 -285 0 -285 580 0 580 0 0 -290 0 -290 -580 0 -580 0 0 -285 0
-285 1155 0 1155 0 0 -580 0 -580 575 0 575 0 0 -285 0 -285 -1152 0 c-634 0
-1412 -1 -1728 -3 l-575 -2 -3 -862 -2 -863 580 0 580 0 0 -1155 0 -1155 575
0 575 0 0 -285 0 -285 -865 0 -865 0 0 575 0 575 -290 0 -290 0 0 -1440 0
-1440 580 0 580 0 0 -290 0 -290 -865 0 -865 0 -2 577 -3 578 -285 0 -285 0
-3 -577 -2 -578 -290 0 -290 0 0 865 0 865 578 2 577 3 0 285 0 285 -577 3
-578 2 0 285 0 285 578 2 577 3 3 288 2 287 -580 0 -580 0 0 290 0 290 1155 0
1155 0 0 285 0 285 -1155 0 -1155 0 0 1440 0 1440 290 0 290 0 0 -1150 0
-1150 290 0 290 0 0 863 c0 474 0 991 0 1150 l0 287 1150 0 1150 0 0 290 0
290 -1730 0 -1730 0 0 2590 0 2590 578 2 c317 2 706 2 865 0 l287 -2 0 -575 0
-575 290 0 290 0 0 865 0 865 -1155 0 -1155 0 0 575 0 575 -285 0 -285 0 0
-11235z M1440 23045 l0 -285 1153 -2 1152 -3 0 -1440 0 -1440 -862 -3 -863 -2
-2 577 -3 578 -287 3 -288 2 0 -2015 0 -2015 290 0 290 0 0 863 c0 474 0 991
0 1150 l0 287 1150 0 1150 0 0 1730 0 1730 2015 0 2015 0 2 -577 3 -578 288
-3 287 -2 0 580 0 580 865 0 865 0 0 -580 0 -580 285 0 285 0 0 580 0 580 290
0 290 0 0 -1155 0 -1155 288 2 287 3 2 285 c2 157 3 414 3 572 l0 288 573 2
572 3 3 288 2 287 -575 0 -575 0 0 290 0 290 1440 0 1440 0 0 -290 0 -290
-577 -2 -578 -3 0 -285 0 -285 578 -3 577 -2 0 -285 0 -285 -577 -2 -578 -3 0
-285 0 -285 863 -3 862 -2 0 575 0 575 575 0 575 0 0 290 0 290 -575 0 -575 0
0 290 0 290 1440 0 1440 0 0 -290 0 -290 -575 0 -575 0 0 -290 0 -291 288 1
c158 0 416 0 575 0 l287 0 0 -575 0 -575 290 0 290 0 0 1155 0 1155 1440 0
1440 0 0 -290 0 -290 -575 0 -575 0 0 -865 0 -865 285 0 285 0 0 575 0 575
290 0 290 0 0 -865 0 -865 -575 0 -575 0 0 -285 0 -285 575 0 575 0 0 -865 0
-865 -290 0 -290 0 0 575 0 575 -575 0 -575 0 0 1730 0 1730 -285 0 -285 0 0
-2590 0 -2590 285 0 285 0 0 575 0 575 290 0 290 0 0 -575 0 -575 575 0 575 0
0 -1445 0 -1445 -290 0 -290 0 0 1155 0 1155 -860 0 -860 0 0 -575 0 -575
-290 0 -290 0 0 2300 0 2300 -1152 2 -1153 3 -3 288 -2 287 580 0 580 0 -2
288 -3 287 -862 3 -863 2 0 -580 0 -580 -1155 0 -1155 0 3 -1150 2 -1150 -862
0 -863 0 0 288 c0 158 0 416 0 575 l1 287 -291 0 -290 0 0 -860 0 -860 1440 0
1440 0 0 575 0 575 575 0 575 0 0 285 0 285 -575 0 -575 0 0 290 0 290 2015 0
2015 0 0 -865 0 -865 -575 0 -575 0 0 -285 0 -285 575 0 575 0 0 -290 0 -290
-575 0 -575 0 0 -290 0 -290 575 0 575 0 0 -1150 0 -1150 865 0 865 0 0 285 0
285 -575 0 -575 0 0 290 0 290 575 0 575 0 0 575 0 575 290 0 290 0 0 -1150 0
-1150 575 0 575 0 0 -290 0 -290 -575 0 -575 0 0 -285 0 -285 575 0 575 0 0
-290 0 -290 -575 0 -575 0 0 -290 0 -291 288 1 c158 0 416 0 575 0 l287 0 0
-285 0 -285 -1150 0 -1150 0 0 -290 0 -290 575 0 575 0 0 -287 0 -288 -582 2
c-321 2 -710 3 -865 3 l-283 0 0 860 0 860 288 0 c158 0 416 0 575 0 l287 -1
0 866 0 865 -865 0 -865 0 0 -285 0 -285 580 0 580 0 0 -290 0 -290 -1445 0
-1445 0 0 290 0 290 580 0 580 0 -2 1438 -3 1437 -577 3 -578 2 0 1440 0 1440
580 0 580 0 0 285 0 285 -865 0 -865 0 0 -575 0 -575 -575 0 -575 0 0 -285 0
-285 575 0 575 0 0 -290 0 -290 -1152 -2 -1153 -3 0 -285 0 -285 1153 -3 1152
-2 0 -285 0 -285 -1153 -2 c-633 -2 -1281 -2 -1439 0 l-288 2 0 575 0 575
-290 0 -290 0 0 -865 0 -865 575 0 575 0 0 -287 c0 -159 0 -417 0 -575 l-1
-288 291 0 290 0 0 575 0 575 290 0 290 0 0 -1150 0 -1150 285 0 285 0 0 1150
0 1150 865 0 865 0 0 -290 0 -290 -575 0 -575 0 0 -285 0 -285 575 0 575 0 0
-290 0 -290 -575 0 -575 0 0 -575 0 -575 -575 0 -575 0 0 -865 0 -865 285 0
285 0 0 575 0 575 578 2 c317 2 706 2 865 0 l287 -2 0 -575 0 -575 290 0 290
0 0 575 0 575 285 0 285 0 0 -2015 0 -2015 -285 0 -285 0 0 575 0 575 -865 0
-865 0 0 -1150 0 -1150 -290 0 -290 0 0 1440 0 1440 1155 0 1155 0 -2 288 -3
287 -285 2 c-157 2 -417 3 -577 3 l-293 0 0 575 0 575 -285 0 -285 0 0 -577 0
-578 -575 3 -575 2 0 -2595 0 -2595 285 0 285 0 0 575 0 575 575 0 575 0 0
1155 0 1155 290 0 290 0 0 -1155 0 -1155 1440 0 1440 0 0 290 0 290 -1150 0
-1150 0 0 290 0 290 1150 0 1150 0 0 575 0 575 290 0 290 0 0 -1155 0 -1155
285 0 285 0 0 1440 0 1440 -860 0 -860 0 0 -575 0 -575 -290 0 -290 0 0 865 0
865 1150 0 1150 0 0 575 0 575 290 0 290 0 0 -2590 0 -2590 -1150 0 -1150 0 0
-580 0 -580 -580 0 -580 0 0 -575 0 -575 -865 0 -865 0 0 290 0 290 580 0 580
0 0 575 0 575 575 0 575 0 0 290 0 290 -865 0 -865 0 0 -580 0 -580 -290 0
-290 0 0 580 0 580 -285 0 -285 0 0 -580 0 -580 -865 0 -865 0 0 580 0 580
-287 -2 -288 -3 -2 -863 -3 -862 1155 0 1155 0 0 -575 0 -575 2015 0 2015 0 0
285 0 285 -575 0 -575 0 0 290 0 290 575 0 575 0 0 575 0 575 865 0 865 0 0
-290 0 -290 -575 0 -575 0 0 -860 0 -860 285 0 285 0 0 575 0 575 290 0 290 0
0 -1155 0 -1155 288 2 287 3 2 11233 3 11232 -10660 0 -10660 0 0 -285z"/>
</g>
</svg>
