<?xml version="1.0" standalone="no"?>
<!DOCTYPE svg PUBLIC "-//W3C//DTD SVG 20010904//EN"
 "http://www.w3.org/TR/2001/REC-SVG-20010904/DTD/svg10.dtd">
<svg version="1.0" xmlns="http://www.w3.org/2000/svg"
 width="2362.000000pt" height="2362.000000pt" viewBox="0 0 2362.000000 2362.000000"
 preserveAspectRatio="xMidYMid meet">
<metadata>
Created by potrace 1.16, written by Peter Selinger 2001-2019
</metadata>
<g transform="translate(0.000000,2362.000000) scale(0.100000,-0.100000)"
fill="#000000" stroke="none">
<path d="M290 12095 l0 -11235 10655 0 10655 0 0 3170 0 3170 -860 0 -860 0 0
-285 0 -285 575 0 575 0 0 -1445 0 -1445 -1440 0 -1440 0 0 290 0 290 1150 0
1150 0 0 865 0 865 -865 0 -865 0 2 -287 3 -288 578 -3 577 -2 0 -285 0 -285
-865 0 -865 0 0 865 0 865 575 0 575 0 0 285 0 285 -575 0 -575 0 0 290 0 290
1725 0 1725 0 0 285 0 285 -1725 0 -1725 0 0 290 0 290 1150 0 1150 0 0 575 0
575 290 0 290 0 0 -575 0 -575 285 0 285 0 0 865 0 865 -1437 -2 -1438 -3 -3
-287 -2 -288 580 0 580 0 0 -285 0 -285 -290 0 c-159 0 -420 0 -580 0 -159 0
-418 0 -575 0 l-285 0 0 860 0 860 288 0 c158 0 416 0 575 0 l287 -1 0 291 0
290 -575 0 -575 0 0 290 0 290 865 0 865 0 0 -580 0 -580 285 0 285 0 0 1155
0 1155 290 0 290 0 0 -1155 0 -1155 285 0 285 0 0 1440 0 1440 -860 0 -860 0
0 -575 0 -575 -290 0 -290 0 0 575 0 575 -290 0 -290 0 0 -575 0 -575 -2590 0
-2590 0 0 290 0 290 1150 0 1150 0 0 575 0 575 290 0 290 0 0 -575 0 -575 865
0 865 0 0 575 0 575 1725 0 1725 0 0 2015 0 2015 -575 0 -575 0 0 290 0 290
575 0 575 0 0 285 0 285 -1440 0 -1440 0 0 -285 0 -285 580 0 580 0 0 -575 0
-575 575 0 575 0 0 -865 0 -865 -575 0 -575 0 0 -290 0 -290 575 0 575 0 0
-285 0 -285 -577 -2 c-318 -2 -966 -2 -1440 0 l-863 2 0 285 0 285 575 0 575
0 0 580 0 580 575 0 575 0 0 285 0 285 -575 0 -575 0 0 575 0 575 -575 0 -575
0 0 575 0 575 -2020 0 -2020 0 2 -575 3 -575 -577 0 -578 0 0 -285 0 -285 865
0 865 0 0 575 0 575 1440 0 1440 0 0 -290 0 -290 -575 0 -575 0 0 -860 0 -860
285 0 285 0 0 575 0 575 865 0 865 0 0 -865 0 -865 -285 0 -285 0 0 575 0 575
-290 0 -290 0 0 -575 0 -575 -2305 0 -2305 0 0 -290 0 -290 2305 0 2305 0 0
-865 0 -865 -290 0 -290 0 0 580 0 580 -860 0 -860 0 0 -580 0 -580 -865 0
-865 0 0 290 0 290 575 0 575 0 0 290 0 290 -862 -3 -863 -2 -3 -577 -2 -578
-285 0 -285 0 0 578 c0 317 -1 836 -3 1152 l-2 575 -287 3 -288 2 0 -1440 0
-1440 575 0 575 0 0 -575 0 -575 575 0 575 0 0 -577 c0 -318 1 -837 3 -1153
l2 -575 288 -3 287 -2 0 575 0 575 290 0 290 0 0 -575 0 -575 860 0 860 0 0
290 0 290 -575 0 -575 0 0 285 0 285 575 0 575 0 0 290 0 290 -1150 0 -1150 0
0 290 0 290 1440 0 1440 0 0 -2595 0 -2595 -290 0 -290 0 0 1155 0 1155 -1437
-3 -1438 -2 -3 -287 -2 -288 1155 0 1155 0 0 -290 0 -290 -1155 0 -1155 0 0
-285 0 -285 1155 0 1155 0 0 -575 0 -575 575 0 575 0 0 -2020 0 -2020 -290 0
-290 0 0 575 0 575 -285 0 -285 0 0 -860 0 -860 865 0 865 0 0 575 0 575 1440
0 1440 0 0 -290 0 -290 -1155 0 -1155 0 0 -285 0 -285 1155 0 1155 0 0 -290 0
-290 -3745 0 -3745 0 0 290 0 290 575 0 575 0 0 575 0 575 290 0 290 0 0 -575
0 -575 285 0 285 0 0 1150 0 1150 575 0 575 0 0 865 0 865 -285 0 -285 0 0
-575 0 -575 -290 0 -290 0 0 1150 0 1150 -285 0 -285 0 0 -575 0 -575 -577 -2
-578 -3 0 -860 0 -860 288 -3 287 -2 0 575 0 575 290 0 290 0 0 -865 0 -865
-580 0 -580 0 2 -575 3 -575 -287 0 -288 0 0 575 0 575 -575 0 -575 0 0 290 0
290 575 0 575 0 0 865 0 865 -1440 0 -1440 0 0 -575 0 -575 -575 0 -575 0 0
-290 0 -290 860 0 860 0 0 575 0 575 865 0 865 0 0 -285 0 -285 -575 0 -575 0
0 -580 0 -580 -575 0 -575 0 0 -285 0 -285 1150 0 1150 0 0 -865 0 -865 -865
0 -865 0 0 290 0 290 580 0 580 0 0 285 0 285 -1440 0 -1440 0 0 -285 0 -285
575 0 575 0 0 -290 0 -290 -2020 0 -2020 0 0 290 0 290 1155 0 1155 0 0 575 0
575 575 0 575 0 0 285 0 285 -575 0 -575 0 0 1730 0 1730 -290 0 -290 0 0
-1727 c0 -951 0 -1988 0 -2305 l0 -578 -285 0 -285 0 0 575 0 575 -290 0 -290
0 0 -575 0 -575 -290 0 -290 0 0 575 0 575 -285 0 -285 0 0 -1150 0 -1150
-865 0 -865 0 0 290 0 290 575 0 575 0 0 860 0 860 -285 0 -285 0 0 -575 0
-575 -575 0 -575 0 0 -575 0 -575 -290 0 -290 0 0 865 0 865 575 0 575 0 0
865 0 865 -285 0 -285 0 -2 -577 -3 -578 -577 -3 -578 -2 0 -1150 0 -1150
-865 0 -865 0 0 865 0 865 290 0 290 0 0 -575 0 -575 290 0 290 0 0 860 0 860
-580 0 -580 0 0 865 0 865 290 0 290 0 0 -575 0 -575 865 0 865 0 0 290 0 290
-575 0 -575 0 0 288 c0 158 0 416 0 574 l1 288 -581 0 -580 0 0 290 0 290
1155 0 1155 0 0 285 0 285 -1155 0 -1155 0 0 290 0 290 580 0 580 0 0 285 0
285 -580 0 -580 0 0 865 0 865 2880 0 2880 0 0 290 0 290 -1150 0 -1150 0 0
865 0 865 290 0 290 0 0 -580 0 -580 285 0 285 0 0 865 0 865 -575 0 -575 0 0
290 0 290 865 0 865 0 0 -1155 0 -1155 285 0 285 0 0 580 0 580 865 0 865 0 0
-290 0 -290 -575 0 -575 0 2 -287 3 -288 575 -2 c316 -2 835 -3 1153 -3 l577
0 0 -285 0 -285 -1155 0 -1155 0 0 -575 0 -575 -287 0 c-159 0 -676 0 -1150 0
l-863 0 0 -580 0 -580 -290 0 -290 0 0 580 0 580 -1437 -3 -1438 -2 -3 -287
-2 -288 575 0 575 0 0 -575 0 -575 290 0 290 0 0 575 0 575 290 0 290 0 0
-575 0 -575 575 0 575 0 0 -575 0 -575 1150 0 1150 0 0 -290 0 -290 -1440 0
-1440 0 0 575 0 575 -285 0 -285 0 0 -575 0 -575 -580 0 -580 0 2 -288 3 -287
1153 -3 1152 -2 0 -575 0 -575 285 0 285 0 0 575 0 575 865 0 865 0 0 -285 0
-285 -575 0 -575 0 0 -290 0 -290 865 0 865 0 0 2015 0 2015 -865 0 -865 0 0
-285 0 -285 575 0 575 0 0 -290 0 -290 -865 0 -865 0 0 865 0 865 1440 0 1440
0 0 -575 0 -575 580 0 580 0 0 -1155 0 -1155 285 0 285 0 0 1440 0 1440 -575
0 -575 0 -2 577 -3 578 -285 2 c-157 2 -414 3 -572 3 l-288 0 0 285 0 285 865
0 865 0 0 -575 0 -575 285 0 285 0 0 1730 0 1730 290 0 290 0 0 -580 0 -580
863 0 c474 0 991 0 1150 0 l287 0 0 -285 0 -285 -1150 0 -1150 0 0 -2015 0
-2015 2015 0 2015 0 0 285 0 285 -1730 0 -1730 0 0 290 0 290 1155 0 1155 0 0
285 0 285 -575 0 -575 0 -2 578 -3 577 -288 3 -287 2 0 -580 0 -580 -290 0
-290 0 0 865 0 865 865 0 865 0 0 -575 0 -575 290 0 290 0 0 1440 0 1440
-1155 0 -1155 0 0 290 0 290 580 0 580 0 0 285 0 285 -580 0 -580 0 0 575 0
575 -285 0 -285 0 0 -575 0 -575 -575 0 -575 0 0 -575 0 -575 -290 0 -290 0 0
865 0 865 575 0 575 0 0 285 0 285 -575 0 -575 0 0 580 0 580 -575 0 -575 0 0
575 0 575 -865 0 -865 0 0 -290 0 -290 575 0 575 0 0 -1150 0 -1150 290 0 290
0 0 575 0 575 285 0 285 0 2 -287 c2 -159 2 -548 0 -865 l-2 -578 -865 0 -865
0 0 575 0 575 -1435 0 -1435 0 0 -1150 0 -1150 -580 0 -580 0 2 -287 3 -288
285 -2 c157 -2 417 -3 578 -3 l292 0 0 -285 0 -285 -865 0 -865 0 0 288 c0
158 0 416 0 575 l1 287 -291 0 -290 0 0 -575 0 -575 -290 0 -290 0 0 865 0
865 1155 0 1155 0 0 860 0 860 -290 0 -290 0 0 -575 0 -575 -285 0 -285 0 0
578 c0 317 -1 836 -3 1152 l-2 575 -287 3 -288 2 0 -1155 0 -1155 -290 0 -290
0 0 2020 0 2020 290 0 290 0 0 -580 0 -580 575 0 575 0 0 -575 0 -575 865 0
865 0 0 290 0 291 -287 -1 c-159 0 -417 0 -575 0 l-288 0 0 575 0 575 -575 0
-575 0 0 288 c0 158 0 416 0 575 l1 287 -581 0 -580 0 0 290 0 290 865 0 865
0 0 -575 0 -575 865 0 865 0 0 575 0 575 575 0 575 0 0 285 0 285 -575 0 -575
0 0 865 0 865 1730 0 1730 0 -2 288 -3 287 -577 3 -578 2 0 575 0 575 -285 0
-285 0 0 -575 0 -575 -865 0 -865 0 0 575 0 575 -285 0 -285 0 0 -2305 0
-2305 -290 0 -290 0 0 575 0 575 -575 0 -575 0 0 575 0 575 -290 0 -290 0 0
-575 0 -575 -290 0 -290 0 0 1440 0 1440 578 2 577 3 3 288 2 287 -580 0 -580
0 0 575 0 575 -285 0 -285 0 0 -11235z M1440 23045 l0 -285 575 0 575 0 0
-865 0 -865 -575 0 -575 0 0 -290 0 -290 575 0 575 0 0 -575 0 -575 290 0 290
0 0 1730 0 1730 865 0 865 0 0 -580 0 -580 285 0 285 0 0 580 0 580 865 0 865
0 2 -577 3 -578 285 -2 c157 -2 414 -3 573 -3 l287 0 0 -865 0 -865 -575 0
-575 0 0 -285 0 -285 865 0 865 0 0 1440 0 1440 -575 0 -575 0 0 290 0 290
1440 0 1440 0 0 -1155 0 -1155 863 2 862 3 0 285 0 285 -577 3 -578 2 0 865 0
865 290 0 290 0 0 -580 0 -580 288 2 287 3 3 578 2 577 285 0 285 0 2 -577 3
-578 863 -2 862 -3 0 290 0 290 -575 0 -575 0 0 290 0 290 865 0 865 0 0 -865
0 -865 -1155 0 -1155 0 0 -580 0 -580 -1440 0 -1440 0 0 1155 0 1155 -285 0
-285 0 0 -1730 0 -1730 -580 0 -580 0 0 -575 0 -575 -285 0 -285 0 0 575 0
575 -580 0 -580 0 0 575 0 575 -860 0 -860 0 0 -285 0 -285 575 0 575 0 0
-865 0 -865 -575 0 -575 0 0 -575 0 -575 -575 0 -575 0 0 -290 0 -290 575 0
575 0 0 -575 0 -575 860 0 860 0 0 290 0 290 -575 0 -575 0 0 865 0 865 575 0
575 0 0 575 0 575 290 0 290 0 0 -575 0 -575 865 0 865 0 0 575 0 575 865 0
865 0 0 -290 0 -290 -575 0 -575 0 0 -285 0 -285 575 0 575 0 0 -290 0 -290
-1155 0 -1155 0 2 -287 3 -288 578 -3 577 -2 0 -575 0 -575 285 0 285 0 0 575
0 575 290 0 290 0 0 -575 0 -575 285 0 285 0 0 1730 0 1730 290 0 290 0 0
-575 0 -575 2015 0 2015 0 0 860 0 860 -285 0 -285 0 0 -575 0 -575 -1440 0
-1440 0 0 288 c0 158 0 416 0 575 l1 287 -1156 0 -1155 0 0 290 0 290 1730 0
1730 0 0 575 0 575 1150 0 1150 0 0 575 0 575 290 0 290 0 0 -575 0 -575 2015
0 2015 0 0 290 0 290 -575 0 -575 0 0 575 0 575 -865 0 -865 0 0 -290 0 -291
288 1 c158 0 416 0 575 0 l287 0 0 -285 0 -285 -865 0 -865 0 0 575 0 575
-575 0 -575 0 0 290 0 290 2595 0 2595 0 0 -290 0 -290 -575 0 -575 0 0 -290
0 -290 860 0 860 0 0 580 0 580 290 0 290 0 0 -865 0 -865 -575 0 -575 0 0
-290 0 -290 575 0 575 0 0 -9795 0 -9795 288 2 287 3 2 11233 3 11232 -10660
0 -10660 0 0 -285z"/>
</g>
</svg>
