<?xml version="1.0" standalone="no"?>
<!DOCTYPE svg PUBLIC "-//W3C//DTD SVG 20010904//EN"
 "http://www.w3.org/TR/2001/REC-SVG-20010904/DTD/svg10.dtd">
<svg version="1.0" xmlns="http://www.w3.org/2000/svg"
 width="2362.000000pt" height="2362.000000pt" viewBox="0 0 2362.000000 2362.000000"
 preserveAspectRatio="xMidYMid meet">
<metadata>
Created by potrace 1.16, written by Peter Selinger 2001-2019
</metadata>
<g transform="translate(0.000000,2362.000000) scale(0.100000,-0.100000)"
fill="#000000" stroke="none">
<path d="M290 12095 l0 -11235 10655 0 10655 0 0 290 0 290 -2305 0 -2305 0 0
1150 0 1150 -1150 0 -1150 0 0 1155 0 1155 -575 0 -575 0 -2 1727 -3 1728
-575 2 c-316 2 -835 3 -1152 3 l-578 0 0 575 0 575 -575 0 -575 0 0 285 0 285
288 0 c158 0 416 0 575 0 l287 -1 0 866 0 865 -575 0 -575 0 0 575 0 575 -285
0 -285 0 0 -860 0 -860 575 0 575 0 0 -290 0 -290 -575 0 -575 0 0 -865 0
-865 575 0 575 0 0 -1150 0 -1150 285 0 285 0 0 575 0 575 290 0 290 0 0 -575
0 -575 290 0 291 0 -1 288 c0 158 0 416 0 575 l0 287 285 0 285 0 0 -865 0
-865 -1440 0 -1440 0 0 1155 0 1155 -285 0 -285 0 0 -1155 0 -1155 -290 0
-290 0 -2 1153 -3 1152 -285 0 -285 0 -3 -1437 -2 -1438 580 0 580 0 0 -580 0
-580 285 0 285 0 0 580 0 580 1440 0 1440 0 0 -290 0 -290 -575 0 -575 0 0
-290 0 -290 1150 0 1150 0 0 -285 0 -285 -572 -2 -573 -3 -3 -287 -2 -288 575
0 575 0 0 -290 0 -290 -575 0 -575 0 0 -285 0 -285 1155 0 1155 0 0 -290 0
-290 -580 0 -580 0 0 -285 0 -285 865 0 865 0 0 575 0 575 290 0 290 0 0 -865
0 -865 -1440 0 -1440 0 0 575 0 575 -290 0 -290 0 0 -575 0 -575 -865 0 -865
0 0 290 0 290 580 0 580 0 -3 1437 -2 1438 -577 3 -578 2 0 575 0 575 -285 0
-285 0 0 -865 0 -865 575 0 575 0 0 -290 0 -290 -575 0 -575 0 0 -285 0 -285
575 0 575 0 0 -290 0 -290 -575 0 -575 0 0 -575 0 -575 -290 0 -290 0 0 575 0
575 -865 0 -865 0 0 -285 0 -285 580 0 580 0 0 -290 0 -290 -865 0 -865 0 0
1440 0 1440 285 0 285 0 0 -287 c0 -159 0 -417 0 -576 l-1 -287 866 0 865 0 0
865 0 865 -285 0 -285 0 0 -580 0 -580 -290 0 -290 0 0 1155 0 1155 -290 0
-290 0 0 -575 0 -575 -285 0 -285 0 0 575 0 575 -580 0 -580 0 0 575 0 575
-285 0 -285 0 0 -575 0 -575 -290 0 -290 0 0 575 0 575 -285 0 -285 0 0 -865
0 -865 1150 0 1150 0 0 -865 0 -865 -865 0 -865 0 0 290 0 290 575 0 575 0 0
290 0 290 -860 0 -860 0 0 -580 0 -580 -865 0 -865 0 0 865 0 865 290 0 290 0
0 -575 0 -575 285 0 285 0 0 865 0 865 -865 0 -865 0 0 -1440 0 -1440 1730 0
1730 0 0 -575 0 -575 285 0 285 0 0 575 0 575 290 0 290 0 0 -865 0 -865
-1440 0 -1440 0 0 290 0 290 575 0 575 0 0 285 0 285 -2015 0 -2015 0 0 -285
0 -285 1155 0 1155 0 0 -290 0 -290 -1445 0 -1445 0 0 865 0 865 580 0 580 0
0 1728 c0 950 0 1987 0 2305 l0 577 285 0 285 0 0 -575 0 -575 865 0 865 0 0
285 0 285 -575 0 -575 0 -2 1153 -3 1152 -860 0 -860 0 -3 -287 -2 -288 575 0
575 0 0 -290 0 -290 -575 0 -575 0 0 -2305 0 -2305 -290 0 -290 0 0 4325 0
4325 290 0 290 0 0 -580 0 -581 288 1 c158 0 416 0 575 0 l287 0 0 -285 0
-285 -575 0 -575 0 0 -290 0 -290 865 0 865 0 0 575 0 575 290 0 290 0 0
-1725 0 -1725 285 0 285 0 0 1725 0 1725 288 0 c158 0 935 1 1727 3 l1440 2 3
288 2 287 -580 0 -580 0 0 865 0 865 580 0 580 0 0 285 0 285 -865 0 -865 0 0
-1150 0 -1150 -2015 0 -2015 0 -2 288 c-2 158 -2 547 0 865 l2 577 575 0 575
0 0 285 0 285 -865 0 -865 0 0 -575 0 -575 -290 0 -290 0 0 865 0 865 1730 0
1730 0 0 290 0 291 -287 -1 c-159 0 -417 0 -575 0 l-288 0 0 865 0 865 1150 0
1150 0 0 285 0 285 -1150 0 -1150 0 0 1150 0 1150 -290 0 -290 0 0 -1725 0
-1725 -575 0 -575 0 0 -290 0 -290 575 0 575 0 0 -285 0 -285 -287 -2 c-159
-2 -548 -2 -865 0 l-578 2 0 4030 0 4030 -285 0 -285 0 0 -11235z M1440 22465
l0 -865 288 2 287 3 3 578 2 577 863 -2 862 -3 3 -287 2 -288 -580 0 -580 0 2
-287 3 -288 578 -3 577 -2 0 -285 0 -285 -1155 0 -1155 0 0 -2015 0 -2015 290
0 290 0 0 1438 c0 790 0 1566 0 1725 l0 287 865 0 865 0 0 -575 0 -575 860 0
860 0 0 285 0 285 -575 0 -575 0 0 1445 0 1445 290 0 290 0 0 -1155 0 -1155
2015 0 2015 0 0 290 0 290 -575 0 -575 0 0 575 0 575 -865 0 -865 0 0 -290 0
-291 288 1 c158 0 416 0 575 0 l287 0 0 -285 0 -285 -865 0 -865 0 0 865 0
865 1440 0 1440 0 2 -577 3 -578 863 -2 862 -3 0 290 0 290 -575 0 -575 0 0
290 0 290 865 0 865 0 0 -865 0 -865 -575 0 -575 0 0 -865 0 -865 285 0 285 0
0 575 0 575 575 0 575 0 0 1155 0 1155 290 0 290 0 0 -580 0 -580 863 3 862 2
3 288 2 287 -575 0 -575 0 0 290 0 290 860 0 860 0 0 -292 c0 -161 0 -940 0
-1730 l0 -1438 290 0 290 0 0 575 0 575 575 0 575 0 0 290 0 290 -575 0 -575
0 0 865 0 865 290 0 290 0 0 -580 0 -581 288 1 c158 0 416 0 575 0 l287 0 0
-865 0 -865 -575 0 -575 0 0 -860 0 -860 285 0 285 0 0 575 0 575 1155 0 1155
0 -2 863 -3 862 -287 3 -288 2 0 -580 0 -580 -287 2 -288 3 -3 862 -2 863 577
2 578 3 3 288 2 287 -1155 0 -1155 0 0 290 0 290 1440 0 1440 0 2 -577 3 -578
288 -3 287 -2 0 580 0 580 290 0 290 0 0 -865 0 -865 -577 -2 -578 -3 -3 -287
-2 -288 580 0 580 0 0 -575 0 -575 285 0 285 0 0 575 0 575 575 0 575 0 0 290
0 290 -575 0 -575 0 0 285 0 285 288 0 c158 0 416 0 575 0 l287 -1 0 291 0
290 -575 0 -575 0 0 290 0 290 865 0 865 0 0 -1445 0 -1445 -575 0 -575 0 0
-1435 0 -1435 285 0 285 0 0 1150 0 1150 290 0 290 0 0 -2015 0 -2015 -290 0
-290 0 0 575 0 575 -285 0 -285 0 0 -2015 0 -2015 285 0 285 0 0 1150 0 1150
290 0 290 0 0 -1440 0 -1440 -575 0 -575 0 0 -1440 0 -1440 285 0 285 0 0
1150 0 1150 290 0 290 0 0 -1440 0 -1440 -865 0 -865 0 0 580 0 580 -285 0
-285 0 0 -580 0 -580 -290 0 -290 0 0 865 0 865 575 0 575 0 0 290 0 290 -862
-2 -863 -3 -3 -1152 -2 -1153 -865 0 -865 0 0 290 0 290 580 0 580 0 -2 862
-3 863 -577 3 -578 2 0 285 0 285 578 0 c317 0 1096 0 1730 0 l1152 0 0 2020
0 2020 -285 0 -285 0 0 -580 0 -580 -580 0 -580 0 0 -860 0 -860 290 0 290 0
0 575 0 575 290 0 290 0 0 -865 0 -865 -865 0 -865 0 0 575 0 575 -290 0 -290
0 0 -575 0 -575 -290 0 -290 0 0 865 0 865 580 0 580 0 0 1150 0 1150 285 0
285 0 0 -575 0 -575 290 0 290 0 0 575 0 575 575 0 575 0 0 290 0 290 -575 0
-575 0 0 865 0 865 290 0 290 0 0 -575 0 -575 285 0 285 0 0 860 0 860 -575 0
-575 0 0 575 0 575 -290 0 -290 0 0 -1725 0 -1725 -285 0 -285 0 0 1150 0
1150 -865 0 -865 0 0 -285 0 -285 575 0 575 0 0 -865 0 -865 -290 0 -290 0 0
575 0 575 -285 0 -285 0 0 -575 0 -575 -290 0 -290 0 0 575 0 575 -575 0 -575
0 0 575 0 575 -575 0 -575 0 0 1155 0 1155 -865 0 -865 0 0 -580 0 -580 -575
0 -575 0 0 -575 0 -575 -865 0 -865 0 0 575 0 575 -865 0 -865 0 0 -285 0
-285 575 0 575 0 0 -575 0 -575 580 0 580 0 0 -290 0 -290 -1155 0 -1155 0 0
-285 0 -285 575 0 575 0 0 -290 0 -290 -575 0 -575 0 0 -290 0 -290 575 0 575
0 0 -285 0 -285 -862 -2 c-475 -2 -1123 -2 -1440 0 l-578 2 0 285 0 285 575 0
575 0 0 1155 0 1155 580 0 580 0 0 285 0 285 -580 0 -580 0 0 575 0 575 -285
0 -285 0 0 -575 0 -575 -1150 0 -1150 0 0 -285 0 -285 1150 0 1150 0 0 -865 0
-865 -1150 0 -1150 0 0 -290 0 -290 575 0 575 0 0 -865 0 -865 -575 0 -575 0
0 -575 0 -575 -580 0 -580 0 0 -285 0 -285 865 0 865 0 0 575 0 575 290 0 290
0 0 -575 0 -575 285 0 285 0 0 1150 0 1150 1440 0 1440 0 2 -287 c2 -159 2
-548 0 -865 l-2 -578 -575 0 -575 0 0 -285 0 -285 575 0 575 0 2 -577 c2 -318
2 -707 0 -865 l-2 -288 -1725 0 -1725 0 0 -290 0 -290 1150 0 1150 0 0 -285 0
-285 -287 0 c-159 0 -676 0 -1150 0 l-863 0 0 -290 0 -290 575 0 575 0 0 -290
0 -290 -575 0 -575 0 0 -285 0 -285 1150 0 1150 0 0 -575 0 -575 290 0 290 0
0 860 0 860 -580 0 -580 0 0 290 0 290 580 0 580 0 0 575 0 575 575 0 575 0 0
2305 0 2305 1440 0 1440 0 0 -290 0 -290 -575 0 -575 0 0 -285 0 -285 865 0
866 0 -1 288 c0 158 0 416 0 575 l0 287 285 0 285 0 0 -575 0 -575 865 0 865
0 0 285 0 285 -575 0 -575 0 0 290 0 290 865 0 865 0 0 -575 0 -575 285 0 285
0 0 865 0 865 -862 0 c-475 0 -992 0 -1150 0 l-288 0 0 285 0 285 575 0 575 0
0 290 0 290 -1440 0 -1440 0 0 -290 0 -290 575 0 575 0 0 -285 0 -285 -287 0
c-307 0 -2987 0 -3460 0 l-283 0 0 865 0 865 575 0 575 0 0 575 0 575 290 0
290 0 0 -865 0 -865 -575 0 -575 0 0 -290 0 -290 860 0 860 0 0 1730 0 1730
290 0 290 0 0 -575 0 -575 290 0 290 0 0 863 c0 474 0 991 0 1150 l0 287 285
0 285 0 0 -1440 0 -1440 -575 0 -575 0 0 -285 0 -285 865 0 865 0 0 575 0 575
288 0 287 0 -3 -575 -2 -575 580 0 580 0 0 -580 0 -580 1150 0 1150 0 0 -865
0 -865 -290 0 -290 0 0 580 0 580 -285 0 -285 0 0 -1730 0 -1730 -290 0 -290
0 0 575 0 575 -285 0 -285 0 0 -575 0 -575 -1440 0 -1440 0 0 290 0 290 1150
0 1150 0 0 285 0 285 -1440 0 -1440 0 0 -865 0 -866 288 1 c158 0 416 0 575 0
l287 0 0 -285 0 -285 -575 0 -575 0 0 -290 0 -290 865 0 865 0 0 575 0 575
285 0 285 0 0 -287 c0 -159 0 -1194 0 -2301 l0 -2012 865 0 865 0 0 285 0 285
-575 0 -575 0 0 290 0 290 575 0 575 0 0 285 0 285 -575 0 -575 0 0 1440 0
1440 285 0 c157 0 418 0 580 0 162 0 423 0 580 0 l285 0 0 -575 0 -575 575 0
575 0 0 -285 0 -285 -282 0 c-156 0 -545 -1 -866 -3 l-582 -2 0 578 0 577
-285 0 -285 0 0 -865 0 -865 575 0 575 0 0 -575 0 -575 1150 0 1150 0 0 -290
0 -290 -575 0 -575 0 0 -575 0 -575 -290 0 -290 0 0 575 0 575 -285 0 -285 0
0 -575 0 -575 -575 0 -575 0 0 -290 0 -290 1150 0 1150 0 0 -285 0 -285 -1150
0 -1150 0 0 -290 0 -290 1150 0 1150 0 0 -575 0 -575 290 0 290 0 0 575 0 575
285 0 285 0 0 -865 0 -865 -575 0 -575 0 0 -285 0 -285 865 0 865 0 0 1150 0
1150 290 0 290 0 0 -1150 0 -1150 285 0 285 0 0 575 0 575 290 0 290 0 0 -575
0 -575 285 0 285 0 0 860 0 860 -575 0 -575 0 0 580 0 580 -1150 0 -1150 0 0
865 0 865 285 0 285 0 2 -577 3 -578 1438 -3 1437 -2 0 290 0 290 -1150 0
-1150 0 0 865 0 865 290 0 290 0 0 -575 0 -575 285 0 285 0 0 575 0 575 865 0
865 0 0 -290 0 -290 -575 0 -575 0 0 -285 0 -285 575 0 575 0 0 -865 0 -865
-575 0 -575 0 0 -290 0 -290 575 0 575 0 0 -1730 0 -1730 288 2 287 3 2 11233
3 11232 -10660 0 -10660 0 0 -865z"/>
</g>
</svg>
