<?xml version="1.0" standalone="no"?>
<!DOCTYPE svg PUBLIC "-//W3C//DTD SVG 20010904//EN"
 "http://www.w3.org/TR/2001/REC-SVG-20010904/DTD/svg10.dtd">
<svg version="1.0" xmlns="http://www.w3.org/2000/svg"
 width="2362.000000pt" height="2362.000000pt" viewBox="0 0 2362.000000 2362.000000"
 preserveAspectRatio="xMidYMid meet">
<metadata>
Created by potrace 1.16, written by Peter Selinger 2001-2019
</metadata>
<g transform="translate(0.000000,2362.000000) scale(0.100000,-0.100000)"
fill="#000000" stroke="none">
<path d="M290 12095 l0 -11235 10655 0 10655 0 0 290 0 290 -3455 0 -3455 0 0
290 0 290 575 0 575 0 0 2015 0 2015 -285 0 -285 0 0 -575 0 -575 -865 0 -865
0 0 285 0 285 575 0 575 0 0 290 0 290 -575 0 -575 0 0 290 0 290 1150 0 1150
0 0 285 0 285 -1150 0 -1150 0 0 290 0 290 575 0 575 0 0 285 0 285 -575 0
-575 0 -2 577 -3 578 -285 2 c-157 2 -414 3 -572 3 l-288 0 0 285 0 285 860 0
860 0 0 -287 c0 -159 0 -417 0 -576 l-1 -287 291 0 290 0 0 865 0 865 -1150 0
-1150 0 0 285 0 285 288 0 c158 0 675 0 1150 0 l862 0 0 290 0 290 -1150 0
-1150 0 0 288 c0 158 0 675 0 1150 l0 862 -290 0 -290 0 0 -575 0 -575 -1730
0 -1730 0 0 -285 0 -285 1730 0 1730 0 0 -290 0 -290 -2015 0 -2015 0 0 575 0
575 -580 0 -580 0 0 290 0 290 580 0 580 0 0 1150 0 1150 285 0 285 0 0 -862
c0 -475 0 -992 0 -1150 l-1 -288 1441 0 1440 0 0 575 0 575 580 0 580 0 -2
288 -3 287 -575 2 c-316 2 -835 3 -1152 3 l-578 0 0 1150 0 1150 -575 0 -575
0 0 575 0 575 -290 0 -290 0 0 -860 0 -860 578 -2 577 -3 3 -1152 2 -1153 575
0 575 0 0 -290 0 -290 -865 0 -865 0 0 1155 0 1155 -575 0 -575 0 0 1725 0
1725 -2305 0 -2305 0 0 865 0 865 288 0 c158 0 416 0 575 0 l287 -1 0 291 0
290 -865 0 -865 0 0 -1440 0 -1440 580 0 580 0 0 -2305 0 -2305 285 0 285 0 0
2305 0 2305 1440 0 1440 0 0 -290 0 -290 -575 0 -575 0 0 -285 0 -285 575 0
575 0 0 -290 0 -290 -575 0 -575 0 0 -285 0 -285 575 0 575 0 0 -290 0 -290
-575 0 -575 0 0 -865 0 -865 285 0 285 0 0 575 0 575 290 0 290 0 0 -865 0
-865 -575 0 -575 0 0 -1150 0 -1150 -290 0 -290 0 0 575 0 575 -285 0 -285 0
0 -865 0 -865 860 0 860 0 0 580 0 580 290 0 290 0 0 -865 0 -865 -575 0 -575
0 0 -290 0 -290 865 0 865 0 0 575 0 575 283 0 c597 0 2035 0 2310 0 l287 0 0
-1150 0 -1150 285 0 285 0 0 1150 0 1150 290 0 290 0 0 -1150 0 -1150 575 0
575 0 0 -290 0 -290 -575 0 -575 0 0 -860 0 -860 290 0 290 0 0 575 0 575 285
0 285 0 0 -865 0 -865 -575 0 -575 0 0 -575 0 -575 -290 0 -290 0 0 575 0 575
-285 0 -285 0 0 -575 0 -575 -865 0 -865 0 0 575 0 575 -290 0 -290 0 0 -1155
0 -1155 -575 0 -575 0 0 -285 0 -285 865 0 865 0 0 575 0 575 1730 0 1731 0
-1 287 c0 159 0 417 0 576 l0 287 285 0 285 0 0 -575 0 -575 575 0 575 0 0
-287 c0 -159 0 -417 0 -576 l-1 -287 291 0 290 0 0 575 0 575 290 0 290 0 0
-865 0 -865 -865 0 -865 0 0 575 0 575 -865 0 -865 0 0 -285 0 -285 575 0 575
0 0 -575 0 -575 575 0 574 0 3 -290 3 -290 -1442 0 -1443 0 0 290 0 290 580 0
580 0 0 285 0 285 -580 0 -580 0 0 575 0 575 -860 0 -860 0 0 -285 0 -285 575
0 575 0 0 -290 0 -290 -575 0 -575 0 0 -285 0 -285 575 0 575 0 0 -290 0 -290
-865 0 -865 0 0 575 0 575 -290 0 -291 0 1 -288 c0 -158 0 -416 0 -574 l0
-288 -285 0 -285 0 0 575 0 575 -290 0 -290 0 0 -575 0 -575 -290 0 -290 0 0
575 0 575 -575 0 -575 0 0 290 0 290 575 0 575 0 0 285 0 285 -1150 0 -1150 0
0 290 0 290 1150 0 1150 0 0 575 0 575 290 0 290 0 0 -575 0 -575 290 0 290 0
0 865 0 865 -580 0 -580 0 2 288 3 287 578 3 577 2 0 575 0 575 865 0 865 0 0
-290 0 -290 -580 0 -580 0 0 -285 0 -285 580 0 580 0 0 -580 0 -580 285 0 285
0 0 580 0 580 575 0 575 0 0 285 0 285 -575 0 -575 0 0 290 0 290 575 0 575 0
0 285 0 285 -575 0 -575 0 0 580 0 580 -285 0 -285 0 0 -580 0 -580 -290 0
-290 0 0 865 0 865 575 0 575 0 0 290 0 290 -862 -2 -863 -3 -2 -575 c-2 -316
-3 -835 -3 -1152 l0 -578 -285 0 -285 0 -2 578 -3 577 -285 0 -285 0 -3 -578
-2 -577 -575 0 -575 0 0 -285 0 -285 575 0 575 0 0 -290 0 -290 -575 0 -575 0
0 -1150 0 -1150 -290 0 -290 0 0 575 0 575 -285 0 -285 0 0 -575 0 -575 -575
0 -575 0 0 -1440 0 -1440 285 0 285 0 0 575 0 575 290 0 290 0 0 -575 0 -575
575 0 575 0 0 -290 0 -290 -1440 0 -1440 0 0 1150 0 1150 -290 0 -290 0 0
-575 0 -575 -575 0 -575 0 0 -285 0 -285 575 0 575 0 0 -290 0 -290 -865 0
-865 0 0 865 0 865 580 0 580 0 0 285 0 285 -580 0 -580 0 0 1445 0 1445 290
0 290 0 0 -580 0 -580 288 2 287 3 3 578 2 577 285 0 285 0 0 -865 0 -865
-575 0 -575 0 0 -290 0 -290 865 0 865 0 0 575 0 575 575 0 575 0 0 580 0 580
575 0 575 0 0 860 0 860 -285 0 -285 0 0 -575 0 -575 -575 0 -575 0 0 -575 0
-575 -290 0 -290 0 0 1150 0 1150 -290 0 -290 0 0 -575 0 -575 -865 0 -865 0
0 290 0 290 580 0 580 0 0 285 0 285 -580 0 -580 0 0 865 0 865 290 0 290 0 0
-575 0 -575 290 0 291 0 -1 288 c0 158 0 416 0 575 l0 287 285 0 285 0 0 -575
0 -575 290 0 290 0 0 865 0 865 -1155 0 -1155 0 0 865 0 865 290 0 290 0 0
-580 0 -580 288 2 287 3 2 863 3 862 -580 0 -580 0 0 1440 0 1440 290 0 290 0
0 -1150 0 -1150 290 0 290 0 -3 1438 -2 1437 -577 3 -578 2 0 290 0 290 580 0
580 0 0 285 0 285 -580 0 -580 0 0 2880 0 2880 -285 0 -285 0 0 -11235z M1440
20740 l0 -2590 575 0 575 0 2 -3457 3 -3458 285 -2 c157 -2 417 -3 578 -3
l292 0 0 -1725 0 -1725 285 0 285 0 0 575 0 575 1150 0 1150 0 0 290 0 290
-575 -2 -575 -3 0 578 0 577 -285 0 -285 0 0 -577 0 -578 -290 0 -290 0 0
1728 0 1727 -285 0 -285 0 0 -575 0 -575 -290 0 -290 0 0 865 0 865 1150 0
1150 0 0 2590 0 2590 -285 0 -285 0 0 -2305 0 -2305 -865 0 -865 0 0 2305 0
2305 -575 0 -575 0 0 573 c0 1326 0 2348 0 2890 l0 577 1440 0 1440 0 0 -580
0 -580 285 0 285 0 0 580 0 580 290 0 290 0 0 -865 0 -865 -1150 0 -1150 0 0
-290 0 -290 2015 0 2015 0 0 575 0 575 288 0 c158 0 416 0 575 0 l287 -1 0
291 0 290 -865 0 -865 0 0 -575 0 -575 -290 0 -290 0 0 865 0 865 1445 0 1445
0 0 -580 0 -580 285 0 285 0 0 580 0 580 290 0 290 0 0 -580 0 -580 863 3 862
2 3 288 2 287 -580 0 -580 0 0 290 0 290 1440 0 1440 0 0 -290 0 -290 -575 0
-575 0 0 -865 0 -865 290 0 290 0 0 575 0 575 288 0 c158 0 416 0 575 0 l287
-1 0 581 0 580 290 0 290 0 0 -865 0 -865 -577 -2 -578 -3 -2 -285 c-2 -157
-3 -417 -3 -578 l0 -292 -1437 2 -1438 3 -3 287 -2 288 577 2 578 3 0 285 0
285 -1437 3 -1438 2 0 -290 0 -290 575 0 575 0 0 -290 0 -290 -865 0 -865 0 0
580 0 580 -287 -2 -288 -3 -2 -862 -3 -863 580 0 580 0 0 -575 0 -575 285 0
285 0 0 575 0 575 290 0 290 0 0 -1730 0 -1730 285 0 285 0 0 1730 0 1730 290
0 290 0 0 -575 0 -575 290 0 291 0 -1 288 c0 158 0 416 0 575 l0 287 285 0
285 0 0 -575 0 -575 578 0 577 0 0 -290 0 -290 -1152 0 -1153 0 0 -865 0 -865
865 0 865 0 0 290 0 290 -575 0 -575 0 0 290 0 290 860 0 860 0 0 -292 c0
-161 1 -421 3 -578 l2 -285 288 -3 287 -2 0 1440 0 1440 -575 0 -575 0 0 290
0 290 575 0 575 0 0 575 0 575 1440 0 1440 0 0 -290 0 -290 -1150 0 -1150 0 0
-1435 0 -1435 285 0 285 0 0 575 0 575 290 0 290 0 0 -575 0 -575 285 0 285 0
0 860 0 860 -575 0 -575 0 0 290 0 290 1155 0 1155 0 0 1150 0 1150 288 0
c158 0 416 0 575 0 l287 -1 0 291 0 290 -865 0 -865 0 0 -575 0 -575 -290 0
-290 0 0 575 0 575 -285 0 -285 0 0 -575 0 -575 -290 0 -290 0 0 865 0 865
2020 0 2020 0 0 -865 0 -865 -577 -2 -578 -3 -3 -287 -2 -288 865 0 865 0 0
1155 0 1155 290 0 290 0 0 -1445 0 -1445 -1155 0 -1155 0 0 -575 0 -575 -575
0 -575 0 0 -860 0 -860 290 0 290 0 0 575 0 575 285 0 285 0 0 -575 0 -575
578 -2 577 -3 3 -577 2 -578 285 0 285 0 0 1440 0 1440 -285 0 -285 0 0 -575
0 -575 -290 0 -290 0 0 865 0 865 865 0 865 0 0 -575 0 -575 285 0 285 0 0
2305 0 2305 290 0 290 0 0 -3745 0 -3745 -290 0 -290 0 0 1150 0 1150 -285 0
-285 0 0 -1440 0 -1440 575 0 575 0 0 -290 0 -290 -865 0 -865 0 0 580 0 580
-862 -3 -863 -2 -3 -287 -2 -288 580 0 580 0 0 -290 0 -290 -1445 0 -1445 0 0
290 0 290 580 0 580 0 -2 288 -3 287 -577 3 -578 2 0 285 0 285 1155 0 1155 0
0 290 0 290 -1440 0 -1440 0 0 -575 0 -575 -290 0 -290 0 0 575 0 575 -285 0
-285 0 0 -575 0 -575 -577 0 c-318 0 -837 -1 -1153 -3 l-575 -2 -3 -287 -2
-288 1730 0 1730 0 0 -290 0 -290 -575 0 -575 0 0 -285 0 -285 2305 0 2305 0
0 -290 0 -290 -1155 0 -1155 0 0 -285 0 -285 575 0 575 0 2 -577 3 -578 578
-3 577 -2 0 -285 0 -285 -577 -2 -578 -3 -3 -1152 -2 -1153 -285 0 -285 0 0
1730 0 1730 -290 0 -290 0 0 -1150 0 -1150 -290 0 -290 0 0 575 0 575 -285 0
-285 0 0 -1155 0 -1155 -290 0 -290 0 0 2020 0 2020 290 0 290 0 0 -580 0
-580 285 0 285 0 0 865 0 865 -1150 0 -1150 0 0 575 0 575 -290 0 -290 0 2
-575 3 -575 -287 0 -288 0 0 575 0 575 -290 0 -290 0 0 -860 0 -860 1155 0
1155 0 0 -2305 0 -2305 575 0 575 0 0 -575 0 -575 285 0 285 0 0 1150 0 1150
290 0 290 0 0 -575 0 -575 575 0 575 0 0 -290 0 -290 -575 0 -575 0 0 -285 0
-285 575 0 575 0 0 -290 0 -290 -575 0 -575 0 0 -575 0 -575 -290 0 -290 0 0
575 0 575 -285 0 -285 0 0 -2015 0 -2015 2015 0 2015 0 0 1440 0 1440 -862 -2
-863 -3 -3 -862 -2 -863 290 0 290 0 0 575 0 575 290 0 290 0 0 -865 0 -865
-1445 0 -1445 0 0 290 0 290 580 0 580 0 0 285 0 285 -580 0 -580 0 0 290 0
290 580 0 580 0 0 575 0 575 1150 0 1150 0 0 290 0 290 -575 0 -575 0 0 2015
0 2015 575 0 575 0 0 865 0 865 -575 0 -575 0 0 290 0 290 575 0 575 0 0 575
0 575 290 0 290 0 0 -575 0 -575 285 0 285 0 0 575 0 575 290 0 290 0 0 -865
0 -865 -575 0 -575 0 0 -290 0 -291 288 1 c158 0 416 0 575 0 l287 0 0 -285 0
-285 -575 0 -575 0 0 -290 0 -290 575 0 575 0 0 -287 0 -288 -575 3 -575 2 0
-580 0 -580 -290 0 -290 0 0 580 0 580 -285 0 -285 0 0 -865 0 -865 860 0 860
0 0 575 0 575 290 0 290 0 0 -2015 0 -2015 -290 0 -290 0 0 1150 0 1150 -860
0 -860 0 0 -285 0 -285 575 0 575 0 0 -1730 0 -1730 285 0 285 0 0 575 0 575
290 0 290 0 0 -865 0 -865 -575 0 -575 0 0 -285 0 -285 575 0 575 0 0 -580 0
-580 288 2 287 3 2 11233 3 11232 -10660 0 -10660 0 0 -2590z"/>
</g>
</svg>
