<?xml version="1.0" standalone="no"?>
<!DOCTYPE svg PUBLIC "-//W3C//DTD SVG 20010904//EN"
 "http://www.w3.org/TR/2001/REC-SVG-20010904/DTD/svg10.dtd">
<svg version="1.0" xmlns="http://www.w3.org/2000/svg"
 width="2362.000000pt" height="2362.000000pt" viewBox="0 0 2362.000000 2362.000000"
 preserveAspectRatio="xMidYMid meet">
<metadata>
Created by potrace 1.16, written by Peter Selinger 2001-2019
</metadata>
<g transform="translate(0.000000,2362.000000) scale(0.100000,-0.100000)"
fill="#000000" stroke="none">
<path d="M290 12095 l0 -11235 10655 0 10655 0 0 865 0 865 -285 0 -285 0 0
-575 0 -575 -2020 0 -2020 0 0 290 0 290 1730 0 1730 0 0 285 0 285 -575 0
-575 0 0 290 0 290 575 0 575 0 0 285 0 285 -575 0 -575 0 0 580 0 580 -287
-2 -288 -3 -3 -1152 -2 -1153 -865 0 -865 0 0 865 0 865 290 0 290 0 0 -575 0
-575 290 0 290 0 -2 863 -3 862 -1153 3 -1152 2 0 2880 0 2880 -575 0 -575 0
0 575 0 575 -290 0 -290 0 0 -862 c0 -475 0 -992 0 -1150 l0 -288 -285 0 -285
0 0 575 0 575 -290 0 -290 0 0 -575 0 -575 -285 0 -285 0 0 288 c-1 896 1
1426 3 1429 2 2 260 4 573 6 l569 2 3 288 2 287 -575 0 -575 0 0 285 c0 157 0
418 0 580 0 162 0 423 0 580 l0 285 285 0 285 0 0 -575 0 -575 865 0 865 0 0
860 0 860 -290 0 -290 0 2 -575 3 -575 -287 0 -288 0 0 575 0 575 -575 0 -575
0 -2 578 -3 577 -577 3 -578 2 0 575 0 575 -285 0 -285 0 0 -865 0 -865 575 0
575 0 0 -290 0 -290 -575 0 -575 0 0 -860 0 -860 285 0 285 0 0 575 0 575 290
0 290 0 0 -865 0 -865 -575 0 -575 0 0 -865 0 -865 285 0 285 0 0 575 0 575
290 0 290 0 0 -2300 0 -2300 290 0 290 0 0 575 0 575 575 0 575 0 0 285 0 285
-575 0 -575 0 0 290 0 290 863 0 862 0 -3 -575 -2 -575 290 0 290 0 0 1150 0
1150 290 0 290 0 0 -2015 0 -2015 -577 -2 -578 -3 0 -285 0 -285 578 -3 577
-2 0 -285 0 -285 -865 0 -865 0 0 865 0 865 575 0 575 0 0 285 0 285 -865 0
-865 0 0 -575 0 -575 -1440 0 -1440 0 0 865 0 865 290 0 290 0 0 -575 0 -575
285 0 285 0 0 860 0 860 -860 0 -860 0 0 -575 0 -575 -580 0 -580 0 0 -285 0
-285 580 0 580 0 0 -290 0 -290 -580 0 -580 0 2 -287 3 -288 578 -3 577 -2 0
-1725 0 -1725 285 0 285 0 0 1725 0 1725 290 0 290 0 0 -1725 0 -1725 285 0
285 0 0 1725 0 1725 865 0 865 0 0 -575 0 -575 1730 0 1730 0 0 -1440 0 -1440
-290 0 -290 0 0 1150 0 1150 -285 0 -285 0 0 -1150 0 -1150 -1440 0 -1440 0 0
290 0 290 1150 0 1150 0 0 860 0 860 -290 0 -290 0 2 -575 3 -575 -862 0 -863
0 0 290 0 290 575 0 575 0 0 285 0 285 -575 0 -575 0 -2 578 -3 577 -287 3
-288 2 0 -1730 0 -1730 -1440 0 -1440 0 0 575 0 575 -290 0 -291 0 1 -288 c0
-158 0 -416 0 -574 l0 -288 -865 0 -865 0 0 1440 0 1440 290 0 290 0 0 -1150
0 -1150 290 0 290 0 0 575 0 575 575 0 575 0 0 865 0 865 -287 -2 -288 -3 -3
-577 -2 -578 -285 0 -285 0 0 1155 0 1155 -290 0 -290 0 0 -575 0 -575 -290 0
-290 0 0 575 0 575 -285 0 -285 0 0 -1155 0 -1155 -1150 0 -1150 0 0 -285 0
-285 1150 0 1150 0 0 -865 0 -865 -1440 0 -1440 0 0 290 0 290 1150 0 1150 0
0 285 0 285 -1440 0 -1440 0 0 -575 0 -575 -285 0 -285 0 0 288 c0 158 0 416
0 575 l1 287 -291 0 -290 0 0 -575 0 -575 -290 0 -290 0 0 865 0 865 1155 0
1155 0 0 575 0 575 1150 0 1150 0 0 1155 0 1155 1155 0 1155 0 0 860 0 860
-580 0 -580 0 0 290 0 290 865 0 865 0 0 -575 0 -575 290 0 290 0 0 1150 0
1150 290 0 290 0 0 -575 0 -575 860 0 860 0 0 290 0 290 -575 -2 -575 -3 0
578 0 577 -862 -2 -863 -3 -3 -572 -2 -573 -285 0 -285 0 0 575 0 575 -290 0
-290 0 0 -575 0 -575 -290 0 -290 0 0 575 0 575 -285 0 -285 0 0 -577 0 -578
-290 0 -290 0 0 578 0 577 -285 0 -285 0 0 -865 0 -865 575 0 575 0 0 -290 0
-290 -575 0 -575 0 0 -285 0 -285 1150 0 1150 0 0 -290 0 -290 -1725 0 -1725
0 0 -285 0 -285 575 0 575 0 0 -865 0 -865 -865 0 -865 0 0 285 0 285 575 0
575 0 0 290 0 290 -575 0 -575 0 0 575 0 575 -865 0 -865 0 0 -285 0 -285 575
0 575 0 0 -1445 0 -1445 -865 0 -865 0 0 290 0 290 580 0 580 0 -2 287 -3 288
-577 3 -578 2 0 285 0 285 578 2 577 3 3 288 2 287 -580 0 -580 0 0 865 0 865
1730 0 1730 0 0 285 0 285 -1730 0 -1730 0 0 865 0 865 1155 0 1155 0 0 1440
0 1440 -290 0 -290 0 0 -575 0 -575 -285 0 -285 0 0 288 c0 158 0 416 0 575
l1 287 -291 0 -290 0 0 -865 0 -866 288 1 c158 0 416 0 575 0 l287 0 0 -285 0
-285 -865 0 -865 0 0 2015 0 2015 580 0 580 0 -2 288 -3 287 -577 3 -578 2 0
285 0 285 578 2 577 3 3 578 2 577 863 -2 862 -3 3 -1152 2 -1153 860 0 860 0
0 290 0 290 -575 0 -575 0 0 865 0 865 575 0 575 0 0 285 0 285 -575 0 -575 0
0 575 0 575 -575 0 -575 0 0 575 0 575 -290 0 -290 0 0 -860 0 -860 580 0 580
0 0 -290 0 -290 -865 0 -865 0 0 288 c0 158 0 416 0 575 l1 287 -291 0 -290 0
0 -1150 0 -1150 -290 0 -290 0 0 3455 0 3455 -285 0 -285 0 0 -11235z M1440
21315 l0 -2015 290 0 291 0 -1 288 c0 158 0 416 0 575 l0 287 575 0 575 0 0
865 0 865 -290 0 -290 0 0 -575 0 -575 -285 0 -285 0 -2 288 c-2 158 -2 547 0
865 l2 577 1440 0 1440 0 0 -290 0 -290 -575 0 -575 0 0 -290 0 -290 575 0
575 0 0 -285 0 -285 -575 0 -575 0 0 -865 0 -865 575 0 575 0 0 -575 0 -575
1150 0 1150 0 0 -290 0 -290 -575 0 -575 0 0 -285 0 -285 865 0 865 0 0 575 0
575 285 0 285 0 2 -577 c2 -318 2 -707 0 -865 l-2 -288 -1725 0 -1725 0 0
-290 0 -290 575 0 575 0 0 -865 0 -865 -1440 0 -1440 0 0 1155 0 1155 -290 0
-290 0 0 -1155 0 -1155 -575 0 -575 0 0 -285 0 -285 1155 0 1155 0 0 -2015 0
-2015 -292 0 c-161 0 -680 -1 -1153 -3 l-860 -2 -3 -287 -2 -288 1440 0 1440
0 0 1150 0 1150 288 0 c158 0 935 1 1727 3 l1440 2 3 578 2 577 285 0 285 0 2
-577 3 -578 863 -2 862 -3 0 290 0 290 -575 0 -575 0 0 290 0 290 575 0 575 0
0 285 0 285 -2015 0 -2015 0 0 -285 0 -285 575 0 575 0 0 -290 0 -290 -1440 0
-1440 0 0 290 0 290 575 0 575 0 0 285 0 285 -575 0 -575 0 0 290 0 290 1150
0 1150 0 0 1150 0 1150 290 0 290 0 0 -1150 0 -1150 290 0 290 0 0 575 0 575
865 0 865 0 0 -290 0 -290 -580 0 -580 0 0 -285 0 -285 865 0 865 0 0 865 0
866 -287 -1 c-159 0 -676 0 -1150 0 l-863 0 0 285 0 285 575 0 575 0 0 580 0
580 288 -2 287 -3 3 -577 2 -578 285 0 285 0 0 865 0 865 -575 0 -575 0 0 575
0 575 -1730 0 -1730 0 0 290 0 290 575 0 575 0 0 285 0 285 -1150 0 -1150 0 0
290 0 290 575 0 575 0 0 1155 0 1155 1440 0 1440 0 0 -290 0 -290 -1150 0
-1150 0 0 -865 0 -865 285 0 285 0 0 575 0 575 290 0 290 0 0 -575 0 -575 290
0 290 0 0 575 0 575 285 0 285 0 0 -865 0 -865 -575 0 -575 0 0 -285 0 -285
1155 0 1155 0 0 -575 0 -575 285 0 285 0 0 575 0 575 290 0 290 0 0 -1150 0
-1150 575 0 575 0 0 -580 0 -580 575 0 575 0 0 -575 0 -575 1155 0 1155 0 0
-1150 0 -1150 285 0 285 0 0 1150 0 1150 575 0 575 0 0 290 0 290 -1437 0
c-791 0 -1567 0 -1725 0 l-288 0 0 865 0 865 575 0 575 0 0 1150 0 1150 575 0
575 0 0 1440 0 1440 -285 0 -285 0 0 -1155 0 -1155 -290 0 -290 0 0 580 0 580
-287 -2 -288 -3 0 -1728 0 -1727 -287 0 -288 0 0 1150 0 1150 -290 0 -290 0 0
-1725 0 -1725 -285 0 -285 0 0 288 c0 158 0 675 0 1150 l0 862 -290 0 -290 0
0 -575 0 -575 -290 0 -290 0 0 865 0 865 580 0 580 0 0 285 0 285 -1730 0
-1730 0 0 1445 0 1445 865 0 865 0 0 -290 0 -290 -575 0 -575 0 0 -865 0 -865
285 0 285 0 0 575 0 575 575 0 575 0 0 580 0 580 290 0 290 0 0 -865 0 -865
-575 0 -575 0 0 -290 0 -290 1440 0 1440 0 0 290 0 290 -575 0 -575 0 0 285 0
285 863 0 c474 0 991 0 1150 0 l287 -1 0 291 0 290 -1150 0 -1150 0 0 290 0
290 2015 0 2015 0 0 -580 0 -580 285 0 285 0 0 580 0 580 865 0 865 0 2 -577
3 -578 863 -2 862 -3 0 290 0 290 -575 0 -575 0 0 290 0 290 1440 0 1440 0 0
-3170 0 -3170 -290 0 -290 0 0 2880 0 2880 -285 0 -285 0 0 -575 0 -575 -575
0 -575 0 0 -290 0 -290 575 0 575 0 0 -865 0 -865 -290 0 -290 0 0 575 0 575
-1150 0 -1150 0 0 290 0 290 575 0 575 0 0 290 0 290 -575 0 -575 0 0 575 0
575 -290 0 -290 0 0 -575 0 -575 -575 0 -575 0 0 -290 0 -290 575 0 575 0 0
-290 0 -290 -575 0 -575 0 0 -575 0 -575 -575 0 -575 0 0 -860 0 -860 1150 0
1150 0 0 -290 0 -290 -1727 -2 -1728 -3 0 -285 0 -285 1728 -3 1727 -2 0 -575
0 -575 290 0 290 0 0 1155 0 1155 285 0 285 0 0 -1155 0 -1155 290 0 290 0 0
575 0 575 575 0 575 0 0 290 0 290 -575 0 -575 0 0 290 0 290 575 0 575 0 0
285 0 285 -1150 0 -1150 0 0 575 0 575 -290 0 -290 0 0 -575 0 -575 -865 0
-865 0 0 290 0 290 575 0 575 0 0 575 0 575 865 0 865 0 0 -575 0 -575 290 0
290 0 0 575 0 575 290 0 290 0 0 -575 0 -575 575 0 575 0 0 -1440 0 -1440
-575 0 -575 0 0 -290 0 -290 860 0 860 0 0 575 0 575 290 0 290 0 0 -1440 0
-1440 -290 0 -290 0 0 575 0 575 -285 0 -285 0 0 -575 0 -575 -290 0 -290 0 0
575 0 575 -865 0 -865 0 0 -285 0 -285 580 0 580 0 0 -290 0 -290 -1155 0
-1155 0 0 -575 0 -575 -290 0 -290 0 0 865 0 865 580 0 580 0 0 285 0 285
-865 0 -865 0 0 -1150 0 -1150 -575 0 -575 0 0 -290 0 -290 1438 3 1437 2 3
578 2 577 865 0 865 0 0 -290 0 -290 -580 0 -580 0 0 -575 0 -575 -1150 0
-1150 0 0 -290 0 -290 575 0 575 0 0 -285 0 -285 -287 0 c-159 0 -417 0 -575
0 l-288 1 0 -291 0 -290 1150 0 1150 0 0 -290 0 -290 -1150 0 -1150 0 0 -1440
0 -1440 1440 0 1440 0 0 865 0 865 -290 0 -290 0 0 -575 0 -575 -865 0 -865 0
2 288 3 287 578 3 577 2 0 285 0 285 -580 0 -580 0 0 290 0 290 1730 0 1730 0
0 1440 0 1440 -285 0 -285 0 0 -1155 0 -1155 -290 0 -290 0 -2 578 -3 577
-285 2 c-157 2 -414 3 -572 3 l-288 0 0 285 0 285 575 0 575 0 0 575 0 575
288 0 c158 0 416 0 575 0 l287 -1 0 581 0 580 865 0 865 0 0 -290 0 -290 -575
0 -575 0 0 -1440 0 -1440 285 0 285 0 0 1150 0 1150 290 0 290 0 0 -1440 0
-1440 -575 0 -575 0 0 -285 0 -285 575 0 575 0 0 -865 0 -865 -865 0 -865 0 0
290 0 290 575 0 575 0 0 285 0 285 -860 0 -860 0 0 -865 0 -865 1150 0 1150 0
0 -865 0 -865 -290 0 -290 0 0 580 0 580 -860 0 -860 0 0 -290 0 -290 575 0
575 0 0 -575 0 -575 575 0 575 0 0 -1155 0 -1155 288 2 287 3 2 11233 3 11232
-10660 0 -10660 0 0 -2015z"/>
</g>
</svg>
