<?xml version="1.0" standalone="no"?>
<!DOCTYPE svg PUBLIC "-//W3C//DTD SVG 20010904//EN"
 "http://www.w3.org/TR/2001/REC-SVG-20010904/DTD/svg10.dtd">
<svg version="1.0" xmlns="http://www.w3.org/2000/svg"
 width="2362.000000pt" height="2362.000000pt" viewBox="0 0 2362.000000 2362.000000"
 preserveAspectRatio="xMidYMid meet">
<metadata>
Created by potrace 1.16, written by Peter Selinger 2001-2019
</metadata>
<g transform="translate(0.000000,2362.000000) scale(0.100000,-0.100000)"
fill="#000000" stroke="none">
<path d="M290 12095 l0 -11235 10655 0 10655 0 0 865 0 865 -285 0 -285 0 0
-575 0 -575 -290 0 -290 0 0 575 0 575 -285 0 -285 0 0 -575 0 -575 -865 0
-865 0 0 290 0 290 575 0 575 0 0 285 0 285 -865 0 -865 0 0 -575 0 -575 -865
0 -865 0 0 290 0 290 575 0 575 0 0 1440 0 1440 -285 0 -285 0 0 -1155 0
-1155 -865 0 -865 0 0 290 0 290 575 0 575 0 0 865 0 865 -285 0 -285 0 0
-580 0 -580 -290 0 -290 0 0 580 0 580 -287 -2 -288 -3 -2 -1437 -3 -1438 580
0 580 0 0 -290 0 -290 -2020 0 -2020 0 0 290 0 290 580 0 580 0 0 860 0 860
-290 0 -290 0 0 -575 0 -575 -1440 0 -1440 0 0 290 0 290 1150 0 1150 0 0 285
0 285 -575 0 -575 0 0 580 0 580 -285 0 -285 0 0 -580 0 -580 -580 0 -580 0 0
-860 0 -860 1155 0 1155 0 0 -290 0 -290 -1440 0 -1440 0 0 1150 0 1150 -290
0 -290 0 0 -1150 0 -1150 -865 0 -865 0 0 290 0 290 575 0 575 0 0 1150 0
1150 580 0 580 0 -2 288 -3 287 -577 3 -578 2 0 285 0 285 865 0 865 0 0 -575
0 -575 290 0 290 0 0 575 0 575 575 0 575 0 0 580 0 580 865 0 865 0 0 -290 0
-290 -575 0 -575 0 0 -865 0 -865 285 0 285 0 0 575 0 575 865 0 865 0 0 -285
0 -285 -575 0 -575 0 0 -290 0 -290 575 0 575 0 0 -1150 0 -1150 290 0 290 0
0 1725 0 1725 1150 0 1150 0 0 290 0 290 -575 0 -575 0 0 575 0 575 -290 0
-291 0 1 -288 c0 -158 0 -416 0 -574 l0 -288 -285 0 -285 0 0 575 0 575 -290
0 -290 0 0 -575 0 -575 -285 0 -285 0 0 288 c0 158 -1 935 -3 1727 l-2 1440
-288 3 -287 2 0 -580 0 -580 -575 0 -575 0 0 -285 0 -285 575 0 575 0 0 -290
0 -290 -865 0 -865 0 0 865 0 865 575 0 575 0 0 290 0 290 -575 -2 -575 -3 0
288 0 287 575 0 575 0 0 290 0 290 -575 0 -575 0 0 285 0 285 288 0 c158 0
416 0 575 0 l287 -1 0 291 0 290 -860 0 -860 0 0 -575 0 -575 -290 0 -290 0 0
575 0 575 -575 0 -575 0 0 290 0 290 575 0 575 0 0 1440 0 1440 -287 -2 -288
-3 -3 -578 -2 -577 -863 2 -862 3 -3 288 -2 287 580 0 580 0 -2 288 -3 287
-862 2 -863 3 0 -580 0 -580 -290 0 -290 0 0 865 0 865 2305 0 2305 0 0 580 0
580 290 0 290 0 0 -580 0 -580 285 0 285 0 0 1730 0 1730 580 0 580 0 -3 863
-2 862 -287 3 -288 2 0 -580 0 -580 -575 0 -575 0 0 -1150 0 -1150 -575 0
-575 0 0 -575 0 -575 -1445 0 -1445 0 0 2305 0 2305 -575 0 -575 0 0 285 0
285 578 2 c317 2 706 2 865 0 l287 -2 0 -575 0 -575 290 0 290 0 0 865 0 865
-1440 0 -1440 0 0 -865 0 -865 575 0 575 0 0 -290 0 -290 -575 0 -575 0 0
-285 0 -285 575 0 575 0 0 -1440 0 -1440 -1150 0 -1150 0 0 -290 0 -290 575 0
575 0 0 -1150 0 -1150 1725 0 1725 0 0 -290 0 -290 -575 0 -575 0 0 -1440 0
-1440 290 0 290 0 0 575 0 575 285 0 285 0 2 -572 3 -573 578 -3 577 -2 0
-1440 0 -1440 -290 0 -290 0 0 575 0 575 -290 0 -290 0 0 -575 0 -575 -575 0
-575 0 0 -285 0 -285 1155 0 1155 0 0 -290 0 -290 -1730 0 -1730 0 0 -1155 0
-1155 -290 0 -290 0 0 1155 0 1155 -285 0 -285 0 0 -1155 0 -1155 -575 0 -575
0 0 -285 0 -285 1150 0 1150 0 0 -290 0 -290 -575 0 -575 0 0 -575 0 -575
-290 0 -290 0 0 575 0 575 -285 0 -285 0 0 -575 0 -575 -1445 0 -1445 0 0
1440 0 1440 290 0 290 0 0 -1150 0 -1150 865 0 865 0 0 285 0 285 -575 0 -575
0 0 290 0 290 575 0 575 0 0 285 0 285 -575 0 -575 0 0 290 0 290 575 0 575 0
0 1155 0 1155 288 -2 287 -3 3 -1152 2 -1153 285 0 285 0 0 1730 0 1730 290 0
290 0 0 -575 0 -575 285 0 285 0 0 575 0 575 290 0 290 0 0 -575 0 -575 285 0
285 0 0 575 0 575 580 0 580 0 0 575 0 575 575 0 575 0 -2 288 -3 287 -860 2
c-473 2 -992 3 -1152 3 l-293 0 0 575 0 575 -285 0 -285 0 0 -865 0 -865 575
0 575 0 0 -290 0 -290 -865 0 -865 0 0 580 0 580 -285 0 -285 0 0 -580 0 -580
-290 0 -290 0 0 580 0 580 -285 0 -285 0 0 -1155 0 -1155 -290 0 -290 0 0 575
0 575 -290 0 -290 0 0 -1725 0 -1725 -285 0 -285 0 0 288 c0 158 0 416 0 574
l1 288 -291 0 -290 0 0 -575 0 -575 -290 0 -290 0 0 1440 0 1440 290 0 290 0
0 -575 0 -575 290 0 290 0 0 1438 c0 790 0 1566 0 1725 l0 287 285 0 285 0 0
-575 0 -575 290 0 290 0 0 1150 0 1150 290 0 290 0 0 -575 0 -575 285 0 285 0
0 575 0 575 290 0 290 0 0 -575 0 -575 285 0 285 0 0 1155 0 1155 290 0 290 0
0 -580 0 -580 285 0 285 0 0 865 0 865 -1435 0 -1435 0 0 -285 0 -285 575 0
575 0 0 -290 0 -290 -1155 0 -1155 0 0 -575 0 -575 -285 0 -285 0 -2 288 c-2
158 -2 547 0 865 l2 577 575 0 575 0 0 285 0 285 -865 0 -865 0 0 -2305 0
-2305 -290 0 -290 0 0 2595 0 2595 1155 0 1155 0 0 285 0 285 -1155 0 -1155 0
0 865 0 865 290 0 290 0 0 -575 0 -575 290 0 290 0 -3 863 -2 862 -577 3 -578
2 0 865 0 865 290 0 290 0 0 -575 0 -575 290 0 290 0 0 575 0 575 575 0 575 0
0 285 0 285 -1155 0 -1155 0 0 1440 0 1440 290 0 290 0 0 -575 0 -575 288 2
287 3 2 863 3 862 -580 0 -580 0 0 575 0 575 -285 0 -285 0 0 -11235z M1440
23045 l0 -285 1153 -2 1152 -3 3 -287 2 -288 -580 0 -580 0 2 -287 3 -288 578
-3 577 -2 -2 -863 -3 -862 -287 -3 -288 -2 0 580 0 580 -290 0 -290 0 0 -580
0 -580 -575 0 -575 0 0 -285 0 -285 1155 0 1155 0 0 -865 0 -865 -580 0 -580
0 0 -1440 0 -1440 580 0 580 0 0 -575 0 -575 285 0 285 0 0 865 0 866 -287 -1
c-159 0 -417 0 -575 0 l-288 0 0 865 0 865 1150 0 1150 0 0 285 0 285 -575 0
-575 0 0 290 0 290 575 0 575 0 0 285 0 285 -575 0 -575 0 0 2020 0 2020 2595
0 2595 0 0 -865 0 -865 -290 0 -290 0 0 575 0 575 -290 0 -290 0 0 -1440 0
-1440 580 0 580 0 0 -290 0 -290 -865 0 -865 0 0 575 0 575 -290 0 -290 0 0
-1435 0 -1435 290 0 290 0 0 575 0 575 285 0 285 0 0 -575 0 -575 290 0 290 0
0 575 0 575 575 0 575 0 0 860 0 860 -575 0 -575 0 0 290 0 290 1150 0 1150 0
0 290 0 290 -575 0 -575 0 0 865 0 865 290 0 290 0 0 -580 0 -580 863 3 862 2
3 288 2 287 -580 0 -580 0 0 290 0 290 865 0 865 0 0 -2305 0 -2305 578 0 577
0 -3 -575 -2 -575 290 0 290 0 0 1150 0 1150 290 0 290 0 0 -575 0 -575 860 0
860 0 0 285 0 285 -575 0 -575 0 0 290 0 290 575 0 575 0 0 285 0 285 -1440 0
-1440 0 2 -575 3 -575 -287 0 -288 0 0 865 0 865 575 0 575 0 0 865 0 865
-287 -2 -288 -3 -2 -285 c-2 -157 -3 -414 -3 -572 l0 -288 -285 0 -285 0 0
865 0 865 865 0 865 0 0 -1155 0 -1155 1440 0 1440 0 -2 288 -3 287 -1152 3
-1153 2 0 865 0 865 290 0 290 0 0 -580 0 -580 285 0 285 0 0 580 0 580 290 0
290 0 0 -580 0 -580 288 2 287 3 3 578 2 577 285 0 285 0 0 -1445 0 -1445
-575 0 -575 0 0 -285 0 -285 865 0 865 0 0 1730 0 1730 290 0 290 0 0 -1155 0
-1155 860 0 860 0 0 865 0 865 -285 0 -285 0 0 -575 0 -575 -290 0 -290 0 0
865 0 865 865 0 865 0 0 -2020 0 -2020 -290 0 -290 0 0 575 0 575 -860 0 -860
0 0 -575 0 -575 -580 0 -580 0 0 -285 0 -285 865 0 865 0 0 575 0 575 290 0
290 0 0 -575 0 -575 575 0 575 0 0 -865 0 -865 -290 0 -290 0 0 575 0 575
-860 0 -860 0 0 -285 0 -285 575 0 575 0 0 -290 0 -290 -575 0 -575 0 0 -290
0 -290 575 0 575 0 0 -575 0 -575 285 0 285 0 0 575 0 575 290 0 290 0 0 -865
0 -865 -575 0 -575 0 0 -285 0 -285 575 0 575 0 0 -290 0 -290 -575 0 -575 0
0 -285 0 -285 575 0 575 0 0 -1442 0 -1443 -290 3 -290 3 0 1149 0 1150 -1150
0 -1150 0 0 575 0 575 -575 0 -575 0 0 865 0 865 865 0 865 0 0 -290 0 -290
-580 0 -580 0 0 -285 0 -285 580 0 580 0 0 -575 0 -575 285 0 285 0 0 1440 0
1441 -287 -1 c-159 0 -417 0 -575 0 l-288 0 0 575 0 575 -575 0 -575 0 0 290
0 290 575 0 575 0 0 285 0 285 -575 0 -575 0 0 575 0 575 -290 0 -290 0 0
-1150 0 -1150 -865 0 -865 0 0 290 0 290 575 0 575 0 0 285 0 285 -860 0 -860
0 0 -575 0 -575 -577 -2 -578 -3 0 -860 0 -860 288 -3 287 -2 0 575 0 575 290
0 290 0 0 -865 0 -865 -580 0 -580 0 0 -285 0 -285 865 0 865 0 0 1150 0 1150
1440 0 1440 0 0 -285 0 -285 -575 0 -575 0 0 -580 0 -580 -290 0 -290 0 0 580
0 580 -285 0 -285 0 0 -865 0 -865 575 0 575 0 0 -290 0 -290 -2015 0 -2015 0
-2 1153 -3 1152 -572 3 -573 2 0 285 0 285 575 0 575 0 0 290 0 290 -575 0
-575 0 0 290 0 290 575 0 575 0 0 285 0 285 -575 0 -575 0 0 288 c0 158 0 416
0 575 l1 287 -291 0 -290 0 0 -1725 0 -1725 -287 0 c-159 0 -417 0 -575 0
l-288 1 0 -291 0 -290 575 0 575 0 0 -865 0 -865 -290 0 -290 0 0 575 0 575
-575 0 -575 0 0 580 0 580 -285 0 -285 0 0 -865 0 -865 575 0 575 0 0 -290 0
-290 -575 0 -575 0 0 -285 0 -285 1440 0 1440 0 0 863 c0 474 0 991 0 1150 l0
287 285 0 285 0 0 -1440 0 -1440 -575 0 -575 0 0 -290 0 -290 2018 0 c1109 0
2146 0 2305 0 l287 0 0 -862 0 -863 -290 0 -290 0 0 578 0 577 -2015 0 -2015
0 0 -290 0 -290 575 0 575 0 0 -1150 0 -1150 290 0 290 0 0 1150 0 1150 285 0
285 0 0 -287 c0 -159 0 -676 0 -1150 l0 -863 580 0 580 0 0 -575 0 -575 860 0
860 0 0 285 0 285 -575 0 -575 0 0 290 0 290 1155 0 1155 0 0 285 0 285 -1730
0 -1730 0 0 865 0 865 290 0 290 0 0 -575 0 -575 1440 0 1440 0 0 575 0 575
285 0 285 0 0 -1440 0 -1440 -575 0 -575 0 0 -285 0 -285 575 0 575 0 0 -865
0 -865 -285 0 -285 0 0 575 0 575 -865 0 -865 0 0 -290 0 -290 575 0 575 0 0
-1150 0 -1150 290 0 290 0 0 575 0 575 285 0 285 0 0 -575 0 -575 290 0 290 0
0 575 0 575 290 0 290 0 0 -575 0 -575 860 0 860 0 0 285 0 285 -575 0 -575 0
0 290 0 290 575 0 575 0 0 865 0 865 -285 0 -285 0 0 -575 0 -575 -290 0 -290
0 0 575 0 575 -285 0 -285 0 0 -575 0 -575 -290 0 -290 0 0 2880 0 2880 -865
0 -865 0 0 -575 0 -575 -290 0 -290 0 0 860 0 860 578 2 577 3 3 288 2 287
-2305 0 -2305 0 0 290 0 290 2590 0 2590 0 2 -577 3 -578 865 -2 c476 -2 994
-3 1153 -3 l287 0 0 -285 0 -285 -575 0 -575 0 0 -290 0 -290 575 0 575 0 0
-865 0 -865 -290 0 -290 0 0 580 0 580 -285 0 -285 0 0 -1440 0 -1440 285 0
285 0 0 575 0 575 290 0 290 0 0 -575 0 -575 285 0 285 0 0 1150 0 1150 290 0
290 0 0 -4035 0 -4035 288 2 287 3 2 11233 3 11232 -10660 0 -10660 0 0 -285z"/>
</g>
</svg>
