<?xml version="1.0" standalone="no"?>
<!DOCTYPE svg PUBLIC "-//W3C//DTD SVG 20010904//EN"
 "http://www.w3.org/TR/2001/REC-SVG-20010904/DTD/svg10.dtd">
<svg version="1.0" xmlns="http://www.w3.org/2000/svg"
 width="2362.000000pt" height="2362.000000pt" viewBox="0 0 2362.000000 2362.000000"
 preserveAspectRatio="xMidYMid meet">
<metadata>
Created by potrace 1.16, written by Peter Selinger 2001-2019
</metadata>
<g transform="translate(0.000000,2362.000000) scale(0.100000,-0.100000)"
fill="#000000" stroke="none">
<path d="M290 12095 l0 -11235 10655 0 10655 0 0 290 0 290 -2880 0 -2880 0 0
1440 0 1440 290 0 290 0 0 -575 0 -575 575 0 575 0 0 -290 0 -290 -575 0 -575
0 0 -285 0 -285 865 0 865 0 0 860 0 860 -580 0 -580 0 0 290 0 290 580 0 580
0 -2 288 -3 287 -1153 3 -1152 2 0 575 0 575 -862 -2 -863 -3 0 -285 0 -285
578 -3 577 -2 0 -865 0 -865 -580 0 -580 0 0 -285 0 -285 580 0 580 0 0 -290
0 -290 -580 0 -580 0 0 -285 0 -285 580 0 580 0 0 -290 0 -290 -2020 0 -2020
0 0 290 0 290 580 0 580 0 0 285 0 285 -1440 0 -1440 0 0 -285 0 -285 575 0
575 0 0 -290 0 -290 -3170 0 -3170 0 0 1440 0 1440 290 0 290 0 0 -575 0 -575
285 0 285 0 0 865 0 865 -860 0 -860 0 -2 -577 -3 -578 -862 -3 -863 -2 -2
577 c-2 318 -2 707 0 866 l2 287 285 0 285 0 0 -575 0 -575 290 0 290 0 0 575
0 575 575 0 575 0 0 580 0 580 290 0 290 0 0 -580 0 -580 575 0 575 0 0 -1150
0 -1150 575 0 575 0 0 -290 0 -290 -1150 0 -1150 0 0 -285 0 -285 1440 0 1440
0 0 860 0 860 -577 2 -578 3 -3 288 -2 287 580 0 580 0 0 575 0 575 285 0 285
0 0 -862 c0 -475 0 -1251 0 -1726 l0 -862 290 0 290 0 0 575 0 575 1730 0
1730 0 0 285 0 285 -580 0 -580 0 0 290 0 290 580 0 580 0 -2 288 -3 287 -577
3 -578 2 0 285 0 285 865 0 865 0 0 -1725 0 -1725 290 0 290 0 0 1150 0 1150
575 0 575 0 0 290 0 290 -575 0 -575 0 0 1440 0 1440 288 0 287 0 -3 -575 -2
-575 290 0 290 0 0 860 0 860 -865 0 -865 0 0 -575 0 -575 -285 0 -285 0 0
288 c0 158 0 416 0 574 l1 288 -291 0 -290 0 0 -860 0 -860 575 0 575 0 0
-290 0 -290 -865 0 -865 0 0 1150 0 1150 -285 0 -285 0 0 -575 0 -575 -290 0
-290 0 0 1155 0 1155 -285 0 -285 0 0 -580 0 -580 -290 0 -290 0 -2 577 -3
578 -285 2 c-157 2 -414 3 -572 3 l-288 0 0 860 0 860 288 0 c158 0 675 0
1150 0 l862 0 0 290 0 290 -1150 0 -1150 0 0 290 0 290 1150 0 1150 0 0 285 0
285 -575 0 -575 0 0 290 0 290 575 0 575 0 0 285 0 285 -1150 0 -1150 0 -2
578 -3 577 -287 3 -288 2 0 -580 0 -580 -865 0 -865 0 0 1155 0 1155 -285 0
-285 0 0 -575 0 -575 -575 0 -575 0 -2 -577 -3 -578 -287 -3 -288 -2 0 865 0
865 575 0 575 0 0 290 0 290 -575 0 -575 0 0 290 0 290 575 0 575 0 0 575 0
575 1440 0 1440 0 0 -575 0 -575 290 0 290 0 0 575 0 575 1150 0 1150 0 0 285
0 285 -575 0 -575 0 0 865 0 865 1150 0 1150 0 0 865 0 865 -860 0 -860 0 0
-290 0 -290 575 0 575 0 0 -285 0 -285 -1440 0 -1440 0 0 575 0 575 -290 0
-290 0 0 -865 0 -865 575 0 575 0 2 -287 c2 -159 2 -548 0 -865 l-2 -578
-2300 0 -2300 0 0 -575 0 -575 -290 0 -290 0 0 865 0 865 575 0 575 0 0 285 0
285 -575 0 -575 0 0 290 0 290 1150 0 1150 0 0 865 0 865 -285 0 -285 0 0
-575 0 -575 -1155 0 -1155 0 0 -580 0 -580 -575 0 -575 0 0 -285 0 -285 575 0
575 0 0 -290 0 -290 -575 0 -575 0 0 -285 0 -285 575 0 575 0 0 -290 0 -290
-575 0 -575 0 0 -285 0 -285 575 0 575 0 0 -290 0 -290 -575 0 -575 0 0 -290
0 -290 575 0 575 0 0 -285 0 -285 -287 0 c-159 0 -417 0 -575 0 l-288 1 0
-291 0 -290 575 0 575 0 0 -575 0 -575 580 0 580 0 0 -575 0 -575 860 0 860 0
0 285 0 285 -575 0 -575 0 0 865 0 865 290 0 290 0 0 -575 0 -575 575 0 575 0
0 -575 0 -575 285 0 285 0 0 575 0 575 865 0 865 0 0 -290 0 -290 -575 0 -575
0 0 -575 0 -575 -575 0 -575 0 0 -575 0 -575 -1150 0 -1150 0 0 -290 0 -290
575 0 575 0 0 -287 0 -288 -1152 0 -1153 0 -3 -578 -2 -577 -575 0 -575 0 0
-860 0 -860 290 0 290 0 0 575 0 575 575 0 575 0 0 575 0 575 1150 0 1150 0 0
575 0 575 575 0 575 0 0 575 0 575 290 0 290 0 0 -1150 0 -1150 575 0 575 0 0
-290 0 -290 -865 0 -865 0 0 580 0 580 -285 0 -285 0 0 -580 0 -580 -575 0
-575 0 0 -285 0 -285 575 0 575 0 0 -575 0 -575 865 0 865 0 0 285 0 285 -580
0 -580 0 0 290 0 290 1445 0 1445 0 0 -290 0 -290 -580 0 -580 0 0 -285 0
-285 1155 0 1155 0 0 -290 0 -290 -575 0 -575 0 0 -290 0 -290 575 0 575 0 0
-865 0 -865 -865 0 -865 0 0 290 0 290 575 0 575 0 0 290 0 290 -575 0 -575 0
0 575 0 575 -865 0 -865 0 0 -575 0 -575 -290 0 -290 0 0 575 0 575 -575 0
-575 0 0 575 0 575 -575 0 -575 0 0 575 0 575 -285 0 -285 0 0 -1150 0 -1150
-290 0 -290 0 0 575 0 575 -290 0 -290 0 0 -575 0 -575 -575 0 -575 0 0 -1440
0 -1440 1155 0 1155 0 0 -865 0 -865 -290 0 -290 0 0 575 0 575 -290 0 -290 0
0 -575 0 -575 -285 0 -285 0 0 288 c0 158 0 416 0 575 l1 287 -291 0 -290 0 0
-575 0 -575 -290 0 -290 0 0 3745 0 3745 580 0 580 0 -2 288 -3 287 -285 2
c-157 2 -417 3 -577 3 l-293 0 0 285 0 285 1155 0 1155 0 0 575 0 575 288 0
c158 0 675 0 1150 0 l862 0 0 290 0 290 -2015 0 -2015 0 0 -290 0 -291 288 1
c158 0 416 0 575 0 l287 0 0 -285 0 -285 -865 0 -865 0 0 865 0 865 1155 0
1155 0 0 285 0 285 -575 0 -575 0 0 575 0 575 -290 0 -290 0 0 -575 0 -575
-290 0 -290 0 0 5185 0 5185 -285 0 -285 0 0 -11235z M1440 23045 l0 -285
1153 -2 1152 -3 3 -287 2 -288 -1155 0 -1155 0 0 -865 0 -865 288 2 287 3 2
569 c2 313 5 571 6 573 2 2 520 3 1150 3 l1147 0 0 580 0 580 865 0 865 0 0
-1445 0 -1445 -575 0 -575 0 0 -285 0 -285 1440 0 1440 0 0 285 0 285 -577 2
-578 3 -3 1443 -2 1442 865 0 865 0 2 -577 3 -578 288 -3 287 -2 0 580 0 580
2590 0 2590 0 0 -290 c0 -159 0 -420 0 -580 0 -159 0 -418 0 -575 l0 -285
-285 0 -285 0 0 575 0 575 -290 0 -290 0 0 -575 0 -575 -285 0 -285 0 0 288
c0 158 0 416 0 575 l1 287 -291 0 -290 0 0 -1155 0 -1155 -1150 0 -1150 0 0
-285 0 -285 1150 0 1150 0 0 -290 0 -290 -575 0 -575 0 0 -575 0 -575 -1155 0
-1155 0 0 -285 0 -285 578 -2 577 -3 3 -287 2 -288 -1445 0 -1445 0 0 575 0
575 -860 0 -860 0 0 -285 0 -285 575 0 575 0 0 -1155 0 -1155 285 0 285 0 0
575 0 575 1445 0 1445 0 0 -285 0 -285 -577 -2 -578 -3 -3 -287 -2 -288 865 0
865 0 0 1155 0 1155 575 0 575 0 0 575 0 575 1443 0 1442 0 -3 -575 -2 -575
290 0 290 0 0 860 0 860 -1150 0 -1150 0 -2 578 c-2 317 -2 706 0 865 l2 287
860 0 860 0 0 -290 0 -290 -575 0 -575 0 0 -285 0 -285 865 0 865 0 0 1150 0
1150 288 0 c158 0 416 0 575 0 l287 -1 0 291 0 290 -575 0 -575 0 0 290 0 290
1440 0 1440 0 0 -290 0 -290 -575 0 -575 0 0 -290 0 -290 1440 0 1440 0 0 290
0 290 -575 0 -575 0 0 290 0 290 865 0 865 0 0 -580 0 -580 860 0 860 0 0 290
0 290 -575 0 -575 0 0 290 0 290 865 0 865 0 0 -865 0 -865 -575 0 -575 0 0
-290 0 -290 575 0 575 0 0 -1440 0 -1440 -2015 0 -2015 0 0 290 0 290 575 0
575 0 0 575 0 575 290 0 290 0 0 -575 0 -575 285 0 285 0 0 575 0 575 290 0
290 0 0 -575 0 -575 285 0 285 0 0 860 0 860 -575 0 -575 0 0 580 0 580 -285
0 -285 0 -2 -577 -3 -578 -287 -3 -288 -2 0 580 0 580 -287 -2 -288 -3 -3
-1152 -2 -1153 -285 0 -285 0 -2 1153 -3 1152 -287 3 -288 2 0 -580 0 -580
-865 0 -865 0 0 290 0 290 575 0 575 0 0 290 0 290 -860 0 -860 0 0 -865 0
-865 1150 0 1150 0 0 -1150 0 -1150 575 0 575 0 0 -290 0 -290 -865 0 -865 0
0 1150 0 1150 -860 0 -860 0 0 -860 0 -860 285 0 285 0 0 575 0 575 290 0 290
0 0 -865 0 -865 -1152 -2 -1153 -3 -2 -1437 -3 -1438 290 0 290 0 0 1150 0
1150 290 0 290 0 0 -575 0 -575 285 0 285 0 0 575 0 575 865 0 865 0 0 -575 0
-575 290 0 290 0 0 575 0 575 575 0 575 0 0 580 0 580 865 0 865 0 0 -290 0
-290 -575 0 -575 0 0 -290 0 -290 860 0 860 0 0 580 0 580 290 0 290 0 0 -865
0 -865 -287 0 c-159 0 -936 -1 -1728 -3 l-1440 -2 -3 -577 -2 -578 -575 0
-575 0 0 -285 0 -285 575 0 575 0 0 -290 0 -290 -575 0 -575 0 2 -862 3 -863
285 0 285 0 3 578 2 577 575 0 575 0 0 1150 0 1150 1440 0 1440 0 0 -2015 0
-2015 -290 0 -290 0 0 575 0 575 -285 0 -285 0 0 -865 0 -865 575 0 575 0 0
-287 0 -288 -575 3 -575 2 0 -290 0 -290 575 0 575 0 0 -2015 0 -2015 -290 0
-290 0 0 1725 0 1725 -1150 0 -1150 0 0 290 0 290 575 0 575 0 0 1730 0 1730
575 0 575 0 0 860 0 860 -860 0 -860 0 0 -285 0 -285 575 0 575 0 0 -290 0
-290 -575 0 -575 0 0 -575 0 -575 -580 0 -580 0 0 -865 0 -865 290 0 290 0 0
575 0 575 290 0 290 0 0 -860 0 -860 -290 0 c-369 0 -792 0 -1155 0 l-285 0
-2 572 -3 573 -287 3 -288 2 0 -865 0 -865 575 0 575 0 0 -290 0 -290 -865 0
-865 0 0 1730 0 1730 -575 0 -575 0 0 865 0 865 290 0 290 0 0 -575 0 -575
285 0 285 0 0 1440 0 1440 -285 0 -285 0 0 -580 0 -580 -575 0 -575 0 0 -575
0 -575 -580 0 -581 0 1 -287 c0 -159 0 -417 0 -575 l0 -288 -285 0 -285 0 0
575 0 575 -1155 0 -1155 0 0 290 0 290 1155 0 1155 0 0 285 0 285 -1155 0
-1155 0 0 290 0 290 1155 0 1155 0 -2 288 -3 287 -572 3 -573 2 -2 288 c-2
158 -2 547 0 865 l2 577 285 0 285 0 0 -580 0 -580 290 0 290 0 0 865 0 865
-865 0 -865 0 0 -575 0 -575 -575 0 -575 0 0 -290 0 -290 575 0 575 0 0 -285
0 -285 -287 0 c-159 0 -417 0 -575 0 l-288 1 0 -1441 0 -1440 1150 0 1150 0 0
-290 0 -290 -1150 0 -1150 0 0 -290 0 -291 288 1 c158 0 416 0 575 0 l287 0 0
-575 0 -575 575 0 575 0 0 -285 0 -285 -287 -2 c-159 -2 -548 -2 -865 0 l-578
2 0 575 0 575 -1437 -2 -1438 -3 0 -285 0 -285 1152 -3 1153 -2 0 -575 0 -575
1440 0 1440 0 0 575 0 575 285 0 285 0 0 -287 c0 -159 0 -417 0 -576 l-1 -287
291 0 290 0 0 865 0 865 -1150 0 -1150 0 0 285 0 285 288 0 c158 0 675 0 1150
0 l862 0 0 580 0 580 290 0 290 0 0 -580 0 -581 288 1 c158 0 416 0 575 0
l287 0 0 -862 0 -863 -290 0 -290 0 0 578 0 577 -285 0 -285 0 0 -1440 0
-1440 285 0 285 0 0 575 0 575 290 0 290 0 0 -575 0 -575 575 0 575 0 0 -290
0 -290 -1150 0 -1150 0 0 -285 0 -285 575 0 575 0 0 -580 0 -580 285 0 285 0
2 578 3 577 1728 3 1727 2 0 285 0 285 -1150 0 -1150 0 0 290 0 290 1440 0
1440 0 0 -865 0 -865 -575 0 -575 0 0 -290 0 -290 575 0 575 0 0 -285 0 -285
-575 0 -575 0 0 -580 0 -580 -290 0 -290 0 0 1155 0 1155 -865 0 -865 0 0
-290 0 -290 575 0 575 0 0 -1725 0 -1725 865 0 865 0 0 285 0 285 -575 0 -575
0 0 290 0 290 575 0 575 0 0 575 0 575 290 0 290 0 0 -1150 0 -1150 285 0 285
0 0 1150 0 1150 290 0 290 0 0 -1730 0 -1730 288 2 287 3 2 11233 3 11232
-10660 0 -10660 0 0 -285z"/>
</g>
</svg>
