<?xml version="1.0" standalone="no"?>
<!DOCTYPE svg PUBLIC "-//W3C//DTD SVG 20010904//EN"
 "http://www.w3.org/TR/2001/REC-SVG-20010904/DTD/svg10.dtd">
<svg version="1.0" xmlns="http://www.w3.org/2000/svg"
 width="2362.000000pt" height="2362.000000pt" viewBox="0 0 2362.000000 2362.000000"
 preserveAspectRatio="xMidYMid meet">
<metadata>
Created by potrace 1.16, written by Peter Selinger 2001-2019
</metadata>
<g transform="translate(0.000000,2362.000000) scale(0.100000,-0.100000)"
fill="#000000" stroke="none">
<path d="M290 12095 l0 -11235 10655 0 10655 0 0 290 0 290 -5760 0 -5760 0 0
290 0 290 575 0 575 0 0 285 0 285 -575 0 -575 0 0 575 0 575 -285 0 -285 0 0
-575 0 -575 -290 0 -290 0 0 575 0 575 -1440 0 -1440 0 0 -285 0 -285 1150 0
1150 0 0 -290 0 -290 -575 0 -575 0 0 -285 0 -285 1155 0 1155 0 0 -290 0
-290 -1445 0 -1445 0 0 575 0 575 -285 0 -285 0 0 -575 0 -575 -1440 0 -1440
0 0 1150 0 1150 -290 0 -290 0 0 -575 0 -575 -575 0 -575 0 0 -285 0 -285 575
0 575 0 0 -290 0 -290 -865 0 -865 0 0 865 0 865 580 0 580 0 -3 863 -2 862
-287 3 -288 2 0 -580 0 -580 -290 0 -290 0 0 865 0 865 865 0 865 0 0 -575 0
-575 580 0 580 0 0 -1150 0 -1150 285 0 285 0 0 575 0 575 290 0 290 0 0 -575
0 -575 285 0 285 0 0 860 0 860 -575 0 -575 0 0 290 0 290 575 0 575 0 0 290
0 290 -575 0 -575 0 0 575 0 575 -285 0 -285 0 0 -575 0 -575 -290 0 -290 0 0
575 0 575 -1155 0 -1155 0 0 290 0 290 580 0 580 0 -3 1437 -2 1438 -285 0
-285 0 -3 -1152 -2 -1153 -290 0 -290 0 0 1440 0 1440 2020 0 2020 0 0 -1150
0 -1150 285 0 285 0 0 1440 0 1440 -1150 0 -1150 0 0 285 0 285 288 0 c158 0
416 0 575 0 l287 -1 0 291 0 290 -575 0 -575 0 0 290 0 290 575 0 575 0 0 575
0 575 290 0 290 0 0 -1155 0 -1155 285 0 285 0 0 580 0 580 575 0 575 0 0 575
0 575 580 0 580 0 0 575 0 575 285 0 285 0 0 -287 c0 -159 0 -676 0 -1150 l0
-863 290 0 290 0 0 575 0 575 2305 0 2305 0 0 285 0 285 -2305 0 -2305 0 0
1155 0 1155 -1440 0 -1440 0 0 -290 0 -290 1150 0 1150 0 0 -285 0 -285 -862
0 c-475 0 -992 0 -1150 0 l-288 1 0 -291 0 -290 575 0 575 0 0 -290 0 -290
-575 0 -575 0 0 -575 0 -575 -290 0 -290 0 0 575 0 575 -575 0 -575 0 0 1155
0 1155 -285 0 -285 0 -2 -1152 -3 -1153 -577 -3 -578 -2 0 -285 0 -285 580 0
580 0 0 -290 0 -290 -1155 0 -1155 0 0 -285 0 -285 575 0 575 0 0 -865 0 -865
-285 0 -285 0 0 288 c0 158 0 416 0 575 l1 287 -291 0 -290 0 0 -575 0 -575
-290 0 -290 0 0 2015 0 2015 290 0 290 0 0 -575 0 -575 290 0 290 0 0 863 c0
474 0 991 0 1150 l0 287 285 0 285 0 0 -575 0 -575 290 0 290 0 0 1155 0 1155
575 0 575 0 0 285 0 285 -575 0 -575 0 0 290 0 290 1150 0 1150 0 0 1150 0
1150 290 0 290 0 0 -575 0 -575 285 0 285 0 0 575 0 575 290 0 290 0 0 -575 0
-575 865 0 865 0 0 285 0 285 -575 0 -575 0 -2 578 -3 577 -577 3 -578 2 0
285 0 285 578 2 577 3 3 288 2 287 -865 0 -865 0 0 -575 0 -575 -865 0 -865 0
0 575 0 575 -285 0 -285 0 -2 -1152 -3 -1153 -287 -3 -288 -2 0 580 0 580
-290 0 -290 0 0 -865 0 -865 865 0 865 0 0 575 0 575 290 0 290 0 0 -865 0
-865 -1155 0 -1155 0 0 -1150 0 -1150 -285 0 -285 0 0 288 c0 158 0 675 0
1150 l0 862 -290 0 -290 0 0 -1725 0 -1725 -290 0 -290 0 0 2015 0 2015 580 0
580 0 0 285 0 285 -577 2 -578 3 -3 863 -2 862 290 0 290 0 0 -575 0 -575 288
2 287 3 2 863 3 862 -580 0 -580 0 0 575 0 575 -285 0 -285 0 0 -11235z M1440
23045 l0 -285 575 0 575 0 2 -577 3 -578 285 0 285 0 3 578 2 577 865 0 865 0
0 -580 0 -580 285 0 285 0 0 580 0 580 1440 0 1440 0 0 -577 c0 -318 0 -838 0
-1155 l0 -578 290 0 290 0 0 575 0 575 288 0 c158 0 416 0 575 0 l287 -1 0
291 0 290 -575 0 -575 0 0 290 0 290 865 0 865 0 0 -865 0 -865 -575 0 -575 0
0 -1730 0 -1730 -290 0 -290 0 0 575 0 575 -290 0 -290 0 0 -575 0 -575 -865
0 -865 0 0 290 0 290 580 0 580 0 0 285 0 285 -865 0 -865 0 0 -575 0 -575
-575 0 -575 0 0 -1440 0 -1440 285 0 285 0 0 1155 0 1155 2018 -2 2017 -3 3
-577 2 -578 285 0 285 0 0 580 0 580 290 0 290 0 0 -580 0 -580 285 0 285 0 0
865 0 865 -575 0 -575 0 0 290 0 290 865 0 865 0 0 -1440 0 -1440 -287 0
c-159 0 -676 0 -1150 0 l-863 0 0 -290 0 -290 1440 0 1441 0 -1 288 c0 158 0
416 0 575 l0 287 285 0 285 0 0 -575 0 -575 290 0 290 0 0 575 0 575 285 0
285 0 0 -287 c0 -159 1 -1453 3 -2878 l2 -2590 863 -3 862 -2 0 290 0 290
-575 0 -575 0 0 865 0 865 865 0 865 0 0 -290 0 -290 -575 0 -575 0 0 -290 0
-291 288 1 c158 0 416 0 575 0 l287 0 0 -575 0 -575 285 0 285 0 0 3170 0
3170 -860 0 -860 0 0 -290 0 -290 575 0 575 0 0 -865 0 -865 -575 0 -575 0 0
-285 0 -285 575 0 575 0 0 -290 0 -290 -865 0 -865 0 0 865 0 865 575 0 575 0
0 290 0 290 -575 0 -575 0 0 575 0 575 -1150 0 -1150 0 0 290 0 290 1150 0
1150 0 0 860 0 860 -865 0 -865 0 0 -285 0 -285 578 0 577 0 0 -290 0 -290
-862 0 -863 0 0 288 c0 158 0 675 0 1150 l0 862 -290 0 -290 0 0 -575 0 -575
-865 0 -865 0 0 865 0 865 290 0 290 0 0 -575 0 -575 285 0 285 0 0 1730 0
1730 290 0 290 0 0 -1155 0 -1155 288 2 287 3 2 575 c2 316 3 835 3 1153 l0
577 860 0 860 0 0 -290 0 -290 -575 0 -575 0 2 -287 3 -288 863 -2 862 -3 0
580 0 580 290 0 290 0 0 -1445 0 -1445 -290 0 -290 0 0 580 0 580 -287 -2
-288 -3 -2 -285 c-2 -157 -3 -417 -3 -577 l0 -293 -285 0 -285 0 0 580 0 580
-290 0 -290 0 0 -865 0 -865 2015 0 2015 0 0 575 0 575 580 0 580 0 0 865 0
865 -290 0 -290 0 0 -575 0 -575 -290 0 -290 0 0 575 0 575 -285 0 -285 0 0
-1155 0 -1155 -290 0 -290 0 0 1445 0 1445 2595 0 2595 0 0 -290 0 -290 -575
0 -575 0 0 -290 0 -290 860 0 860 0 0 580 0 580 290 0 290 0 0 -865 0 -865
-575 0 -575 0 0 -580 0 -580 -290 0 -290 0 0 580 0 580 -575 0 -575 0 0 575 0
575 -290 0 -290 0 0 -865 0 -865 580 0 580 0 -2 -287 -3 -288 -577 -3 -578 -2
0 -285 0 -285 1440 0 1440 0 0 575 0 575 290 0 290 0 0 -865 0 -865 -2015 0
-2015 0 0 575 0 575 -290 0 -290 0 0 -575 0 -575 -575 0 -575 0 0 -285 0 -285
575 0 575 0 0 -290 0 -290 -865 0 -865 0 0 575 0 575 -285 0 -285 0 0 -860 0
-860 1150 0 1150 0 0 -1155 0 -1155 575 0 575 0 0 -290 0 -290 -575 0 -575 0
0 -285 0 -285 865 0 865 0 0 865 0 865 -575 0 -575 0 0 1440 0 1440 285 0 285
0 2 -1152 3 -1153 288 -3 287 -2 0 580 0 580 288 -2 287 -3 3 -577 2 -578 575
0 575 0 0 -1725 0 -1725 285 0 285 0 0 2590 0 2590 -285 0 -285 0 0 -575 0
-575 -290 0 -290 0 0 575 0 575 -575 0 -575 0 0 290 0 290 1440 0 1440 0 0
-4900 0 -4900 -575 0 -575 0 0 -285 0 -285 575 0 575 0 0 -1440 0 -1440 -575
0 -575 0 0 -580 0 -580 -290 0 -290 0 0 580 0 580 -575 0 -575 0 0 285 0 285
1150 0 1150 0 0 865 0 865 -285 0 -285 0 0 -575 0 -575 -290 0 -290 0 0 575 0
575 -575 0 -575 0 0 575 0 575 -290 0 -290 0 0 -860 0 -860 580 0 580 0 0
-290 0 -290 -865 0 -865 0 0 1150 0 1150 -2020 0 -2020 0 0 -285 0 -285 580 0
580 0 0 -290 0 -290 -865 0 -865 0 0 575 0 575 -575 0 -575 0 0 290 0 290
2880 0 2880 0 0 575 0 575 285 0 285 0 0 -575 0 -575 580 0 580 0 0 -575 0
-575 285 0 285 0 0 575 0 575 575 0 575 0 0 290 0 290 -575 -2 -575 -3 0 288
0 287 575 0 575 0 0 290 0 290 -575 0 -575 0 0 285 0 285 288 0 c158 0 416 0
575 0 l287 -1 0 291 0 290 -575 0 -575 0 0 1730 0 1730 -285 0 -285 0 0 -1155
0 -1155 -580 0 -580 0 0 -575 0 -575 -285 0 -285 0 0 575 0 575 -290 0 -290 0
2 -862 3 -863 863 -2 862 -3 0 580 0 580 290 0 290 0 0 -1440 0 -1440 -290 0
-290 0 0 575 0 575 -865 0 -865 0 0 -575 0 -575 -287 0 c-2494 -1 -4887 1
-4889 3 -3 3 -5 526 -4 1430 l0 287 285 0 285 0 0 -575 0 -575 290 0 290 0 0
1440 0 1440 -865 0 -865 0 0 -285 0 -285 575 0 575 0 0 -290 0 -290 -865 0
-865 0 0 575 0 575 -860 0 -860 0 0 -575 0 -575 -580 0 -580 0 2 -287 3 -288
863 -2 862 -3 0 580 0 580 290 0 290 0 0 -580 0 -581 288 1 c158 0 416 0 575
0 l287 0 0 -285 0 -285 -1727 -2 -1728 -3 0 -285 0 -285 578 -3 577 -2 0 -285
0 -285 -292 0 c-161 0 -421 -1 -578 -3 l-285 -2 -3 -287 -2 -288 580 0 580 0
0 -290 0 -290 -580 0 -580 0 0 -285 0 -285 580 0 580 0 0 -575 0 -575 285 0
285 0 0 1725 0 1725 290 0 290 0 0 -2015 0 -2015 -575 0 -575 0 0 -290 0 -290
1150 0 1150 0 0 -285 0 -285 -1440 0 -1440 0 0 1150 0 1150 -1155 0 -1155 0 0
290 0 290 580 0 580 0 0 2590 0 2590 -290 0 -290 0 0 -2305 0 -2305 -290 0
-290 0 0 1730 0 1730 -285 0 -285 0 0 -2305 0 -2305 -865 0 -865 0 0 1155 0
1155 -285 0 -285 0 0 -580 0 -580 -290 0 -290 0 -2 577 -3 578 -285 0 -285 0
-3 -1437 -2 -1438 290 0 290 0 0 575 0 575 290 0 290 0 0 -575 0 -575 575 0
575 0 0 -580 0 -580 285 0 285 0 0 580 0 580 865 0 865 0 0 -290 0 -290 -575
0 -575 0 0 -290 0 -290 863 2 862 3 3 577 2 578 285 0 285 0 0 -865 0 -865
-1150 0 -1150 0 0 -290 0 -290 2305 0 2305 0 0 -575 0 -575 865 0 865 0 0 285
0 285 -580 0 -580 0 0 290 0 290 580 0 580 0 -3 862 -2 863 -577 3 -578 2 0
2015 0 2015 290 0 290 0 0 -1150 0 -1150 575 0 575 0 0 -290 0 -290 -575 0
-575 0 0 -285 0 -285 575 0 575 0 2 -577 3 -578 288 -3 287 -2 0 580 0 580
1150 0 1150 0 0 575 0 575 865 0 865 0 0 -290 0 -290 -575 0 -575 0 0 -285 0
-285 575 0 575 0 0 -580 0 -580 575 0 575 0 0 -865 0 -865 -575 0 -575 0 0
-575 0 -575 -290 0 -290 0 0 865 0 865 580 0 580 0 -2 288 -3 287 -862 3 -863
2 0 -580 0 -580 -865 0 -865 0 0 290 0 290 575 0 575 0 0 575 0 575 575 0 575
0 0 290 0 290 -860 0 -860 0 0 -575 0 -575 -290 0 -290 0 0 575 0 575 -287 -2
-288 -3 -2 -285 c-2 -157 -3 -414 -3 -572 l0 -288 -572 -2 -573 -3 -3 -863 -2
-862 290 0 290 0 0 575 0 575 285 0 285 0 0 -287 c0 -159 0 -417 0 -576 l-1
-287 581 0 580 0 0 -290 0 -290 -1730 0 -1730 0 0 -285 0 -285 2015 0 2015 0
0 575 0 575 290 0 290 0 0 -575 0 -575 1440 0 1440 0 0 285 0 285 -575 0 -575
0 0 290 0 290 575 0 575 0 0 575 0 575 290 0 290 0 0 -1150 0 -1150 860 0 860
0 0 285 0 285 -575 0 -575 0 0 290 0 290 575 0 575 0 0 575 0 575 290 0 290 0
0 -1730 0 -1730 288 2 287 3 2 11233 3 11232 -10660 0 -10660 0 0 -285z"/>
</g>
</svg>
