<?xml version="1.0" standalone="no"?>
<!DOCTYPE svg PUBLIC "-//W3C//DTD SVG 20010904//EN"
 "http://www.w3.org/TR/2001/REC-SVG-20010904/DTD/svg10.dtd">
<svg version="1.0" xmlns="http://www.w3.org/2000/svg"
 width="2362.000000pt" height="2362.000000pt" viewBox="0 0 2362.000000 2362.000000"
 preserveAspectRatio="xMidYMid meet">
<metadata>
Created by potrace 1.16, written by Peter Selinger 2001-2019
</metadata>
<g transform="translate(0.000000,2362.000000) scale(0.100000,-0.100000)"
fill="#000000" stroke="none">
<path d="M290 12095 l0 -11235 10655 0 10655 0 0 290 0 290 -1725 0 -1725 0 0
290 0 290 575 0 575 0 0 285 0 285 -575 0 -575 0 0 290 0 290 865 0 865 0 0
-575 0 -575 860 0 860 0 0 285 0 285 -575 0 -575 0 0 290 0 290 575 0 575 0 0
1440 0 1440 -285 0 -285 0 0 -1155 0 -1155 -865 0 -865 0 0 865 0 865 290 0
290 0 0 -575 0 -575 285 0 285 0 0 865 0 865 -575 0 -575 0 0 1150 0 1150
-575 0 -575 0 -2 578 -3 577 -285 0 -285 0 -3 -577 -2 -578 -290 0 -290 0 0
1155 0 1155 -285 0 -285 0 0 -2015 0 -2015 285 0 285 0 0 575 0 575 865 0 865
0 0 -2020 0 -2020 -865 0 -865 0 0 865 0 865 290 0 290 0 0 -575 0 -575 290 0
290 0 0 1440 0 1440 -290 0 -290 0 0 -575 0 -575 -575 0 -575 0 0 -1440 0
-1440 575 0 575 0 0 -865 0 -865 -290 0 -290 0 0 575 0 575 -575 0 -575 0 0
2305 0 2305 -285 0 -285 0 0 -1150 0 -1150 -290 0 -290 0 0 1150 0 1150 -290
0 -291 0 1 -288 c0 -158 0 -416 0 -574 l0 -288 -1150 0 -1150 0 0 -290 0 -290
1150 0 1150 0 0 -285 c0 -157 0 -415 0 -575 0 -159 0 -420 0 -580 l0 -290
-285 0 -285 0 0 580 0 580 -287 -2 -288 -3 -3 -577 -2 -578 -285 0 -285 0 -2
578 -3 577 -577 3 -578 2 0 575 0 575 -285 0 -285 0 0 -575 0 -575 -290 0
-290 0 0 1440 0 1440 290 0 290 0 0 -575 0 -575 1440 0 1440 0 0 860 0 860
-290 0 -290 0 0 -575 0 -575 -865 0 -865 0 0 290 0 290 580 0 580 0 -3 863 -2
862 -288 3 -287 2 0 -580 0 -580 -2015 0 -2015 0 0 290 0 290 1150 0 1150 0 0
290 0 290 -2305 -3 -2305 -2 0 288 0 287 575 0 575 0 0 575 0 575 578 2 c317
2 706 2 865 0 l287 -2 0 -285 0 -285 -575 0 -575 0 0 -290 0 -290 865 0 865 0
0 575 0 575 288 0 c158 0 416 0 575 0 l287 -1 0 866 0 865 -575 0 -575 0 0
865 0 865 1150 0 1150 0 0 865 0 865 -575 0 -575 0 0 865 0 865 575 0 575 0 0
285 0 285 -1150 0 -1150 0 0 290 0 290 575 0 575 0 0 285 0 285 -865 0 -865 0
0 -860 0 -860 580 0 580 0 0 -865 0 -865 -580 0 -580 0 2 -287 3 -288 1152 -3
1153 -2 0 -285 0 -285 -577 -2 c-318 -2 -1227 -2 -2020 0 l-1443 2 0 575 0
575 -1435 0 -1435 0 0 -1440 0 -1440 285 0 285 0 0 1150 0 1150 290 0 290 0 0
-575 0 -575 285 0 285 0 0 575 0 575 290 0 290 0 0 -575 0 -575 575 0 575 0 0
-575 0 -575 290 0 290 0 0 575 0 575 285 0 285 0 0 -287 c0 -159 0 -676 0
-1150 l0 -863 580 0 580 0 0 -290 0 -290 -1445 0 -1445 0 0 290 0 290 580 0
580 0 0 285 0 285 -580 0 -580 0 0 575 0 575 -860 0 -860 0 0 -575 0 -575
-1155 0 -1155 0 0 -285 0 -285 1440 0 1440 0 0 575 0 575 290 0 290 0 0 -1440
0 -1440 -290 0 -290 0 0 575 0 575 -285 0 -285 0 0 -1152 0 -1153 -290 0 -290
0 0 1153 0 1152 -865 0 -865 0 0 -865 0 -865 290 0 290 0 0 575 0 575 290 0
290 0 0 -1440 0 -1440 -290 0 -290 0 -2 578 -3 577 -285 0 -285 0 -3 -1152 -2
-1153 -575 0 -575 0 0 -285 0 -285 865 0 865 0 0 575 0 575 1150 0 1150 0 0
285 0 285 -575 0 -575 0 0 290 0 290 865 0 865 0 0 -575 0 -575 285 0 285 0 0
575 0 575 290 0 290 0 0 -575 0 -575 575 0 575 0 0 -575 0 -575 290 0 290 0 0
575 0 575 290 0 290 0 0 -1730 0 -1730 1150 0 1150 0 0 -575 0 -575 575 0 575
0 0 -290 0 -290 -575 0 -575 0 0 -285 0 -285 1440 0 1440 0 0 285 0 285 -575
0 -575 0 0 290 0 290 575 0 575 0 0 575 0 575 290 0 290 0 0 -1150 0 -1150
575 0 575 0 0 -290 0 -290 -2595 0 -2595 0 0 1150 0 1150 -285 0 -285 0 0
-1150 0 -1150 -2595 0 -2595 0 0 290 0 290 575 0 575 0 0 575 0 575 290 0 290
0 0 -575 0 -575 1440 0 1440 0 0 860 0 860 -285 0 -285 0 0 -575 0 -575 -290
0 -290 0 0 575 0 575 -290 0 -290 0 0 -575 0 -575 -285 0 -285 0 0 575 0 575
-865 0 -865 0 0 -575 0 -575 -290 0 -290 0 0 575 0 575 -575 0 -575 0 0 865 0
865 290 0 290 0 0 -575 0 -575 285 0 285 0 0 575 0 575 1440 0 1440 0 0 -285
0 -285 -1150 0 -1150 0 0 -290 0 -290 1440 0 1440 0 0 865 0 865 -575 0 -575
0 0 575 0 575 -290 0 -290 0 0 -575 0 -575 -290 0 -290 0 0 575 0 575 -1435 0
-1435 0 0 -285 0 -285 1150 0 1150 0 0 -290 0 -290 -1730 0 -1730 0 2 -288 3
-287 578 -3 577 -2 -2 -863 -3 -862 -287 -3 -288 -2 0 580 0 580 -287 -2 -288
-3 -3 -1152 -2 -1153 -575 0 -575 0 0 -285 0 -285 865 0 865 0 0 575 0 575
290 0 290 0 0 -575 0 -575 285 0 285 0 0 575 0 575 290 0 290 0 0 -865 0 -865
-2020 0 -2020 0 0 865 0 865 580 0 580 0 0 285 0 285 -580 0 -580 0 0 865 0
865 290 0 290 0 0 -575 0 -575 290 0 290 0 0 865 0 865 -580 0 -580 0 0 865 0
865 580 0 580 0 0 285 0 285 -580 0 -580 0 0 290 0 290 580 0 580 0 -2 288 -3
287 -285 2 c-157 2 -417 3 -577 3 l-293 0 0 285 0 285 578 2 577 3 0 285 0
285 -577 3 -578 2 0 285 0 285 578 2 577 3 3 288 2 287 -580 0 -580 0 0 290 0
290 580 0 580 0 0 285 0 285 -580 0 -580 0 0 865 0 865 290 0 290 0 0 -575 0
-575 290 0 290 0 0 863 c0 474 0 991 0 1150 l0 287 285 0 285 0 0 -1150 0
-1150 290 0 290 0 0 1730 0 1730 1725 0 1725 0 0 1435 0 1435 -860 0 -860 0 0
-285 0 -285 575 0 575 0 0 -290 0 -290 -575 0 -575 0 0 -285 0 -285 575 0 575
0 0 -290 0 -290 -865 0 -865 0 0 575 0 575 -575 0 -575 0 0 575 0 575 -290 0
-290 0 0 -860 0 -860 580 0 580 0 0 -290 0 -290 -580 0 -580 0 0 -575 0 -575
-285 0 -285 0 0 288 c0 158 0 416 0 575 l1 287 -291 0 -290 0 0 -1150 0 -1150
-290 0 -290 0 0 1440 0 1440 580 0 580 0 0 285 0 285 -580 0 -580 0 0 290 0
290 580 0 580 0 -3 863 -2 862 -287 3 -288 2 0 -580 0 -580 -287 2 -288 3 -3
862 -2 863 577 2 578 3 3 288 2 287 -580 0 -580 0 0 575 0 575 -285 0 -285 0
0 -11235z M1440 23045 l0 -285 575 0 575 0 0 -1155 0 -1155 580 0 580 0 0
-575 0 -575 285 0 285 0 0 575 0 575 1440 0 1440 0 0 -2305 0 -2305 288 2 287
3 3 578 2 577 575 0 575 0 0 285 0 285 -575 0 -575 0 -2 1728 -3 1727 -1152 3
-1153 2 0 575 0 575 -285 0 -285 0 0 -575 0 -575 -290 0 -290 0 0 575 0 575
-285 0 -285 0 0 -575 0 -575 -290 0 -290 0 0 865 0 865 1440 0 1440 0 0 -580
0 -580 285 0 285 0 0 580 0 580 290 0 290 0 2 -577 3 -578 285 0 285 0 3 578
2 577 865 0 865 0 0 -865 0 -865 -290 0 -290 0 0 575 0 575 -290 0 -290 0 0
-865 0 -865 865 0 865 0 0 1155 0 1155 2595 0 2595 0 0 -580 0 -581 288 1
c158 0 416 0 575 0 l287 0 0 -285 0 -285 -1152 -2 -1153 -3 0 -285 0 -285 578
-3 577 -2 0 -290 0 -290 -580 0 -580 0 0 -285 0 -285 580 0 580 0 0 -290 0
-290 -580 0 -580 0 2 -575 3 -575 -287 0 -288 0 0 1150 0 1150 -575 0 -575 0
0 290 0 290 575 0 575 0 0 575 0 575 288 0 c158 0 416 0 575 0 l287 -1 0 291
0 290 -865 0 -865 0 0 -575 0 -575 -285 0 -285 0 0 288 c0 158 0 416 0 575 l1
287 -866 0 -865 0 0 -1440 0 -1440 285 0 285 0 0 1150 0 1150 290 0 290 0 0
-1150 0 -1150 575 0 575 0 0 -865 0 -865 -285 0 -285 0 0 288 c0 158 0 416 0
575 l1 287 -291 0 -290 0 0 -575 0 -575 -575 0 -575 0 0 -285 0 -285 575 0
575 0 0 -580 0 -580 865 0 865 0 0 290 0 290 -575 0 -575 0 0 290 0 290 2300
0 2300 0 0 285 0 285 -1150 0 -1150 0 0 290 0 290 1440 0 1440 0 0 -865 0
-865 -1150 0 -1150 0 0 -1440 0 -1440 575 0 575 0 0 -865 0 -865 -290 0 -290
0 0 575 0 575 -1440 0 -1440 0 0 -575 0 -575 -285 0 -285 0 0 285 c0 157 0
418 0 580 0 162 0 423 0 580 l0 285 1150 0 1150 0 0 285 0 285 -575 0 -575 0
0 290 0 290 575 0 575 0 0 865 0 865 -287 -2 -288 -3 -2 -285 c-2 -157 -3
-414 -3 -572 l0 -288 -572 -2 -573 -3 -3 -577 -2 -578 -285 0 -285 0 -2 578
-3 577 -287 3 -288 2 0 -1730 0 -1730 -290 0 -290 0 0 1150 0 1150 -860 0
-860 0 0 -285 0 -285 575 0 575 0 0 -1155 0 -1155 863 0 c474 0 991 0 1150 0
l287 0 0 -285 0 -285 -1725 0 -1725 0 0 -290 0 -290 575 0 575 0 0 -575 0
-575 285 0 285 0 0 575 0 575 1155 0 1155 0 0 1155 0 1155 285 0 285 0 2 -577
3 -578 288 -3 287 -2 0 580 0 580 290 0 290 0 0 -865 0 -865 -577 -2 -578 -3
0 -285 0 -285 578 -3 577 -2 0 -865 0 -865 -290 0 -290 0 0 580 0 580 -862 -3
-863 -2 -3 -287 -2 -288 577 0 578 0 -3 -575 -2 -575 865 0 865 0 0 1725 0
1725 575 0 575 0 0 580 0 580 290 0 290 0 2 -577 3 -578 285 -2 c157 -2 414
-3 573 -3 l287 0 0 -285 0 -285 -575 0 -575 0 0 -290 0 -290 1440 0 1440 0 0
290 0 290 -575 0 -575 0 0 285 0 285 288 0 c158 0 416 0 575 0 l287 -1 0 291
0 290 -1150 0 -1150 0 0 290 0 290 575 0 575 0 0 575 0 575 290 0 290 0 0
-575 0 -575 285 0 285 0 0 575 0 575 575 0 575 0 0 865 0 865 -285 0 -285 0 0
-580 0 -580 -865 0 -865 0 0 580 0 580 -287 -2 -288 -3 -3 -1152 -2 -1153
-865 0 -865 0 0 290 0 290 580 0 580 0 0 285 0 285 -1155 0 -1155 0 0 290 0
290 1155 0 1155 0 -2 288 -3 287 -575 2 c-316 2 -835 3 -1152 3 l-578 0 0 285
0 285 1153 2 1152 3 3 578 2 577 285 0 285 0 2 -577 3 -578 288 -3 287 -2 0
865 0 865 -575 0 -575 0 0 865 0 865 575 0 575 0 0 285 0 285 -575 0 -575 0
-2 578 -3 577 -287 3 -288 2 0 -1155 0 -1155 -865 0 -865 0 0 865 0 865 290 0
290 0 0 -575 0 -575 285 0 285 0 0 1440 0 1440 -575 0 -575 0 0 290 0 290 865
0 865 0 0 -580 0 -580 288 2 287 3 3 578 2 577 285 0 285 0 2 -577 3 -578 288
-3 287 -2 0 580 0 580 1440 0 1440 0 0 -865 0 -865 -290 0 -290 0 0 575 0 575
-860 0 -860 0 0 -290 0 -290 575 0 575 0 0 -285 0 -285 -1152 -2 -1153 -3 -3
-287 -2 -288 580 0 580 0 0 -865 0 -865 -580 0 -580 0 0 -285 0 -285 865 0
865 0 0 1150 0 1150 290 0 290 0 0 -1150 0 -1150 285 0 285 0 0 1150 0 1150
290 0 290 0 0 -1440 0 -1440 -575 0 -575 0 0 -575 0 -575 -290 0 -290 0 0 575
0 575 -285 0 -285 0 0 -1440 0 -1440 285 0 285 0 0 575 0 575 575 0 575 0 0
580 0 580 290 0 290 0 0 -2020 0 -2020 -575 0 -575 0 0 -285 0 -285 575 0 575
0 0 -290 0 -290 -575 0 -575 0 0 -290 0 -291 288 1 c158 0 416 0 575 0 l287 0
0 -285 0 -285 -575 0 -575 0 0 -577 0 -578 -1152 0 -1153 0 -3 -287 -2 -288
1155 0 1155 0 0 -290 0 -290 -575 0 -575 0 0 -860 0 -860 285 0 285 0 0 575 0
575 290 0 290 0 0 -575 0 -575 285 0 285 0 0 1725 0 1725 290 0 290 0 0 -4610
0 -4610 288 2 287 3 2 11233 3 11232 -10660 0 -10660 0 0 -285z"/>
</g>
</svg>
