<?xml version="1.0" standalone="no"?>
<!DOCTYPE svg PUBLIC "-//W3C//DTD SVG 20010904//EN"
 "http://www.w3.org/TR/2001/REC-SVG-20010904/DTD/svg10.dtd">
<svg version="1.0" xmlns="http://www.w3.org/2000/svg"
 width="2362.000000pt" height="2362.000000pt" viewBox="0 0 2362.000000 2362.000000"
 preserveAspectRatio="xMidYMid meet">
<metadata>
Created by potrace 1.16, written by Peter Selinger 2001-2019
</metadata>
<g transform="translate(0.000000,2362.000000) scale(0.100000,-0.100000)"
fill="#000000" stroke="none">
<path d="M290 12095 l0 -11235 10655 0 10655 0 0 290 0 290 -575 0 -575 0 0
575 0 575 -285 0 -285 0 0 -575 0 -575 -290 0 -290 0 0 865 0 865 575 0 575 0
0 865 0 865 -285 0 -285 0 0 -580 0 -580 -580 0 -580 0 0 -575 0 -575 -575 0
-575 0 0 -285 0 -285 575 0 575 0 0 -290 0 -290 -865 0 -865 0 0 865 0 865
580 0 580 0 0 575 0 575 575 0 575 0 0 290 0 290 -865 0 -865 0 0 -580 0 -580
-290 0 -290 0 2 1443 3 1442 288 3 287 2 0 -580 0 -580 288 2 287 3 3 578 2
577 285 0 285 0 2 -577 3 -578 288 -3 287 -2 0 865 0 865 -1440 0 -1440 0 0
-2305 0 -2305 -865 0 -865 0 0 290 0 290 575 0 575 0 0 285 0 285 -865 0 -865
0 0 -860 0 -860 1155 0 1155 0 0 -290 0 -290 -1440 0 -1440 0 0 575 0 575
-575 0 -575 0 0 290 0 290 575 0 575 0 0 575 0 575 1150 0 1150 0 0 865 0 865
-862 -2 -863 -3 0 -285 0 -285 578 -3 577 -2 0 -285 0 -285 -1152 -2 -1153 -3
-3 -577 -2 -578 -575 0 -575 0 0 -575 0 -575 -575 0 -575 0 0 -285 0 -285
1150 0 1150 0 0 -290 0 -290 -1440 0 -1440 0 0 865 0 865 575 0 575 0 0 575 0
575 580 0 580 0 -2 288 -3 287 -577 3 -578 2 0 285 0 285 1155 0 1155 0 0 290
0 290 -575 0 -575 0 0 288 c0 158 0 416 0 574 l1 288 -581 0 -580 0 0 290 0
290 1155 0 1155 0 0 575 0 575 288 0 287 0 0 -865 0 -865 -577 0 -578 0 0
-285 0 -285 1440 0 1440 0 0 575 0 575 1730 0 1730 0 0 285 0 285 -1155 0
-1155 0 0 1155 0 1155 -285 0 -285 0 0 -1155 0 -1155 -575 0 -575 0 0 -575 0
-575 -290 0 -290 0 0 865 0 865 575 0 575 0 0 865 0 865 -285 0 -285 0 0 -575
0 -575 -287 0 c-159 0 -677 -1 -1153 -3 l-865 -2 -3 -577 -2 -578 -285 0 -285
0 -2 578 -3 577 -577 3 -578 2 0 575 0 575 -285 0 -285 0 0 -865 0 -865 575 0
575 0 0 -290 0 -290 -865 0 -865 0 0 1155 0 1155 -575 0 -575 0 0 285 0 285
288 0 c158 0 675 0 1150 0 l862 0 0 290 0 290 -575 0 -575 0 0 290 0 290 865
0 865 0 0 -1155 0 -1155 1440 0 1440 0 0 290 0 290 -1150 0 -1150 0 0 285 0
285 288 0 c158 0 675 0 1150 0 l862 0 0 290 0 290 -575 0 -575 0 0 290 0 290
865 0 865 0 0 -580 0 -580 285 0 285 0 0 865 0 865 -1150 0 -1150 0 0 290 0
290 575 0 575 0 0 285 0 285 -865 0 -865 0 0 -1150 0 -1150 -285 0 -285 0 0
288 c0 158 -1 935 -3 1727 l-2 1440 -862 2 -863 3 0 -290 0 -290 575 0 575 0
0 -865 0 -865 -1150 0 -1150 0 0 -575 0 -575 -290 0 -290 0 0 1150 0 1150
-2590 0 -2590 0 0 -285 0 -285 1150 0 1150 0 0 -290 0 -290 -575 0 -575 0 0
-285 0 -285 860 0 860 0 0 575 0 575 865 0 865 0 0 -290 0 -290 -575 0 -575 0
0 -285 0 -285 575 0 575 0 0 -577 c0 -1672 -1 -2297 -3 -2300 -3 -2 -539 -4
-1434 -3 l-293 0 0 285 0 285 580 0 580 0 0 865 0 865 -290 0 -290 0 0 -575 0
-575 -575 0 -575 0 0 -577 0 -578 -290 0 -290 0 0 578 0 577 -285 0 -285 0 0
-577 0 -578 -575 3 -575 2 0 -290 0 -290 575 0 575 0 0 -575 0 -575 1150 0
1150 0 0 -290 0 -290 -575 0 -575 0 0 -285 0 -285 865 0 865 0 0 860 0 860
-1155 0 -1155 0 0 290 0 290 1730 0 1730 0 0 575 0 575 290 0 290 0 0 -865 0
-865 -580 0 -580 0 0 -285 0 -285 580 0 580 0 0 -575 0 -575 285 0 285 0 0
575 0 575 290 0 290 0 0 -575 0 -575 575 0 575 0 0 -290 0 -290 -575 0 -575 0
0 -575 0 -575 -290 0 -290 0 0 575 0 575 -285 0 -285 0 0 -865 0 -865 575 0
575 0 0 -290 0 -290 -575 0 -575 0 0 -1150 0 -1150 -865 0 -865 0 0 290 0 290
575 0 575 0 0 285 0 285 -865 0 -865 0 0 -575 0 -575 -290 0 -290 0 0 575 0
575 -285 0 -285 0 0 -575 0 -575 -2595 0 -2595 0 0 865 0 865 290 0 290 0 0
-575 0 -575 865 0 865 0 0 285 0 285 -575 0 -575 0 0 290 0 290 865 0 865 0 0
-575 0 -575 285 0 285 0 0 1150 0 1150 865 0 865 0 0 -290 0 -290 -575 0 -575
0 0 -860 0 -860 285 0 285 0 0 575 0 575 575 0 575 0 0 575 0 575 290 0 290 0
0 -575 0 -575 290 0 290 0 0 575 0 575 285 0 285 0 0 -287 c0 -159 0 -417 0
-576 l-1 -287 291 0 290 0 0 865 0 865 -575 0 -575 0 0 285 0 285 575 0 575 0
0 865 0 865 -290 0 -291 0 1 -288 c0 -158 0 -416 0 -574 l0 -288 -575 0 -575
0 0 -575 0 -575 -865 0 -865 0 0 285 0 285 575 0 575 0 0 290 0 290 -1435 0
-1435 0 0 -290 0 -290 575 0 575 0 0 -285 0 -285 -575 0 -575 0 -2 -577 -3
-578 -862 -3 -863 -2 0 290 0 290 575 0 575 0 0 1155 0 1155 1150 0 1150 0 0
285 0 285 -2015 0 -2015 0 0 -285 0 -285 575 0 575 0 0 -865 0 -865 -285 0
-285 0 0 288 c0 158 0 416 0 574 l1 288 -291 0 -290 0 0 -1155 0 -1155 -290 0
-290 0 0 2020 0 2020 580 0 580 0 -3 863 -2 862 -285 0 -285 0 -3 -577 -2
-578 -290 0 -290 0 0 865 0 865 865 0 865 0 0 -1150 0 -1150 865 0 865 0 0
285 0 285 -575 0 -575 0 0 865 0 865 575 0 575 0 0 290 0 290 -1150 0 -1150 0
0 288 c0 158 0 416 0 575 l1 287 -291 0 -290 0 0 -575 0 -575 -290 0 -290 0 0
1440 0 1440 580 0 580 0 0 285 0 285 -580 0 -580 0 0 2595 0 2595 865 0 865 0
0 -575 0 -575 290 0 290 0 0 575 0 575 865 0 865 0 0 -575 0 -575 285 0 285 0
0 860 0 860 -575 0 -575 0 0 865 0 865 288 0 c158 0 416 0 575 0 l287 -1 0
291 0 290 -1440 0 -1440 0 2 -287 3 -288 578 -3 577 -2 -2 -863 -3 -862 -1440
0 -1440 0 -3 1728 -2 1727 -285 0 -285 0 0 -11235z M1440 21890 l0 -1440 865
0 865 0 0 290 0 290 -575 0 -575 0 -2 288 c-2 158 -2 547 0 865 l2 577 2015 0
2015 0 0 -865 0 -865 -575 0 -575 0 0 -290 0 -290 1150 0 1150 0 0 -575 0
-575 865 0 865 0 0 285 0 285 -575 0 -575 0 -2 578 -3 577 -577 3 -578 2 0
865 0 865 865 0 865 0 0 -290 0 -290 -575 0 -575 0 2 -287 3 -288 285 -2 c157
-2 414 -3 573 -3 l287 0 0 -575 0 -575 580 0 580 0 0 -575 0 -575 285 0 285 0
0 1440 0 1440 -285 0 -285 0 0 -575 0 -575 -290 0 -290 0 0 865 0 865 865 0
865 0 0 -2020 0 -2020 -1730 0 -1730 0 0 -860 0 -860 865 0 865 0 0 285 0 285
-575 0 -575 0 0 290 0 290 1440 0 1440 0 0 -290 0 -290 -575 0 -575 0 0 -285
0 -285 1150 0 1150 0 0 -290 0 -290 -1150 0 -1150 0 0 -575 0 -575 -290 0
-290 0 0 575 0 575 -290 0 -290 0 0 -575 0 -575 -285 0 -285 0 0 575 0 575
-580 0 -580 0 0 1725 0 1725 -285 0 -285 0 0 -1150 0 -1150 -865 0 -865 0 0
575 0 575 -285 0 -285 0 0 -575 0 -575 -865 0 -865 0 0 288 c0 158 0 416 0
575 l1 287 -291 0 -290 0 0 -860 0 -860 1153 -2 1152 -3 3 -287 2 -288 -1155
0 -1155 0 0 -290 0 -290 575 0 575 0 0 -285 0 -285 -287 0 c-159 0 -417 0
-575 0 l-288 1 0 -291 0 -290 575 0 575 0 0 -865 0 -865 -575 0 -575 0 0 -285
0 -285 575 0 575 0 2 -577 3 -578 2013 -2 2012 -3 0 290 0 290 -1150 0 -1150
0 0 575 0 575 -285 0 -285 0 0 -575 0 -575 -290 0 -290 0 0 1440 0 1440 575 0
575 0 0 290 0 291 -287 -1 c-159 0 -417 0 -575 0 l-288 0 0 285 0 285 575 0
575 0 0 580 0 580 865 0 865 0 0 -290 0 -290 -575 0 -575 0 0 -290 0 -290
1150 0 1150 0 0 -285 0 -285 -287 0 c-159 0 -676 0 -1150 0 l-863 0 0 -290 0
-290 2305 0 2305 0 0 -575 0 -575 860 0 860 0 0 285 0 285 -575 0 -575 0 0
865 0 865 1153 2 1152 3 2 863 3 862 -580 0 -580 0 0 2595 0 2595 290 0 290 0
0 -580 0 -580 288 2 287 3 3 578 2 577 285 0 285 0 0 -865 0 -865 -575 0 -575
0 0 -290 0 -290 575 0 575 0 0 -290 0 -290 -575 0 -575 0 0 -860 0 -860 575 0
575 0 0 -1155 0 -1155 290 0 290 0 0 580 0 580 285 0 285 0 0 -290 c0 -369 0
-792 0 -1155 l0 -285 -572 -2 -573 -3 -3 -287 -2 -288 865 0 865 0 0 1440 0
1440 -575 0 -575 0 0 575 0 575 -575 0 -575 0 0 290 0 290 575 0 575 0 0 1730
0 1730 285 0 285 0 0 -292 c0 -161 1 -680 3 -1153 l2 -860 1153 -3 1152 -2 0
-865 0 -865 -290 0 -290 0 0 575 0 575 -865 0 -865 0 0 -860 0 -860 290 0 290
0 0 575 0 575 290 0 290 0 0 -575 0 -575 1440 0 1440 0 0 575 0 575 575 0 575
0 0 285 0 285 -865 0 -865 0 0 -575 0 -575 -290 0 -290 0 0 865 0 865 1155 0
1155 0 0 290 0 290 -1730 0 -1730 0 0 575 0 575 -285 0 -285 0 0 -575 0 -575
-290 0 -290 0 0 865 0 865 865 0 865 0 0 -580 0 -580 863 3 862 2 3 288 2 287
-580 0 -580 0 0 290 0 290 2595 0 2595 0 0 -290 0 -290 -575 0 -575 0 0 -290
0 -291 288 1 c158 0 416 0 575 0 l287 0 0 -285 0 -285 -575 0 -575 0 0 -290 0
-290 575 0 575 0 0 -290 0 -290 -575 0 -575 0 0 -285 0 -285 575 0 575 0 0
-290 0 -290 -865 0 -865 0 0 1730 0 1730 -865 0 -865 0 2 -287 3 -288 578 -3
577 -2 0 -1440 0 -1440 -580 0 -580 0 0 -285 0 -285 1155 0 1155 0 0 -290 0
-290 -575 0 -575 0 0 -285 0 -285 575 0 575 0 0 -290 0 -290 -865 0 -865 0 0
575 0 575 -2015 0 -2015 0 0 -285 0 -285 575 0 575 0 0 -290 0 -290 -575 0
-575 0 0 -1440 0 -1440 575 0 575 0 0 -575 0 -575 865 0 865 0 0 285 0 285
-580 0 -580 0 0 290 0 290 580 0 580 0 0 285 0 285 -580 0 -580 0 0 580 0 580
-285 0 -285 0 0 -580 0 -580 -290 0 -290 0 0 865 0 865 575 0 575 0 2 578 3
577 288 3 287 2 0 -580 0 -580 288 2 287 3 3 578 2 577 285 0 285 0 2 -577 3
-578 578 -3 577 -2 0 -285 0 -285 -1155 0 -1155 0 0 -290 0 -290 575 0 575 0
0 -1150 0 -1150 290 0 290 0 0 1150 0 1150 290 0 290 0 0 -575 0 -575 285 0
285 0 0 1150 0 1150 575 0 575 0 0 1155 0 1155 290 0 290 0 0 -1440 0 -1440
-287 0 c-159 0 -417 0 -575 0 l-288 1 0 -291 0 -290 575 0 575 0 0 -865 0
-865 -290 0 -290 0 0 575 0 575 -285 0 -285 0 0 -575 0 -575 -575 0 -575 0 0
-575 0 -575 -1730 0 -1730 0 0 -290 0 -291 288 1 c158 0 416 0 575 0 l287 0 0
-1150 0 -1150 290 0 290 0 0 575 0 575 285 0 285 0 0 -575 0 -575 580 0 580 0
0 -575 0 -575 285 0 285 0 0 575 0 575 575 0 575 0 0 290 0 290 -862 0 c-475
0 -992 0 -1150 0 l-288 0 0 575 0 575 -575 0 -575 0 0 285 0 285 288 0 c158 0
675 0 1150 0 l862 0 0 580 0 580 865 0 865 0 0 -865 0 -865 -290 0 -290 0 0
575 0 575 -285 0 -285 0 0 -575 0 -575 -575 0 -575 0 0 -290 0 -290 1150 0
1150 0 0 -865 0 -865 -575 0 -575 0 0 -285 0 -285 575 0 575 0 0 -290 0 -290
-1150 0 -1150 0 0 -865 0 -865 860 0 860 0 0 290 0 290 -575 0 -575 0 0 290 0
290 865 0 865 0 0 -865 0 -865 -575 0 -575 0 0 -290 0 -290 575 0 575 0 0
-290 0 -290 -575 0 -575 0 0 -860 0 -860 285 0 285 0 0 575 0 575 290 0 290 0
0 -1155 0 -1155 288 2 287 3 2 11233 3 11232 -10660 0 -10660 0 0 -1440z"/>
</g>
</svg>
