<?xml version="1.0" standalone="no"?>
<!DOCTYPE svg PUBLIC "-//W3C//DTD SVG 20010904//EN"
 "http://www.w3.org/TR/2001/REC-SVG-20010904/DTD/svg10.dtd">
<svg version="1.0" xmlns="http://www.w3.org/2000/svg"
 width="2362.000000pt" height="2362.000000pt" viewBox="0 0 2362.000000 2362.000000"
 preserveAspectRatio="xMidYMid meet">
<metadata>
Created by potrace 1.16, written by Peter Selinger 2001-2019
</metadata>
<g transform="translate(0.000000,2362.000000) scale(0.100000,-0.100000)"
fill="#000000" stroke="none">
<path d="M290 12095 l0 -11235 10655 0 10655 0 0 290 0 290 -1725 0 -1725 0 0
575 0 575 -290 0 -290 0 0 -575 0 -575 -865 0 -865 0 0 290 0 290 575 0 575 0
0 285 0 285 -860 0 -860 0 0 -575 0 -575 -290 0 -290 0 0 575 0 575 -865 0
-865 0 0 -285 0 -285 575 0 574 0 3 -290 3 -290 -862 0 -863 0 0 288 c0 158 0
416 0 574 l1 288 -866 0 -865 0 0 -285 0 -285 575 0 575 0 0 -290 0 -290
-2015 0 -2015 0 0 575 0 575 -290 0 -290 0 0 -575 0 -575 -865 0 -865 0 0 290
0 290 575 0 575 0 0 285 0 285 -575 0 -575 0 0 575 0 575 -285 0 -285 0 0
-1150 0 -1150 -290 0 -290 0 0 1150 0 1150 -575 0 -575 0 0 290 0 290 575 0
575 0 0 290 0 290 -575 0 -575 0 0 865 0 865 288 -2 287 -3 3 -577 2 -578 860
0 860 0 0 290 0 290 -575 0 -575 0 0 575 0 575 -575 0 -575 0 0 290 0 290 865
0 865 0 0 -575 0 -575 285 0 285 0 0 575 0 575 290 0 290 0 0 -1155 0 -1155
285 0 285 0 0 2305 0 2305 290 0 290 0 0 -1150 0 -1150 575 0 575 0 0 -290 0
-290 -575 0 -575 0 0 -285 0 -285 575 0 575 0 0 -865 0 -865 -285 0 -285 0 0
575 0 575 -290 0 -290 0 0 -1155 0 -1155 -287 2 -288 3 -3 578 -2 577 -860 0
-860 0 0 -290 0 -290 575 0 575 0 0 -575 0 -575 1150 0 1150 0 0 -575 0 -575
865 0 865 0 0 285 0 285 -575 0 -575 0 0 290 0 290 1150 0 1150 0 0 285 0 285
-1725 0 -1725 0 0 290 0 290 1725 0 1725 0 0 575 0 575 290 0 290 0 0 -1150 0
-1150 865 0 865 0 0 285 0 285 -575 0 -575 0 0 290 0 290 1725 0 1725 0 0 575
0 575 290 0 290 0 0 -865 0 -865 -1155 0 -1155 0 0 -285 0 -285 1440 0 1440 0
0 575 0 575 290 0 290 0 0 -575 0 -575 575 0 575 0 0 -575 0 -575 865 0 865 0
0 285 0 285 -575 0 -575 0 0 575 0 575 -575 0 -575 0 0 290 0 290 575 0 575 0
0 1155 0 1155 865 0 865 0 0 -865 0 -865 -290 0 -290 0 0 575 0 575 -285 0
-285 0 0 -1440 0 -1440 575 0 575 0 0 -575 0 -575 285 0 285 0 0 860 0 860
-575 0 -575 0 0 290 0 290 575 0 575 0 0 2015 0 2015 -285 0 -285 0 0 -575 0
-575 -1440 0 -1440 0 0 290 0 290 1150 0 1150 0 0 285 0 285 -575 0 -575 0 -2
577 -3 578 -285 2 c-157 2 -414 3 -572 3 l-288 0 0 285 0 285 575 0 575 0 0
575 0 575 290 0 290 0 0 -1150 0 -1150 860 0 860 0 0 290 0 290 -575 -2 -575
-3 0 1153 0 1152 -1150 0 -1150 0 0 865 0 865 285 0 285 0 0 -575 0 -575 865
0 865 0 0 860 0 860 -285 0 -285 0 0 -575 0 -575 -290 0 -290 0 0 575 0 575
-575 0 -575 0 -2 578 -3 577 -288 3 -287 2 0 -1730 0 -1730 -575 0 -575 0 0
-290 0 -290 863 0 c474 0 991 0 1150 0 l287 0 0 -285 0 -285 -575 0 -575 0 0
-575 0 -575 -290 0 -290 0 0 575 0 575 -575 0 -575 0 0 575 0 575 -865 0 -865
0 2 -287 3 -288 578 -3 577 -2 0 -575 0 -575 575 0 575 0 0 -575 0 -575 1150
0 1150 0 0 -290 0 -290 -575 0 -575 0 0 -860 0 -860 575 0 575 0 0 -865 0
-865 -865 0 -865 0 0 285 0 285 578 2 577 3 3 288 2 287 -1440 0 -1440 0 0
-575 0 -575 -1440 0 -1440 0 0 285 0 285 1150 0 1150 0 0 580 0 580 1150 0
1150 0 0 860 0 860 -285 0 -285 0 0 -575 0 -575 -290 0 -290 0 0 1155 0 1155
-285 0 -285 0 0 -580 0 -580 -580 0 -580 0 0 -285 0 -285 580 0 580 0 0 -290
0 -290 -580 0 -581 0 1 -288 c0 -158 0 -416 0 -574 l0 -288 -285 0 -285 0 0
1150 0 1150 -290 0 -290 0 0 -1150 0 -1150 -285 0 -285 0 0 288 c0 158 0 416
0 574 l1 288 -291 0 -290 0 0 -575 0 -575 -865 0 -865 0 0 290 0 290 575 0
575 0 0 860 0 860 -285 0 -285 0 0 -575 0 -575 -290 0 -290 0 0 1155 0 1155
-285 0 -285 0 0 -2020 0 -2020 575 0 575 0 0 -285 0 -285 -865 0 -865 0 -2
2303 -3 2302 -285 0 -285 0 -3 -577 -2 -578 -285 0 -285 0 0 1155 0 1155 -865
0 -865 0 0 -577 0 -578 -575 3 -575 2 0 -290 0 -290 575 0 575 0 0 -290 0
-290 -865 0 -865 0 0 865 0 865 575 0 575 0 0 290 0 290 -575 0 -575 0 0 285
0 285 288 0 c158 0 935 1 1727 3 l1440 2 3 578 2 577 285 0 285 0 2 -577 3
-578 288 -3 287 -2 0 580 0 580 290 0 290 0 0 -865 0 -865 -577 -2 -578 -3 0
-285 0 -285 863 -3 862 -2 0 575 0 575 290 0 290 0 0 -1150 0 -1150 575 0 575
0 0 -575 0 -575 290 0 291 0 -1 288 c0 158 0 416 0 575 l0 287 1150 0 1150 0
0 290 0 290 -862 0 c-475 0 -992 0 -1150 0 l-288 0 0 285 0 285 1150 0 1150 0
0 290 0 290 -1150 0 -1150 0 0 288 c0 158 0 416 0 574 l1 288 -291 0 -290 0 0
-1150 0 -1150 -290 0 -290 0 0 1150 0 1150 -575 0 -575 0 0 290 0 290 1155 0
1155 0 0 1438 c0 790 0 1566 0 1725 l0 287 575 0 575 0 0 290 0 290 -575 0
-575 0 0 290 0 290 575 0 575 0 0 860 0 860 -290 0 -290 0 0 -575 0 -575 -285
0 -285 0 0 285 c0 157 0 418 0 580 0 162 0 423 0 580 l0 285 575 0 575 0 0
575 0 575 285 0 285 0 0 -287 c0 -159 0 -417 0 -575 l-1 -288 291 0 290 0 0
575 0 575 575 0 575 0 0 575 0 575 575 0 575 0 0 290 0 290 -860 0 -860 0 0
-575 0 -575 -865 0 -865 0 0 575 0 575 -290 0 -290 0 0 -575 0 -575 -865 0
-865 0 0 575 0 575 -285 0 -285 0 0 -1440 0 -1440 285 0 285 0 0 575 0 575
865 0 865 0 0 -290 0 -290 -575 0 -575 0 0 -575 0 -575 -575 0 -575 0 0 -285
0 -285 575 0 575 0 0 -865 0 -865 -290 0 -290 0 0 575 0 575 -285 0 -285 0 0
-865 0 -865 575 0 575 0 0 -285 0 -285 -287 0 c-159 0 -417 0 -575 0 l-288 1
0 -866 0 -865 285 0 285 0 0 575 0 575 290 0 290 0 0 -865 0 -865 -865 0 -865
0 0 575 0 575 -575 0 -575 0 0 580 0 580 -287 -2 -288 -3 -2 -862 -3 -863 580
0 580 0 0 -290 0 -290 -865 0 -865 0 -2 1153 -3 1152 -287 3 -288 2 0 -580 0
-580 -1440 0 -1440 0 0 580 0 580 -285 0 -285 0 0 -865 0 -865 575 0 575 0 0
-575 0 -575 285 0 285 0 0 575 0 575 290 0 290 0 0 -575 0 -575 285 0 285 0 0
575 0 575 290 0 290 0 0 -865 0 -865 -1725 0 -1725 0 0 -1730 0 -1730 -290 0
-290 0 -2 578 -3 577 -285 0 -285 0 -3 -1728 -2 -1727 -575 0 -575 0 0 -290 0
-290 575 0 575 0 0 -285 0 -285 -575 0 -575 0 0 -290 0 -290 575 0 575 0 0
-290 0 -290 -575 0 -575 0 0 -285 0 -285 1155 0 1155 0 0 -290 0 -290 -1155 0
-1155 0 0 -285 0 -285 1155 0 1155 0 0 -290 0 -290 -1445 0 -1445 0 0 2595 0
2595 580 0 580 0 0 285 0 285 -580 0 -580 0 0 290 0 290 580 0 580 0 -3 863
-2 862 -285 0 -285 0 -3 -577 -2 -578 -290 0 -290 0 0 3170 0 3170 290 0 290
0 0 -2305 0 -2305 865 0 865 0 0 290 0 290 -575 0 -575 0 -2 288 c-2 158 -2
547 0 865 l2 577 285 0 285 0 2 -577 3 -578 285 0 285 0 3 578 2 577 575 0
575 0 0 285 0 285 -1150 0 -1150 0 0 290 0 290 575 0 575 0 0 1730 0 1730 288
-2 287 -3 3 -577 2 -578 285 0 285 0 0 2305 0 2305 865 0 865 0 0 -290 0 -290
-575 0 -575 0 0 -1435 0 -1435 285 0 285 0 0 1150 0 1150 290 0 290 0 0 -2015
0 -2015 -290 0 -290 0 0 575 0 575 -285 0 -285 0 0 -865 0 -865 860 0 860 0 2
1153 3 1152 288 3 287 2 0 -580 0 -580 1155 0 1155 0 0 -575 0 -575 285 0 285
0 0 865 0 865 -1150 0 -1150 0 0 865 0 865 285 0 285 0 0 -575 0 -575 865 0
865 0 0 285 0 285 -575 0 -575 0 0 2305 0 2305 -290 0 -290 0 0 -1152 c0 -634
0 -1413 0 -1730 l0 -578 -285 0 -285 0 -2 1153 -3 1152 -287 3 -288 2 0 -1730
0 -1730 -290 0 -290 0 0 2305 0 2305 -285 0 -285 0 0 -575 0 -575 -865 0 -865
0 0 575 0 575 -1440 0 -1440 0 0 -865 0 -865 288 2 287 3 2 569 c2 313 4 571
6 572 3 4 287 5 1150 4 l577 0 0 -285 0 -285 -580 0 -580 0 0 -290 0 -290 580
0 580 0 0 -865 0 -865 -290 0 -290 0 0 575 0 575 -290 0 -290 0 0 -575 0 -575
-285 0 -285 0 0 575 0 575 -290 0 -290 0 0 -860 0 -860 1155 0 1155 0 0 -290
0 -290 -580 0 -580 0 0 -575 0 -575 -575 0 -575 0 0 -290 0 -290 575 0 575 0
0 -865 0 -865 -285 0 -285 0 -2 578 -3 577 -577 3 -578 2 0 865 0 865 580 0
580 0 0 285 0 285 -580 0 -580 0 0 2880 0 2880 -285 0 -285 0 0 -11235z M1440
23045 l0 -285 1730 0 1730 0 0 -580 0 -580 285 0 285 0 0 580 0 580 865 0 865
0 2 -577 3 -578 285 0 285 0 3 578 2 577 865 0 865 0 0 -2305 0 -2305 285 0
285 0 0 2305 0 2305 865 0 865 0 0 -580 0 -580 288 2 287 3 3 578 2 577 860 0
860 0 0 -292 c0 -161 1 -421 3 -578 l2 -285 288 -3 287 -2 0 580 0 580 2015 0
2015 0 0 -1445 0 -1445 -285 0 -285 0 0 1155 0 1155 -290 0 -290 0 0 -575 0
-575 -575 0 -575 0 0 -290 0 -290 575 0 575 0 0 -290 0 -290 -1150 0 -1150 0
0 -860 0 -860 285 0 285 0 0 575 0 575 290 0 290 0 0 -865 0 -865 -865 0 -865
0 0 575 0 575 -290 0 -290 0 0 -860 0 -860 1440 0 1440 0 0 575 0 575 290 0
290 0 0 -575 0 -575 1153 -2 1152 -3 3 -287 2 -288 -2882 -2 -2883 -3 -2 -860
c-2 -473 -3 -992 -3 -1152 l0 -293 -285 0 -285 0 -2 578 -3 577 -285 0 -285 0
0 -2015 0 -2015 285 0 285 0 3 1153 2 1152 288 0 287 0 -3 -575 -2 -575 290 0
290 0 0 1150 0 1150 575 0 575 0 0 290 0 290 -575 0 -575 0 0 285 0 285 865 0
865 0 0 -865 0 -865 -575 0 -575 0 0 -860 0 -860 285 0 285 0 0 575 0 575 290
0 290 0 0 -575 0 -575 285 0 285 0 0 1725 0 1725 865 0 865 0 0 -575 0 -575
290 0 290 0 0 575 0 575 575 0 575 0 0 580 0 580 575 0 575 0 0 860 0 860
-285 0 -285 0 0 -575 0 -575 -290 0 -290 0 0 575 0 575 -285 0 -285 0 0 -575
0 -575 -290 0 -290 0 0 575 0 575 -290 0 -290 0 0 -575 0 -575 -285 0 -285 0
0 575 0 575 -580 0 -580 0 0 290 0 290 1155 0 1155 0 0 575 0 575 865 0 865 0
0 -290 0 -290 -575 0 -575 0 0 -285 0 -285 860 0 860 0 0 865 0 865 -1150 0
-1150 0 0 865 0 865 290 0 290 0 0 -580 0 -580 285 0 285 0 0 580 0 580 865 0
865 0 0 -290 0 -290 -575 0 -575 0 0 -290 0 -291 288 1 c158 0 416 0 575 0
l287 0 0 -3745 0 -3745 -290 0 -290 0 0 1155 0 1155 -285 0 -285 0 0 -575 0
-575 -575 0 -575 0 0 -290 0 -290 575 0 575 0 0 -575 0 -575 575 0 575 0 0
-1440 0 -1440 -290 0 -290 0 0 1150 0 1150 -285 0 -285 0 0 -1440 0 -1440 575
0 575 0 0 -4610 0 -4610 288 2 287 3 2 11233 3 11232 -10660 0 -10660 0 0
-285z"/>
</g>
</svg>
