<?xml version="1.0" standalone="no"?>
<!DOCTYPE svg PUBLIC "-//W3C//DTD SVG 20010904//EN"
 "http://www.w3.org/TR/2001/REC-SVG-20010904/DTD/svg10.dtd">
<svg version="1.0" xmlns="http://www.w3.org/2000/svg"
 width="2362.000000pt" height="2362.000000pt" viewBox="0 0 2362.000000 2362.000000"
 preserveAspectRatio="xMidYMid meet">
<metadata>
Created by potrace 1.16, written by Peter Selinger 2001-2019
</metadata>
<g transform="translate(0.000000,2362.000000) scale(0.100000,-0.100000)"
fill="#000000" stroke="none">
<path d="M290 12095 l0 -11235 10655 0 10655 0 0 290 0 290 -9790 0 -9790 0 0
288 c0 158 0 416 0 575 l1 287 -291 0 -290 0 0 -575 0 -575 -290 0 -290 0 0
3745 0 3745 290 0 290 0 0 -1150 0 -1150 290 0 290 0 0 575 0 575 285 0 285 0
0 -575 0 -575 578 -2 577 -3 3 -287 2 -288 -580 0 -580 0 2 -288 3 -287 863
-3 862 -2 0 580 0 580 290 0 290 0 0 -580 0 -580 285 0 285 0 0 580 0 580 575
0 575 0 0 285 0 285 -1150 0 -1150 0 0 290 0 290 1150 0 1150 0 0 575 0 575
290 0 290 0 0 -575 0 -575 290 0 290 0 0 1440 0 1440 -290 0 -290 0 0 -575 0
-575 -290 0 -290 0 0 575 0 575 -285 0 -285 0 0 -1155 0 -1155 -865 0 -865 0
0 290 0 290 575 0 575 0 0 290 0 290 -860 0 -860 0 0 -1155 0 -1155 -290 0
-290 0 -2 1153 -3 1152 -285 0 -285 0 -3 -578 -2 -577 -285 0 -285 0 -2 577
-3 578 -285 2 c-157 2 -417 3 -577 3 l-293 0 0 2590 0 2590 290 0 290 0 0
-1150 0 -1150 290 0 290 0 0 575 0 575 575 0 575 0 0 575 0 575 290 0 290 0 0
-1150 0 -1150 1435 0 1435 0 0 285 0 285 -1150 0 -1150 0 0 290 0 290 575 0
575 0 0 865 0 865 -285 0 -285 0 0 -580 0 -580 -290 0 -290 0 0 580 0 580
-862 -3 -863 -2 -3 -577 -2 -578 -285 0 -285 0 -2 578 -3 577 -577 3 -578 2 0
285 0 285 2305 0 2305 0 0 290 0 290 -2305 0 -2305 0 0 290 0 290 580 0 580 0
0 285 0 285 -580 0 -580 0 0 865 0 865 580 0 580 0 0 285 0 285 -577 2 -578 3
-3 862 -2 863 577 2 c318 2 707 2 866 0 l287 -2 0 -285 0 -285 -575 0 -575 0
0 -290 0 -290 575 0 575 0 0 -865 0 -865 -575 0 -575 0 0 -285 0 -285 575 0
575 0 0 -575 0 -575 1730 0 1730 0 0 -1730 0 -1730 285 0 285 0 0 1150 0 1150
578 2 577 3 3 288 2 287 -580 0 -580 0 0 575 0 575 -1150 0 -1150 0 0 575 0
575 -285 0 -285 0 0 -575 0 -575 -290 0 -290 0 0 2015 0 2015 290 0 290 0 0
-1150 0 -1150 285 0 285 0 0 575 0 575 1440 0 1440 0 0 -290 0 -290 -1150 0
-1150 0 0 -860 0 -860 285 0 285 0 0 575 0 575 290 0 290 0 0 -575 0 -575 285
0 285 0 0 575 0 575 1155 0 1155 0 0 285 0 285 -575 0 -575 0 -2 578 -3 577
-577 3 -578 2 0 575 0 575 -285 0 -285 0 0 -575 0 -575 -865 0 -865 0 0 575 0
575 -1730 0 -1730 0 0 575 0 575 -285 0 -285 0 0 -11235z M1440 23045 l0 -285
1730 0 1730 0 0 -580 0 -580 285 0 285 0 0 580 0 580 865 0 865 0 2 -577 3
-578 285 0 285 0 3 578 2 577 285 0 285 0 2 -577 3 -578 288 -3 287 -2 0 580
0 580 1440 0 1440 0 0 -290 0 -290 -1150 0 -1150 0 0 -575 0 -575 -577 -2
-578 -3 -3 -287 -2 -288 1155 0 1155 0 0 -290 0 -290 -575 0 -575 0 0 -285 0
-285 860 0 860 0 0 575 0 575 290 0 290 0 0 -1440 0 -1440 -290 0 -290 0 0
575 0 575 -285 0 -285 0 0 -860 0 -860 575 0 575 0 0 -290 0 -290 -575 0 -575
0 0 -2015 0 -2015 865 0 865 0 0 285 0 285 -580 0 -580 0 0 290 0 290 580 0
580 0 0 285 0 285 -580 0 -580 0 0 290 0 290 1440 0 1440 0 0 -290 0 -290
-575 0 -575 0 0 -285 0 -285 865 0 865 0 0 865 0 865 -1152 0 c-634 0 -1413 0
-1730 0 l-578 0 0 285 0 285 578 2 577 3 3 578 2 577 285 0 285 0 0 -580 0
-580 290 0 290 0 0 1730 0 1730 288 0 287 0 0 -1727 0 -1728 288 -3 287 -2 0
1155 0 1155 290 0 290 0 0 -2595 0 -2595 -1155 0 -1155 0 0 -285 0 -285 2305
0 2305 0 2 -577 3 -578 285 0 285 0 3 578 2 577 575 0 575 0 0 575 0 575 290
0 290 0 0 -1730 0 -1730 285 0 285 0 0 2015 0 2015 -1440 0 -1440 0 0 -285 0
-285 575 0 575 0 0 -290 0 -290 -1440 0 -1440 0 0 865 0 865 290 0 290 0 0
-575 0 -575 285 0 285 0 0 575 0 575 1730 0 1730 0 0 865 0 865 -285 0 -285 0
0 -575 0 -575 -290 0 -290 0 0 1150 0 1150 -865 0 -865 0 0 -285 0 -285 575 0
575 0 0 -290 0 -290 -1150 0 -1150 0 0 -290 0 -290 1150 0 1150 0 0 -285 0
-285 -862 -2 c-475 -2 -1123 -2 -1440 0 l-578 2 0 865 0 865 575 0 575 0 0
285 0 285 -575 0 -575 0 0 290 0 290 575 0 575 0 0 285 0 285 -1150 0 -1150 0
0 290 0 290 1150 0 1150 0 0 285 0 285 -2015 0 -2015 0 0 -1150 0 -1150 -285
0 -285 0 0 288 c0 274 0 1712 0 2310 l0 282 1725 0 1725 0 0 290 0 290 -2880
0 -2880 0 0 285 0 285 578 0 c317 0 836 1 1152 3 l575 2 3 578 2 577 1440 0
1440 0 0 -290 0 -290 -1155 0 -1155 0 2 -287 3 -288 2590 0 2590 0 3 288 2
287 -1155 0 -1155 0 0 290 0 290 3170 0 3170 0 0 -290 0 -290 -575 0 -575 0 0
-290 0 -291 288 1 c158 0 416 0 575 0 l287 0 0 -865 0 -865 -290 0 -290 0 0
580 0 580 -285 0 -285 0 0 -1440 0 -1440 285 0 285 0 0 575 0 575 290 0 290 0
0 -865 0 -865 -865 0 -865 0 0 2305 0 2305 -285 0 -285 0 0 -1730 0 -1730
-290 0 -290 0 0 1730 0 1730 -290 0 -290 0 0 -1155 0 -1155 -285 0 -285 0 -2
578 -3 577 -862 3 -863 2 0 -290 0 -290 575 0 575 0 0 -575 0 -575 575 0 575
0 0 -290 0 -290 -575 0 -575 0 0 -285 0 -285 1155 0 1155 0 0 -575 0 -575
1150 0 1150 0 0 -865 0 -865 -290 0 -290 0 0 575 0 575 -285 0 -285 0 0 -865
0 -865 575 0 575 0 0 -290 0 -290 -575 0 -575 0 0 -285 0 -285 575 0 575 0 0
-290 0 -290 -575 0 -575 0 0 -865 0 -865 285 0 285 0 0 580 0 580 290 0 290 0
0 -865 0 -865 -575 0 -575 0 0 -290 0 -290 575 0 575 0 0 -287 0 -288 -575 3
-575 2 0 -290 0 -290 575 0 575 0 0 -290 0 -290 -865 0 -865 0 0 580 0 580
-285 0 -285 0 0 -580 0 -580 -580 0 -580 0 0 -575 0 -575 -865 0 -865 0 0 290
0 290 580 0 580 0 0 285 0 285 -580 0 -580 0 0 290 0 290 1155 0 1155 0 0
1440 0 1440 -290 0 -290 0 0 -575 0 -575 -575 0 -575 0 0 -290 0 -290 575 0
575 0 0 -285 0 -285 -282 0 c-156 0 -804 -1 -1441 -3 l-1157 -2 0 863 0 862
290 0 290 0 0 -575 0 -575 285 0 285 0 0 865 0 865 -860 0 -860 0 0 -575 0
-575 -577 -2 -578 -3 0 -285 0 -285 578 -3 577 -2 0 -285 0 -285 -287 0 c-159
0 -418 -1 -578 -3 l-290 -2 -2 -290 c-2 -159 -3 -419 -3 -577 l0 -288 -285 0
-285 0 0 1440 0 1440 288 0 c158 0 416 0 575 0 l287 -1 0 291 0 290 -865 0
-865 0 0 -1150 0 -1150 -287 0 c-159 0 -676 0 -1150 0 l-863 0 0 -290 0 -290
1150 0 1150 0 0 -290 0 -290 -575 0 -575 0 0 -575 0 -575 -575 0 -575 0 0
-575 0 -575 -290 0 -290 0 0 865 0 865 575 0 575 0 0 285 0 285 -575 0 -575 0
0 865 0 865 575 0 575 0 0 290 0 290 -575 0 -575 0 0 285 0 285 285 0 c157 0
418 0 580 0 162 0 423 0 580 0 l285 0 0 -575 0 -575 288 2 287 3 2 863 3 862
-1155 0 -1155 0 0 2305 0 2305 -285 0 -285 0 0 -1155 0 -1155 -580 0 -580 0 0
-860 0 -860 290 0 290 0 0 575 0 575 290 0 290 0 0 -865 0 -865 -865 0 -865 0
0 1440 0 1440 575 0 575 0 0 1155 0 1155 575 0 575 0 0 860 0 860 -865 0 -865
0 0 -285 0 -285 580 0 580 0 0 -290 0 -290 -865 0 -865 0 0 575 0 575 -290 0
-290 0 0 -860 0 -860 575 0 575 0 0 -865 0 -865 -575 0 -575 0 0 -1730 0
-1730 -1725 0 -1725 0 0 -290 0 -290 575 0 575 0 0 -285 0 -285 -1440 0 -1440
0 0 285 0 285 288 0 c158 0 415 1 572 3 l285 2 3 863 2 862 -290 0 -290 0 0
-575 0 -575 -575 0 -575 0 0 -865 0 -865 2015 0 2015 0 0 575 0 575 578 0
c1782 0 2296 0 2299 -3 1 -2 3 -520 3 -1150 l0 -1147 290 0 290 0 0 1150 0
1150 290 0 290 0 0 -1440 0 -1440 -580 0 -580 0 0 -285 0 -285 580 0 580 0 0
-1155 0 -1155 860 0 860 0 0 580 0 580 290 0 290 0 0 -865 0 -865 -1440 0
-1440 0 0 1150 0 1150 -865 0 -865 0 0 -865 0 -865 288 2 287 3 3 577 2 578
285 0 285 0 0 -1155 0 -1155 1155 0 1155 0 0 -865 0 -865 -1440 0 -1440 0 0
290 0 290 1150 0 1150 0 0 285 0 285 -1150 0 -1150 0 -2 578 -3 577 -577 3
-578 2 0 575 0 575 -285 0 -285 0 0 -575 0 -575 -2015 0 -2015 0 0 288 c0 158
0 416 0 575 l1 287 -291 0 -290 0 0 -865 0 -865 1155 0 1155 0 -2 -287 -3
-288 -1152 -3 -1153 -2 0 -285 0 -285 575 0 575 0 0 -575 0 -575 2015 0 2015
0 0 860 0 860 -285 0 -285 0 0 -575 0 -575 -290 0 -290 0 0 575 0 575 -285 0
-285 0 0 -575 0 -575 -865 0 -865 0 0 290 0 290 575 0 575 0 0 575 0 575 1440
0 1440 0 0 -1150 0 -1150 2015 0 2015 0 0 575 0 575 580 0 580 0 0 285 0 285
-580 0 -580 0 0 290 0 290 1155 0 1155 0 0 575 0 575 285 0 285 0 0 -285 c0
-157 0 -415 0 -575 0 -159 0 -420 0 -580 l0 -290 -575 0 -575 0 0 -575 0 -575
-575 0 -575 0 0 -285 0 -285 865 0 865 0 0 575 0 575 288 0 287 0 -3 -575 -2
-575 865 0 865 0 0 285 0 285 -575 0 -575 0 0 1730 0 1730 -575 0 -575 0 0
290 0 290 575 0 575 0 0 285 0 285 -865 0 -865 0 0 -1150 0 -1150 -285 0 -285
0 0 285 c0 157 0 546 0 865 0 319 0 839 0 1155 l0 575 1150 0 1150 0 0 575 0
575 290 0 290 0 0 -575 0 -575 285 0 285 0 0 575 0 575 290 0 290 0 0 -865 0
-865 -575 0 -575 0 0 -1440 0 -1440 1150 0 1150 0 0 -865 0 -865 -290 0 -290
0 0 575 0 575 -860 0 -860 0 0 -285 0 -285 575 0 575 0 0 -575 0 -575 865 0
865 0 0 1150 0 1150 575 0 575 0 0 290 0 290 -575 0 -575 0 0 575 0 575 -290
0 -290 0 0 -575 0 -575 -865 0 -865 0 0 865 0 865 290 0 290 0 0 -580 0 -580
285 0 285 0 2 578 3 577 1728 3 1727 2 0 285 0 285 -575 0 -575 0 0 290 0 290
1440 0 1440 0 0 -290 0 -290 -575 0 -575 0 0 -865 0 -865 285 0 285 0 0 580 0
580 290 0 290 0 0 -1445 0 -1445 -290 0 -290 0 0 580 0 580 -575 0 -575 0 0
575 0 575 -865 0 -865 0 2 -287 3 -288 578 -3 577 -2 0 -575 0 -575 575 0 575
0 0 -290 0 -290 -1155 0 -1155 0 0 -285 0 -285 580 0 580 0 0 -290 0 -290
-580 0 -580 0 0 -285 0 -285 865 0 865 0 0 575 0 575 290 0 290 0 0 -575 0
-575 285 0 285 0 0 575 0 575 290 0 290 0 0 -1155 0 -1155 288 2 287 3 2
11233 3 11232 -10660 0 -10660 0 0 -285z"/>
</g>
</svg>
