<?xml version="1.0" standalone="no"?>
<!DOCTYPE svg PUBLIC "-//W3C//DTD SVG 20010904//EN"
 "http://www.w3.org/TR/2001/REC-SVG-20010904/DTD/svg10.dtd">
<svg version="1.0" xmlns="http://www.w3.org/2000/svg"
 width="2362.000000pt" height="2362.000000pt" viewBox="0 0 2362.000000 2362.000000"
 preserveAspectRatio="xMidYMid meet">
<metadata>
Created by potrace 1.16, written by Peter Selinger 2001-2019
</metadata>
<g transform="translate(0.000000,2362.000000) scale(0.100000,-0.100000)"
fill="#000000" stroke="none">
<path d="M290 12095 l0 -11235 10655 0 10655 0 0 290 0 290 -575 0 -575 0 0
575 0 575 -1150 0 -1150 0 0 290 0 290 1440 0 1440 0 0 -575 0 -575 285 0 285
0 0 1440 0 1440 -575 0 -575 0 0 865 0 865 290 0 290 0 0 -580 0 -580 285 0
285 0 0 865 0 865 -575 0 -575 0 0 290 0 290 575 0 575 0 0 2015 0 2015 -285
0 -285 0 0 -1730 0 -1730 -290 0 -290 0 0 1730 0 1730 -285 0 -285 0 0 -575 0
-575 -290 0 -290 0 0 865 0 865 575 0 575 0 0 1440 0 1440 -285 0 -285 0 0
-1155 0 -1155 -580 0 -580 0 0 -1150 0 -1150 -285 0 -285 0 0 575 0 575 -580
0 -580 0 0 1730 0 1730 -285 0 -285 0 0 -1155 0 -1155 -575 0 -575 0 0 -285 0
-285 575 0 575 0 0 -1155 0 -1155 285 0 285 0 0 575 0 575 290 0 290 0 0 -575
0 -575 1155 0 1155 0 0 -285 0 -285 -292 0 c-161 0 -680 -1 -1153 -3 l-860 -2
-3 -863 -2 -862 290 0 290 0 0 575 0 575 865 0 865 0 0 -290 0 -290 -580 0
-580 0 0 -860 0 -860 290 0 290 0 0 575 0 575 290 0 290 0 0 -1730 0 -1730
575 0 575 0 0 -290 0 -290 -1440 0 -1440 0 0 290 0 290 575 0 575 0 0 865 0
865 -1440 0 -1440 0 0 -290 0 -290 1150 0 1150 0 0 -285 0 -285 -575 0 -575 0
0 -580 0 -580 -290 0 -290 0 0 580 0 580 -860 0 -860 0 0 -290 0 -290 575 0
575 0 0 -290 0 -290 -1155 0 -1155 0 0 -285 0 -285 1730 0 1730 0 0 -575 0
-575 1155 0 1155 0 0 -290 0 -290 -1445 0 -1445 0 0 575 0 575 -285 0 -285 0
0 -575 0 -575 -865 0 -865 0 0 290 0 290 575 0 575 0 0 285 0 285 -865 0 -865
0 2 -575 3 -575 -287 0 -288 0 0 575 0 575 -290 0 -290 0 0 -575 0 -575 -2015
0 -2015 0 0 290 0 290 1730 0 1730 0 0 285 0 285 -580 0 -580 0 0 290 0 290
580 0 580 0 0 285 0 285 -580 0 -580 0 0 290 0 290 865 0 865 0 0 -575 0 -575
290 0 290 0 0 865 0 865 -575 0 -575 0 -2 288 c-2 158 -2 547 0 864 l2 578
285 0 285 0 2 -577 3 -578 573 -3 572 -2 0 -288 c0 -158 1 -415 3 -572 l2
-285 288 -3 287 -2 0 575 0 575 575 0 575 0 0 1155 0 1155 290 0 290 0 0 -575
0 -575 865 0 865 0 0 285 0 285 -580 0 -580 0 0 1155 0 1155 -285 0 -285 0 0
-580 0 -580 -290 0 -290 0 0 1730 0 1730 -285 0 -285 0 0 -575 0 -575 -577 -2
-578 -3 0 -285 0 -285 578 -3 577 -2 0 -2015 0 -2015 -290 0 -290 0 0 575 0
575 -290 0 -291 0 1 -288 c0 -158 0 -416 0 -574 l0 -288 -285 0 -285 0 0 865
0 865 575 0 575 0 0 865 0 865 -287 -2 -288 -3 -2 -290 c-2 -159 -3 -419 -3
-577 l0 -288 -860 0 -860 0 0 290 0 290 575 0 575 0 0 1440 0 1440 -1440 0
-1440 0 0 -1730 0 -1730 -290 0 -290 0 0 580 0 580 -285 0 -285 0 0 -865 0
-865 860 0 860 0 0 1150 0 1150 578 2 577 3 0 285 0 285 -577 3 -578 2 0 285
0 285 578 2 c317 2 706 2 865 0 l287 -2 0 -860 0 -860 -287 0 c-159 0 -417 0
-575 0 l-288 1 0 -866 0 -865 575 0 575 0 0 -290 0 -290 -1150 0 -1150 0 0
-285 0 -285 575 0 575 0 0 -290 0 -290 -865 0 -865 0 0 575 0 575 -285 0 -285
0 0 -865 0 -865 1150 0 1150 0 0 -285 0 -285 -575 0 -575 0 0 -580 0 -580
-290 0 -290 0 0 580 0 580 -575 0 -575 0 0 1725 0 1725 -290 0 -290 0 0 -2015
0 -2015 580 0 580 0 0 -575 0 -575 575 0 575 0 0 -290 0 -290 -1440 0 -1440 0
0 290 0 290 575 0 575 0 0 285 0 285 -1152 2 -1153 3 -3 288 -2 287 580 0 580
0 0 2015 0 2015 -290 0 -290 0 0 -575 0 -575 -290 0 -290 0 0 865 0 865 580 0
580 0 -2 288 -3 287 -1153 0 -1152 0 0 288 0 287 1155 0 1155 0 0 1440 0 1440
-580 0 -580 0 0 575 0 575 -285 0 -285 0 0 -860 0 -860 575 0 575 0 0 -865 0
-865 -1150 0 -1150 0 0 -577 0 -578 -575 3 -575 2 0 -865 0 -865 285 0 285 0
0 575 0 575 865 0 865 0 0 -290 0 -290 -575 0 -575 0 0 -285 0 -285 575 0 575
0 0 -290 0 -290 -575 0 -575 0 0 -285 0 -285 575 0 575 0 0 -290 0 -290 -575
0 -575 0 0 -575 0 -575 -575 0 -575 0 0 -290 0 -290 860 0 860 0 0 575 0 575
575 0 575 0 2 578 3 577 288 3 287 2 0 -865 0 -865 -575 0 -575 0 0 -1155 0
-1155 -575 0 -575 0 0 -285 0 -285 860 0 860 0 0 575 0 575 290 0 290 0 0
-575 0 -575 575 0 575 0 0 -290 0 -290 -3745 0 -3745 0 0 865 0 865 865 0 865
0 0 -290 0 -290 -575 0 -575 0 0 -285 0 -285 1440 0 1440 0 0 285 0 285 -575
0 -575 0 0 290 0 290 1150 0 1150 0 0 285 0 285 -1725 0 -1725 0 0 578 c0 317
0 837 0 1155 l0 577 -290 0 -290 0 0 -1155 0 -1155 -290 0 -290 0 0 1445 0
1445 580 0 580 0 0 575 0 575 285 0 285 0 0 -1730 0 -1730 290 0 290 0 0 1155
0 1155 288 -2 287 -3 3 -577 2 -578 285 0 285 0 0 865 0 865 -575 0 -575 0 -2
1153 -3 1152 -285 0 -285 0 -3 -578 -2 -577 -575 0 -575 0 0 -575 0 -575 -290
0 -290 0 0 865 0 865 580 0 580 0 -2 288 -3 287 -285 2 c-157 2 -417 3 -577 3
l-293 0 0 285 0 285 1730 0 1730 0 0 290 0 290 -1730 0 -1730 0 0 285 0 285
578 0 c317 0 1613 0 2880 0 l2302 0 0 290 0 290 -575 0 -575 0 0 575 0 575
-285 0 -285 0 0 -575 0 -575 -2020 0 -2020 0 0 290 0 290 1155 0 1155 0 0
1150 0 1150 575 0 575 0 0 290 0 290 -1440 0 -1440 0 0 -290 0 -290 575 0 575
0 0 -290 0 -290 -575 0 -575 0 0 -285 0 -285 575 0 575 0 0 -290 0 -290 -865
0 -865 0 0 3170 0 3170 1155 0 1155 0 0 285 0 285 -575 0 -575 0 -2 578 -3
577 -287 3 -288 2 0 -580 0 -580 -287 2 -288 3 -3 1728 -2 1727 -285 0 -285 0
0 -11235z M1440 22465 l0 -865 288 2 287 3 3 578 2 577 285 0 285 0 2 -577 3
-578 285 0 285 0 3 578 2 577 288 -2 287 -3 3 -577 2 -578 860 0 860 0 0 290
0 290 -575 0 -575 0 0 290 0 290 3745 0 3745 0 0 -580 0 -580 288 2 287 3 3
578 2 577 3745 0 3745 0 0 -580 0 -580 285 0 285 0 0 580 0 580 290 0 290 0 0
-865 0 -865 -1440 0 -1440 0 0 285 0 285 288 0 c158 0 416 0 575 0 l287 -1 0
291 0 290 -865 0 -865 0 0 -575 0 -575 -290 0 -290 0 0 575 0 575 -285 0 -285
0 0 -1155 0 -1155 -290 0 -290 0 0 1155 0 1155 -862 -2 -863 -3 0 -285 0 -285
578 -3 577 -2 0 -285 0 -285 -865 0 -865 0 0 575 0 575 -290 0 -290 0 0 -865
0 -865 1155 0 1155 0 0 -575 0 -575 860 0 860 0 0 575 0 575 2305 0 2305 0 0
1155 0 1155 290 0 290 0 0 -1445 0 -1445 -575 0 -575 0 0 -285 0 -285 575 0
575 0 0 -290 0 -290 -1440 0 -1440 0 0 290 0 290 575 0 575 0 0 285 0 285
-1440 0 -1440 0 0 -575 0 -575 -1440 0 -1440 0 0 575 0 575 -865 0 -865 0 0
-285 0 -285 578 0 577 0 -3 -575 -2 -575 1730 0 1730 0 0 -865 0 -865 -865 0
-865 0 0 290 0 290 575 0 575 0 0 285 0 285 -1440 0 -1440 0 0 -285 0 -285
580 0 580 0 0 -290 0 -290 -577 -2 -578 -3 -2 -285 c-2 -157 -3 -414 -3 -572
l0 -288 -285 0 -285 0 0 1725 0 1725 -1155 0 -1155 0 0 290 0 290 580 0 580 0
-3 863 -2 862 -287 3 -288 2 0 -580 0 -580 -287 2 -288 3 -3 1153 -2 1152
-285 0 -285 0 0 -1730 0 -1730 -290 0 -290 0 0 575 0 575 -285 0 -285 0 0
-1150 0 -1150 -865 0 -865 0 0 865 0 865 285 0 285 0 0 -575 0 -575 290 0 290
0 0 1150 0 1150 575 0 575 0 0 865 0 865 -285 0 -285 0 0 -575 0 -575 -865 0
-865 0 0 285 0 285 288 0 c158 0 416 0 575 0 l287 -1 0 291 0 290 -1440 0
-1440 0 0 -290 0 -291 288 1 c158 0 416 0 575 0 l287 0 0 -285 0 -285 -575 0
-575 0 0 -290 0 -290 1150 0 1150 0 0 -290 0 -290 -575 0 -575 0 0 -575 0
-575 -290 0 -290 0 0 575 0 575 -285 0 -285 0 0 -575 0 -575 -865 0 -865 0 0
290 0 290 575 0 575 0 0 865 0 865 -1440 0 -1440 0 0 -290 0 -290 1155 0 1155
0 0 -290 0 -290 -575 0 -575 0 0 -575 0 -575 -580 0 -580 0 0 -285 0 -285 580
0 580 0 0 -865 0 -865 -865 0 -865 0 0 290 0 290 575 0 575 0 0 285 0 285
-575 0 -575 0 0 288 c0 158 0 416 0 575 l1 287 -291 0 -290 0 0 -1440 0 -1440
1440 0 1440 0 0 1155 0 1155 865 0 865 0 0 -290 0 -290 -575 0 -575 0 0 -865
0 -865 860 0 860 0 0 290 0 290 -575 0 -575 0 0 290 0 290 575 0 575 0 0 575
0 575 290 0 290 0 0 -575 0 -575 575 0 575 0 0 -865 0 -865 -285 0 -285 0 0
575 0 575 -290 0 -290 0 0 -575 0 -575 -287 0 c-159 0 -676 0 -1150 0 l-863 0
0 -580 0 -580 -575 0 -575 0 0 -860 0 -860 285 0 285 0 0 575 0 575 575 0 575
0 0 575 0 575 865 0 865 0 0 -575 0 -575 575 0 575 0 0 -575 0 -575 580 0 580
0 0 -290 0 -290 -580 0 -580 0 0 -1440 0 -1440 290 0 290 0 0 1150 0 1150 290
0 290 0 0 -575 0 -575 285 0 285 0 0 1155 0 1155 2015 0 2015 0 2 -577 3 -578
288 -3 287 -2 0 865 0 865 -575 0 -575 0 0 290 0 290 575 0 575 0 0 285 0 285
-865 0 -865 0 0 -575 0 -575 -285 0 -285 0 0 288 c0 158 -1 676 -3 1152 l-2
865 -862 2 -863 3 0 -290 0 -290 575 0 575 0 0 -290 0 -290 -865 0 -865 0 0
580 0 580 -285 0 -285 0 0 -865 0 -865 1150 0 1150 0 0 -290 0 -290 -1440 0
-1440 0 0 575 0 575 -575 0 -575 0 0 290 0 290 575 0 575 0 0 1155 0 1155 575
0 575 0 0 575 0 575 1440 0 1440 0 0 -865 0 -865 -285 0 -285 0 0 288 c0 158
0 416 0 575 l1 287 -291 0 -290 0 0 -575 0 -575 -290 0 -290 0 0 575 0 575
-285 0 -285 0 0 -575 0 -575 -575 0 -575 0 0 -290 0 -290 1725 0 1725 0 0
-575 0 -575 865 0 865 0 0 575 0 575 290 0 290 0 0 -1150 0 -1150 285 0 285 0
0 1150 0 1150 1440 0 1440 0 0 -865 0 -865 -285 0 -285 0 -2 578 -3 577 -287
3 -288 2 0 -1440 0 -1440 290 0 290 0 0 575 0 575 575 0 575 0 0 1440 0 1440
-575 0 -575 0 0 290 0 290 575 0 575 0 0 285 0 285 -575 0 -575 0 0 865 0 865
285 0 285 0 0 -575 0 -575 580 0 580 0 0 -1155 0 -1155 285 0 285 0 0 580 0
580 290 0 290 0 0 -1155 0 -1155 285 0 285 0 0 1440 0 1440 -575 0 -575 0 0
290 0 290 865 0 865 0 0 -2020 0 -2020 -575 0 -575 0 0 -285 0 -285 575 0 575
0 0 -290 0 -290 -575 0 -575 0 0 -285 0 -285 575 0 575 0 0 -5765 0 -5765 288
2 287 3 2 11233 3 11232 -10660 0 -10660 0 0 -865z"/>
</g>
</svg>
