<?xml version="1.0" standalone="no"?>
<!DOCTYPE svg PUBLIC "-//W3C//DTD SVG 20010904//EN"
 "http://www.w3.org/TR/2001/REC-SVG-20010904/DTD/svg10.dtd">
<svg version="1.0" xmlns="http://www.w3.org/2000/svg"
 width="2362.000000pt" height="2362.000000pt" viewBox="0 0 2362.000000 2362.000000"
 preserveAspectRatio="xMidYMid meet">
<metadata>
Created by potrace 1.16, written by Peter Selinger 2001-2019
</metadata>
<g transform="translate(0.000000,2362.000000) scale(0.100000,-0.100000)"
fill="#000000" stroke="none">
<path d="M290 12095 l0 -11235 10655 0 10655 0 0 3170 0 3170 -285 0 -285 0 0
-575 0 -575 -575 0 -575 0 0 -575 0 -575 -290 0 -290 0 0 575 0 575 -575 0
-575 0 0 575 0 575 -290 0 -290 0 0 -1440 0 -1440 290 0 290 0 0 575 0 575
285 0 285 0 0 -865 0 -865 -865 0 -865 0 0 1155 0 1155 -285 0 -285 0 0 -1155
0 -1155 -575 0 -575 0 0 -285 0 -285 1150 0 1150 0 0 -575 0 -575 865 0 865 0
0 285 0 285 -575 0 -575 0 0 290 0 290 575 0 575 0 0 575 0 575 575 0 575 0 0
575 0 575 290 0 290 0 0 -1440 0 -1440 -290 0 -290 0 0 575 0 575 -285 0 -285
0 0 -860 0 -860 575 0 575 0 0 -290 0 -290 -2020 0 -2020 0 0 575 0 575 -860
0 -860 0 0 -285 0 -285 575 0 575 0 0 -290 0 -290 -865 0 -865 0 0 575 0 575
-290 0 -290 0 2 -575 3 -575 -1442 0 -1443 0 0 865 0 865 290 0 290 0 0 -575
0 -575 865 0 865 0 0 575 0 575 575 0 575 0 0 285 0 285 -575 0 -575 0 0 580
0 580 -287 -2 -288 -3 -3 -1152 -2 -1153 -285 0 -285 0 0 288 c0 158 0 416 0
574 l1 288 -581 0 -580 0 0 290 0 290 580 0 580 0 -3 862 -2 863 -287 3 -288
2 0 -575 0 -575 -865 0 -865 0 0 865 0 865 290 0 290 0 0 -580 0 -580 285 0
285 0 0 580 0 580 580 0 580 0 0 285 0 285 -580 0 -580 0 0 290 0 290 865 0
865 0 2 -1152 3 -1153 288 -3 287 -2 0 580 0 580 285 0 285 0 0 -292 c0 -161
1 -421 3 -578 l2 -285 578 -3 577 -2 0 -285 0 -285 -577 -2 -578 -3 0 -285 0
-285 863 -3 862 -2 0 865 0 865 -575 0 -575 0 0 575 0 575 -575 0 -575 0 0
575 0 575 -1155 0 -1155 0 0 290 0 290 1155 0 1155 0 0 1150 0 1150 288 0
c158 0 675 0 1150 0 l862 0 0 580 0 580 575 0 575 0 0 575 0 575 290 0 290 0
0 -865 0 -865 -575 0 -575 0 0 -575 0 -575 -1152 -2 -1153 -3 0 -285 0 -285
578 -3 577 -2 0 -285 0 -285 -287 0 c-159 0 -418 -1 -578 -3 l-290 -2 -2 -863
-3 -862 290 0 290 0 0 575 0 575 290 0 290 0 0 -575 0 -575 575 0 575 0 0
-290 0 -290 -575 0 -575 0 0 -285 0 -285 860 0 860 0 0 1440 0 1440 -285 0
-285 0 0 -580 0 -580 -290 0 -290 0 0 865 0 865 575 0 575 0 0 575 0 575 290
0 290 0 0 -575 0 -575 290 0 290 0 0 575 0 575 285 0 285 0 0 -1440 0 -1440
-285 0 -285 0 -2 578 -3 577 -285 0 -285 0 -3 -863 -2 -862 865 0 865 0 0
1725 0 1725 290 0 290 0 0 -1150 0 -1150 575 0 575 0 0 -290 0 -290 -575 0
-575 0 0 -575 0 -575 -580 0 -580 0 0 -285 0 -285 865 0 865 0 0 575 0 575
575 0 575 0 0 2015 0 2015 -285 0 -285 0 0 -1152 0 -1153 -290 0 -290 0 0
1443 0 1442 575 0 575 0 0 285 0 285 -1150 0 -1150 0 0 575 0 575 -290 0 -290
0 0 -860 0 -860 580 0 580 0 0 -290 0 -290 -865 0 -865 0 0 1150 0 1150 -580
0 -580 0 0 865 0 865 290 0 290 0 0 -575 0 -575 290 0 290 0 0 865 0 865 -580
0 -580 0 0 1150 0 1150 -1150 0 -1150 0 0 290 0 290 575 0 575 0 0 285 0 285
-575 0 -575 0 0 580 0 580 -575 0 -575 0 0 575 0 575 -290 0 -290 0 0 -865 0
-865 575 0 575 0 0 -287 c0 -159 0 -676 0 -1150 l0 -863 1155 0 1155 0 0
-2595 0 -2595 -1155 0 -1155 0 0 -285 0 -285 580 0 580 0 0 -290 0 -290 -865
0 -865 0 0 1150 0 1150 -865 0 -865 0 0 -285 0 -285 575 0 575 0 0 -2015 0
-2015 -285 0 -285 0 0 288 c0 158 0 675 0 1150 l0 862 -865 0 -865 0 0 -290 0
-291 288 1 c158 0 416 0 575 0 l287 0 0 -285 0 -285 -575 0 -575 0 0 -290 0
-290 575 0 575 0 0 -285 0 -285 -287 0 c-159 0 -417 0 -575 0 l-288 1 0 -1156
0 -1155 -290 0 -290 0 0 575 0 575 -865 0 -865 0 0 -575 0 -575 -285 0 -285 0
0 865 0 865 1150 0 1150 0 0 290 0 290 -1437 -3 -1438 -2 -3 -578 -2 -577
-290 0 -290 0 0 580 0 580 -575 -2 -575 -3 0 288 0 287 2305 0 2305 0 0 1440
0 1440 -575 0 -575 0 0 865 0 865 575 0 575 0 0 575 0 575 575 0 575 0 0 290
0 290 -860 0 -860 0 0 -575 0 -575 -290 0 -290 0 0 575 0 575 -290 0 -290 0 0
-1155 0 -1155 -575 0 -575 0 0 -285 0 -285 575 0 575 0 0 -575 0 -575 580 0
580 0 0 -290 0 -290 -580 0 -580 0 2 -287 3 -288 578 -3 577 -2 0 -285 0 -285
-1445 0 -1445 0 0 285 0 285 578 2 577 3 3 288 2 287 -865 0 -865 0 0 -575 0
-575 -575 0 -575 0 0 -865 0 -865 575 0 575 0 0 -1150 0 -1150 285 0 285 0 0
575 0 575 290 0 290 0 0 -865 0 -865 -865 0 -865 0 0 1150 0 1150 -285 0 -285
0 0 -2015 0 -2015 285 0 285 0 0 575 0 575 865 0 865 0 0 -575 0 -575 290 0
290 0 0 1155 0 1155 575 0 575 0 0 575 0 575 290 0 290 0 0 -865 0 -865 -580
0 -580 0 2 -287 3 -288 578 -3 577 -2 0 -285 0 -285 -577 -2 -578 -3 -3 -287
-2 -288 1155 0 1155 0 0 -290 0 -290 -575 0 -575 0 0 -285 0 -285 575 0 575 0
0 -865 0 -865 -290 0 -290 0 0 575 0 575 -285 0 -285 0 0 -575 0 -575 -1445 0
-1445 0 0 290 0 290 580 0 580 0 0 285 0 285 -580 0 -580 0 0 290 0 290 865 0
865 0 0 -575 0 -575 290 0 290 0 0 860 0 860 -1152 2 -1153 3 -3 578 -2 577
-285 0 -285 0 0 -580 0 -580 -575 0 -575 0 0 -285 0 -285 575 0 575 0 0 -865
0 -865 -290 0 -290 0 0 575 0 575 -575 0 -575 0 0 575 0 575 -865 0 -865 0 0
-285 0 -285 580 0 580 0 0 -290 0 -290 -865 0 -865 0 0 578 c0 317 -1 836 -3
1152 l-2 575 -287 3 -288 2 0 -1440 0 -1440 1730 0 1730 0 0 -290 0 -290
-2020 0 -2020 0 0 2015 0 2015 1445 0 1445 0 0 -285 0 -285 -577 -2 -578 -3
-3 -287 -2 -288 865 0 865 0 0 1440 0 1440 -285 0 -285 0 0 -575 0 -575 -1445
0 -1445 0 0 290 0 290 1155 0 1155 0 0 285 0 285 -1155 0 -1155 0 0 1440 0
1440 290 0 290 0 0 -575 0 -575 575 0 575 0 0 -290 0 -290 -575 0 -575 0 0
-285 0 -285 1440 0 1440 0 0 865 0 865 -285 0 -285 0 0 -580 0 -580 -290 0
-290 0 -2 578 -3 577 -285 2 c-157 2 -414 3 -572 3 l-288 0 0 285 0 285 1150
0 1150 0 0 290 0 290 -1730 0 -1730 0 0 1440 0 1440 865 0 865 0 0 -290 0
-290 -575 0 -575 0 0 -285 0 -285 575 0 575 0 0 -290 0 -290 -575 0 -575 0 0
-290 0 -290 863 3 862 2 3 1153 2 1152 290 0 290 0 0 -1155 0 -1155 285 0 285
0 0 580 0 580 290 0 290 0 0 -580 0 -580 285 0 285 0 0 1155 0 1155 290 0 290
0 0 -575 0 -575 865 0 865 0 0 285 0 285 -580 0 -580 0 0 865 0 865 580 0 580
0 -2 288 -3 287 -577 3 -578 2 0 285 0 285 578 2 577 3 3 288 2 287 -865 0
-865 0 0 -575 0 -575 -290 0 -290 0 0 1150 0 1150 -860 0 -860 0 0 -865 0
-865 285 0 285 0 0 580 0 580 290 0 290 0 0 -1155 0 -1155 575 0 575 0 0 -290
0 -290 -575 0 -575 0 0 -575 0 -575 -290 0 -290 0 0 575 0 575 -575 0 -575 0
0 290 0 290 575 0 575 0 0 290 0 290 -862 -3 -863 -2 -3 -577 -2 -578 -865 0
-865 0 0 2595 0 2595 290 0 290 0 0 -2305 0 -2305 290 0 290 0 0 2590 0 2590
-578 2 -577 3 -3 288 -2 287 1730 0 1730 0 0 290 0 290 -575 0 -575 0 0 575 0
575 -290 0 -290 0 0 -575 0 -575 -865 0 -865 0 0 1150 0 1150 -285 0 -285 0 0
-11235z M1440 22465 l0 -865 288 2 287 3 3 578 2 577 4320 0 4320 0 0 -580 0
-581 288 1 c158 0 416 0 575 0 l287 0 0 -285 0 -285 -865 0 -865 0 0 575 0
575 -3165 0 -3165 0 0 -290 0 -290 1438 0 c790 0 1566 0 1725 0 l287 0 0 -285
0 -285 -1150 0 -1150 0 0 -290 0 -290 1150 0 1150 0 0 -290 0 -290 -2305 0
-2305 0 2 -2012 3 -2013 288 -3 287 -2 0 1730 0 1730 290 0 290 0 0 -575 0
-575 860 0 860 0 0 285 0 285 -575 0 -575 0 0 290 0 290 865 0 865 0 0 -575 0
-575 285 0 285 0 0 575 0 575 290 0 290 0 0 -865 0 -865 -575 0 -575 0 0 -285
0 -285 865 0 865 0 0 1725 0 1725 285 0 285 0 0 -287 c0 -159 0 -676 0 -1150
l0 -863 290 0 290 0 0 1440 0 1440 -575 0 -575 0 0 285 0 285 288 2 c158 2
547 2 865 0 l577 -2 0 -1150 0 -1150 1150 0 1150 0 0 -290 0 -290 -575 0 -575
0 0 -575 0 -575 -290 0 -290 0 0 575 0 575 -285 0 -285 0 0 -575 0 -575 -580
0 -580 0 0 -285 0 -285 1440 0 1440 0 0 575 0 575 290 0 290 0 0 -1440 0
-1440 -287 0 c-159 0 -417 0 -575 0 l-288 1 0 -581 0 -580 -575 0 -575 0 0
-285 0 -285 575 0 575 0 0 -575 0 -575 865 0 865 0 0 285 0 285 -580 0 -580 0
0 865 0 865 580 0 580 0 0 1153 c0 633 0 1412 0 1730 l0 577 285 0 285 0 0
-1730 0 -1730 1155 0 1155 0 0 -290 0 -290 -580 0 -580 0 0 -285 0 -285 865 0
865 0 0 865 0 865 -575 0 -575 0 0 285 0 285 575 0 575 0 0 865 0 865 -285 0
-285 0 0 -575 0 -575 -577 -2 -578 -3 -2 -285 c-2 -157 -3 -414 -3 -572 l0
-288 -285 0 -285 0 0 865 0 865 575 0 575 0 0 285 0 285 -575 0 -575 0 0 1150
0 1150 -290 0 -290 0 0 -575 0 -575 -285 0 -285 0 0 575 0 575 -1155 0 -1155
0 0 290 0 290 1153 2 1152 3 2 863 3 862 -580 0 -580 0 0 290 0 290 3170 0
3170 0 0 -290 0 -290 -1727 -2 -1728 -3 0 -285 0 -285 578 -3 577 -2 0 -575 0
-575 575 0 575 0 0 -575 0 -575 285 0 285 0 0 575 0 575 580 0 580 0 -2 288
-3 287 -1152 3 -1153 2 0 285 0 285 575 0 c316 0 836 0 1155 0 319 0 708 0
865 0 l285 0 0 -575 0 -575 290 0 290 0 0 865 0 865 -575 0 -575 0 0 290 0
290 865 0 865 0 0 -580 0 -580 285 0 285 0 0 580 0 580 865 0 865 0 0 -290 0
-290 -575 0 -575 0 0 -290 0 -291 288 1 c158 0 416 0 575 0 l287 0 0 -2015 0
-2015 -290 0 -290 0 0 1150 0 1150 -285 0 -285 0 0 -575 0 -575 -290 0 -290 0
0 865 0 865 575 0 575 0 0 290 0 290 -860 0 -860 0 -2 -577 -3 -578 -1152 -3
-1153 -2 0 -1435 0 -1435 575 0 575 0 0 -1155 0 -1155 865 0 865 0 0 865 0
865 -285 0 -285 0 0 -575 0 -575 -290 0 -290 0 0 865 0 865 575 0 575 0 0 285
0 285 -1150 0 -1150 0 0 290 0 290 575 0 575 0 0 285 0 285 -575 0 -575 0 0
290 0 290 865 0 865 0 0 -575 0 -575 575 0 575 0 0 -2020 0 -2020 -575 0 -575
0 0 -285 0 -285 860 0 860 0 0 1730 0 1730 290 0 290 0 0 -8070 0 -8070 288 2
287 3 2 11233 3 11232 -10660 0 -10660 0 0 -865z"/>
</g>
</svg>
