<?xml version="1.0" standalone="no"?>
<!DOCTYPE svg PUBLIC "-//W3C//DTD SVG 20010904//EN"
 "http://www.w3.org/TR/2001/REC-SVG-20010904/DTD/svg10.dtd">
<svg version="1.0" xmlns="http://www.w3.org/2000/svg"
 width="2362.000000pt" height="2362.000000pt" viewBox="0 0 2362.000000 2362.000000"
 preserveAspectRatio="xMidYMid meet">
<metadata>
Created by potrace 1.16, written by Peter Selinger 2001-2019
</metadata>
<g transform="translate(0.000000,2362.000000) scale(0.100000,-0.100000)"
fill="#000000" stroke="none">
<path d="M290 12095 l0 -11235 10655 0 10655 0 0 290 0 290 -575 0 -575 0 0
575 0 575 -1440 0 -1440 0 0 -285 0 -285 1155 0 1155 0 0 -290 0 -290 -3170 0
-3170 0 0 290 0 290 1725 0 1725 0 0 285 0 285 -575 0 -575 0 0 290 0 290 575
0 575 0 0 575 0 575 290 0 290 0 0 -575 0 -575 290 0 290 0 -2 863 -3 862
-577 3 -578 2 0 285 0 285 865 0 865 0 0 -1150 0 -1150 290 0 290 0 0 575 0
575 290 0 290 0 0 -575 0 -575 575 0 575 0 0 -575 0 -575 285 0 285 0 0 860 0
860 -575 0 -575 0 0 290 0 290 575 0 575 0 0 865 0 865 -285 0 -285 0 0 -575
0 -575 -290 0 -290 0 0 575 0 575 -285 0 -285 0 0 -575 0 -575 -290 0 -290 0
0 1725 0 1725 -290 0 -290 0 0 -575 0 -575 -285 0 -285 0 -2 1727 -3 1728
-287 3 -288 2 0 -2015 0 -2015 575 0 575 0 0 -290 0 -290 -865 0 -865 0 0
1150 0 1150 -285 0 -285 0 0 -1150 0 -1150 -290 0 -290 0 0 1440 0 1440 575 0
575 0 0 2015 0 2015 -575 0 -575 0 0 575 0 575 -285 0 -285 0 0 -860 0 -860
575 0 575 0 0 -865 0 -865 -575 0 -575 0 0 -290 0 -290 575 0 575 0 0 -287 0
-288 -1157 2 c-637 2 -1285 3 -1440 3 l-283 0 0 285 0 285 575 0 575 0 0 290
0 290 -575 0 -575 0 0 575 0 575 -290 0 -290 0 0 -575 0 -575 -285 0 -285 0 0
283 c0 597 0 2035 0 2310 l0 287 285 0 285 0 0 -575 0 -575 575 0 575 0 2
-577 3 -578 863 -2 862 -3 0 290 0 290 -575 0 -575 0 0 575 0 575 -575 0 -575
0 0 575 0 575 -575 0 -575 0 0 290 0 290 860 0 860 0 0 -287 c0 -159 0 -417 0
-575 l-1 -288 291 0 290 0 0 2305 0 2305 575 0 575 0 0 285 0 285 -575 0 -575
0 0 865 0 865 575 0 575 0 0 865 0 865 -285 0 -285 0 0 -575 0 -575 -577 -2
-578 -3 0 -1153 0 -1152 -577 0 -578 0 0 -285 0 -285 578 0 577 0 0 -290 0
-290 -1152 0 -1153 0 0 -865 0 -865 288 2 287 3 3 578 2 577 285 0 285 0 0
-580 0 -580 290 0 290 0 0 580 0 580 285 0 285 0 0 -292 c1 -902 -1 -1432 -3
-1435 -2 -1 -520 -3 -1150 -3 l-1147 0 0 -1155 0 -1155 -290 0 -290 0 0 575 0
575 -575 0 -575 0 0 290 0 290 575 0 575 0 0 865 0 865 -285 0 -285 0 0 -575
0 -575 -290 0 -290 0 0 2015 0 2015 575 0 575 0 0 285 0 285 -575 0 -575 0 0
1155 0 1155 -285 0 -285 0 0 -575 0 -575 -577 -2 -578 -3 -3 -287 -2 -288 580
0 580 0 0 -2015 0 -2015 -290 0 -290 0 0 1150 0 1150 -865 0 -865 0 0 -285 0
-285 575 0 575 0 0 -577 c0 -318 1 -837 3 -1153 l2 -575 578 -3 577 -2 0 -285
0 -285 -1155 0 -1155 0 0 -290 0 -290 575 0 575 0 0 -287 c0 -159 0 -417 0
-575 l-1 -288 291 0 290 0 0 575 0 575 290 0 290 0 0 -1440 0 -1440 -290 0
-290 0 0 575 0 575 -575 0 -575 0 0 575 0 575 -290 0 -290 0 0 -860 0 -860
575 0 575 0 2 -577 c2 -318 2 -707 0 -865 l-2 -288 -285 0 -285 0 0 575 0 575
-290 0 -290 0 0 -575 0 -575 -865 0 -865 0 0 285 0 285 575 0 575 0 0 1440 0
1440 -285 0 -285 0 0 -1150 0 -1150 -575 0 -575 0 0 -575 0 -575 -575 0 -575
0 0 -865 0 -865 285 0 285 0 0 575 0 575 1440 0 1440 0 0 -285 0 -285 -287 0
c-159 0 -676 0 -1150 0 l-863 0 0 -1155 0 -1155 -290 0 -290 0 0 575 0 575
-575 0 -575 0 0 1440 0 1440 288 0 c158 0 416 0 575 0 l287 -1 0 2021 0 2020
-285 0 -285 0 0 -1155 0 -1155 -290 0 -290 0 0 575 0 575 -290 0 -290 0 0
-575 0 -575 -575 0 -575 0 0 -285 0 -285 1153 -2 1152 -3 3 -287 2 -288 -580
0 -580 0 0 -1150 0 -1150 -285 0 -285 0 -2 573 -3 572 -287 3 -288 2 0 -865 0
-865 575 0 575 0 0 -290 0 -290 -575 0 -575 0 0 -860 0 -860 290 0 290 0 0
575 0 575 285 0 285 0 0 -575 0 -575 290 0 290 0 0 575 0 575 290 0 290 0 0
-865 0 -865 -580 0 -580 0 0 -865 0 -865 290 0 290 0 0 575 0 575 290 0 290 0
0 -575 0 -575 575 0 575 0 0 -290 0 -290 -575 0 -575 0 0 -285 0 -285 575 0
575 0 0 -290 0 -290 -1155 0 -1155 0 0 -285 0 -285 1440 0 1440 0 0 575 0 575
290 0 290 0 0 -575 0 -575 285 0 285 0 0 1440 0 1440 -285 0 -285 0 0 -580 0
-580 -290 0 -290 0 0 865 0 865 575 0 575 0 0 290 0 290 -860 0 -860 0 0 -575
0 -575 -290 0 -290 0 0 865 0 865 575 0 575 0 0 1150 0 1150 1440 0 1440 0 2
-1152 c2 -634 2 -1282 0 -1440 l-2 -288 -285 0 -285 0 0 1150 0 1150 -865 0
-865 0 0 -285 0 -285 575 0 575 0 0 -290 0 -290 -575 0 -575 0 0 -285 0 -285
575 0 575 0 0 -580 0 -580 865 0 865 0 0 580 0 580 575 0 575 0 0 285 0 285
-575 0 -575 0 -2 1153 -3 1152 -285 2 c-157 2 -414 3 -572 3 l-288 0 0 285 0
285 575 0 575 0 0 575 0 575 290 0 290 0 0 -1725 0 -1725 285 0 285 0 0 2880
0 2880 290 0 290 0 0 -575 0 -575 575 0 575 0 0 -290 0 -290 -575 0 -575 0 0
-290 0 -291 288 1 c158 0 416 0 575 0 l287 0 0 -285 0 -285 -575 0 -575 0 0
-290 0 -290 1150 0 1150 0 0 -865 0 -865 -285 0 -285 0 -2 578 -3 577 -862 2
-863 3 0 -290 0 -290 575 0 575 0 0 -290 0 -290 -575 0 -575 0 0 -285 0 -285
1440 0 1440 0 0 575 0 575 865 0 865 0 0 -2305 0 -2305 285 0 285 0 0 575 0
575 290 0 290 0 0 -865 0 -865 -865 0 -865 0 0 580 0 580 -1150 0 -1150 0 0
285 0 285 1150 0 1150 0 0 290 0 290 -575 0 -575 0 0 290 0 290 575 0 575 0 0
860 0 860 -290 0 -290 0 2 -575 3 -575 -1152 0 -1153 0 0 -285 0 -285 575 0
575 0 0 -290 0 -290 -865 0 -865 0 0 575 0 575 -285 0 -285 0 0 -865 0 -865
575 0 575 0 0 -575 0 -575 1150 0 1150 0 0 -287 c0 -159 0 -417 0 -576 l-1
-287 581 0 580 0 0 -290 0 -290 -1155 0 -1155 0 0 -575 0 -575 -285 0 -285 0
0 288 c0 158 0 416 0 574 l1 288 -291 0 -290 0 0 -575 0 -575 -865 0 -865 0 0
290 0 290 575 0 575 0 0 285 0 285 -575 0 -575 0 0 290 0 290 1730 0 1730 0 0
285 0 285 -1155 0 -1155 0 0 580 0 580 -285 0 -285 0 0 -580 0 -580 -290 0
-290 0 0 1155 0 1155 -285 0 -285 0 0 -575 0 -575 -577 -2 -578 -3 -3 -577 -2
-578 -285 0 -285 0 -2 578 -3 577 -287 3 -288 2 0 -865 0 -865 575 0 575 0 0
-575 0 -575 290 0 290 0 0 1150 0 1150 290 0 290 0 0 -1440 0 -1440 -865 0
-865 0 0 575 0 575 -290 0 -290 0 0 -575 0 -575 -3170 0 -3170 0 0 290 0 290
580 0 580 0 0 285 0 285 -580 0 -580 0 0 290 0 290 1155 0 1155 0 0 285 0 285
-1155 0 -1155 0 0 290 0 290 580 0 580 0 -2 287 -3 288 -577 3 -578 2 0 285 0
285 578 2 577 3 3 288 2 287 -580 0 -580 0 0 2590 0 2590 578 2 577 3 3 288 2
287 -580 0 -580 0 0 865 0 865 580 0 580 0 0 285 0 285 -580 0 -580 0 0 865 0
865 290 0 290 0 0 -575 0 -575 865 0 865 0 0 290 0 290 -575 0 -575 0 0 285 0
285 1440 0 1440 0 0 -1725 0 -1725 285 0 285 0 0 2015 0 2015 -1725 0 -1725 0
0 290 0 290 575 0 575 0 0 285 0 285 -865 0 -865 0 0 -575 0 -575 -290 0 -290
0 0 2015 0 2015 290 0 290 0 0 -1150 0 -1150 1730 0 1730 0 0 -290 0 -290
-575 0 -575 0 0 -285 0 -285 860 0 860 0 0 1435 0 1435 -285 0 -285 0 0 -575
0 -575 -1440 0 -1440 0 0 290 0 290 1150 0 1150 0 0 285 0 285 -575 0 -575 0
0 865 0 865 288 0 c158 0 416 0 575 0 l287 -1 0 291 0 290 -865 0 -865 0 0
-1155 0 -1155 -285 0 -285 0 -2 578 -3 577 -577 3 -578 2 0 1150 0 1150 -285
0 -285 0 0 -11235z M1440 22465 l0 -865 288 2 287 3 3 578 2 577 1440 0 1440
0 0 -865 0 -865 -575 0 -575 0 0 -290 0 -290 1150 0 1150 0 0 -2880 0 -2880
285 0 285 0 0 575 0 575 578 2 577 3 3 288 2 287 -580 0 -580 0 2 288 3 287
578 3 577 2 0 285 0 285 -580 0 -580 0 0 865 0 865 1155 0 1155 0 0 285 0 285
-575 0 -575 0 -2 578 -3 577 -287 3 -288 2 0 -580 0 -580 -287 2 -288 3 -3
578 -2 577 -575 0 -575 0 0 865 0 865 865 0 865 0 0 -290 0 -290 -575 0 -575
0 0 -290 0 -290 1440 0 1440 0 0 290 0 290 -575 0 -575 0 0 290 0 290 1440 0
1440 0 0 -1155 0 -1155 285 0 285 0 0 1155 0 1155 290 0 290 0 0 -1155 0
-1155 288 2 287 3 2 575 c2 316 3 835 3 1153 l0 577 860 0 860 0 0 -290 0
-290 -575 0 -575 0 0 -1155 0 -1155 -575 0 -575 0 0 -575 0 -575 -575 0 -575
0 0 -860 0 -860 285 0 285 0 0 575 0 575 580 0 581 0 -1 288 c0 158 0 416 0
575 l0 287 575 0 575 0 0 1150 0 1150 288 0 c158 0 416 0 575 0 l287 -1 0 581
0 580 2595 0 2595 0 0 -290 0 -290 -1730 0 -1730 0 0 -290 0 -290 1153 0 c633
0 1412 0 1730 0 l577 0 0 -575 0 -575 285 0 285 0 0 575 0 575 288 0 c158 0
416 0 575 0 l287 -1 0 291 0 290 -575 0 -575 0 0 290 0 290 865 0 865 0 0
-3745 0 -3745 -290 0 -290 0 0 575 0 575 -1150 0 -1150 0 0 290 0 290 1150 0
1150 0 0 860 0 860 -285 0 -285 0 0 -575 0 -575 -865 0 -865 0 0 290 0 290
575 0 575 0 0 285 0 285 -575 0 -575 0 0 290 0 290 1150 0 1150 0 0 865 0 865
-285 0 -285 0 0 -580 0 -580 -865 0 -865 0 0 580 0 580 -1440 0 -1440 0 0
-290 0 -290 1150 0 1150 0 0 -290 0 -290 -1725 0 -1725 0 0 -285 0 -285 575 0
575 0 0 -575 0 -575 285 0 285 0 0 575 0 575 865 0 865 0 0 -865 0 -865 -285
0 -285 0 0 575 0 575 -290 0 -290 0 0 -860 0 -860 575 0 575 0 2 -577 3 -578
1153 -3 1152 -2 0 -285 0 -285 -575 0 -575 0 0 -1155 0 -1155 -865 0 -865 0 0
575 0 575 -580 0 -580 0 0 290 0 290 865 0 865 0 0 -575 0 -575 290 0 290 0 0
865 0 865 -575 0 -575 0 0 575 0 575 -580 0 -580 0 0 575 0 575 -860 0 -860 0
0 -285 0 -285 575 0 575 0 0 -290 0 -290 -575 0 -575 0 0 -290 0 -290 1150 0
1150 0 0 -285 0 -285 -287 0 c-159 0 -676 0 -1150 0 l-863 0 0 -290 0 -290
575 0 575 0 0 -575 0 -575 575 0 575 0 2 -1152 3 -1153 285 0 285 0 3 578 2
577 285 0 285 0 0 -1155 0 -1155 865 0 865 0 0 290 0 290 -575 0 -575 0 0 285
0 285 288 0 c158 0 416 0 575 0 l287 -1 0 291 0 290 -575 0 -575 0 0 290 0
290 575 0 575 0 0 575 0 575 290 0 290 0 0 -575 0 -575 285 0 285 0 0 860 0
860 -575 0 -575 0 0 290 0 290 865 0 865 0 0 -2592 0 -2593 -290 3 -290 3 0
1149 0 1150 -285 0 -285 0 0 -1152 0 -1153 -1152 0 -1153 0 -3 -287 -2 -288
1155 0 1155 0 0 -290 0 -290 -575 0 -575 0 0 -860 0 -860 285 0 285 0 0 575 0
575 575 0 575 0 0 575 0 575 290 0 290 0 0 -865 0 -865 -575 0 -575 0 0 -285
0 -285 575 0 575 0 0 -2885 0 -2885 288 2 287 3 2 11233 3 11232 -10660 0
-10660 0 0 -865z"/>
</g>
</svg>
