<?xml version="1.0" standalone="no"?>
<!DOCTYPE svg PUBLIC "-//W3C//DTD SVG 20010904//EN"
 "http://www.w3.org/TR/2001/REC-SVG-20010904/DTD/svg10.dtd">
<svg version="1.0" xmlns="http://www.w3.org/2000/svg"
 width="2362.000000pt" height="2362.000000pt" viewBox="0 0 2362.000000 2362.000000"
 preserveAspectRatio="xMidYMid meet">
<metadata>
Created by potrace 1.16, written by Peter Selinger 2001-2019
</metadata>
<g transform="translate(0.000000,2362.000000) scale(0.100000,-0.100000)"
fill="#000000" stroke="none">
<path d="M290 12095 l0 -11235 10655 0 10655 0 0 290 0 290 -1725 0 -1725 0 0
290 0 290 1150 0 1150 0 0 285 0 285 -1730 0 -1730 0 0 290 0 290 580 0 580 0
0 1440 0 1440 -865 0 -865 0 0 -290 0 -290 575 0 575 0 0 -865 0 -865 -290 0
-290 0 0 580 0 580 -285 0 -285 0 0 -580 0 -580 -1440 0 -1440 0 0 580 0 580
-287 -2 -288 -3 -3 -863 -2 -862 1730 0 1730 0 0 -575 0 -575 575 0 575 0 0
-290 0 -290 -865 0 -865 0 0 575 0 575 -865 0 -865 0 0 -285 0 -285 580 0 580
0 0 -290 0 -290 -865 0 -865 0 0 575 0 575 -290 0 -290 0 0 -575 0 -575 -865
0 -865 0 0 290 0 290 580 0 580 0 0 860 0 860 -865 0 -865 0 0 -285 0 -285
575 0 575 0 0 -290 0 -290 -575 0 -575 0 0 -575 0 -575 -2020 0 -2020 0 0 290
0 290 1730 0 1730 0 0 285 0 285 -1730 0 -1730 0 0 575 0 575 -285 0 -285 0 0
-1150 0 -1150 -865 0 -865 0 0 865 0 865 290 0 290 0 0 -575 0 -575 285 0 285
0 0 860 0 860 -860 0 -860 0 0 -1150 0 -1150 -290 0 -290 0 0 575 0 575 -290
0 -290 0 0 -575 0 -575 -865 0 -865 0 0 290 0 290 580 0 580 0 0 285 0 285
-580 0 -580 0 0 290 0 290 1155 0 1155 0 0 285 0 285 -1155 0 -1155 0 0 290 0
290 1155 0 1155 0 0 290 0 290 -1155 0 -1155 0 0 1440 0 1440 865 0 865 0 0
-290 0 -290 -575 0 -575 0 0 -285 0 -285 575 0 575 0 0 -290 0 -290 -575 0
-575 0 0 -290 0 -290 1155 0 1155 0 0 -575 0 -575 1725 0 1725 0 0 -575 0
-575 290 0 290 0 -2 862 -3 863 -1727 3 -1728 2 0 285 0 285 2015 0 2015 0 0
-862 c0 -475 0 -992 0 -1151 l-1 -287 866 0 865 0 0 575 0 575 1155 0 1155 0
-3 862 -2 863 -287 3 -288 2 0 -575 0 -575 -290 0 -290 0 0 575 0 575 -860 0
-860 0 0 -290 0 -290 575 0 575 0 0 -285 0 -285 -575 0 -575 0 0 -580 0 -580
-290 0 -290 0 0 1155 0 1155 -575 0 -575 0 0 290 0 290 1150 0 1150 0 0 575 0
575 575 0 575 0 0 285 0 285 -1440 0 -1440 0 0 -285 0 -285 580 0 580 0 0
-290 0 -290 -865 0 -865 0 0 865 0 865 575 0 575 0 -2 288 -3 287 -860 0 -860
0 -3 -1728 -2 -1727 -1440 0 -1440 0 0 290 0 290 1150 0 1150 0 0 860 0 860
-285 0 -285 0 0 -575 0 -575 -1150 0 -1150 0 0 -575 0 -575 -290 0 -290 0 0
1440 0 1440 290 0 290 0 0 -575 0 -575 860 0 860 0 0 285 0 285 -575 0 -575 0
0 580 0 581 -287 -1 c-159 0 -417 0 -575 0 l-288 0 0 285 0 285 865 0 865 0 0
-575 0 -575 285 0 285 0 0 575 0 575 290 0 290 0 0 -575 0 -575 285 0 285 0 0
575 0 575 580 0 580 0 0 290 0 290 -2305 0 -2305 0 0 285 0 285 288 0 c158 0
675 0 1150 0 l862 0 0 865 0 865 -285 0 -285 0 0 -575 0 -575 -290 0 -290 0 0
1730 0 1730 -285 0 -285 0 0 -1155 0 -1155 -865 0 -865 0 0 290 0 290 575 0
575 0 0 865 0 865 -287 -2 -288 -3 -3 -577 -2 -578 -575 0 -575 0 0 -860 0
-860 1153 -2 1152 -3 3 -287 2 -288 -580 0 -580 0 0 -1730 0 -1730 -865 0
-865 0 0 290 0 290 580 0 580 0 -2 288 -3 287 -285 2 c-157 2 -417 3 -577 3
l-293 0 0 860 0 860 290 0 290 0 0 -575 0 -575 288 2 287 3 2 863 3 862 -580
0 -580 0 0 1440 0 1440 580 0 580 0 -2 288 -3 287 -577 3 -578 2 0 865 0 865
580 0 580 0 0 285 0 285 -580 0 -580 0 0 290 0 290 865 0 865 0 0 -865 0 -865
-575 0 -575 0 0 -290 0 -290 865 0 865 0 0 580 0 580 575 0 575 0 0 285 0 285
-575 0 -575 0 0 865 0 865 575 0 575 0 0 1150 0 1150 285 0 c157 0 418 0 580
0 162 0 423 0 580 0 l285 0 0 -575 0 -575 285 0 285 0 0 865 0 865 -1435 0
-1435 0 -2 -1152 -3 -1153 -1152 -3 -1153 -2 0 -285 0 -285 575 0 575 0 0
-290 0 -290 -865 0 -865 0 0 865 0 865 578 2 577 3 2 863 3 862 -290 0 -290 0
0 -575 0 -575 -290 0 -290 0 0 1150 0 1150 -285 0 -285 0 0 -11235z M1440
23045 l0 -285 575 0 575 0 0 -1155 0 -1155 290 0 290 0 0 1155 0 1155 3170 0
3170 0 0 -290 0 -290 -1155 0 -1155 0 0 -865 0 -865 290 0 290 0 0 575 0 575
288 0 c158 0 675 0 1150 0 l862 0 0 580 0 580 1440 0 1440 0 0 -865 0 -865
-285 0 -285 0 0 288 c0 158 0 416 0 575 l1 287 -866 0 -865 0 0 -575 0 -575
-1152 -2 -1153 -3 -3 -577 -2 -578 -1440 0 -1440 0 0 580 0 580 -285 0 -285 0
0 -1155 0 -1155 -575 0 -575 0 0 -285 0 -285 860 0 860 0 0 575 0 575 1440 0
1440 0 0 -290 0 -290 -1150 0 -1150 0 0 -575 0 -575 -575 0 -575 0 0 -575 0
-575 -575 0 -575 0 0 -290 0 -290 1435 0 1435 0 0 290 0 290 -575 0 -575 0 0
290 0 290 575 0 575 0 0 575 0 575 290 0 290 0 0 -575 0 -575 865 0 865 0 0
285 0 285 -575 0 -575 0 0 290 0 290 575 0 575 0 0 575 0 575 575 0 575 0 0
285 0 285 -575 0 -575 0 0 290 0 290 1150 0 1150 0 0 575 0 575 290 0 290 0 0
-575 0 -575 865 0 865 0 0 575 0 575 288 0 c158 0 675 0 1150 0 l862 0 0 290
0 290 -1150 0 -1150 0 0 290 0 290 1440 0 1440 0 0 -865 0 -865 -1152 -2
-1153 -3 0 -285 0 -285 578 -3 577 -2 0 -290 0 -290 -580 0 -580 0 2 -575 3
-575 -287 0 -288 0 0 575 0 575 -1440 0 -1440 0 0 -860 0 -860 865 0 865 0 0
285 0 285 -580 0 -580 0 0 290 0 290 865 0 865 0 0 -865 0 -865 -575 0 -575 0
0 -285 0 -285 1150 0 1150 0 0 -292 c0 -161 1 -421 3 -578 l2 -285 1153 -3
1152 -2 0 -575 0 -575 285 0 285 0 0 865 0 865 -1150 0 -1150 0 0 290 0 290
575 0 575 0 0 285 0 285 -1150 0 -1150 0 0 290 0 290 575 0 575 0 0 575 0 575
575 0 575 0 0 575 0 575 575 0 575 0 0 1155 0 1155 865 0 865 0 0 -290 0 -290
-575 0 -575 0 0 -290 0 -290 865 0 865 0 0 580 0 580 290 0 290 0 0 -1155 0
-1155 285 0 285 0 0 575 0 575 288 0 c158 0 416 0 575 0 l287 -1 0 291 0 290
-575 0 -575 0 0 290 0 290 865 0 865 0 0 -865 0 -865 -575 0 -575 0 0 -865 0
-865 285 0 285 0 0 575 0 575 290 0 290 0 0 -1440 0 -1440 -290 0 -290 0 0
575 0 575 -285 0 -285 0 0 -1150 0 -1150 -1155 0 -1155 0 2 -287 3 -288 1153
-3 1152 -2 0 -285 0 -285 -577 -2 c-318 -2 -966 -2 -1440 0 l-863 2 0 865 0
865 1150 0 1150 0 0 285 0 285 -575 0 -575 0 0 290 0 290 575 0 575 0 0 860 0
860 -285 0 -285 0 0 -575 0 -575 -290 0 -290 0 0 1155 0 1155 -865 0 -865 0 0
-290 0 -290 575 0 575 0 0 -290 0 -290 -1150 0 -1150 0 0 -285 0 -285 1150 0
1150 0 0 -865 0 -865 -285 0 -285 0 0 575 0 575 -1440 0 -1440 0 0 -285 0
-285 575 0 575 0 0 -575 0 -575 285 0 285 0 0 575 0 575 290 0 290 0 0 -1730
0 -1730 575 0 575 0 0 -575 0 -575 580 0 580 0 0 -290 0 -290 -580 0 -580 0 0
-285 0 -285 580 0 580 0 0 -290 0 -290 -865 0 -865 0 0 1150 0 1150 -290 0
-290 0 0 -2300 0 -2300 -282 0 c-156 0 -545 -1 -866 -3 l-582 -2 0 288 0 287
575 0 575 0 0 290 0 290 -1150 0 -1150 0 0 865 0 865 865 0 865 0 0 -290 0
-290 -575 0 -575 0 0 -290 0 -290 860 0 860 0 0 865 0 865 -575 0 -575 0 0
290 0 290 575 0 575 0 0 285 0 285 -860 0 -860 0 0 -575 0 -575 -290 0 -290 0
0 865 0 865 575 0 575 0 0 290 0 290 -862 0 c-475 0 -992 0 -1150 0 l-288 0 0
575 0 575 -1155 0 -1155 0 0 575 0 575 -285 0 -285 0 0 -865 0 -865 1150 0
1150 0 0 -285 0 -285 -287 0 c-159 0 -676 0 -1150 0 l-863 0 0 -290 0 -290
575 0 575 0 0 -865 0 -865 -575 0 -575 0 0 -285 0 -285 575 0 575 0 0 -290 0
-290 -865 0 -865 0 0 575 0 575 -285 0 -285 0 0 -575 0 -575 -290 0 -290 0 0
575 0 575 -575 0 -575 0 0 290 0 290 1725 0 1725 0 0 285 0 285 -2880 0 -2880
0 0 290 0 290 1730 0 1730 0 0 575 0 575 290 0 290 0 0 -575 0 -575 285 0 285
0 0 2015 0 2015 -285 0 -285 0 0 -1150 0 -1150 -1155 0 -1155 0 0 -290 0 -290
575 0 575 0 0 -285 0 -285 -862 0 c-475 0 -1251 0 -1725 0 l-863 0 0 -865 0
-865 1150 0 1150 0 0 -290 0 -290 -575 0 -575 0 0 -865 0 -865 863 3 862 2 3
288 2 287 -580 0 -580 0 0 290 0 290 865 0 865 0 2 -577 3 -578 2015 0 2015 0
2 865 c2 476 3 994 3 1153 l0 287 285 0 285 0 0 -1440 0 -1440 -1150 0 -1150
0 0 -577 0 -578 -290 0 -290 0 0 578 0 577 -862 -2 -863 -3 0 -285 0 -285 578
-3 577 -2 0 -575 0 -575 860 0 860 0 0 575 0 575 290 0 290 0 0 -575 0 -575
290 0 291 0 -1 287 c0 159 0 417 0 576 l0 287 575 0 575 0 0 2015 0 2015 -575
0 -575 0 0 290 0 290 860 0 860 0 0 -287 c0 -159 1 -1195 3 -2303 l2 -2015
578 -3 577 -2 0 -285 0 -285 -287 0 c-159 0 -418 -1 -578 -3 l-290 -2 -2 -290
c-2 -159 -3 -419 -3 -577 l0 -288 -285 0 -285 0 -2 578 -3 577 -285 0 -285 0
-3 -577 -2 -578 -575 0 -575 0 0 -285 0 -285 575 0 575 0 0 -290 0 -290 -1150
0 -1150 0 0 -285 0 -285 1150 0 1150 0 2 -577 3 -578 573 -3 572 -2 0 -288 c0
-158 1 -415 3 -572 l2 -285 288 -3 287 -2 0 575 0 575 290 0 290 0 0 -575 0
-575 285 0 285 0 0 1440 0 1440 -285 0 -285 0 0 -575 0 -575 -290 0 -290 0 0
575 0 575 -290 0 -291 0 1 -288 c0 -158 0 -416 0 -574 l0 -288 -285 0 -285 0
0 865 0 865 575 0 575 0 0 575 0 575 865 0 865 0 0 -290 0 -290 -575 0 -575 0
0 -285 0 -285 575 0 575 0 0 -575 0 -575 1440 0 1440 0 0 860 0 860 -290 0
-290 0 0 -575 0 -575 -865 0 -865 0 0 865 0 865 290 0 290 0 0 -575 0 -575
290 0 290 0 0 575 0 575 575 0 575 0 -2 288 -3 287 -285 2 c-157 2 -414 3
-572 3 l-288 0 0 860 0 860 285 0 285 0 0 -575 0 -575 290 0 290 0 0 575 0
575 288 0 c158 0 416 0 575 0 l287 -1 0 1156 0 1155 290 0 290 0 0 -575 0
-575 285 0 285 0 0 860 0 860 -1150 0 -1150 0 0 290 0 290 1150 0 1150 0 0
1155 0 1155 290 0 290 0 0 -3170 0 -3170 -290 0 -290 0 0 575 0 575 -285 0
-285 0 0 -575 0 -575 -575 0 -575 0 0 -290 0 -290 1150 0 1150 0 0 -287 0
-288 -1150 2 -1150 3 0 -290 0 -290 1150 0 1150 0 0 -290 0 -290 -1150 0
-1150 0 0 -285 0 -285 1150 0 1150 0 0 -290 0 -290 -575 0 -575 0 0 -575 0
-575 -290 0 -290 0 0 575 0 575 -285 0 -285 0 0 -575 0 -575 -580 0 -580 0 2
-287 3 -288 578 -3 577 -2 0 -575 0 -575 285 0 285 0 0 575 0 575 575 0 575 0
0 580 0 580 290 0 290 0 0 -1445 0 -1445 -290 0 -290 0 0 580 0 580 -285 0
-285 0 0 -580 0 -580 -865 0 -865 0 0 580 0 580 -287 -2 -288 -3 -3 -862 -2
-863 1155 0 1155 0 0 -575 0 -575 285 0 285 0 0 575 0 575 290 0 290 0 0
-1155 0 -1155 288 2 287 3 2 11233 3 11232 -10660 0 -10660 0 0 -285z"/>
</g>
</svg>
