<?xml version="1.0" standalone="no"?>
<!DOCTYPE svg PUBLIC "-//W3C//DTD SVG 20010904//EN"
 "http://www.w3.org/TR/2001/REC-SVG-20010904/DTD/svg10.dtd">
<svg version="1.0" xmlns="http://www.w3.org/2000/svg"
 width="2362.000000pt" height="2362.000000pt" viewBox="0 0 2362.000000 2362.000000"
 preserveAspectRatio="xMidYMid meet">
<metadata>
Created by potrace 1.16, written by Peter Selinger 2001-2019
</metadata>
<g transform="translate(0.000000,2362.000000) scale(0.100000,-0.100000)"
fill="#000000" stroke="none">
<path d="M290 12095 l0 -11235 10655 0 10655 0 0 290 0 290 -9215 0 -9215 0 0
290 0 290 575 0 575 0 0 285 0 285 -865 0 -865 0 0 -575 0 -575 -285 0 -285 0
0 288 c0 158 0 416 0 575 l1 287 -291 0 -290 0 0 -575 0 -575 -290 0 -290 0 0
865 0 865 580 0 580 0 -3 863 -2 862 -287 3 -288 2 0 -580 0 -580 -290 0 -290
0 0 2020 0 2020 290 0 290 0 0 -1155 0 -1155 288 2 287 3 3 578 2 577 285 0
285 0 0 -1730 0 -1730 290 0 290 0 0 1150 0 1150 575 0 575 0 0 580 0 580
1150 0 1150 0 0 285 0 285 -1150 0 -1150 0 0 290 0 290 575 0 575 0 0 285 0
285 -575 0 -575 0 0 580 0 581 -287 -1 c-159 0 -417 0 -575 0 l-288 0 0 285 0
285 865 0 865 0 0 -575 0 -575 285 0 285 0 0 575 0 575 1155 0 1155 0 0 290 0
290 -580 0 -580 0 0 285 0 285 578 2 577 3 3 578 2 577 285 0 285 0 0 -577 c0
-318 1 -837 3 -1153 l2 -575 288 -3 287 -2 0 575 0 575 290 0 290 0 0 -860 0
-860 -292 0 c-161 0 -940 0 -1730 0 l-1438 0 0 -865 0 -865 285 0 285 0 0 575
0 575 290 0 290 0 0 -1440 0 -1440 -1150 0 -1150 0 0 -575 0 -575 -575 0 -575
0 0 -290 0 -290 1150 0 1150 0 0 -290 0 -290 -1150 0 -1150 0 0 -285 0 -285
2015 0 2015 0 0 285 0 285 -577 2 -578 3 -3 288 -2 287 580 0 580 0 -2 288 -3
287 -1152 3 -1153 2 0 285 0 285 1730 0 1730 0 0 290 0 290 -575 0 -575 0 0
1440 0 1440 865 0 865 0 0 -290 0 -290 -580 0 -580 0 0 -860 0 -860 290 0 290
0 0 575 0 575 1150 0 1150 0 0 285 0 285 -575 0 -575 0 0 1730 0 1730 -575 0
-575 0 0 865 0 865 575 0 575 0 0 285 0 285 -865 0 -865 0 0 -575 0 -575 -865
0 -865 0 0 575 0 575 -285 0 -285 0 0 -575 0 -575 -865 0 -865 0 0 290 0 290
575 0 575 0 0 575 0 575 575 0 575 0 0 290 0 290 -575 0 -575 0 0 285 0 285
575 0 575 0 0 290 0 290 -575 0 -575 0 0 865 0 865 290 0 290 0 0 -575 0 -575
865 0 865 0 0 860 0 860 -290 0 -290 0 0 -575 0 -575 -290 0 -290 0 0 1440 0
1440 580 0 580 0 0 575 0 575 288 0 c158 0 416 0 575 0 l287 -1 0 291 0 290
-1440 0 -1440 0 0 -290 0 -291 288 1 c158 0 416 0 575 0 l287 0 0 -285 0 -285
-575 0 -575 0 0 -1155 0 -1155 -575 0 -575 0 0 -575 0 -575 -575 0 -575 0 0
-285 0 -285 575 0 575 0 0 -290 0 -290 -575 0 -575 0 0 -290 0 -290 575 0 575
0 0 -865 0 -865 -290 0 -290 0 0 580 0 580 -285 0 -285 0 0 -1440 0 -1440
1725 0 1725 0 0 -290 0 -290 -575 0 -575 0 0 -575 0 -575 -290 0 -290 0 0 575
0 575 -285 0 -285 0 0 -575 0 -575 -1155 0 -1155 0 0 -575 0 -575 -287 0
c-159 0 -416 -1 -573 -3 l-285 -2 -3 -287 -2 -288 1155 0 1155 0 0 -1440 0
-1440 -290 0 -290 0 0 1150 0 1150 -290 0 -290 0 0 -575 0 -575 -285 0 -285 0
0 288 c0 158 0 416 0 575 l1 287 -581 0 -580 0 0 865 0 865 578 2 577 3 3 573
2 572 288 0 c158 0 675 0 1150 0 l862 0 0 290 0 290 -575 0 -575 0 0 1730 0
1730 -287 -2 -288 -3 -3 -1152 -2 -1153 -285 0 -285 0 0 575 0 575 -290 0
-290 0 0 -860 0 -860 575 0 575 0 0 -290 0 -290 -575 0 -575 0 0 -575 0 -575
-290 0 -290 0 0 2015 0 2015 580 0 580 0 -2 288 -3 287 -577 3 -578 2 0 285 0
285 1155 0 1155 0 0 290 0 290 -575 0 -575 0 0 290 0 290 575 0 575 0 0 575 0
575 575 0 575 0 0 285 0 285 -575 0 -575 0 0 575 0 575 -575 0 -575 0 -2 578
-3 577 -287 3 -288 2 0 -1440 0 -1440 290 0 291 0 -1 288 c0 158 0 416 0 575
l0 287 285 0 285 0 0 -865 0 -865 -575 0 -575 0 0 -575 0 -575 -290 0 -290 0
0 2590 0 2590 578 0 c317 0 1096 0 1730 0 l1152 0 0 290 0 290 -1730 0 -1730
0 0 575 0 575 -285 0 -285 0 0 -11235z M1440 23045 l0 -285 1730 0 1730 0 0
-865 0 -865 -1155 0 -1155 0 0 -290 0 -290 580 0 580 0 0 -575 0 -575 285 0
285 0 0 575 0 575 290 0 290 0 0 -575 0 -575 285 0 285 0 0 1730 0 1730 2020
0 2020 0 0 -580 0 -580 575 0 575 0 0 -575 0 -575 575 0 575 0 0 -575 0 -575
290 0 291 0 -1 288 c0 158 0 416 0 575 l0 287 1150 0 1150 0 0 865 0 865
-1440 0 -1440 0 0 -290 0 -291 288 1 c158 0 675 0 1150 0 l862 0 0 -285 0
-285 -1440 0 -1440 0 0 575 0 575 -575 0 -575 0 0 290 0 290 2595 0 2595 0 0
-580 0 -580 285 0 285 0 0 580 0 580 865 0 865 0 0 -290 0 -290 -575 0 -575 0
0 -865 0 -865 575 0 575 0 0 -575 0 -575 290 0 290 0 -2 863 -3 862 -577 3
-578 2 0 285 0 285 578 0 c317 0 837 0 1155 0 l577 0 0 290 0 290 -575 0 -575
0 0 290 0 290 2015 0 2015 0 0 -865 0 -865 -290 0 -290 0 0 575 0 575 -860 0
-860 0 0 -290 0 -290 575 0 575 0 0 -285 0 -285 -1152 -2 -1153 -3 -3 -862 -2
-863 290 0 290 0 0 575 0 575 865 0 865 0 0 -290 0 -290 -575 0 -575 0 0 -285
0 -285 575 0 575 0 0 -575 0 -575 285 0 285 0 0 1150 0 1150 290 0 290 0 0
-2590 0 -2590 -290 0 -290 0 0 575 0 575 -285 0 -285 0 0 -1440 0 -1440 285 0
285 0 0 575 0 575 290 0 290 0 0 -865 0 -865 -575 0 -575 0 0 -285 0 -285 575
0 575 0 0 -865 0 -865 -575 0 -575 0 0 -865 0 -865 285 0 285 0 0 575 0 575
290 0 290 0 0 -865 0 -865 -865 0 -865 0 0 580 0 580 -285 0 -285 0 0 -865 0
-865 575 0 575 0 0 -575 0 -575 285 0 285 0 0 575 0 575 290 0 290 0 0 -1440
0 -1440 -290 0 -290 0 0 575 0 575 -575 0 -575 0 0 575 0 575 -575 0 -575 0
-2 1153 -3 1152 -860 2 c-473 2 -992 3 -1152 3 l-293 0 0 285 0 285 1730 0
1730 0 0 290 0 290 -1730 0 -1730 0 0 575 0 575 -575 0 -575 0 0 290 0 290
865 0 865 0 2 -577 3 -578 863 -2 862 -3 0 290 0 290 -575 0 -575 0 0 290 0
290 865 0 865 0 0 -580 0 -580 860 0 860 0 0 290 0 290 -575 0 -575 0 0 1150
0 1150 -285 0 -285 0 0 -575 0 -575 -2020 0 -2020 0 0 290 0 290 1155 0 1155
0 0 575 0 575 285 0 285 0 0 -575 0 -575 290 0 290 0 0 575 0 575 575 0 575 0
0 865 0 865 -285 0 -285 0 0 -575 0 -575 -290 0 -290 0 0 575 0 575 -290 0
-290 0 0 -575 0 -575 -285 0 -285 0 0 575 0 575 -580 0 -580 0 2 288 3 287
1153 3 1152 2 0 285 0 285 -575 0 -575 0 0 290 0 290 865 0 865 0 0 -575 0
-575 860 0 860 0 0 285 0 285 -575 0 -575 0 0 575 0 575 -1440 0 -1440 0 0
-575 0 -575 -290 0 -290 0 0 575 0 575 -1440 0 -1440 0 0 -862 c0 -475 0 -992
0 -1150 l0 -288 -285 0 -285 0 0 575 0 575 -290 0 -290 0 0 -865 0 -865 575 0
575 0 0 -287 c0 -159 1 -416 3 -573 l2 -285 863 -3 862 -2 0 865 0 865 -285 0
-285 0 0 -575 0 -575 -290 0 -290 0 0 1440 0 1440 865 0 865 0 0 -290 0 -290
-575 0 -575 0 0 -285 0 -285 575 0 575 0 0 -580 0 -580 575 0 575 0 0 -865 0
-865 -290 0 -290 0 0 580 0 580 -285 0 -285 0 0 -580 0 -580 -1155 0 -1155 0
0 -285 0 -285 580 0 580 0 0 -1155 0 -1156 288 1 c158 0 416 0 575 0 l287 0 0
-1440 0 -1440 -290 0 -290 0 0 1155 0 1155 -285 0 -285 0 0 -575 0 -575 -287
0 c-159 0 -418 -1 -578 -3 l-290 -2 -2 -290 c-2 -159 -3 -419 -3 -577 l0 -288
-860 0 -860 0 -2 578 -3 577 -577 3 -578 2 0 285 0 285 578 2 577 3 0 285 0
285 -577 3 -578 2 0 285 0 285 578 2 c317 2 706 2 865 0 l287 -2 0 -1150 0
-1150 290 0 290 0 0 575 0 575 575 0 575 0 0 290 0 290 -575 0 -575 0 0 285 0
285 288 0 c158 0 416 0 575 0 l287 -1 0 291 0 290 -575 0 -575 0 0 290 0 290
575 0 575 0 0 285 0 285 -1150 0 -1150 0 0 290 0 290 575 0 575 0 -2 863 -3
862 -285 0 -285 0 -3 -577 -2 -578 -285 0 -285 0 0 578 c0 317 -1 836 -3 1152
l-2 575 -287 3 -288 2 0 -575 0 -575 -290 0 -290 0 0 575 0 575 -1150 0 -1150
0 0 1440 0 1440 290 0 290 0 0 -1150 0 -1150 1440 0 1440 0 0 285 0 285 -1155
0 -1155 0 0 290 0 290 1730 0 1730 0 0 575 0 575 1725 0 1725 0 0 285 0 285
-575 0 -575 0 0 580 0 580 -285 0 -285 0 0 -580 0 -580 -1155 0 -1155 0 0
-575 0 -575 -1440 0 -1440 0 0 290 0 290 575 0 575 0 0 285 0 285 -575 0 -575
0 0 580 0 580 -862 -2 -863 -3 -3 -287 -2 -288 580 0 580 0 -2 -287 -3 -288
-1152 -3 -1153 -2 0 -285 0 -285 575 0 575 0 0 -1152 c0 -634 1 -1412 3 -1728
l2 -575 578 -3 577 -2 0 -285 0 -285 -865 0 -865 0 0 575 0 575 -290 0 -290 0
0 -1440 0 -1440 290 0 290 0 0 575 0 575 1150 0 1150 0 0 575 0 575 290 0 290
0 0 -575 0 -575 575 0 575 0 0 -865 0 -865 -290 0 -290 0 0 575 0 575 -285 0
-285 0 0 -575 0 -575 -575 0 -575 0 0 -285 0 -285 1725 0 1725 0 0 -290 0
-290 -1150 0 -1150 0 0 -1440 0 -1440 575 0 575 0 0 -1440 0 -1440 -290 0
-290 0 0 575 0 575 -285 0 -285 0 0 -575 0 -575 -290 0 -290 0 0 575 0 575
-285 0 -285 0 0 -865 0 -865 575 0 575 0 0 -285 0 -285 -1152 -2 -1153 -3 -2
-863 -3 -862 290 0 290 0 0 575 0 575 865 0 865 0 0 -290 0 -290 -575 0 -575
0 0 -575 0 -575 -2305 0 -2305 0 0 -285 0 -285 2590 0 2590 0 0 575 0 575
1440 0 1440 0 0 -290 0 -290 -1150 0 -1150 0 0 -285 0 -285 1440 0 1440 0 0
860 0 860 -1155 0 -1155 0 0 290 0 290 2020 0 2020 0 0 -290 0 -290 -580 0
-580 0 0 -860 0 -860 1440 0 1440 0 0 575 0 575 290 0 290 0 0 -575 0 -575
290 0 290 0 -2 1438 -3 1437 -287 3 -288 2 0 -580 0 -580 -575 0 -575 0 0
-575 0 -575 -865 0 -865 0 0 290 0 290 575 0 575 0 0 575 0 575 575 0 575 0 0
865 0 865 -285 0 -285 0 0 -575 0 -575 -865 0 -865 0 0 575 0 575 -287 -2
-288 -3 -2 -285 c-2 -157 -3 -414 -3 -572 l0 -288 -1440 0 -1440 0 0 285 0
285 1155 0 1155 0 0 865 0 865 -290 0 -290 0 0 -575 0 -575 -285 0 -285 0 -2
288 c-2 158 -2 547 0 864 l2 578 1150 0 1150 0 0 575 0 575 290 0 290 0 0
-865 0 -865 -580 0 -580 0 0 -285 0 -285 580 0 580 0 0 -580 0 -580 285 0 285
0 0 1155 0 1155 290 0 290 0 0 -575 0 -575 285 0 285 0 0 575 0 575 290 0 290
0 0 -1155 0 -1155 288 2 287 3 3 1438 2 1437 -580 0 -580 0 0 290 0 290 865 0
865 0 0 -1150 0 -1150 580 0 580 0 0 -290 0 -290 -580 0 -580 0 0 -2015 0
-2015 290 0 290 0 0 1725 0 1725 290 0 290 0 0 -1150 0 -1150 285 0 285 0 0
1150 0 1150 290 0 290 0 0 -575 0 -575 575 0 575 0 0 -290 0 -290 -575 0 -575
0 0 -575 0 -575 -575 0 -575 0 0 -285 0 -285 860 0 860 0 0 575 0 575 290 0
290 0 0 -1155 0 -1155 288 2 287 3 2 11233 3 11232 -10660 0 -10660 0 0 -285z"/>
</g>
</svg>
