<?xml version="1.0" standalone="no"?>
<!DOCTYPE svg PUBLIC "-//W3C//DTD SVG 20010904//EN"
 "http://www.w3.org/TR/2001/REC-SVG-20010904/DTD/svg10.dtd">
<svg version="1.0" xmlns="http://www.w3.org/2000/svg"
 width="2362.000000pt" height="2362.000000pt" viewBox="0 0 2362.000000 2362.000000"
 preserveAspectRatio="xMidYMid meet">
<metadata>
Created by potrace 1.16, written by Peter Selinger 2001-2019
</metadata>
<g transform="translate(0.000000,2362.000000) scale(0.100000,-0.100000)"
fill="#000000" stroke="none">
<path d="M290 12095 l0 -11235 10655 0 10655 0 0 865 0 865 -860 0 -860 0 0
-285 0 -285 575 0 575 0 0 -290 0 -290 -3170 0 -3170 0 0 575 0 575 -865 0
-865 0 0 -285 0 -285 575 0 574 0 3 -290 3 -290 -3747 0 -3748 0 0 290 0 290
580 0 580 0 0 285 0 285 -865 0 -865 0 0 -575 0 -575 -865 0 -865 0 0 575 0
575 -285 0 -285 0 0 -575 0 -575 -290 0 -290 0 0 575 0 575 -290 0 -290 0 0
-575 0 -575 -865 0 -865 0 0 865 0 865 290 0 290 0 0 -575 0 -575 290 0 291 0
-1 288 c0 158 0 416 0 575 l0 287 575 0 575 0 0 1150 0 1150 290 0 290 0 0
-1150 0 -1150 285 0 285 0 0 1150 0 1150 575 0 575 0 0 290 0 290 -1150 0
-1150 0 0 290 0 290 575 0 575 0 0 285 0 285 -1150 0 -1150 0 0 290 0 290
1150 0 1150 0 0 285 0 285 -575 0 -575 0 0 290 0 290 575 0 575 0 0 575 0 575
290 0 290 0 0 -1725 0 -1725 575 0 575 0 0 -865 0 -865 -575 0 -575 0 0 -1440
0 -1440 285 0 285 0 0 1150 0 1150 290 0 290 0 0 -575 0 -575 1150 0 1150 0 0
-575 0 -575 290 0 290 0 0 575 0 575 290 0 290 0 0 -575 0 -575 860 0 860 0 0
285 0 285 -575 0 -575 0 0 575 0 575 -575 0 -575 0 0 865 0 865 290 0 290 0 0
-575 0 -575 285 0 285 0 0 575 0 575 575 0 575 0 0 290 0 290 -575 0 -575 0 0
290 0 290 865 0 865 0 0 -865 0 -865 -575 0 -575 0 0 -865 0 -865 285 0 285 0
0 575 0 575 580 0 580 0 0 578 c0 317 0 837 0 1155 l0 577 285 0 285 0 2 -577
3 -578 2878 -3 2877 -2 0 -285 0 -285 -2877 -2 -2878 -3 -3 -577 -2 -578 -575
0 -575 0 0 -860 0 -860 290 0 291 0 -1 287 c0 159 0 417 0 576 l0 287 575 0
575 0 0 575 0 575 285 0 285 0 0 -287 c0 -159 0 -417 0 -576 l-1 -287 291 0
290 0 0 575 0 575 290 0 290 0 0 -1150 0 -1150 860 0 860 0 0 860 0 860 -285
0 -285 0 0 -575 0 -575 -290 0 -290 0 0 865 0 865 865 0 865 0 0 -1150 0
-1150 865 0 865 0 0 575 0 575 575 0 575 0 0 285 0 285 -865 0 -865 0 0 -575
0 -575 -285 0 -285 0 0 865 0 865 1440 0 1440 0 0 -575 0 -575 285 0 285 0 0
2015 0 2015 -285 0 -285 0 0 -1150 0 -1150 -290 0 -290 0 0 1150 0 1150 -1150
0 -1150 0 0 290 0 290 1150 0 1150 0 0 285 0 285 -575 0 -575 0 0 290 0 290
865 0 865 0 0 -575 0 -575 285 0 285 0 0 1440 0 1440 -285 0 -285 0 0 -577 0
-578 -582 2 c-321 2 -710 3 -865 3 l-283 0 0 860 0 860 290 0 290 0 0 -575 0
-575 285 0 285 0 0 1155 0 1155 290 0 290 0 0 -580 0 -580 285 0 285 0 0 865
0 865 -860 0 -860 0 0 -575 0 -575 -290 0 -290 0 0 1150 0 1150 -290 0 -290 0
0 -575 0 -575 -285 0 -285 0 0 865 0 865 575 0 575 0 0 290 0 290 -575 0 -575
0 0 575 0 575 -3745 0 -3745 0 0 -575 0 -575 -575 0 -575 0 0 -290 0 -290 860
0 860 0 0 575 0 575 3170 0 3170 0 0 -1440 0 -1440 -575 0 -575 0 0 -285 0
-285 1150 0 1150 0 0 -1440 0 -1440 -285 0 -285 0 0 1150 0 1150 -865 0 -865
0 0 -290 0 -291 288 1 c158 0 416 0 575 0 l287 0 0 -860 0 -860 -290 0 -290 0
0 575 0 575 -1150 0 -1150 0 0 575 0 575 -575 0 -575 0 0 865 0 865 575 0 575
0 0 285 0 285 -865 0 -865 0 0 -2015 0 -2015 290 0 290 0 0 575 0 575 285 0
285 0 0 -287 c0 -159 1 -416 3 -573 l2 -285 1153 -3 1152 -2 0 -288 0 -287
-575 3 -575 2 0 -865 0 -865 285 0 285 0 0 575 0 575 1440 0 1440 0 0 -290 0
-290 -1150 0 -1150 0 0 -285 0 -285 575 0 575 0 0 -290 0 -290 -1440 0 -1440
0 0 1155 0 1155 -287 -2 -288 -3 -2 -1437 -3 -1438 2885 0 2885 0 0 -865 0
-865 -290 0 -290 0 0 575 0 575 -2880 0 -2880 0 0 575 0 575 -575 0 -575 0 0
290 0 290 575 0 575 0 0 285 0 285 -865 0 -865 0 0 -575 0 -575 -290 0 -290 0
0 575 0 575 -285 0 -285 0 0 -575 0 -575 -290 0 -290 0 0 575 0 575 -575 0
-575 0 0 290 0 290 575 0 575 0 0 290 0 291 -287 -1 c-159 0 -417 0 -575 0
l-288 0 0 285 0 285 865 0 865 0 0 -575 0 -575 285 0 285 0 0 2015 0 2015
-860 0 -860 0 0 -575 0 -575 -865 0 -865 0 0 1150 0 1150 -865 0 -865 0 0
-1150 0 -1150 -290 0 -290 0 0 575 0 575 -575 0 -575 0 0 1440 0 1440 575 0
575 0 0 290 0 290 -860 0 -860 0 -2 -1152 -3 -1153 -287 -3 -288 -2 0 580 0
580 -287 -2 -288 -3 -3 -577 -2 -578 -575 0 -575 0 0 -285 0 -285 1155 0 1155
0 0 -575 0 -575 575 0 575 0 0 -290 0 -290 -575 0 -575 0 0 -290 0 -290 1435
0 1435 0 0 1155 0 1155 290 0 290 0 2 -1152 3 -1153 1438 -2 1437 -3 0 580 0
580 290 0 290 0 0 -865 0 -865 -2305 0 -2305 0 0 -290 0 -290 1150 0 1150 0 0
-285 0 -285 -287 0 c-159 0 -416 -1 -573 -3 l-285 -2 -3 -287 -2 -288 575 0
575 0 0 -575 0 -575 580 0 580 0 0 -865 0 -865 -865 0 -865 0 0 290 0 290 575
0 575 0 0 285 0 285 -575 0 -575 0 0 575 0 575 -290 0 -290 0 0 -2015 0 -2015
290 0 290 0 0 575 0 575 285 0 285 0 0 -865 0 -865 -862 2 -863 3 -3 1727 -2
1728 -575 0 -575 0 0 290 0 290 575 0 575 0 0 285 0 285 -575 0 -575 0 0 290
0 290 575 0 575 0 0 290 0 290 -575 -2 -575 -3 0 578 0 577 -1150 0 -1150 0 0
575 0 575 -290 0 -290 0 0 -575 0 -575 -575 0 -575 0 0 -290 0 -290 1155 0
1155 0 0 -285 0 -285 -292 0 c-161 0 -680 -1 -1153 -3 l-860 -2 -3 -287 -2
-288 575 0 575 0 0 -290 0 -290 -575 0 -575 0 0 -860 0 -860 575 0 575 0 0
-1445 0 -1445 -865 0 -865 0 0 865 0 865 290 0 290 0 0 -575 0 -575 290 0 290
0 0 865 0 865 -580 0 -580 0 0 2590 0 2590 578 2 577 3 3 288 2 287 -580 0
-580 0 0 290 0 290 1155 0 1155 0 0 285 0 285 -1155 0 -1155 0 0 5185 0 5185
-285 0 -285 0 0 -11235z M1440 21890 l0 -1440 575 0 575 0 0 -290 0 -290 -575
0 -575 0 0 -285 0 -285 575 0 575 0 0 -290 0 -290 -575 0 -575 0 0 -2015 0
-2015 290 0 291 0 -1 288 c0 158 0 416 0 575 l0 287 575 0 575 0 0 290 0 290
-575 0 -575 0 0 290 0 290 1150 0 1150 0 0 285 0 285 -1150 0 -1150 0 0 290 0
290 575 0 575 0 0 1150 0 1150 290 0 290 0 0 -575 0 -575 2015 0 2015 0 -2
863 -3 862 -287 3 -288 2 0 -580 0 -580 -1440 0 -1440 0 0 290 0 290 1150 0
1150 0 0 290 0 290 -2300 0 -2300 0 0 285 0 285 288 0 c158 0 415 1 572 3
l285 2 3 288 2 287 -575 0 -575 0 0 290 0 290 863 -2 862 -3 3 -577 2 -578
285 0 285 0 0 580 0 580 290 0 290 0 0 -580 0 -580 860 0 860 0 0 290 0 290
-575 0 -575 0 0 290 0 290 2020 0 2020 0 0 -290 0 -290 -1155 0 -1155 0 2
-287 3 -288 569 -2 c313 -2 571 -4 573 -6 2 -3 3 -622 3 -2299 l0 -578 -575 0
-575 0 0 -575 0 -575 -290 0 -290 0 0 575 0 575 -1435 0 -1435 0 0 -285 0
-285 1150 0 1150 0 0 -290 0 -290 -575 0 -575 0 0 -285 0 -285 1150 0 1150 0
0 -580 0 -580 288 2 287 3 3 1153 2 1152 285 0 285 0 2 -577 c2 -318 2 -966 0
-1440 l-2 -863 -865 0 -865 0 0 575 0 575 -285 0 -285 0 0 -575 0 -575 -575 0
-575 0 0 -865 0 -865 285 0 285 0 0 575 0 575 1440 0 1440 0 0 -287 c0 -159 0
-676 0 -1150 l0 -863 290 0 290 0 0 575 0 575 1440 0 1440 0 0 -2305 0 -2305
865 0 865 0 -2 288 -3 287 -569 2 c-313 2 -571 5 -573 6 -2 3 -4 2308 -3 4890
l0 287 1440 0 1440 0 0 -865 0 -865 -580 0 -580 0 0 -285 0 -285 580 0 580 0
0 -580 0 -580 285 0 285 0 0 1155 0 1155 575 0 575 0 0 865 0 865 -285 0 -285
0 0 -580 0 -580 -290 0 -290 0 0 580 0 580 -2015 0 -2015 0 0 -580 0 -580
-1440 0 -1440 0 0 2595 0 2595 290 0 290 0 0 -1730 0 -1730 285 0 285 0 0 580
0 580 575 0 575 0 0 1150 0 1150 580 0 580 0 0 285 0 285 -865 0 -865 0 0
-1150 0 -1150 -290 0 -290 0 0 1150 0 1150 -575 0 -575 0 0 290 0 290 575 0
575 0 0 290 0 290 -575 0 -575 0 0 285 0 285 288 0 c158 0 416 0 575 0 l287
-1 0 581 0 580 2015 0 2015 0 0 -290 0 -290 -1150 0 -1150 0 0 -575 0 -575
-290 0 -290 0 0 575 0 575 -285 0 -285 0 0 -865 0 -865 1440 0 1440 0 0 290 0
290 -575 0 -575 0 0 285 0 285 860 0 860 0 0 -287 c0 -159 0 -676 0 -1150 l0
-863 290 0 290 0 0 1730 0 1730 1440 0 1440 0 0 -290 0 -290 -575 0 -575 0 0
-290 0 -291 288 1 c158 0 416 0 575 0 l287 0 0 -285 0 -285 -575 0 -575 0 0
-580 0 -580 -290 0 -290 0 0 1155 0 1155 -285 0 -285 0 0 -1440 0 -1440 575 0
575 0 0 -290 0 -290 -1440 0 -1440 0 0 575 0 575 -290 0 -290 0 0 -575 0 -575
-575 0 -575 0 0 -860 0 -860 290 0 290 0 0 575 0 575 285 0 285 0 0 -575 0
-575 865 0 865 0 0 285 0 285 -575 0 -575 0 0 290 0 290 865 0 865 0 0 -575 0
-575 1440 0 1440 0 0 285 0 285 -1155 0 -1155 0 0 290 0 290 1155 0 1155 0 0
575 0 575 285 0 285 0 2 -1727 3 -1728 288 -3 287 -2 0 2015 0 2015 -865 0
-865 0 0 -575 0 -575 -290 0 -290 0 0 865 0 865 1155 0 1155 0 0 575 0 575
290 0 290 0 0 -575 0 -575 285 0 285 0 0 865 0 865 -865 0 -865 0 0 -575 0
-575 -285 0 -285 0 0 865 0 865 2015 0 2015 0 0 -290 0 -290 -575 0 -575 0 0
-1155 0 -1155 -575 0 -575 0 0 -285 0 -285 860 0 860 0 0 1150 0 1150 290 0
290 0 0 -2590 0 -2590 -865 0 -865 0 0 865 0 865 290 0 290 0 0 -575 0 -575
285 0 285 0 0 860 0 860 -860 0 -860 0 0 -2015 0 -2015 285 0 285 0 0 575 0
575 865 0 865 0 0 -285 0 -285 -287 0 c-159 0 -417 0 -575 0 l-288 1 0 -291 0
-290 575 0 575 0 0 -290 0 -290 -1150 0 -1150 0 0 -285 0 -285 1150 0 1150 0
0 -6340 0 -6340 288 2 287 3 2 11233 3 11232 -10660 0 -10660 0 0 -1440z"/>
</g>
</svg>
