<?xml version="1.0" standalone="no"?>
<!DOCTYPE svg PUBLIC "-//W3C//DTD SVG 20010904//EN"
 "http://www.w3.org/TR/2001/REC-SVG-20010904/DTD/svg10.dtd">
<svg version="1.0" xmlns="http://www.w3.org/2000/svg"
 width="2362.000000pt" height="2362.000000pt" viewBox="0 0 2362.000000 2362.000000"
 preserveAspectRatio="xMidYMid meet">
<metadata>
Created by potrace 1.16, written by Peter Selinger 2001-2019
</metadata>
<g transform="translate(0.000000,2362.000000) scale(0.100000,-0.100000)"
fill="#000000" stroke="none">
<path d="M290 12095 l0 -11235 10655 0 10655 0 0 290 0 290 -2880 0 -2880 0 0
1150 0 1150 -1440 0 -1440 0 0 -285 0 -285 1155 0 1155 0 0 -290 0 -290 -580
0 -580 0 0 -285 0 -285 580 0 580 0 0 -290 0 -290 -3170 0 -3170 0 0 865 0
865 575 0 575 0 0 575 0 575 290 0 290 0 0 -865 0 -865 -575 0 -575 0 0 -285
0 -285 2015 0 2015 0 0 285 0 285 -1155 0 -1155 0 0 865 0 865 290 0 290 0 0
-575 0 -575 290 0 291 0 -1 287 c0 159 0 417 0 576 l0 287 575 0 575 0 0 290
0 290 -1155 0 -1155 0 0 285 0 285 578 2 577 3 2 863 3 862 -290 0 -290 0 0
-575 0 -575 -290 0 -290 0 0 575 0 575 -285 0 -285 0 0 -575 0 -575 -575 0
-575 0 0 -290 0 -290 575 0 575 0 0 -285 0 -285 -575 0 -575 0 0 -580 0 -580
-290 0 -290 0 0 580 0 580 -575 0 -575 0 0 285 0 285 575 0 575 0 0 290 0 290
-865 0 -865 0 0 -575 0 -575 -290 0 -290 0 2 863 3 862 578 3 577 2 0 285 0
285 -865 0 -865 0 0 -1150 0 -1150 -575 0 -575 0 0 -290 0 -290 575 0 575 0 0
-865 0 -865 -290 0 -290 0 0 575 0 575 -860 0 -860 0 0 -285 0 -285 575 0 575
0 0 -575 0 -575 1440 0 1440 0 0 285 0 285 -580 0 -580 0 0 290 0 290 580 0
580 0 0 285 0 285 -577 2 -578 3 -3 288 -2 287 865 0 865 0 0 -285 c0 -157 0
-676 0 -1155 0 -478 0 -998 0 -1155 l0 -285 -3165 0 -3165 0 0 288 c0 158 0
416 0 575 l1 287 -291 0 -290 0 0 -575 0 -575 -290 0 -290 0 0 4895 0 4895
578 2 c317 2 706 2 865 0 l287 -2 0 -1150 0 -1150 580 0 580 0 0 -1150 0
-1150 285 0 285 0 0 1440 0 1441 -287 -1 c-159 0 -417 0 -575 0 l-288 0 0
1150 0 1150 -1155 0 -1155 0 0 865 0 865 580 0 580 0 0 285 0 285 -580 0 -580
0 0 1445 0 1445 580 0 580 0 0 285 0 285 -580 0 -580 0 0 2880 0 2880 -285 0
-285 0 0 -11235z M1440 22465 l0 -865 288 2 287 3 3 578 2 577 1440 0 1440 0
0 -290 0 -290 -1155 0 -1155 0 2 -287 3 -288 575 -2 c316 -2 835 -3 1153 -3
l577 0 0 -285 0 -285 -1730 0 -1730 0 0 -290 0 -290 575 0 575 0 0 -290 0
-290 -575 0 -575 0 0 -860 0 -860 575 0 575 0 0 -865 0 -865 -575 0 -575 0 0
-290 0 -290 575 0 575 0 0 -285 0 -285 -287 0 c-159 0 -417 0 -575 0 l-288 1
0 -291 0 -290 1155 0 1155 0 0 -865 0 -865 -290 0 -290 0 0 575 0 575 -290 0
-290 0 0 -575 0 -575 -575 0 -575 0 0 -285 0 -285 1153 -2 1152 -3 3 -1152 2
-1153 1150 0 1150 0 0 -287 0 -288 -575 3 -575 2 0 -290 0 -290 1150 0 1150 0
0 -290 0 -290 -1150 0 -1150 0 0 -1150 0 -1150 -865 0 -865 0 0 1150 0 1150
-575 0 -575 0 0 578 c0 317 -1 836 -3 1152 l-2 575 -287 3 -288 2 0 -1440 0
-1440 575 0 575 0 0 -1440 0 -1440 -285 0 -285 0 0 288 c0 158 0 675 0 1150
l0 862 -290 0 -290 0 0 -1440 0 -1440 575 0 575 0 0 -290 0 -290 -575 0 -575
0 0 -285 0 -285 575 0 575 0 0 -575 0 -575 865 0 865 0 0 285 0 285 -575 0
-575 0 0 865 0 865 575 0 575 0 0 290 0 290 -575 0 -575 0 0 285 0 285 1150 0
1150 0 0 1155 0 1155 1440 0 1440 0 0 -575 0 -575 290 0 290 0 0 575 0 575
290 0 290 0 0 -575 0 -575 285 0 285 0 0 860 0 860 -1150 0 -1150 0 0 290 0
290 1150 0 1150 0 0 575 0 575 290 0 290 0 0 -575 0 -575 575 0 575 0 0 -290
0 -290 -575 0 -575 0 0 -285 0 -285 1150 0 1150 0 2 -1152 3 -1153 288 -3 287
-2 0 1155 0 1155 865 0 865 0 0 -290 0 -290 -580 0 -580 0 0 -285 0 -285 580
0 580 0 0 -865 0 -865 -290 0 -290 0 0 575 0 575 -287 -2 -288 -3 0 -860 0
-860 1153 -3 1152 -2 0 -1150 0 -1150 285 0 285 0 0 575 0 575 290 0 290 0 0
-575 0 -575 290 0 290 0 0 575 0 575 285 0 285 0 0 -575 0 -575 865 0 865 0 0
575 0 575 575 0 575 0 0 285 0 285 -860 0 -860 0 0 -575 0 -575 -290 0 -290 0
0 575 0 575 -575 0 -575 0 0 290 0 290 575 0 575 0 0 575 0 575 575 0 575 0 0
580 0 580 575 0 575 0 0 285 0 285 -575 0 -575 0 0 575 0 575 -1150 0 -1150 0
0 865 0 865 285 0 285 0 0 -575 0 -575 290 0 290 0 0 865 0 865 -865 0 -865 0
0 -1440 0 -1440 1155 0 1155 0 0 -290 0 -290 -580 0 -580 0 0 -285 0 -285 580
0 580 0 0 -290 0 -290 -580 0 -580 0 0 -575 0 -575 -575 0 -575 0 0 -580 0
-580 -290 0 -290 0 0 580 0 580 -575 0 -575 0 0 865 0 865 290 0 290 0 0 -580
0 -580 863 2 862 3 3 288 2 287 -580 0 -580 0 2 288 3 287 578 3 577 2 0 285
0 285 -580 0 -580 0 0 1155 0 1155 -285 0 -285 0 0 -1155 0 -1155 -290 0 -290
0 0 575 0 575 -575 0 -575 0 0 290 0 290 575 0 575 0 0 575 0 575 575 0 575 0
0 290 0 290 -860 0 -860 0 0 -575 0 -575 -287 0 c-159 0 -418 -1 -578 -3
l-290 -2 -2 -290 c-2 -159 -3 -419 -3 -577 l0 -288 -860 0 -860 0 0 290 0 290
575 0 575 0 -2 288 -3 287 -575 2 c-316 2 -835 3 -1152 3 l-578 0 0 285 0 285
1155 0 1155 0 0 575 0 575 285 0 285 0 0 -287 c0 -159 1 -416 3 -573 l2 -285
288 -3 287 -2 0 1155 0 1155 865 0 865 0 0 -290 0 -290 -575 0 -575 0 0 -290
0 -290 1728 0 c950 0 1987 0 2305 0 l577 0 0 -575 0 -575 285 0 285 0 0 865 0
865 -1730 0 -1730 0 0 865 0 865 290 0 290 0 0 -575 0 -575 290 0 290 0 0 860
0 860 -1440 0 -1440 0 0 -285 0 -285 575 0 575 0 0 -290 0 -290 -1155 0 -1156
0 1 -287 c0 -159 0 -417 0 -575 l0 -288 -575 0 -575 0 0 -575 0 -575 -1725 0
-1725 0 0 -575 0 -575 -290 0 -290 0 0 575 0 575 -287 -2 -288 -3 -3 -572 -2
-573 -285 0 c-363 0 -786 0 -1155 0 l-290 0 0 575 0 575 -1150 0 -1150 0 0
285 0 285 288 0 c274 0 1712 0 2310 0 l282 0 0 -575 0 -575 290 0 290 0 0
1440 0 1440 -290 0 -290 0 0 -575 0 -575 -1440 0 -1440 0 0 290 0 290 575 0
575 0 0 285 0 285 -575 0 -575 0 0 865 0 865 575 0 575 0 0 290 0 290 -862 0
c-475 0 -992 0 -1150 0 l-288 0 0 1725 0 1725 -575 0 -575 0 0 290 0 290 1150
0 1150 0 0 285 0 285 -575 0 -575 0 0 290 0 290 865 0 865 0 0 -575 0 -575
285 0 285 0 0 575 0 575 290 0 290 0 0 -575 0 -575 285 0 285 0 0 865 0 865
-575 0 -575 0 0 285 0 285 575 0 575 0 0 290 0 290 -575 0 -575 0 0 290 0 290
3170 0 3170 0 0 -290 0 -290 -2305 0 -2305 0 2 -287 3 -288 575 -2 c316 -2
835 -3 1153 -3 l577 0 0 -285 0 -285 -1155 0 -1155 0 0 -290 0 -290 1730 0
1730 0 0 -290 0 -290 -575 0 -575 0 0 -285 0 -285 1440 0 1440 0 0 285 0 285
-577 2 -578 3 -3 288 -2 287 1155 0 1155 0 0 865 0 865 -290 0 -290 0 0 -575
0 -575 -1440 0 -1440 0 0 285 0 285 578 0 c317 0 836 1 1152 3 l575 2 3 578 2
577 3745 0 3745 0 0 -290 0 -290 -1155 0 -1155 0 0 -2015 0 -2015 290 0 290 0
0 575 0 575 575 0 575 0 0 865 0 865 -287 -2 -288 -3 -3 -577 -2 -578 -285 0
-285 0 0 865 0 865 288 2 c158 2 547 2 865 0 l577 -2 0 -575 0 -575 575 0 575
0 0 -1150 0 -1150 285 0 285 0 0 1440 0 1440 -575 0 -575 0 0 865 0 865 290 0
290 0 0 -580 0 -580 285 0 285 0 0 580 0 580 290 0 290 0 0 -2595 0 -2595
-865 0 -865 0 0 1150 0 1150 -285 0 -285 0 0 -575 0 -575 -580 0 -580 0 0
-285 0 -285 580 0 580 0 0 -290 0 -290 -1155 0 -1155 0 0 -285 0 -285 1153 -2
1152 -3 3 -287 2 -288 -1445 0 -1445 0 0 575 0 575 -285 0 -285 0 0 -575 0
-575 -290 0 -290 0 0 865 0 865 575 0 575 0 0 285 0 285 -860 0 -860 0 0
-1150 0 -1150 -290 0 -290 0 0 1440 0 1440 575 0 575 0 0 575 0 575 290 0 290
0 0 -575 0 -575 285 0 285 0 0 865 0 865 -1150 0 -1150 0 0 285 0 285 288 0
c158 0 675 0 1150 0 l862 0 0 290 0 290 -1437 -2 -1438 -3 0 -860 0 -860 578
-3 577 -2 0 -290 0 -290 -1155 0 -1155 0 0 -1435 0 -1435 290 0 290 0 0 1150
0 1150 288 0 287 0 0 -1727 0 -1728 578 -3 577 -2 0 -285 0 -285 -577 -2
c-318 -2 -707 -2 -865 0 l-288 2 0 575 0 575 -1440 0 -1440 0 0 -575 0 -575
-290 0 -290 0 0 1150 0 1150 -285 0 -285 0 0 -1150 0 -1150 -865 0 -865 0 0
1440 0 1440 285 0 285 0 0 -577 c0 -318 1 -837 3 -1153 l2 -575 288 -3 287 -2
0 1155 0 1155 1440 0 1440 0 0 -290 0 -290 -575 0 -575 0 0 -285 0 -285 865 0
865 0 0 860 0 860 -2305 0 -2305 0 0 290 0 290 575 0 575 0 0 285 0 285 -865
0 -865 0 0 -575 0 -575 -1725 0 -1725 0 0 -860 0 -860 285 0 285 0 0 575 0
575 290 0 290 0 0 -575 0 -575 285 0 285 0 0 575 0 575 865 0 865 0 0 -290 0
-290 -575 0 -575 0 0 -285 0 -285 575 0 575 0 0 -290 0 -290 -1725 0 -1725 0
0 -290 0 -290 1725 0 1725 0 0 -285 0 -285 -287 0 c-159 0 -417 0 -575 0
l-288 1 0 -291 0 -290 575 0 575 0 0 -290 0 -290 -1150 0 -1150 0 0 -285 0
-285 575 0 575 0 0 -575 0 -575 285 0 285 0 0 575 0 575 580 0 580 0 0 575 0
575 285 0 285 0 0 -287 c0 -159 0 -417 0 -575 l-1 -288 291 0 290 0 0 575 0
575 290 0 290 0 0 -865 0 -865 -580 0 -580 0 0 -285 0 -285 580 0 580 0 0
-290 0 -290 -580 0 -580 0 2 -287 3 -288 2015 0 2015 0 3 288 2 287 -580 0
-580 0 0 290 0 290 1155 0 1155 0 0 285 0 285 -1440 0 -1440 0 0 -575 0 -575
-290 0 -290 0 0 1440 0 1440 290 0 290 0 0 -575 0 -575 865 0 865 0 0 285 0
285 -580 0 -580 0 0 865 0 865 865 0 865 0 0 -285 0 -285 -287 0 c-159 0 -417
0 -575 0 l-288 1 0 -291 0 -290 1150 0 1150 0 0 -290 0 -290 -575 0 -575 0 0
-285 0 -285 865 0 865 0 0 575 0 575 575 0 575 0 0 575 0 575 1440 0 1440 0 0
-285 0 -285 -862 0 c-475 0 -992 0 -1150 0 l-288 1 0 -291 0 -290 1150 0 1150
0 0 -1150 0 -1150 290 0 290 0 0 1150 0 1150 290 0 290 0 0 -575 0 -575 860 0
860 0 0 285 0 285 -575 0 -575 0 0 580 0 581 -287 -1 c-159 0 -417 0 -575 0
l-288 0 0 285 0 285 575 0 575 0 0 580 0 580 865 0 865 0 0 -290 0 -290 -575
0 -575 0 0 -290 0 -290 575 0 575 0 0 -285 0 -285 -287 0 c-159 0 -417 0 -575
0 l-288 1 0 -291 0 -290 575 0 575 0 0 -865 0 -865 -1150 0 -1150 0 0 -285 0
-285 575 0 575 0 0 -580 0 -580 285 0 285 0 0 580 0 580 290 0 290 0 0 -2020
0 -2020 -290 0 -290 0 0 1155 0 1155 -285 0 -285 0 0 -577 0 -578 -575 3 -575
2 0 -290 0 -290 575 0 575 0 0 -575 0 -575 575 0 575 0 0 -865 0 -865 -575 0
-575 0 0 -575 0 -575 -575 0 -575 0 0 -290 0 -290 860 0 860 0 0 575 0 575
290 0 290 0 0 -1440 0 -1440 -575 0 -575 0 0 -285 0 -285 575 0 575 0 0 -580
0 -580 288 2 287 3 2 11233 3 11232 -10660 0 -10660 0 0 -865z"/>
</g>
</svg>
