<?xml version="1.0" standalone="no"?>
<!DOCTYPE svg PUBLIC "-//W3C//DTD SVG 20010904//EN"
 "http://www.w3.org/TR/2001/REC-SVG-20010904/DTD/svg10.dtd">
<svg version="1.0" xmlns="http://www.w3.org/2000/svg"
 width="2362.000000pt" height="2362.000000pt" viewBox="0 0 2362.000000 2362.000000"
 preserveAspectRatio="xMidYMid meet">
<metadata>
Created by potrace 1.16, written by Peter Selinger 2001-2019
</metadata>
<g transform="translate(0.000000,2362.000000) scale(0.100000,-0.100000)"
fill="#000000" stroke="none">
<path d="M290 12095 l0 -11235 10655 0 10655 0 0 290 0 290 -6910 0 -6910 0 0
290 0 290 575 0 575 0 0 285 0 285 -1155 0 -1155 0 0 575 0 575 -285 0 -285 0
0 -575 0 -575 -575 0 -575 0 0 -285 0 -285 1150 0 1150 0 0 -290 0 -290 -2015
0 -2015 0 0 865 0 865 290 0 290 0 0 -575 0 -575 285 0 285 0 0 575 0 575 575
0 575 0 0 285 0 285 -2015 0 -2015 0 0 -285 0 -285 575 0 575 0 0 -865 0 -865
-865 0 -865 0 0 290 0 290 580 0 580 0 0 285 0 285 -580 0 -580 0 0 865 0 865
580 0 580 0 -2 287 -3 288 -577 3 -578 2 0 285 0 285 865 0 865 0 0 -575 0
-575 2015 0 2015 0 0 290 0 290 -1725 0 -1725 0 0 1725 0 1725 -290 0 -290 0
0 -1150 0 -1150 -285 0 -285 0 0 285 c0 157 0 935 0 1730 0 795 0 1573 0 1730
l0 285 285 0 285 0 0 -575 0 -575 290 0 290 0 0 575 0 575 865 0 865 0 0
-1725 0 -1725 285 0 285 0 0 575 0 575 1730 0 1730 0 0 285 0 285 -1730 0
-1730 0 0 1730 0 1730 -285 0 -285 0 0 -575 0 -575 -865 0 -865 0 0 575 0 575
-290 0 -290 0 0 -575 0 -575 -575 0 -575 0 0 -2305 0 -2305 -290 0 -290 0 0
4895 0 4895 578 2 577 3 0 285 0 285 -577 3 -578 2 0 1440 0 1440 865 0 865 0
0 -290 0 -290 -575 0 -575 0 0 -860 0 -860 575 0 575 0 0 -1730 0 -1730 290 0
290 0 0 1150 0 1150 1150 0 1150 0 0 290 0 290 -1150 0 -1150 0 0 290 0 290
575 0 575 0 0 285 0 285 -1150 0 -1150 0 0 290 0 290 575 0 575 0 0 575 0 575
290 0 290 0 0 -575 0 -575 285 0 285 0 0 860 0 860 -1727 2 -1728 3 -3 288 -2
287 1155 0 1155 0 0 575 0 575 283 0 c597 0 2035 0 2310 0 l287 0 0 -575 0
-575 285 0 285 0 0 865 0 865 -2015 0 -2015 0 0 -575 0 -575 -865 0 -865 0 0
1150 0 1150 -285 0 -285 0 0 -11235z M1440 22465 l0 -865 288 2 287 3 3 578 2
577 3745 0 3745 0 -2 -1442 -3 -1443 -862 -3 -863 -2 0 290 0 290 575 0 575 0
0 865 0 865 -865 0 -865 0 2 -287 3 -288 285 -2 c157 -2 414 -3 573 -3 l287 0
0 -285 0 -285 -575 0 -575 0 0 -580 0 -580 -865 0 -865 0 0 580 0 580 -860 0
-860 0 0 -290 0 -290 575 0 575 0 0 -1150 0 -1150 285 0 285 0 0 575 0 575
290 0 290 0 0 -575 0 -575 575 0 575 0 0 -290 0 -290 -1150 0 -1150 0 0 -285
0 -285 575 0 575 0 0 -580 0 -580 285 0 285 0 2 578 3 577 288 3 287 2 0 -580
0 -580 575 0 575 0 0 -285 0 -285 -862 0 c-475 0 -1510 0 -2300 0 l-1438 0 0
-290 0 -290 1150 0 1150 0 0 -290 0 -290 -1150 0 -1150 0 0 -285 0 -285 575 0
575 0 0 -290 0 -290 -1440 0 -1440 0 0 578 c0 317 -1 836 -3 1152 l-2 575
-287 3 -288 2 0 -2020 0 -2020 288 2 287 3 3 578 2 577 863 -2 862 -3 3 -577
2 -578 285 0 285 0 0 580 0 580 575 0 575 0 0 575 0 575 865 0 865 0 0 -575 0
-575 290 0 290 0 0 860 0 860 -577 2 -578 3 -3 288 -2 287 865 0 865 0 0 -287
c0 -159 0 -676 0 -1150 l0 -863 290 0 290 0 0 1725 0 1725 1150 0 1150 0 0
580 0 580 865 0 865 0 0 -1155 0 -1155 290 0 290 0 0 1155 0 1155 285 0 285 0
0 -292 c0 -161 1 -421 3 -578 l2 -285 288 -3 287 -2 0 580 0 580 290 0 290 0
0 -865 0 -865 -577 -2 -578 -3 0 -285 0 -285 578 -3 577 -2 0 -575 0 -575 285
0 285 0 0 2015 0 2015 -2590 0 -2590 0 0 -575 0 -575 -865 0 -865 0 0 575 0
575 -290 0 -291 0 1 -287 c0 -159 0 -417 0 -575 l0 -288 -285 0 -285 0 0 865
0 865 865 0 865 0 0 -575 0 -575 285 0 285 0 0 575 0 575 1730 0 1730 0 0 285
0 285 -3460 0 -3460 0 0 290 0 290 1730 0 1730 0 0 1730 0 1730 290 0 290 0 0
-580 0 -580 285 0 285 0 0 580 0 580 290 0 290 0 0 -865 0 -865 -575 0 -575 0
0 -290 0 -290 863 2 862 3 2 575 c2 316 3 835 3 1153 l0 577 285 0 285 0 2
-577 3 -578 285 0 285 0 3 578 2 577 285 0 285 0 0 -290 c0 -159 0 -420 0
-580 0 -159 0 -418 0 -575 l0 -285 -575 0 -575 0 0 -580 0 -580 -1150 0 -1150
0 0 -285 0 -285 1728 0 1727 0 -3 -575 -2 -575 290 0 290 0 0 575 0 575 290 0
290 0 0 -575 0 -575 285 0 285 0 0 860 0 860 -1150 0 -1150 0 0 290 0 290
1150 0 1150 0 0 290 0 290 -575 0 -575 0 0 865 0 865 865 0 865 0 0 -290 0
-290 -575 0 -575 0 0 -290 0 -290 860 0 860 0 0 580 0 580 1445 0 1445 0 0
-290 0 -290 -580 0 -580 0 0 -575 0 -575 -285 0 -285 0 0 575 0 575 -290 0
-290 0 0 -865 0 -865 2015 0 2015 0 0 290 0 290 -1150 0 -1150 0 0 285 0 285
288 0 c158 0 675 0 1150 0 l862 0 0 290 0 290 -575 0 -575 0 0 290 0 290 865
0 865 0 0 -1445 0 -1445 -2305 0 -2305 0 0 -285 0 -285 2305 0 2305 0 0 -865
0 -865 -290 0 -290 0 0 575 0 575 -2305 0 -2305 0 0 1155 0 1155 -285 0 -285
0 0 -1440 0 -1440 575 0 575 0 0 -865 0 -865 -290 0 -290 0 0 575 0 575 -285
0 -285 0 0 -865 0 -865 863 2 862 3 3 1153 2 1152 1440 0 1440 0 0 -290 0
-290 -1155 0 -1155 0 0 -285 0 -285 578 -2 577 -3 3 -287 2 -288 -580 0 -580
0 0 -575 0 -575 -575 0 -575 0 0 -290 0 -290 2015 0 2015 0 0 865 0 865 -285
0 -285 0 0 -575 0 -575 -577 -2 c-318 -2 -707 -2 -865 0 l-288 2 0 285 0 285
575 0 575 0 0 580 0 580 865 0 865 0 0 -1445 0 -1445 -2595 0 -2595 0 0 580 0
580 -285 0 -285 0 0 -1155 0 -1155 -865 0 -865 0 0 575 0 575 -290 0 -290 0 2
-575 3 -575 -287 0 -288 0 0 575 0 575 -290 0 -290 0 0 -575 0 -575 -285 0
-285 0 0 288 c0 158 -1 935 -3 1727 l-2 1440 -287 3 -288 2 0 -575 0 -575
-287 0 c-159 0 -676 0 -1150 0 l-863 0 0 -1440 0 -1440 285 0 285 0 0 1150 0
1150 865 0 865 0 0 -290 0 -290 -575 0 -575 0 0 -860 0 -860 285 0 285 0 0
575 0 575 290 0 290 0 0 -1155 0 -1155 288 2 287 3 3 578 2 577 285 0 285 0 2
-577 3 -578 285 0 285 0 3 578 2 577 285 0 285 0 0 -577 c0 -318 1 -837 3
-1153 l2 -575 288 -3 287 -2 0 1155 0 1155 290 0 290 0 0 -580 0 -580 285 0
285 0 0 580 0 580 290 0 290 0 0 -865 0 -865 -575 0 -575 0 0 -290 0 -290
1150 0 1150 0 0 -285 0 -285 -287 0 c-159 0 -417 0 -575 0 l-288 1 0 -291 0
-290 575 0 575 0 0 -290 0 -290 -1150 0 -1150 0 0 -860 0 -860 575 0 575 0 0
-290 0 -290 -575 0 -575 0 0 -575 0 -575 -290 0 -290 0 0 1150 0 1150 -575 0
-575 0 0 290 0 290 575 0 575 0 0 575 0 575 575 0 575 0 0 290 0 290 -862 0
c-475 0 -992 0 -1150 0 l-288 0 0 575 0 575 -865 0 -865 0 0 -290 0 -290 575
0 575 0 0 -285 0 -285 -287 0 c-159 0 -676 0 -1150 0 l-863 0 0 -1440 0 -1440
285 0 285 0 0 1150 0 1150 1443 0 1442 0 -3 -290 -3 -290 -1149 0 -1150 0 0
-860 0 -860 290 0 290 0 0 575 0 575 285 0 285 0 0 -575 0 -575 575 0 575 0 0
-290 c0 -159 0 -420 0 -580 0 -159 0 -418 0 -575 l0 -285 -1440 0 -1440 0 0
285 0 285 1155 0 1155 0 0 290 0 290 -2015 0 -2015 0 0 -575 0 -575 -865 0
-865 0 0 285 0 285 575 0 575 0 0 580 0 580 575 0 575 0 0 1725 0 1725 575 0
575 0 0 865 0 865 -285 0 -285 0 0 -575 0 -575 -865 0 -865 0 0 285 0 285 288
0 c158 0 416 0 575 0 l287 -1 0 291 0 290 -865 0 -866 0 1 -287 c0 -159 0
-417 0 -575 l0 -288 -285 0 -285 0 0 575 0 575 -290 0 -290 0 0 -575 0 -575
-290 0 -290 0 0 1150 0 1150 -285 0 -285 0 0 -2015 0 -2015 1440 0 1440 0 -2
288 -3 287 -860 2 c-473 2 -992 3 -1152 3 l-293 0 0 285 0 285 1445 0 1445 0
0 -1440 0 -1440 -580 0 -581 0 1 -288 c0 -158 0 -416 0 -574 l0 -288 -865 0
-865 0 2 288 3 287 578 3 577 2 0 285 0 285 -865 0 -865 0 0 -575 0 -575 -865
0 -865 0 0 1730 0 1730 -285 0 -285 0 0 -2020 0 -2020 1725 0 1725 0 0 -1150
0 -1150 290 0 290 0 0 575 0 575 1150 0 1150 0 0 575 0 575 290 0 290 0 0
-575 0 -575 1150 0 1150 0 0 -865 0 -865 -285 0 -285 0 0 288 c0 158 0 416 0
575 l1 287 -2021 0 -2020 0 0 -285 0 -285 1730 0 1730 0 0 -290 0 -290 -1150
0 -1150 0 0 -285 0 -285 2590 0 2590 0 0 285 0 285 -575 0 -575 0 0 865 0 865
1150 0 1150 0 0 575 0 575 290 0 290 0 0 -575 0 -575 285 0 285 0 0 1440 0
1440 -575 0 -575 0 0 290 0 290 865 0 865 0 0 -1730 0 -1730 575 0 575 0 0
-865 0 -865 -285 0 -285 0 0 575 0 575 -2020 0 -2020 0 0 -285 0 -285 580 0
580 0 0 -575 0 -575 285 0 285 0 0 575 0 575 865 0 865 0 0 -290 0 -290 -575
0 -575 0 0 -285 0 -285 1440 0 1440 0 0 1440 0 1440 -575 0 -575 0 0 285 0
285 575 0 575 0 0 580 0 580 290 0 290 0 0 -1155 0 -1155 285 0 285 0 0 1440
0 1440 -865 0 -865 0 0 -575 0 -575 -285 0 -285 0 -2 2303 -3 2302 -577 3
-578 2 0 1440 0 1440 290 0 290 0 2 -1152 3 -1153 285 0 285 0 3 1153 2 1152
285 0 285 0 0 -575 0 -575 290 0 290 0 0 575 0 575 865 0 865 0 0 -290 0 -290
-575 0 -575 0 0 -575 0 -575 -580 0 -580 0 0 -865 0 -865 290 0 290 0 0 575 0
575 285 0 c157 0 418 0 580 0 162 0 423 0 580 0 l285 0 0 -285 0 -285 -575 0
-575 0 0 -575 0 -575 -292 0 c-161 0 -421 -1 -578 -3 l-285 -2 -3 -863 -2
-862 865 0 865 0 0 285 0 285 -575 0 -575 0 0 290 0 290 1150 0 1150 0 0 290
0 290 -575 -2 -575 -3 0 288 0 287 575 0 575 0 0 865 0 865 -575 0 -575 0 0
290 0 290 575 0 575 0 0 575 0 575 290 0 290 0 0 -2595 0 -2595 -575 0 -575 0
0 -285 0 -285 575 0 575 0 0 -865 0 -865 -290 0 -290 0 0 575 0 575 -285 0
-285 0 0 -1730 0 -1730 -575 0 -575 0 0 -285 0 -285 575 0 575 0 0 -290 0
-290 -575 0 -575 0 0 -285 0 -285 860 0 860 0 0 1725 0 1725 290 0 290 0 0
-2305 0 -2305 288 2 287 3 2 11233 3 11232 -10660 0 -10660 0 0 -865z"/>
</g>
</svg>
