<?xml version="1.0" standalone="no"?>
<!DOCTYPE svg PUBLIC "-//W3C//DTD SVG 20010904//EN"
 "http://www.w3.org/TR/2001/REC-SVG-20010904/DTD/svg10.dtd">
<svg version="1.0" xmlns="http://www.w3.org/2000/svg"
 width="2362.000000pt" height="2362.000000pt" viewBox="0 0 2362.000000 2362.000000"
 preserveAspectRatio="xMidYMid meet">
<metadata>
Created by potrace 1.16, written by Peter Selinger 2001-2019
</metadata>
<g transform="translate(0.000000,2362.000000) scale(0.100000,-0.100000)"
fill="#000000" stroke="none">
<path d="M290 12095 l0 -11235 10655 0 10655 0 0 1440 0 1440 -575 0 -575 0 0
290 0 290 575 0 575 0 0 3170 0 3170 -575 0 -575 0 0 285 0 285 288 0 c158 0
416 0 575 0 l287 -1 0 866 0 865 -285 0 -285 0 0 -575 0 -575 -575 0 -575 0 0
-575 0 -575 -290 0 -290 0 0 865 0 865 575 0 575 0 0 285 0 285 -575 0 -575 0
0 1440 0 1440 290 0 290 0 0 -1150 0 -1150 285 0 285 0 0 575 0 575 290 0 290
0 0 -575 0 -575 285 0 285 0 0 865 0 865 -575 0 -575 0 0 285 0 285 575 0 575
0 0 290 0 290 -575 0 -575 0 0 290 0 290 575 0 575 0 0 285 0 285 -2590 0
-2590 0 0 -575 0 -575 -290 0 -290 0 0 575 0 575 -865 0 -865 0 0 -285 0 -285
580 0 580 0 0 -580 0 -580 860 0 860 0 2 578 3 577 1440 0 1440 0 3 -287 2
-288 -1155 0 -1155 0 0 -290 0 -290 575 0 575 0 0 -865 0 -865 -285 0 -285 0
-2 578 -3 577 -575 2 c-316 2 -1094 3 -1727 3 l-1153 0 0 575 0 575 -575 0
-575 0 0 575 0 575 -290 0 -290 0 0 -865 0 -865 575 0 575 0 0 -287 c0 -159 1
-416 3 -573 l2 -285 578 -3 577 -2 0 -575 0 -575 285 0 285 0 0 575 0 575 290
0 290 0 0 -575 0 -575 285 0 285 0 0 575 0 575 290 0 290 0 0 -1150 0 -1150
290 0 290 0 0 575 0 575 285 0 285 0 0 -865 0 -865 -575 0 -575 0 0 -1150 0
-1150 -290 0 -290 0 0 1725 0 1725 -860 0 -860 0 0 -285 0 -285 575 0 575 0 0
-290 0 -290 -1440 0 -1440 0 0 575 0 575 -575 0 -575 0 0 290 0 290 863 0 862
0 -3 -575 -2 -575 290 0 290 0 0 860 0 860 -575 0 -575 0 -2 578 -3 577 -572
3 -573 2 0 283 c0 548 0 3176 0 3460 l0 287 285 0 285 0 0 -575 0 -575 290 0
290 0 0 575 0 575 1150 0 1150 0 0 1440 0 1440 -285 0 -285 0 0 -1155 0 -1155
-2017 2 -2018 3 -3 287 -2 288 577 2 578 3 2 285 c2 157 3 414 3 572 l0 288
573 2 572 3 3 288 2 287 -865 0 -865 0 0 -575 0 -575 -1727 -2 -1728 -3 -3
-287 -2 -288 1155 0 1155 0 0 -290 0 -290 -1155 0 -1155 0 0 -285 0 -285 580
0 580 0 0 -290 0 -290 -580 0 -580 0 0 -285 0 -285 865 0 865 0 0 575 0 575
290 0 290 0 0 -575 0 -575 285 0 285 0 0 575 0 575 290 0 290 0 0 -2015 0
-2015 -290 0 -290 0 0 1150 0 1150 -285 0 -285 0 0 -1150 0 -1150 -575 0 -575
0 0 -290 0 -290 575 0 575 0 0 -575 0 -575 285 0 285 0 0 575 0 575 865 0 865
0 0 -290 0 -290 -575 0 -575 0 0 -575 0 -575 -575 0 -575 0 0 -285 0 -285
1150 0 1150 0 2 -577 3 -578 575 -2 c316 -2 835 -3 1153 -3 l577 0 0 -1150 0
-1150 285 0 285 0 0 1150 0 1150 290 0 290 0 0 -1440 0 -1440 -575 0 -575 0 0
-285 0 -285 860 0 860 0 0 575 0 575 290 0 290 0 0 -865 0 -865 -1730 0 -1731
0 1 -288 c0 -158 0 -416 0 -574 l0 -288 -575 0 -575 0 2 -287 3 -288 863 -3
862 -2 0 580 0 580 1730 0 1730 0 0 1150 0 1150 285 0 285 0 0 -1150 0 -1150
580 0 580 0 0 -290 0 -290 -580 0 -580 0 0 -575 0 -575 -575 0 -575 0 0 -580
0 -580 -575 0 -575 0 0 -285 0 -285 865 0 865 0 0 575 0 575 285 0 285 0 0
-575 0 -575 290 0 290 0 0 1150 0 1150 575 0 575 0 0 1440 0 1440 -285 0 -285
0 0 -575 0 -575 -290 0 -290 0 -2 1153 -3 1152 -285 2 c-157 2 -414 3 -572 3
l-288 0 0 860 0 860 285 0 285 0 0 -575 0 -575 580 0 580 0 0 -575 0 -575 285
0 285 0 0 575 0 575 290 0 290 0 0 -2590 0 -2590 -575 0 -575 0 0 -865 0 -865
575 0 575 0 0 -290 0 -290 -575 0 -575 0 0 -285 0 -285 575 0 575 0 0 -290 0
-290 -1440 0 -1440 0 0 290 0 290 575 0 575 0 0 285 0 285 -1440 0 -1440 0 0
-285 0 -285 575 0 575 0 0 -290 0 -290 -865 0 -865 0 0 575 0 575 -575 0 -575
0 0 290 0 290 575 0 575 0 0 285 0 285 -575 0 -575 0 0 290 0 290 1150 0 1150
0 0 575 0 575 578 2 577 3 3 288 2 287 -1440 0 -1440 0 0 -290 0 -290 575 0
575 0 0 -285 0 -285 -1152 -2 -1153 -3 -2 -285 c-2 -157 -3 -417 -3 -577 l0
-293 -575 0 -575 0 0 -285 0 -285 578 0 577 0 0 -290 0 -290 -862 0 -863 0 0
285 c0 157 0 418 0 580 0 162 0 423 0 580 l0 285 575 0 575 0 0 290 0 290
-1155 0 -1155 0 0 285 0 285 578 2 577 3 2 863 3 862 -580 0 -580 0 0 290 0
290 865 0 865 0 0 -575 0 -575 290 0 290 0 0 575 0 575 575 0 575 0 0 1440 0
1440 -287 -2 -288 -3 -2 -865 c-2 -476 -3 -994 -3 -1152 l0 -288 -285 0 -285
0 0 1155 0 1155 -865 0 -865 0 0 -290 0 -290 575 0 575 0 0 -285 0 -285 -287
0 c-159 0 -417 0 -575 0 l-288 1 0 -291 0 -290 575 0 575 0 0 -290 0 -290
-1150 0 -1150 0 0 -575 0 -575 -290 0 -290 0 0 865 0 865 575 0 575 0 0 865 0
865 -285 0 -285 0 0 -577 0 -578 -290 0 -290 0 0 863 0 862 288 0 c158 0 676
1 1152 3 l865 2 3 288 2 287 -1155 0 -1155 0 0 1150 0 1150 -285 0 -285 0 0
-575 0 -575 -290 0 -290 0 0 575 0 575 -2880 0 -2880 0 0 580 0 580 -287 -2
-288 -3 -3 -577 -2 -578 -285 0 -285 0 -2 578 -3 577 -287 3 -288 2 0 -1440 0
-1440 575 0 575 0 0 -290 0 -290 -575 0 -575 0 0 -865 0 -865 288 2 287 3 3
573 2 572 285 0 285 0 0 -575 0 -575 290 0 290 0 0 575 0 575 290 0 290 0 0
-860 0 -860 -292 0 c-161 0 -421 -1 -578 -3 l-285 -2 -3 -288 -2 -287 2305 0
2305 0 0 -865 0 -865 -290 0 -290 0 0 575 0 575 -285 0 -285 0 0 -860 0 -860
865 0 865 0 0 575 0 575 285 0 285 0 0 -575 0 -575 290 0 290 0 -2 1437 -3
1438 -285 0 -285 0 -3 -577 -2 -578 -285 0 -285 0 0 1155 0 1155 -290 0 -290
0 0 -575 0 -575 -282 0 c-156 0 -545 -1 -866 -3 l-582 -2 0 288 0 287 575 0
575 0 0 290 0 290 -860 0 -860 0 0 -577 0 -578 -290 0 -290 0 0 863 0 862 288
0 c158 0 416 0 575 0 l287 -1 0 866 0 865 -285 0 -285 0 0 -575 0 -575 -865 0
-865 0 0 575 0 575 -575 0 -575 0 0 290 0 290 865 0 865 0 0 -575 0 -575 285
0 285 0 0 575 0 575 865 0 865 0 0 -1155 0 -1155 285 0 285 0 0 580 0 580 290
0 290 0 2 -577 3 -578 285 0 285 0 3 863 2 862 -580 0 -580 0 0 290 0 290 865
0 865 0 0 -577 c0 -318 1 -837 3 -1153 l2 -575 288 -3 287 -2 0 580 0 580 290
0 290 0 0 -865 0 -865 -577 -2 -578 -3 0 -285 0 -285 578 -3 577 -2 0 -2015 0
-2015 -580 0 -580 0 2 -287 3 -288 578 -3 577 -2 0 -285 0 -285 -865 0 -865 0
0 575 0 575 -865 0 -865 0 0 -575 0 -575 -575 0 -575 0 0 -865 0 -865 285 0
285 0 0 575 0 575 575 0 575 0 0 575 0 575 290 0 290 0 0 -865 0 -865 -575 0
-575 0 0 -285 0 -285 865 0 865 0 0 575 0 575 865 0 865 0 0 -865 0 -865 -290
0 -290 0 0 575 0 575 -290 0 -290 0 0 -575 0 -575 -1150 0 -1150 0 0 -285 0
-285 2590 0 2590 0 0 285 0 285 -575 0 -575 0 0 290 0 290 575 0 575 0 0 285
0 285 -575 0 -575 0 0 1445 0 1445 865 0 865 0 0 -290 0 -290 -575 0 -575 0 0
-865 0 -865 575 0 575 0 0 -1150 0 -1150 1730 0 1730 0 0 -290 0 -290 -5475 0
-5475 0 0 290 0 290 575 0 575 0 0 285 0 285 -860 0 -860 0 0 -575 0 -575
-290 0 -290 0 0 575 0 575 -290 0 -290 0 0 -575 0 -575 -285 0 -285 0 0 288
c0 158 0 416 0 575 l1 287 -291 0 -290 0 0 -575 0 -575 -290 0 -290 0 0 865 0
865 1730 0 1730 0 0 1150 0 1150 575 0 575 0 0 290 0 290 -860 0 -860 0 -2
-1152 -3 -1153 -287 -3 -288 -2 0 580 0 580 -287 -2 -288 -3 -3 -577 -2 -578
-865 0 -865 0 0 290 0 290 580 0 580 0 0 1440 0 1440 -290 0 -290 0 0 -1150 0
-1150 -290 0 -290 0 0 2015 0 2015 290 0 290 0 0 -575 0 -575 575 0 575 0 2
-1152 3 -1153 288 -3 287 -2 0 580 0 580 575 0 575 0 0 575 0 575 290 0 290 0
0 -575 0 -575 285 0 285 0 0 860 0 860 -860 0 -860 0 0 -575 0 -575 -290 0
-290 0 0 575 0 575 -575 0 -575 0 -2 577 -3 578 -285 2 c-157 2 -417 3 -577 3
l-293 0 0 3165 0 3165 2305 0 2305 0 0 580 0 580 865 0 865 0 0 -290 0 -290
-575 0 -575 0 0 -575 0 -575 -1150 0 -1150 0 0 -290 0 -290 1435 0 1435 0 0
575 0 575 865 0 865 0 0 -285 0 -285 -575 0 -575 0 0 -290 0 -290 865 0 865 0
0 865 0 865 -575 0 -575 0 0 290 0 290 863 -2 862 -3 3 -577 2 -578 285 0 285
0 0 865 0 865 -2880 0 -2880 0 0 865 0 865 1150 0 1150 0 0 865 0 865 -285 0
-285 0 0 -580 0 -580 -865 0 -865 0 0 290 0 290 575 0 575 0 0 290 0 290 -575
0 -575 0 0 285 0 285 288 0 c158 0 416 0 575 0 l287 -1 0 291 0 290 -860 0
-860 0 -2 -1152 -3 -1153 -577 -3 -578 -2 0 -285 0 -285 580 0 580 0 0 -1150
0 -1150 575 0 575 0 0 -290 0 -290 -1440 0 -1440 0 0 290 0 290 575 0 575 0 0
285 0 285 -865 0 -865 0 0 -575 0 -575 -290 0 -290 0 0 2590 0 2590 578 2 577
3 3 288 2 287 -580 0 -580 0 0 575 0 575 -285 0 -285 0 0 -11235z M1440 23045
l0 -285 575 0 575 0 0 -865 0 -865 -575 0 -575 0 0 -1440 0 -1440 865 0 865 0
0 285 0 285 -575 0 -575 0 -2 578 c-2 317 -2 706 0 865 l2 287 575 0 575 0 0
1155 0 1155 2015 0 2015 0 0 -290 0 -290 -575 0 -575 0 0 -290 0 -291 288 1
c158 0 416 0 575 0 l287 0 0 -1440 0 -1440 -1150 0 -1150 0 0 -285 0 -285
1440 0 1440 0 0 2305 0 2305 285 0 285 0 2 -577 3 -578 288 -3 287 -2 0 580 0
580 290 0 290 0 0 -580 0 -580 285 0 285 0 0 580 0 580 290 0 290 0 0 -580 0
-580 285 0 285 0 0 580 0 580 1440 0 1440 0 0 -290 c0 -159 0 -420 0 -580 0
-159 0 -418 0 -575 l0 -285 -575 0 -575 0 0 -290 0 -290 865 0 865 0 0 1155 0
1155 865 0 865 0 0 -580 0 -581 288 1 c158 0 416 0 575 0 l287 0 0 -285 0
-285 -575 0 -575 0 0 -1155 0 -1155 -1155 0 -1155 0 0 -285 0 -285 2020 0
2020 0 0 285 0 285 -580 0 -580 0 0 865 0 865 290 0 290 0 0 -575 0 -575 290
0 290 0 0 575 0 575 1150 0 1150 0 0 290 0 290 -575 0 -575 0 0 575 0 575
-290 0 -290 0 0 -575 0 -575 -285 0 -285 0 0 575 0 575 -580 0 -580 0 0 290 0
290 1445 0 1445 0 0 -580 0 -580 285 0 285 0 0 580 0 580 865 0 865 0 0 -2020
0 -2020 -290 0 -290 0 0 1730 0 1730 -285 0 -285 0 0 -1155 0 -1155 -575 0
-575 0 0 -575 0 -575 -290 0 -290 0 0 575 0 575 -290 0 -290 0 0 -860 0 -860
865 0 865 0 0 575 0 575 290 0 290 0 0 -575 0 -575 575 0 575 0 0 -8645 0
-8645 288 2 287 3 2 11233 3 11232 -10660 0 -10660 0 0 -285z"/>
</g>
</svg>
