<?xml version="1.0" standalone="no"?>
<!DOCTYPE svg PUBLIC "-//W3C//DTD SVG 20010904//EN"
 "http://www.w3.org/TR/2001/REC-SVG-20010904/DTD/svg10.dtd">
<svg version="1.0" xmlns="http://www.w3.org/2000/svg"
 width="2362.000000pt" height="2362.000000pt" viewBox="0 0 2362.000000 2362.000000"
 preserveAspectRatio="xMidYMid meet">
<metadata>
Created by potrace 1.16, written by Peter Selinger 2001-2019
</metadata>
<g transform="translate(0.000000,2362.000000) scale(0.100000,-0.100000)"
fill="#000000" stroke="none">
<path d="M290 12095 l0 -11235 10655 0 10655 0 0 865 0 865 -860 0 -860 0 0
-285 0 -285 575 0 575 0 0 -290 0 -290 -865 0 -865 0 0 575 0 575 -290 0 -290
0 0 -575 0 -575 -285 0 -285 0 0 575 0 575 -865 0 -865 0 0 -285 0 -285 575 0
575 0 0 -290 0 -290 -1440 0 -1440 0 0 865 0 865 290 0 290 0 0 -575 0 -575
285 0 285 0 0 575 0 575 1730 0 1730 0 0 575 0 575 865 0 865 0 0 -290 0 -290
-575 0 -575 0 0 -285 0 -285 860 0 860 0 0 865 0 865 -575 0 -575 0 0 285 0
285 575 0 575 0 0 1440 0 1440 -285 0 -285 0 0 -1150 0 -1150 -290 0 -290 0 0
1440 0 1440 575 0 575 0 0 290 0 290 -575 -2 -575 -3 0 288 0 287 575 0 575 0
0 290 0 290 -2305 0 -2305 0 0 1725 0 1725 -1440 0 -1440 0 0 -285 0 -285
1155 0 1155 0 0 -1730 0 -1730 1730 0 1730 0 0 -285 0 -285 -292 0 c-161 0
-421 -1 -578 -3 l-285 -2 -3 -287 -2 -288 580 0 580 0 0 -865 0 -865 -290 0
-290 0 0 575 0 575 -290 0 -290 0 0 -860 0 -860 580 0 580 0 0 -865 0 -865
-290 0 -290 0 0 575 0 575 -575 0 -575 0 0 575 0 575 -865 0 -865 0 0 -285 0
-285 575 0 575 0 0 -580 0 -580 575 0 575 0 0 -285 0 -285 -865 0 -865 0 0
575 0 575 -285 0 -285 0 0 -575 0 -575 -290 0 -290 0 0 1150 0 1150 -575 0
-575 0 0 290 0 290 1730 0 1730 0 -2 863 -3 862 -285 0 -285 0 -3 -577 -2
-578 -1440 0 -1440 0 0 580 0 580 -287 -2 -288 -3 0 -1153 0 -1152 -287 0
-288 0 0 575 0 575 -865 0 -865 0 0 -285 0 -285 575 0 575 0 0 -575 0 -575
1155 0 1155 0 0 -290 0 -290 -577 -2 -578 -3 0 -285 0 -285 578 -3 577 -2 0
-575 0 -575 1725 0 1725 0 0 -290 0 -290 -2015 0 -2015 0 0 580 0 580 -575 0
-575 0 0 575 0 575 -290 0 -290 0 0 -1440 0 -1440 290 0 290 0 0 575 0 575
285 0 285 0 0 -282 c0 -156 1 -804 3 -1441 l2 -1157 -862 0 -863 0 0 290 0
290 575 0 575 0 0 285 0 285 -865 0 -865 0 0 -575 0 -575 -290 0 -290 0 0 865
0 865 580 0 580 0 0 2015 0 2015 -290 0 -290 0 0 -575 0 -575 -290 0 -290 0 0
1730 0 1730 -1438 -3 -1437 -2 -3 -287 -2 -288 1155 0 1155 0 0 -1730 0 -1730
575 0 575 0 0 -285 0 -285 -865 0 -865 0 0 1150 0 1150 -285 0 -285 0 0 -1440
0 -1440 1150 0 1150 0 0 -290 0 -290 -1730 0 -1730 0 0 -285 0 -285 580 0 580
0 0 -575 0 -575 285 0 285 0 0 575 0 575 290 0 290 0 0 -865 0 -865 -2595 0
-2595 0 0 575 0 575 -1440 0 -1440 0 0 -285 0 -285 1155 0 1155 0 0 -290 0
-290 -2020 0 -2020 0 0 290 0 290 580 0 580 0 0 285 0 285 -580 0 -580 0 0
290 0 290 580 0 580 0 0 285 0 285 -580 0 -580 0 0 290 0 290 865 0 865 0 0
-575 0 -575 865 0 865 0 0 285 0 285 -575 0 -575 0 0 1155 0 1155 -290 0 -290
0 0 -575 0 -575 -865 0 -865 0 0 285 0 285 578 2 577 3 2 2015 c2 1108 3 2144
3 2303 l0 287 865 0 865 0 0 -285 0 -285 -292 0 c-161 0 -421 -1 -578 -3
l-285 -2 -3 -862 -2 -863 290 0 290 0 0 575 0 575 290 0 290 0 0 -865 0 -865
-580 0 -580 0 0 -285 0 -285 578 -2 577 -3 3 -1152 2 -1153 285 0 285 0 0 575
0 575 575 0 575 0 0 290 0 290 -575 0 -575 0 0 290 0 290 865 0 865 0 0 -865
0 -865 -575 0 -575 0 0 -865 0 -865 285 0 285 0 0 575 0 575 865 0 865 0 0
-290 0 -290 -575 0 -575 0 0 -860 0 -860 1440 0 1440 0 0 285 0 285 -1155 0
-1155 0 0 290 0 290 580 0 580 0 0 575 0 575 575 0 575 0 0 865 0 865 -290 0
-290 0 0 -575 0 -575 -865 0 -865 0 0 285 0 285 578 2 577 3 3 288 2 287 -580
0 -580 0 0 575 0 575 -1150 0 -1150 0 0 865 0 865 290 0 290 0 0 -575 0 -575
285 0 285 0 0 865 0 865 -575 -2 -575 -3 0 578 0 577 -1440 0 -1440 0 0 -2305
0 -2305 -290 0 -290 0 0 2590 0 2590 578 2 577 3 3 288 2 287 -580 0 -580 0 0
865 0 865 1155 0 1155 0 0 865 0 865 -287 -2 -288 -3 -3 -577 -2 -578 -865 0
-865 0 0 1445 0 1445 580 0 580 0 0 285 0 285 -580 0 -580 0 0 2880 0 2880
-285 0 -285 0 0 -11235z M1440 21890 l0 -1440 288 2 287 3 2 575 c2 316 3 835
3 1153 l0 577 285 0 285 0 0 -1730 0 -1730 580 0 580 0 0 -575 0 -575 285 0
285 0 0 575 0 575 290 0 290 0 0 -575 0 -575 285 0 285 0 0 860 0 860 -1150 0
-1150 0 0 290 0 290 1150 0 1150 0 0 575 0 575 290 0 290 0 0 -575 0 -575 285
0 285 0 0 865 0 865 -1435 0 -1435 0 0 -290 0 -290 575 0 575 0 0 -285 0 -285
-865 0 -865 0 0 865 0 865 2590 0 2590 0 0 -290 0 -290 -575 0 -575 0 2 -287
3 -288 285 -2 c157 -2 414 -3 573 -3 l287 0 0 -285 0 -285 -575 0 -575 0 0
-290 0 -290 865 0 865 0 0 1155 0 1155 290 0 290 0 0 -2305 0 -2305 285 0 285
0 0 575 0 575 1440 0 1440 0 0 -865 0 -865 -285 0 -285 0 0 288 c0 158 0 416
0 575 l1 287 -291 0 -290 0 0 -575 0 -575 -290 0 -290 0 0 575 0 575 -285 0
-285 0 0 -575 0 -575 -1155 0 -1156 0 1 -287 c0 -159 0 -676 0 -1150 l0 -863
-285 0 -285 0 0 1440 0 1440 575 0 575 0 0 860 0 860 -290 0 -290 0 0 -575 0
-575 -285 0 -285 0 0 575 0 575 -290 0 -290 0 0 -1150 0 -1150 -290 0 -290 0
0 1150 0 1150 -285 0 -285 0 0 -1150 0 -1150 -1440 0 -1440 0 0 575 0 575
-575 0 -575 0 0 575 0 575 -290 0 -290 0 0 -860 0 -860 575 0 575 0 0 -865 0
-865 -575 0 -575 0 0 -865 0 -865 290 0 291 0 -1 288 c0 158 0 416 0 575 l0
287 575 0 575 0 0 580 0 580 288 -2 287 -3 3 -1727 2 -1728 285 0 285 0 0
1730 0 1730 1440 0 1440 0 0 -290 0 -290 -575 0 -575 0 0 -290 0 -290 575 0
575 0 0 -285 0 -285 -287 -2 c-159 -2 -548 -2 -865 0 l-578 2 0 575 0 575
-285 0 -285 0 0 -1440 0 -1440 285 0 285 0 0 575 0 575 865 0 865 0 0 -1440 0
-1440 -290 0 -290 0 0 1150 0 1150 -285 0 -285 0 0 -575 0 -575 -2305 0 -2305
0 0 -285 0 -285 2305 0 2305 0 0 -580 0 -581 288 1 c158 0 416 0 575 0 l287 0
0 -285 0 -285 -865 0 -865 0 0 575 0 575 -1440 0 -1440 0 2 -287 3 -288 575
-2 c316 -2 835 -3 1153 -3 l577 0 0 -575 0 -575 575 0 575 0 0 -1150 0 -1150
285 0 285 0 0 1150 0 1150 290 0 290 0 0 -1725 0 -1725 865 0 865 0 0 285 0
285 -575 0 -575 0 0 290 0 290 1150 0 1150 0 0 285 0 285 -1150 0 -1150 0 0
865 0 865 2590 0 2590 0 0 -285 0 -285 -287 0 c-159 0 -417 0 -575 0 l-288 1
0 -291 0 -290 865 0 865 0 0 575 0 575 865 0 865 0 0 -575 0 -575 860 0 860 0
0 290 0 290 -575 -2 -575 -3 0 578 0 577 -1150 0 -1150 0 0 575 0 575 -290 0
-290 0 0 -575 0 -575 -285 0 -285 0 0 283 c0 597 0 2035 0 2310 l0 287 285 0
285 0 0 -575 0 -575 1155 0 1155 0 0 -290 0 -290 -580 0 -580 0 2 -287 3 -288
863 -2 862 -3 0 865 0 865 -1150 0 -1150 0 0 865 0 865 575 0 575 0 0 575 0
575 290 0 290 0 0 -575 0 -575 1150 0 1150 0 0 -575 0 -575 290 0 290 0 0
1150 0 1150 285 0 285 0 0 -1725 0 -1725 290 0 290 0 0 575 0 575 290 0 290 0
0 -865 0 -865 -865 0 -865 0 0 575 0 575 -290 0 -290 0 2 -862 3 -863 1438 -2
1437 -3 0 1155 0 1155 575 0 575 0 0 285 0 285 -1150 0 -1150 0 0 2020 0 2020
290 0 290 0 0 -575 0 -575 285 0 285 0 0 860 0 860 -1440 0 -1440 0 0 -285 0
-285 575 0 575 0 0 -865 0 -865 -285 0 -285 0 0 575 0 575 -290 0 -290 0 0
-1150 0 -1150 -287 -2 c-159 -2 -548 -2 -865 0 l-578 2 0 865 0 865 290 0 290
0 0 -580 0 -580 285 0 285 0 0 865 0 865 -860 0 -860 0 0 -575 0 -575 -290 0
-290 0 0 575 0 575 -290 0 -290 0 0 -862 c0 -475 0 -992 0 -1150 l0 -288 -572
-2 -573 -3 -3 -577 -2 -578 -285 0 -285 0 -2 578 c-2 317 -2 706 0 865 l2 287
575 0 575 0 0 290 0 290 -1440 0 -1440 0 0 -290 0 -290 575 0 575 0 0 -865 0
-865 -290 0 -290 0 0 580 0 580 -285 0 -285 0 0 -580 0 -580 -575 0 -575 0 0
-285 0 -285 1150 0 1150 0 0 -290 0 -290 -575 0 -575 0 0 -865 0 -865 285 0
285 0 0 580 0 580 290 0 290 0 0 -865 0 -865 -2015 0 -2015 0 0 865 0 865 285
0 285 0 2 -577 3 -578 863 -2 862 -3 0 865 0 865 -285 0 -285 0 0 -575 0 -575
-290 0 -290 0 0 575 0 575 -575 0 -575 0 0 865 0 865 285 0 285 0 0 -287 c0
-159 0 -417 0 -575 l-1 -288 291 0 290 0 0 575 0 575 575 0 575 0 0 865 0 865
-285 0 -285 0 0 -575 0 -575 -290 0 -290 0 0 865 0 865 2305 0 2305 0 0 1150
0 1150 288 0 287 0 -3 -575 -2 -575 290 0 290 0 0 1440 0 1440 -287 -2 -288
-3 -2 -285 c-2 -157 -3 -417 -3 -577 l0 -293 -285 0 -285 0 0 1155 0 1155
-290 0 -290 0 0 -575 0 -575 -575 0 -575 0 0 -290 0 -290 575 0 575 0 0 -290
0 -290 -1440 0 -1440 0 0 290 0 290 575 0 575 0 0 290 0 290 -575 0 -575 0 0
865 0 865 290 0 290 0 0 -580 0 -580 863 3 862 2 3 288 2 287 -580 0 -580 0 0
290 0 290 2020 0 2020 0 0 -290 0 -290 -577 -2 -578 -3 0 -285 0 -285 578 -3
577 -2 0 -575 0 -575 575 0 575 0 0 -865 0 -865 -290 0 -290 0 0 575 0 575
-285 0 -285 0 0 -860 0 -860 860 0 860 0 0 575 0 575 580 0 580 0 0 1150 0
1150 288 0 c158 0 416 0 575 0 l287 -1 0 291 0 290 -865 0 -865 0 0 -1155 0
-1155 -287 2 -288 3 -3 1153 -2 1152 -285 0 -285 0 0 -575 0 -575 -290 0 -290
0 0 865 0 865 2020 0 2020 0 0 -580 0 -580 860 0 860 0 0 290 0 290 -575 0
-575 0 0 290 0 290 865 0 865 0 0 -865 0 -865 -1727 -2 -1728 -3 -3 -862 -2
-863 290 0 290 0 0 575 0 575 290 0 290 0 0 -575 0 -575 285 0 285 0 0 575 0
575 290 0 290 0 0 -575 0 -575 285 0 285 0 0 575 0 575 290 0 290 0 0 -865 0
-865 -575 0 -575 0 0 -860 0 -860 285 0 285 0 0 575 0 575 290 0 290 0 0 -865
0 -865 -1150 0 -1150 0 0 -865 0 -865 860 0 860 0 0 290 0 290 -575 0 -575 0
0 285 0 285 865 0 865 0 0 -2015 0 -2015 -290 0 -290 0 0 575 0 575 -285 0
-285 0 0 -865 0 -866 288 1 c158 0 416 0 575 0 l287 0 0 -5185 0 -5185 288 2
287 3 2 11233 3 11232 -10660 0 -10660 0 0 -1440z"/>
</g>
</svg>
