<?xml version="1.0" standalone="no"?>
<!DOCTYPE svg PUBLIC "-//W3C//DTD SVG 20010904//EN"
 "http://www.w3.org/TR/2001/REC-SVG-20010904/DTD/svg10.dtd">
<svg version="1.0" xmlns="http://www.w3.org/2000/svg"
 width="2362.000000pt" height="2362.000000pt" viewBox="0 0 2362.000000 2362.000000"
 preserveAspectRatio="xMidYMid meet">
<metadata>
Created by potrace 1.16, written by Peter Selinger 2001-2019
</metadata>
<g transform="translate(0.000000,2362.000000) scale(0.100000,-0.100000)"
fill="#000000" stroke="none">
<path d="M290 12095 l0 -11235 10655 0 10655 0 0 290 0 290 -4605 0 -4605 0 0
288 c0 158 0 416 0 574 l1 288 -291 0 -290 0 0 -575 0 -575 -290 0 -290 0 0
865 0 865 865 0 865 0 0 -575 0 -575 865 0 865 0 0 1440 0 1440 -287 -2 -288
-3 0 -1153 0 -1152 -287 0 -288 0 0 1155 0 1155 -575 0 -575 0 0 288 c0 158
-1 1194 -3 2302 l-2 2015 -288 3 -287 2 0 -580 0 -580 -290 0 -290 0 0 580 0
580 -1438 -3 -1437 -2 -3 -287 -2 -288 580 0 580 0 0 -1150 0 -1150 860 0 860
0 0 285 0 285 -575 0 -575 0 0 865 0 865 290 0 290 0 0 -575 0 -575 575 0 575
0 0 -1440 0 -1440 -290 0 -290 0 0 575 0 575 -1150 0 -1150 0 0 575 0 575
-290 0 -291 0 1 -288 c0 -158 0 -416 0 -574 l0 -288 -1440 0 -1440 0 0 865 0
865 575 0 575 0 0 285 0 285 -575 0 -575 0 0 580 0 580 -285 0 -285 0 0 -2595
0 -2595 285 0 285 0 0 575 0 575 290 0 290 0 0 -575 0 -575 285 0 285 0 0 575
0 575 290 0 290 0 0 -575 0 -575 290 0 290 0 0 575 0 575 285 0 285 0 0 -575
0 -575 865 0 865 0 0 290 0 290 -575 0 -575 0 0 285 0 285 865 0 865 0 0 -575
0 -575 1150 0 1150 0 0 -290 0 -290 -1150 0 -1150 0 0 -1150 0 -1150 -290 0
-290 0 0 1150 0 1150 -1440 0 -1440 0 0 -575 0 -575 -2305 0 -2305 0 0 -285 0
-285 2595 0 2595 0 0 575 0 575 285 0 285 0 0 -575 0 -575 290 0 290 0 0 575
0 575 290 0 290 0 0 -865 0 -865 -4325 0 -4325 0 0 1440 0 1440 580 0 580 0
-2 287 -3 288 -577 3 -578 2 0 285 0 285 1155 0 1155 0 0 290 0 290 -1155 0
-1155 0 0 1440 0 1440 580 0 580 0 -3 863 -2 862 -287 3 -288 2 0 -575 0 -575
-290 0 -290 0 0 1440 0 1440 580 0 580 0 -2 1438 -3 1437 -287 3 -288 2 0
-1155 0 -1155 -290 0 -290 0 0 1440 0 1440 578 2 577 3 2 863 3 862 -290 0
-290 0 0 -575 0 -575 -290 0 -290 0 0 1440 0 1440 290 0 290 0 0 -575 0 -575
290 0 290 0 0 860 0 860 -578 2 -577 3 -3 862 -2 863 577 2 578 3 3 288 2 287
-580 0 -580 0 0 575 0 575 -285 0 -285 0 0 -11235z M1440 23045 l0 -285 575 0
575 0 2 -577 3 -578 285 0 285 0 3 578 2 577 2590 0 2590 0 0 -290 0 -290
-575 0 -575 0 2 -287 3 -288 1155 -2 c635 -2 1413 -3 1728 -3 l572 0 0 -575 0
-575 285 0 285 0 0 865 0 865 -1150 0 -1150 0 0 290 0 290 1440 0 1440 0 0
-1155 0 -1155 288 2 287 3 2 575 c2 316 3 835 3 1153 l0 577 1440 0 1440 0 0
-290 0 -290 -1155 0 -1155 0 0 -1730 0 -1730 -285 0 -285 0 0 575 0 575 -290
0 -290 0 0 -575 0 -575 -290 0 -290 0 0 575 0 575 -285 0 -285 0 0 -1150 0
-1150 -290 0 -290 0 0 1730 0 1730 -862 -2 -863 -3 -3 -287 -2 -288 580 0 580
0 0 -865 0 -865 -865 0 -865 0 0 290 0 290 575 0 575 0 0 285 0 285 -575 0
-575 0 -2 578 -3 577 -287 3 -288 2 0 -1730 0 -1730 -290 0 -290 0 0 1730 0
1730 -575 0 -575 0 0 285 0 285 575 0 575 0 0 290 0 290 -860 0 -860 0 0 -865
0 -865 575 0 575 0 0 -865 0 -865 -290 0 -290 0 0 575 0 575 -575 0 -575 0 0
1155 0 1155 -285 0 -285 0 0 -1440 0 -1440 575 0 575 0 0 -575 0 -575 575 0
575 0 0 -290 0 -290 -1440 0 -1440 0 0 290 0 290 575 0 575 0 0 285 0 285
-575 0 -575 0 0 1155 0 1155 -865 0 -865 0 0 -290 0 -290 575 0 575 0 0 -1725
0 -1725 1155 0 1155 0 0 -865 0 -865 -577 -2 c-318 -2 -707 -2 -865 0 l-288 2
0 285 0 285 575 0 575 0 0 290 0 290 -865 0 -865 0 0 -865 0 -865 580 0 580 0
-2 -287 -3 -288 -577 -3 -578 -2 0 -1150 0 -1150 -575 0 -575 0 0 -290 0 -291
288 1 c158 0 416 0 575 0 l287 0 0 -575 0 -575 290 0 290 0 0 1730 0 1730 865
0 865 0 0 -865 0 -865 -290 0 -290 0 0 575 0 575 -285 0 -285 0 0 -865 0 -865
575 0 575 0 0 -285 0 -285 -575 0 -575 0 0 -575 0 -575 -292 0 c-161 0 -421
-1 -578 -3 l-285 -2 -3 -577 -2 -578 -575 0 -575 0 0 -860 0 -860 290 0 290 0
0 575 0 575 575 0 575 0 0 575 0 575 290 0 290 0 0 -865 0 -865 -580 0 -580 0
0 -285 0 -285 578 -2 577 -3 3 -862 2 -863 -577 -2 -578 -3 -3 -578 -2 -577
-575 0 -575 0 0 -860 0 -860 290 0 291 0 -1 288 c0 158 0 416 0 575 l0 287
575 0 575 0 0 575 0 575 290 0 290 0 0 -575 0 -575 1435 0 1435 0 0 285 0 285
-1150 0 -1150 0 0 3170 0 3170 575 0 575 0 0 575 0 575 575 0 575 0 0 290 0
290 -575 0 -575 0 0 290 0 290 575 0 575 0 0 575 0 575 865 0 865 0 0 -290 0
-290 -575 0 -575 0 0 -285 0 -285 575 0 575 0 0 -290 0 -290 -575 0 -575 0 0
-575 0 -575 -575 0 -575 0 0 -865 0 -865 285 0 285 0 0 575 0 575 290 0 290 0
0 -1440 0 -1440 -575 0 -575 0 0 -285 0 -285 865 0 865 0 0 575 0 575 575 0
575 0 0 285 0 285 -575 0 -575 0 0 865 0 865 1150 0 1150 0 0 1155 0 1155 290
0 290 0 0 -1155 0 -1155 285 0 285 0 0 575 0 575 290 0 290 0 0 -575 0 -575
575 0 575 0 0 -575 0 -575 290 0 290 0 0 865 0 865 -575 0 -575 0 0 285 0 285
288 0 c158 0 415 1 572 3 l285 2 3 288 2 287 -1155 0 -1155 0 0 290 0 290
1440 0 1440 0 2 -577 3 -578 865 -2 c476 -2 994 -3 1153 -3 l287 0 0 -575 0
-575 285 0 285 0 0 575 0 575 578 0 c317 0 837 0 1155 0 l577 0 0 1155 0 1155
1150 0 1150 0 0 285 0 285 -1725 0 -1725 0 0 865 0 865 575 0 575 0 0 290 0
290 -865 0 -865 0 0 -1440 0 -1440 575 0 575 0 0 -865 0 -865 -285 0 -285 0 0
575 0 575 -290 0 -290 0 0 -575 0 -575 -1440 0 -1440 0 0 865 0 865 290 0 290
0 0 -575 0 -575 285 0 285 0 0 575 0 575 290 0 290 0 0 -575 0 -575 285 0 285
0 0 860 0 860 -575 0 -575 0 0 290 0 290 575 0 575 0 0 290 0 290 -860 0 -860
0 0 -580 0 -580 -290 0 -290 0 0 580 0 580 -287 -2 -288 -3 0 -1153 0 -1152
-862 0 -863 0 0 290 0 290 575 0 575 0 -2 863 -3 862 -862 2 -863 3 0 -290 0
-290 575 0 575 0 0 -290 0 -290 -575 0 -575 0 0 -575 0 -575 -1150 0 -1150 0
0 -1150 0 -1150 -865 0 -865 0 0 285 0 285 288 0 c158 0 416 0 575 0 l287 -1
0 1156 0 1155 1150 0 1150 0 0 1440 0 1440 -285 0 -285 0 0 -1155 0 -1155
-865 0 -865 0 0 580 0 580 -287 -2 -288 -3 -3 -578 -2 -577 -863 2 -862 3 -3
1153 -2 1152 -285 0 -285 0 0 -1730 0 -1730 -290 0 -290 0 0 575 0 575 -575 0
-575 0 0 290 0 290 575 0 575 0 0 1155 0 1155 1155 0 1155 0 0 575 0 575 285
0 285 0 0 -575 0 -575 290 0 290 0 0 575 0 575 290 0 290 0 0 -865 0 -865
-1155 0 -1155 0 0 -865 0 -865 290 0 290 0 0 575 0 575 865 0 865 0 0 -575 0
-575 285 0 285 0 0 1155 0 1155 1155 0 1155 0 0 285 0 285 -580 0 -580 0 0
290 0 290 1155 0 1155 0 0 575 0 575 288 0 287 0 -3 -575 -2 -575 865 0 865 0
0 575 0 575 290 0 290 0 0 -865 0 -865 -1730 0 -1730 0 0 -575 0 -575 -575 0
-575 0 0 -290 0 -290 865 0 865 0 0 580 0 580 865 0 865 0 0 -290 0 -290 -577
-2 -578 -3 0 -285 0 -285 1438 -3 1437 -2 0 290 0 290 -575 0 -575 0 0 290 0
290 2018 -2 2017 -3 3 -577 2 -578 285 0 285 0 0 3170 0 3170 -865 0 -865 0 2
-287 3 -288 578 -3 577 -2 0 -1440 0 -1440 -580 0 -580 0 0 -285 0 -285 580 0
580 0 0 -290 0 -290 -1445 0 -1445 0 0 290 0 290 580 0 580 0 0 285 0 285
-580 0 -580 0 0 290 0 290 580 0 580 0 0 285 0 285 -1440 0 -1440 0 0 -575 0
-575 -290 0 -290 0 0 575 0 575 -575 0 -575 0 0 865 0 865 285 0 285 0 0 -287
c0 -159 1 -416 3 -573 l2 -285 2303 -3 2302 -2 0 -575 0 -575 290 0 290 0 0
865 0 865 -575 0 -575 0 0 575 0 575 -290 0 -290 0 0 -575 0 -575 -290 0 -290
0 0 575 0 575 -285 0 -285 0 0 -575 0 -575 -865 0 -865 0 0 285 0 285 288 0
c158 0 416 0 575 0 l287 -1 0 581 0 580 2595 0 2595 0 0 -1155 0 -1155 285 0
285 0 0 1155 0 1155 290 0 290 0 0 -1445 0 -1445 -575 0 -575 0 0 -285 0 -285
575 0 575 0 0 -290 0 -290 -575 0 -575 0 0 -285 0 -285 575 0 575 0 0 -290 0
-290 -575 0 -575 0 0 -285 0 -285 575 0 575 0 0 -290 0 -290 -575 0 -575 0 0
-290 0 -290 575 0 575 0 0 -285 0 -285 -287 0 c-159 0 -936 -1 -1728 -3
l-1440 -2 -3 -287 -2 -288 1730 0 1730 0 0 -865 0 -865 -1150 0 -1150 0 0
-285 0 -285 575 0 575 0 0 -290 0 -290 -575 0 -575 0 0 -865 0 -865 285 0 285
0 0 575 0 575 288 0 c158 0 416 0 575 0 l287 -1 0 581 0 580 290 0 290 0 0
-865 0 -865 -575 0 -575 0 0 -290 0 -290 575 0 575 0 0 -287 0 -288 -575 3
-575 2 0 -580 0 -580 -865 0 -865 0 0 290 0 290 575 0 575 0 0 290 0 291 -287
-1 c-159 0 -417 0 -575 0 l-288 0 0 575 0 575 -865 0 -865 0 0 -290 0 -290
575 0 575 0 0 -285 0 -285 -282 0 c-156 0 -1063 -1 -2016 -3 l-1732 -2 0 288
0 287 575 0 575 0 0 290 0 290 -862 -2 -863 -3 -2 -863 -3 -862 580 0 580 0 0
-290 0 -290 -1155 0 -1155 0 2 -1437 3 -1438 2013 -3 2012 -2 0 290 0 290
-1725 0 -1725 0 0 865 0 865 288 0 287 0 -3 -575 -2 -575 1440 0 1440 0 0 285
0 285 -1150 0 -1150 0 0 290 0 290 575 0 575 0 0 575 0 575 290 0 290 0 0
-575 0 -575 285 0 285 0 0 575 0 575 290 0 290 0 0 -1150 0 -1150 290 0 290 0
0 1150 0 1150 285 0 285 0 0 -575 0 -575 580 0 580 0 0 -290 0 -290 -580 0
-580 0 2 -862 3 -863 288 -3 287 -2 0 580 0 580 575 0 575 0 0 575 0 575 290
0 290 0 0 -575 0 -575 285 0 285 0 0 1150 0 1150 290 0 290 0 0 -1440 0 -1440
-1150 0 -1150 0 0 -290 0 -290 1150 0 1150 0 0 -285 0 -285 -1150 0 -1150 0 0
-290 0 -290 1150 0 1150 0 0 -290 0 -290 -1440 0 -1440 0 0 580 0 580 -575 0
-575 0 0 575 0 575 -290 0 -290 0 0 -865 0 -865 575 0 575 0 0 -290 0 -290
-1440 0 -1440 0 0 290 0 290 575 0 575 0 0 290 0 290 -860 0 -860 0 0 -865 0
-865 575 0 575 0 0 -290 0 -290 -575 0 -575 0 0 -285 0 -285 860 0 860 0 0
575 0 575 290 0 290 0 0 -575 0 -575 290 0 290 0 0 575 0 575 285 0 285 0 0
-575 0 -575 290 0 290 0 0 575 0 575 1440 0 1440 0 0 -290 0 -290 -1150 0
-1150 0 0 -285 0 -285 1150 0 1150 0 0 -580 0 -580 288 2 287 3 2 11233 3
11232 -10660 0 -10660 0 0 -285z"/>
</g>
</svg>
