<?xml version="1.0" standalone="no"?>
<!DOCTYPE svg PUBLIC "-//W3C//DTD SVG 20010904//EN"
 "http://www.w3.org/TR/2001/REC-SVG-20010904/DTD/svg10.dtd">
<svg version="1.0" xmlns="http://www.w3.org/2000/svg"
 width="2362.000000pt" height="2362.000000pt" viewBox="0 0 2362.000000 2362.000000"
 preserveAspectRatio="xMidYMid meet">
<metadata>
Created by potrace 1.16, written by Peter Selinger 2001-2019
</metadata>
<g transform="translate(0.000000,2362.000000) scale(0.100000,-0.100000)"
fill="#000000" stroke="none">
<path d="M290 12095 l0 -11235 10655 0 10655 0 0 290 0 290 -6335 0 -6335 0 0
290 0 290 575 0 575 0 0 285 0 285 -865 0 -866 0 1 -288 c0 -158 0 -416 0
-574 l0 -288 -865 0 -865 0 0 575 0 575 -860 0 -860 0 0 -285 0 -285 575 0
575 0 0 -290 0 -290 -1440 0 -1440 0 0 575 0 575 -290 0 -290 0 0 -575 0 -575
-865 0 -865 0 0 290 0 290 580 0 580 0 0 285 0 285 -580 0 -580 0 0 865 0 865
865 0 865 0 0 -290 0 -290 -575 0 -575 0 0 -285 0 -285 1155 0 1155 0 0 -575
0 -575 285 0 285 0 0 860 0 860 -575 0 -575 0 0 865 0 865 290 0 290 0 0 -575
0 -575 575 0 575 0 0 -575 0 -575 285 0 285 0 0 575 0 575 575 0 575 0 0 290
0 290 -1150 0 -1150 0 0 285 0 285 1150 0 1150 0 2 578 3 577 288 3 287 2 0
-580 0 -580 288 2 287 3 3 1438 2 1437 -290 0 -290 0 0 -575 0 -575 -575 0
-575 0 0 -575 0 -575 -290 0 -290 0 0 575 0 575 -285 0 -285 0 0 -575 0 -575
-865 0 -865 0 0 290 0 290 575 0 575 0 0 285 0 285 -1150 0 -1150 0 0 290 0
290 575 0 575 0 -2 863 -3 862 -860 0 -860 0 -3 -287 -2 -288 575 0 575 0 0
-290 0 -290 -575 0 -575 0 0 -860 0 -860 575 0 575 0 0 -290 0 -290 -575 0
-575 0 0 -290 0 -290 575 0 575 0 0 -285 0 -285 -865 0 -865 0 0 3165 0 3165
578 2 c317 2 706 2 865 0 l287 -2 0 -285 0 -285 -575 0 -575 0 0 -290 0 -290
1730 0 1730 0 0 -287 0 -288 -575 3 -575 2 0 -865 0 -865 285 0 285 0 0 575 0
575 290 0 290 0 0 -575 0 -575 285 0 285 0 0 1150 0 1150 575 0 575 0 0 290 0
290 -1150 0 -1150 0 0 575 0 575 -285 0 -285 0 0 -575 0 -575 -290 0 -290 0 0
865 0 865 1150 0 1150 0 0 860 0 860 -285 0 -285 0 0 -575 0 -575 -865 0 -865
0 0 1155 0 1155 -865 0 -865 0 0 -1440 0 -1440 290 0 290 0 0 863 c0 474 0
991 0 1150 l0 287 285 0 285 0 0 -1440 0 -1440 -865 0 -865 0 0 2015 0 2015
578 2 577 3 0 285 0 285 -577 3 -578 2 0 865 0 865 580 0 580 0 0 285 0 285
-580 0 -580 0 0 1440 0 1440 578 2 c317 2 706 2 865 0 l287 -2 0 -575 0 -575
1440 0 1440 0 0 865 0 865 -285 0 -285 0 0 -575 0 -575 -865 0 -865 0 0 575 0
575 -1155 0 -1155 0 0 575 0 575 -285 0 -285 0 0 -11235z M1440 23045 l0 -285
1153 -2 1152 -3 3 -577 2 -578 285 0 285 0 0 580 0 580 865 0 865 0 0 -1730 0
-1730 575 0 575 0 0 -290 0 -290 -575 0 -575 0 0 -285 0 -285 1150 0 1150 0 2
-577 c2 -318 2 -707 0 -865 l-2 -288 -2590 0 -2590 0 0 1440 0 1440 865 0 865
0 0 -865 0 -865 -290 0 -290 0 0 575 0 575 -285 0 -285 0 0 -860 0 -860 2015
0 2015 0 0 285 0 285 -1155 0 -1155 0 0 1150 0 1150 -1725 0 -1725 0 -2 578
-3 577 -287 3 -288 2 0 -865 0 -865 575 0 575 0 0 -865 0 -865 -575 0 -575 0
0 -285 0 -285 575 0 575 0 2 -577 3 -578 578 -3 577 -2 0 -1150 0 -1150 285 0
285 0 0 1150 0 1150 290 0 290 0 0 -575 0 -575 575 0 575 0 0 -575 0 -575 865
0 865 0 0 285 0 285 -577 2 -578 3 -3 578 -2 577 -575 0 -575 0 0 285 0 285
865 0 865 0 0 -575 0 -575 290 0 290 0 0 575 0 575 285 0 285 0 0 -862 c0
-475 0 -992 0 -1150 l-1 -288 291 0 290 0 0 575 0 575 290 0 290 0 0 -2305 0
-2305 285 0 285 0 0 1155 0 1155 290 0 290 0 0 -2020 0 -2020 -290 0 -290 0 0
580 0 581 -287 -1 c-159 0 -417 0 -575 0 l-288 0 0 1725 0 1725 -1440 0 -1440
0 0 -575 0 -575 -575 0 -575 0 0 -290 0 -290 1438 3 1437 2 3 288 2 287 -580
0 -580 0 0 290 0 290 865 0 865 0 2 -577 c2 -318 2 -707 0 -865 l-2 -288 -575
0 -575 0 0 -290 0 -290 575 0 575 0 0 -285 0 -285 -287 0 c-159 0 -676 0
-1150 0 l-863 0 0 -865 0 -865 285 0 285 0 0 575 0 575 1445 0 1445 0 0 -290
0 -290 -580 0 -580 0 0 -285 0 -285 1155 0 1155 0 0 -865 0 -865 -290 0 -290
0 0 575 0 575 -865 0 -865 0 0 -285 0 -285 580 0 580 0 0 -580 0 -580 860 0
860 0 0 4035 0 4035 290 0 290 0 0 -2880 0 -2880 290 0 290 0 0 863 c0 474 0
991 0 1150 l0 287 575 0 575 0 0 290 0 290 -575 0 -575 0 0 285 0 285 288 0
c158 0 415 1 572 3 l285 2 3 288 2 287 -575 0 -575 0 0 285 c0 157 0 418 0
580 0 162 0 423 0 580 l0 285 285 0 285 0 0 -575 0 -575 865 0 865 0 0 860 0
860 -290 0 -290 0 2 -575 3 -575 -287 0 -288 0 0 865 0 865 575 0 575 0 0 290
0 291 -287 -1 c-159 0 -417 0 -575 0 l-288 0 0 865 0 865 285 0 285 0 0 -292
c0 -161 1 -421 3 -578 l2 -285 288 -3 287 -2 0 865 0 865 -1440 0 -1440 0 0
-285 0 -285 575 0 575 0 0 -1445 0 -1445 -285 0 -285 0 -2 578 -3 577 -287 3
-288 2 0 -580 0 -580 -575 0 -575 0 0 -575 0 -575 -290 0 -290 0 0 1155 0
1156 -287 -1 c-159 0 -417 0 -575 0 l-288 0 0 285 0 285 865 0 865 0 0 -575 0
-575 285 0 285 0 0 575 0 575 578 2 577 3 0 285 0 285 -1152 3 -1153 2 0 865
0 865 290 0 290 0 0 -575 0 -575 285 0 285 0 0 575 0 575 580 0 580 0 0 285 0
285 -580 0 -580 0 0 290 0 290 865 0 865 0 0 -575 0 -575 290 0 290 0 0 860 0
860 -1440 0 -1440 0 0 -575 0 -575 -575 0 -575 0 0 -1150 0 -1150 -290 0 -290
0 0 1150 0 1150 -575 0 -575 0 0 1730 0 1730 -290 0 -290 0 0 -1155 0 -1155
-287 2 -288 3 -3 1443 -2 1442 865 0 865 0 0 -577 c0 -318 0 -1097 0 -1730 l0
-1153 290 0 290 0 0 1730 0 1730 1440 0 1440 0 0 -290 0 -290 -1150 0 -1150 0
0 -290 0 -290 863 0 c474 0 991 0 1150 0 l287 0 0 -285 0 -285 -1150 0 -1150
0 0 -865 0 -865 285 0 285 0 0 575 0 575 1153 2 1152 3 2 575 c2 316 3 835 3
1153 l0 577 285 0 285 0 0 -1155 0 -1155 290 0 290 0 0 1155 0 1155 285 0 285
0 0 -292 c0 -161 0 -940 0 -1730 l0 -1438 865 0 865 0 0 285 0 285 -575 0
-575 0 0 1445 0 1445 290 0 290 0 0 -1155 0 -1155 285 0 285 0 0 1155 0 1155
2595 0 2595 0 0 -290 0 -290 -575 0 -575 0 0 -1440 0 -1440 575 0 575 0 0
-575 0 -575 285 0 285 0 0 860 0 860 -575 0 -575 0 0 865 0 865 288 0 c158 0
416 0 575 0 l287 -1 0 581 0 580 290 0 290 0 0 -865 0 -865 -575 0 -575 0 0
-290 0 -290 575 0 575 0 0 -2015 0 -2015 -290 0 -290 0 0 575 0 575 -1150 0
-1150 0 0 290 0 290 575 0 575 0 0 285 0 285 -575 0 -575 0 0 1155 0 1155
-287 -2 -288 -3 -3 -577 -2 -578 -285 0 -285 0 0 865 0 865 288 0 c158 0 416
0 575 0 l287 -1 0 291 0 290 -865 0 -865 0 0 -1155 0 -1155 -287 2 -288 3 -3
1153 -2 1152 -285 0 -285 0 0 -1440 0 -1440 1150 0 1150 0 0 -290 0 -290 -575
0 -575 0 0 -285 0 -285 575 0 575 0 0 -290 0 -290 -865 0 -865 0 0 575 0 575
-1440 0 -1440 0 0 -285 0 -285 580 0 580 0 0 -575 0 -575 285 0 285 0 0 575 0
575 290 0 290 0 0 -1155 0 -1155 575 0 575 0 0 -285 0 -285 -287 -2 c-159 -2
-548 -2 -865 0 l-578 2 0 575 0 575 -285 0 -285 0 0 -1440 0 -1440 285 0 285
0 0 575 0 575 290 0 290 0 0 -865 0 -865 -575 0 -575 0 0 -285 0 -285 575 0
575 0 0 -290 0 -290 -1155 0 -1155 0 2 -287 3 -288 578 -3 577 -2 0 -285 0
-285 -577 -2 -578 -3 -2 -569 c-2 -313 -4 -571 -6 -573 -2 -2 -260 -4 -573 -6
l-569 -2 -3 -287 -2 -288 577 0 578 0 0 -865 0 -865 -287 0 -288 0 0 575 0
575 -290 0 -290 0 0 -575 0 -575 -575 0 -575 0 0 -865 0 -865 575 0 575 0 0
-865 0 -865 -865 0 -865 0 0 290 0 290 580 0 580 0 -2 288 -3 287 -1727 3
-1728 2 0 575 0 575 -290 0 -290 0 0 -575 0 -575 -575 0 -575 0 0 -580 0 -580
-575 0 -575 0 0 -285 0 -285 575 0 575 0 0 -575 0 -575 290 0 290 0 0 1150 0
1150 285 0 285 0 0 -287 c0 -159 0 -417 0 -575 l-1 -288 291 0 290 0 0 575 0
575 290 0 290 0 0 -575 0 -575 285 0 285 0 0 575 0 575 290 0 290 0 0 -1150 0
-1150 285 0 285 0 0 575 0 575 290 0 290 0 0 -575 0 -575 290 0 291 0 -1 287
c0 159 0 417 0 576 l0 287 1440 0 1440 0 0 -290 0 -290 -1155 0 -1155 0 0
-285 0 -285 1440 0 1440 0 0 575 0 575 1155 0 1155 0 -2 863 -3 862 -287 3
-288 2 0 -580 0 -580 -865 0 -865 0 0 1730 0 1730 -285 0 -285 0 0 -1150 0
-1150 -577 -2 -578 -3 0 -285 0 -285 578 -3 577 -2 0 -290 0 -290 -865 0 -865
0 0 1155 0 1155 -575 0 -575 0 0 290 0 290 860 0 860 0 0 -292 c0 -161 1 -421
3 -578 l2 -285 288 -3 287 -2 0 1155 0 1155 865 0 865 0 0 -1730 0 -1730 285
0 285 0 0 575 0 575 578 2 577 3 3 288 2 287 -580 0 -580 0 2 288 3 287 578 3
577 2 0 575 0 575 865 0 865 0 0 -290 0 -290 -580 0 -580 0 0 -2305 0 -2305
-1150 0 -1150 0 0 -285 0 -285 1440 0 1440 0 0 1150 0 1150 290 0 290 0 0
-575 0 -575 285 0 285 0 0 865 0 865 -575 0 -575 0 0 865 0 865 290 0 290 0 0
-580 0 -580 285 0 285 0 0 2595 0 2595 -285 0 -285 0 0 -1155 0 -1155 -1155 0
-1155 0 0 -575 0 -575 -290 0 -290 0 0 575 0 575 -1150 0 -1150 0 0 290 0 290
1150 0 1150 0 0 290 0 290 -1150 -3 -1150 -2 0 288 0 287 2015 0 2015 0 0
-285 0 -285 -287 0 c-159 0 -416 -1 -573 -3 l-285 -2 -3 -287 -2 -288 865 0
865 0 0 865 0 865 -1730 0 -1730 0 0 285 0 285 578 0 c317 0 1096 0 1730 0
l1152 0 0 865 0 865 -575 0 -575 0 0 290 0 290 575 0 575 0 0 865 0 865 -287
-2 -288 -3 -3 -577 -2 -578 -575 0 -575 0 0 -860 0 -860 575 0 575 0 0 -290 0
-290 -865 0 -865 0 0 1440 0 1440 580 0 580 0 0 575 0 575 575 0 575 0 0 290
0 290 -1155 0 -1155 0 2 288 3 287 1440 0 1440 0 3 -577 2 -578 285 0 285 0 0
580 0 580 290 0 290 0 0 -1445 0 -1445 -290 0 -290 0 0 580 0 580 -285 0 -285
0 0 -2020 0 -2020 285 0 285 0 0 1155 0 1155 290 0 290 0 0 -575 0 -575 285 0
285 0 0 1725 0 1725 290 0 290 0 0 -2015 0 -2015 -575 0 -575 0 0 -865 0 -865
285 0 285 0 0 575 0 575 290 0 290 0 0 -862 0 -863 -575 3 -575 2 0 -865 0
-865 285 0 285 0 0 575 0 575 290 0 290 0 0 -865 0 -865 -575 0 -575 0 0 -285
0 -285 575 0 575 0 0 -1445 0 -1445 -290 0 -290 0 0 1155 0 1155 -285 0 -285
0 0 -1730 0 -1730 -575 0 -575 0 0 -285 0 -285 860 0 860 0 0 575 0 575 290 0
290 0 0 -1155 0 -1155 288 2 287 3 2 11233 3 11232 -10660 0 -10660 0 0 -285z"/>
</g>
</svg>
