<?xml version="1.0" standalone="no"?>
<!DOCTYPE svg PUBLIC "-//W3C//DTD SVG 20010904//EN"
 "http://www.w3.org/TR/2001/REC-SVG-20010904/DTD/svg10.dtd">
<svg version="1.0" xmlns="http://www.w3.org/2000/svg"
 width="2362.000000pt" height="2362.000000pt" viewBox="0 0 2362.000000 2362.000000"
 preserveAspectRatio="xMidYMid meet">
<metadata>
Created by potrace 1.16, written by Peter Selinger 2001-2019
</metadata>
<g transform="translate(0.000000,2362.000000) scale(0.100000,-0.100000)"
fill="#000000" stroke="none">
<path d="M290 12095 l0 -11235 10655 0 10655 0 0 290 0 290 -4030 0 -4030 0 0
575 0 575 -290 0 -290 0 0 -575 0 -575 -1440 0 -1440 0 0 865 0 865 290 0 290
0 0 -575 0 -575 285 0 285 0 0 860 0 860 -575 0 -575 0 0 290 0 290 865 0 865
0 0 -1150 0 -1150 290 0 291 0 -1 287 c0 159 0 417 0 576 l0 287 863 0 862 0
-3 -575 -2 -575 290 0 290 0 0 575 0 575 290 0 290 0 0 -575 0 -575 860 0 860
0 0 860 0 860 -285 0 -285 0 0 -575 0 -575 -290 0 -290 0 0 1155 0 1155 -285
0 -285 0 0 -580 0 -580 -1440 0 -1440 0 0 290 0 290 575 0 575 0 0 575 0 575
285 0 285 0 0 -287 c0 -159 1 -416 3 -573 l2 -285 288 -3 287 -2 0 575 0 575
575 0 575 0 0 290 0 290 -575 0 -575 0 0 575 0 575 -290 0 -291 0 1 -288 c0
-158 0 -416 0 -574 l0 -288 -575 0 -575 0 0 -575 0 -575 -285 0 -285 0 0 288
c0 158 0 675 0 1150 l0 862 -1440 0 -1440 0 0 -575 0 -575 -290 0 -290 0 0
2015 0 2015 575 0 575 0 0 290 0 290 -862 -2 -863 -3 0 -2590 0 -2590 1438 -3
1437 -2 0 290 0 290 -575 0 -575 0 0 290 0 290 865 0 865 0 0 -865 0 -865
-1150 0 -1150 0 0 -580 0 -580 -580 0 -580 0 0 -285 0 -285 580 0 580 0 0
-290 0 -290 -580 0 -580 0 0 -285 0 -285 580 0 580 0 0 -290 0 -290 -2595 0
-2595 0 0 575 0 575 -285 0 -285 0 0 -575 0 -575 -290 0 -290 0 0 865 0 865
575 0 575 0 0 575 0 575 290 0 290 0 0 -575 0 -575 575 0 575 0 0 -290 0 -290
-575 0 -575 0 0 -285 0 -285 1440 0 1440 0 0 285 0 285 -580 0 -580 0 0 575 0
575 -575 0 -575 0 0 1155 0 1155 -860 0 -860 0 0 -290 0 -290 575 0 575 0 0
-285 0 -285 -575 0 -575 0 -2 -577 -3 -578 -862 -3 -863 -2 0 290 0 290 575 0
575 0 0 290 0 290 -865 0 -865 0 0 -865 0 -865 575 0 575 0 0 -290 0 -290
-575 0 -575 0 0 -285 0 -285 575 0 575 0 0 -290 0 -290 -865 0 -865 0 0 2015
0 2015 1155 0 1155 0 0 580 0 580 1150 0 1150 0 0 575 0 575 865 0 865 0 0
-290 0 -290 -575 0 -575 0 0 -285 0 -285 575 0 575 0 0 -290 0 -290 -575 0
-575 0 0 -865 0 -865 575 0 575 0 0 -575 0 -575 290 0 290 0 0 575 0 575 575
0 575 0 0 290 0 290 -1155 0 -1155 0 0 285 0 285 578 2 577 3 3 1438 2 1437
-1155 0 -1155 0 0 290 0 290 575 0 575 0 0 575 0 575 290 0 290 0 0 -575 0
-575 290 0 290 0 0 865 0 865 -580 0 -580 0 0 285 0 285 578 0 c317 0 837 0
1155 0 l577 0 0 290 0 290 -1730 0 -1730 0 0 575 0 575 -285 0 -285 0 0 -865
0 -866 288 1 c158 0 416 0 575 0 l287 0 0 -285 0 -285 -2305 0 -2305 0 0 -290
0 -290 2305 0 2305 0 0 -287 0 -288 -575 3 -575 2 0 -1155 0 -1155 -1155 0
-1155 0 0 -575 0 -575 -285 0 -285 0 0 288 c0 158 0 416 0 575 l1 287 -291 0
-290 0 0 -575 0 -575 -290 0 -290 0 0 865 0 865 1730 0 1730 0 0 285 0 285
-575 0 -575 0 0 290 0 290 575 0 575 0 0 290 0 290 -862 -3 -863 -2 -3 -578
-2 -577 -285 0 -285 0 -2 577 -3 578 -285 0 -285 0 -3 -577 -2 -578 -290 0
-290 0 0 1440 0 1440 578 2 577 3 3 288 2 287 -580 0 -580 0 0 290 0 290 865
0 865 0 2 -577 3 -578 285 0 285 0 3 863 2 862 -1155 0 -1155 0 0 290 0 290
580 0 580 0 0 285 0 285 -580 0 -580 0 0 2020 0 2020 290 0 290 0 0 -575 0
-575 290 0 290 0 0 860 0 860 -580 0 -580 0 0 290 0 290 2020 0 2020 0 0 -865
0 -865 -575 0 -575 0 0 -285 0 -285 860 0 860 0 0 1435 0 1435 -1150 0 -1150
0 0 865 0 865 288 0 c158 0 934 0 1725 0 l1437 0 0 290 0 290 -2015 0 -2015 0
0 -575 0 -575 -575 0 -575 0 0 -290 0 -290 575 0 575 0 0 -290 0 -290 -862 2
-863 3 -3 1728 -2 1727 -285 0 -285 0 0 -11235z M1440 22465 l0 -865 288 2
287 3 3 578 2 577 2590 0 2590 0 0 -1445 0 -1445 -287 2 -288 3 -3 578 -2 577
-1435 0 -1435 0 0 -290 0 -290 1150 0 1150 0 0 -1150 0 -1150 285 0 285 0 0
575 0 575 290 0 290 0 0 -865 0 -865 -575 0 -575 0 0 -865 0 -865 285 0 285 0
2 578 3 577 578 3 577 2 0 2880 0 2880 285 0 285 0 2 -577 3 -578 288 -3 287
-2 0 580 0 580 865 0 865 0 0 -580 0 -580 863 3 862 2 3 288 2 287 -580 0
-580 0 0 290 0 290 865 0 865 0 0 -865 0 -865 -1440 0 -1440 0 0 575 0 575
-285 0 -285 0 0 -865 0 -865 575 0 575 0 0 -290 0 -290 -575 0 -575 0 0 -1150
0 -1150 -290 0 -290 0 0 1730 0 1730 -287 -2 -288 -3 -2 -2015 c-2 -1108 -3
-2144 -3 -2302 l0 -288 -575 0 -575 0 0 -865 0 -865 290 0 290 0 0 575 0 575
285 0 285 0 0 -575 0 -575 290 0 290 0 0 1155 0 1155 288 -2 287 -3 3 -1442 2
-1443 -580 0 -580 0 0 -285 0 -285 580 0 580 0 0 -290 0 -290 -1445 0 -1445 0
0 290 0 290 580 0 580 0 0 285 0 285 -577 2 -578 3 -3 578 -2 577 -1150 0
-1150 0 0 285 0 285 575 0 575 0 0 290 0 290 -1150 0 -1150 0 0 865 0 865 575
0 575 0 0 285 0 285 -865 0 -865 0 0 -1150 0 -1150 -575 0 -575 0 0 -290 0
-290 575 0 575 0 0 -285 0 -285 -287 0 c-159 0 -417 0 -575 0 l-288 1 0 -291
0 -290 865 0 865 0 0 575 0 575 290 0 290 0 0 -575 0 -575 1150 0 1150 0 0
-290 0 -290 -1730 0 -1730 0 0 -285 0 -285 580 0 580 0 0 -1155 0 -1155 285 0
285 0 0 1155 0 1155 865 0 865 0 0 -575 0 -575 1730 0 1730 0 0 -580 0 -581
288 1 c158 0 416 0 575 0 l287 0 0 -575 0 -575 575 0 575 0 0 -285 0 -285
-287 0 c-159 0 -417 0 -575 0 l-288 1 0 -291 0 -290 575 0 575 0 0 -290 0
-290 -865 0 -865 0 0 580 0 580 -285 0 -285 0 0 -865 0 -865 1725 0 1725 0 0
-575 0 -575 290 0 290 0 0 575 0 575 575 0 575 0 0 285 0 285 -1150 0 -1150 0
0 290 0 290 2015 0 2015 0 0 -575 0 -575 865 0 865 0 -2 862 -3 863 -285 0
-285 0 -3 -577 -2 -578 -290 0 -290 0 0 580 0 580 -575 -2 -575 -3 0 578 0
577 -285 0 -285 0 0 -575 0 -575 -287 0 c-1539 -1 -2587 0 -2590 3 -1 2 -4
260 -6 573 l-2 569 -577 3 -578 2 0 285 0 285 578 2 c317 2 706 2 865 0 l287
-2 0 -575 0 -575 865 0 865 0 0 290 0 290 -575 0 -575 0 0 285 0 285 288 0
c158 0 416 0 575 0 l287 -1 0 291 0 290 -1150 0 -1150 0 0 290 0 290 575 0
575 0 0 575 0 575 575 0 575 0 0 285 0 285 -1150 0 -1150 0 0 290 0 290 575 0
575 0 0 575 0 575 285 0 285 0 0 -287 c0 -159 1 -416 3 -573 l2 -285 288 -3
287 -2 0 575 0 575 865 0 865 0 0 -285 0 -285 -575 0 -575 0 0 -865 0 -865
285 0 285 0 0 575 0 575 290 0 290 0 0 -575 0 -575 285 0 285 0 0 575 0 575
580 0 580 0 0 865 0 865 -290 0 -290 0 0 -575 0 -575 -290 0 -290 0 2 863 3
862 862 3 863 2 2 -577 3 -578 863 -3 862 -2 0 290 0 290 -575 0 -575 0 0 865
0 865 575 0 575 0 0 575 0 575 290 0 290 0 0 -575 0 -575 285 0 285 0 0 860 0
860 -860 0 -860 0 0 -575 0 -575 -290 0 -290 0 0 575 0 575 -2015 0 -2015 0 0
-285 0 -285 1725 0 1725 0 0 -290 0 -290 -1150 0 -1150 0 0 -285 0 -285 1150
0 1150 0 0 -290 0 -290 -1150 0 -1150 0 0 -575 0 -575 -865 0 -865 0 0 290 0
290 575 0 575 0 0 285 0 285 -575 0 -575 0 0 290 0 290 575 0 575 0 0 285 0
285 -865 0 -865 0 0 -862 c0 -475 0 -992 0 -1150 l0 -288 -285 0 -285 0 0 575
0 575 -290 0 -290 0 0 -1150 0 -1150 -285 0 -285 0 0 288 c0 158 0 675 0 1150
l0 862 -290 0 -290 0 0 -1150 0 -1150 -287 0 c-159 0 -417 0 -575 0 l-288 1 0
-291 0 -290 575 0 575 0 0 -575 0 -575 575 0 575 0 0 -290 0 -290 -575 0 -575
0 0 -575 0 -575 -865 0 -865 0 0 865 0 865 290 0 290 0 0 -575 0 -575 285 0
285 0 0 860 0 860 -575 0 -575 0 0 1445 0 1445 290 0 290 0 0 -580 0 -580 285
0 285 0 0 1155 0 1155 580 0 581 0 -1 288 c0 158 0 416 0 575 l0 287 285 0
285 0 0 -575 0 -575 290 0 290 0 0 860 0 860 -865 0 -865 0 0 -575 0 -575
-575 0 -575 0 0 -575 0 -575 -290 0 -290 0 0 865 0 865 575 0 575 0 0 575 0
575 1440 0 1440 0 0 -287 c0 -159 0 -417 0 -575 l-1 -288 291 0 290 0 0 1440
0 1440 -287 -2 -288 -3 -2 -285 c-2 -157 -3 -414 -3 -572 l0 -288 -285 0 -285
0 0 865 0 865 2015 0 2015 0 0 -865 0 -865 -290 0 -290 0 0 575 0 575 -860 0
-860 0 0 -865 0 -865 285 0 285 0 0 575 0 575 290 0 290 0 0 -575 0 -575 2015
0 2015 0 0 290 0 290 -575 0 -575 0 0 285 0 285 288 2 c158 2 547 2 865 0
l577 -2 0 -575 0 -575 285 0 285 0 0 865 0 865 -1440 0 -1440 0 0 -575 0 -575
-285 0 -285 0 0 865 0 865 2015 0 2015 0 0 -2595 0 -2595 -1150 0 -1150 0 0
-285 0 -285 1150 0 1150 0 0 -865 0 -865 -290 0 -290 0 0 575 0 575 -285 0
-285 0 0 -865 0 -865 575 0 575 0 0 -290 0 -290 -575 0 -575 0 0 -860 0 -860
285 0 285 0 0 575 0 575 290 0 290 0 0 -865 0 -865 -865 0 -865 0 0 575 0 575
-285 0 -285 0 0 -575 0 -575 -865 0 -865 0 0 290 0 290 575 0 575 0 0 575 0
575 575 0 575 0 0 865 0 865 -285 0 -285 0 0 -580 0 -580 -290 0 -290 0 0 580
0 580 -287 -2 -288 -3 -3 -577 -2 -578 -575 0 -575 0 0 -285 0 -285 575 0 575
0 0 -290 0 -290 -2305 0 -2305 0 0 -285 0 -285 580 0 580 0 0 -580 0 -580 285
0 285 0 0 580 0 580 290 0 290 0 0 -580 0 -580 285 0 285 0 0 580 0 580 290 0
290 0 0 -865 0 -865 -575 0 -575 0 0 -290 0 -290 865 0 865 0 0 575 0 575 288
2 c158 2 547 2 865 0 l577 -2 0 -285 0 -285 -577 -2 -578 -3 -3 -863 -2 -862
1440 0 1440 0 0 865 0 865 -285 0 -285 0 0 -577 0 -578 -582 2 c-321 2 -710 3
-865 3 l-283 0 0 285 0 285 575 0 575 0 0 575 0 575 285 0 c157 0 418 0 580 0
162 0 423 0 580 0 l285 0 0 -1440 0 -1440 -1730 0 -1730 0 0 -575 0 -575 -575
0 -575 0 0 -285 0 -285 1155 0 1155 0 0 -290 0 -290 -1445 0 -1445 0 0 575 0
575 -575 0 -575 0 0 575 0 575 -285 0 -285 0 0 -860 0 -860 575 0 575 0 0
-580 0 -580 1730 0 1730 0 0 -865 0 -865 -290 0 -290 0 0 580 0 580 -1440 0
-1440 0 0 -290 0 -290 575 0 575 0 0 -575 0 -575 290 0 290 0 0 575 0 575 285
0 285 0 0 -865 0 -865 -575 0 -575 0 0 -285 0 -285 1440 0 1440 0 0 285 0 285
-575 0 -575 0 0 290 0 290 575 0 575 0 0 1730 0 1730 290 0 290 0 0 -580 0
-580 285 0 285 0 0 865 0 865 -1150 0 -1150 0 0 290 0 290 1440 0 1440 0 0
-1440 0 -1440 -575 0 -575 0 0 -290 0 -290 575 0 575 0 0 -290 0 -290 -575 0
-575 0 0 -285 0 -285 575 0 575 0 0 -290 0 -290 -575 0 -575 0 0 -285 0 -285
575 0 575 0 0 -580 0 -580 288 2 287 3 2 11233 3 11232 -10660 0 -10660 0 0
-865z"/>
</g>
</svg>
