<?xml version="1.0" standalone="no"?>
<!DOCTYPE svg PUBLIC "-//W3C//DTD SVG 20010904//EN"
 "http://www.w3.org/TR/2001/REC-SVG-20010904/DTD/svg10.dtd">
<svg version="1.0" xmlns="http://www.w3.org/2000/svg"
 width="2362.000000pt" height="2362.000000pt" viewBox="0 0 2362.000000 2362.000000"
 preserveAspectRatio="xMidYMid meet">
<metadata>
Created by potrace 1.16, written by Peter Selinger 2001-2019
</metadata>
<g transform="translate(0.000000,2362.000000) scale(0.100000,-0.100000)"
fill="#000000" stroke="none">
<path d="M290 12095 l0 -11235 10655 0 10655 0 0 865 0 865 -860 0 -860 0 0
-285 0 -285 575 0 575 0 0 -290 0 -290 -3170 0 -3170 0 0 290 0 290 575 0 575
0 0 285 0 285 -1440 0 -1440 0 0 -285 0 -285 575 0 574 0 3 -290 3 -290 -3747
0 -3748 0 0 290 0 290 1155 0 1155 0 0 285 0 285 -575 0 -575 0 0 290 0 290
865 0 865 0 0 -575 0 -575 1440 0 1440 0 0 285 0 285 -1155 0 -1155 0 0 290 0
290 1730 0 1730 0 0 285 0 285 -1155 0 -1155 0 0 290 0 290 580 0 580 0 -2
288 -3 287 -577 3 -578 2 0 285 0 285 865 0 865 0 0 -575 0 -575 290 0 290 0
0 575 0 575 285 0 285 0 0 -287 c0 -159 1 -416 3 -573 l2 -285 288 -3 287 -2
0 1155 0 1155 865 0 865 0 0 -865 0 -865 -290 0 -290 0 0 575 0 575 -285 0
-285 0 0 -1155 0 -1155 -580 0 -580 0 0 -285 0 -285 865 0 865 0 0 575 0 575
575 0 575 0 2 1153 3 1152 288 3 287 2 0 -2020 0 -2020 -290 0 -290 0 0 575 0
575 -285 0 -285 0 0 -860 0 -860 865 0 865 0 0 575 0 575 285 0 285 0 0 -575
0 -575 290 0 290 0 0 860 0 860 -575 0 -575 0 0 865 0 865 285 0 285 0 0 -575
0 -575 580 0 580 0 0 -575 0 -575 860 0 860 0 0 285 0 285 -575 0 -575 0 0
290 0 290 575 0 575 0 0 865 0 865 -285 0 -285 0 0 -575 0 -575 -865 0 -865 0
0 285 0 285 575 0 575 0 0 290 0 290 -575 0 -575 0 0 290 0 290 575 0 575 0 0
285 0 285 -575 0 -575 0 0 865 0 865 290 0 290 0 0 -575 0 -575 575 0 575 0 0
-575 0 -575 285 0 285 0 0 1440 0 1440 -285 0 -285 0 0 -580 0 -580 -290 0
-290 0 0 865 0 865 575 0 575 0 0 290 0 290 -575 0 -575 0 0 285 0 285 288 0
c158 0 416 0 575 0 l287 -1 0 1441 0 1440 -285 0 -285 0 0 -1150 0 -1150 -290
0 -290 0 0 575 0 575 -865 0 -865 0 0 -285 0 -285 580 0 580 0 0 -290 0 -290
-580 0 -580 0 0 -865 0 -865 290 0 290 0 0 575 0 575 290 0 290 0 0 -860 0
-860 -290 0 c-159 0 -420 0 -580 0 -159 0 -418 0 -575 0 l-285 0 -2 573 -3
572 -287 3 -288 2 0 -1440 0 -1440 290 0 290 0 0 575 0 575 285 0 285 0 0
-1440 0 -1440 -285 0 -285 0 0 575 0 575 -580 0 -580 0 0 1730 0 1730 -285 0
-285 0 0 -577 0 -578 -1152 0 -1153 0 -3 -287 -2 -288 1155 0 1155 0 0 -865 0
-865 -290 0 -290 0 0 575 0 575 -285 0 -285 0 0 -575 0 -575 -865 0 -865 0 0
290 0 290 575 0 575 0 0 285 0 285 -575 0 -575 0 0 865 0 865 575 0 575 0 0
575 0 575 290 0 290 0 0 -575 0 -575 285 0 285 0 0 1155 0 1155 290 0 290 0 0
-580 0 -580 285 0 285 0 0 580 0 580 290 0 290 0 2 -577 3 -578 285 0 285 0 3
863 2 862 -580 0 -580 0 0 290 0 290 1155 0 1155 0 0 285 0 285 -575 0 -575 0
0 290 0 290 865 0 865 0 0 -575 0 -575 285 0 285 0 0 575 0 575 575 0 575 0 0
290 0 290 -575 0 -575 0 0 285 0 285 575 0 575 0 0 3170 0 3170 -2015 0 -2015
0 0 -1440 0 -1440 290 0 290 0 0 1150 0 1150 288 2 c158 2 547 2 865 0 l577
-2 0 -575 0 -575 285 0 285 0 0 575 0 575 290 0 290 0 0 -1440 0 -1440 -575 0
-575 0 0 -285 0 -285 575 0 575 0 0 -865 0 -865 -575 0 -575 0 0 -575 0 -575
-1155 0 -1155 0 0 -580 0 -580 -290 0 -290 0 0 865 0 865 578 2 577 3 3 578 2
577 285 0 285 0 2 -577 3 -578 288 -3 287 -2 0 580 0 580 575 0 575 0 0 285 0
285 -1440 0 -1440 0 0 -575 0 -575 -290 0 -290 0 0 575 0 575 -285 0 -285 0 0
-1730 0 -1730 -2015 0 -2015 0 -2 578 -3 577 -287 3 -288 2 0 -580 0 -580
-575 0 -575 0 0 -860 0 -860 285 0 285 0 0 575 0 575 1443 0 1442 0 0 -290 0
-290 -577 0 -578 0 0 -285 0 -285 865 0 865 0 0 575 0 575 865 0 865 0 0 -290
0 -290 -575 0 -575 0 0 -575 0 -575 -1155 0 -1155 0 2 -287 3 -288 285 -2
c157 -2 414 -3 573 -3 l287 0 0 -285 0 -285 -575 0 -575 0 0 -1155 0 -1155
-285 0 -285 0 -2 578 -3 577 -862 2 -863 3 0 -290 0 -290 575 0 575 0 0 -575
0 -575 575 0 575 0 0 -290 0 -290 -575 0 -575 0 0 -285 0 -285 1150 0 1150 0
0 -290 0 -290 -1440 0 -1440 0 0 1150 0 1150 -285 0 -285 0 0 -575 0 -575
-575 0 -575 0 0 -285 0 -285 575 0 575 0 0 -290 0 -290 -575 0 -575 0 0 -290
0 -290 575 0 575 0 0 -865 0 -865 -290 0 -290 0 0 580 0 580 -862 -2 -863 -3
-3 -287 -2 -288 580 0 580 0 0 -290 0 -290 -865 0 -865 0 0 865 0 865 575 0
575 0 0 1155 0 1155 575 0 575 0 0 285 0 285 -575 0 -575 0 0 290 0 290 575 0
575 0 0 290 0 291 -287 -1 c-159 0 -417 0 -575 0 l-288 0 0 575 0 575 -287 -2
-288 -3 -2 -575 c-2 -316 -3 -835 -3 -1152 l0 -578 -1725 0 -1725 0 0 -860 0
-860 285 0 285 0 0 575 0 575 1440 0 1440 0 2 -578 c2 -317 2 -706 0 -864 l-2
-288 -285 0 -285 0 0 575 0 575 -865 0 -865 0 0 -285 0 -285 575 0 575 0 0
-1445 0 -1445 -287 2 -288 3 -3 578 -2 577 -285 0 -285 0 0 -865 0 -865 575 0
575 0 0 -290 0 -290 -575 0 -575 0 0 -575 0 -575 -1440 0 -1440 0 0 575 0 575
-290 0 -290 0 0 -575 0 -575 -865 0 -865 0 0 290 0 290 580 0 580 0 0 285 0
285 -580 0 -580 0 0 290 0 290 1445 0 1445 0 0 -575 0 -575 285 0 285 0 0 575
0 575 290 0 290 0 0 -575 0 -575 285 0 285 0 0 1725 0 1725 575 0 575 0 0 290
0 290 -860 0 -860 0 0 -575 0 -575 -290 0 -290 0 0 575 0 575 -285 0 -285 0 0
-865 0 -865 575 0 575 0 0 -290 0 -290 -865 0 -865 0 0 580 0 580 -287 -2
-288 -3 -3 -577 -2 -578 -865 0 -865 0 0 2595 0 2595 290 0 290 0 0 -2305 0
-2305 290 0 291 0 -1 288 c0 158 0 416 0 575 l0 287 575 0 575 0 0 290 0 290
-575 0 -575 0 0 290 0 290 1150 0 1150 0 0 285 0 285 -1150 0 -1150 0 0 285
c0 157 0 418 0 580 0 162 0 423 0 580 l0 285 285 0 285 0 0 -575 0 -575 290 0
290 0 0 575 0 575 290 0 290 0 0 -575 0 -575 285 0 285 0 0 865 0 865 -1437 0
c-791 0 -1570 0 -1730 0 l-293 0 0 860 0 860 573 0 c740 0 1654 0 2025 0 l292
0 0 -285 0 -285 -1155 0 -1155 0 0 -290 0 -290 1730 0 1730 0 0 -575 0 -575
285 0 285 0 0 575 0 575 865 0 865 0 0 -285 0 -285 -287 0 c-159 0 -417 0
-575 0 l-288 1 0 -291 0 -290 865 0 865 0 0 1150 0 1150 283 0 c597 0 2035 0
2310 0 l287 0 0 -285 0 -285 -575 0 -575 0 0 -290 0 -290 1438 2 1437 3 0 285
0 285 -577 3 -578 2 0 285 0 285 578 2 577 3 2 863 3 862 -290 0 -290 0 0
-575 0 -575 -1440 0 -1440 0 0 290 0 290 575 0 575 0 0 285 0 285 -865 0 -866
0 1 -287 c0 -159 0 -417 0 -575 l0 -288 -1150 0 -1150 0 0 -290 0 -291 288 1
c158 0 416 0 575 0 l287 0 0 -285 0 -285 -1440 0 -1440 0 0 285 0 285 288 0
c158 0 416 0 575 0 l287 -1 0 581 0 580 575 0 575 0 0 285 0 285 -575 0 -575
0 0 290 0 290 865 0 865 0 0 -575 0 -575 290 0 290 0 0 575 0 575 1150 0 1150
0 0 285 0 285 -575 0 -575 0 0 865 0 865 290 0 290 0 0 -575 0 -575 860 0 860
0 0 575 0 575 865 0 865 0 0 -575 0 -575 290 0 290 0 0 575 0 575 285 0 285 0
0 -287 c0 -159 1 -416 3 -573 l2 -285 288 -3 287 -2 0 865 0 865 -1730 0
-1730 0 0 575 0 575 -285 0 -285 0 0 -1150 0 -1150 -290 0 -290 0 0 575 0 575
-575 0 -575 0 0 290 0 290 575 0 575 0 0 285 0 285 -575 0 -575 0 0 290 0 290
575 0 575 0 0 575 0 575 290 0 290 0 0 -575 0 -575 1150 0 1150 0 0 -290 0
-290 -575 0 -575 0 0 -285 0 -285 1440 0 1440 0 0 285 0 285 -575 0 -575 0 0
575 0 575 -1155 0 -1155 0 0 290 0 290 2305 0 2305 0 0 285 0 285 -575 0 -575
0 0 580 0 580 -287 -2 -288 -3 -2 -285 c-2 -157 -3 -417 -3 -577 l0 -293 -285
0 -285 0 0 1155 0 1155 -290 0 -290 0 0 -575 0 -575 -285 0 -285 0 0 288 c0
158 0 416 0 575 l1 287 -866 0 -865 0 0 -290 0 -291 288 1 c158 0 416 0 575 0
l287 0 0 -575 0 -575 575 0 575 0 0 -290 0 -290 -1725 0 -1725 0 0 -575 0
-575 -580 0 -580 0 0 -862 c0 -475 0 -1512 0 -2305 l0 -1443 -285 0 -285 0 0
1155 0 1155 -290 0 -290 0 0 -1155 0 -1155 -865 0 -865 0 0 580 0 580 -860 0
-860 0 -2 -577 -3 -578 -287 -3 -288 -2 0 580 0 580 -287 -2 -288 -3 -3 -862
-2 -863 580 0 580 0 0 -290 0 -290 -580 0 -580 0 0 -285 0 -285 865 0 865 0 0
1150 0 1150 290 0 290 0 0 -1440 0 -1440 -2020 0 -2020 0 0 290 0 290 580 0
580 0 0 285 0 285 -580 0 -580 0 0 290 0 290 580 0 580 0 -3 863 -2 862 -287
3 -288 2 0 -580 0 -580 -290 0 -290 0 0 865 0 865 2595 0 2595 0 0 -575 0
-575 285 0 285 0 0 865 0 865 -1725 0 -1725 0 0 290 0 290 1150 0 1150 0 0
860 0 860 -285 0 -285 0 0 -575 0 -575 -1155 0 -1155 0 0 -575 0 -575 -865 0
-865 0 0 1440 0 1440 290 0 290 0 0 -1150 0 -1150 290 0 290 0 0 575 0 575
1150 0 1150 0 0 285 0 285 -575 0 -575 0 0 290 0 290 1150 0 1150 0 0 575 0
575 290 0 290 0 0 -1150 0 -1150 285 0 285 0 0 575 0 575 290 0 290 0 0 -865
0 -865 -575 0 -575 0 0 -285 0 -285 865 0 865 0 0 2300 0 2300 288 0 c158 0
416 0 575 0 l287 -1 0 291 0 290 -865 0 -865 0 0 -1155 0 -1155 -287 2 -288 3
-3 1153 -2 1152 -285 0 -285 0 0 -575 0 -575 -290 0 -290 0 0 575 0 575 -860
0 -860 0 0 -290 0 -290 575 0 575 0 0 -285 0 -285 -575 0 -575 0 0 -290 0
-290 575 0 575 0 0 -290 0 -290 -1155 0 -1155 0 0 -575 0 -575 -285 0 -285 0
0 575 0 575 -577 2 -578 3 -3 862 -2 863 577 2 578 3 3 288 2 287 -580 0 -580
0 0 575 0 575 -285 0 -285 0 0 -11235z M1440 23045 l0 -285 575 0 575 0 0
-865 0 -865 -575 0 -575 0 0 -290 0 -290 865 0 865 0 0 1155 0 1155 3170 0
3170 0 0 -865 0 -865 -577 -2 -578 -3 -2 -862 -3 -863 290 0 290 0 0 575 0
575 1150 0 1150 0 0 290 0 290 -575 0 -575 0 0 865 0 865 2015 0 2015 0 0
-292 c0 -161 1 -421 3 -578 l2 -285 865 -2 c476 -2 994 -3 1153 -3 l287 0 0
-285 0 -285 -575 0 -575 0 0 -290 0 -290 575 0 575 0 0 -865 0 -865 -1155 0
-1155 0 0 -285 0 -285 580 0 580 0 0 -1730 0 -1730 285 0 285 0 0 1730 0 1730
1730 0 1730 0 0 575 0 575 575 0 575 0 0 285 0 285 -575 0 -575 0 0 580 0 580
-287 -2 -288 -3 -3 -1152 -2 -1153 -865 0 -865 0 0 1730 0 1730 -1150 0 -1150
0 0 290 0 290 3745 0 3745 0 0 -10950 0 -10950 288 2 287 3 2 11233 3 11232
-10660 0 -10660 0 0 -285z"/>
</g>
</svg>
