<?xml version="1.0" standalone="no"?>
<!DOCTYPE svg PUBLIC "-//W3C//DTD SVG 20010904//EN"
 "http://www.w3.org/TR/2001/REC-SVG-20010904/DTD/svg10.dtd">
<svg version="1.0" xmlns="http://www.w3.org/2000/svg"
 width="2362.000000pt" height="2362.000000pt" viewBox="0 0 2362.000000 2362.000000"
 preserveAspectRatio="xMidYMid meet">
<metadata>
Created by potrace 1.16, written by Peter Selinger 2001-2019
</metadata>
<g transform="translate(0.000000,2362.000000) scale(0.100000,-0.100000)"
fill="#000000" stroke="none">
<path d="M290 12095 l0 -11235 10655 0 10655 0 0 290 0 290 -1725 0 -1725 0 0
575 0 575 -290 0 -290 0 0 -575 0 -575 -865 0 -865 0 0 575 0 575 -285 0 -285
0 0 -575 0 -575 -290 0 -290 0 0 575 0 575 -290 0 -290 0 2 -575 3 -575 -287
0 -288 0 0 575 0 575 -575 0 -575 0 0 290 0 290 2015 0 2015 0 0 -575 0 -575
285 0 285 0 0 860 0 860 -2300 0 -2300 0 -2 577 c-2 318 -2 707 0 866 l2 287
860 0 860 0 0 -285 0 -285 -572 -2 -573 -3 -3 -287 -2 -288 1440 0 1440 0 0
290 0 290 -575 0 -575 0 0 1150 0 1150 -290 0 -291 0 1 -288 c0 -158 0 -416 0
-574 l0 -288 -1150 0 -1150 0 0 -575 0 -575 -290 0 -290 0 0 575 0 575 -285 0
-285 0 0 -865 0 -865 575 0 575 0 0 -1150 0 -1150 575 0 575 0 0 -290 0 -290
-2015 0 -2015 0 0 290 0 290 1150 0 1150 0 0 860 0 860 -285 0 -285 0 0 -575
0 -575 -1440 0 -1440 0 0 290 0 290 575 0 575 0 0 285 0 285 -575 0 -575 0 0
290 0 290 575 0 575 0 0 1440 0 1440 -865 0 -865 0 0 -285 0 -285 575 0 575 0
0 -865 0 -865 -285 0 -285 0 0 575 0 575 -290 0 -290 0 0 -575 0 -575 -575 0
-575 0 0 -290 0 -290 575 0 575 0 0 -1150 0 -1150 575 0 575 0 0 -290 0 -290
-865 0 -865 0 0 1150 0 1150 -575 0 -575 0 0 580 0 580 -285 0 -285 0 0 -1440
0 -1440 285 0 285 0 0 575 0 575 290 0 290 0 0 -865 0 -865 -865 0 -865 0 0
575 0 575 -285 0 -285 0 0 -575 0 -575 -290 0 -290 0 0 865 0 865 575 0 575 0
0 285 0 285 -575 0 -575 0 0 865 0 865 290 0 290 0 0 -575 0 -575 285 0 285 0
0 575 0 575 1150 0 1150 0 0 290 0 290 -1150 0 -1150 0 0 865 0 865 290 0 290
0 0 -575 0 -575 285 0 285 0 0 1150 0 1150 1155 0 1155 0 -2 288 -3 287 -2012
2 -2013 3 0 -290 0 -290 575 0 575 0 0 -290 0 -290 -1155 0 -1155 0 0 -285 0
-285 580 0 580 0 0 -865 0 -865 -290 0 -290 0 0 575 0 575 -290 0 -290 0 0
-1730 0 -1730 -575 0 -575 0 0 -285 0 -285 575 0 575 0 0 -290 0 -290 -575 0
-575 0 0 -285 0 -285 575 0 575 0 0 -290 0 -290 -865 0 -865 0 0 2015 0 2015
290 0 290 0 0 -575 0 -575 290 0 290 0 0 865 0 865 -580 0 -580 0 0 1440 0
1440 290 0 290 0 0 -1150 0 -1150 290 0 290 0 0 2877 c0 1583 0 3138 0 3456
l0 577 865 0 865 0 0 -290 0 -290 -580 0 -580 0 0 -285 0 -285 1730 0 1730 0
0 -290 0 -290 -575 0 -575 0 0 -575 0 -575 -865 0 -865 0 0 285 0 285 288 0
c158 0 416 0 575 0 l287 -1 0 291 0 290 -865 0 -865 0 0 -1440 0 -1440 290 0
290 0 0 575 0 575 1150 0 1150 0 0 575 0 575 578 2 c317 2 706 2 865 0 l287
-2 0 -285 0 -285 -575 0 -575 0 0 -290 0 -290 1150 0 1150 0 0 -287 c0 -159 0
-417 0 -576 l-1 -287 291 0 290 0 0 865 0 865 -575 0 -575 0 0 575 0 575 -580
0 -580 0 0 290 0 290 1445 0 1445 0 0 -290 0 -290 -580 0 -580 0 2 -287 3
-288 578 -3 577 -2 0 -575 0 -575 860 0 860 0 0 290 0 290 -575 0 -575 0 0
865 0 865 1730 0 1730 0 -2 1438 -3 1437 -285 0 -285 0 -3 -1152 -2 -1153
-285 0 -285 0 0 288 c0 158 0 416 0 575 l1 287 -291 0 -290 0 0 -575 0 -575
-865 0 -865 0 0 1440 0 1440 290 0 290 0 0 -1150 0 -1150 285 0 285 0 0 575 0
575 580 0 580 0 -3 863 -2 862 -287 3 -288 2 0 -575 0 -575 -290 0 -290 0 0
1150 0 1150 -2590 0 -2590 0 0 -1730 0 -1730 -575 0 -575 0 0 -285 0 -285
2015 0 2015 0 0 285 0 285 -575 0 -575 0 -2 578 -3 577 -287 3 -288 2 0 -580
0 -580 -287 2 -288 3 0 1440 0 1440 863 3 862 2 0 -290 0 -290 -575 0 -575 0
0 -290 0 -290 575 0 575 0 0 -575 0 -575 290 0 290 0 0 1155 0 1155 865 0 865
0 0 -290 0 -290 -575 0 -575 0 0 -1730 0 -1730 -2595 0 -2595 0 0 1155 0 1155
-862 -3 -863 -2 -3 -287 -2 -288 580 0 580 0 -2 -287 -3 -288 -1152 -3 -1153
-2 0 -2300 0 -2300 -290 0 -290 0 0 3745 0 3745 290 0 290 0 0 -1155 0 -1155
290 0 291 0 -1 288 c0 158 0 416 0 575 l0 287 1440 0 1440 0 0 -575 0 -575
285 0 285 0 0 865 0 865 -575 0 -575 0 0 290 0 290 575 0 575 0 0 1150 0 1150
290 0 290 0 0 -575 0 -575 2590 0 2590 0 0 575 0 575 290 0 290 0 0 -575 0
-575 290 0 290 0 0 860 0 860 -578 2 -577 3 -3 578 -2 577 -860 0 -860 0 0
-865 0 -865 285 0 285 0 0 575 0 575 290 0 290 0 0 -865 0 -865 -865 0 -865 0
0 575 0 575 -290 0 -290 0 0 -575 0 -575 -865 0 -865 0 0 290 0 290 580 0 580
0 0 575 0 575 575 0 575 0 0 290 0 290 -575 0 -575 0 0 575 0 575 -290 0 -290
0 0 -1155 0 -1155 -1150 0 -1150 0 0 -575 0 -575 -290 0 -290 0 0 575 0 575
-285 0 -285 0 0 -860 0 -860 575 0 575 0 0 -290 0 -290 -575 0 -575 0 0 -575
0 -575 -865 0 -865 0 0 290 0 290 575 0 575 0 0 1435 0 1435 -290 0 -290 0 0
-575 0 -575 -285 0 -285 0 -2 578 c-2 317 -2 706 0 865 l2 287 2300 0 2300 0
0 290 0 290 -575 0 -575 0 0 575 0 575 -285 0 -285 0 0 -575 0 -575 -1440 0
-1440 0 0 285 0 285 288 0 c158 0 675 0 1150 0 l862 0 0 290 0 290 -1440 0
-1440 0 0 -2015 0 -2015 575 0 575 0 0 -290 0 -290 -865 0 -865 0 0 2880 0
2880 -285 0 -285 0 0 -11235z M1440 23045 l0 -285 2305 0 2305 0 0 -580 0
-580 285 0 285 0 0 580 0 580 865 0 865 0 2 -577 3 -578 288 -3 287 -2 0 580
0 580 1440 0 1440 0 0 -290 0 -290 -1150 0 -1150 0 0 -290 0 -290 863 0 c474
0 991 0 1150 0 l287 0 0 -575 0 -575 575 0 575 0 0 -575 0 -575 290 0 290 0 0
865 0 865 -575 0 -575 0 0 285 0 285 573 2 572 3 3 288 2 287 -575 0 -575 0 0
290 0 290 860 0 860 0 0 -292 c0 -161 1 -421 3 -578 l2 -285 288 -3 287 -2 0
580 0 580 1440 0 1440 0 0 -290 0 -290 -575 0 -575 0 0 -290 0 -291 288 1
c158 0 416 0 575 0 l287 0 0 -285 0 -285 -865 0 -865 0 0 575 0 575 -285 0
-285 0 0 -575 0 -575 -577 -2 -578 -3 0 -285 0 -285 1153 -3 1152 -2 0 -290 0
-290 -1155 0 -1155 0 0 -285 0 -285 1155 0 1155 0 0 -575 0 -575 575 0 575 0
0 -290 0 -290 -865 0 -865 0 0 575 0 575 -1440 0 -1440 0 0 -285 0 -285 1155
0 1155 0 0 -290 0 -290 -1730 0 -1730 0 0 -285 0 -285 575 0 575 0 0 -580 0
-580 290 0 290 0 0 580 0 580 865 0 865 0 0 -865 0 -865 -290 0 -290 0 0 575
0 575 -287 -2 -288 -3 -2 -1437 -3 -1438 290 0 290 0 0 575 0 575 575 0 575 0
0 1155 0 1155 290 0 290 0 0 -580 0 -580 575 0 575 0 0 -285 0 -285 -287 0
c-159 0 -417 0 -575 0 l-288 1 0 -581 0 -580 -575 0 -575 0 0 -575 0 -575
-580 0 -580 0 0 -285 0 -285 580 0 580 0 0 -290 0 -290 -1155 0 -1155 0 0
-575 0 -575 -285 0 -285 0 0 288 c0 158 0 416 0 575 l1 287 -866 0 -865 0 0
-290 0 -291 288 1 c158 0 416 0 575 0 l287 0 0 -575 0 -575 865 0 865 0 0 575
0 575 285 0 285 0 0 -287 c1 -906 -1 -1427 -4 -1430 -1 -2 -519 -3 -1149 -3
l-1147 0 0 -580 0 -580 -290 0 -290 0 0 580 0 580 -285 0 -285 0 0 -865 0
-865 575 0 575 0 0 -290 0 -290 -865 0 -865 0 0 1155 0 1155 -285 0 -285 0 0
-580 0 -580 -1730 0 -1730 0 0 -860 0 -860 285 0 285 0 0 575 0 575 1445 0
1445 0 0 -2305 0 -2305 285 0 285 0 0 1730 0 1730 1730 0 1730 0 0 285 0 285
-575 0 -575 0 0 285 c0 157 0 418 0 580 0 162 0 423 0 580 l0 285 863 0 862 0
-3 -290 -3 -290 -574 0 -575 0 0 -285 0 -285 865 0 865 0 0 1725 0 1725 290 0
290 0 0 -1150 0 -1150 285 0 285 0 0 575 0 575 290 0 290 0 0 -575 0 -575 575
0 575 0 0 -290 0 -290 -575 0 -575 0 0 -575 0 -575 -290 0 -290 0 0 575 0 575
-285 0 -285 0 0 -860 0 -860 575 0 575 0 0 -290 0 -290 -575 0 -575 0 0 -290
0 -290 575 0 575 0 0 -575 0 -575 285 0 285 0 0 1730 0 1730 290 0 290 0 0
-575 0 -575 290 0 290 0 0 1150 0 1150 575 0 575 0 0 865 0 865 -575 0 -575 0
0 285 0 285 288 2 c158 2 547 2 865 0 l577 -2 0 -575 0 -575 575 0 575 0 0
-575 0 -575 285 0 285 0 0 2015 0 2015 -285 0 -285 0 0 -1150 0 -1150 -290 0
-290 0 0 1150 0 1150 -285 0 -285 0 0 -575 0 -575 -865 0 -865 0 0 290 0 290
575 0 575 0 0 285 0 285 -575 0 -575 0 0 290 0 290 1150 0 1150 0 0 285 0 285
-575 0 -575 0 0 580 0 580 -287 -2 -288 -3 -3 -577 -2 -578 -575 0 -575 0 0
-1150 0 -1150 -575 0 -575 0 0 -290 0 -291 288 1 c158 0 416 0 575 0 l287 0 0
-575 0 -575 575 0 575 0 0 -285 0 -285 -285 0 c-157 0 -415 0 -575 0 -159 0
-420 0 -580 0 l-290 0 0 575 0 575 -575 0 -575 0 0 1440 0 1440 290 0 290 0 0
-575 0 -575 285 0 285 0 0 1150 0 1150 580 0 580 0 0 575 0 575 865 0 865 0 0
-575 0 -575 860 0 860 0 0 290 0 290 -575 0 -575 0 0 575 0 575 -1730 0 -1730
0 2 288 3 287 1153 3 1152 2 0 285 0 285 -575 0 -575 0 0 290 0 290 1150 0
1150 0 0 575 0 575 575 0 575 0 0 285 0 285 -575 0 -575 0 0 580 0 580 -285 0
-285 0 -2 -577 -3 -578 -577 -3 -578 -2 0 -285 0 -285 580 0 580 0 0 -290 0
-290 -1445 0 -1445 0 0 290 0 290 580 0 580 0 0 285 0 285 -577 2 -578 3 -3
288 -2 287 580 0 580 0 0 1155 0 1155 865 0 865 0 0 -290 0 -290 -580 0 -580
0 0 -865 0 -865 290 0 290 0 0 575 0 575 288 0 c158 0 416 0 575 0 l287 -1 0
581 0 580 865 0 865 0 0 -290 0 -290 -575 0 -575 0 0 -865 0 -865 285 0 285 0
0 575 0 575 290 0 290 0 0 -1440 0 -1440 -575 0 -575 0 0 -575 0 -575 -575 0
-575 0 0 -285 0 -285 860 0 860 0 0 575 0 575 290 0 290 0 0 -865 0 -865 -575
0 -575 0 0 -290 0 -290 575 0 575 0 0 -865 0 -865 -575 0 -575 0 0 -285 0
-285 575 0 575 0 0 -2595 0 -2595 -575 0 -575 0 0 -285 0 -285 575 0 575 0 0
-1440 0 -1440 -575 0 -575 0 0 -290 0 -290 575 0 575 0 0 -290 0 -290 -1440 0
-1440 0 0 290 0 290 575 0 575 0 0 865 0 865 -575 0 -575 0 0 290 0 290 865 0
865 0 0 -580 0 -580 285 0 285 0 0 865 0 865 -1150 0 -1150 0 0 290 0 290 575
0 575 0 0 865 0 865 -285 0 -285 0 0 -580 0 -580 -580 0 -580 0 2 -1437 3
-1438 578 -3 577 -2 0 -285 0 -285 -577 -2 -578 -3 -3 -577 -2 -578 -285 0
-285 0 0 1155 0 1155 -290 0 -290 0 0 -1440 0 -1440 575 0 575 0 0 -575 0
-575 290 0 290 0 0 575 0 575 865 0 865 0 0 -290 0 -290 -575 0 -575 0 0 -285
0 -285 860 0 860 0 0 575 0 575 290 0 290 0 0 -1155 0 -1155 288 2 287 3 2
11233 3 11232 -10660 0 -10660 0 0 -285z"/>
</g>
</svg>
