<?xml version="1.0" standalone="no"?>
<!DOCTYPE svg PUBLIC "-//W3C//DTD SVG 20010904//EN"
 "http://www.w3.org/TR/2001/REC-SVG-20010904/DTD/svg10.dtd">
<svg version="1.0" xmlns="http://www.w3.org/2000/svg"
 width="2362.000000pt" height="2362.000000pt" viewBox="0 0 2362.000000 2362.000000"
 preserveAspectRatio="xMidYMid meet">
<metadata>
Created by potrace 1.16, written by Peter Selinger 2001-2019
</metadata>
<g transform="translate(0.000000,2362.000000) scale(0.100000,-0.100000)"
fill="#000000" stroke="none">
<path d="M290 12095 l0 -11235 10655 0 10655 0 0 865 0 865 -285 0 -285 0 0
-575 0 -575 -865 0 -865 0 0 290 0 290 575 0 575 0 0 860 0 860 -285 0 -285 0
0 -575 0 -575 -290 0 -290 0 0 575 0 575 -290 0 -290 0 0 -575 0 -575 -285 0
-285 0 0 865 0 865 1150 0 1150 0 0 290 0 290 -575 0 -575 0 0 285 0 285 865
0 865 0 0 -1150 0 -1150 285 0 285 0 0 2015 0 2015 -285 0 -285 0 0 -575 0
-575 -290 0 -290 0 0 865 0 865 575 0 575 0 0 865 0 865 -1437 0 c-791 0
-1567 0 -1725 0 l-288 0 -2 573 -3 572 -287 3 -288 2 0 -575 0 -575 -287 0
c-159 0 -417 0 -575 0 l-288 1 0 -291 0 -290 2305 0 2305 0 0 -290 0 -290
-575 0 -575 0 0 -1150 0 -1150 -290 0 -290 0 0 575 0 575 -290 0 -290 0 0
-575 0 -575 -285 0 -285 0 0 865 0 865 575 0 575 0 0 285 0 285 -865 0 -865 0
0 -575 0 -575 -290 0 -290 0 0 575 0 575 -285 0 -285 0 0 -575 0 -575 -290 0
-290 0 0 575 0 575 -285 0 -285 0 0 -575 0 -575 -1155 0 -1155 0 0 -575 0
-575 -1440 0 -1440 0 0 865 0 865 290 0 290 0 0 -575 0 -575 865 0 865 0 0
860 0 860 -290 0 -290 0 0 -575 0 -575 -290 0 -290 0 0 575 0 575 -575 0 -575
0 0 290 0 290 1155 0 1155 0 -2 288 -3 287 -577 3 -578 2 0 285 0 285 578 2
577 3 2 285 c2 157 3 414 3 573 l0 287 285 0 285 0 0 -1725 0 -1725 865 0 865
0 0 285 0 285 -575 0 -575 0 0 865 0 865 575 0 575 0 0 1730 0 1730 290 0 290
0 0 -1155 0 -1155 285 0 285 0 0 580 0 580 290 0 290 0 0 -865 0 -865 -575 0
-575 0 0 -575 0 -575 -287 0 c-159 0 -418 -1 -578 -3 l-290 -2 -3 -287 -2
-288 865 0 865 0 0 575 0 575 575 0 575 0 0 1440 0 1440 -575 0 -575 0 0 575
0 575 -575 0 -575 0 0 580 0 581 -287 -1 c-159 0 -417 0 -575 0 l-288 0 0 285
0 285 575 0 575 0 0 580 0 580 290 0 290 0 0 -1155 0 -1155 1150 0 1150 0 0
-290 0 -290 -575 0 -575 0 0 -285 0 -285 575 0 575 0 2 -1152 3 -1153 1440 -2
c792 -2 1569 -3 1728 -3 l287 0 0 -285 0 -285 -1153 -2 -1152 -3 -3 -287 -2
-288 1440 0 1440 0 0 865 0 865 -1725 0 -1725 0 0 290 0 290 575 0 575 0 0
285 0 285 -575 0 -575 0 0 290 0 290 865 0 865 0 0 -575 0 -575 860 0 860 0 0
285 0 285 -575 0 -575 0 0 290 0 290 575 0 575 0 0 285 0 285 -1725 0 -1725 0
-2 578 -3 577 -577 3 -578 2 0 575 0 575 -285 0 -285 0 0 -575 0 -575 -290 0
-290 0 0 1150 0 1150 -575 0 -575 0 0 1150 0 1150 -575 0 -575 0 0 290 0 290
575 0 575 0 0 290 0 290 -575 0 -575 0 0 575 0 575 -290 0 -290 0 0 -1155 0
-1155 -285 0 -285 0 0 293 c0 160 0 680 0 1155 l0 862 -290 0 -290 0 0 -1155
0 -1155 -575 0 -575 0 0 -575 0 -575 -1440 0 -1440 0 0 865 0 865 575 0 575 0
0 865 0 865 -290 0 -291 0 1 -287 c0 -159 0 -417 0 -575 l0 -288 -575 0 -575
0 0 -2015 0 -2015 290 0 290 0 0 575 0 575 2015 0 2015 0 0 -290 0 -290 -1150
0 -1150 0 0 -285 0 -285 1150 0 1150 0 0 -290 0 -290 -1150 0 -1150 0 0 -290
0 -290 1438 2 1437 3 2 1438 3 1437 -580 0 -580 0 0 290 0 290 1443 0 1442 0
-2 -1157 c-2 -637 -3 -1285 -3 -1440 l0 -283 -285 0 -285 0 0 1150 0 1150
-290 0 -290 0 0 -1725 0 -1725 -287 0 c-159 0 -417 0 -575 0 l-288 1 0 -581 0
-580 -575 0 -575 0 0 -285 0 -285 575 0 575 0 0 -575 0 -575 290 0 290 0 0
863 c0 474 0 991 0 1150 l0 287 860 0 860 0 0 -290 0 -290 -575 0 -575 0 0
-285 0 -285 578 0 577 0 0 -290 0 -290 -577 0 -578 0 0 -285 0 -285 575 0 575
0 2 -577 c2 -318 2 -707 0 -865 l-2 -288 -285 0 -285 0 0 575 0 575 -1155 0
-1155 0 0 575 0 575 -285 0 -285 0 0 -865 0 -866 288 1 c158 0 416 0 575 0
l287 0 0 -285 0 -285 -575 0 -575 0 0 -577 0 -578 -290 0 -290 0 0 578 0 577
-285 0 -285 0 0 -575 0 -575 -292 0 c-161 0 -940 0 -1730 0 l-1438 0 0 -865 0
-865 575 0 575 0 0 -290 0 -290 -575 0 -575 0 0 -285 0 -285 865 0 865 0 0
575 0 575 575 0 575 0 0 285 0 285 -1155 0 -1155 0 0 290 0 290 1445 0 1445 0
0 -1440 0 -1440 -290 0 -290 0 0 575 0 575 -290 0 -291 0 1 -288 c0 -158 0
-416 0 -574 l0 -288 -575 0 -575 0 0 -575 0 -575 -575 0 -575 0 0 -290 0 -290
865 0 865 0 0 575 0 575 285 0 285 0 0 -575 0 -575 290 0 290 0 0 575 0 575
1440 0 1440 0 0 -285 0 -285 -575 0 -575 0 0 -290 0 -290 865 0 866 0 -1 287
c0 159 0 417 0 576 l0 287 285 0 285 0 0 -575 0 -575 290 0 290 0 0 1155 0
1155 865 0 865 0 0 -290 0 -290 -577 -2 -578 -3 0 -860 0 -860 288 -3 287 -2
0 575 0 575 575 0 575 0 0 580 0 580 865 0 865 0 0 -290 0 -290 -575 0 -575 0
0 -290 0 -290 1150 0 1150 0 0 -285 0 -285 -575 0 -575 0 0 -580 0 -580 -290
0 -290 0 0 580 0 580 -860 0 -860 0 0 -290 0 -290 575 0 575 0 0 -290 0 -290
-575 0 -575 0 0 -285 0 -285 575 0 575 0 0 -290 0 -290 -575 0 -575 0 0 -285
0 -285 860 0 860 0 0 575 0 575 290 0 290 0 0 -575 0 -575 575 0 575 0 0 -290
0 -290 -2015 0 -2015 0 0 575 0 575 -575 0 -575 0 0 290 0 290 575 0 575 0 0
285 0 285 -2305 0 -2305 0 0 580 0 580 -285 0 -285 0 0 -580 0 -580 -580 0
-580 0 0 -285 0 -285 1730 0 1730 0 0 -575 0 -575 290 0 291 0 -1 287 c0 159
0 417 0 576 l0 287 285 0 285 0 0 -575 0 -575 575 0 574 0 3 -290 3 -290
-2592 0 -2593 0 0 290 0 290 1150 0 1150 0 0 285 0 285 -2305 0 -2305 0 0 290
0 290 580 0 580 0 0 285 0 285 -865 0 -865 0 0 -860 0 -860 1150 0 1150 0 0
-290 0 -290 -1440 0 -1440 0 0 575 0 575 -285 0 -285 0 0 -575 0 -575 -865 0
-865 0 0 865 0 865 290 0 290 0 0 -575 0 -575 285 0 285 0 0 575 0 575 575 0
575 0 0 285 0 285 -1150 0 -1150 0 0 290 0 290 575 0 575 0 0 290 0 290 -575
0 -575 0 0 285 0 285 865 0 865 0 0 -575 0 -575 285 0 285 0 0 575 0 575 575
0 575 0 0 290 0 290 -575 0 -575 0 0 1150 0 1150 -285 0 -285 0 0 -1150 0
-1150 -290 0 -290 0 0 575 0 575 -285 0 -285 0 0 -575 0 -575 -580 0 -580 0 0
-2305 0 -2305 -865 0 -865 0 0 290 0 290 580 0 580 0 0 285 0 285 -580 0 -580
0 0 3170 0 3170 290 0 290 0 0 -575 0 -575 575 0 575 0 0 -290 0 -290 -575 0
-575 0 0 -2015 0 -2015 290 0 290 0 0 1153 c0 633 0 1412 0 1730 l0 577 575 0
575 0 0 860 0 860 -575 0 -575 0 -2 577 -3 578 -285 2 c-157 2 -417 3 -577 3
l-293 0 0 285 0 285 865 0 865 0 0 -575 0 -575 290 0 290 0 0 575 0 575 290 0
290 0 0 -1150 0 -1150 285 0 285 0 0 575 0 575 575 0 575 0 0 290 0 290 -575
-2 -575 -3 0 863 0 862 290 0 290 0 0 -575 0 -575 285 0 285 0 0 575 0 575
575 0 575 0 0 865 0 865 -285 0 -285 0 0 -575 0 -575 -290 0 -290 0 0 2305 0
2305 -285 0 -285 0 0 -575 0 -575 -290 0 -290 0 0 575 0 575 -575 0 -575 0 0
290 0 290 1150 0 1150 0 0 285 0 285 -1725 0 -1725 0 0 290 0 290 1725 0 1725
0 0 285 0 285 -1150 0 -1150 0 0 1440 0 1440 288 0 c158 0 416 0 575 0 l287
-1 0 291 0 290 -1440 0 -1440 0 0 -290 0 -291 288 1 c158 0 416 0 575 0 l287
0 0 -1440 0 -1440 -285 0 -285 0 0 578 c0 317 -1 836 -3 1152 l-2 575 -287 3
-288 2 0 -3170 0 -3170 290 0 290 0 0 578 c0 317 0 837 0 1155 l0 577 285 0
285 0 2 -577 3 -578 578 -3 577 -2 0 -575 0 -575 575 0 575 0 0 -290 0 -290
-575 0 -575 0 0 -285 0 -285 575 0 575 0 0 -290 0 -290 -1155 0 -1155 0 0
-285 0 -285 1155 0 1155 0 0 -290 0 -290 -1730 0 -1730 0 0 -290 0 -290 863 0
c474 0 994 0 1155 0 l292 0 0 -285 0 -285 -1445 0 -1445 0 0 865 0 865 580 0
580 0 0 285 0 285 -580 0 -580 0 0 290 0 290 1155 0 1155 0 0 865 0 865 -287
-2 -288 -3 -3 -577 -2 -578 -865 0 -865 0 0 4610 0 4610 -285 0 -285 0 0
-11235z M1440 23045 l0 -285 2305 0 2305 0 0 -290 0 -290 -575 0 -575 0 0
-290 0 -291 288 1 c158 0 416 0 575 0 l287 0 0 -285 0 -285 -575 0 -575 0 0
-580 0 -580 -290 0 -290 0 0 580 0 580 -285 0 -285 0 0 -865 0 -865 1150 0
1150 0 0 -2880 0 -2880 865 0 865 0 0 285 0 285 -577 2 -578 3 -3 863 -2 862
865 0 865 0 0 -285 0 -285 -575 0 -575 0 0 -290 0 -290 575 0 575 0 0 -287 c0
-159 0 -417 0 -575 l-1 -288 581 0 580 0 0 -290 0 -290 -1155 0 -1155 0 0
-1150 0 -1150 -575 0 -575 0 0 -290 0 -290 1440 0 1440 0 0 290 0 290 -575 0
-575 0 0 865 0 865 285 0 285 0 2 -577 3 -578 863 -2 862 -3 0 290 0 290 -575
0 -575 0 0 290 0 290 575 0 575 0 0 860 0 860 -575 0 -575 0 0 290 0 290 1150
0 1150 0 0 290 0 290 -862 0 c-475 0 -992 0 -1150 0 l-288 0 0 1150 0 1150
-290 0 -291 0 1 -287 c0 -159 0 -417 0 -575 l0 -288 -865 0 -865 0 0 1725 0
1725 -575 0 -575 0 0 290 0 290 575 0 575 0 0 1155 0 1155 290 0 290 0 2 -577
3 -578 285 0 285 0 3 578 2 577 865 0 865 0 0 -580 0 -580 285 0 285 0 0 580
0 580 290 0 290 0 0 -865 0 -865 -575 0 -575 0 -2 -577 -3 -578 -577 -3 -578
-2 0 -285 0 -285 865 0 865 0 0 575 0 575 575 0 575 0 0 1155 0 1155 2595 0
2595 0 0 -290 0 -290 -1152 -2 -1153 -3 0 -285 0 -285 865 -2 c476 -2 994 -3
1153 -3 l287 0 0 -285 0 -285 -575 0 -575 0 0 -290 0 -290 1440 0 1440 0 -2
288 -3 287 -577 3 -578 2 0 285 0 285 578 2 577 3 3 288 2 287 -580 0 -580 0
0 290 0 290 2020 0 2020 0 0 -290 0 -290 -575 0 -575 0 0 -290 0 -290 860 0
860 0 0 580 0 580 290 0 290 0 0 -3170 0 -3170 -2015 0 -2015 0 0 1440 0 1440
575 0 575 0 0 575 0 575 865 0 865 0 0 -290 0 -290 -575 0 -575 0 0 -285 0
-285 575 0 575 0 0 -865 0 -865 -290 0 -290 0 0 575 0 575 -865 0 -865 0 0
-860 0 -860 290 0 290 0 0 575 0 575 290 0 290 0 0 -575 0 -575 860 0 860 0 0
2015 0 2015 -1150 0 -1150 0 0 575 0 575 -290 0 -290 0 0 -1155 0 -1155 -575
0 -575 0 0 -575 0 -575 -290 0 -290 0 0 575 0 575 -860 0 -860 0 0 -860 0
-860 285 0 285 0 0 575 0 575 290 0 290 0 0 -1150 0 -1150 285 0 285 0 0 575
0 575 290 0 290 0 0 -1155 0 -1155 2305 0 2305 0 0 -285 0 -285 -287 0 c-159
0 -936 -1 -1728 -3 l-1440 -2 -3 -287 -2 -288 1730 0 1730 0 0 -6915 0 -6915
288 2 287 3 2 11233 3 11232 -10660 0 -10660 0 0 -285z"/>
</g>
</svg>
