<?xml version="1.0" standalone="no"?>
<!DOCTYPE svg PUBLIC "-//W3C//DTD SVG 20010904//EN"
 "http://www.w3.org/TR/2001/REC-SVG-20010904/DTD/svg10.dtd">
<svg version="1.0" xmlns="http://www.w3.org/2000/svg"
 width="2362.000000pt" height="2362.000000pt" viewBox="0 0 2362.000000 2362.000000"
 preserveAspectRatio="xMidYMid meet">
<metadata>
Created by potrace 1.16, written by Peter Selinger 2001-2019
</metadata>
<g transform="translate(0.000000,2362.000000) scale(0.100000,-0.100000)"
fill="#000000" stroke="none">
<path d="M290 12095 l0 -11235 10655 0 10655 0 0 290 0 290 -2305 0 -2305 0 0
290 0 290 580 0 580 0 0 285 0 285 -580 0 -580 0 2 2018 3 2017 863 3 862 2 0
-865 0 -865 -285 0 -285 0 0 575 0 575 -290 0 -290 0 0 -865 0 -865 575 0 575
0 0 -290 0 -290 -575 0 -575 0 0 -285 0 -285 575 0 575 0 0 -575 0 -575 290 0
290 0 0 575 0 575 290 0 290 0 0 -575 0 -575 285 0 285 0 0 575 0 575 290 0
290 0 0 -575 0 -575 285 0 285 0 0 2015 0 2015 -285 0 -285 0 0 -1155 0 -1155
-290 0 -290 0 0 580 0 580 -285 0 -285 0 0 -580 0 -580 -290 0 -290 0 0 865 0
865 575 0 575 0 0 290 0 290 -575 0 -575 0 0 290 0 290 1150 0 1150 0 0 1440
0 1440 -860 0 -860 0 0 -290 0 -290 575 0 575 0 0 -290 0 -290 -575 0 -575 0
0 -285 0 -285 575 0 575 0 0 -290 0 -290 -1440 0 -1440 0 0 865 0 865 285 0
285 0 0 -575 0 -575 290 0 290 0 -2 863 -3 862 -285 2 c-157 2 -414 3 -572 3
l-288 0 0 285 0 285 575 0 575 0 0 575 0 575 290 0 290 0 0 -575 0 -575 860 0
860 0 0 290 0 290 -575 0 -575 0 0 285 0 285 288 0 c158 0 416 0 575 0 l287
-1 0 866 0 865 -285 0 -285 0 0 -575 0 -575 -290 0 -290 0 0 575 0 575 -285 0
-285 0 0 -575 0 -575 -290 0 -290 0 0 575 0 575 -290 0 -290 0 0 -1150 0
-1150 -285 0 -285 0 0 1150 0 1150 -2020 0 -2021 0 1 -287 c0 -159 0 -417 0
-575 l0 -288 -575 0 -575 0 2 -287 3 -288 863 -2 862 -3 0 580 0 580 290 0
290 0 0 -865 0 -865 -577 -2 -578 -3 0 -285 0 -285 863 -3 862 -2 0 1155 0
1155 865 0 865 0 0 -865 0 -865 -290 0 -290 0 0 575 0 575 -285 0 -285 0 0
-865 0 -865 575 0 575 0 0 -1440 0 -1440 -290 0 -290 0 0 1155 0 1155 -1437
-3 -1438 -2 -3 -287 -2 -288 580 0 580 0 0 -575 0 -575 285 0 285 0 0 575 0
575 290 0 290 0 0 -1440 0 -1440 -290 0 -290 0 0 575 0 575 -575 0 -575 0 0
575 0 575 -575 0 -575 0 0 1155 0 1155 -575 0 -575 0 0 288 c0 158 0 416 0
574 l1 288 -581 0 -580 0 0 1440 0 1440 290 0 290 0 0 -1150 0 -1150 290 0
290 0 -3 1438 -2 1437 -577 3 -578 2 0 285 0 285 578 2 577 3 0 285 0 285
-577 3 -578 2 0 290 0 290 865 0 865 0 0 -2305 0 -2305 290 0 290 0 0 1150 0
1150 1150 0 1150 0 0 1440 0 1440 -285 0 -285 0 0 -575 0 -575 -290 0 -290 0
0 575 0 575 -290 0 -290 0 3 -862 2 -863 578 -3 577 -2 0 -285 0 -285 -577 -2
c-318 -2 -707 -2 -865 0 l-288 2 0 1150 0 1150 -1155 0 -1155 0 0 290 0 290
3170 0 3170 0 0 -575 0 -575 290 0 290 0 0 1150 0 1150 1150 0 1150 0 0 575 0
575 575 0 575 0 0 290 0 290 -575 0 -575 0 0 575 0 575 -1440 0 -1440 0 0
-290 0 -290 578 0 c317 0 837 0 1155 0 l577 0 -2 -862 -3 -863 -1152 -3 -1153
-2 0 -575 0 -575 -865 0 -865 0 0 1155 0 1155 -285 0 -285 0 0 -580 0 -580
-290 0 -290 0 0 1155 0 1155 -287 -2 -288 -3 -2 -285 c-2 -157 -3 -414 -3
-572 l0 -288 -575 0 -575 0 0 -290 0 -290 575 0 575 0 0 -287 c0 -159 0 -417
0 -575 l-1 -288 581 0 580 0 0 -290 0 -290 -2020 0 -2020 0 0 575 0 575 -575
0 -575 0 0 290 0 290 575 0 575 0 0 290 0 290 -1437 -2 -1438 -3 -2 -862 -3
-863 290 0 290 0 0 575 0 575 290 0 290 0 0 -575 0 -575 575 0 575 0 0 -290 0
-290 -575 0 -575 0 0 -285 0 -285 575 0 575 0 0 -290 0 -290 -865 0 -865 0 0
575 0 575 -575 0 -575 0 0 1730 0 1730 -290 0 -290 0 0 -1155 0 -1155 -287 2
-288 3 -3 578 -2 577 -860 0 -860 0 0 -580 0 -580 -290 0 -290 0 0 580 0 580
-285 0 -285 0 -2 -577 -3 -578 -577 -3 -578 -2 0 -285 0 -285 580 0 580 0 0
-290 0 -290 -580 0 -580 0 0 -285 0 -285 580 0 580 0 0 -575 0 -575 285 0 285
0 0 575 0 575 290 0 290 0 0 -575 0 -575 285 0 285 0 0 575 0 575 575 0 575 0
0 285 0 285 -1150 0 -1150 0 0 290 0 290 575 0 575 0 0 575 0 575 290 0 290 0
0 -575 0 -575 575 0 575 0 0 -575 0 -575 575 0 575 0 0 -575 0 -575 1155 0
1155 0 0 -290 0 -290 -1440 0 -1440 0 0 575 0 575 -865 0 -865 0 0 -285 0
-285 575 0 575 0 0 -580 0 -580 575 0 575 0 0 -285 0 -285 -575 0 -575 0 0
-290 0 -290 865 0 865 0 0 575 0 575 865 0 865 0 0 -285 0 -285 -575 0 -575 0
0 -290 0 -290 575 0 575 0 0 -1440 0 -1440 -290 0 -290 0 0 1150 0 1150 -865
0 -865 0 0 -285 0 -285 580 0 580 0 0 -290 0 -290 -580 0 -580 0 0 -285 0
-285 580 0 580 0 0 -290 0 -290 -865 0 -865 0 0 1150 0 1150 -290 0 -290 0 0
-575 0 -575 -575 0 -575 0 0 -285 0 -285 575 0 575 0 0 -290 0 -290 -575 0
-575 0 0 -575 0 -575 -575 0 -575 0 0 -290 0 -290 860 0 860 0 0 575 0 575
575 0 c316 0 1097 0 1735 0 638 0 1288 0 1445 0 l285 0 0 -1150 0 -1150 285 0
285 0 0 1150 0 1150 290 0 290 0 0 -1150 0 -1150 290 0 291 0 -1 287 c0 159 0
417 0 576 l0 287 285 0 285 0 0 -1440 0 -1440 -575 0 -575 0 0 -285 0 -285
575 0 575 0 0 -290 0 -290 -865 0 -865 0 0 865 0 865 580 0 580 0 0 285 0 285
-1155 0 -1155 0 0 1155 0 1155 -285 0 -285 0 0 -1155 0 -1155 -865 0 -865 0 0
290 0 290 575 0 575 0 0 865 0 865 -287 -2 -288 -3 -3 -572 -2 -573 -285 0
-285 0 0 575 0 575 -290 0 -290 0 0 -575 0 -575 -287 0 c-159 0 -676 0 -1150
0 l-863 0 0 -290 0 -290 1150 0 1150 0 0 -575 0 -575 575 0 575 0 0 -577 c0
-318 1 -837 3 -1153 l2 -575 287 -3 288 -2 0 1155 0 1155 290 0 290 0 0 -575
0 -575 285 0 285 0 0 575 0 575 290 0 290 0 0 -865 0 -865 -575 0 -575 0 0
-575 0 -575 -865 0 -865 0 0 1150 0 1150 -290 0 -290 0 0 -575 0 -575 -575 0
-575 0 0 -575 0 -575 -290 0 -290 0 0 575 0 575 -285 0 -285 0 0 -2015 0
-2015 285 0 285 0 0 575 0 575 290 0 290 0 0 -575 0 -575 285 0 285 0 0 860 0
860 -575 0 -575 0 0 290 0 290 575 0 575 0 0 575 0 575 290 0 290 0 0 -575 0
-575 1155 0 1155 0 0 -575 0 -575 1150 0 1150 0 0 -575 0 -575 290 0 290 0 0
860 0 860 -1155 0 -1155 0 0 865 0 865 290 0 290 0 0 -575 0 -575 285 0 285 0
0 575 0 575 290 0 290 0 0 -575 0 -575 575 0 575 0 0 -575 0 -575 578 0 577 0
0 -290 0 -290 -577 0 -578 0 0 -285 0 -285 865 0 865 0 0 575 0 575 290 0 290
0 0 -575 0 -575 285 0 285 0 0 860 0 860 -1150 0 -1150 0 0 580 0 580 -575 0
-575 0 0 285 0 285 860 0 860 0 0 -287 c0 -159 1 -416 3 -573 l2 -285 863 -3
862 -2 0 290 0 290 -575 0 -575 0 0 575 0 575 -575 0 -575 0 0 865 0 865 288
0 287 0 -3 -575 -2 -575 580 0 580 0 0 -580 0 -580 575 0 575 0 0 -2015 0
-2015 -2595 0 -2595 0 0 575 0 575 -285 0 -285 0 0 -575 0 -575 -865 0 -865 0
0 290 0 290 575 0 575 0 0 285 0 285 -575 0 -575 0 0 575 0 575 -865 0 -865 0
0 -285 0 -285 575 0 575 0 0 -290 0 -290 -575 0 -575 0 0 -285 0 -285 575 0
575 0 0 -290 0 -290 -2015 0 -2015 0 0 575 0 575 -285 0 -285 0 0 -575 0 -575
-290 0 -290 0 0 575 0 575 -290 0 -290 0 0 -575 0 -575 -865 0 -865 0 0 290 0
290 580 0 580 0 0 285 0 285 -580 0 -580 0 0 2020 0 2020 290 0 290 0 0 -580
0 -580 575 0 575 0 0 -285 0 -285 -575 0 -575 0 0 -865 0 -865 865 0 865 0 0
285 0 285 -575 0 -575 0 0 290 0 290 865 0 865 0 0 -575 0 -575 285 0 285 0 0
1440 0 1440 -285 0 -285 0 0 -575 0 -575 -290 0 -290 0 0 575 0 575 -575 0
-575 0 0 288 c0 158 0 416 0 575 l1 287 -581 0 -580 0 0 865 0 865 290 0 290
0 0 -575 0 -575 290 0 291 0 -1 288 c0 158 0 416 0 575 l0 287 285 0 285 0 0
-1150 0 -1150 290 0 290 0 0 1150 0 1150 290 0 290 0 0 -1150 0 -1150 1435 0
1435 0 0 285 0 285 -575 0 -575 0 0 290 0 290 575 0 575 0 0 285 0 285 -860 0
-860 0 0 -575 0 -575 -290 0 -290 0 0 2595 0 2595 290 0 290 0 0 -580 0 -580
285 0 285 0 0 865 0 865 -860 0 -860 0 0 -1725 0 -1725 -290 0 c-159 0 -679 0
-1155 0 -476 0 -995 0 -1155 0 l-290 0 0 285 0 285 1155 0 1155 0 0 290 0 290
-1155 0 -1155 0 0 285 0 285 578 0 c317 0 836 1 1152 3 l575 2 3 863 2 862
-865 0 -865 0 0 -285 0 -285 575 0 575 0 0 -290 0 -290 -865 0 -865 0 0 2015
0 2015 290 0 290 0 0 -575 0 -575 575 0 575 0 0 -290 0 -290 -575 0 -575 0 0
-285 0 -285 865 0 865 0 0 575 0 575 290 0 290 0 0 -575 0 -575 285 0 285 0 0
865 0 866 -287 -1 c-159 0 -676 0 -1150 0 l-863 0 0 285 0 285 2015 0 2015 0
0 -865 0 -865 -290 0 -290 0 0 580 0 580 -285 0 -285 0 0 -865 0 -865 860 0
860 0 0 1440 0 1440 -1725 0 -1725 0 0 575 0 575 -865 0 -865 0 0 -285 0 -285
575 0 575 0 0 -290 0 -290 -865 0 -865 0 0 1440 0 1440 290 0 290 0 0 -575 0
-575 290 0 290 0 -3 1438 -2 1437 -287 3 -288 2 0 -580 0 -580 -287 2 -288 3
-3 862 -2 863 577 2 c318 2 707 2 866 0 l287 -2 0 -575 0 -575 290 0 290 0 0
575 0 575 288 0 c158 0 675 0 1150 0 l862 0 0 290 0 290 -2305 0 -2305 0 0
575 0 575 -285 0 -285 0 0 -11235z M1440 23045 l0 -285 2305 0 2305 0 0 -580
0 -580 285 0 285 0 0 580 0 580 865 0 865 0 2 -577 3 -578 1440 -2 c792 -2
1569 -3 1728 -3 l287 0 0 -1150 0 -1150 865 0 865 0 0 285 0 285 -575 0 -575
0 0 290 c0 160 0 421 0 580 0 160 0 418 0 575 l0 285 573 2 572 3 3 288 2 287
-2305 0 -2305 0 0 290 0 290 3745 0 3745 0 0 -290 0 -290 -575 0 -575 0 0
-290 0 -291 288 1 c158 0 416 0 575 0 l287 0 0 -1150 0 -1150 285 0 285 0 0
575 0 575 1155 0 1155 0 0 290 0 290 -1155 0 -1155 0 0 865 0 865 2595 0 2595
0 0 -290 0 -290 -575 0 -575 0 0 -290 0 -291 288 1 c158 0 416 0 575 0 l287 0
0 -865 0 -865 -575 0 -575 0 0 -285 0 -285 575 0 575 0 0 -2015 0 -2015 -290
0 -290 0 0 1150 0 1150 -1150 0 -1150 0 0 290 0 290 1150 0 1150 0 0 285 0
285 -1440 0 -1440 0 0 -860 0 -860 1155 0 1155 0 0 -1445 0 -1445 -290 0 -290
0 0 1155 0 1155 -865 0 -865 0 2 -287 3 -288 578 -3 577 -2 0 -285 0 -285
-577 -2 -578 -3 -3 -577 -2 -578 -865 0 -865 0 0 865 0 865 290 0 290 0 0
-575 0 -575 290 0 290 0 0 865 0 865 -580 0 -580 0 0 575 0 575 -285 0 -285 0
0 -1730 0 -1730 -1155 0 -1155 0 0 -285 0 -285 2595 0 2595 0 0 575 0 575 290
0 290 0 0 -575 0 -575 860 0 860 0 0 575 0 575 290 0 290 0 0 -6915 0 -6915
288 2 287 3 2 11233 3 11232 -10660 0 -10660 0 0 -285z"/>
</g>
</svg>
