<?xml version="1.0" standalone="no"?>
<!DOCTYPE svg PUBLIC "-//W3C//DTD SVG 20010904//EN"
 "http://www.w3.org/TR/2001/REC-SVG-20010904/DTD/svg10.dtd">
<svg version="1.0" xmlns="http://www.w3.org/2000/svg"
 width="2362.000000pt" height="2362.000000pt" viewBox="0 0 2362.000000 2362.000000"
 preserveAspectRatio="xMidYMid meet">
<metadata>
Created by potrace 1.16, written by Peter Selinger 2001-2019
</metadata>
<g transform="translate(0.000000,2362.000000) scale(0.100000,-0.100000)"
fill="#000000" stroke="none">
<path d="M290 12095 l0 -11235 10655 0 10655 0 0 290 0 290 -1150 0 -1150 0 0
1150 0 1150 -865 0 -865 0 0 -285 0 -285 575 0 575 0 0 -865 0 -865 -285 0
-285 0 0 575 0 575 -290 0 -290 0 0 -575 0 -575 -290 0 -290 0 0 1730 0 1730
-860 0 -860 0 0 -290 0 -290 575 0 575 0 0 -865 0 -865 -290 0 -290 0 0 575 0
575 -865 0 -865 0 0 -285 0 -285 580 0 580 0 0 -290 0 -290 -580 0 -580 0 0
-285 0 -285 1155 0 1155 0 0 -290 0 -290 -2015 0 -2015 0 0 288 c0 158 0 416
0 574 l1 288 -291 0 -290 0 0 -575 0 -575 -1440 0 -1440 0 0 290 0 290 1150 0
1150 0 0 575 0 575 865 0 865 0 0 -575 0 -575 290 0 290 0 0 860 0 860 -1730
0 -1730 0 0 865 0 865 865 0 865 0 0 -285 0 -285 -575 0 -575 0 0 -290 0 -290
865 0 866 0 -1 287 c0 159 0 417 0 576 l0 287 860 0 860 0 0 -285 0 -285 -572
-2 -573 -3 -3 -287 -2 -288 865 0 865 0 0 575 0 575 1150 0 1150 0 0 290 0
290 -575 0 -575 0 0 575 0 575 -1440 0 -1440 0 0 -285 0 -285 1155 0 1155 0 0
-290 0 -290 -2020 0 -2020 0 0 1440 0 1440 1730 0 1730 0 0 1440 0 1440 -2015
0 -2015 0 0 -290 0 -290 1722 0 c946 0 1723 -1 1724 -3 3 -3 5 -523 4 -1429
l0 -288 -285 0 -285 0 0 575 0 575 -290 0 -290 0 0 -575 0 -575 -287 0 c-159
0 -676 0 -1150 0 l-863 0 0 -1730 0 -1730 -290 0 -290 0 0 1150 0 1150 -285 0
-285 0 0 -2590 0 -2590 575 0 575 0 0 -290 0 -290 -1155 0 -1156 0 1 -288 c0
-158 0 -416 0 -574 l0 -288 -1440 0 -1440 0 0 290 0 290 1155 0 1155 0 0 575
0 575 575 0 575 0 0 865 0 865 -287 -2 -288 -3 -3 -577 -2 -578 -285 0 -285 0
-2 578 -3 577 -862 3 -863 2 0 -290 0 -290 575 0 575 0 0 -290 0 -290 -575 0
-575 0 0 -285 0 -285 575 0 575 0 0 -290 0 -290 -1150 0 -1150 0 0 -575 0
-575 -290 0 -290 0 0 865 0 865 575 0 575 0 0 865 0 865 -285 0 -285 0 0 -580
0 -580 -290 0 -290 0 0 580 0 580 -285 0 -285 0 0 -1730 0 -1730 -1445 0
-1445 0 0 1440 0 1440 290 0 290 0 0 -1150 0 -1150 865 0 865 0 0 1725 0 1725
1150 0 1150 0 0 290 0 290 -1150 0 -1150 0 0 575 0 575 -865 0 -865 0 0 -285
0 -285 575 0 575 0 0 -290 0 -290 -575 0 -575 0 0 -290 0 -290 575 0 575 0 0
-1440 0 -1440 -285 0 -285 0 0 578 c0 317 -1 836 -3 1152 l-2 575 -577 3 -578
2 0 4320 0 4320 290 0 290 0 0 -1730 0 -1730 288 2 287 3 3 573 2 572 285 0
285 0 0 -575 0 -575 290 0 290 0 0 575 0 575 290 0 290 0 0 -860 0 -860 -292
0 c-161 0 -680 -1 -1153 -3 l-860 -2 -3 -287 -2 -288 575 0 575 0 0 -290 0
-290 -575 0 -575 0 0 -285 0 -285 865 0 865 0 0 575 0 575 290 0 290 0 0
-1150 0 -1150 860 0 860 0 0 575 0 575 290 0 290 0 0 -1155 0 -1155 1440 0
1440 0 0 290 0 290 -1155 0 -1155 0 2 288 3 287 1153 3 1152 2 0 860 0 860
-865 0 -865 0 0 -285 0 -285 575 0 575 0 0 -290 0 -290 -865 0 -865 0 0 575 0
575 -575 0 -575 0 0 290 0 290 575 0 575 0 0 290 0 290 -860 0 -860 0 0 -1155
0 -1155 -290 0 -290 0 0 1440 0 1440 575 0 575 0 0 575 0 575 290 0 290 0 0
-575 0 -575 285 0 285 0 0 865 0 865 -575 0 -575 0 0 575 0 575 -285 0 -285 0
0 -1150 0 -1150 -290 0 -290 0 0 1440 0 1440 1150 0 1150 0 0 1150 0 1150 578
2 577 3 3 1438 2 1437 -290 0 -290 0 0 -1150 0 -1150 -865 0 -865 0 0 290 0
290 575 0 575 0 0 285 0 285 -860 0 -860 0 0 -575 0 -575 -290 0 -290 0 0 575
0 575 -285 0 -285 0 0 -575 0 -575 -290 0 -290 0 0 575 0 575 -865 0 -865 0 0
-285 0 -285 575 0 575 0 2 -577 3 -578 1728 -3 1727 -2 0 -865 0 -865 -290 0
-290 0 0 580 0 580 -2015 0 -2015 0 0 -290 0 -290 1730 0 1730 0 0 -290 0
-290 -1155 0 -1155 0 0 -285 0 -285 580 0 580 0 0 -865 0 -865 -865 0 -865 0
0 290 0 290 575 0 575 0 0 285 0 285 -575 0 -575 0 0 575 0 575 -580 0 -580 0
0 865 0 865 578 2 577 3 0 285 0 285 -577 3 -578 2 0 1440 0 1440 290 0 290 0
0 -575 0 -575 865 0 865 0 0 860 0 860 -290 0 -290 0 0 -575 0 -575 -285 0
-285 0 0 575 0 575 -577 2 -578 3 -3 863 -2 862 577 0 c318 0 837 1 1153 3
l575 2 3 288 2 287 -1155 0 -1155 0 0 575 0 575 -285 0 -285 0 0 -11235z
M1440 23045 l0 -285 2305 0 2305 0 0 -290 0 -290 -575 0 -575 0 0 -575 0 -575
-290 0 -290 0 0 575 0 575 -285 0 -285 0 0 -575 0 -575 -1155 0 -1155 0 0
-290 0 -290 1155 0 1155 0 0 -1150 0 -1150 285 0 285 0 0 575 0 575 865 0 865
0 0 -290 0 -290 -575 0 -575 0 0 -285 0 -285 860 0 860 0 0 575 0 575 1155 0
1155 0 0 285 0 285 -2305 0 -2305 0 0 290 0 290 575 0 575 0 0 575 0 575 290
0 290 0 0 -575 0 -575 285 0 285 0 0 1155 0 1155 290 0 290 0 0 -1155 0 -1155
865 0 865 0 0 290 0 290 -575 0 -575 0 0 865 0 865 865 0 865 0 0 -290 0 -290
-580 0 -580 0 2 -287 3 -288 578 -3 577 -2 0 -575 0 -575 285 0 285 0 0 1155
0 1155 290 0 290 0 0 -580 0 -580 285 0 285 0 0 580 0 580 290 0 290 0 0
-1730 0 -1730 575 0 575 0 0 -290 0 -290 -1440 0 -1440 0 0 290 0 290 575 0
575 0 0 865 0 865 -285 0 -285 0 0 -580 0 -580 -575 0 -575 0 0 -575 0 -575
-580 0 -580 0 0 -860 0 -860 578 -2 577 -3 3 -287 2 -288 -580 0 -580 0 0
-575 0 -575 -575 0 -575 0 0 -290 0 -290 865 0 865 0 0 575 0 575 290 0 290 0
0 -1440 0 -1440 -290 0 -290 0 0 575 0 575 -865 0 -865 0 0 -285 0 -285 575 0
575 0 0 -290 0 -290 -1150 0 -1150 0 0 -285 0 -285 1150 0 1150 0 2 -577 3
-578 578 -3 577 -2 0 -860 0 -860 -290 0 -290 0 0 575 0 575 -575 0 -575 0 0
575 0 575 -290 0 -290 0 0 -1440 0 -1440 290 0 290 0 0 575 0 575 285 0 285 0
0 -287 c0 -159 0 -417 0 -576 l-1 -287 866 0 865 0 0 575 0 575 1153 2 1152 3
0 285 0 285 -1152 3 -1153 2 0 575 0 575 -575 0 -575 0 0 290 0 290 575 0 575
0 0 1150 0 1150 290 0 290 0 0 -575 0 -575 285 0 285 0 0 865 0 865 -575 0
-575 0 0 1150 0 1150 -575 0 -575 0 0 290 0 290 1440 0 1440 0 0 -290 0 -290
-575 0 -575 0 0 -865 0 -865 575 0 575 0 0 -1440 0 -1440 -575 0 -575 0 0
-285 0 -285 865 0 866 0 -1 288 c0 158 0 416 0 575 l0 287 575 0 575 0 0 285
0 285 -575 0 -575 0 0 290 0 290 860 0 860 0 0 -287 c0 -159 0 -417 0 -575
l-1 -288 291 0 290 0 0 575 0 575 290 0 290 0 0 -575 0 -575 575 0 575 0 0
-865 0 -865 -290 0 -290 0 0 575 0 575 -1440 0 -1440 0 0 -285 0 -285 1155 0
1155 0 0 -580 0 -581 288 1 c158 0 416 0 575 0 l287 0 0 -285 0 -285 -575 0
-575 0 0 -290 0 -290 860 0 860 0 0 2015 0 2015 -575 0 -575 0 0 290 0 290
575 0 575 0 0 290 0 290 -1150 0 -1150 0 0 285 0 285 575 0 575 0 0 290 0 290
-1150 0 -1150 0 0 290 0 290 575 0 575 0 0 285 0 285 -865 0 -865 0 0 -865 0
-865 575 0 575 0 0 -285 0 -285 -860 0 -860 0 0 288 c0 158 -1 415 -3 572 l-2
285 -577 3 -578 2 0 290 0 290 580 0 580 0 0 575 0 575 575 0 575 0 0 860 0
860 -575 0 -575 0 0 293 c0 370 0 1284 0 2025 l0 572 1440 0 1440 0 0 -290 0
-290 -577 -2 -578 -3 0 -285 0 -285 863 -2 862 -3 0 580 0 580 2020 0 2020 0
0 -580 0 -580 285 0 285 0 0 580 0 580 290 0 290 0 0 -580 0 -580 285 0 285 0
0 580 0 580 290 0 290 0 0 -1445 0 -1445 -290 0 -290 0 0 580 0 580 -285 0
-285 0 0 -865 0 -865 575 0 575 0 0 -290 0 -290 -575 0 -575 0 0 -285 0 -285
575 0 575 0 0 -2020 0 -2020 -575 0 -575 0 0 -1150 0 -1150 -575 0 -575 0 0
-290 0 -290 860 0 860 0 0 1155 0 1155 290 0 290 0 0 -1440 0 -1440 -1150 0
-1150 0 0 -290 0 -290 575 0 575 0 0 -287 0 -288 -582 2 c-321 2 -710 3 -865
3 l-283 0 0 575 0 575 -575 0 -575 0 0 285 0 285 288 0 c158 0 416 0 575 0
l287 -1 0 1156 0 1155 290 0 290 0 0 -575 0 -575 285 0 285 0 0 1150 0 1150
575 0 575 0 0 290 0 290 -860 0 -860 0 0 -580 0 -580 -580 0 -580 0 0 -575 0
-575 -285 0 -285 0 0 865 0 865 575 0 575 0 0 575 0 575 575 0 575 0 0 580 0
580 290 0 290 0 0 -580 0 -580 285 0 285 0 0 865 0 865 -575 0 -575 0 0 575 0
575 -285 0 -285 0 0 -575 0 -575 -865 0 -865 0 0 290 0 290 575 0 575 0 0 285
0 285 -575 0 -575 0 0 865 0 865 285 0 285 0 0 -575 0 -575 865 0 865 0 0 285
0 285 -575 0 -575 0 0 290 0 290 575 0 575 0 0 290 0 290 -575 0 -575 0 0 575
0 575 -290 0 -290 0 0 -575 0 -575 -285 0 -285 0 0 575 0 575 -865 0 -865 0 0
-865 0 -865 285 0 285 0 0 575 0 575 290 0 290 0 0 -865 0 -865 -1440 0 -1440
0 0 290 0 290 575 0 575 0 0 290 0 290 -1150 0 -1150 0 0 575 0 575 -290 0
-290 0 0 -865 0 -865 575 0 575 0 0 -287 c0 -159 0 -676 0 -1150 l0 -863 290
0 290 0 0 575 0 575 290 0 290 0 0 -1150 0 -1150 285 0 285 0 0 575 0 575 290
0 290 0 0 -1155 0 -1155 285 0 285 0 0 1440 0 1440 -575 0 -575 0 0 290 0 290
865 0 865 0 0 -1150 0 -1150 1153 -2 1152 -3 3 -287 2 -288 -1155 0 -1155 0 0
-290 0 -290 575 0 575 0 0 -285 0 -285 -575 0 -575 0 0 -1440 0 -1440 575 0
575 0 0 -290 0 -290 -575 0 -575 0 0 -865 0 -865 575 0 575 0 0 -285 0 -285
-287 0 c-159 0 -676 0 -1150 0 l-863 0 0 -580 0 -580 -290 0 -290 0 0 580 0
580 -285 0 -285 0 0 -580 0 -580 -1730 0 -1730 0 0 -860 0 -860 290 0 290 0 0
575 0 575 2015 0 2015 0 0 -575 0 -575 285 0 285 0 0 575 0 575 580 0 580 0 0
285 0 285 -580 0 -580 0 0 290 0 290 2020 0 2020 0 0 -290 0 -290 -1155 0
-1155 0 0 -285 0 -285 1155 0 1155 0 0 -290 0 -290 -1155 0 -1155 0 0 -575 0
-575 -285 0 -285 0 0 575 0 575 -290 0 -290 0 0 -1440 0 -1440 290 0 290 0 0
575 0 575 575 0 575 0 0 580 0 580 290 0 290 0 0 -580 0 -580 860 0 860 0 0
290 0 290 -575 0 -575 0 0 290 0 290 575 0 575 0 0 1725 0 1725 290 0 290 0 0
-2590 0 -2590 -575 0 -575 0 0 -580 0 -580 -290 0 -290 0 0 580 0 580 -862 -2
-863 -3 -3 -287 -2 -288 580 0 580 0 0 -575 0 -575 860 0 860 0 0 575 0 575
290 0 290 0 0 -865 0 -865 -1150 0 -1150 0 0 -285 0 -285 1150 0 1150 0 0
-580 0 -580 288 2 287 3 2 11233 3 11232 -10660 0 -10660 0 0 -285z"/>
</g>
</svg>
