<?xml version="1.0" standalone="no"?>
<!DOCTYPE svg PUBLIC "-//W3C//DTD SVG 20010904//EN"
 "http://www.w3.org/TR/2001/REC-SVG-20010904/DTD/svg10.dtd">
<svg version="1.0" xmlns="http://www.w3.org/2000/svg"
 width="2362.000000pt" height="2362.000000pt" viewBox="0 0 2362.000000 2362.000000"
 preserveAspectRatio="xMidYMid meet">
<metadata>
Created by potrace 1.16, written by Peter Selinger 2001-2019
</metadata>
<g transform="translate(0.000000,2362.000000) scale(0.100000,-0.100000)"
fill="#000000" stroke="none">
<path d="M290 12095 l0 -11235 10655 0 10655 0 0 290 0 290 -575 0 -575 0 0
1440 0 1440 290 0 290 0 0 -1150 0 -1150 285 0 285 0 0 3745 0 3745 -862 0
c-475 0 -992 0 -1150 0 l-288 0 0 1150 0 1150 -290 0 -290 0 0 -575 0 -575
-285 0 -285 0 0 865 0 865 575 0 575 0 0 285 0 285 -575 0 -575 0 0 290 0 290
1440 0 1440 0 0 -865 0 -865 -290 0 -290 0 0 575 0 575 -285 0 -285 0 0 -1440
0 -1440 285 0 285 0 0 575 0 575 290 0 290 0 0 -575 0 -575 285 0 285 0 0
2015 0 2015 -575 0 -575 0 0 865 0 865 290 0 290 0 0 -575 0 -575 285 0 285 0
0 2015 0 2015 -860 0 -860 0 0 -285 0 -285 575 0 575 0 0 -290 0 -290 -575 0
-575 0 0 -285 0 -285 575 0 575 0 0 -290 0 -290 -865 0 -865 0 0 1150 0 1150
-290 0 -290 0 0 -1150 0 -1150 -1150 0 -1150 0 0 -290 0 -290 1150 0 1150 0 0
-575 0 -575 290 0 290 0 0 575 0 575 290 0 290 0 0 -865 0 -865 -1730 0 -1730
0 0 -285 0 -285 575 0 575 0 0 -1730 0 -1730 575 0 575 0 0 -285 0 -285 -287
0 c-159 0 -416 -1 -573 -3 l-285 -2 -3 -287 -2 -288 575 0 575 0 0 -290 0
-290 -865 0 -865 0 0 1730 0 1730 -860 0 -860 0 0 -1440 0 -1440 285 0 285 0
0 1150 0 1150 290 0 290 0 0 -1440 0 -1440 -575 0 -575 0 0 -575 0 -575 -290
0 -290 0 0 1730 0 1730 -287 -2 -288 -3 -2 -569 c-2 -313 -4 -571 -6 -573 -2
-2 -260 -4 -573 -6 l-569 -2 -3 -287 -2 -288 577 0 578 0 -2 -1150 -3 -1150
865 0 865 0 0 575 0 575 290 0 290 0 0 -575 0 -575 285 0 285 0 0 575 0 575
1445 0 1445 0 0 -575 0 -575 285 0 285 0 0 860 0 860 -575 0 -575 0 0 290 0
290 865 0 865 0 0 -2015 0 -2015 -290 0 -290 0 0 575 0 575 -575 0 -575 0 0
575 0 575 -865 0 -865 0 0 -285 0 -285 575 0 575 0 0 -290 0 -290 -2302 -2
-2303 -3 -2 -860 c-2 -473 -3 -992 -3 -1152 l0 -293 -575 0 -575 0 0 -860 0
-860 290 0 290 0 0 575 0 575 1150 0 1150 0 0 865 0 865 -285 0 -285 0 0 -580
0 -580 -290 0 -290 0 0 865 0 865 865 0 865 0 0 -1150 0 -1150 285 0 285 0 0
1150 0 1150 1445 0 1445 0 0 -2015 0 -2015 -290 0 -290 0 0 1730 0 1730 -287
-2 -288 -3 -3 -1728 -2 -1727 -285 0 -285 0 -2 1727 -3 1728 -287 3 -288 2 0
-1155 0 -1155 -575 0 -575 0 0 -285 0 -285 575 0 575 0 0 -290 0 -290 -865 0
-865 0 0 575 0 575 -865 0 -865 0 0 -285 0 -285 580 0 580 0 0 -290 0 -290
-1440 0 -1440 0 0 285 c0 157 0 677 0 1155 0 479 0 998 0 1155 l0 285 575 0
575 0 0 865 0 865 -290 0 -290 0 0 -575 0 -575 -1440 0 -1440 0 0 285 0 285
575 0 575 0 0 290 0 290 -860 0 -860 0 0 -575 0 -575 -290 0 -290 0 0 865 0
865 1440 0 1440 0 0 -580 0 -580 288 2 287 3 2 863 3 862 -2020 0 -2021 0 1
-288 c0 -158 0 -416 0 -574 l0 -288 -575 0 -575 0 0 -865 0 -865 290 0 290 0
0 575 0 575 285 0 285 0 0 -865 0 -865 -575 0 -575 0 0 -575 0 -575 -575 0
-575 0 0 -285 0 -285 865 0 865 0 0 575 0 575 1150 0 1150 0 0 285 0 285 -575
0 -575 0 0 290 0 290 865 0 865 0 0 -575 0 -575 285 0 285 0 0 575 0 575 290
0 290 0 0 -865 0 -865 -575 0 -575 0 0 -285 0 -285 575 0 575 0 0 -290 0 -290
-865 0 -865 0 0 575 0 575 -865 0 -865 0 0 -285 0 -285 580 0 580 0 0 -290 0
-290 -2020 0 -2020 0 0 575 0 575 -1725 0 -1725 0 0 290 0 290 575 0 575 0 0
575 0 575 575 0 575 0 0 1440 0 1440 -285 0 -285 0 0 -575 0 -575 -1155 0
-1155 0 0 -290 0 -290 1155 0 1155 0 0 -285 0 -285 -577 -2 -578 -3 -3 -577
-2 -578 -285 0 -285 0 -2 577 -3 578 -287 3 -288 2 0 -1440 0 -1440 1730 0
1730 0 0 -290 0 -290 -2020 0 -2020 0 0 2595 0 2595 580 0 580 0 0 285 0 285
-580 0 -580 0 0 2595 0 2595 290 0 290 0 0 -1155 0 -1155 288 2 287 3 2 1150
c2 633 3 1410 3 1728 l0 577 285 0 285 0 0 -575 0 -575 578 -2 577 -3 3 -287
2 -288 -580 0 -580 0 0 -1150 0 -1150 -287 0 c-159 0 -416 -1 -573 -3 l-285
-2 -3 -287 -2 -288 1730 0 1730 0 0 -290 0 -290 -1730 0 -1730 0 0 -285 0
-285 575 0 575 0 0 -575 0 -575 290 0 290 0 0 575 0 575 1440 0 1440 0 0 -290
0 -290 -575 0 -575 0 0 -1730 0 -1730 -575 0 -575 0 0 -285 0 -285 1435 0
1435 0 0 285 0 285 -575 0 -575 0 0 290 0 290 575 0 575 0 0 290 0 290 -575 0
-575 0 0 865 0 865 290 0 290 0 0 -580 0 -580 285 0 285 0 2 578 3 577 578 3
577 2 0 285 0 285 -580 0 -580 0 0 290 0 290 580 0 580 0 0 285 0 285 -1155 0
-1155 0 0 290 0 290 575 0 575 0 0 290 0 290 -575 -2 -575 -3 0 288 0 287 865
0 865 0 0 -575 0 -575 290 0 290 0 0 865 0 865 -2015 0 -2015 0 0 -290 0 -290
575 0 575 0 0 -287 0 -288 -582 2 c-321 2 -710 3 -865 3 l-283 0 0 860 0 860
288 0 c158 0 1194 1 2302 3 l2015 2 3 288 2 287 -1155 0 -1155 0 0 865 0 865
290 0 290 0 0 -575 0 -575 285 0 285 0 0 575 0 575 290 0 290 0 0 -575 0 -575
865 0 865 0 0 285 0 285 -575 0 -575 0 0 290 0 290 575 0 575 0 0 285 0 285
-575 0 -575 0 0 290 0 290 865 0 865 0 0 -1150 0 -1150 285 0 285 0 0 575 0
575 290 0 290 0 0 -865 0 -865 -575 0 -575 0 0 -1730 0 -1730 -290 0 -290 0 0
1730 0 1730 -290 0 -290 0 0 -2015 0 -2015 865 0 865 0 0 575 0 575 290 0 290
0 0 -575 0 -575 285 0 285 0 0 575 0 575 290 0 290 0 0 -575 0 -575 575 0 575
0 0 -575 0 -575 290 0 290 0 0 860 0 860 -575 0 -575 0 -2 578 -3 577 -1153 0
-1152 0 0 287 0 288 1153 2 1152 3 0 285 0 285 -1152 3 -1153 2 0 285 0 285
288 0 c158 0 676 1 1152 3 l865 2 3 288 2 287 -580 0 -580 0 0 290 0 290 1440
0 1440 0 0 -290 0 -290 -575 0 -575 0 0 -865 0 -865 290 0 290 0 0 575 0 575
288 0 c158 0 416 0 575 0 l287 -1 0 581 0 580 1150 0 1150 0 0 285 0 285
-1725 0 -1725 0 0 290 0 290 1150 0 1150 0 0 285 0 285 -575 0 -575 0 0 1155
0 1155 -287 -2 -288 -3 -2 -285 c-2 -157 -3 -414 -3 -572 l0 -288 -572 -2
-573 -3 -3 -287 -2 -288 575 0 575 0 0 -290 0 -290 -860 0 -860 0 -2 578 c-2
317 -2 706 0 865 l2 287 575 0 575 0 0 290 0 290 -865 0 -865 0 0 -575 0 -575
-290 0 -290 0 0 575 0 575 -285 0 -285 0 0 -865 0 -865 575 0 575 0 0 -575 0
-575 575 0 575 0 0 -290 0 -290 -865 0 -865 0 0 575 0 575 -575 0 -575 0 0
2595 0 2595 290 0 290 0 0 -575 0 -575 575 0 575 0 0 -290 0 -290 -575 0 -575
0 0 -285 0 -285 865 0 865 0 0 860 0 860 -580 0 -580 0 0 290 0 290 865 0 865
0 0 -575 0 -575 1440 0 1440 0 0 285 0 285 -1150 0 -1150 0 0 290 0 290 1440
0 1440 0 0 -575 0 -575 285 0 285 0 0 1440 0 1440 -575 0 -575 0 0 575 0 575
-285 0 -285 0 0 -865 0 -865 575 0 575 0 0 -290 0 -290 -2015 0 -2015 0 0 293
c0 160 -1 420 -3 577 l-2 285 -287 3 -288 2 0 -580 0 -580 -287 2 -288 3 -3
862 -2 863 577 2 c318 2 707 2 866 0 l287 -2 0 -575 0 -575 865 0 865 0 0 865
0 865 -287 -2 -288 -3 -2 -285 c-2 -157 -3 -414 -3 -572 l0 -288 -285 0 -285
0 0 575 0 575 -1440 0 -1440 0 0 -1155 0 -1155 -1155 0 -1155 0 0 -285 0 -285
580 0 580 0 0 -2015 0 -2015 -290 0 -290 0 0 1150 0 1150 -290 0 -291 0 1
-287 c0 -159 0 -676 0 -1150 l0 -863 -285 0 -285 0 0 575 0 575 -290 0 -290 0
0 -575 0 -575 -287 -2 c-159 -2 -548 -2 -865 0 l-578 2 0 285 0 285 575 0 575
0 0 865 0 865 -285 0 -285 0 0 -575 0 -575 -575 0 -575 0 0 -865 0 -865 1150
0 1150 0 0 -290 0 -290 -1150 0 -1150 0 0 -1150 0 -1150 -290 0 -290 0 0 575
0 575 -575 0 -575 0 0 290 0 290 575 0 575 0 0 865 0 865 -285 0 -285 0 -2
-577 -3 -578 -287 -3 -288 -2 0 865 0 865 575 0 575 0 0 580 0 580 575 0 575
0 0 1150 0 1150 290 0 290 0 0 -575 0 -575 285 0 285 0 0 860 0 860 -860 0
-860 0 0 -1150 0 -1150 -290 0 -290 0 0 1150 0 1150 -575 0 -575 0 0 1155 0
1155 -290 0 -290 0 0 -2015 0 -2015 290 0 290 0 0 575 0 575 290 0 290 0 0
-865 0 -865 -580 0 -580 0 0 -285 0 -285 578 -2 577 -3 3 -287 2 -288 -1155 0
-1155 0 0 -290 0 -290 575 0 575 0 0 -865 0 -865 -575 0 -575 0 0 -575 0 -575
-290 0 -290 0 0 865 0 865 580 0 580 0 -2 288 -3 287 -577 3 -578 2 0 865 0
865 580 0 580 0 -3 2013 -2 2012 -287 3 -288 2 0 -1730 0 -1730 -290 0 -290 0
0 2880 0 2880 -285 0 -285 0 0 -11235z M1440 22465 l0 -865 288 2 287 3 3 578
2 577 863 -2 862 -3 3 -1152 2 -1153 285 0 285 0 0 1155 0 1155 290 0 290 0 0
-1155 0 -1155 1150 0 1150 0 0 -1725 0 -1725 290 0 290 0 0 575 0 575 575 0
575 0 0 285 0 285 -575 0 -575 0 0 1440 0 1440 288 2 c158 2 547 2 865 0 l577
-2 0 -285 0 -285 -577 -2 -578 -3 -3 -287 -2 -288 865 0 865 0 0 865 0 865
-1440 0 -1440 0 0 -575 0 -575 -865 0 -865 0 0 865 0 865 290 0 290 0 0 -580
0 -580 285 0 285 0 0 580 0 580 4900 0 4900 0 0 -580 0 -581 288 1 c158 0 416
0 575 0 l287 0 0 -575 0 -575 1155 0 1155 0 -2 -287 -3 -288 -1152 -3 -1153
-2 0 -1150 0 -1150 -2305 0 -2305 0 0 -285 0 -285 1155 0 1155 0 0 -1155 0
-1155 1440 0 1440 0 -2 288 -3 287 -575 2 c-316 2 -835 3 -1152 3 l-578 0 0
865 0 865 1155 0 1155 0 0 1150 0 1150 1725 0 1725 0 0 285 0 285 -575 0 -575
0 0 290 0 290 575 0 575 0 0 290 0 290 -1150 0 -1150 0 0 285 0 285 288 0
c158 0 416 0 575 0 l287 -1 0 291 0 290 -865 0 -865 0 0 -575 0 -575 -285 0
-285 0 0 575 0 575 -580 0 -580 0 0 290 0 290 2020 0 2020 0 0 -580 0 -580
285 0 285 0 0 580 0 580 290 0 290 0 0 -10950 0 -10950 288 2 287 3 2 11233 3
11232 -10660 0 -10660 0 0 -865z"/>
</g>
</svg>
