<?xml version="1.0" standalone="no"?>
<!DOCTYPE svg PUBLIC "-//W3C//DTD SVG 20010904//EN"
 "http://www.w3.org/TR/2001/REC-SVG-20010904/DTD/svg10.dtd">
<svg version="1.0" xmlns="http://www.w3.org/2000/svg"
 width="2362.000000pt" height="2362.000000pt" viewBox="0 0 2362.000000 2362.000000"
 preserveAspectRatio="xMidYMid meet">
<metadata>
Created by potrace 1.16, written by Peter Selinger 2001-2019
</metadata>
<g transform="translate(0.000000,2362.000000) scale(0.100000,-0.100000)"
fill="#000000" stroke="none">
<path d="M290 12095 l0 -11235 10655 0 10655 0 0 290 0 290 -4030 0 -4030 0 0
290 0 290 575 0 575 0 0 285 0 285 -1440 0 -1440 0 0 -285 0 -285 575 0 575 0
0 -290 0 -290 -2015 0 -2015 0 0 575 0 575 -290 0 -291 0 1 -288 c0 -158 0
-416 0 -574 l0 -288 -285 0 -285 0 0 1440 0 1440 285 0 285 0 0 -287 c0 -159
0 -417 0 -576 l-1 -287 1156 0 1155 0 0 -290 0 -290 -575 0 -575 0 0 -285 0
-285 860 0 860 0 0 575 0 575 580 0 580 0 0 285 0 285 -580 0 -580 0 0 290 0
290 580 0 580 0 -2 288 -3 287 -577 3 -578 2 0 285 0 285 578 2 577 3 2 863 3
862 -290 0 -290 0 0 -575 0 -575 -290 0 -290 0 0 575 0 575 -860 0 -860 0 0
-285 0 -285 575 0 575 0 0 -1445 0 -1445 -290 0 -290 0 0 1155 0 1155 -285 0
-285 0 0 -1155 0 -1155 -290 0 -290 0 0 1155 0 1155 -1155 0 -1155 0 2 288 3
287 578 3 577 2 0 575 0 575 285 0 285 0 0 -575 0 -575 290 0 290 0 0 575 0
575 575 0 575 0 0 285 0 285 -2015 0 -2015 0 0 -285 0 -285 575 0 575 0 0
-290 0 -290 -865 0 -865 0 0 1155 0 1155 -285 0 -285 0 0 -1440 0 -1440 575 0
575 0 0 -290 0 -290 -575 0 -575 0 0 -290 0 -290 1725 0 1725 0 0 -285 0 -285
-575 0 -575 0 0 -580 0 -580 -1150 0 -1150 0 0 -285 0 -285 1150 0 1150 0 0
-290 0 -290 -575 0 -575 0 0 -285 0 -285 575 0 575 0 0 -290 0 -290 -865 0
-865 0 0 575 0 575 -285 0 -285 0 0 -575 0 -575 -865 0 -865 0 0 2305 0 2305
-290 0 -290 0 0 -2305 0 -2305 -865 0 -865 0 0 3170 0 3170 1155 0 1155 0 0
285 0 285 -575 0 -575 0 -2 577 -3 578 -285 0 -285 0 -3 -577 -2 -578 -290 0
-290 0 0 2020 0 2020 290 0 290 0 0 -580 0 -580 288 2 287 3 3 578 2 577 575
0 575 0 0 575 0 575 575 0 575 0 0 865 0 865 -285 0 -285 0 -2 -577 -3 -578
-577 -3 -578 -2 0 -575 0 -575 -865 0 -865 0 0 5185 0 5185 -285 0 -285 0 0
-11235z M1440 23045 l0 -285 575 0 575 0 0 -290 0 -290 -575 0 -575 0 0 -290
0 -290 1440 0 1440 0 0 290 0 290 -575 0 -575 0 0 290 0 290 2015 0 2015 0 0
-290 0 -290 -1150 0 -1150 0 0 -575 0 -575 -1155 0 -1155 0 0 -580 0 -580
-285 0 -285 0 -2 578 -3 577 -287 3 -288 2 0 -865 0 -865 575 0 575 0 0 -865
0 -865 -285 0 -285 0 0 288 c0 158 0 416 0 575 l1 287 -291 0 -290 0 0 -1440
0 -1440 575 0 575 0 0 -285 0 -285 -287 0 c-159 0 -417 0 -575 0 l-288 1 0
-866 0 -865 290 0 291 0 -1 288 c0 158 0 416 0 575 l0 287 575 0 575 0 0 865
0 865 -575 0 -575 0 0 290 0 290 575 0 575 0 0 1725 0 1725 290 0 290 0 0
-2305 0 -2305 860 0 860 0 0 290 0 290 -575 0 -575 0 0 865 0 865 290 0 290 0
0 -575 0 -575 575 0 575 0 0 -1730 0 -1730 285 0 285 0 0 2015 0 2015 -575 0
-575 0 0 1150 0 1150 -285 0 -285 0 0 -575 0 -575 -290 0 -290 0 0 865 0 865
575 0 575 0 0 575 0 575 290 0 290 0 0 -1150 0 -1150 285 0 285 0 0 575 0 575
290 0 290 0 0 -575 0 -575 290 0 290 0 0 575 0 575 285 0 285 0 0 -287 c0
-159 0 -417 0 -575 l-1 -288 291 0 290 0 0 865 0 865 -1155 0 -1155 0 0 285 0
285 578 2 577 3 3 578 2 577 3165 0 3165 0 0 -292 c0 -161 1 -421 3 -578 l2
-285 288 -3 287 -2 0 580 0 580 290 0 290 0 0 -580 0 -580 285 0 285 0 0 580
0 580 1440 0 1440 0 0 -290 0 -290 -1150 0 -1150 0 0 -290 0 -291 288 1 c158
0 416 0 575 0 l287 0 0 -1150 0 -1150 290 0 290 0 0 1150 0 1150 285 0 285 0
0 -575 0 -575 290 0 290 0 0 575 0 575 290 0 290 0 -2 -862 -3 -863 -577 -3
-578 -2 0 -285 0 -285 865 0 865 0 0 1440 0 1440 -575 0 -575 0 0 290 0 290
1440 0 1440 0 0 -290 0 -290 -575 0 -575 0 0 -865 0 -865 285 0 285 0 0 575 0
575 290 0 290 0 0 -2590 0 -2590 -575 0 -575 0 0 -290 0 -290 575 0 575 0 0
-285 0 -285 -287 0 c-159 0 -417 0 -575 0 l-288 1 0 -291 0 -290 575 0 575 0
0 -290 0 -290 -1440 0 -1440 0 0 290 0 290 575 0 575 0 0 1155 0 1155 575 0
575 0 0 285 0 285 -575 0 -575 0 0 290 0 290 575 0 575 0 0 860 0 860 -285 0
-285 0 0 -575 0 -575 -575 0 -575 0 0 -1150 0 -1150 -290 0 -290 0 0 1150 0
1150 -1155 0 -1155 0 0 1155 0 1155 -285 0 -285 0 0 -580 0 -580 -290 0 -290
0 0 580 0 580 -285 0 -285 0 0 -580 0 -580 -290 0 -290 0 0 580 0 580 -575 0
-575 0 0 575 0 575 -290 0 -290 0 0 -575 0 -575 -285 0 -285 0 0 288 c0 158 0
416 0 575 l1 287 -2021 0 -2020 0 2 -287 3 -288 575 -2 c316 -2 835 -3 1153
-3 l577 0 0 -575 0 -575 285 0 285 0 0 575 0 575 290 0 290 0 0 -575 0 -575
575 0 575 0 0 -575 0 -575 290 0 290 0 0 575 0 575 285 0 285 0 0 -287 c0
-159 0 -417 0 -575 l-1 -288 581 0 580 0 0 -290 0 -290 -1440 0 -1440 0 0 575
0 575 -290 0 -290 0 0 -1150 0 -1150 -575 0 -575 0 0 -285 0 -285 865 0 865 0
0 575 0 575 285 0 285 0 0 -2020 0 -2020 -285 0 -285 0 0 578 c0 317 -1 836
-3 1152 l-2 575 -2302 3 -2303 2 0 290 0 290 575 0 575 0 0 575 0 575 290 0
290 0 0 -575 0 -575 285 0 285 0 0 575 0 575 575 0 575 0 0 285 0 285 -575 0
-575 0 0 290 0 290 575 0 575 0 0 285 0 285 -575 0 -575 0 0 580 0 580 -285 0
-285 0 0 -1155 0 -1155 -1730 0 -1730 0 0 -285 0 -285 1150 0 1150 0 0 -290 0
-290 -575 0 -575 0 0 -2015 0 -2015 290 0 290 0 0 1150 0 1150 285 0 285 0 0
-575 0 -575 580 0 580 0 0 -290 0 -290 -580 0 -580 0 0 -575 0 -575 -1440 0
-1440 0 0 1155 0 1155 -285 0 -285 0 0 -1155 0 -1155 -575 0 -575 0 0 -285 0
-285 575 0 575 0 0 -290 0 -290 -1155 0 -1155 0 0 -575 0 -575 -575 0 -575 0
0 -290 0 -290 1155 0 1155 0 0 -285 0 -285 -292 0 c-161 0 -421 -1 -578 -3
l-285 -2 -3 -287 -2 -288 580 0 580 0 0 -865 0 -865 -1155 0 -1155 0 0 -2590
0 -2590 290 0 290 0 0 1728 c0 950 0 1987 0 2305 l0 577 863 -2 862 -3 3
-2302 2 -2303 285 0 285 0 0 1150 0 1150 1150 0 1150 0 0 290 0 290 -1150 0
-1150 0 0 2590 0 2590 575 0 575 0 0 290 0 290 -1150 0 -1150 0 0 285 0 285
283 0 c597 0 2035 0 2310 0 l287 0 0 -575 0 -575 285 0 285 0 0 865 0 865
-575 0 -575 0 0 290 0 290 2020 0 2020 0 0 -290 0 -290 -1155 0 -1155 0 2
-287 3 -288 285 -2 c157 -2 414 -3 573 -3 l287 0 0 -860 0 -860 -285 0 -285 0
0 575 0 575 -290 0 -290 0 0 -575 0 -575 -287 0 c-159 0 -417 0 -575 0 l-288
1 0 -291 0 -290 2305 0 2305 0 0 -575 0 -575 285 0 285 0 0 865 0 865 -862 0
c-475 0 -992 0 -1150 0 l-288 0 0 860 0 860 288 0 c158 0 416 0 575 0 l287 -1
0 866 0 865 -575 0 -575 0 0 290 0 290 575 0 575 0 0 575 0 575 290 0 290 0 0
-1150 0 -1150 575 0 575 0 0 -290 0 -290 -575 0 -575 0 0 -575 0 -575 -575 0
-575 0 0 -290 0 -290 1150 0 1150 0 0 -1150 0 -1150 290 0 291 0 -1 287 c0
159 0 417 0 576 l0 287 285 0 285 0 0 -2305 0 -2305 290 0 290 0 0 2305 0
2305 288 0 287 0 -2 -2307 c-2 -1270 -3 -2437 -3 -2595 l0 -288 -575 0 -575 0
0 -285 0 -285 1155 0 1155 0 0 -575 0 -575 285 0 285 0 0 860 0 860 -575 0
-575 0 0 290 0 290 1440 0 1440 0 0 -290 0 -290 -575 0 -575 0 0 -285 0 -285
575 0 575 0 0 -290 0 -290 -575 0 -575 0 0 -285 0 -285 865 0 865 0 0 1150 0
1150 285 0 285 0 0 -575 0 -575 290 0 290 0 0 865 0 865 -575 0 -575 0 0 285
0 285 865 0 865 0 0 -575 0 -575 285 0 285 0 0 1440 0 1440 -285 0 -285 0 0
-575 0 -575 -290 0 -290 0 0 865 0 865 575 0 575 0 0 285 0 285 -865 0 -865 0
0 -1150 0 -1150 -575 0 -575 0 0 -575 0 -575 -865 0 -865 0 0 865 0 865 290 0
290 0 0 -580 0 -580 285 0 285 0 0 865 0 865 -575 0 -575 0 0 575 0 575 -285
0 -285 0 0 -1725 0 -1725 -290 0 -290 0 0 2305 0 2306 -287 -1 c-159 0 -417 0
-575 0 l-288 0 0 575 0 575 -290 0 -290 0 0 -575 0 -575 -285 0 -285 0 0 288
c0 158 -1 415 -3 572 l-2 285 -577 3 -578 2 0 285 0 285 578 2 577 3 2 863 3
862 -580 0 -580 0 0 1155 0 1155 -862 0 c-475 0 -992 0 -1150 0 l-288 0 0 285
0 285 1440 0 1440 0 0 -1150 0 -1150 1440 0 1440 0 0 285 0 285 -575 0 -575 0
0 290 0 290 575 0 575 0 0 290 0 291 -287 -1 c-159 0 -417 0 -575 0 l-288 0 0
285 0 285 865 0 865 0 0 -1440 0 -1440 -580 0 -581 0 1 -287 c0 -159 0 -417 0
-575 l0 -288 -285 0 -285 0 0 575 0 575 -290 0 -290 0 2 -862 3 -863 569 -2
c313 -2 571 -4 573 -6 2 -2 4 -260 6 -573 l2 -569 578 -3 577 -2 0 -575 0
-575 285 0 285 0 0 575 0 575 290 0 290 0 0 -575 0 -575 285 0 285 0 0 575 0
575 290 0 290 0 0 -865 0 -865 -575 0 -575 0 0 -285 0 -285 575 0 575 0 0
-575 0 -575 290 0 290 0 0 1150 0 1150 575 0 575 0 -2 288 -3 287 -285 2
c-157 2 -414 3 -572 3 l-288 0 0 285 0 285 575 0 575 0 0 290 0 290 -575 0
-575 0 0 285 0 285 288 0 c158 0 675 0 1150 0 l862 0 0 290 0 290 -575 0 -575
0 0 575 0 575 -865 0 -865 0 0 -285 0 -285 575 0 575 0 0 -290 0 -290 -1150 0
-1150 0 0 -290 0 -291 288 1 c158 0 416 0 575 0 l287 0 0 -285 0 -285 -1440 0
-1440 0 0 865 0 865 290 0 290 0 0 -580 0 -580 285 0 285 0 0 580 0 580 575 0
575 0 0 285 0 285 -575 0 -575 0 0 290 0 290 575 0 575 0 0 285 0 285 -575 0
-575 0 0 1155 0 1155 -1150 0 -1150 0 0 290 0 290 1150 0 1150 0 0 285 0 285
-1150 0 -1150 0 0 290 0 290 1150 0 1150 0 0 575 0 575 290 0 290 0 0 -1150 0
-1150 575 0 575 0 0 -290 0 -290 -575 0 -575 0 0 -865 0 -865 285 0 285 0 0
575 0 575 578 2 577 3 3 863 2 862 -580 0 -580 0 0 290 0 290 865 0 865 0 2
-1152 3 -1153 578 -3 577 -2 0 -285 0 -285 -577 -2 -578 -3 -3 -577 -2 -578
-285 0 -285 0 -2 578 -3 577 -287 3 -288 2 0 -865 0 -865 1155 0 1155 0 0
-575 0 -575 285 0 285 0 0 575 0 575 865 0 865 0 0 -2017 0 -2018 -290 3 -290
3 0 1724 0 1725 -285 0 -285 0 0 -1150 0 -1150 -575 0 -575 0 0 -865 0 -865
285 0 285 0 0 575 0 575 290 0 290 0 0 -1150 0 -1150 285 0 285 0 0 575 0 575
290 0 290 0 0 -2015 0 -2015 -290 0 -290 0 0 1150 0 1150 -285 0 -285 0 0
-1440 0 -1440 575 0 575 0 0 -290 0 -290 -1150 0 -1150 0 0 -285 0 -285 1150
0 1150 0 0 -290 0 -290 -1730 0 -1730 0 0 -285 0 -285 1730 0 1730 0 0 -580 0
-580 288 2 287 3 2 11233 3 11232 -10660 0 -10660 0 0 -285z"/>
</g>
</svg>
