<?xml version="1.0" standalone="no"?>
<!DOCTYPE svg PUBLIC "-//W3C//DTD SVG 20010904//EN"
 "http://www.w3.org/TR/2001/REC-SVG-20010904/DTD/svg10.dtd">
<svg version="1.0" xmlns="http://www.w3.org/2000/svg"
 width="2362.000000pt" height="2362.000000pt" viewBox="0 0 2362.000000 2362.000000"
 preserveAspectRatio="xMidYMid meet">
<metadata>
Created by potrace 1.16, written by Peter Selinger 2001-2019
</metadata>
<g transform="translate(0.000000,2362.000000) scale(0.100000,-0.100000)"
fill="#000000" stroke="none">
<path d="M290 12095 l0 -11235 10655 0 10655 0 0 290 0 290 -5760 0 -5760 0 0
290 0 290 575 0 575 0 0 285 0 285 -575 0 -575 0 0 575 0 575 -285 0 -285 0 0
-575 0 -575 -290 0 -290 0 0 865 0 865 575 0 575 0 0 290 0 290 -575 0 -575 0
0 1150 0 1150 -290 0 -291 0 1 -288 c0 -158 0 -416 0 -574 l0 -288 -1440 0
-1440 0 0 290 0 290 1155 0 1155 0 0 285 0 285 -1730 0 -1730 0 0 290 0 290
1150 0 1150 0 0 575 0 575 580 0 580 0 0 575 0 575 575 0 575 0 0 865 0 865
-290 0 -291 0 1 -287 c0 -159 0 -417 0 -575 l0 -288 -575 0 -575 0 0 -575 0
-575 -287 0 c-159 0 -417 0 -575 0 l-288 1 0 -581 0 -580 -865 0 -865 0 0 580
0 580 -285 0 -285 0 0 -1440 0 -1440 575 0 575 0 0 -580 0 -580 1150 0 1150 0
0 -285 0 -285 -1150 0 -1150 0 0 -865 0 -865 285 0 285 0 0 575 0 575 1155 0
1155 0 0 575 0 575 285 0 285 0 0 -865 0 -865 -1150 0 -1150 0 0 -285 0 -285
1150 0 1150 0 0 -290 0 -290 -2300 0 -2300 0 0 -285 0 -285 2880 0 2880 0 0
-290 0 -290 -4325 0 -4325 0 0 290 0 290 580 0 580 0 0 285 0 285 -580 0 -580
0 0 865 0 865 580 0 580 0 -2 287 -3 288 -577 3 -578 2 0 3165 0 3165 290 0
290 0 0 -2880 0 -2880 575 0 575 0 0 -865 0 -865 -575 0 -575 0 0 -285 0 -285
575 0 575 0 0 -575 0 -575 290 0 290 0 0 575 0 575 575 0 575 0 0 285 0 285
-575 0 -575 0 0 865 0 865 290 0 290 0 0 -575 0 -575 285 0 285 0 0 865 0 865
-575 0 -575 0 0 575 0 575 -290 0 -290 0 0 -575 0 -575 -285 0 -285 0 -2 288
c-2 158 -2 547 0 865 l2 577 575 0 575 0 0 285 0 285 -575 0 -575 0 0 578 c0
1690 1 2296 4 2299 1 2 778 3 1724 3 l1722 0 0 290 0 290 -575 0 -575 0 0 290
0 290 575 0 575 0 0 575 0 575 575 0 575 0 0 285 0 285 -860 0 -860 0 0 -575
0 -575 -575 0 -575 0 0 -575 0 -575 -1445 0 -1445 0 0 1440 0 1440 290 0 290
0 0 -1150 0 -1150 865 0 865 0 0 285 0 285 -575 0 -575 0 0 290 0 290 575 0
575 0 0 1150 0 1150 575 0 575 0 0 865 0 865 -575 0 -575 0 0 865 0 865 290 0
290 0 0 -575 0 -575 285 0 285 0 0 575 0 575 865 0 865 0 0 -1150 0 -1150 285
0 285 0 0 1435 0 1435 -1725 0 -1725 0 0 580 0 580 -290 0 -290 0 0 -580 0
-580 -575 0 -575 0 0 -285 0 -285 575 0 575 0 0 -1150 0 -1150 578 -2 577 -3
3 -287 2 -288 -580 0 -580 0 0 -1155 0 -1155 -285 0 -285 0 -2 578 -3 577
-577 3 -578 2 0 285 0 285 578 2 577 3 0 285 0 285 -577 3 -578 2 0 290 0 290
580 0 580 0 0 285 0 285 -580 0 -580 0 0 290 0 290 580 0 580 0 0 285 0 285
-580 0 -580 0 0 2305 0 2305 -285 0 -285 0 0 -11235z M1440 23045 l0 -285
1730 0 1730 0 0 -580 0 -580 860 0 860 0 0 290 0 290 -575 0 -575 0 0 290 0
290 865 0 865 0 2 -577 3 -578 285 -2 c157 -2 414 -3 573 -3 l287 0 0 -285 0
-285 -2015 0 -2015 0 0 575 0 575 -1440 0 -1440 0 0 -865 0 -865 288 2 287 3
2 569 c2 313 4 571 6 572 3 4 287 5 1150 4 l577 0 0 -575 0 -575 1725 0 1725
0 0 -575 0 -575 290 0 290 0 0 575 0 575 285 0 285 0 0 -287 c0 -159 0 -417 0
-575 l-1 -288 291 0 290 0 0 1440 0 1440 -575 0 -575 0 0 290 0 290 1440 0
1440 0 0 -290 0 -290 -575 0 -575 0 0 -1440 0 -1440 285 0 285 0 0 1150 0
1150 575 0 575 0 0 580 0 580 290 0 290 0 0 -865 0 -865 -575 0 -575 0 0 -290
0 -290 863 2 862 3 2 575 c2 316 3 835 3 1153 l0 577 285 0 285 0 0 -1155 0
-1155 290 0 290 0 0 1155 0 1155 865 0 865 0 0 -290 0 -290 -577 -2 -578 -3 0
-860 0 -860 288 -3 287 -2 0 575 0 575 290 0 290 0 0 -1150 0 -1150 1150 0
1150 0 0 -575 0 -575 290 0 290 0 -2 1438 -3 1437 -287 3 -288 2 0 -580 0
-580 -287 2 -288 3 -3 578 -2 577 -285 0 -285 0 0 -580 0 -580 -290 0 -290 0
0 1445 0 1445 290 0 290 0 0 -580 0 -580 863 3 862 2 3 288 2 287 -580 0 -580
0 0 290 0 290 865 0 865 0 0 -1730 0 -1730 290 0 290 0 0 575 0 575 290 0 290
0 0 -575 0 -575 285 0 285 0 0 1440 0 1440 -285 0 -285 0 0 -575 0 -575 -290
0 -290 0 0 865 0 865 1440 0 1440 0 0 -290 0 -290 -575 0 -575 0 0 -290 0
-291 288 1 c158 0 416 0 575 0 l287 0 0 -865 0 -865 -290 0 -290 0 0 580 0
580 -285 0 -285 0 0 -865 0 -865 575 0 575 0 0 -290 0 -290 -1150 0 -1150 0 0
-1150 0 -1150 -580 0 -580 0 2 -287 3 -288 863 -3 862 -2 0 1155 0 1155 865 0
865 0 0 -290 0 -290 -575 0 -575 0 0 -285 0 -285 575 0 575 0 0 -290 0 -290
-575 0 -575 0 0 -575 0 -575 -577 0 c-318 0 -837 -1 -1153 -3 l-575 -2 -3
-287 -2 -288 1440 0 1440 0 0 575 0 575 290 0 290 0 0 -4895 0 -4895 -865 0
-865 0 0 290 0 290 575 0 575 0 0 3740 0 3740 -860 0 -860 0 0 -285 0 -285
575 0 575 0 0 -865 0 -865 -290 0 -290 0 0 575 0 575 -285 0 -285 0 0 -865 0
-866 288 1 c158 0 416 0 575 0 l287 0 0 -285 0 -285 -865 0 -865 0 0 1725 0
1725 -575 0 -575 0 -2 578 -3 577 -287 3 -288 2 0 -580 0 -580 -290 0 -290 0
0 1155 0 1155 -575 0 -575 0 0 290 0 290 865 0 865 0 0 -580 0 -580 288 2 287
3 3 578 2 577 575 0 575 0 0 860 0 860 -290 0 -290 0 0 -575 0 -575 -2305 0
-2305 0 0 -285 0 -285 580 0 580 0 0 -290 0 -290 -577 -2 -578 -3 -2 -2015
c-2 -1108 -3 -2144 -3 -2302 l0 -288 -285 0 -285 0 0 575 0 575 -290 0 -290 0
0 -575 0 -575 -285 0 -285 0 0 288 c0 270 0 2847 0 3460 l0 282 285 0 285 0 0
-1150 0 -1150 290 0 290 0 0 1440 0 1440 -575 0 -575 0 0 290 0 290 575 0 575
0 0 1150 0 1150 288 0 287 0 -3 -575 -2 -575 1440 0 1440 0 0 285 0 285 -1150
0 -1150 0 0 575 0 575 -865 0 -865 0 0 -1150 0 -1150 -865 0 -865 0 0 290 0
290 580 0 580 0 0 860 0 860 -290 0 -290 0 0 -575 0 -575 -290 0 -290 0 0 575
0 575 -285 0 -285 0 0 -2015 0 -2015 285 0 285 0 0 580 0 580 290 0 290 0 0
-1445 0 -1445 -290 0 -290 0 0 580 0 580 -575 0 -575 0 0 1725 0 1725 -285 0
-285 0 0 -2305 0 -2305 -865 0 -865 0 0 290 0 290 575 0 575 0 0 290 0 290
-575 0 -575 0 0 285 0 285 575 0 575 0 0 1440 0 1440 -865 0 -865 0 0 -285 0
-285 575 0 575 0 0 -290 0 -290 -575 0 -575 0 0 -285 0 -285 575 0 575 0 0
-290 0 -290 -1440 0 -1440 0 0 1150 0 1150 -285 0 -285 0 0 -1440 0 -1440
1150 0 1150 0 0 -285 0 -285 -287 0 c-159 0 -935 0 -1725 0 l-1438 0 0 -865 0
-865 285 0 285 0 0 575 0 575 1440 0 1440 0 0 -575 0 -575 575 0 575 0 0 -290
0 -290 -575 0 -575 0 0 -575 0 -575 -290 0 -290 0 0 575 0 575 -285 0 -285 0
0 -1150 0 -1150 -1730 0 -1730 0 0 -865 0 -865 290 0 290 0 0 575 0 575 865 0
865 0 0 -575 0 -575 285 0 285 0 0 575 0 575 575 0 575 0 0 575 0 575 578 2
577 3 3 578 2 577 575 0 575 0 0 575 0 575 575 0 575 0 0 575 0 575 290 0 290
0 0 -865 0 -865 -575 0 -575 0 0 -285 0 -285 575 0 575 0 0 -290 0 -290 -575
0 -575 0 0 -290 0 -290 860 0 860 0 0 1155 0 1155 290 0 290 0 0 -1155 0
-1155 1440 0 1440 0 0 1730 0 1730 290 0 290 0 0 -575 0 -575 285 0 285 0 0
865 0 865 -575 0 -575 0 0 285 0 285 865 0 865 0 0 -1440 0 -1440 -575 0 -575
0 0 -1440 0 -1440 285 0 285 0 0 575 0 575 578 0 c317 0 836 1 1152 3 l575 2
3 863 2 862 -290 0 -290 0 0 -575 0 -575 -865 0 -865 0 0 290 0 290 575 0 575
0 0 575 0 575 865 0 865 0 0 -1730 0 -1730 580 0 580 0 0 -1150 0 -1150 285 0
285 0 0 1150 0 1150 290 0 290 0 0 -1440 0 -1440 -865 0 -865 0 -2 1153 -3
1152 -285 2 c-157 2 -414 3 -572 3 l-288 0 -2 572 -3 573 -287 3 -288 2 0
-575 0 -575 -290 0 -290 0 0 575 0 575 -285 0 -285 0 0 -1730 0 -1730 -290 0
-290 0 0 575 0 575 -575 0 -575 0 0 290 0 290 575 0 575 0 0 290 0 290 -862
-3 -863 -2 -2 -290 c-2 -159 -3 -419 -3 -577 l0 -288 -860 0 -860 0 0 290 0
290 575 0 575 0 0 575 0 575 575 0 575 0 0 290 0 290 -865 0 -865 0 0 -575 0
-575 -285 0 -285 0 0 288 c0 158 -1 415 -3 572 l-2 285 -1437 3 -1438 2 0
-575 0 -575 -292 0 c-161 0 -421 -1 -578 -3 l-285 -2 -3 -287 -2 -288 865 0
865 0 0 575 0 575 865 0 865 0 0 -1440 0 -1440 -865 0 -865 0 0 290 0 290 575
0 575 0 0 865 0 865 -285 0 -285 0 0 -580 0 -580 -1730 0 -1730 0 0 -285 0
-285 1155 0 1155 0 0 -1155 0 -1155 285 0 285 0 0 580 0 580 1155 0 1155 0 0
575 0 575 1440 0 1440 0 0 -1155 0 -1155 285 0 285 0 0 580 0 580 290 0 290 0
0 -580 0 -580 285 0 285 0 0 1730 0 1730 290 0 290 0 0 -575 0 -575 290 0 290
0 0 575 0 575 285 0 285 0 0 -865 0 -865 -575 0 -575 0 0 -1730 0 -1730 -290
0 -290 0 0 580 0 580 -285 0 -285 0 0 -580 0 -580 -290 0 -290 0 0 580 0 580
-575 0 -575 0 0 1150 0 1150 -865 0 -865 0 0 -285 0 -285 575 0 575 0 0 -290
0 -290 -575 0 -575 0 0 -575 0 -575 -865 0 -865 0 0 285 0 285 578 2 577 3 0
285 0 285 -862 3 -863 2 0 -865 0 -865 575 0 575 0 0 -290 0 -290 -575 0 -575
0 0 -285 0 -285 575 0 575 0 0 -575 0 -575 865 0 865 0 0 285 0 285 -575 0
-575 0 0 285 c0 157 0 418 0 580 0 162 0 423 0 580 l0 285 285 0 285 0 0 -575
0 -575 290 0 290 0 0 1150 0 1150 285 0 285 0 0 -287 c0 -159 0 -676 0 -1150
l0 -863 290 0 290 0 0 575 0 575 290 0 290 0 0 -865 0 -865 -580 0 -580 0 0
-285 0 -285 865 0 865 0 0 575 0 575 290 0 290 0 0 -575 0 -575 285 0 285 0 0
575 0 575 290 0 290 0 0 -575 0 -575 290 0 290 0 0 2305 0 2305 285 0 285 0 2
-577 3 -578 288 -3 287 -2 0 580 0 580 290 0 290 0 0 -865 0 -865 -577 -2
-578 -3 -3 -1437 -2 -1438 865 0 865 0 0 285 0 285 -575 0 -575 0 0 865 0 865
575 0 575 0 0 575 0 575 290 0 290 0 0 -575 0 -575 285 0 285 0 0 575 0 575
290 0 290 0 0 -865 0 -865 -1150 0 -1150 0 0 -285 0 -285 1150 0 1150 0 0
-290 0 -290 -575 0 -575 0 0 -285 0 -285 575 0 575 0 0 -580 0 -580 288 2 287
3 2 11233 3 11232 -10660 0 -10660 0 0 -285z"/>
</g>
</svg>
